ISO-10303-21;
HEADER;
/* Generated by software containing ST-Developer
 * from STEP Tools, Inc. (www.steptools.com) 
 */

FILE_DESCRIPTION(
/* description */ ('\X2\30B330B930E230FB30C630C330AF682A5F0F4F1A793E\X0\'),

/* implementation_level */ '2;1');

FILE_NAME(
/* name */ 'ICF114F60.5B.stp',
/* time_stamp */ '2025-10-21T11:22:50+09:00',
/* author */ ('Part-time8'),
/* organization */ (''),
/* preprocessor_version */ 'ST-DEVELOPER v20',
/* originating_system */ 'Autodesk Inventor 2025',
/* authorisation */ '');

FILE_SCHEMA (('AUTOMOTIVE_DESIGN { 1 0 10303 214 3 1 1 }'));
ENDSEC;

DATA;
#10=MECHANICAL_DESIGN_GEOMETRIC_PRESENTATION_REPRESENTATION('',(#31,#32,
#33,#34,#35,#36,#37,#38,#39,#40,#41,#42,#43,#44,#45,#46),#1738);
#11=GEOMETRICALLY_BOUNDED_WIREFRAME_SHAPE_REPRESENTATION('',(#12),#1737);
#12=GEOMETRIC_CURVE_SET('\X2\30B930B130C330C1\X0\1',(#16,#17,#18,#19,#20,
#21,#22,#23,#24,#25,#26,#27,#28,#29,#30,#1730,#1731,#1732,#1733,#1734));
#13=SHAPE_REPRESENTATION_RELATIONSHIP('SRR','None',#1745,#15);
#14=SHAPE_REPRESENTATION_RELATIONSHIP('SRR','None',#1745,#11);
#15=ADVANCED_BREP_SHAPE_REPRESENTATION('',(#47),#1737);
#16=POLYLINE('',(#1700,#1701));
#17=POLYLINE('',(#1702,#1703));
#18=POLYLINE('',(#1704,#1705));
#19=POLYLINE('',(#1706,#1707));
#20=POLYLINE('',(#1708,#1709));
#21=POLYLINE('',(#1710,#1711));
#22=POLYLINE('',(#1712,#1713));
#23=POLYLINE('',(#1714,#1715));
#24=POLYLINE('',(#1716,#1717));
#25=POLYLINE('',(#1718,#1719));
#26=POLYLINE('',(#1720,#1721));
#27=POLYLINE('',(#1722,#1723));
#28=POLYLINE('',(#1724,#1725));
#29=POLYLINE('',(#1726,#1727));
#30=POLYLINE('',(#1728,#1729));
#31=STYLED_ITEM('',(#1754),#47);
#32=STYLED_ITEM('',(#1755),#16);
#33=STYLED_ITEM('',(#1755),#17);
#34=STYLED_ITEM('',(#1755),#18);
#35=STYLED_ITEM('',(#1755),#19);
#36=STYLED_ITEM('',(#1755),#20);
#37=STYLED_ITEM('',(#1755),#21);
#38=STYLED_ITEM('',(#1755),#22);
#39=STYLED_ITEM('',(#1755),#23);
#40=STYLED_ITEM('',(#1755),#24);
#41=STYLED_ITEM('',(#1755),#25);
#42=STYLED_ITEM('',(#1755),#26);
#43=STYLED_ITEM('',(#1755),#27);
#44=STYLED_ITEM('',(#1755),#28);
#45=STYLED_ITEM('',(#1755),#29);
#46=STYLED_ITEM('',(#1755),#30);
#47=MANIFOLD_SOLID_BREP('\X2\30BD30EA30C330C9\X0\1',#906);
#48=CONICAL_SURFACE('',#1056,39.925,1.22173047639603);
#49=TOROIDAL_SURFACE('',#950,56.8,0.2);
#50=TOROIDAL_SURFACE('',#952,56.8,0.2);
#51=TOROIDAL_SURFACE('',#972,41.45,0.2);
#52=TOROIDAL_SURFACE('',#973,41.45,0.2);
#53=TOROIDAL_SURFACE('',#974,4.4,0.2);
#54=TOROIDAL_SURFACE('',#992,4.4,0.2);
#55=TOROIDAL_SURFACE('',#999,4.4,0.2);
#56=TOROIDAL_SURFACE('',#1006,4.4,0.2);
#57=TOROIDAL_SURFACE('',#1013,4.4,0.2);
#58=TOROIDAL_SURFACE('',#1020,4.4,0.2);
#59=TOROIDAL_SURFACE('',#1026,4.4,0.2);
#60=TOROIDAL_SURFACE('',#1028,4.4,0.2);
#61=TOROIDAL_SURFACE('',#1030,4.4,0.2);
#62=TOROIDAL_SURFACE('',#1032,4.4,0.2);
#63=TOROIDAL_SURFACE('',#1034,4.4,0.2);
#64=TOROIDAL_SURFACE('',#1036,4.4,0.2);
#65=TOROIDAL_SURFACE('',#1038,56.8,0.2);
#66=TOROIDAL_SURFACE('',#1043,38.4,0.2);
#67=TOROIDAL_SURFACE('',#1052,41.05,0.2);
#68=B_SPLINE_CURVE_WITH_KNOTS('',3,(#1407,#1408,#1409,#1410,#1411,#1412,
#1413,#1414,#1415,#1416),.UNSPECIFIED.,.F.,.F.,(4,2,2,2,4),(0.0296203250140017,
0.0370257131970507,0.0444308278915173,0.0518358822603027,0.0592406588592256),
 .UNSPECIFIED.);
#69=B_SPLINE_CURVE_WITH_KNOTS('',3,(#1419,#1420,#1421,#1422,#1423,#1424,
#1425,#1426,#1427,#1428),.UNSPECIFIED.,.F.,.F.,(4,2,2,2,4),(0.,0.00740472176795698,
0.0148095890390655,0.0222146329132897,0.029619823935387),.UNSPECIFIED.);
#70=B_SPLINE_CURVE_WITH_KNOTS('',3,(#1431,#1432,#1433,#1434,#1435,#1436,
#1437,#1438,#1439,#1440),.UNSPECIFIED.,.F.,.F.,(4,2,2,2,4),(-0.029619823935457,
-0.022214705203276,-0.0148097336152566,-0.00740479405420535,0.),
 .UNSPECIFIED.);
#71=B_SPLINE_CURVE_WITH_KNOTS('',3,(#1444,#1445,#1446,#1447,#1448,#1449,
#1450,#1451,#1452,#1453),.UNSPECIFIED.,.F.,.F.,(4,2,2,2,4),(-0.0592406588592195,
-0.0518360191412385,-0.0444311016667044,-0.0370258500913729,-0.0296203250142425),
 .UNSPECIFIED.);
#72=B_SPLINE_CURVE_WITH_KNOTS('',3,(#1469,#1470,#1471,#1472,#1473,#1474,
#1475,#1476,#1477,#1478),.UNSPECIFIED.,.F.,.F.,(4,2,2,2,4),(0.0296203250140014,
0.0370258500911318,0.0444311016664636,0.0518360191409972,0.0592406588589781),
 .UNSPECIFIED.);
#73=B_SPLINE_CURVE_WITH_KNOTS('',3,(#1481,#1482,#1483,#1484,#1485,#1486,
#1487,#1488,#1489,#1490),.UNSPECIFIED.,.F.,.F.,(4,2,2,2,4),(0.,0.00740479405420604,
0.0148097336152562,0.0222147052032763,0.0296198239354573),.UNSPECIFIED.);
#74=B_SPLINE_CURVE_WITH_KNOTS('',3,(#1493,#1494,#1495,#1496,#1497,#1498,
#1499,#1500,#1501,#1502),.UNSPECIFIED.,.F.,.F.,(4,2,2,2,4),(-0.0296198239353886,
-0.0222146329132904,-0.0148095890390653,-0.00740472176795631,0.),
 .UNSPECIFIED.);
#75=B_SPLINE_CURVE_WITH_KNOTS('',3,(#1506,#1507,#1508,#1509,#1510,#1511,
#1512,#1513,#1514,#1515),.UNSPECIFIED.,.F.,.F.,(4,2,2,2,4),(-0.0592406588589778,
-0.0518360191409975,-0.0444311016664632,-0.0370258500911323,-0.0296203250140011),
 .UNSPECIFIED.);
#76=LINE('',#1377,#108);
#77=LINE('',#1383,#109);
#78=LINE('',#1387,#110);
#79=LINE('',#1391,#111);
#80=LINE('',#1395,#112);
#81=LINE('',#1399,#113);
#82=LINE('',#1403,#114);
#83=LINE('',#1405,#115);
#84=LINE('',#1418,#116);
#85=LINE('',#1442,#117);
#86=LINE('',#1455,#118);
#87=LINE('',#1456,#119);
#88=LINE('',#1461,#120);
#89=LINE('',#1464,#121);
#90=LINE('',#1467,#122);
#91=LINE('',#1480,#123);
#92=LINE('',#1504,#124);
#93=LINE('',#1516,#125);
#94=LINE('',#1547,#126);
#95=LINE('',#1584,#127);
#96=LINE('',#1596,#128);
#97=LINE('',#1609,#129);
#98=LINE('',#1621,#130);
#99=LINE('',#1633,#131);
#100=LINE('',#1643,#132);
#101=LINE('',#1663,#133);
#102=LINE('',#1677,#134);
#103=LINE('',#1686,#135);
#104=LINE('',#1688,#136);
#105=LINE('',#1690,#137);
#106=LINE('',#1693,#138);
#107=LINE('',#1699,#139);
#108=VECTOR('',#1076,56.5);
#109=VECTOR('',#1083,57.);
#110=VECTOR('',#1086,10.);
#111=VECTOR('',#1089,10.);
#112=VECTOR('',#1092,10.);
#113=VECTOR('',#1095,10.);
#114=VECTOR('',#1100,10.);
#115=VECTOR('',#1101,10.);
#116=VECTOR('',#1102,10.);
#117=VECTOR('',#1105,10.);
#118=VECTOR('',#1106,10.);
#119=VECTOR('',#1107,10.);
#120=VECTOR('',#1114,10.);
#121=VECTOR('',#1117,10.);
#122=VECTOR('',#1120,10.);
#123=VECTOR('',#1121,10.);
#124=VECTOR('',#1124,10.);
#125=VECTOR('',#1125,10.);
#126=VECTOR('',#1164,41.25);
#127=VECTOR('',#1209,4.2);
#128=VECTOR('',#1224,4.2);
#129=VECTOR('',#1241,4.2);
#130=VECTOR('',#1256,4.2);
#131=VECTOR('',#1271,4.2);
#132=VECTOR('',#1284,4.2);
#133=VECTOR('',#1319,57.);
#134=VECTOR('',#1336,38.6);
#135=VECTOR('',#1349,39.925);
#136=VECTOR('',#1352,4.2);
#137=VECTOR('',#1355,4.2);
#138=VECTOR('',#1358,30.25);
#139=VECTOR('',#1367,27.45);
#140=CYLINDRICAL_SURFACE('',#932,56.5);
#141=CYLINDRICAL_SURFACE('',#936,57.);
#142=CYLINDRICAL_SURFACE('',#966,41.25);
#143=CYLINDRICAL_SURFACE('',#989,4.2);
#144=CYLINDRICAL_SURFACE('',#996,4.2);
#145=CYLINDRICAL_SURFACE('',#1003,4.2);
#146=CYLINDRICAL_SURFACE('',#1010,4.2);
#147=CYLINDRICAL_SURFACE('',#1017,4.2);
#148=CYLINDRICAL_SURFACE('',#1024,4.2);
#149=CYLINDRICAL_SURFACE('',#1042,57.);
#150=CYLINDRICAL_SURFACE('',#1050,38.6);
#151=CYLINDRICAL_SURFACE('',#1057,4.2);
#152=CYLINDRICAL_SURFACE('',#1058,4.2);
#153=CYLINDRICAL_SURFACE('',#1059,30.25);
#154=CYLINDRICAL_SURFACE('',#1063,27.45);
#155=FACE_BOUND('',#225,.T.);
#156=FACE_BOUND('',#228,.T.);
#157=FACE_BOUND('',#239,.T.);
#158=FACE_BOUND('',#240,.T.);
#159=FACE_BOUND('',#241,.T.);
#160=FACE_BOUND('',#242,.T.);
#161=FACE_BOUND('',#244,.T.);
#162=FACE_BOUND('',#245,.T.);
#163=FACE_BOUND('',#246,.T.);
#164=FACE_BOUND('',#247,.T.);
#165=FACE_BOUND('',#253,.T.);
#166=FACE_BOUND('',#254,.T.);
#167=FACE_BOUND('',#255,.T.);
#168=FACE_BOUND('',#256,.T.);
#169=FACE_BOUND('',#257,.T.);
#170=FACE_BOUND('',#258,.T.);
#171=FACE_BOUND('',#259,.T.);
#172=FACE_BOUND('',#260,.T.);
#173=FACE_BOUND('',#261,.T.);
#174=FACE_BOUND('',#283,.T.);
#175=FACE_BOUND('',#291,.T.);
#176=FACE_OUTER_BOUND('',#224,.T.);
#177=FACE_OUTER_BOUND('',#226,.T.);
#178=FACE_OUTER_BOUND('',#227,.T.);
#179=FACE_OUTER_BOUND('',#229,.T.);
#180=FACE_OUTER_BOUND('',#230,.T.);
#181=FACE_OUTER_BOUND('',#231,.T.);
#182=FACE_OUTER_BOUND('',#232,.T.);
#183=FACE_OUTER_BOUND('',#233,.T.);
#184=FACE_OUTER_BOUND('',#234,.T.);
#185=FACE_OUTER_BOUND('',#235,.T.);
#186=FACE_OUTER_BOUND('',#236,.T.);
#187=FACE_OUTER_BOUND('',#237,.T.);
#188=FACE_OUTER_BOUND('',#238,.T.);
#189=FACE_OUTER_BOUND('',#243,.T.);
#190=FACE_OUTER_BOUND('',#248,.T.);
#191=FACE_OUTER_BOUND('',#249,.T.);
#192=FACE_OUTER_BOUND('',#250,.T.);
#193=FACE_OUTER_BOUND('',#251,.T.);
#194=FACE_OUTER_BOUND('',#252,.T.);
#195=FACE_OUTER_BOUND('',#262,.T.);
#196=FACE_OUTER_BOUND('',#263,.T.);
#197=FACE_OUTER_BOUND('',#264,.T.);
#198=FACE_OUTER_BOUND('',#265,.T.);
#199=FACE_OUTER_BOUND('',#266,.T.);
#200=FACE_OUTER_BOUND('',#267,.T.);
#201=FACE_OUTER_BOUND('',#268,.T.);
#202=FACE_OUTER_BOUND('',#269,.T.);
#203=FACE_OUTER_BOUND('',#270,.T.);
#204=FACE_OUTER_BOUND('',#271,.T.);
#205=FACE_OUTER_BOUND('',#272,.T.);
#206=FACE_OUTER_BOUND('',#273,.T.);
#207=FACE_OUTER_BOUND('',#274,.T.);
#208=FACE_OUTER_BOUND('',#275,.T.);
#209=FACE_OUTER_BOUND('',#276,.T.);
#210=FACE_OUTER_BOUND('',#277,.T.);
#211=FACE_OUTER_BOUND('',#278,.T.);
#212=FACE_OUTER_BOUND('',#279,.T.);
#213=FACE_OUTER_BOUND('',#280,.T.);
#214=FACE_OUTER_BOUND('',#281,.T.);
#215=FACE_OUTER_BOUND('',#282,.T.);
#216=FACE_OUTER_BOUND('',#284,.T.);
#217=FACE_OUTER_BOUND('',#285,.T.);
#218=FACE_OUTER_BOUND('',#286,.T.);
#219=FACE_OUTER_BOUND('',#287,.T.);
#220=FACE_OUTER_BOUND('',#288,.T.);
#221=FACE_OUTER_BOUND('',#289,.T.);
#222=FACE_OUTER_BOUND('',#290,.T.);
#223=FACE_OUTER_BOUND('',#292,.T.);
#224=EDGE_LOOP('',(#591));
#225=EDGE_LOOP('',(#592));
#226=EDGE_LOOP('',(#593,#594,#595,#596));
#227=EDGE_LOOP('',(#597));
#228=EDGE_LOOP('',(#598));
#229=EDGE_LOOP('',(#599,#600,#601,#602,#603,#604,#605,#606,#607,#608,#609,
#610));
#230=EDGE_LOOP('',(#611,#612,#613,#614,#615,#616));
#231=EDGE_LOOP('',(#617,#618,#619,#620,#621,#622));
#232=EDGE_LOOP('',(#623,#624,#625,#626));
#233=EDGE_LOOP('',(#627,#628,#629,#630));
#234=EDGE_LOOP('',(#631,#632,#633,#634,#635,#636));
#235=EDGE_LOOP('',(#637,#638,#639,#640,#641,#642));
#236=EDGE_LOOP('',(#643,#644,#645,#646));
#237=EDGE_LOOP('',(#647,#648,#649,#650,#651));
#238=EDGE_LOOP('',(#652,#653,#654,#655));
#239=EDGE_LOOP('',(#656));
#240=EDGE_LOOP('',(#657));
#241=EDGE_LOOP('',(#658));
#242=EDGE_LOOP('',(#659));
#243=EDGE_LOOP('',(#660,#661,#662,#663));
#244=EDGE_LOOP('',(#664));
#245=EDGE_LOOP('',(#665));
#246=EDGE_LOOP('',(#666));
#247=EDGE_LOOP('',(#667));
#248=EDGE_LOOP('',(#668,#669,#670,#671,#672,#673,#674,#675,#676,#677,#678,
#679,#680));
#249=EDGE_LOOP('',(#681,#682,#683,#684));
#250=EDGE_LOOP('',(#685,#686,#687,#688,#689));
#251=EDGE_LOOP('',(#690,#691,#692,#693,#694));
#252=EDGE_LOOP('',(#695));
#253=EDGE_LOOP('',(#696));
#254=EDGE_LOOP('',(#697));
#255=EDGE_LOOP('',(#698));
#256=EDGE_LOOP('',(#699));
#257=EDGE_LOOP('',(#700));
#258=EDGE_LOOP('',(#701));
#259=EDGE_LOOP('',(#702));
#260=EDGE_LOOP('',(#703));
#261=EDGE_LOOP('',(#704));
#262=EDGE_LOOP('',(#705,#706,#707,#708,#709,#710));
#263=EDGE_LOOP('',(#711,#712,#713,#714,#715));
#264=EDGE_LOOP('',(#716,#717,#718,#719,#720,#721));
#265=EDGE_LOOP('',(#722,#723,#724,#725,#726));
#266=EDGE_LOOP('',(#727,#728,#729,#730,#731,#732));
#267=EDGE_LOOP('',(#733,#734,#735,#736,#737));
#268=EDGE_LOOP('',(#738,#739,#740,#741,#742,#743));
#269=EDGE_LOOP('',(#744,#745,#746,#747,#748));
#270=EDGE_LOOP('',(#749,#750,#751,#752,#753,#754));
#271=EDGE_LOOP('',(#755,#756,#757,#758,#759));
#272=EDGE_LOOP('',(#760,#761,#762,#763,#764));
#273=EDGE_LOOP('',(#765,#766,#767,#768));
#274=EDGE_LOOP('',(#769,#770,#771,#772,#773));
#275=EDGE_LOOP('',(#774,#775,#776,#777,#778));
#276=EDGE_LOOP('',(#779,#780,#781,#782,#783));
#277=EDGE_LOOP('',(#784,#785,#786,#787,#788));
#278=EDGE_LOOP('',(#789,#790,#791,#792,#793));
#279=EDGE_LOOP('',(#794,#795,#796,#797,#798));
#280=EDGE_LOOP('',(#799,#800,#801,#802,#803));
#281=EDGE_LOOP('',(#804,#805,#806,#807,#808));
#282=EDGE_LOOP('',(#809));
#283=EDGE_LOOP('',(#810));
#284=EDGE_LOOP('',(#811,#812,#813,#814,#815));
#285=EDGE_LOOP('',(#816,#817,#818,#819,#820,#821));
#286=EDGE_LOOP('',(#822,#823,#824,#825,#826));
#287=EDGE_LOOP('',(#827,#828,#829,#830));
#288=EDGE_LOOP('',(#831,#832,#833,#834));
#289=EDGE_LOOP('',(#835,#836,#837,#838));
#290=EDGE_LOOP('',(#839));
#291=EDGE_LOOP('',(#840));
#292=EDGE_LOOP('',(#841,#842,#843,#844));
#293=CIRCLE('',#930,57.);
#294=CIRCLE('',#931,56.5);
#295=CIRCLE('',#933,56.5);
#296=CIRCLE('',#935,57.);
#297=CIRCLE('',#937,57.);
#298=CIRCLE('',#938,57.);
#299=CIRCLE('',#939,57.);
#300=CIRCLE('',#940,57.);
#301=CIRCLE('',#941,57.);
#302=CIRCLE('',#945,41.25);
#303=CIRCLE('',#947,41.25);
#304=CIRCLE('',#951,56.8);
#305=CIRCLE('',#953,56.8);
#306=CIRCLE('',#955,41.45);
#307=CIRCLE('',#956,4.4);
#308=CIRCLE('',#957,4.4);
#309=CIRCLE('',#958,4.4);
#310=CIRCLE('',#959,4.4);
#311=CIRCLE('',#961,41.45);
#312=CIRCLE('',#962,4.4);
#313=CIRCLE('',#963,4.2);
#314=CIRCLE('',#964,4.2);
#315=CIRCLE('',#965,4.4);
#316=CIRCLE('',#967,41.25);
#317=CIRCLE('',#968,41.25);
#318=CIRCLE('',#969,41.25);
#319=CIRCLE('',#970,41.25);
#320=CIRCLE('',#971,41.25);
#321=CIRCLE('',#975,4.4);
#322=CIRCLE('',#976,0.2);
#323=CIRCLE('',#977,4.2);
#324=CIRCLE('',#978,4.2);
#325=CIRCLE('',#980,56.8);
#326=CIRCLE('',#981,4.4);
#327=CIRCLE('',#982,4.4);
#328=CIRCLE('',#983,4.4);
#329=CIRCLE('',#984,30.25);
#330=CIRCLE('',#985,4.19999999999998);
#331=CIRCLE('',#986,4.19999999999999);
#332=CIRCLE('',#987,4.4);
#333=CIRCLE('',#988,4.4);
#334=CIRCLE('',#990,4.2);
#335=CIRCLE('',#991,4.2);
#336=CIRCLE('',#993,0.2);
#337=CIRCLE('',#994,4.2);
#338=CIRCLE('',#995,4.2);
#339=CIRCLE('',#997,4.2);
#340=CIRCLE('',#998,4.2);
#341=CIRCLE('',#1000,0.2);
#342=CIRCLE('',#1001,4.2);
#343=CIRCLE('',#1002,4.2);
#344=CIRCLE('',#1004,4.2);
#345=CIRCLE('',#1005,4.2);
#346=CIRCLE('',#1007,0.2);
#347=CIRCLE('',#1008,4.2);
#348=CIRCLE('',#1009,4.2);
#349=CIRCLE('',#1011,4.2);
#350=CIRCLE('',#1012,4.2);
#351=CIRCLE('',#1014,0.2);
#352=CIRCLE('',#1015,4.2);
#353=CIRCLE('',#1016,4.2);
#354=CIRCLE('',#1018,4.2);
#355=CIRCLE('',#1019,4.2);
#356=CIRCLE('',#1021,0.2);
#357=CIRCLE('',#1022,4.2);
#358=CIRCLE('',#1023,4.2);
#359=CIRCLE('',#1025,4.2);
#360=CIRCLE('',#1027,0.2);
#361=CIRCLE('',#1029,0.2);
#362=CIRCLE('',#1031,0.2);
#363=CIRCLE('',#1033,0.2);
#364=CIRCLE('',#1035,0.2);
#365=CIRCLE('',#1037,0.2);
#366=CIRCLE('',#1039,0.2);
#367=CIRCLE('',#1040,57.);
#368=CIRCLE('',#1041,57.);
#369=CIRCLE('',#1044,38.4);
#370=CIRCLE('',#1045,0.2);
#371=CIRCLE('',#1046,38.6);
#372=CIRCLE('',#1047,38.6);
#373=CIRCLE('',#1049,27.45);
#374=CIRCLE('',#1051,38.6);
#375=CIRCLE('',#1053,40.9815959713349);
#376=CIRCLE('',#1054,40.9815959713349);
#377=CIRCLE('',#1055,0.2);
#378=CIRCLE('',#1060,30.25);
#379=CIRCLE('',#1062,27.45);
#380=VERTEX_POINT('',#1370);
#381=VERTEX_POINT('',#1372);
#382=VERTEX_POINT('',#1375);
#383=VERTEX_POINT('',#1379);
#384=VERTEX_POINT('',#1382);
#385=VERTEX_POINT('',#1384);
#386=VERTEX_POINT('',#1386);
#387=VERTEX_POINT('',#1388);
#388=VERTEX_POINT('',#1390);
#389=VERTEX_POINT('',#1392);
#390=VERTEX_POINT('',#1394);
#391=VERTEX_POINT('',#1396);
#392=VERTEX_POINT('',#1398);
#393=VERTEX_POINT('',#1402);
#394=VERTEX_POINT('',#1404);
#395=VERTEX_POINT('',#1406);
#396=VERTEX_POINT('',#1417);
#397=VERTEX_POINT('',#1430);
#398=VERTEX_POINT('',#1441);
#399=VERTEX_POINT('',#1443);
#400=VERTEX_POINT('',#1454);
#401=VERTEX_POINT('',#1460);
#402=VERTEX_POINT('',#1462);
#403=VERTEX_POINT('',#1466);
#404=VERTEX_POINT('',#1468);
#405=VERTEX_POINT('',#1479);
#406=VERTEX_POINT('',#1492);
#407=VERTEX_POINT('',#1503);
#408=VERTEX_POINT('',#1505);
#409=VERTEX_POINT('',#1523);
#410=VERTEX_POINT('',#1525);
#411=VERTEX_POINT('',#1527);
#412=VERTEX_POINT('',#1529);
#413=VERTEX_POINT('',#1533);
#414=VERTEX_POINT('',#1535);
#415=VERTEX_POINT('',#1537);
#416=VERTEX_POINT('',#1539);
#417=VERTEX_POINT('',#1542);
#418=VERTEX_POINT('',#1543);
#419=VERTEX_POINT('',#1546);
#420=VERTEX_POINT('',#1554);
#421=VERTEX_POINT('',#1556);
#422=VERTEX_POINT('',#1558);
#423=VERTEX_POINT('',#1562);
#424=VERTEX_POINT('',#1564);
#425=VERTEX_POINT('',#1566);
#426=VERTEX_POINT('',#1568);
#427=VERTEX_POINT('',#1570);
#428=VERTEX_POINT('',#1572);
#429=VERTEX_POINT('',#1574);
#430=VERTEX_POINT('',#1576);
#431=VERTEX_POINT('',#1578);
#432=VERTEX_POINT('',#1581);
#433=VERTEX_POINT('',#1582);
#434=VERTEX_POINT('',#1587);
#435=VERTEX_POINT('',#1589);
#436=VERTEX_POINT('',#1593);
#437=VERTEX_POINT('',#1594);
#438=VERTEX_POINT('',#1599);
#439=VERTEX_POINT('',#1601);
#440=VERTEX_POINT('',#1605);
#441=VERTEX_POINT('',#1606);
#442=VERTEX_POINT('',#1611);
#443=VERTEX_POINT('',#1613);
#444=VERTEX_POINT('',#1617);
#445=VERTEX_POINT('',#1618);
#446=VERTEX_POINT('',#1623);
#447=VERTEX_POINT('',#1625);
#448=VERTEX_POINT('',#1629);
#449=VERTEX_POINT('',#1630);
#450=VERTEX_POINT('',#1635);
#451=VERTEX_POINT('',#1637);
#452=VERTEX_POINT('',#1641);
#453=VERTEX_POINT('',#1657);
#454=VERTEX_POINT('',#1659);
#455=VERTEX_POINT('',#1665);
#456=VERTEX_POINT('',#1667);
#457=VERTEX_POINT('',#1669);
#458=VERTEX_POINT('',#1673);
#459=VERTEX_POINT('',#1676);
#460=VERTEX_POINT('',#1680);
#461=VERTEX_POINT('',#1681);
#462=VERTEX_POINT('',#1692);
#463=VERTEX_POINT('',#1696);
#464=EDGE_CURVE('',#380,#380,#293,.T.);
#465=EDGE_CURVE('',#381,#381,#294,.T.);
#466=EDGE_CURVE('',#382,#382,#295,.T.);
#467=EDGE_CURVE('',#382,#381,#76,.T.);
#468=EDGE_CURVE('',#383,#383,#296,.T.);
#469=EDGE_CURVE('',#383,#384,#77,.T.);
#470=EDGE_CURVE('',#385,#384,#297,.T.);
#471=EDGE_CURVE('',#385,#386,#78,.T.);
#472=EDGE_CURVE('',#386,#387,#298,.T.);
#473=EDGE_CURVE('',#387,#388,#79,.T.);
#474=EDGE_CURVE('',#389,#388,#299,.T.);
#475=EDGE_CURVE('',#389,#390,#80,.T.);
#476=EDGE_CURVE('',#390,#391,#300,.T.);
#477=EDGE_CURVE('',#391,#392,#81,.T.);
#478=EDGE_CURVE('',#384,#392,#301,.T.);
#479=EDGE_CURVE('',#391,#393,#82,.T.);
#480=EDGE_CURVE('',#394,#393,#83,.T.);
#481=EDGE_CURVE('',#395,#394,#68,.T.);
#482=EDGE_CURVE('',#396,#395,#84,.T.);
#483=EDGE_CURVE('',#392,#396,#69,.T.);
#484=EDGE_CURVE('',#397,#389,#70,.T.);
#485=EDGE_CURVE('',#398,#397,#85,.T.);
#486=EDGE_CURVE('',#399,#398,#71,.T.);
#487=EDGE_CURVE('',#400,#399,#86,.T.);
#488=EDGE_CURVE('',#400,#390,#87,.T.);
#489=EDGE_CURVE('',#393,#400,#302,.T.);
#490=EDGE_CURVE('',#401,#386,#88,.T.);
#491=EDGE_CURVE('',#402,#401,#303,.T.);
#492=EDGE_CURVE('',#387,#402,#89,.T.);
#493=EDGE_CURVE('',#403,#402,#90,.T.);
#494=EDGE_CURVE('',#404,#403,#72,.T.);
#495=EDGE_CURVE('',#405,#404,#91,.T.);
#496=EDGE_CURVE('',#388,#405,#73,.T.);
#497=EDGE_CURVE('',#406,#385,#74,.T.);
#498=EDGE_CURVE('',#407,#406,#92,.T.);
#499=EDGE_CURVE('',#408,#407,#75,.T.);
#500=EDGE_CURVE('',#401,#408,#93,.T.);
#501=EDGE_CURVE('',#405,#397,#304,.T.);
#502=EDGE_CURVE('',#396,#406,#305,.T.);
#503=EDGE_CURVE('',#398,#404,#306,.T.);
#504=EDGE_CURVE('',#409,#409,#307,.T.);
#505=EDGE_CURVE('',#410,#410,#308,.T.);
#506=EDGE_CURVE('',#411,#411,#309,.T.);
#507=EDGE_CURVE('',#412,#412,#310,.T.);
#508=EDGE_CURVE('',#407,#395,#311,.T.);
#509=EDGE_CURVE('',#413,#413,#312,.T.);
#510=EDGE_CURVE('',#414,#414,#313,.T.);
#511=EDGE_CURVE('',#415,#415,#314,.T.);
#512=EDGE_CURVE('',#416,#416,#315,.T.);
#513=EDGE_CURVE('',#417,#418,#316,.T.);
#514=EDGE_CURVE('',#418,#417,#317,.T.);
#515=EDGE_CURVE('',#418,#419,#94,.T.);
#516=EDGE_CURVE('',#394,#419,#318,.T.);
#517=EDGE_CURVE('',#403,#399,#319,.T.);
#518=EDGE_CURVE('',#419,#408,#320,.T.);
#519=EDGE_CURVE('',#420,#420,#321,.T.);
#520=EDGE_CURVE('',#420,#421,#322,.T.);
#521=EDGE_CURVE('',#421,#422,#323,.T.);
#522=EDGE_CURVE('',#422,#421,#324,.T.);
#523=EDGE_CURVE('',#423,#423,#325,.T.);
#524=EDGE_CURVE('',#424,#424,#326,.T.);
#525=EDGE_CURVE('',#425,#425,#327,.T.);
#526=EDGE_CURVE('',#426,#426,#328,.T.);
#527=EDGE_CURVE('',#427,#427,#329,.T.);
#528=EDGE_CURVE('',#428,#428,#330,.T.);
#529=EDGE_CURVE('',#429,#429,#331,.T.);
#530=EDGE_CURVE('',#430,#430,#332,.T.);
#531=EDGE_CURVE('',#431,#431,#333,.T.);
#532=EDGE_CURVE('',#432,#433,#334,.T.);
#533=EDGE_CURVE('',#432,#422,#95,.T.);
#534=EDGE_CURVE('',#433,#432,#335,.T.);
#535=EDGE_CURVE('',#424,#434,#336,.T.);
#536=EDGE_CURVE('',#434,#435,#337,.T.);
#537=EDGE_CURVE('',#435,#434,#338,.T.);
#538=EDGE_CURVE('',#436,#437,#339,.T.);
#539=EDGE_CURVE('',#436,#435,#96,.T.);
#540=EDGE_CURVE('',#437,#436,#340,.T.);
#541=EDGE_CURVE('',#431,#438,#341,.T.);
#542=EDGE_CURVE('',#438,#439,#342,.T.);
#543=EDGE_CURVE('',#439,#438,#343,.T.);
#544=EDGE_CURVE('',#440,#441,#344,.T.);
#545=EDGE_CURVE('',#441,#440,#345,.T.);
#546=EDGE_CURVE('',#441,#439,#97,.T.);
#547=EDGE_CURVE('',#425,#442,#346,.T.);
#548=EDGE_CURVE('',#442,#443,#347,.T.);
#549=EDGE_CURVE('',#443,#442,#348,.T.);
#550=EDGE_CURVE('',#444,#445,#349,.T.);
#551=EDGE_CURVE('',#445,#444,#350,.T.);
#552=EDGE_CURVE('',#445,#443,#98,.T.);
#553=EDGE_CURVE('',#430,#446,#351,.T.);
#554=EDGE_CURVE('',#446,#447,#352,.T.);
#555=EDGE_CURVE('',#447,#446,#353,.T.);
#556=EDGE_CURVE('',#448,#449,#354,.T.);
#557=EDGE_CURVE('',#449,#448,#355,.T.);
#558=EDGE_CURVE('',#449,#447,#99,.T.);
#559=EDGE_CURVE('',#426,#450,#356,.T.);
#560=EDGE_CURVE('',#450,#451,#357,.T.);
#561=EDGE_CURVE('',#451,#450,#358,.T.);
#562=EDGE_CURVE('',#452,#452,#359,.T.);
#563=EDGE_CURVE('',#452,#451,#100,.T.);
#564=EDGE_CURVE('',#412,#452,#360,.T.);
#565=EDGE_CURVE('',#409,#448,#361,.T.);
#566=EDGE_CURVE('',#411,#444,#362,.T.);
#567=EDGE_CURVE('',#416,#440,#363,.T.);
#568=EDGE_CURVE('',#413,#437,#364,.T.);
#569=EDGE_CURVE('',#410,#433,#365,.T.);
#570=EDGE_CURVE('',#423,#453,#366,.T.);
#571=EDGE_CURVE('',#453,#454,#367,.T.);
#572=EDGE_CURVE('',#454,#453,#368,.T.);
#573=EDGE_CURVE('',#454,#380,#101,.T.);
#574=EDGE_CURVE('',#455,#455,#369,.T.);
#575=EDGE_CURVE('',#455,#456,#370,.T.);
#576=EDGE_CURVE('',#456,#457,#371,.T.);
#577=EDGE_CURVE('',#457,#456,#372,.T.);
#578=EDGE_CURVE('',#458,#458,#373,.T.);
#579=EDGE_CURVE('',#457,#459,#102,.T.);
#580=EDGE_CURVE('',#459,#459,#374,.T.);
#581=EDGE_CURVE('',#460,#461,#375,.T.);
#582=EDGE_CURVE('',#461,#460,#376,.T.);
#583=EDGE_CURVE('',#460,#417,#377,.T.);
#584=EDGE_CURVE('',#461,#459,#103,.T.);
#585=EDGE_CURVE('',#415,#429,#104,.T.);
#586=EDGE_CURVE('',#414,#428,#105,.T.);
#587=EDGE_CURVE('',#427,#462,#106,.T.);
#588=EDGE_CURVE('',#462,#462,#378,.T.);
#589=EDGE_CURVE('',#463,#463,#379,.T.);
#590=EDGE_CURVE('',#463,#458,#107,.T.);
#591=ORIENTED_EDGE('',*,*,#464,.F.);
#592=ORIENTED_EDGE('',*,*,#465,.T.);
#593=ORIENTED_EDGE('',*,*,#466,.T.);
#594=ORIENTED_EDGE('',*,*,#467,.T.);
#595=ORIENTED_EDGE('',*,*,#465,.F.);
#596=ORIENTED_EDGE('',*,*,#467,.F.);
#597=ORIENTED_EDGE('',*,*,#468,.F.);
#598=ORIENTED_EDGE('',*,*,#466,.F.);
#599=ORIENTED_EDGE('',*,*,#468,.T.);
#600=ORIENTED_EDGE('',*,*,#469,.T.);
#601=ORIENTED_EDGE('',*,*,#470,.F.);
#602=ORIENTED_EDGE('',*,*,#471,.T.);
#603=ORIENTED_EDGE('',*,*,#472,.T.);
#604=ORIENTED_EDGE('',*,*,#473,.T.);
#605=ORIENTED_EDGE('',*,*,#474,.F.);
#606=ORIENTED_EDGE('',*,*,#475,.T.);
#607=ORIENTED_EDGE('',*,*,#476,.T.);
#608=ORIENTED_EDGE('',*,*,#477,.T.);
#609=ORIENTED_EDGE('',*,*,#478,.F.);
#610=ORIENTED_EDGE('',*,*,#469,.F.);
#611=ORIENTED_EDGE('',*,*,#477,.F.);
#612=ORIENTED_EDGE('',*,*,#479,.T.);
#613=ORIENTED_EDGE('',*,*,#480,.F.);
#614=ORIENTED_EDGE('',*,*,#481,.F.);
#615=ORIENTED_EDGE('',*,*,#482,.F.);
#616=ORIENTED_EDGE('',*,*,#483,.F.);
#617=ORIENTED_EDGE('',*,*,#475,.F.);
#618=ORIENTED_EDGE('',*,*,#484,.F.);
#619=ORIENTED_EDGE('',*,*,#485,.F.);
#620=ORIENTED_EDGE('',*,*,#486,.F.);
#621=ORIENTED_EDGE('',*,*,#487,.F.);
#622=ORIENTED_EDGE('',*,*,#488,.T.);
#623=ORIENTED_EDGE('',*,*,#476,.F.);
#624=ORIENTED_EDGE('',*,*,#488,.F.);
#625=ORIENTED_EDGE('',*,*,#489,.F.);
#626=ORIENTED_EDGE('',*,*,#479,.F.);
#627=ORIENTED_EDGE('',*,*,#472,.F.);
#628=ORIENTED_EDGE('',*,*,#490,.F.);
#629=ORIENTED_EDGE('',*,*,#491,.F.);
#630=ORIENTED_EDGE('',*,*,#492,.F.);
#631=ORIENTED_EDGE('',*,*,#473,.F.);
#632=ORIENTED_EDGE('',*,*,#492,.T.);
#633=ORIENTED_EDGE('',*,*,#493,.F.);
#634=ORIENTED_EDGE('',*,*,#494,.F.);
#635=ORIENTED_EDGE('',*,*,#495,.F.);
#636=ORIENTED_EDGE('',*,*,#496,.F.);
#637=ORIENTED_EDGE('',*,*,#471,.F.);
#638=ORIENTED_EDGE('',*,*,#497,.F.);
#639=ORIENTED_EDGE('',*,*,#498,.F.);
#640=ORIENTED_EDGE('',*,*,#499,.F.);
#641=ORIENTED_EDGE('',*,*,#500,.F.);
#642=ORIENTED_EDGE('',*,*,#490,.T.);
#643=ORIENTED_EDGE('',*,*,#484,.T.);
#644=ORIENTED_EDGE('',*,*,#474,.T.);
#645=ORIENTED_EDGE('',*,*,#496,.T.);
#646=ORIENTED_EDGE('',*,*,#501,.T.);
#647=ORIENTED_EDGE('',*,*,#483,.T.);
#648=ORIENTED_EDGE('',*,*,#502,.T.);
#649=ORIENTED_EDGE('',*,*,#497,.T.);
#650=ORIENTED_EDGE('',*,*,#470,.T.);
#651=ORIENTED_EDGE('',*,*,#478,.T.);
#652=ORIENTED_EDGE('',*,*,#485,.T.);
#653=ORIENTED_EDGE('',*,*,#501,.F.);
#654=ORIENTED_EDGE('',*,*,#495,.T.);
#655=ORIENTED_EDGE('',*,*,#503,.F.);
#656=ORIENTED_EDGE('',*,*,#504,.F.);
#657=ORIENTED_EDGE('',*,*,#505,.F.);
#658=ORIENTED_EDGE('',*,*,#506,.F.);
#659=ORIENTED_EDGE('',*,*,#507,.F.);
#660=ORIENTED_EDGE('',*,*,#482,.T.);
#661=ORIENTED_EDGE('',*,*,#508,.F.);
#662=ORIENTED_EDGE('',*,*,#498,.T.);
#663=ORIENTED_EDGE('',*,*,#502,.F.);
#664=ORIENTED_EDGE('',*,*,#509,.F.);
#665=ORIENTED_EDGE('',*,*,#510,.T.);
#666=ORIENTED_EDGE('',*,*,#511,.T.);
#667=ORIENTED_EDGE('',*,*,#512,.F.);
#668=ORIENTED_EDGE('',*,*,#513,.F.);
#669=ORIENTED_EDGE('',*,*,#514,.F.);
#670=ORIENTED_EDGE('',*,*,#515,.T.);
#671=ORIENTED_EDGE('',*,*,#516,.F.);
#672=ORIENTED_EDGE('',*,*,#480,.T.);
#673=ORIENTED_EDGE('',*,*,#489,.T.);
#674=ORIENTED_EDGE('',*,*,#487,.T.);
#675=ORIENTED_EDGE('',*,*,#517,.F.);
#676=ORIENTED_EDGE('',*,*,#493,.T.);
#677=ORIENTED_EDGE('',*,*,#491,.T.);
#678=ORIENTED_EDGE('',*,*,#500,.T.);
#679=ORIENTED_EDGE('',*,*,#518,.F.);
#680=ORIENTED_EDGE('',*,*,#515,.F.);
#681=ORIENTED_EDGE('',*,*,#486,.T.);
#682=ORIENTED_EDGE('',*,*,#503,.T.);
#683=ORIENTED_EDGE('',*,*,#494,.T.);
#684=ORIENTED_EDGE('',*,*,#517,.T.);
#685=ORIENTED_EDGE('',*,*,#481,.T.);
#686=ORIENTED_EDGE('',*,*,#516,.T.);
#687=ORIENTED_EDGE('',*,*,#518,.T.);
#688=ORIENTED_EDGE('',*,*,#499,.T.);
#689=ORIENTED_EDGE('',*,*,#508,.T.);
#690=ORIENTED_EDGE('',*,*,#519,.T.);
#691=ORIENTED_EDGE('',*,*,#520,.T.);
#692=ORIENTED_EDGE('',*,*,#521,.T.);
#693=ORIENTED_EDGE('',*,*,#522,.T.);
#694=ORIENTED_EDGE('',*,*,#520,.F.);
#695=ORIENTED_EDGE('',*,*,#523,.F.);
#696=ORIENTED_EDGE('',*,*,#524,.F.);
#697=ORIENTED_EDGE('',*,*,#525,.F.);
#698=ORIENTED_EDGE('',*,*,#526,.F.);
#699=ORIENTED_EDGE('',*,*,#527,.F.);
#700=ORIENTED_EDGE('',*,*,#528,.T.);
#701=ORIENTED_EDGE('',*,*,#529,.T.);
#702=ORIENTED_EDGE('',*,*,#530,.F.);
#703=ORIENTED_EDGE('',*,*,#531,.F.);
#704=ORIENTED_EDGE('',*,*,#519,.F.);
#705=ORIENTED_EDGE('',*,*,#532,.F.);
#706=ORIENTED_EDGE('',*,*,#533,.T.);
#707=ORIENTED_EDGE('',*,*,#521,.F.);
#708=ORIENTED_EDGE('',*,*,#522,.F.);
#709=ORIENTED_EDGE('',*,*,#533,.F.);
#710=ORIENTED_EDGE('',*,*,#534,.F.);
#711=ORIENTED_EDGE('',*,*,#524,.T.);
#712=ORIENTED_EDGE('',*,*,#535,.T.);
#713=ORIENTED_EDGE('',*,*,#536,.T.);
#714=ORIENTED_EDGE('',*,*,#537,.T.);
#715=ORIENTED_EDGE('',*,*,#535,.F.);
#716=ORIENTED_EDGE('',*,*,#538,.F.);
#717=ORIENTED_EDGE('',*,*,#539,.T.);
#718=ORIENTED_EDGE('',*,*,#536,.F.);
#719=ORIENTED_EDGE('',*,*,#537,.F.);
#720=ORIENTED_EDGE('',*,*,#539,.F.);
#721=ORIENTED_EDGE('',*,*,#540,.F.);
#722=ORIENTED_EDGE('',*,*,#531,.T.);
#723=ORIENTED_EDGE('',*,*,#541,.T.);
#724=ORIENTED_EDGE('',*,*,#542,.T.);
#725=ORIENTED_EDGE('',*,*,#543,.T.);
#726=ORIENTED_EDGE('',*,*,#541,.F.);
#727=ORIENTED_EDGE('',*,*,#544,.F.);
#728=ORIENTED_EDGE('',*,*,#545,.F.);
#729=ORIENTED_EDGE('',*,*,#546,.T.);
#730=ORIENTED_EDGE('',*,*,#542,.F.);
#731=ORIENTED_EDGE('',*,*,#543,.F.);
#732=ORIENTED_EDGE('',*,*,#546,.F.);
#733=ORIENTED_EDGE('',*,*,#525,.T.);
#734=ORIENTED_EDGE('',*,*,#547,.T.);
#735=ORIENTED_EDGE('',*,*,#548,.T.);
#736=ORIENTED_EDGE('',*,*,#549,.T.);
#737=ORIENTED_EDGE('',*,*,#547,.F.);
#738=ORIENTED_EDGE('',*,*,#550,.F.);
#739=ORIENTED_EDGE('',*,*,#551,.F.);
#740=ORIENTED_EDGE('',*,*,#552,.T.);
#741=ORIENTED_EDGE('',*,*,#548,.F.);
#742=ORIENTED_EDGE('',*,*,#549,.F.);
#743=ORIENTED_EDGE('',*,*,#552,.F.);
#744=ORIENTED_EDGE('',*,*,#530,.T.);
#745=ORIENTED_EDGE('',*,*,#553,.T.);
#746=ORIENTED_EDGE('',*,*,#554,.T.);
#747=ORIENTED_EDGE('',*,*,#555,.T.);
#748=ORIENTED_EDGE('',*,*,#553,.F.);
#749=ORIENTED_EDGE('',*,*,#556,.F.);
#750=ORIENTED_EDGE('',*,*,#557,.F.);
#751=ORIENTED_EDGE('',*,*,#558,.T.);
#752=ORIENTED_EDGE('',*,*,#554,.F.);
#753=ORIENTED_EDGE('',*,*,#555,.F.);
#754=ORIENTED_EDGE('',*,*,#558,.F.);
#755=ORIENTED_EDGE('',*,*,#526,.T.);
#756=ORIENTED_EDGE('',*,*,#559,.T.);
#757=ORIENTED_EDGE('',*,*,#560,.T.);
#758=ORIENTED_EDGE('',*,*,#561,.T.);
#759=ORIENTED_EDGE('',*,*,#559,.F.);
#760=ORIENTED_EDGE('',*,*,#562,.F.);
#761=ORIENTED_EDGE('',*,*,#563,.T.);
#762=ORIENTED_EDGE('',*,*,#560,.F.);
#763=ORIENTED_EDGE('',*,*,#561,.F.);
#764=ORIENTED_EDGE('',*,*,#563,.F.);
#765=ORIENTED_EDGE('',*,*,#507,.T.);
#766=ORIENTED_EDGE('',*,*,#564,.T.);
#767=ORIENTED_EDGE('',*,*,#562,.T.);
#768=ORIENTED_EDGE('',*,*,#564,.F.);
#769=ORIENTED_EDGE('',*,*,#504,.T.);
#770=ORIENTED_EDGE('',*,*,#565,.T.);
#771=ORIENTED_EDGE('',*,*,#556,.T.);
#772=ORIENTED_EDGE('',*,*,#557,.T.);
#773=ORIENTED_EDGE('',*,*,#565,.F.);
#774=ORIENTED_EDGE('',*,*,#506,.T.);
#775=ORIENTED_EDGE('',*,*,#566,.T.);
#776=ORIENTED_EDGE('',*,*,#550,.T.);
#777=ORIENTED_EDGE('',*,*,#551,.T.);
#778=ORIENTED_EDGE('',*,*,#566,.F.);
#779=ORIENTED_EDGE('',*,*,#512,.T.);
#780=ORIENTED_EDGE('',*,*,#567,.T.);
#781=ORIENTED_EDGE('',*,*,#544,.T.);
#782=ORIENTED_EDGE('',*,*,#545,.T.);
#783=ORIENTED_EDGE('',*,*,#567,.F.);
#784=ORIENTED_EDGE('',*,*,#509,.T.);
#785=ORIENTED_EDGE('',*,*,#568,.T.);
#786=ORIENTED_EDGE('',*,*,#540,.T.);
#787=ORIENTED_EDGE('',*,*,#538,.T.);
#788=ORIENTED_EDGE('',*,*,#568,.F.);
#789=ORIENTED_EDGE('',*,*,#505,.T.);
#790=ORIENTED_EDGE('',*,*,#569,.T.);
#791=ORIENTED_EDGE('',*,*,#534,.T.);
#792=ORIENTED_EDGE('',*,*,#532,.T.);
#793=ORIENTED_EDGE('',*,*,#569,.F.);
#794=ORIENTED_EDGE('',*,*,#523,.T.);
#795=ORIENTED_EDGE('',*,*,#570,.T.);
#796=ORIENTED_EDGE('',*,*,#571,.T.);
#797=ORIENTED_EDGE('',*,*,#572,.T.);
#798=ORIENTED_EDGE('',*,*,#570,.F.);
#799=ORIENTED_EDGE('',*,*,#571,.F.);
#800=ORIENTED_EDGE('',*,*,#572,.F.);
#801=ORIENTED_EDGE('',*,*,#573,.T.);
#802=ORIENTED_EDGE('',*,*,#464,.T.);
#803=ORIENTED_EDGE('',*,*,#573,.F.);
#804=ORIENTED_EDGE('',*,*,#574,.T.);
#805=ORIENTED_EDGE('',*,*,#575,.T.);
#806=ORIENTED_EDGE('',*,*,#576,.T.);
#807=ORIENTED_EDGE('',*,*,#577,.T.);
#808=ORIENTED_EDGE('',*,*,#575,.F.);
#809=ORIENTED_EDGE('',*,*,#574,.F.);
#810=ORIENTED_EDGE('',*,*,#578,.T.);
#811=ORIENTED_EDGE('',*,*,#576,.F.);
#812=ORIENTED_EDGE('',*,*,#577,.F.);
#813=ORIENTED_EDGE('',*,*,#579,.T.);
#814=ORIENTED_EDGE('',*,*,#580,.F.);
#815=ORIENTED_EDGE('',*,*,#579,.F.);
#816=ORIENTED_EDGE('',*,*,#581,.T.);
#817=ORIENTED_EDGE('',*,*,#582,.T.);
#818=ORIENTED_EDGE('',*,*,#583,.T.);
#819=ORIENTED_EDGE('',*,*,#513,.T.);
#820=ORIENTED_EDGE('',*,*,#514,.T.);
#821=ORIENTED_EDGE('',*,*,#583,.F.);
#822=ORIENTED_EDGE('',*,*,#581,.F.);
#823=ORIENTED_EDGE('',*,*,#582,.F.);
#824=ORIENTED_EDGE('',*,*,#584,.T.);
#825=ORIENTED_EDGE('',*,*,#580,.T.);
#826=ORIENTED_EDGE('',*,*,#584,.F.);
#827=ORIENTED_EDGE('',*,*,#511,.F.);
#828=ORIENTED_EDGE('',*,*,#585,.T.);
#829=ORIENTED_EDGE('',*,*,#529,.F.);
#830=ORIENTED_EDGE('',*,*,#585,.F.);
#831=ORIENTED_EDGE('',*,*,#510,.F.);
#832=ORIENTED_EDGE('',*,*,#586,.T.);
#833=ORIENTED_EDGE('',*,*,#528,.F.);
#834=ORIENTED_EDGE('',*,*,#586,.F.);
#835=ORIENTED_EDGE('',*,*,#527,.T.);
#836=ORIENTED_EDGE('',*,*,#587,.T.);
#837=ORIENTED_EDGE('',*,*,#588,.F.);
#838=ORIENTED_EDGE('',*,*,#587,.F.);
#839=ORIENTED_EDGE('',*,*,#588,.T.);
#840=ORIENTED_EDGE('',*,*,#589,.F.);
#841=ORIENTED_EDGE('',*,*,#589,.T.);
#842=ORIENTED_EDGE('',*,*,#590,.T.);
#843=ORIENTED_EDGE('',*,*,#578,.F.);
#844=ORIENTED_EDGE('',*,*,#590,.F.);
#845=PLANE('',#929);
#846=PLANE('',#934);
#847=PLANE('',#942);
#848=PLANE('',#943);
#849=PLANE('',#944);
#850=PLANE('',#946);
#851=PLANE('',#948);
#852=PLANE('',#949);
#853=PLANE('',#954);
#854=PLANE('',#960);
#855=PLANE('',#979);
#856=PLANE('',#1048);
#857=PLANE('',#1061);
#858=ADVANCED_FACE('',(#176,#155),#845,.F.);
#859=ADVANCED_FACE('',(#177),#140,.T.);
#860=ADVANCED_FACE('',(#178,#156),#846,.F.);
#861=ADVANCED_FACE('',(#179),#141,.T.);
#862=ADVANCED_FACE('',(#180),#847,.F.);
#863=ADVANCED_FACE('',(#181),#848,.F.);
#864=ADVANCED_FACE('',(#182),#849,.F.);
#865=ADVANCED_FACE('',(#183),#850,.F.);
#866=ADVANCED_FACE('',(#184),#851,.F.);
#867=ADVANCED_FACE('',(#185),#852,.F.);
#868=ADVANCED_FACE('',(#186),#49,.T.);
#869=ADVANCED_FACE('',(#187),#50,.T.);
#870=ADVANCED_FACE('',(#188,#157,#158,#159,#160),#853,.T.);
#871=ADVANCED_FACE('',(#189,#161,#162,#163,#164),#854,.T.);
#872=ADVANCED_FACE('',(#190),#142,.F.);
#873=ADVANCED_FACE('',(#191),#51,.T.);
#874=ADVANCED_FACE('',(#192),#52,.T.);
#875=ADVANCED_FACE('',(#193),#53,.T.);
#876=ADVANCED_FACE('',(#194,#165,#166,#167,#168,#169,#170,#171,#172,#173),
#855,.T.);
#877=ADVANCED_FACE('',(#195),#143,.F.);
#878=ADVANCED_FACE('',(#196),#54,.T.);
#879=ADVANCED_FACE('',(#197),#144,.F.);
#880=ADVANCED_FACE('',(#198),#55,.T.);
#881=ADVANCED_FACE('',(#199),#145,.F.);
#882=ADVANCED_FACE('',(#200),#56,.T.);
#883=ADVANCED_FACE('',(#201),#146,.F.);
#884=ADVANCED_FACE('',(#202),#57,.T.);
#885=ADVANCED_FACE('',(#203),#147,.F.);
#886=ADVANCED_FACE('',(#204),#58,.T.);
#887=ADVANCED_FACE('',(#205),#148,.F.);
#888=ADVANCED_FACE('',(#206),#59,.T.);
#889=ADVANCED_FACE('',(#207),#60,.T.);
#890=ADVANCED_FACE('',(#208),#61,.T.);
#891=ADVANCED_FACE('',(#209),#62,.T.);
#892=ADVANCED_FACE('',(#210),#63,.T.);
#893=ADVANCED_FACE('',(#211),#64,.T.);
#894=ADVANCED_FACE('',(#212),#65,.T.);
#895=ADVANCED_FACE('',(#213),#149,.T.);
#896=ADVANCED_FACE('',(#214),#66,.F.);
#897=ADVANCED_FACE('',(#215,#174),#856,.T.);
#898=ADVANCED_FACE('',(#216),#150,.F.);
#899=ADVANCED_FACE('',(#217),#67,.F.);
#900=ADVANCED_FACE('',(#218),#48,.T.);
#901=ADVANCED_FACE('',(#219),#151,.F.);
#902=ADVANCED_FACE('',(#220),#152,.F.);
#903=ADVANCED_FACE('',(#221),#153,.F.);
#904=ADVANCED_FACE('',(#222,#175),#857,.T.);
#905=ADVANCED_FACE('',(#223),#154,.F.);
#906=CLOSED_SHELL('',(#858,#859,#860,#861,#862,#863,#864,#865,#866,#867,
#868,#869,#870,#871,#872,#873,#874,#875,#876,#877,#878,#879,#880,#881,#882,
#883,#884,#885,#886,#887,#888,#889,#890,#891,#892,#893,#894,#895,#896,#897,
#898,#899,#900,#901,#902,#903,#904,#905));
#907=DERIVED_UNIT_ELEMENT(#910,1.);
#908=DERIVED_UNIT_ELEMENT(#1740,-3.);
#909=DIMENSIONAL_EXPONENTS(0.,1.,0.,0.,0.,0.,0.);
#910=(
CONVERSION_BASED_UNIT('gram',#912)
MASS_UNIT()
NAMED_UNIT(#909)
);
#911=(
MASS_UNIT()
NAMED_UNIT(*)
SI_UNIT(.KILO.,.GRAM.)
);
#912=MASS_MEASURE_WITH_UNIT(MASS_MEASURE(0.001),#911);
#913=DERIVED_UNIT((#907,#908));
#914=MEASURE_REPRESENTATION_ITEM('density measure',
POSITIVE_RATIO_MEASURE(1.),#913);
#915=PROPERTY_DEFINITION_REPRESENTATION(#920,#917);
#916=PROPERTY_DEFINITION_REPRESENTATION(#921,#918);
#917=REPRESENTATION('material name',(#919),#1737);
#918=REPRESENTATION('density',(#914),#1737);
#919=DESCRIPTIVE_REPRESENTATION_ITEM('\X2\4E00822C\X0\','\X2\4E00822C\X0\');
#920=PROPERTY_DEFINITION('material property','material name',#1747);
#921=PROPERTY_DEFINITION('material property','density of part',#1747);
#922=DATE_TIME_ROLE('creation_date');
#923=APPLIED_DATE_AND_TIME_ASSIGNMENT(#924,#922,(#1747));
#924=DATE_AND_TIME(#925,#926);
#925=CALENDAR_DATE(2023,20,7);
#926=LOCAL_TIME(0,0,0.,#927);
#927=COORDINATED_UNIVERSAL_TIME_OFFSET(0,0,.BEHIND.);
#928=AXIS2_PLACEMENT_3D('',#1368,#1064,#1065);
#929=AXIS2_PLACEMENT_3D('',#1369,#1066,#1067);
#930=AXIS2_PLACEMENT_3D('',#1371,#1068,#1069);
#931=AXIS2_PLACEMENT_3D('',#1373,#1070,#1071);
#932=AXIS2_PLACEMENT_3D('',#1374,#1072,#1073);
#933=AXIS2_PLACEMENT_3D('',#1376,#1074,#1075);
#934=AXIS2_PLACEMENT_3D('',#1378,#1077,#1078);
#935=AXIS2_PLACEMENT_3D('',#1380,#1079,#1080);
#936=AXIS2_PLACEMENT_3D('',#1381,#1081,#1082);
#937=AXIS2_PLACEMENT_3D('',#1385,#1084,#1085);
#938=AXIS2_PLACEMENT_3D('',#1389,#1087,#1088);
#939=AXIS2_PLACEMENT_3D('',#1393,#1090,#1091);
#940=AXIS2_PLACEMENT_3D('',#1397,#1093,#1094);
#941=AXIS2_PLACEMENT_3D('',#1400,#1096,#1097);
#942=AXIS2_PLACEMENT_3D('',#1401,#1098,#1099);
#943=AXIS2_PLACEMENT_3D('',#1429,#1103,#1104);
#944=AXIS2_PLACEMENT_3D('',#1457,#1108,#1109);
#945=AXIS2_PLACEMENT_3D('',#1458,#1110,#1111);
#946=AXIS2_PLACEMENT_3D('',#1459,#1112,#1113);
#947=AXIS2_PLACEMENT_3D('',#1463,#1115,#1116);
#948=AXIS2_PLACEMENT_3D('',#1465,#1118,#1119);
#949=AXIS2_PLACEMENT_3D('',#1491,#1122,#1123);
#950=AXIS2_PLACEMENT_3D('',#1517,#1126,#1127);
#951=AXIS2_PLACEMENT_3D('',#1518,#1128,#1129);
#952=AXIS2_PLACEMENT_3D('',#1519,#1130,#1131);
#953=AXIS2_PLACEMENT_3D('',#1520,#1132,#1133);
#954=AXIS2_PLACEMENT_3D('',#1521,#1134,#1135);
#955=AXIS2_PLACEMENT_3D('',#1522,#1136,#1137);
#956=AXIS2_PLACEMENT_3D('',#1524,#1138,#1139);
#957=AXIS2_PLACEMENT_3D('',#1526,#1140,#1141);
#958=AXIS2_PLACEMENT_3D('',#1528,#1142,#1143);
#959=AXIS2_PLACEMENT_3D('',#1530,#1144,#1145);
#960=AXIS2_PLACEMENT_3D('',#1531,#1146,#1147);
#961=AXIS2_PLACEMENT_3D('',#1532,#1148,#1149);
#962=AXIS2_PLACEMENT_3D('',#1534,#1150,#1151);
#963=AXIS2_PLACEMENT_3D('',#1536,#1152,#1153);
#964=AXIS2_PLACEMENT_3D('',#1538,#1154,#1155);
#965=AXIS2_PLACEMENT_3D('',#1540,#1156,#1157);
#966=AXIS2_PLACEMENT_3D('',#1541,#1158,#1159);
#967=AXIS2_PLACEMENT_3D('',#1544,#1160,#1161);
#968=AXIS2_PLACEMENT_3D('',#1545,#1162,#1163);
#969=AXIS2_PLACEMENT_3D('',#1548,#1165,#1166);
#970=AXIS2_PLACEMENT_3D('',#1549,#1167,#1168);
#971=AXIS2_PLACEMENT_3D('',#1550,#1169,#1170);
#972=AXIS2_PLACEMENT_3D('',#1551,#1171,#1172);
#973=AXIS2_PLACEMENT_3D('',#1552,#1173,#1174);
#974=AXIS2_PLACEMENT_3D('',#1553,#1175,#1176);
#975=AXIS2_PLACEMENT_3D('',#1555,#1177,#1178);
#976=AXIS2_PLACEMENT_3D('',#1557,#1179,#1180);
#977=AXIS2_PLACEMENT_3D('',#1559,#1181,#1182);
#978=AXIS2_PLACEMENT_3D('',#1560,#1183,#1184);
#979=AXIS2_PLACEMENT_3D('',#1561,#1185,#1186);
#980=AXIS2_PLACEMENT_3D('',#1563,#1187,#1188);
#981=AXIS2_PLACEMENT_3D('',#1565,#1189,#1190);
#982=AXIS2_PLACEMENT_3D('',#1567,#1191,#1192);
#983=AXIS2_PLACEMENT_3D('',#1569,#1193,#1194);
#984=AXIS2_PLACEMENT_3D('',#1571,#1195,#1196);
#985=AXIS2_PLACEMENT_3D('',#1573,#1197,#1198);
#986=AXIS2_PLACEMENT_3D('',#1575,#1199,#1200);
#987=AXIS2_PLACEMENT_3D('',#1577,#1201,#1202);
#988=AXIS2_PLACEMENT_3D('',#1579,#1203,#1204);
#989=AXIS2_PLACEMENT_3D('',#1580,#1205,#1206);
#990=AXIS2_PLACEMENT_3D('',#1583,#1207,#1208);
#991=AXIS2_PLACEMENT_3D('',#1585,#1210,#1211);
#992=AXIS2_PLACEMENT_3D('',#1586,#1212,#1213);
#993=AXIS2_PLACEMENT_3D('',#1588,#1214,#1215);
#994=AXIS2_PLACEMENT_3D('',#1590,#1216,#1217);
#995=AXIS2_PLACEMENT_3D('',#1591,#1218,#1219);
#996=AXIS2_PLACEMENT_3D('',#1592,#1220,#1221);
#997=AXIS2_PLACEMENT_3D('',#1595,#1222,#1223);
#998=AXIS2_PLACEMENT_3D('',#1597,#1225,#1226);
#999=AXIS2_PLACEMENT_3D('',#1598,#1227,#1228);
#1000=AXIS2_PLACEMENT_3D('',#1600,#1229,#1230);
#1001=AXIS2_PLACEMENT_3D('',#1602,#1231,#1232);
#1002=AXIS2_PLACEMENT_3D('',#1603,#1233,#1234);
#1003=AXIS2_PLACEMENT_3D('',#1604,#1235,#1236);
#1004=AXIS2_PLACEMENT_3D('',#1607,#1237,#1238);
#1005=AXIS2_PLACEMENT_3D('',#1608,#1239,#1240);
#1006=AXIS2_PLACEMENT_3D('',#1610,#1242,#1243);
#1007=AXIS2_PLACEMENT_3D('',#1612,#1244,#1245);
#1008=AXIS2_PLACEMENT_3D('',#1614,#1246,#1247);
#1009=AXIS2_PLACEMENT_3D('',#1615,#1248,#1249);
#1010=AXIS2_PLACEMENT_3D('',#1616,#1250,#1251);
#1011=AXIS2_PLACEMENT_3D('',#1619,#1252,#1253);
#1012=AXIS2_PLACEMENT_3D('',#1620,#1254,#1255);
#1013=AXIS2_PLACEMENT_3D('',#1622,#1257,#1258);
#1014=AXIS2_PLACEMENT_3D('',#1624,#1259,#1260);
#1015=AXIS2_PLACEMENT_3D('',#1626,#1261,#1262);
#1016=AXIS2_PLACEMENT_3D('',#1627,#1263,#1264);
#1017=AXIS2_PLACEMENT_3D('',#1628,#1265,#1266);
#1018=AXIS2_PLACEMENT_3D('',#1631,#1267,#1268);
#1019=AXIS2_PLACEMENT_3D('',#1632,#1269,#1270);
#1020=AXIS2_PLACEMENT_3D('',#1634,#1272,#1273);
#1021=AXIS2_PLACEMENT_3D('',#1636,#1274,#1275);
#1022=AXIS2_PLACEMENT_3D('',#1638,#1276,#1277);
#1023=AXIS2_PLACEMENT_3D('',#1639,#1278,#1279);
#1024=AXIS2_PLACEMENT_3D('',#1640,#1280,#1281);
#1025=AXIS2_PLACEMENT_3D('',#1642,#1282,#1283);
#1026=AXIS2_PLACEMENT_3D('',#1644,#1285,#1286);
#1027=AXIS2_PLACEMENT_3D('',#1645,#1287,#1288);
#1028=AXIS2_PLACEMENT_3D('',#1646,#1289,#1290);
#1029=AXIS2_PLACEMENT_3D('',#1647,#1291,#1292);
#1030=AXIS2_PLACEMENT_3D('',#1648,#1293,#1294);
#1031=AXIS2_PLACEMENT_3D('',#1649,#1295,#1296);
#1032=AXIS2_PLACEMENT_3D('',#1650,#1297,#1298);
#1033=AXIS2_PLACEMENT_3D('',#1651,#1299,#1300);
#1034=AXIS2_PLACEMENT_3D('',#1652,#1301,#1302);
#1035=AXIS2_PLACEMENT_3D('',#1653,#1303,#1304);
#1036=AXIS2_PLACEMENT_3D('',#1654,#1305,#1306);
#1037=AXIS2_PLACEMENT_3D('',#1655,#1307,#1308);
#1038=AXIS2_PLACEMENT_3D('',#1656,#1309,#1310);
#1039=AXIS2_PLACEMENT_3D('',#1658,#1311,#1312);
#1040=AXIS2_PLACEMENT_3D('',#1660,#1313,#1314);
#1041=AXIS2_PLACEMENT_3D('',#1661,#1315,#1316);
#1042=AXIS2_PLACEMENT_3D('',#1662,#1317,#1318);
#1043=AXIS2_PLACEMENT_3D('',#1664,#1320,#1321);
#1044=AXIS2_PLACEMENT_3D('',#1666,#1322,#1323);
#1045=AXIS2_PLACEMENT_3D('',#1668,#1324,#1325);
#1046=AXIS2_PLACEMENT_3D('',#1670,#1326,#1327);
#1047=AXIS2_PLACEMENT_3D('',#1671,#1328,#1329);
#1048=AXIS2_PLACEMENT_3D('',#1672,#1330,#1331);
#1049=AXIS2_PLACEMENT_3D('',#1674,#1332,#1333);
#1050=AXIS2_PLACEMENT_3D('',#1675,#1334,#1335);
#1051=AXIS2_PLACEMENT_3D('',#1678,#1337,#1338);
#1052=AXIS2_PLACEMENT_3D('',#1679,#1339,#1340);
#1053=AXIS2_PLACEMENT_3D('',#1682,#1341,#1342);
#1054=AXIS2_PLACEMENT_3D('',#1683,#1343,#1344);
#1055=AXIS2_PLACEMENT_3D('',#1684,#1345,#1346);
#1056=AXIS2_PLACEMENT_3D('',#1685,#1347,#1348);
#1057=AXIS2_PLACEMENT_3D('',#1687,#1350,#1351);
#1058=AXIS2_PLACEMENT_3D('',#1689,#1353,#1354);
#1059=AXIS2_PLACEMENT_3D('',#1691,#1356,#1357);
#1060=AXIS2_PLACEMENT_3D('',#1694,#1359,#1360);
#1061=AXIS2_PLACEMENT_3D('',#1695,#1361,#1362);
#1062=AXIS2_PLACEMENT_3D('',#1697,#1363,#1364);
#1063=AXIS2_PLACEMENT_3D('',#1698,#1365,#1366);
#1064=DIRECTION('axis',(0.,0.,1.));
#1065=DIRECTION('refdir',(1.,0.,0.));
#1066=DIRECTION('center_axis',(0.,-1.,0.));
#1067=DIRECTION('ref_axis',(0.,0.,-1.));
#1068=DIRECTION('center_axis',(0.,-1.,0.));
#1069=DIRECTION('ref_axis',(0.,-4.86939923081209E-16,1.));
#1070=DIRECTION('center_axis',(0.,-1.,0.));
#1071=DIRECTION('ref_axis',(1.,0.,0.));
#1072=DIRECTION('center_axis',(0.,-1.,0.));
#1073=DIRECTION('ref_axis',(0.,0.,1.));
#1074=DIRECTION('center_axis',(0.,-1.,0.));
#1075=DIRECTION('ref_axis',(1.,0.,0.));
#1076=DIRECTION('',(0.,-1.,0.));
#1077=DIRECTION('center_axis',(0.,1.,0.));
#1078=DIRECTION('ref_axis',(0.,0.,1.));
#1079=DIRECTION('center_axis',(0.,1.,0.));
#1080=DIRECTION('ref_axis',(0.,-4.86939923081209E-16,1.));
#1081=DIRECTION('center_axis',(0.,-1.,-4.89858719658941E-16));
#1082=DIRECTION('ref_axis',(0.,-4.86939923081209E-16,1.));
#1083=DIRECTION('',(0.,1.,4.89858719658941E-16));
#1084=DIRECTION('center_axis',(0.,1.,4.89858719658941E-16));
#1085=DIRECTION('ref_axis',(-1.83697019872103E-16,4.89983297600467E-16,
-1.));
#1086=DIRECTION('',(0.,-1.,-4.89858719658941E-16));
#1087=DIRECTION('center_axis',(0.,-1.,0.));
#1088=DIRECTION('ref_axis',(0.,-4.86939923081209E-16,1.));
#1089=DIRECTION('',(0.,1.,4.89858719658941E-16));
#1090=DIRECTION('center_axis',(0.,1.,4.89858719658941E-16));
#1091=DIRECTION('ref_axis',(-1.83697019872103E-16,4.89983297600467E-16,
-1.));
#1092=DIRECTION('',(0.,-1.,-4.89858719658941E-16));
#1093=DIRECTION('center_axis',(0.,-1.,0.));
#1094=DIRECTION('ref_axis',(0.,-4.86939923081209E-16,1.));
#1095=DIRECTION('',(0.,1.,4.89858719658941E-16));
#1096=DIRECTION('center_axis',(0.,1.,4.89858719658941E-16));
#1097=DIRECTION('ref_axis',(-1.83697019872103E-16,4.89983297600467E-16,
-1.));
#1098=DIRECTION('center_axis',(-0.38268343236509,0.,-0.923879532511287));
#1099=DIRECTION('ref_axis',(0.923879532511287,1.87460816213052E-16,-0.38268343236509));
#1100=DIRECTION('',(0.923879532511287,1.87460816213052E-16,-0.38268343236509));
#1101=DIRECTION('',(0.,-1.,-4.89858719658941E-16));
#1102=DIRECTION('',(0.923879532511287,1.87460816213052E-16,-0.38268343236509));
#1103=DIRECTION('center_axis',(0.38268343236509,0.,0.923879532511287));
#1104=DIRECTION('ref_axis',(-0.923879532511287,-1.87460816213052E-16,0.38268343236509));
#1105=DIRECTION('',(-0.923879532511287,-1.87460816213052E-16,0.38268343236509));
#1106=DIRECTION('',(0.,1.,4.89858719658941E-16));
#1107=DIRECTION('',(-0.923879532511287,-1.87460816213052E-16,0.38268343236509));
#1108=DIRECTION('center_axis',(0.,-1.,0.));
#1109=DIRECTION('ref_axis',(0.,0.,-1.));
#1110=DIRECTION('center_axis',(0.,1.,0.));
#1111=DIRECTION('ref_axis',(0.,-4.86939923081209E-16,1.));
#1112=DIRECTION('center_axis',(0.,-1.,0.));
#1113=DIRECTION('ref_axis',(0.,0.,-1.));
#1114=DIRECTION('',(0.923879532511287,1.87460816213052E-16,-0.38268343236509));
#1115=DIRECTION('center_axis',(0.,1.,0.));
#1116=DIRECTION('ref_axis',(0.,-4.86939923081209E-16,1.));
#1117=DIRECTION('',(-0.923879532511287,-1.87460816213052E-16,0.38268343236509));
#1118=DIRECTION('center_axis',(0.38268343236509,0.,0.923879532511287));
#1119=DIRECTION('ref_axis',(-0.923879532511287,-1.87460816213052E-16,0.38268343236509));
#1120=DIRECTION('',(0.,-1.,-4.89858719658941E-16));
#1121=DIRECTION('',(-0.923879532511287,-1.87460816213052E-16,0.38268343236509));
#1122=DIRECTION('center_axis',(-0.38268343236509,0.,-0.923879532511287));
#1123=DIRECTION('ref_axis',(0.923879532511287,1.87460816213052E-16,-0.38268343236509));
#1124=DIRECTION('',(0.923879532511287,1.87460816213052E-16,-0.38268343236509));
#1125=DIRECTION('',(0.,1.,4.89858719658941E-16));
#1126=DIRECTION('center_axis',(0.,-1.,-4.89858719658941E-16));
#1127=DIRECTION('ref_axis',(0.38268343236509,-4.36298171080763E-16,0.923879532511287));
#1128=DIRECTION('center_axis',(0.,-1.,-4.89858719658941E-16));
#1129=DIRECTION('ref_axis',(-1.83697019872103E-16,4.89858719658941E-16,
-1.));
#1130=DIRECTION('center_axis',(0.,-1.,-4.89858719658941E-16));
#1131=DIRECTION('ref_axis',(0.,4.98626481235158E-16,-1.));
#1132=DIRECTION('center_axis',(0.,-1.,-4.89858719658941E-16));
#1133=DIRECTION('ref_axis',(-1.83697019872103E-16,4.89858719658941E-16,
-1.));
#1134=DIRECTION('center_axis',(0.,1.,4.89858719658941E-16));
#1135=DIRECTION('ref_axis',(0.,-4.89858719658941E-16,1.));
#1136=DIRECTION('center_axis',(0.,1.,4.89858719658941E-16));
#1137=DIRECTION('ref_axis',(-1.83697019872103E-16,4.89858719658941E-16,
-1.));
#1138=DIRECTION('center_axis',(0.,1.,4.89858719658941E-16));
#1139=DIRECTION('ref_axis',(0.707106781186548,-3.46382422494197E-16,0.707106781186548));
#1140=DIRECTION('center_axis',(0.,1.,4.89858719658941E-16));
#1141=DIRECTION('ref_axis',(-0.707106781186547,-3.46382422494197E-16,0.707106781186549));
#1142=DIRECTION('center_axis',(0.,1.,4.89858719658941E-16));
#1143=DIRECTION('ref_axis',(1.,4.20809311965739E-31,-8.59042199470744E-16));
#1144=DIRECTION('center_axis',(0.,1.,4.89858719658941E-16));
#1145=DIRECTION('ref_axis',(1.03396970531291E-15,-4.89858719658941E-16,
1.));
#1146=DIRECTION('center_axis',(0.,1.,4.89858719658941E-16));
#1147=DIRECTION('ref_axis',(0.,-4.89858719658941E-16,1.));
#1148=DIRECTION('center_axis',(0.,1.,4.89858719658941E-16));
#1149=DIRECTION('ref_axis',(-1.83697019872103E-16,4.89858719658941E-16,
-1.));
#1150=DIRECTION('center_axis',(0.,1.,4.89858719658941E-16));
#1151=DIRECTION('ref_axis',(-1.,-5.99903913064728E-32,1.22464679914732E-16));
#1152=DIRECTION('center_axis',(0.,-1.,-4.89858719658941E-16));
#1153=DIRECTION('ref_axis',(-1.98254111540206E-16,0.,1.));
#1154=DIRECTION('center_axis',(0.,-1.,-4.89858719658941E-16));
#1155=DIRECTION('ref_axis',(0.707106781186547,0.,0.707106781186548));
#1156=DIRECTION('center_axis',(0.,1.,4.89858719658941E-16));
#1157=DIRECTION('ref_axis',(0.707106781186548,3.46382422494197E-16,-0.707106781186548));
#1158=DIRECTION('center_axis',(0.,-1.,-4.89858719658941E-16));
#1159=DIRECTION('ref_axis',(0.,-4.86939923081209E-16,1.));
#1160=DIRECTION('center_axis',(0.,1.,4.89858719658941E-16));
#1161=DIRECTION('ref_axis',(-1.83697019872103E-16,4.89507424493819E-16,
-1.));
#1162=DIRECTION('center_axis',(0.,1.,4.89858719658941E-16));
#1163=DIRECTION('ref_axis',(-1.83697019872103E-16,4.89507424493819E-16,
-1.));
#1164=DIRECTION('',(0.,1.,4.89858719658941E-16));
#1165=DIRECTION('center_axis',(0.,-1.,-4.89858719658941E-16));
#1166=DIRECTION('ref_axis',(-1.83697019872103E-16,4.89507424493819E-16,
-1.));
#1167=DIRECTION('center_axis',(0.,-1.,-4.89858719658941E-16));
#1168=DIRECTION('ref_axis',(-1.83697019872103E-16,4.89507424493819E-16,
-1.));
#1169=DIRECTION('center_axis',(0.,-1.,-4.89858719658941E-16));
#1170=DIRECTION('ref_axis',(-1.83697019872103E-16,4.89507424493819E-16,
-1.));
#1171=DIRECTION('center_axis',(0.,-1.,-4.89858719658941E-16));
#1172=DIRECTION('ref_axis',(0.382683432365089,-4.26496239952041E-16,0.923879532511287));
#1173=DIRECTION('center_axis',(0.,-1.,-4.89858719658941E-16));
#1174=DIRECTION('ref_axis',(0.,5.11795487942449E-16,-1.));
#1175=DIRECTION('center_axis',(0.,1.,4.89858719658941E-16));
#1176=DIRECTION('ref_axis',(0.,-4.94773304452515E-16,1.));
#1177=DIRECTION('center_axis',(0.,-1.,-4.89858719658941E-16));
#1178=DIRECTION('ref_axis',(-0.707106781186548,-3.46382422494197E-16,0.707106781186548));
#1179=DIRECTION('center_axis',(-1.,0.,0.));
#1180=DIRECTION('ref_axis',(0.,4.90247938863011E-16,-1.));
#1181=DIRECTION('center_axis',(0.,1.,4.89858719658941E-16));
#1182=DIRECTION('ref_axis',(-0.707106781186547,-3.46944695195362E-16,0.707106781186547));
#1183=DIRECTION('center_axis',(0.,1.,4.89858719658941E-16));
#1184=DIRECTION('ref_axis',(-0.707106781186547,-3.46944695195362E-16,0.707106781186547));
#1185=DIRECTION('center_axis',(0.,-1.,-4.89858719658941E-16));
#1186=DIRECTION('ref_axis',(0.,4.89858719658941E-16,-1.));
#1187=DIRECTION('center_axis',(0.,1.,4.89858719658941E-16));
#1188=DIRECTION('ref_axis',(-1.83697019872103E-16,4.89858719658941E-16,
-1.));
#1189=DIRECTION('center_axis',(0.,-1.,-4.89858719658941E-16));
#1190=DIRECTION('ref_axis',(-1.,5.99903913064758E-32,-1.22464679914739E-16));
#1191=DIRECTION('center_axis',(0.,-1.,-4.89858719658941E-16));
#1192=DIRECTION('ref_axis',(1.,-8.5975485524146E-32,1.75510779075252E-16));
#1193=DIRECTION('center_axis',(0.,-1.,-4.89858719658941E-16));
#1194=DIRECTION('ref_axis',(4.60699381629979E-17,-4.89858719658941E-16,
1.));
#1195=DIRECTION('center_axis',(0.,-1.,-4.89858719658941E-16));
#1196=DIRECTION('ref_axis',(1.,0.,0.));
#1197=DIRECTION('center_axis',(0.,1.,4.89858719658941E-16));
#1198=DIRECTION('ref_axis',(-1.98254111540206E-16,0.,1.));
#1199=DIRECTION('center_axis',(0.,1.,4.89858719658941E-16));
#1200=DIRECTION('ref_axis',(0.707106781186547,0.,0.707106781186548));
#1201=DIRECTION('center_axis',(0.,-1.,-4.89858719658941E-16));
#1202=DIRECTION('ref_axis',(0.707106781186548,-3.46382422494197E-16,0.707106781186548));
#1203=DIRECTION('center_axis',(0.,-1.,-4.89858719658941E-16));
#1204=DIRECTION('ref_axis',(0.707106781186548,3.46382422494197E-16,-0.707106781186548));
#1205=DIRECTION('center_axis',(3.46382422494197E-16,1.,3.46382422494197E-16));
#1206=DIRECTION('ref_axis',(0.707106781186548,0.,-0.707106781186548));
#1207=DIRECTION('center_axis',(0.,-1.,-4.89858719658941E-16));
#1208=DIRECTION('ref_axis',(-0.707106781186546,-3.46944695195361E-16,0.707106781186549));
#1209=DIRECTION('',(-3.46382422494197E-16,-1.,-3.46382422494197E-16));
#1210=DIRECTION('center_axis',(0.,-1.,-4.89858719658941E-16));
#1211=DIRECTION('ref_axis',(-0.707106781186546,-3.46944695195361E-16,0.707106781186549));
#1212=DIRECTION('center_axis',(0.,1.,4.89858719658941E-16));
#1213=DIRECTION('ref_axis',(0.,-4.94773304452515E-16,1.));
#1214=DIRECTION('center_axis',(-1.,0.,0.));
#1215=DIRECTION('ref_axis',(0.,4.90247938863011E-16,-1.));
#1216=DIRECTION('center_axis',(0.,1.,4.89858719658941E-16));
#1217=DIRECTION('ref_axis',(-1.,0.,-1.22464679914739E-16));
#1218=DIRECTION('center_axis',(0.,1.,4.89858719658941E-16));
#1219=DIRECTION('ref_axis',(-1.,0.,-1.22464679914739E-16));
#1220=DIRECTION('center_axis',(0.,1.,4.89858719658941E-16));
#1221=DIRECTION('ref_axis',(1.,0.,0.));
#1222=DIRECTION('center_axis',(0.,-1.,-4.89858719658941E-16));
#1223=DIRECTION('ref_axis',(-1.,0.,1.22464679914732E-16));
#1224=DIRECTION('',(0.,-1.,-4.89858719658941E-16));
#1225=DIRECTION('center_axis',(0.,-1.,-4.89858719658941E-16));
#1226=DIRECTION('ref_axis',(-1.,0.,1.22464679914732E-16));
#1227=DIRECTION('center_axis',(0.,1.,4.89858719658941E-16));
#1228=DIRECTION('ref_axis',(0.,-4.94773304452515E-16,1.));
#1229=DIRECTION('center_axis',(-1.,0.,0.));
#1230=DIRECTION('ref_axis',(0.,4.9024793886301E-16,-1.));
#1231=DIRECTION('center_axis',(0.,1.,4.89858719658941E-16));
#1232=DIRECTION('ref_axis',(0.707106781186548,3.46944695195365E-16,-0.707106781186548));
#1233=DIRECTION('center_axis',(0.,1.,4.89858719658941E-16));
#1234=DIRECTION('ref_axis',(0.707106781186548,3.46944695195365E-16,-0.707106781186548));
#1235=DIRECTION('center_axis',(-3.46382422494197E-16,1.,-3.46382422494197E-16));
#1236=DIRECTION('ref_axis',(-0.707106781186548,0.,0.707106781186547));
#1237=DIRECTION('center_axis',(0.,-1.,-4.89858719658941E-16));
#1238=DIRECTION('ref_axis',(0.707106781186548,3.46944695195361E-16,-0.707106781186548));
#1239=DIRECTION('center_axis',(0.,-1.,-4.89858719658941E-16));
#1240=DIRECTION('ref_axis',(0.707106781186548,3.46944695195361E-16,-0.707106781186548));
#1241=DIRECTION('',(3.46382422494197E-16,-1.,3.46382422494197E-16));
#1242=DIRECTION('center_axis',(0.,1.,4.89858719658941E-16));
#1243=DIRECTION('ref_axis',(0.,-4.94773304452515E-16,1.));
#1244=DIRECTION('center_axis',(-1.,0.,0.));
#1245=DIRECTION('ref_axis',(0.,4.90247938863011E-16,-1.));
#1246=DIRECTION('center_axis',(0.,1.,4.89858719658941E-16));
#1247=DIRECTION('ref_axis',(1.,0.,1.75510779075252E-16));
#1248=DIRECTION('center_axis',(0.,1.,4.89858719658941E-16));
#1249=DIRECTION('ref_axis',(1.,0.,1.75510779075252E-16));
#1250=DIRECTION('center_axis',(4.93038065763132E-32,1.,-4.89858719658941E-16));
#1251=DIRECTION('ref_axis',(-1.,0.,-1.98254111540206E-16));
#1252=DIRECTION('center_axis',(0.,-1.,-4.89858719658941E-16));
#1253=DIRECTION('ref_axis',(1.,0.,-8.59042199470744E-16));
#1254=DIRECTION('center_axis',(0.,-1.,-4.89858719658941E-16));
#1255=DIRECTION('ref_axis',(1.,0.,-8.59042199470744E-16));
#1256=DIRECTION('',(-4.93038065763132E-32,-1.,4.89858719658941E-16));
#1257=DIRECTION('center_axis',(0.,1.,4.89858719658941E-16));
#1258=DIRECTION('ref_axis',(0.,-4.94773304452515E-16,1.));
#1259=DIRECTION('center_axis',(-1.,0.,0.));
#1260=DIRECTION('ref_axis',(0.,4.9024793886301E-16,-1.));
#1261=DIRECTION('center_axis',(0.,1.,4.89858719658941E-16));
#1262=DIRECTION('ref_axis',(0.707106781186548,-3.46944695195365E-16,0.707106781186548));
#1263=DIRECTION('center_axis',(0.,1.,4.89858719658941E-16));
#1264=DIRECTION('ref_axis',(0.707106781186548,-3.46944695195365E-16,0.707106781186548));
#1265=DIRECTION('center_axis',(3.46382422494197E-16,1.,-3.46382422494197E-16));
#1266=DIRECTION('ref_axis',(-0.707106781186547,0.,-0.707106781186548));
#1267=DIRECTION('center_axis',(0.,-1.,-4.89858719658941E-16));
#1268=DIRECTION('ref_axis',(0.707106781186548,-3.46944695195361E-16,0.707106781186548));
#1269=DIRECTION('center_axis',(0.,-1.,-4.89858719658941E-16));
#1270=DIRECTION('ref_axis',(0.707106781186548,-3.46944695195361E-16,0.707106781186548));
#1271=DIRECTION('',(-3.46382422494197E-16,-1.,3.46382422494197E-16));
#1272=DIRECTION('center_axis',(0.,1.,4.89858719658941E-16));
#1273=DIRECTION('ref_axis',(0.,-4.94773304452515E-16,1.));
#1274=DIRECTION('center_axis',(-1.,-5.99903913064742E-32,1.22464679914735E-16));
#1275=DIRECTION('ref_axis',(-1.22464679914735E-16,4.90247938863011E-16,
-1.));
#1276=DIRECTION('center_axis',(0.,1.,4.89858719658941E-16));
#1277=DIRECTION('ref_axis',(4.60699381629979E-17,-4.87374690869676E-16,
1.));
#1278=DIRECTION('center_axis',(0.,1.,4.89858719658941E-16));
#1279=DIRECTION('ref_axis',(4.60699381629979E-17,-4.87374690869676E-16,
1.));
#1280=DIRECTION('center_axis',(4.89858719658941E-16,1.,0.));
#1281=DIRECTION('ref_axis',(0.,0.,-1.));
#1282=DIRECTION('center_axis',(0.,-1.,-4.89858719658941E-16));
#1283=DIRECTION('ref_axis',(1.03396970531291E-15,-4.87374690869674E-16,
1.));
#1284=DIRECTION('',(-4.89858719658941E-16,-1.,0.));
#1285=DIRECTION('center_axis',(0.,-1.,-4.89858719658941E-16));
#1286=DIRECTION('ref_axis',(0.,7.72329060608804E-16,-1.));
#1287=DIRECTION('center_axis',(-1.,5.99903913064743E-32,-1.22464679914735E-16));
#1288=DIRECTION('ref_axis',(-1.22464679914735E-16,-4.82705662880503E-16,
1.));
#1289=DIRECTION('center_axis',(0.,-1.,-4.89858719658941E-16));
#1290=DIRECTION('ref_axis',(0.,7.72329060608804E-16,-1.));
#1291=DIRECTION('center_axis',(-1.,0.,0.));
#1292=DIRECTION('ref_axis',(0.,-4.82705662880502E-16,1.));
#1293=DIRECTION('center_axis',(0.,-1.,-4.89858719658941E-16));
#1294=DIRECTION('ref_axis',(0.,7.72329060608804E-16,-1.));
#1295=DIRECTION('center_axis',(-1.,0.,0.));
#1296=DIRECTION('ref_axis',(0.,-4.82705662880503E-16,1.));
#1297=DIRECTION('center_axis',(0.,-1.,-4.89858719658941E-16));
#1298=DIRECTION('ref_axis',(0.,7.72329060608803E-16,-1.));
#1299=DIRECTION('center_axis',(-1.,0.,0.));
#1300=DIRECTION('ref_axis',(0.,-4.82705662880502E-16,1.));
#1301=DIRECTION('center_axis',(0.,-1.,-4.89858719658941E-16));
#1302=DIRECTION('ref_axis',(0.,7.72329060608804E-16,-1.));
#1303=DIRECTION('center_axis',(-1.,0.,0.));
#1304=DIRECTION('ref_axis',(0.,-4.82705662880503E-16,1.));
#1305=DIRECTION('center_axis',(0.,-1.,-4.89858719658941E-16));
#1306=DIRECTION('ref_axis',(0.,7.72329060608804E-16,-1.));
#1307=DIRECTION('center_axis',(-1.,0.,0.));
#1308=DIRECTION('ref_axis',(0.,-4.82705662880503E-16,1.));
#1309=DIRECTION('center_axis',(0.,-1.,-4.89858719658941E-16));
#1310=DIRECTION('ref_axis',(0.,4.89861562619696E-16,-1.));
#1311=DIRECTION('center_axis',(-1.,5.99903913064742E-32,-1.22464679914735E-16));
#1312=DIRECTION('ref_axis',(-1.22464679914735E-16,-4.89983297600466E-16,
1.));
#1313=DIRECTION('center_axis',(0.,-1.,-4.89858719658941E-16));
#1314=DIRECTION('ref_axis',(-1.83697019872103E-16,4.89983297600466E-16,
-1.));
#1315=DIRECTION('center_axis',(0.,-1.,-4.89858719658941E-16));
#1316=DIRECTION('ref_axis',(-1.83697019872103E-16,4.89983297600466E-16,
-1.));
#1317=DIRECTION('center_axis',(0.,-1.,-4.89858719658941E-16));
#1318=DIRECTION('ref_axis',(0.,-4.86939923081209E-16,1.));
#1319=DIRECTION('',(0.,1.,4.89858719658941E-16));
#1320=DIRECTION('center_axis',(0.,-1.,-4.89858719658941E-16));
#1321=DIRECTION('ref_axis',(0.,5.06215679621833E-16,-1.));
#1322=DIRECTION('center_axis',(0.,-1.,-4.89858719658941E-16));
#1323=DIRECTION('ref_axis',(-1.83697019872103E-16,4.89858719658941E-16,
-1.));
#1324=DIRECTION('center_axis',(-1.,5.99903913064742E-32,-1.22464679914735E-16));
#1325=DIRECTION('ref_axis',(-1.22464679914735E-16,-5.1772058143142E-16,
1.));
#1326=DIRECTION('center_axis',(0.,1.,4.89858719658941E-16));
#1327=DIRECTION('ref_axis',(-1.83697019872103E-16,4.89857147361326E-16,
-1.));
#1328=DIRECTION('center_axis',(0.,1.,4.89858719658941E-16));
#1329=DIRECTION('ref_axis',(-1.83697019872103E-16,4.89857147361326E-16,
-1.));
#1330=DIRECTION('center_axis',(0.,1.,4.89858719658941E-16));
#1331=DIRECTION('ref_axis',(0.,-4.89858719658941E-16,1.));
#1332=DIRECTION('center_axis',(0.,-1.,-4.89858719658941E-16));
#1333=DIRECTION('ref_axis',(1.,0.,0.));
#1334=DIRECTION('center_axis',(0.,-1.,-4.89858719658941E-16));
#1335=DIRECTION('ref_axis',(0.,-4.86939923081209E-16,1.));
#1336=DIRECTION('',(0.,1.,4.89858719658941E-16));
#1337=DIRECTION('center_axis',(0.,-1.,-4.89858719658941E-16));
#1338=DIRECTION('ref_axis',(1.,0.,0.));
#1339=DIRECTION('center_axis',(0.,-1.,-4.89858719658941E-16));
#1340=DIRECTION('ref_axis',(0.,5.16758353280073E-16,-1.));
#1341=DIRECTION('center_axis',(-3.80970272641264E-32,-1.,-4.87633874904016E-16));
#1342=DIRECTION('ref_axis',(-3.06161699786838E-17,4.87633874904016E-16,
-1.));
#1343=DIRECTION('center_axis',(-3.80970272641264E-32,-1.,-4.87633874904016E-16));
#1344=DIRECTION('ref_axis',(-3.06161699786838E-17,4.87633874904016E-16,
-1.));
#1345=DIRECTION('center_axis',(-1.,5.99903913064742E-32,-1.22464679914735E-16));
#1346=DIRECTION('ref_axis',(-1.22464679914735E-16,-4.84460956200068E-16,
1.));
#1347=DIRECTION('center_axis',(0.,-1.,-4.89858719658941E-16));
#1348=DIRECTION('ref_axis',(0.,-4.86939923081209E-16,1.));
#1349=DIRECTION('',(-1.15079156022785E-16,0.342020143325667,0.939692620785909));
#1350=DIRECTION('center_axis',(-3.46382422494197E-16,1.,3.46382422494197E-16));
#1351=DIRECTION('ref_axis',(0.707106781186547,0.,0.707106781186548));
#1352=DIRECTION('',(3.46382422494197E-16,-1.,-3.46382422494197E-16));
#1353=DIRECTION('center_axis',(-4.89858719658941E-16,1.,-4.93038065763132E-32));
#1354=DIRECTION('ref_axis',(-1.98254111540206E-16,0.,1.));
#1355=DIRECTION('',(4.89858719658941E-16,-1.,4.93038065763132E-32));
#1356=DIRECTION('center_axis',(0.,-1.,-4.89858719658941E-16));
#1357=DIRECTION('ref_axis',(0.,-4.86939923081209E-16,1.));
#1358=DIRECTION('',(0.,1.,4.89858719658941E-16));
#1359=DIRECTION('center_axis',(0.,-1.,-4.89858719658941E-16));
#1360=DIRECTION('ref_axis',(1.,0.,0.));
#1361=DIRECTION('center_axis',(0.,-1.,-4.89858719658941E-16));
#1362=DIRECTION('ref_axis',(0.,4.89858719658941E-16,-1.));
#1363=DIRECTION('center_axis',(0.,-1.,-4.89858719658941E-16));
#1364=DIRECTION('ref_axis',(1.,0.,0.));
#1365=DIRECTION('center_axis',(0.,-1.,-4.89858719658941E-16));
#1366=DIRECTION('ref_axis',(0.,-4.86939923081209E-16,1.));
#1367=DIRECTION('',(0.,1.,4.89858719658941E-16));
#1368=CARTESIAN_POINT('',(0.,0.,0.));
#1369=CARTESIAN_POINT('Origin',(0.,8.24999999999999,56.5));
#1370=CARTESIAN_POINT('',(6.98048675513991E-15,8.25000000000005,-57.));
#1371=CARTESIAN_POINT('Origin',(0.,8.25000000000002,4.04133443718627E-15));
#1372=CARTESIAN_POINT('',(6.91925441518255E-15,8.24999999999999,-56.5));
#1373=CARTESIAN_POINT('Origin',(0.,8.24999999999999,0.));
#1374=CARTESIAN_POINT('Origin',(0.,8.75,0.));
#1375=CARTESIAN_POINT('',(6.91925441518255E-15,9.24999999999999,-56.5));
#1376=CARTESIAN_POINT('Origin',(0.,9.24999999999999,0.));
#1377=CARTESIAN_POINT('',(6.91925441518255E-15,8.75,-56.5));
#1378=CARTESIAN_POINT('Origin',(0.,9.25,57.));
#1379=CARTESIAN_POINT('',(6.98048675513991E-15,9.25000000000005,-57.));
#1380=CARTESIAN_POINT('Origin',(0.,9.25000000000002,4.53119315684521E-15));
#1381=CARTESIAN_POINT('Origin',(0.,8.75000000000002,4.28626379701574E-15));
#1382=CARTESIAN_POINT('',(6.98048675513991E-15,17.3000000000001,-57.));
#1383=CARTESIAN_POINT('',(6.98048675513991E-15,8.75000000000005,-57.));
#1384=CARTESIAN_POINT('',(52.4677655463784,17.3,-22.2740561768679));
#1385=CARTESIAN_POINT('Origin',(0.,17.3,8.47455585009968E-15));
#1386=CARTESIAN_POINT('',(52.4677655463784,17.,-22.2740561768679));
#1387=CARTESIAN_POINT('',(52.4677655463784,8.75000000000003,-22.2740561768679));
#1388=CARTESIAN_POINT('',(52.8504489787435,17.,-21.3501766443566));
#1389=CARTESIAN_POINT('Origin',(0.,17.,8.327598234202E-15));
#1390=CARTESIAN_POINT('',(52.8504489787435,17.3,-21.3501766443566));
#1391=CARTESIAN_POINT('',(52.8504489787435,8.75000000000003,-21.3501766443566));
#1392=CARTESIAN_POINT('',(-52.4677655463784,17.3,22.2740561768679));
#1393=CARTESIAN_POINT('Origin',(0.,17.3,8.47455585009968E-15));
#1394=CARTESIAN_POINT('',(-52.4677655463784,17.,22.2740561768679));
#1395=CARTESIAN_POINT('',(-52.4677655463784,8.75000000000001,22.2740561768679));
#1396=CARTESIAN_POINT('',(-52.8504489787435,17.,21.3501766443567));
#1397=CARTESIAN_POINT('Origin',(0.,17.,8.327598234202E-15));
#1398=CARTESIAN_POINT('',(-52.8504489787435,17.3,21.3501766443567));
#1399=CARTESIAN_POINT('',(-52.8504489787435,8.75000000000001,21.3501766443567));
#1400=CARTESIAN_POINT('Origin',(0.,17.3,8.47455585009968E-15));
#1401=CARTESIAN_POINT('Origin',(-54.6771371460357,17.5,22.1068156574755));
#1402=CARTESIAN_POINT('',(-38.2985726944853,17.,15.3225921294415));
#1403=CARTESIAN_POINT('',(-30.8872391838701,17.,12.2527172740745));
#1404=CARTESIAN_POINT('',(-38.2985726944853,17.3,15.3225921294415));
#1405=CARTESIAN_POINT('',(-38.2985726944853,16.6927394395973,15.3225921294415));
#1406=CARTESIAN_POINT('',(-38.483362110961,17.5,15.3991344119288));
#1407=CARTESIAN_POINT('Ctrl Pts',(-38.483362110961,17.5,15.3991344119288));
#1408=CARTESIAN_POINT('Ctrl Pts',(-38.4605564890523,17.5,15.3896880140358));
#1409=CARTESIAN_POINT('Ctrl Pts',(-38.4337155130861,17.494221524602,15.3785701177633));
#1410=CARTESIAN_POINT('Ctrl Pts',(-38.3915766079795,17.4753300932131,15.3611156117646));
#1411=CARTESIAN_POINT('Ctrl Pts',(-38.3688222800341,17.4588747396127,15.3516904605269));
#1412=CARTESIAN_POINT('Ctrl Pts',(-38.3365704013919,17.4239681150457,15.3383312949813));
#1413=CARTESIAN_POINT('Ctrl Pts',(-38.3213661113032,17.3993404015992,15.3320334718203));
#1414=CARTESIAN_POINT('Ctrl Pts',(-38.3039116167044,17.3537324913215,15.3248035834331));
#1415=CARTESIAN_POINT('Ctrl Pts',(-38.2985726944853,17.3246825886631,15.3225921294415));
#1416=CARTESIAN_POINT('Ctrl Pts',(-38.2985726944853,17.3,15.3225921294415));
#1417=CARTESIAN_POINT('',(-52.6656659378435,17.5,21.2736370027193));
#1418=CARTESIAN_POINT('',(-37.5105110630174,17.5,14.9961663137017));
#1419=CARTESIAN_POINT('Ctrl Pts',(-52.8504489787435,17.3,21.3501766443567));
#1420=CARTESIAN_POINT('Ctrl Pts',(-52.8504489787435,17.3246824058932,21.3501766443567));
#1421=CARTESIAN_POINT('Ctrl Pts',(-52.8451103258824,17.3537321429265,21.3479653019368));
#1422=CARTESIAN_POINT('Ctrl Pts',(-52.8276567235253,17.3993395803726,21.3407357831282));
#1423=CARTESIAN_POINT('Ctrl Pts',(-52.8124533390124,17.4239670486985,21.334438335069));
#1424=CARTESIAN_POINT('Ctrl Pts',(-52.7802028261273,17.4588739357556,21.3210797352385));
#1425=CARTESIAN_POINT('Ctrl Pts',(-52.7574490622301,17.4753296932035,21.3116548176372));
#1426=CARTESIAN_POINT('Ctrl Pts',(-52.7153111692105,17.4942214351025,21.2942007308587));
#1427=CARTESIAN_POINT('Ctrl Pts',(-52.6884709525757,17.5,21.2830831491115));
#1428=CARTESIAN_POINT('Ctrl Pts',(-52.6656659378435,17.5,21.2736370027194));
#1429=CARTESIAN_POINT('Origin',(-30.504555751505,17.5,13.1765968065858));
#1430=CARTESIAN_POINT('',(-52.2829825054784,17.5,22.1975165352306));
#1431=CARTESIAN_POINT('Ctrl Pts',(-52.2829825054784,17.5,22.1975165352306));
#1432=CARTESIAN_POINT('Ctrl Pts',(-52.3057872975867,17.5,22.206962589409));
#1433=CARTESIAN_POINT('Ctrl Pts',(-52.3326272623235,17.4942215465717,22.2180800668166));
#1434=CARTESIAN_POINT('Ctrl Pts',(-52.3747648101543,17.4753301619744,22.2355340106132));
#1435=CARTESIAN_POINT('Ctrl Pts',(-52.3975184383746,17.4588747051934,22.2449588720153));
#1436=CARTESIAN_POINT('Ctrl Pts',(-52.4297691957564,17.423968082768,22.2583175731196));
#1437=CARTESIAN_POINT('Ctrl Pts',(-52.4449728580646,17.3993404675863,22.2646151362454));
#1438=CARTESIAN_POINT('Ctrl Pts',(-52.4624267905316,17.353732656517,22.27184479179));
#1439=CARTESIAN_POINT('Ctrl Pts',(-52.4677655463784,17.3246826468474,22.274056176868));
#1440=CARTESIAN_POINT('Ctrl Pts',(-52.4677655463784,17.3,22.274056176868));
#1441=CARTESIAN_POINT('',(-38.1006786785959,17.5,16.32301394444));
#1442=CARTESIAN_POINT('',(-25.2328786495695,17.5,10.9929966545124));
#1443=CARTESIAN_POINT('',(-37.9158892621202,17.3,16.2464716619528));
#1444=CARTESIAN_POINT('Ctrl Pts',(-37.9158892621202,17.3,16.2464716619528));
#1445=CARTESIAN_POINT('Ctrl Pts',(-37.9158892621202,17.3246821323933,16.2464716619528));
#1446=CARTESIAN_POINT('Ctrl Pts',(-37.9212279893202,17.3537315187904,16.2486830351649));
#1447=CARTESIAN_POINT('Ctrl Pts',(-37.9386818588044,17.3993387215664,16.2559126646211));
#1448=CARTESIAN_POINT('Ctrl Pts',(-37.953885622836,17.4239661569206,16.2622102698821));
#1449=CARTESIAN_POINT('Ctrl Pts',(-37.9861370384827,17.4588732825967,16.2755692436487));
#1450=CARTESIAN_POINT('Ctrl Pts',(-38.0088916233512,17.4753292055375,16.2849945013074));
#1451=CARTESIAN_POINT('Ctrl Pts',(-38.051031182126,17.4942213135211,16.3024492780643));
#1452=CARTESIAN_POINT('Ctrl Pts',(-38.0778726351084,17.5,16.3135673719234));
#1453=CARTESIAN_POINT('Ctrl Pts',(-38.1006786785959,17.5,16.3230139444401));
#1454=CARTESIAN_POINT('',(-37.9158892621202,17.,16.2464716619528));
#1455=CARTESIAN_POINT('',(-37.9158892621202,16.6927394395973,16.2464716619528));
#1456=CARTESIAN_POINT('',(-54.2944537136706,17.,23.0306951899868));
#1457=CARTESIAN_POINT('Origin',(-42.5908464487703,17.,17.6417062320307));
#1458=CARTESIAN_POINT('Origin',(0.,17.,8.327598234202E-15));
#1459=CARTESIAN_POINT('Origin',(42.5908464487703,17.,-17.6417062320306));
#1460=CARTESIAN_POINT('',(37.9158892621202,17.,-16.2464716619528));
#1461=CARTESIAN_POINT('',(54.2944537136706,17.,-23.0306951899868));
#1462=CARTESIAN_POINT('',(38.2985726944853,17.,-15.3225921294415));
#1463=CARTESIAN_POINT('Origin',(0.,17.,8.327598234202E-15));
#1464=CARTESIAN_POINT('',(30.8872391838701,17.,-12.2527172740745));
#1465=CARTESIAN_POINT('Origin',(54.6771371460357,17.5,-22.1068156574755));
#1466=CARTESIAN_POINT('',(38.2985726944853,17.3,-15.3225921294415));
#1467=CARTESIAN_POINT('',(38.2985726944853,16.6927394395973,-15.3225921294415));
#1468=CARTESIAN_POINT('',(38.483362110961,17.5,-15.3991344119287));
#1469=CARTESIAN_POINT('Ctrl Pts',(38.483362110961,17.5,-15.3991344119287));
#1470=CARTESIAN_POINT('Ctrl Pts',(38.4605560674735,17.5,-15.3896878394121));
#1471=CARTESIAN_POINT('Ctrl Pts',(38.4337146144911,17.4942213135211,-15.378569745553));
#1472=CARTESIAN_POINT('Ctrl Pts',(38.3915750557163,17.4753292055375,-15.3611149687961));
#1473=CARTESIAN_POINT('Ctrl Pts',(38.3688204708478,17.4588732825967,-15.3516897111374));
#1474=CARTESIAN_POINT('Ctrl Pts',(38.336569055201,17.4239661569206,-15.3383307373708));
#1475=CARTESIAN_POINT('Ctrl Pts',(38.3213652911695,17.3993387215664,-15.3320331321098));
#1476=CARTESIAN_POINT('Ctrl Pts',(38.3039114216853,17.3537315187904,-15.3248035026535));
#1477=CARTESIAN_POINT('Ctrl Pts',(38.2985726944853,17.3246821323933,-15.3225921294415));
#1478=CARTESIAN_POINT('Ctrl Pts',(38.2985726944853,17.3,-15.3225921294415));
#1479=CARTESIAN_POINT('',(52.6656659378435,17.5,-21.2736370027193));
#1480=CARTESIAN_POINT('',(17.3579677992008,17.5,-6.64870957751823));
#1481=CARTESIAN_POINT('Ctrl Pts',(52.8504489787435,17.3,-21.3501766443566));
#1482=CARTESIAN_POINT('Ctrl Pts',(52.8504489787435,17.3246826468474,-21.3501766443566));
#1483=CARTESIAN_POINT('Ctrl Pts',(52.8451102228967,17.3537326565171,-21.3479652592787));
#1484=CARTESIAN_POINT('Ctrl Pts',(52.8276562904296,17.3993404675863,-21.3407356037341));
#1485=CARTESIAN_POINT('Ctrl Pts',(52.8124526281214,17.4239680827681,-21.3344380406083));
#1486=CARTESIAN_POINT('Ctrl Pts',(52.7802018707397,17.4588747051935,-21.321079339504));
#1487=CARTESIAN_POINT('Ctrl Pts',(52.7574482425193,17.4753301619744,-21.3116544781019));
#1488=CARTESIAN_POINT('Ctrl Pts',(52.7153106946886,17.4942215465717,-21.2942005343053));
#1489=CARTESIAN_POINT('Ctrl Pts',(52.6884707299518,17.5,-21.2830830568977));
#1490=CARTESIAN_POINT('Ctrl Pts',(52.6656659378435,17.5,-21.2736370027193));
#1491=CARTESIAN_POINT('Origin',(30.504555751505,17.5,-13.1765968065857));
#1492=CARTESIAN_POINT('',(52.2829825054784,17.5,-22.1975165352306));
#1493=CARTESIAN_POINT('Ctrl Pts',(52.2829825054784,17.5,-22.1975165352306));
#1494=CARTESIAN_POINT('Ctrl Pts',(52.3057875202106,17.5,-22.2069626816228));
#1495=CARTESIAN_POINT('Ctrl Pts',(52.3326277368454,17.4942214351025,-22.21808026337));
#1496=CARTESIAN_POINT('Ctrl Pts',(52.374765629865,17.4753296932035,-22.2355343501485));
#1497=CARTESIAN_POINT('Ctrl Pts',(52.3975193937622,17.4588739357557,-22.2449592677498));
#1498=CARTESIAN_POINT('Ctrl Pts',(52.4297699066474,17.4239670486985,-22.2583178675803));
#1499=CARTESIAN_POINT('Ctrl Pts',(52.4449732911602,17.3993395803727,-22.2646153156395));
#1500=CARTESIAN_POINT('Ctrl Pts',(52.4624268935173,17.3537321429265,-22.271844834448));
#1501=CARTESIAN_POINT('Ctrl Pts',(52.4677655463784,17.3246824058932,-22.2740561768679));
#1502=CARTESIAN_POINT('Ctrl Pts',(52.4677655463784,17.3,-22.2740561768679));
#1503=CARTESIAN_POINT('',(38.1006786785959,17.5,-16.32301394444));
#1504=CARTESIAN_POINT('',(5.0803353857529,17.5,-2.64553991832898));
#1505=CARTESIAN_POINT('',(37.9158892621202,17.3,-16.2464716619528));
#1506=CARTESIAN_POINT('Ctrl Pts',(37.9158892621202,17.3,-16.2464716619528));
#1507=CARTESIAN_POINT('Ctrl Pts',(37.9158892621202,17.3246821323933,-16.2464716619528));
#1508=CARTESIAN_POINT('Ctrl Pts',(37.9212279893202,17.3537315187904,-16.2486830351648));
#1509=CARTESIAN_POINT('Ctrl Pts',(37.9386818588044,17.3993387215664,-16.2559126646211));
#1510=CARTESIAN_POINT('Ctrl Pts',(37.953885622836,17.4239661569206,-16.2622102698821));
#1511=CARTESIAN_POINT('Ctrl Pts',(37.9861370384827,17.4588732825967,-16.2755692436487));
#1512=CARTESIAN_POINT('Ctrl Pts',(38.0088916233512,17.4753292055375,-16.2849945013074));
#1513=CARTESIAN_POINT('Ctrl Pts',(38.051031182126,17.4942213135211,-16.3024492780643));
#1514=CARTESIAN_POINT('Ctrl Pts',(38.0778726351084,17.5,-16.3135673719234));
#1515=CARTESIAN_POINT('Ctrl Pts',(38.1006786785959,17.5,-16.32301394444));
#1516=CARTESIAN_POINT('',(37.9158892621202,16.6927394395973,-16.2464716619528));
#1517=CARTESIAN_POINT('Origin',(0.,17.3,8.47455585009968E-15));
#1518=CARTESIAN_POINT('Origin',(0.,17.5,8.57252759403147E-15));
#1519=CARTESIAN_POINT('Origin',(0.,17.3,8.47455585009968E-15));
#1520=CARTESIAN_POINT('Origin',(0.,17.5,8.57252759403147E-15));
#1521=CARTESIAN_POINT('Origin',(0.,17.5,57.));
#1522=CARTESIAN_POINT('Origin',(0.,17.5,8.57252759403147E-15));
#1523=CARTESIAN_POINT('',(32.5976226126999,17.5,36.9976226126998));
#1524=CARTESIAN_POINT('Origin',(32.5976226126999,17.5,32.5976226126998));
#1525=CARTESIAN_POINT('',(-32.5976226126998,17.5,36.9976226126999));
#1526=CARTESIAN_POINT('Origin',(-32.5976226126998,17.5,32.5976226126999));
#1527=CARTESIAN_POINT('',(46.1,17.5,4.4));
#1528=CARTESIAN_POINT('Origin',(46.1,17.5,-3.74798217622259E-15));
#1529=CARTESIAN_POINT('',(7.74800142703022E-15,17.5,50.5));
#1530=CARTESIAN_POINT('Origin',(8.28684601865506E-15,17.5,46.1));
#1531=CARTESIAN_POINT('Origin',(0.,17.5,57.));
#1532=CARTESIAN_POINT('Origin',(0.,17.5,8.57252759403147E-15));
#1533=CARTESIAN_POINT('',(-46.1,17.5,4.40000000000001));
#1534=CARTESIAN_POINT('Origin',(-46.1,17.5,8.57252759403149E-15));
#1535=CARTESIAN_POINT('',(-3.62561005125924E-15,17.5,-50.3));
#1536=CARTESIAN_POINT('Origin',(-3.94392566408622E-15,17.5,-46.1));
#1537=CARTESIAN_POINT('',(-35.5674710936833,17.5,-35.5674710936833));
#1538=CARTESIAN_POINT('Origin',(-32.5976226126998,17.5,-32.5976226126998));
#1539=CARTESIAN_POINT('',(32.5976226126998,17.5,-28.1976226126999));
#1540=CARTESIAN_POINT('Origin',(32.5976226126998,17.5,-32.5976226126999));
#1541=CARTESIAN_POINT('Origin',(0.,16.6927394395973,8.17708396948143E-15));
#1542=CARTESIAN_POINT('',(1.26291701162071E-14,16.171108480543,41.25));
#1543=CARTESIAN_POINT('',(5.05166804648283E-15,16.171108480543,-41.25));
#1544=CARTESIAN_POINT('Origin',(0.,16.171108480543,7.92155849574463E-15));
#1545=CARTESIAN_POINT('Origin',(0.,16.171108480543,7.92155849574463E-15));
#1546=CARTESIAN_POINT('',(5.05166804648283E-15,17.3,-41.25));
#1547=CARTESIAN_POINT('',(5.05166804648283E-15,16.6927394395973,-41.25));
#1548=CARTESIAN_POINT('Origin',(0.,17.3,8.47455585009968E-15));
#1549=CARTESIAN_POINT('Origin',(0.,17.3,8.47455585009968E-15));
#1550=CARTESIAN_POINT('Origin',(0.,17.3,8.47455585009968E-15));
#1551=CARTESIAN_POINT('Origin',(0.,17.3,8.47455585009968E-15));
#1552=CARTESIAN_POINT('Origin',(0.,17.3,8.47455585009968E-15));
#1553=CARTESIAN_POINT('Origin',(-32.5976226126998,0.200000000000014,32.5976226126998));
#1554=CARTESIAN_POINT('',(-32.5976226126998,-1.03867345744203E-15,28.1976226126998));
#1555=CARTESIAN_POINT('Origin',(-32.5976226126998,-3.19189119579733E-15,
32.5976226126998));
#1556=CARTESIAN_POINT('',(-32.5976226126998,0.200000000000016,28.3976226126998));
#1557=CARTESIAN_POINT('Origin',(-32.5976226126998,0.200000000000016,28.1976226126998));
#1558=CARTESIAN_POINT('',(-35.5674710936833,0.200000000000014,35.5674710936833));
#1559=CARTESIAN_POINT('Origin',(-32.5976226126998,0.200000000000014,32.5976226126998));
#1560=CARTESIAN_POINT('Origin',(-32.5976226126998,0.200000000000014,32.5976226126998));
#1561=CARTESIAN_POINT('Origin',(0.,-2.06219057424985E-15,30.25));
#1562=CARTESIAN_POINT('',(1.73899845478924E-14,-1.50564104934385E-14,56.8));
#1563=CARTESIAN_POINT('Origin',(0.,1.27675647831893E-14,5.02282529496191E-30));
#1564=CARTESIAN_POINT('',(-46.1,1.49207825215446E-14,-4.4));
#1565=CARTESIAN_POINT('Origin',(-46.1,1.27675647831893E-14,1.72871471808198E-29));
#1566=CARTESIAN_POINT('',(46.1,1.49207825215446E-14,-4.4));
#1567=CARTESIAN_POINT('Origin',(46.1,1.27675647831893E-14,4.43265844208168E-15));
#1568=CARTESIAN_POINT('',(2.46398776194832E-16,-7.66315650752939E-15,41.7));
#1569=CARTESIAN_POINT('Origin',(-8.97380875128124E-17,-9.81853487402873E-15,
46.1));
#1570=CARTESIAN_POINT('',(3.70455656742074E-15,2.77555756156289E-14,-30.25));
#1571=CARTESIAN_POINT('Origin',(0.,1.22124532708767E-14,3.94430452610506E-30));
#1572=CARTESIAN_POINT('',(4.94691754277221E-15,0.,-50.3));
#1573=CARTESIAN_POINT('Origin',(3.82278479008696E-15,-1.94289029309402E-15,
-46.1));
#1574=CARTESIAN_POINT('',(-35.5674710936833,0.,-35.5674710936834));
#1575=CARTESIAN_POINT('Origin',(-32.5976226126998,8.32667268468867E-15,
-32.5976226126999));
#1576=CARTESIAN_POINT('',(32.5976226126998,-1.03867345744204E-15,28.1976226126999));
#1577=CARTESIAN_POINT('Origin',(32.5976226126998,-3.19189119579733E-15,
32.5976226126999));
#1578=CARTESIAN_POINT('',(32.5976226126999,3.08802385005312E-14,-36.9976226126998));
#1579=CARTESIAN_POINT('Origin',(32.5976226126999,2.87270207621759E-14,-32.5976226126998));
#1580=CARTESIAN_POINT('Origin',(-32.5976226126999,-144.667351831372,32.5976226126998));
#1581=CARTESIAN_POINT('',(-35.5674710936833,17.3,35.5674710936834));
#1582=CARTESIAN_POINT('',(-32.5976226126998,17.3,36.7976226126999));
#1583=CARTESIAN_POINT('Origin',(-32.5976226126998,17.3,32.5976226126999));
#1584=CARTESIAN_POINT('',(-35.5674710936834,-144.667351831372,35.5674710936833));
#1585=CARTESIAN_POINT('Origin',(-32.5976226126998,17.3,32.5976226126999));
#1586=CARTESIAN_POINT('Origin',(-46.1,0.200000000000014,9.79717439318058E-17));
#1587=CARTESIAN_POINT('',(-46.1,0.200000000000016,-4.2));
#1588=CARTESIAN_POINT('Origin',(-46.1,0.200000000000016,-4.4));
#1589=CARTESIAN_POINT('',(-50.3,0.200000000000014,6.12323399573692E-16));
#1590=CARTESIAN_POINT('Origin',(-46.1,0.200000000000014,9.79717439318058E-17));
#1591=CARTESIAN_POINT('Origin',(-46.1,0.200000000000014,9.79717439318058E-17));
#1592=CARTESIAN_POINT('Origin',(-46.1,-144.667351831372,-7.08665637445654E-14));
#1593=CARTESIAN_POINT('',(-50.3,17.3,8.98890750574159E-15));
#1594=CARTESIAN_POINT('',(-46.1,17.3,4.20000000000001));
#1595=CARTESIAN_POINT('Origin',(-46.1,17.3,8.4745558500997E-15));
#1596=CARTESIAN_POINT('',(-50.3,-144.667351831372,-7.03522120889235E-14));
#1597=CARTESIAN_POINT('Origin',(-46.1,17.3,8.4745558500997E-15));
#1598=CARTESIAN_POINT('Origin',(32.5976226126999,0.199999999999996,-32.5976226126998));
#1599=CARTESIAN_POINT('',(32.5976226126999,0.199999999999998,-36.7976226126998));
#1600=CARTESIAN_POINT('Origin',(32.5976226126999,0.199999999999998,-36.9976226126998));
#1601=CARTESIAN_POINT('',(35.5674710936834,0.200000000000014,-35.5674710936833));
#1602=CARTESIAN_POINT('Origin',(32.5976226126999,0.199999999999996,-32.5976226126998));
#1603=CARTESIAN_POINT('Origin',(32.5976226126999,0.199999999999996,-32.5976226126998));
#1604=CARTESIAN_POINT('Origin',(32.5976226126999,-144.667351831372,-32.5976226126998));
#1605=CARTESIAN_POINT('',(32.5976226126998,17.2999999999999,-28.3976226126999));
#1606=CARTESIAN_POINT('',(35.5674710936833,17.3,-35.5674710936834));
#1607=CARTESIAN_POINT('Origin',(32.5976226126998,17.3,-32.5976226126999));
#1608=CARTESIAN_POINT('Origin',(32.5976226126998,17.3,-32.5976226126999));
#1609=CARTESIAN_POINT('',(35.5674710936834,-144.667351831372,-35.5674710936833));
#1610=CARTESIAN_POINT('Origin',(46.1,0.199999999999978,4.53063018601345E-15));
#1611=CARTESIAN_POINT('',(46.1,0.19999999999998,-4.2));
#1612=CARTESIAN_POINT('Origin',(46.1,0.19999999999998,-4.4));
#1613=CARTESIAN_POINT('',(50.3,0.199999999999978,4.84894579884043E-15));
#1614=CARTESIAN_POINT('Origin',(46.1,0.199999999999978,4.53063018601345E-15));
#1615=CARTESIAN_POINT('Origin',(46.1,0.199999999999978,4.53063018601345E-15));
#1616=CARTESIAN_POINT('Origin',(46.1,-144.667351831372,7.54951656745106E-14));
#1617=CARTESIAN_POINT('',(46.1,17.2999999999999,4.2));
#1618=CARTESIAN_POINT('',(50.3,17.3,-3.52763830732744E-15));
#1619=CARTESIAN_POINT('Origin',(46.1,17.3,-3.84595392015442E-15));
#1620=CARTESIAN_POINT('Origin',(46.1,17.3,-3.84595392015442E-15));
#1621=CARTESIAN_POINT('',(50.3,-144.667351831372,7.58134812873376E-14));
#1622=CARTESIAN_POINT('Origin',(32.5976226126998,0.199999999999978,32.5976226126999));
#1623=CARTESIAN_POINT('',(32.5976226126998,0.19999999999998,28.3976226126999));
#1624=CARTESIAN_POINT('Origin',(32.5976226126998,0.19999999999998,28.1976226126999));
#1625=CARTESIAN_POINT('',(35.5674710936833,0.199999999999978,35.5674710936834));
#1626=CARTESIAN_POINT('Origin',(32.5976226126998,0.199999999999978,32.5976226126999));
#1627=CARTESIAN_POINT('Origin',(32.5976226126998,0.199999999999978,32.5976226126999));
#1628=CARTESIAN_POINT('Origin',(32.5976226126998,-144.667351831372,32.5976226126999));
#1629=CARTESIAN_POINT('',(32.5976226126999,17.3,36.7976226126998));
#1630=CARTESIAN_POINT('',(35.5674710936834,17.3,35.5674710936833));
#1631=CARTESIAN_POINT('Origin',(32.5976226126999,17.3,32.5976226126998));
#1632=CARTESIAN_POINT('Origin',(32.5976226126999,17.3,32.5976226126998));
#1633=CARTESIAN_POINT('',(35.5674710936833,-144.667351831372,35.5674710936834));
#1634=CARTESIAN_POINT('Origin',(-8.97380875128124E-17,0.199999999999996,
46.1));
#1635=CARTESIAN_POINT('',(-7.97583483439292E-16,0.199999999999998,41.9));
#1636=CARTESIAN_POINT('Origin',(-6.28582679137648E-16,0.199999999999998,
41.7));
#1637=CARTESIAN_POINT('',(4.24613568129081E-16,0.200000000000014,50.3));
#1638=CARTESIAN_POINT('Origin',(-8.97380875128124E-17,0.199999999999996,
46.1));
#1639=CARTESIAN_POINT('Origin',(-8.97380875128124E-17,0.199999999999996,
46.1));
#1640=CARTESIAN_POINT('Origin',(-7.105427357601E-14,-144.667351831372,46.1));
#1641=CARTESIAN_POINT('',(8.80119767429695E-15,17.3,50.3));
#1642=CARTESIAN_POINT('Origin',(8.28684601865506E-15,17.3,46.1));
#1643=CARTESIAN_POINT('',(-7.05399219203681E-14,-144.667351831372,50.3));
#1644=CARTESIAN_POINT('Origin',(8.28684601865506E-15,17.3,46.1));
#1645=CARTESIAN_POINT('Origin',(7.74800142703022E-15,17.3,50.5));
#1646=CARTESIAN_POINT('Origin',(32.5976226126999,17.3,32.5976226126998));
#1647=CARTESIAN_POINT('Origin',(32.5976226126999,17.3,36.9976226126998));
#1648=CARTESIAN_POINT('Origin',(46.1,17.3,-3.84595392015442E-15));
#1649=CARTESIAN_POINT('Origin',(46.1,17.2999999999999,4.4));
#1650=CARTESIAN_POINT('Origin',(32.5976226126998,17.3,-32.5976226126999));
#1651=CARTESIAN_POINT('Origin',(32.5976226126998,17.2999999999999,-28.1976226126999));
#1652=CARTESIAN_POINT('Origin',(-46.1,17.3,8.4745558500997E-15));
#1653=CARTESIAN_POINT('Origin',(-46.1,17.3,4.40000000000001));
#1654=CARTESIAN_POINT('Origin',(-32.5976226126998,17.3,32.5976226126999));
#1655=CARTESIAN_POINT('Origin',(-32.5976226126998,17.3,36.9976226126999));
#1656=CARTESIAN_POINT('Origin',(0.,0.200000000000012,9.7971743931793E-17));
#1657=CARTESIAN_POINT('',(3.49024337756996E-15,0.199999999999984,57.));
#1658=CARTESIAN_POINT('Origin',(-6.95599381915697E-15,0.199999999999985,
56.8));
#1659=CARTESIAN_POINT('',(6.98048675513991E-15,0.20000000000004,-57.));
#1660=CARTESIAN_POINT('Origin',(0.,0.200000000000012,9.7971743931793E-17));
#1661=CARTESIAN_POINT('Origin',(0.,0.200000000000012,9.7971743931793E-17));
#1662=CARTESIAN_POINT('Origin',(0.,8.75000000000002,4.28626379701574E-15));
#1663=CARTESIAN_POINT('',(6.98048675513991E-15,8.75000000000005,-57.));
#1664=CARTESIAN_POINT('Origin',(0.,15.7,7.69078189864537E-15));
#1665=CARTESIAN_POINT('',(2.35132185436292E-15,15.5,38.4));
#1666=CARTESIAN_POINT('Origin',(0.,15.5,7.59281015471358E-15));
#1667=CARTESIAN_POINT('',(1.1817841611772E-14,15.7,38.6));
#1668=CARTESIAN_POINT('Origin',(-4.70264370872584E-15,15.7,38.4));
#1669=CARTESIAN_POINT('',(4.72713664470878E-15,15.7,-38.6));
#1670=CARTESIAN_POINT('Origin',(0.,15.7,7.69078189864537E-15));
#1671=CARTESIAN_POINT('Origin',(0.,15.7,7.69078189864537E-15));
#1672=CARTESIAN_POINT('Origin',(0.,15.5,38.6));
#1673=CARTESIAN_POINT('',(3.36165546365948E-15,15.5,-27.45));
#1674=CARTESIAN_POINT('Origin',(0.,15.5,7.59281015471358E-15));
#1675=CARTESIAN_POINT('Origin',(0.,16.175,7.92346479048336E-15));
#1676=CARTESIAN_POINT('',(4.72713664470878E-15,16.85,-38.6));
#1677=CARTESIAN_POINT('',(4.72713664470878E-15,16.175,-38.6));
#1678=CARTESIAN_POINT('Origin',(0.,16.85,8.25411942625315E-15));
#1679=CARTESIAN_POINT('Origin',(0.,16.171108480543,7.92155849574463E-15));
#1680=CARTESIAN_POINT('',(2.50939901651226E-15,15.9831699563858,40.9815959713349));
#1681=CARTESIAN_POINT('',(5.01879803302453E-15,15.9831699563858,-40.9815959713349));
#1682=CARTESIAN_POINT('Origin',(6.27349754128066E-15,15.9831699563858,4.44089209850063E-15));
#1683=CARTESIAN_POINT('Origin',(6.27349754128066E-15,15.9831699563858,4.44089209850063E-15));
#1684=CARTESIAN_POINT('Origin',(-5.02717511049988E-15,16.171108480543,41.05));
#1685=CARTESIAN_POINT('Origin',(0.,16.3677394395973,8.01787988559227E-15));
#1686=CARTESIAN_POINT('',(4.88940234559581E-15,16.3677394395973,-39.925));
#1687=CARTESIAN_POINT('Origin',(-32.5976226126998,-144.667351831372,-32.5976226126999));
#1688=CARTESIAN_POINT('',(-35.5674710936833,-144.667351831372,-35.5674710936834));
#1689=CARTESIAN_POINT('Origin',(7.54951656745106E-14,-144.667351831372,
-46.1));
#1690=CARTESIAN_POINT('',(7.58134812873376E-14,-144.667351831372,-50.3));
#1691=CARTESIAN_POINT('Origin',(0.,4.,1.95943487863576E-15));
#1692=CARTESIAN_POINT('',(3.70455656742074E-15,8.00000000000001,-30.25));
#1693=CARTESIAN_POINT('',(3.70455656742074E-15,4.00000000000002,-30.25));
#1694=CARTESIAN_POINT('Origin',(0.,7.99999999999999,3.91886975727152E-15));
#1695=CARTESIAN_POINT('Origin',(0.,7.99999999999998,27.45));
#1696=CARTESIAN_POINT('',(3.36165546365948E-15,8.,-27.45));
#1697=CARTESIAN_POINT('Origin',(0.,7.99999999999999,3.91886975727152E-15));
#1698=CARTESIAN_POINT('Origin',(0.,11.75,5.75583995599255E-15));
#1699=CARTESIAN_POINT('',(3.36165546365948E-15,11.75,-27.45));
#1700=CARTESIAN_POINT('polyline point',(0.,0.,0.));
#1701=CARTESIAN_POINT('polyline point',(0.,-3.8857805861898E-15,57.));
#1702=CARTESIAN_POINT('polyline point',(0.,-3.8857805861898E-15,57.));
#1703=CARTESIAN_POINT('polyline point',(0.,17.5,57.));
#1704=CARTESIAN_POINT('polyline point',(0.,17.5,57.));
#1705=CARTESIAN_POINT('polyline point',(0.,17.5,41.25));
#1706=CARTESIAN_POINT('polyline point',(0.,17.5,41.25));
#1707=CARTESIAN_POINT('polyline point',(0.,15.8854788791946,41.25));
#1708=CARTESIAN_POINT('polyline point',(0.,15.8854788791946,41.25));
#1709=CARTESIAN_POINT('polyline point',(0.,16.85,38.6));
#1710=CARTESIAN_POINT('polyline point',(0.,16.85,38.6));
#1711=CARTESIAN_POINT('polyline point',(0.,15.5,38.6));
#1712=CARTESIAN_POINT('polyline point',(0.,15.5,38.6));
#1713=CARTESIAN_POINT('polyline point',(0.,15.5,7.59281015471358E-15));
#1714=CARTESIAN_POINT('polyline point',(0.,15.5,7.59281015471358E-15));
#1715=CARTESIAN_POINT('polyline point',(0.,0.,0.));
#1716=CARTESIAN_POINT('polyline point',(0.,9.25,57.));
#1717=CARTESIAN_POINT('polyline point',(0.,8.24999999999999,57.));
#1718=CARTESIAN_POINT('polyline point',(0.,8.24999999999999,57.));
#1719=CARTESIAN_POINT('polyline point',(0.,8.24999999999999,56.5));
#1720=CARTESIAN_POINT('polyline point',(0.,8.24999999999999,56.5));
#1721=CARTESIAN_POINT('polyline point',(0.,9.24999999999999,56.5));
#1722=CARTESIAN_POINT('polyline point',(0.,9.24999999999999,56.5));
#1723=CARTESIAN_POINT('polyline point',(0.,9.25,57.));
#1724=CARTESIAN_POINT('polyline point',(0.,15.5,27.45));
#1725=CARTESIAN_POINT('polyline point',(0.,7.99999999999998,27.45));
#1726=CARTESIAN_POINT('polyline point',(0.,7.99999999999998,27.45));
#1727=CARTESIAN_POINT('polyline point',(0.,7.99999999999998,30.25));
#1728=CARTESIAN_POINT('polyline point',(0.,7.99999999999998,30.25));
#1729=CARTESIAN_POINT('polyline point',(0.,-2.22044604925031E-15,30.25));
#1730=CARTESIAN_POINT('',(0.,9.25,57.));
#1731=CARTESIAN_POINT('',(0.,8.24999999999999,57.));
#1732=CARTESIAN_POINT('',(0.,27.3,178.));
#1733=CARTESIAN_POINT('',(0.,1.11022302462516E-15,8.));
#1734=CARTESIAN_POINT('',(0.,9.69999999999999,2.54));
#1735=UNCERTAINTY_MEASURE_WITH_UNIT(LENGTH_MEASURE(0.01),#1739,
'DISTANCE_ACCURACY_VALUE',
'Maximum model space distance between geometric entities at asserted c
onnectivities');
#1736=UNCERTAINTY_MEASURE_WITH_UNIT(LENGTH_MEASURE(0.01),#1739,
'DISTANCE_ACCURACY_VALUE',
'Maximum model space distance between geometric entities at asserted c
onnectivities');
#1737=(
GEOMETRIC_REPRESENTATION_CONTEXT(3)
GLOBAL_UNCERTAINTY_ASSIGNED_CONTEXT((#1735))
GLOBAL_UNIT_ASSIGNED_CONTEXT((#1739,#1741,#1742))
REPRESENTATION_CONTEXT('','3D')
);
#1738=(
GEOMETRIC_REPRESENTATION_CONTEXT(3)
GLOBAL_UNCERTAINTY_ASSIGNED_CONTEXT((#1736))
GLOBAL_UNIT_ASSIGNED_CONTEXT((#1739,#1741,#1742))
REPRESENTATION_CONTEXT('','3D')
);
#1739=(
LENGTH_UNIT()
NAMED_UNIT(*)
SI_UNIT(.MILLI.,.METRE.)
);
#1740=(
LENGTH_UNIT()
NAMED_UNIT(*)
SI_UNIT(.CENTI.,.METRE.)
);
#1741=(
NAMED_UNIT(*)
PLANE_ANGLE_UNIT()
SI_UNIT($,.RADIAN.)
);
#1742=(
NAMED_UNIT(*)
SI_UNIT($,.STERADIAN.)
SOLID_ANGLE_UNIT()
);
#1743=SHAPE_DEFINITION_REPRESENTATION(#1744,#1745);
#1744=PRODUCT_DEFINITION_SHAPE('',$,#1747);
#1745=SHAPE_REPRESENTATION('',(#928),#1737);
#1746=PRODUCT_DEFINITION_CONTEXT('part definition',#1751,'design');
#1747=PRODUCT_DEFINITION('ICF114F60.5B',
'331.ICF\X2\30D530E930F330B8\X0\ \X2\7A743042304D\X0\ \X2\304D308A7A74\X0\',
#1748,#1746);
#1748=PRODUCT_DEFINITION_FORMATION('',$,#1753);
#1749=PRODUCT_RELATED_PRODUCT_CATEGORY(
'331.ICF\X2\30D530E930F330B8\X0\ \X2\7A743042304D\X0\ \X2\304D308A7A74\X0\',
'331.ICF\X2\30D530E930F330B8\X0\ \X2\7A743042304D\X0\ \X2\304D308A7A74\X0\',
(#1753));
#1750=APPLICATION_PROTOCOL_DEFINITION('international standard',
'automotive_design',2009,#1751);
#1751=APPLICATION_CONTEXT(
'Core Data for Automotive Mechanical Design Process');
#1752=PRODUCT_CONTEXT('part definition',#1751,'mechanical');
#1753=PRODUCT('ICF114F60.5B','331.ICF\X2\30D530E930F330B8\X0\ \X2\7A743042304D\X0\ 
\X2\304D308A7A74\X0\','\X2\30B330B930E230FB30C630C330AF682A5F0F4F1A793E\X0\',
(#1752));
#1754=PRESENTATION_STYLE_ASSIGNMENT((#1756));
#1755=PRESENTATION_STYLE_ASSIGNMENT((#1757));
#1756=SURFACE_STYLE_USAGE(.BOTH.,#1760);
#1757=SURFACE_STYLE_USAGE(.BOTH.,#1761);
#1758=SURFACE_STYLE_RENDERING_WITH_PROPERTIES($,#1768,(#1759));
#1759=SURFACE_STYLE_TRANSPARENT(0.);
#1760=SURFACE_SIDE_STYLE('',(#1762,#1758));
#1761=SURFACE_SIDE_STYLE('',(#1763));
#1762=SURFACE_STYLE_FILL_AREA(#1764);
#1763=SURFACE_STYLE_FILL_AREA(#1765);
#1764=FILL_AREA_STYLE('',(#1766));
#1765=FILL_AREA_STYLE('',(#1767));
#1766=FILL_AREA_STYLE_COLOUR('',#1768);
#1767=FILL_AREA_STYLE_COLOUR('',#1769);
#1768=COLOUR_RGB('',0.749019607843137,0.749019607843137,0.749019607843137);
#1769=COLOUR_RGB('',0.,0.,0.);
ENDSEC;
END-ISO-10303-21;
