G04 EAGLE Gerber RS-274X export*
G75*
%MOMM*%
%FSLAX34Y34*%
%LPD*%
%INTop Copper*%
%IPPOS*%
%AMOC8*
5,1,8,0,0,1.08239X$1,22.5*%
G01*
G04 Define Apertures*
%ADD10C,1.430000*%
%ADD11C,2.600000*%
%ADD12C,1.348000*%
%ADD13C,0.812800*%
D10*
X360000Y341200D03*
X360000Y458800D03*
X250000Y208800D03*
X250000Y91200D03*
X250000Y408800D03*
X250000Y291200D03*
D11*
X360000Y60500D03*
X360000Y279500D03*
D12*
X500000Y172500D03*
X500000Y197500D03*
X500000Y307500D03*
X500000Y332500D03*
X130000Y332500D03*
X130000Y307500D03*
X130000Y197500D03*
X130000Y172500D03*
D13*
X250952Y405384D02*
X424688Y405384D01*
X497078Y332994D01*
X250952Y405384D02*
X250000Y408800D01*
X497078Y332994D02*
X500000Y332500D01*
X497078Y304038D02*
X386080Y304038D01*
X361950Y279908D01*
X497078Y304038D02*
X500000Y307500D01*
X361950Y279908D02*
X360000Y279500D01*
X236474Y304038D02*
X130302Y304038D01*
X236474Y304038D02*
X246126Y294386D01*
X130302Y304038D02*
X130000Y307500D01*
X246126Y294386D02*
X250000Y291200D01*
X250952Y289560D02*
X250952Y212344D01*
X250000Y208800D01*
X250952Y289560D02*
X250000Y291200D01*
X250952Y86868D02*
X332994Y86868D01*
X357124Y62738D01*
X250952Y86868D02*
X250000Y91200D01*
X357124Y62738D02*
X360000Y60500D01*
X357124Y337820D02*
X135128Y337820D01*
X130302Y332994D01*
X357124Y337820D02*
X360000Y341200D01*
X130302Y332994D02*
X130000Y332500D01*
X231648Y91694D02*
X246126Y91694D01*
X231648Y91694D02*
X130302Y193040D01*
X246126Y91694D02*
X250000Y91200D01*
X130302Y193040D02*
X130000Y197500D01*
X117672Y209828D01*
X117672Y320172D01*
X130000Y332500D01*
M02*
