M48
;GenerationSoftware,Autodesk,EAGLE,9.7.0*%
;CreationDate,2025-01-05T06:07:54Z*%
FMAT,2
ICI,OFF
METRIC,TZ,000.000
T4C0.830
T3C0.840
T2C1.300
T1C3.200
%
G90
M71
T1
X5000Y45000
X5000Y5000
X55000Y5000
X55000Y45000
T2
X36000Y6050
X36000Y27950
T3
X50000Y17250
X50000Y19750
X50000Y30750
X50000Y33250
X13000Y33250
X13000Y30750
X13000Y19750
X13000Y17250
T4
X36000Y34120
X36000Y45880
X25000Y20880
X25000Y9120
X25000Y40880
X25000Y29120
M30