G04 EAGLE Gerber RS-274X export*
G75*
%MOMM*%
%FSLAX34Y34*%
%LPD*%
%IN*%
%IPPOS*%
%AMOC8*
5,1,8,0,0,1.08239X$1,22.5*%
G01*
G04 Define Apertures*
%ADD10C,0.254000*%
D10*
X0Y20000D02*
X76Y18257D01*
X304Y16527D01*
X681Y14824D01*
X1206Y13160D01*
X1874Y11548D01*
X2680Y10000D01*
X3617Y8528D01*
X4679Y7144D01*
X5858Y5858D01*
X7144Y4679D01*
X8528Y3617D01*
X10000Y2680D01*
X11548Y1874D01*
X13160Y1206D01*
X14824Y681D01*
X16527Y304D01*
X18257Y76D01*
X20000Y0D01*
X580000Y0D01*
X581743Y76D01*
X583473Y304D01*
X585176Y681D01*
X586840Y1206D01*
X588452Y1874D01*
X590000Y2680D01*
X591472Y3617D01*
X592856Y4679D01*
X594142Y5858D01*
X595321Y7144D01*
X596383Y8528D01*
X597321Y10000D01*
X598126Y11548D01*
X598794Y13160D01*
X599319Y14824D01*
X599696Y16527D01*
X599924Y18257D01*
X600000Y20000D01*
X600000Y480000D01*
X599924Y481743D01*
X599696Y483473D01*
X599319Y485176D01*
X598794Y486840D01*
X598126Y488452D01*
X597321Y490000D01*
X596383Y491472D01*
X595321Y492856D01*
X594142Y494142D01*
X592856Y495321D01*
X591472Y496383D01*
X590000Y497321D01*
X588452Y498126D01*
X586840Y498794D01*
X585176Y499319D01*
X583473Y499696D01*
X581743Y499924D01*
X580000Y500000D01*
X20000Y500000D01*
X18257Y499924D01*
X16527Y499696D01*
X14824Y499319D01*
X13160Y498794D01*
X11548Y498126D01*
X10000Y497321D01*
X8528Y496383D01*
X7144Y495321D01*
X5858Y494142D01*
X4679Y492856D01*
X3617Y491472D01*
X2680Y490000D01*
X1874Y488452D01*
X1206Y486840D01*
X681Y485176D01*
X304Y483473D01*
X76Y481743D01*
X0Y480000D01*
X0Y20000D01*
M02*
