G04 EAGLE Gerber RS-274X export*
G75*
%MOMM*%
%FSLAX34Y34*%
%LPD*%
%INSilkscreen Top*%
%IPPOS*%
%AMOC8*
5,1,8,0,0,1.08239X$1,22.5*%
G01*
G04 Define Apertures*
%ADD10C,0.127000*%
%ADD11C,0.152400*%
%ADD12C,0.203200*%
G36*
X40000Y288158D02*
X39401Y288204D01*
X38549Y288237D01*
X37446Y288257D01*
X36090Y288263D01*
X13982Y288263D01*
X13982Y291419D01*
X21398Y291419D01*
X22639Y291402D01*
X24081Y291349D01*
X24081Y291419D01*
X23641Y291647D01*
X23234Y291893D01*
X22859Y292157D01*
X22516Y292438D01*
X22206Y292737D01*
X21927Y293054D01*
X21682Y293389D01*
X21468Y293742D01*
X21283Y294114D01*
X21123Y294509D01*
X20988Y294924D01*
X20877Y295362D01*
X20790Y295821D01*
X20729Y296301D01*
X20692Y296804D01*
X20679Y297327D01*
X20689Y297769D01*
X20717Y298196D01*
X20764Y298608D01*
X20831Y299006D01*
X20916Y299388D01*
X21020Y299756D01*
X21142Y300108D01*
X21284Y300446D01*
X21445Y300769D01*
X21624Y301077D01*
X21823Y301370D01*
X22040Y301649D01*
X22277Y301912D01*
X22532Y302161D01*
X22806Y302395D01*
X23099Y302613D01*
X23411Y302818D01*
X23743Y303010D01*
X24094Y303188D01*
X24464Y303354D01*
X24854Y303506D01*
X25264Y303644D01*
X25692Y303770D01*
X26141Y303882D01*
X26608Y303981D01*
X27096Y304067D01*
X27602Y304140D01*
X28128Y304200D01*
X28674Y304246D01*
X29239Y304279D01*
X29823Y304299D01*
X30427Y304305D01*
X31038Y304298D01*
X31629Y304278D01*
X32201Y304244D01*
X32753Y304196D01*
X33286Y304135D01*
X33800Y304060D01*
X34294Y303971D01*
X34769Y303869D01*
X35224Y303753D01*
X35660Y303624D01*
X36077Y303481D01*
X36474Y303324D01*
X36852Y303154D01*
X37211Y302970D01*
X37550Y302772D01*
X37870Y302561D01*
X38170Y302336D01*
X38451Y302097D01*
X38713Y301845D01*
X38955Y301580D01*
X39178Y301300D01*
X39382Y301007D01*
X39566Y300701D01*
X39730Y300380D01*
X39876Y300046D01*
X40002Y299699D01*
X40108Y299338D01*
X40196Y298963D01*
X40263Y298574D01*
X40312Y298172D01*
X40341Y297757D01*
X40351Y297327D01*
X40338Y296800D01*
X40302Y296295D01*
X40241Y295812D01*
X40156Y295353D01*
X40046Y294916D01*
X39912Y294502D01*
X39753Y294111D01*
X39570Y293742D01*
X39361Y293393D01*
X39121Y293061D01*
X38851Y292746D01*
X38551Y292447D01*
X38222Y292165D01*
X37863Y291900D01*
X37474Y291651D01*
X37055Y291419D01*
X37055Y291384D01*
X37741Y291366D01*
X38711Y291314D01*
X39590Y291252D01*
X40000Y291209D01*
X40000Y288158D01*
G37*
%LPC*%
G36*
X30725Y291419D02*
X31628Y291438D01*
X32470Y291494D01*
X33251Y291587D01*
X33971Y291717D01*
X34630Y291885D01*
X35227Y292090D01*
X35764Y292332D01*
X36239Y292611D01*
X36455Y292766D01*
X36656Y292933D01*
X36844Y293111D01*
X37018Y293300D01*
X37178Y293502D01*
X37324Y293715D01*
X37456Y293940D01*
X37574Y294176D01*
X37678Y294424D01*
X37769Y294684D01*
X37845Y294955D01*
X37908Y295238D01*
X37956Y295532D01*
X37991Y295839D01*
X38012Y296156D01*
X38019Y296486D01*
X38012Y296779D01*
X37991Y297061D01*
X37957Y297333D01*
X37909Y297595D01*
X37847Y297847D01*
X37771Y298088D01*
X37682Y298319D01*
X37578Y298539D01*
X37461Y298750D01*
X37331Y298949D01*
X37186Y299139D01*
X37028Y299318D01*
X36856Y299487D01*
X36670Y299645D01*
X36470Y299793D01*
X36257Y299931D01*
X35782Y300180D01*
X35238Y300395D01*
X34626Y300577D01*
X33945Y300727D01*
X33195Y300843D01*
X32376Y300925D01*
X31489Y300975D01*
X30533Y300992D01*
X29573Y300975D01*
X28684Y300926D01*
X27866Y300844D01*
X27118Y300729D01*
X26441Y300581D01*
X25835Y300400D01*
X25299Y300186D01*
X24835Y299940D01*
X24432Y299656D01*
X24251Y299499D01*
X24083Y299332D01*
X23928Y299154D01*
X23788Y298966D01*
X23660Y298768D01*
X23546Y298559D01*
X23445Y298340D01*
X23358Y298111D01*
X23284Y297872D01*
X23224Y297622D01*
X23177Y297362D01*
X23143Y297092D01*
X23123Y296812D01*
X23116Y296521D01*
X23124Y296193D01*
X23145Y295877D01*
X23180Y295572D01*
X23230Y295279D01*
X23294Y294997D01*
X23373Y294726D01*
X23465Y294466D01*
X23572Y294218D01*
X23693Y293981D01*
X23829Y293755D01*
X23978Y293540D01*
X24142Y293337D01*
X24320Y293145D01*
X24512Y292965D01*
X24719Y292795D01*
X24940Y292638D01*
X25176Y292490D01*
X25429Y292352D01*
X25699Y292223D01*
X25985Y292104D01*
X26608Y291895D01*
X27298Y291724D01*
X28054Y291590D01*
X28878Y291495D01*
X29768Y291438D01*
X30725Y291419D01*
G37*
%LPD*%
G36*
X34705Y221525D02*
X34342Y221533D01*
X33990Y221556D01*
X33649Y221593D01*
X33318Y221646D01*
X32998Y221715D01*
X32688Y221798D01*
X32390Y221896D01*
X32102Y222010D01*
X31824Y222138D01*
X31558Y222282D01*
X31302Y222441D01*
X31056Y222615D01*
X30822Y222804D01*
X30598Y223009D01*
X30384Y223228D01*
X30182Y223463D01*
X29990Y223714D01*
X29810Y223984D01*
X29642Y224273D01*
X29485Y224580D01*
X29340Y224905D01*
X29206Y225250D01*
X29083Y225613D01*
X28972Y225994D01*
X28873Y226394D01*
X28785Y226812D01*
X28708Y227249D01*
X28643Y227705D01*
X28590Y228179D01*
X28548Y228672D01*
X28518Y229183D01*
X28499Y229713D01*
X28429Y233973D01*
X27394Y233973D01*
X26836Y233958D01*
X26319Y233912D01*
X25843Y233835D01*
X25409Y233728D01*
X25015Y233590D01*
X24663Y233421D01*
X24351Y233222D01*
X24081Y232991D01*
X23846Y232728D01*
X23643Y232430D01*
X23472Y232097D01*
X23331Y231729D01*
X23222Y231326D01*
X23144Y230888D01*
X23097Y230414D01*
X23081Y229906D01*
X23093Y229394D01*
X23126Y228917D01*
X23182Y228477D01*
X23261Y228074D01*
X23362Y227706D01*
X23486Y227375D01*
X23632Y227079D01*
X23800Y226820D01*
X23993Y226591D01*
X24213Y226386D01*
X24460Y226205D01*
X24734Y226049D01*
X25034Y225916D01*
X25362Y225808D01*
X25716Y225723D01*
X26097Y225663D01*
X25799Y222367D01*
X25179Y222491D01*
X24599Y222662D01*
X24059Y222880D01*
X23559Y223145D01*
X23099Y223456D01*
X22679Y223815D01*
X22299Y224220D01*
X21959Y224672D01*
X21659Y225171D01*
X21399Y225717D01*
X21179Y226310D01*
X20999Y226949D01*
X20859Y227636D01*
X20759Y228369D01*
X20699Y229149D01*
X20679Y229976D01*
X20686Y230416D01*
X20705Y230842D01*
X20737Y231255D01*
X20782Y231654D01*
X20839Y232038D01*
X20910Y232409D01*
X20993Y232766D01*
X21089Y233110D01*
X21198Y233439D01*
X21320Y233755D01*
X21454Y234057D01*
X21601Y234345D01*
X21762Y234619D01*
X21934Y234879D01*
X22120Y235126D01*
X22319Y235358D01*
X22529Y235577D01*
X22751Y235782D01*
X22985Y235972D01*
X23230Y236148D01*
X23486Y236311D01*
X23754Y236459D01*
X24033Y236593D01*
X24324Y236713D01*
X24626Y236819D01*
X24940Y236910D01*
X25265Y236988D01*
X25601Y237051D01*
X25949Y237101D01*
X26308Y237136D01*
X26679Y237157D01*
X27061Y237164D01*
X35231Y237164D01*
X35571Y237170D01*
X35889Y237187D01*
X36186Y237216D01*
X36461Y237256D01*
X36714Y237308D01*
X36946Y237371D01*
X37156Y237446D01*
X37344Y237532D01*
X37510Y237635D01*
X37655Y237758D01*
X37777Y237902D01*
X37876Y238067D01*
X37954Y238253D01*
X38010Y238459D01*
X38043Y238687D01*
X38054Y238935D01*
X38046Y239171D01*
X38023Y239421D01*
X37931Y239969D01*
X39895Y239969D01*
X40018Y239370D01*
X40105Y238764D01*
X40158Y238151D01*
X40175Y237532D01*
X40161Y237109D01*
X40118Y236715D01*
X40046Y236352D01*
X39945Y236018D01*
X39816Y235714D01*
X39658Y235440D01*
X39471Y235196D01*
X39255Y234981D01*
X39008Y234793D01*
X38729Y234626D01*
X38418Y234480D01*
X38074Y234357D01*
X37697Y234255D01*
X37287Y234174D01*
X36845Y234116D01*
X36371Y234078D01*
X36371Y233973D01*
X36894Y233665D01*
X37378Y233344D01*
X37823Y233011D01*
X38227Y232665D01*
X38592Y232307D01*
X38917Y231937D01*
X39202Y231554D01*
X39448Y231159D01*
X39659Y230747D01*
X39843Y230314D01*
X39998Y229859D01*
X40125Y229382D01*
X40224Y228884D01*
X40294Y228363D01*
X40337Y227822D01*
X40351Y227258D01*
X40345Y226907D01*
X40327Y226566D01*
X40256Y225918D01*
X40139Y225315D01*
X39974Y224756D01*
X39762Y224241D01*
X39503Y223771D01*
X39196Y223345D01*
X38843Y222963D01*
X38448Y222626D01*
X38019Y222334D01*
X37554Y222087D01*
X37055Y221885D01*
X36520Y221727D01*
X35950Y221615D01*
X35345Y221548D01*
X34705Y221525D01*
G37*
%LPC*%
G36*
X34758Y224769D02*
X35133Y224782D01*
X35485Y224821D01*
X35816Y224886D01*
X36125Y224977D01*
X36412Y225094D01*
X36678Y225237D01*
X36921Y225406D01*
X37142Y225602D01*
X37339Y225821D01*
X37510Y226062D01*
X37655Y226326D01*
X37773Y226612D01*
X37865Y226920D01*
X37931Y227250D01*
X37971Y227603D01*
X37984Y227977D01*
X37971Y228405D01*
X37935Y228821D01*
X37873Y229225D01*
X37787Y229616D01*
X37676Y229996D01*
X37540Y230364D01*
X37380Y230719D01*
X37195Y231063D01*
X36988Y231392D01*
X36764Y231702D01*
X36521Y231995D01*
X36259Y232270D01*
X35979Y232528D01*
X35681Y232767D01*
X35365Y232989D01*
X35030Y233193D01*
X34684Y233376D01*
X34337Y233534D01*
X33986Y233669D01*
X33634Y233778D01*
X33278Y233864D01*
X32921Y233925D01*
X32561Y233961D01*
X32198Y233973D01*
X30638Y233973D01*
X30708Y230519D01*
X30723Y229980D01*
X30750Y229473D01*
X30788Y229001D01*
X30839Y228562D01*
X30902Y228157D01*
X30977Y227786D01*
X31065Y227448D01*
X31164Y227144D01*
X31276Y226866D01*
X31403Y226604D01*
X31543Y226358D01*
X31698Y226130D01*
X31868Y225918D01*
X32051Y225723D01*
X32249Y225544D01*
X32461Y225382D01*
X32689Y225239D01*
X32933Y225114D01*
X33195Y225008D01*
X33474Y224922D01*
X33769Y224855D01*
X34082Y224807D01*
X34411Y224778D01*
X34758Y224769D01*
G37*
%LPD*%
G36*
X34705Y267400D02*
X34342Y267408D01*
X33990Y267431D01*
X33649Y267468D01*
X33318Y267521D01*
X32998Y267590D01*
X32688Y267673D01*
X32390Y267771D01*
X32102Y267885D01*
X31824Y268013D01*
X31558Y268157D01*
X31302Y268316D01*
X31056Y268490D01*
X30822Y268679D01*
X30598Y268884D01*
X30384Y269103D01*
X30182Y269338D01*
X29990Y269589D01*
X29810Y269859D01*
X29642Y270148D01*
X29485Y270455D01*
X29340Y270780D01*
X29206Y271125D01*
X29083Y271488D01*
X28972Y271869D01*
X28873Y272269D01*
X28785Y272687D01*
X28708Y273124D01*
X28643Y273580D01*
X28590Y274054D01*
X28548Y274547D01*
X28518Y275058D01*
X28499Y275588D01*
X28429Y279848D01*
X27394Y279848D01*
X26836Y279833D01*
X26319Y279787D01*
X25843Y279710D01*
X25409Y279603D01*
X25015Y279465D01*
X24663Y279296D01*
X24351Y279097D01*
X24081Y278866D01*
X23846Y278603D01*
X23643Y278305D01*
X23472Y277972D01*
X23331Y277604D01*
X23222Y277201D01*
X23144Y276763D01*
X23097Y276289D01*
X23081Y275781D01*
X23093Y275269D01*
X23126Y274792D01*
X23182Y274352D01*
X23261Y273949D01*
X23362Y273581D01*
X23486Y273250D01*
X23632Y272954D01*
X23800Y272695D01*
X23993Y272466D01*
X24213Y272261D01*
X24460Y272080D01*
X24734Y271924D01*
X25034Y271791D01*
X25362Y271683D01*
X25716Y271598D01*
X26097Y271538D01*
X25799Y268242D01*
X25179Y268366D01*
X24599Y268537D01*
X24059Y268755D01*
X23559Y269020D01*
X23099Y269331D01*
X22679Y269690D01*
X22299Y270095D01*
X21959Y270547D01*
X21659Y271046D01*
X21399Y271592D01*
X21179Y272185D01*
X20999Y272824D01*
X20859Y273511D01*
X20759Y274244D01*
X20699Y275024D01*
X20679Y275851D01*
X20686Y276291D01*
X20705Y276717D01*
X20737Y277130D01*
X20782Y277529D01*
X20839Y277913D01*
X20910Y278284D01*
X20993Y278641D01*
X21089Y278985D01*
X21198Y279314D01*
X21320Y279630D01*
X21454Y279932D01*
X21601Y280220D01*
X21762Y280494D01*
X21934Y280754D01*
X22120Y281001D01*
X22319Y281233D01*
X22529Y281452D01*
X22751Y281657D01*
X22985Y281847D01*
X23230Y282023D01*
X23486Y282186D01*
X23754Y282334D01*
X24033Y282468D01*
X24324Y282588D01*
X24626Y282694D01*
X24940Y282785D01*
X25265Y282863D01*
X25601Y282926D01*
X25949Y282976D01*
X26308Y283011D01*
X26679Y283032D01*
X27061Y283039D01*
X35231Y283039D01*
X35571Y283045D01*
X35889Y283062D01*
X36186Y283091D01*
X36461Y283131D01*
X36714Y283183D01*
X36946Y283246D01*
X37156Y283321D01*
X37344Y283407D01*
X37510Y283510D01*
X37655Y283633D01*
X37777Y283777D01*
X37876Y283942D01*
X37954Y284128D01*
X38010Y284334D01*
X38043Y284562D01*
X38054Y284810D01*
X38046Y285046D01*
X38023Y285296D01*
X37931Y285844D01*
X39895Y285844D01*
X40018Y285245D01*
X40105Y284639D01*
X40158Y284026D01*
X40175Y283407D01*
X40161Y282984D01*
X40118Y282590D01*
X40046Y282227D01*
X39945Y281893D01*
X39816Y281589D01*
X39658Y281315D01*
X39471Y281071D01*
X39255Y280856D01*
X39008Y280668D01*
X38729Y280501D01*
X38418Y280355D01*
X38074Y280232D01*
X37697Y280130D01*
X37287Y280049D01*
X36845Y279991D01*
X36371Y279953D01*
X36371Y279848D01*
X36894Y279540D01*
X37378Y279219D01*
X37823Y278886D01*
X38227Y278540D01*
X38592Y278182D01*
X38917Y277812D01*
X39202Y277429D01*
X39448Y277034D01*
X39659Y276622D01*
X39843Y276189D01*
X39998Y275734D01*
X40125Y275257D01*
X40224Y274759D01*
X40294Y274238D01*
X40337Y273697D01*
X40351Y273133D01*
X40345Y272782D01*
X40327Y272441D01*
X40256Y271793D01*
X40139Y271190D01*
X39974Y270631D01*
X39762Y270116D01*
X39503Y269646D01*
X39196Y269220D01*
X38843Y268838D01*
X38448Y268501D01*
X38019Y268209D01*
X37554Y267962D01*
X37055Y267760D01*
X36520Y267602D01*
X35950Y267490D01*
X35345Y267423D01*
X34705Y267400D01*
G37*
%LPC*%
G36*
X34758Y270644D02*
X35133Y270657D01*
X35485Y270696D01*
X35816Y270761D01*
X36125Y270852D01*
X36412Y270969D01*
X36678Y271112D01*
X36921Y271281D01*
X37142Y271477D01*
X37339Y271696D01*
X37510Y271937D01*
X37655Y272201D01*
X37773Y272487D01*
X37865Y272795D01*
X37931Y273125D01*
X37971Y273478D01*
X37984Y273852D01*
X37971Y274280D01*
X37935Y274696D01*
X37873Y275100D01*
X37787Y275491D01*
X37676Y275871D01*
X37540Y276239D01*
X37380Y276594D01*
X37195Y276938D01*
X36988Y277267D01*
X36764Y277577D01*
X36521Y277870D01*
X36259Y278145D01*
X35979Y278403D01*
X35681Y278642D01*
X35365Y278864D01*
X35030Y279068D01*
X34684Y279251D01*
X34337Y279409D01*
X33986Y279544D01*
X33634Y279653D01*
X33278Y279739D01*
X32921Y279800D01*
X32561Y279836D01*
X32198Y279848D01*
X30638Y279848D01*
X30708Y276394D01*
X30723Y275855D01*
X30750Y275348D01*
X30788Y274876D01*
X30839Y274437D01*
X30902Y274032D01*
X30977Y273661D01*
X31065Y273323D01*
X31164Y273019D01*
X31276Y272741D01*
X31403Y272479D01*
X31543Y272233D01*
X31698Y272005D01*
X31868Y271793D01*
X32051Y271598D01*
X32249Y271419D01*
X32461Y271257D01*
X32689Y271114D01*
X32933Y270989D01*
X33195Y270883D01*
X33474Y270797D01*
X33769Y270730D01*
X34082Y270682D01*
X34411Y270653D01*
X34758Y270644D01*
G37*
%LPD*%
G36*
X40000Y242388D02*
X13982Y242388D01*
X13982Y245544D01*
X30235Y245544D01*
X21030Y253872D01*
X21030Y257571D01*
X29183Y249875D01*
X40000Y257974D01*
X40000Y254275D01*
X31339Y247858D01*
X33250Y245544D01*
X40000Y245544D01*
X40000Y242388D01*
G37*
G36*
X40000Y260326D02*
X13982Y260326D01*
X13982Y263482D01*
X40000Y263482D01*
X40000Y260326D01*
G37*
G36*
X155838Y465084D02*
X155339Y465097D01*
X154867Y465135D01*
X154420Y465197D01*
X153999Y465285D01*
X153605Y465398D01*
X153236Y465537D01*
X152893Y465700D01*
X152577Y465888D01*
X152287Y466100D01*
X152024Y466332D01*
X151788Y466586D01*
X151579Y466861D01*
X151397Y467157D01*
X151243Y467475D01*
X151115Y467813D01*
X151015Y468173D01*
X153109Y468473D01*
X153169Y468263D01*
X153244Y468065D01*
X153336Y467879D01*
X153443Y467706D01*
X153565Y467545D01*
X153704Y467397D01*
X153858Y467261D01*
X154028Y467137D01*
X154213Y467028D01*
X154412Y466932D01*
X154624Y466852D01*
X154851Y466786D01*
X155091Y466735D01*
X155346Y466698D01*
X155614Y466676D01*
X155896Y466669D01*
X156273Y466683D01*
X156292Y466686D01*
X156625Y466726D01*
X156953Y466797D01*
X157257Y466897D01*
X157537Y467025D01*
X157792Y467181D01*
X158023Y467366D01*
X158230Y467580D01*
X158412Y467822D01*
X158570Y468092D01*
X158704Y468391D01*
X158813Y468718D01*
X158898Y469074D01*
X158959Y469458D01*
X158995Y469871D01*
X159007Y470312D01*
X159007Y472325D01*
X158984Y472325D01*
X158830Y472033D01*
X158662Y471761D01*
X158480Y471506D01*
X158284Y471271D01*
X158075Y471054D01*
X157852Y470856D01*
X157615Y470676D01*
X157382Y470525D01*
X157365Y470515D01*
X157102Y470372D01*
X156829Y470249D01*
X156544Y470145D01*
X156249Y470059D01*
X155943Y469993D01*
X155626Y469945D01*
X155298Y469917D01*
X154959Y469908D01*
X154676Y469913D01*
X154403Y469931D01*
X153885Y470003D01*
X153405Y470122D01*
X152963Y470289D01*
X152559Y470504D01*
X152193Y470766D01*
X151866Y471076D01*
X151576Y471434D01*
X151323Y471843D01*
X151103Y472307D01*
X150917Y472825D01*
X150765Y473398D01*
X150647Y474025D01*
X150562Y474707D01*
X150512Y475443D01*
X150495Y476234D01*
X150513Y477037D01*
X150567Y477785D01*
X150658Y478479D01*
X150785Y479118D01*
X150949Y479704D01*
X151149Y480234D01*
X151385Y480711D01*
X151657Y481132D01*
X151967Y481502D01*
X152314Y481823D01*
X152699Y482095D01*
X153122Y482317D01*
X153582Y482489D01*
X153827Y482557D01*
X154081Y482613D01*
X154344Y482656D01*
X154617Y482687D01*
X154899Y482705D01*
X155191Y482711D01*
X155518Y482702D01*
X155834Y482673D01*
X156139Y482626D01*
X156432Y482559D01*
X156715Y482474D01*
X156987Y482370D01*
X157248Y482246D01*
X157498Y482104D01*
X157735Y481944D01*
X157959Y481768D01*
X158168Y481576D01*
X158364Y481368D01*
X158546Y481144D01*
X158714Y480904D01*
X158867Y480647D01*
X159007Y480375D01*
X159031Y480375D01*
X159042Y480849D01*
X159077Y481578D01*
X159123Y482240D01*
X159146Y482426D01*
X159169Y482515D01*
X161147Y482515D01*
X161117Y482118D01*
X161095Y481555D01*
X161078Y479924D01*
X161078Y470359D01*
X161057Y469720D01*
X160996Y469122D01*
X160894Y468566D01*
X160750Y468051D01*
X160566Y467577D01*
X160341Y467145D01*
X160075Y466753D01*
X159768Y466403D01*
X159420Y466094D01*
X159031Y465826D01*
X158601Y465599D01*
X158131Y465414D01*
X157619Y465270D01*
X157066Y465167D01*
X156473Y465105D01*
X155838Y465084D01*
G37*
%LPC*%
G36*
X155665Y471446D02*
X155907Y471455D01*
X156143Y471482D01*
X156371Y471527D01*
X156593Y471590D01*
X156808Y471672D01*
X157016Y471771D01*
X157217Y471889D01*
X157411Y472024D01*
X157597Y472177D01*
X157771Y472345D01*
X157935Y472529D01*
X157958Y472559D01*
X158088Y472728D01*
X158230Y472943D01*
X158361Y473175D01*
X158481Y473421D01*
X158591Y473684D01*
X158689Y473961D01*
X158773Y474250D01*
X158845Y474553D01*
X158903Y474868D01*
X158949Y475196D01*
X158981Y475537D01*
X159001Y475891D01*
X159007Y476257D01*
X159001Y476632D01*
X158981Y476994D01*
X158949Y477343D01*
X158903Y477678D01*
X158845Y478001D01*
X158773Y478310D01*
X158689Y478606D01*
X158591Y478889D01*
X158482Y479157D01*
X158361Y479408D01*
X158231Y479644D01*
X158089Y479863D01*
X157937Y480066D01*
X157775Y480253D01*
X157601Y480423D01*
X157417Y480577D01*
X157224Y480714D01*
X157026Y480833D01*
X156820Y480933D01*
X156609Y481015D01*
X156391Y481079D01*
X156167Y481125D01*
X155936Y481152D01*
X155699Y481161D01*
X155314Y481143D01*
X154956Y481089D01*
X154624Y480999D01*
X154320Y480872D01*
X154043Y480710D01*
X153793Y480511D01*
X153570Y480276D01*
X153375Y480005D01*
X153204Y479693D01*
X153056Y479337D01*
X152931Y478936D01*
X152828Y478490D01*
X152748Y477999D01*
X152692Y477463D01*
X152657Y476883D01*
X152646Y476257D01*
X152657Y475638D01*
X152689Y475064D01*
X152742Y474535D01*
X152817Y474051D01*
X152913Y473612D01*
X153030Y473219D01*
X153168Y472871D01*
X153328Y472568D01*
X153514Y472305D01*
X153730Y472077D01*
X153977Y471884D01*
X154254Y471726D01*
X154561Y471604D01*
X154899Y471516D01*
X155266Y471463D01*
X155665Y471446D01*
G37*
%LPD*%
G36*
X259763Y469769D02*
X259415Y469777D01*
X259082Y469801D01*
X258764Y469841D01*
X258461Y469897D01*
X258173Y469970D01*
X257899Y470058D01*
X257641Y470163D01*
X257398Y470283D01*
X257168Y470422D01*
X256949Y470580D01*
X256741Y470758D01*
X256544Y470956D01*
X256358Y471173D01*
X256183Y471410D01*
X256019Y471667D01*
X255866Y471943D01*
X255842Y471943D01*
X255831Y471491D01*
X255796Y470850D01*
X255756Y470270D01*
X255727Y470000D01*
X253714Y470000D01*
X253745Y470395D01*
X253766Y470957D01*
X253784Y472579D01*
X253784Y487164D01*
X255866Y487164D01*
X255866Y482272D01*
X255854Y481453D01*
X255819Y480502D01*
X255866Y480502D01*
X256016Y480792D01*
X256178Y481061D01*
X256352Y481308D01*
X256538Y481534D01*
X256735Y481739D01*
X256944Y481923D01*
X257165Y482085D01*
X257398Y482225D01*
X257644Y482347D01*
X257904Y482453D01*
X258178Y482543D01*
X258466Y482616D01*
X258769Y482673D01*
X259086Y482713D01*
X259418Y482738D01*
X259763Y482746D01*
X260055Y482740D01*
X260336Y482721D01*
X260608Y482690D01*
X260870Y482646D01*
X261123Y482590D01*
X261365Y482521D01*
X261598Y482440D01*
X261821Y482347D01*
X262237Y482122D01*
X262614Y481848D01*
X262952Y481524D01*
X263251Y481150D01*
X263512Y480725D01*
X263739Y480249D01*
X263931Y479722D01*
X264088Y479143D01*
X264210Y478513D01*
X264297Y477832D01*
X264349Y477099D01*
X264367Y476315D01*
X264349Y475522D01*
X264295Y474781D01*
X264205Y474090D01*
X264079Y473451D01*
X263917Y472863D01*
X263719Y472326D01*
X263486Y471840D01*
X263216Y471405D01*
X262910Y471022D01*
X262568Y470689D01*
X262191Y470408D01*
X261777Y470178D01*
X261328Y469999D01*
X261089Y469929D01*
X260842Y469871D01*
X260586Y469826D01*
X260321Y469794D01*
X260047Y469775D01*
X259763Y469769D01*
G37*
%LPC*%
G36*
X259208Y471307D02*
X259588Y471325D01*
X259940Y471380D01*
X260265Y471470D01*
X260563Y471598D01*
X260833Y471761D01*
X261076Y471961D01*
X261292Y472197D01*
X261481Y472469D01*
X261645Y472783D01*
X261787Y473141D01*
X261907Y473545D01*
X262006Y473995D01*
X262082Y474489D01*
X262137Y475029D01*
X262170Y475615D01*
X262181Y476246D01*
X262170Y476879D01*
X262137Y477465D01*
X262083Y478005D01*
X262007Y478498D01*
X261910Y478945D01*
X261790Y479345D01*
X261649Y479698D01*
X261487Y480005D01*
X261300Y480270D01*
X261085Y480501D01*
X260844Y480695D01*
X260576Y480855D01*
X260280Y480979D01*
X259958Y481067D01*
X259608Y481121D01*
X259231Y481138D01*
X258807Y481119D01*
X258412Y481063D01*
X258047Y480969D01*
X257712Y480837D01*
X257406Y480668D01*
X257131Y480462D01*
X256885Y480217D01*
X256669Y479935D01*
X256481Y479613D01*
X256318Y479246D01*
X256180Y478835D01*
X256067Y478380D01*
X255979Y477881D01*
X255916Y477337D01*
X255878Y476750D01*
X255866Y476118D01*
X255878Y475523D01*
X255915Y474967D01*
X255976Y474452D01*
X256062Y473977D01*
X256173Y473543D01*
X256308Y473149D01*
X256468Y472795D01*
X256652Y472481D01*
X256864Y472206D01*
X257107Y471967D01*
X257380Y471766D01*
X257684Y471600D01*
X258019Y471472D01*
X258385Y471380D01*
X258781Y471325D01*
X259208Y471307D01*
G37*
%LPD*%
G36*
X219465Y470000D02*
X217256Y470000D01*
X217256Y486297D01*
X224114Y486297D01*
X224780Y486277D01*
X225408Y486216D01*
X225996Y486116D01*
X226546Y485976D01*
X227057Y485795D01*
X227530Y485575D01*
X227964Y485314D01*
X228359Y485013D01*
X228712Y484675D01*
X229017Y484305D01*
X229275Y483902D01*
X229487Y483466D01*
X229651Y482997D01*
X229769Y482495D01*
X229839Y481960D01*
X229863Y481393D01*
X229839Y480829D01*
X229768Y480295D01*
X229650Y479791D01*
X229485Y479317D01*
X229273Y478872D01*
X229014Y478456D01*
X228707Y478071D01*
X228353Y477715D01*
X227959Y477395D01*
X227531Y477118D01*
X227069Y476883D01*
X226574Y476691D01*
X226044Y476542D01*
X225481Y476435D01*
X224884Y476371D01*
X224253Y476350D01*
X219465Y476350D01*
X219465Y470000D01*
G37*
%LPC*%
G36*
X223941Y478096D02*
X224389Y478109D01*
X224808Y478147D01*
X225199Y478211D01*
X225560Y478301D01*
X225893Y478416D01*
X226196Y478557D01*
X226471Y478723D01*
X226717Y478915D01*
X226934Y479132D01*
X227122Y479375D01*
X227281Y479643D01*
X227411Y479938D01*
X227512Y480257D01*
X227584Y480602D01*
X227628Y480973D01*
X227642Y481370D01*
X227627Y481752D01*
X227583Y482110D01*
X227509Y482443D01*
X227405Y482751D01*
X227272Y483035D01*
X227109Y483294D01*
X226916Y483528D01*
X226694Y483738D01*
X226442Y483923D01*
X226160Y484083D01*
X225849Y484219D01*
X225508Y484330D01*
X225138Y484416D01*
X224737Y484478D01*
X224308Y484515D01*
X223848Y484527D01*
X219465Y484527D01*
X219465Y478096D01*
X223941Y478096D01*
G37*
%LPD*%
G36*
X245535Y469769D02*
X245197Y469775D01*
X244871Y469795D01*
X244554Y469827D01*
X244248Y469873D01*
X243953Y469932D01*
X243668Y470004D01*
X243393Y470089D01*
X243129Y470187D01*
X242876Y470297D01*
X242632Y470422D01*
X242400Y470559D01*
X242178Y470709D01*
X241966Y470872D01*
X241765Y471048D01*
X241574Y471238D01*
X241394Y471440D01*
X241066Y471881D01*
X240782Y472369D01*
X240541Y472902D01*
X240345Y473483D01*
X240191Y474110D01*
X240082Y474783D01*
X240017Y475503D01*
X239995Y476269D01*
X240017Y477053D01*
X240082Y477787D01*
X240192Y478470D01*
X240345Y479103D01*
X240543Y479684D01*
X240784Y480216D01*
X241068Y480697D01*
X241397Y481127D01*
X241578Y481323D01*
X241770Y481506D01*
X241972Y481677D01*
X242186Y481835D01*
X242411Y481981D01*
X242646Y482113D01*
X242893Y482234D01*
X243150Y482341D01*
X243419Y482436D01*
X243698Y482518D01*
X243988Y482588D01*
X244290Y482645D01*
X244602Y482689D01*
X244925Y482721D01*
X245259Y482740D01*
X245604Y482746D01*
X245957Y482740D01*
X246298Y482721D01*
X246627Y482690D01*
X246944Y482647D01*
X247249Y482592D01*
X247543Y482524D01*
X247824Y482444D01*
X248094Y482351D01*
X248352Y482246D01*
X248598Y482129D01*
X248832Y482000D01*
X249055Y481858D01*
X249265Y481704D01*
X249464Y481537D01*
X249651Y481358D01*
X249826Y481167D01*
X249990Y480963D01*
X250143Y480745D01*
X250418Y480269D01*
X250651Y479738D01*
X250841Y479153D01*
X250989Y478514D01*
X251095Y477820D01*
X251158Y477072D01*
X251179Y476269D01*
X251157Y475474D01*
X251089Y474731D01*
X250976Y474041D01*
X250818Y473403D01*
X250722Y473104D01*
X250614Y472818D01*
X250496Y472545D01*
X250366Y472285D01*
X250225Y472038D01*
X250072Y471805D01*
X249908Y471584D01*
X249733Y471376D01*
X249352Y471000D01*
X248929Y470673D01*
X248465Y470397D01*
X248218Y470277D01*
X247961Y470171D01*
X247693Y470076D01*
X247416Y469995D01*
X247128Y469926D01*
X246830Y469869D01*
X246521Y469825D01*
X246203Y469794D01*
X245874Y469775D01*
X245535Y469769D01*
G37*
%LPC*%
G36*
X245512Y471307D02*
X245963Y471326D01*
X246382Y471382D01*
X246767Y471476D01*
X247118Y471608D01*
X247436Y471777D01*
X247721Y471984D01*
X247972Y472228D01*
X248189Y472510D01*
X248378Y472832D01*
X248541Y473196D01*
X248679Y473602D01*
X248792Y474051D01*
X248880Y474542D01*
X248943Y475075D01*
X248981Y475651D01*
X248993Y476269D01*
X248981Y476894D01*
X248945Y477476D01*
X248885Y478013D01*
X248801Y478505D01*
X248693Y478954D01*
X248561Y479358D01*
X248404Y479718D01*
X248224Y480034D01*
X248015Y480309D01*
X247774Y480547D01*
X247500Y480749D01*
X247193Y480914D01*
X246854Y481043D01*
X246481Y481134D01*
X246077Y481189D01*
X245639Y481208D01*
X245198Y481189D01*
X244789Y481133D01*
X244411Y481039D01*
X244065Y480908D01*
X243750Y480740D01*
X243467Y480534D01*
X243216Y480291D01*
X242996Y480011D01*
X242805Y479690D01*
X242639Y479328D01*
X242499Y478923D01*
X242385Y478477D01*
X242295Y477988D01*
X242232Y477457D01*
X242193Y476884D01*
X242181Y476269D01*
X242193Y475669D01*
X242231Y475108D01*
X242294Y474586D01*
X242382Y474102D01*
X242495Y473656D01*
X242633Y473249D01*
X242796Y472880D01*
X242985Y472550D01*
X243200Y472259D01*
X243444Y472006D01*
X243717Y471793D01*
X244018Y471618D01*
X244349Y471482D01*
X244708Y471385D01*
X245095Y471326D01*
X245512Y471307D01*
G37*
%LPD*%
G36*
X127945Y469769D02*
X127488Y469784D01*
X127061Y469831D01*
X126662Y469909D01*
X126294Y470017D01*
X125954Y470157D01*
X125644Y470328D01*
X125363Y470530D01*
X125111Y470763D01*
X124889Y471024D01*
X124696Y471307D01*
X124533Y471613D01*
X124400Y471943D01*
X124296Y472296D01*
X124222Y472672D01*
X124177Y473071D01*
X124163Y473493D01*
X124182Y473965D01*
X124242Y474408D01*
X124342Y474823D01*
X124482Y475211D01*
X124662Y475569D01*
X124881Y475900D01*
X125141Y476203D01*
X125441Y476477D01*
X125785Y476722D01*
X126178Y476937D01*
X126620Y477121D01*
X127110Y477275D01*
X127650Y477399D01*
X128239Y477492D01*
X128877Y477555D01*
X129564Y477587D01*
X132374Y477634D01*
X132374Y478316D01*
X132364Y478684D01*
X132334Y479025D01*
X132283Y479339D01*
X132213Y479626D01*
X132121Y479886D01*
X132010Y480118D01*
X131879Y480324D01*
X131727Y480502D01*
X131553Y480657D01*
X131357Y480791D01*
X131137Y480904D01*
X130894Y480997D01*
X130628Y481069D01*
X130339Y481120D01*
X130027Y481151D01*
X129691Y481161D01*
X129353Y481154D01*
X129039Y481132D01*
X128749Y481095D01*
X128482Y481043D01*
X128240Y480976D01*
X128021Y480895D01*
X127826Y480798D01*
X127655Y480687D01*
X127504Y480560D01*
X127369Y480415D01*
X127250Y480252D01*
X127147Y480071D01*
X127059Y479873D01*
X126988Y479657D01*
X126932Y479423D01*
X126892Y479172D01*
X124718Y479369D01*
X124800Y479778D01*
X124912Y480160D01*
X125056Y480516D01*
X125231Y480846D01*
X125437Y481150D01*
X125673Y481427D01*
X125940Y481677D01*
X126239Y481902D01*
X126568Y482099D01*
X126928Y482271D01*
X127319Y482416D01*
X127741Y482535D01*
X128194Y482627D01*
X128677Y482693D01*
X129192Y482733D01*
X129737Y482746D01*
X130309Y482729D01*
X130844Y482678D01*
X131343Y482594D01*
X131805Y482476D01*
X132230Y482323D01*
X132620Y482138D01*
X132972Y481918D01*
X133288Y481664D01*
X133567Y481379D01*
X133809Y481063D01*
X134014Y480718D01*
X134182Y480342D01*
X134312Y479935D01*
X134405Y479499D01*
X134461Y479033D01*
X134480Y478536D01*
X134480Y473146D01*
X134495Y472712D01*
X134540Y472335D01*
X134616Y472015D01*
X134722Y471752D01*
X134790Y471642D01*
X134871Y471547D01*
X134966Y471467D01*
X135075Y471401D01*
X135198Y471350D01*
X135334Y471313D01*
X135484Y471291D01*
X135648Y471284D01*
X135969Y471304D01*
X136330Y471365D01*
X136330Y470069D01*
X135935Y469988D01*
X135535Y469931D01*
X135131Y469896D01*
X134722Y469884D01*
X134443Y469894D01*
X134184Y469922D01*
X133944Y469970D01*
X133723Y470036D01*
X133523Y470122D01*
X133342Y470226D01*
X133181Y470349D01*
X133040Y470492D01*
X132915Y470654D01*
X132805Y470838D01*
X132709Y471044D01*
X132627Y471271D01*
X132560Y471519D01*
X132507Y471790D01*
X132468Y472081D01*
X132444Y472394D01*
X132374Y472394D01*
X132171Y472049D01*
X131959Y471730D01*
X131739Y471436D01*
X131511Y471170D01*
X131275Y470929D01*
X131031Y470715D01*
X130779Y470526D01*
X130518Y470364D01*
X130246Y470225D01*
X129960Y470104D01*
X129660Y470001D01*
X129346Y469918D01*
X129017Y469852D01*
X128674Y469806D01*
X128316Y469778D01*
X127945Y469769D01*
G37*
%LPC*%
G36*
X128419Y471330D02*
X128701Y471338D01*
X128975Y471363D01*
X129242Y471403D01*
X129500Y471460D01*
X129751Y471533D01*
X129993Y471623D01*
X130228Y471729D01*
X130454Y471851D01*
X130671Y471987D01*
X130876Y472135D01*
X131070Y472295D01*
X131251Y472468D01*
X131421Y472653D01*
X131579Y472849D01*
X131725Y473058D01*
X131860Y473279D01*
X132085Y473736D01*
X132173Y473967D01*
X132246Y474200D01*
X132302Y474434D01*
X132342Y474670D01*
X132366Y474908D01*
X132374Y475147D01*
X132374Y476176D01*
X130096Y476130D01*
X129406Y476103D01*
X128805Y476043D01*
X128293Y475952D01*
X127869Y475829D01*
X127513Y475672D01*
X127200Y475477D01*
X126932Y475244D01*
X126707Y474973D01*
X126612Y474823D01*
X126530Y474662D01*
X126460Y474489D01*
X126403Y474306D01*
X126359Y474111D01*
X126328Y473904D01*
X126309Y473687D01*
X126302Y473458D01*
X126311Y473211D01*
X126337Y472978D01*
X126380Y472760D01*
X126440Y472556D01*
X126517Y472367D01*
X126611Y472192D01*
X126723Y472031D01*
X126852Y471885D01*
X126996Y471755D01*
X127156Y471642D01*
X127330Y471547D01*
X127518Y471469D01*
X127721Y471408D01*
X127939Y471365D01*
X128172Y471339D01*
X128419Y471330D01*
G37*
%LPD*%
G36*
X166400Y470000D02*
X164330Y470000D01*
X164330Y479843D01*
X164313Y481604D01*
X164291Y482165D01*
X164260Y482515D01*
X166227Y482515D01*
X166250Y482202D01*
X166279Y481618D01*
X166319Y480375D01*
X166354Y480375D01*
X166525Y480695D01*
X166702Y480989D01*
X166885Y481259D01*
X167074Y481503D01*
X167269Y481721D01*
X167471Y481915D01*
X167678Y482083D01*
X167892Y482225D01*
X168115Y482347D01*
X168350Y482453D01*
X168597Y482543D01*
X168855Y482616D01*
X169126Y482673D01*
X169408Y482713D01*
X169703Y482738D01*
X170009Y482746D01*
X170355Y482737D01*
X170683Y482710D01*
X170992Y482666D01*
X171283Y482604D01*
X171554Y482525D01*
X171808Y482427D01*
X172042Y482312D01*
X172258Y482179D01*
X172457Y482027D01*
X172641Y481854D01*
X172808Y481660D01*
X172960Y481445D01*
X173096Y481209D01*
X173216Y480952D01*
X173321Y480674D01*
X173409Y480375D01*
X173444Y480375D01*
X173610Y480679D01*
X173785Y480961D01*
X173968Y481221D01*
X174160Y481459D01*
X174360Y481675D01*
X174568Y481869D01*
X174786Y482041D01*
X175011Y482191D01*
X175247Y482321D01*
X175495Y482434D01*
X175755Y482529D01*
X176028Y482607D01*
X176312Y482668D01*
X176608Y482711D01*
X176917Y482737D01*
X177238Y482746D01*
X177696Y482730D01*
X178121Y482682D01*
X178515Y482601D01*
X178876Y482489D01*
X179204Y482344D01*
X179501Y482167D01*
X179765Y481958D01*
X179996Y481717D01*
X180198Y481439D01*
X180373Y481119D01*
X180521Y480759D01*
X180643Y480357D01*
X180737Y479915D01*
X180804Y479431D01*
X180844Y478906D01*
X180858Y478339D01*
X180858Y470000D01*
X178799Y470000D01*
X178799Y477934D01*
X178791Y478371D01*
X178768Y478772D01*
X178729Y479139D01*
X178675Y479470D01*
X178605Y479766D01*
X178519Y480027D01*
X178418Y480253D01*
X178302Y480444D01*
X178165Y480607D01*
X178003Y480748D01*
X177817Y480867D01*
X177605Y480965D01*
X177368Y481041D01*
X177107Y481095D01*
X176820Y481127D01*
X176509Y481138D01*
X176177Y481122D01*
X175865Y481075D01*
X175571Y480996D01*
X175296Y480885D01*
X175040Y480743D01*
X174803Y480569D01*
X174586Y480363D01*
X174387Y480126D01*
X174209Y479860D01*
X174055Y479567D01*
X173925Y479248D01*
X173818Y478902D01*
X173736Y478529D01*
X173676Y478130D01*
X173641Y477704D01*
X173629Y477252D01*
X173629Y470000D01*
X171570Y470000D01*
X171570Y477934D01*
X171563Y478371D01*
X171539Y478772D01*
X171500Y479139D01*
X171446Y479470D01*
X171376Y479766D01*
X171291Y480027D01*
X171190Y480253D01*
X171073Y480444D01*
X170936Y480607D01*
X170774Y480748D01*
X170588Y480867D01*
X170376Y480965D01*
X170140Y481041D01*
X169878Y481095D01*
X169592Y481127D01*
X169280Y481138D01*
X168956Y481122D01*
X168650Y481075D01*
X168361Y480995D01*
X168089Y480884D01*
X167834Y480741D01*
X167597Y480566D01*
X167378Y480359D01*
X167175Y480120D01*
X166994Y479853D01*
X166836Y479559D01*
X166703Y479240D01*
X166594Y478894D01*
X166509Y478523D01*
X166449Y478125D01*
X166412Y477702D01*
X166400Y477252D01*
X166400Y470000D01*
G37*
G36*
X272029Y469769D02*
X271687Y469775D01*
X271356Y469795D01*
X271035Y469827D01*
X270724Y469872D01*
X270423Y469930D01*
X270133Y470001D01*
X269854Y470085D01*
X269584Y470182D01*
X269325Y470292D01*
X269076Y470415D01*
X268838Y470550D01*
X268610Y470699D01*
X268392Y470861D01*
X268185Y471035D01*
X267802Y471423D01*
X267626Y471636D01*
X267461Y471861D01*
X267308Y472099D01*
X267167Y472350D01*
X267036Y472613D01*
X266917Y472889D01*
X266713Y473479D01*
X266554Y474118D01*
X266441Y474808D01*
X266373Y475548D01*
X266350Y476338D01*
X266373Y477091D01*
X266441Y477798D01*
X266554Y478460D01*
X266713Y479077D01*
X266917Y479648D01*
X267167Y480175D01*
X267461Y480656D01*
X267802Y481092D01*
X268184Y481480D01*
X268605Y481816D01*
X269065Y482100D01*
X269310Y482223D01*
X269564Y482332D01*
X269828Y482429D01*
X270102Y482513D01*
X270385Y482584D01*
X270678Y482643D01*
X270981Y482688D01*
X271294Y482720D01*
X271616Y482739D01*
X271948Y482746D01*
X272287Y482739D01*
X272616Y482720D01*
X272934Y482687D01*
X273241Y482642D01*
X273537Y482584D01*
X273823Y482512D01*
X274098Y482428D01*
X274362Y482330D01*
X274615Y482220D01*
X274857Y482096D01*
X275089Y481960D01*
X275310Y481811D01*
X275520Y481648D01*
X275719Y481473D01*
X275908Y481285D01*
X276086Y481083D01*
X276409Y480642D01*
X276689Y480148D01*
X276926Y479602D01*
X277120Y479005D01*
X277271Y478356D01*
X277379Y477654D01*
X277444Y476901D01*
X277465Y476095D01*
X277465Y475818D01*
X268536Y475818D01*
X268550Y475295D01*
X268592Y474804D01*
X268661Y474343D01*
X268759Y473912D01*
X268884Y473513D01*
X269037Y473144D01*
X269218Y472806D01*
X269427Y472498D01*
X269662Y472224D01*
X269923Y471987D01*
X270210Y471786D01*
X270522Y471622D01*
X270861Y471494D01*
X271224Y471403D01*
X271614Y471348D01*
X272029Y471330D01*
X272359Y471339D01*
X272672Y471364D01*
X272968Y471407D01*
X273248Y471466D01*
X273510Y471542D01*
X273756Y471636D01*
X273985Y471746D01*
X274198Y471874D01*
X274393Y472014D01*
X274572Y472164D01*
X274735Y472322D01*
X274881Y472490D01*
X275011Y472666D01*
X275125Y472852D01*
X275222Y473046D01*
X275302Y473250D01*
X277130Y472730D01*
X276978Y472371D01*
X276805Y472036D01*
X276609Y471723D01*
X276390Y471434D01*
X276149Y471168D01*
X275886Y470925D01*
X275601Y470706D01*
X275294Y470509D01*
X274964Y470335D01*
X274611Y470185D01*
X274237Y470058D01*
X273840Y469954D01*
X273421Y469873D01*
X272979Y469815D01*
X272515Y469780D01*
X272029Y469769D01*
G37*
%LPC*%
G36*
X275314Y477414D02*
X275260Y477892D01*
X275186Y478336D01*
X275091Y478747D01*
X274975Y479124D01*
X274839Y479468D01*
X274683Y479779D01*
X274505Y480056D01*
X274308Y480300D01*
X274088Y480512D01*
X273846Y480697D01*
X273580Y480853D01*
X273293Y480981D01*
X272982Y481080D01*
X272649Y481151D01*
X272292Y481193D01*
X271913Y481208D01*
X271544Y481192D01*
X271195Y481144D01*
X270866Y481065D01*
X270556Y480955D01*
X270266Y480812D01*
X269995Y480638D01*
X269744Y480433D01*
X269513Y480196D01*
X269305Y479931D01*
X269122Y479642D01*
X268964Y479330D01*
X268832Y478994D01*
X268726Y478635D01*
X268645Y478251D01*
X268589Y477844D01*
X268559Y477414D01*
X275314Y477414D01*
G37*
%LPD*%
G36*
X140068Y470000D02*
X137986Y470000D01*
X137986Y479843D01*
X137969Y481604D01*
X137947Y482165D01*
X137917Y482515D01*
X139883Y482515D01*
X139906Y482202D01*
X139935Y481618D01*
X139976Y480375D01*
X140010Y480375D01*
X140193Y480687D01*
X140383Y480975D01*
X140580Y481240D01*
X140784Y481481D01*
X140995Y481698D01*
X141213Y481892D01*
X141438Y482062D01*
X141670Y482208D01*
X141913Y482334D01*
X142170Y482443D01*
X142441Y482536D01*
X142727Y482611D01*
X143027Y482670D01*
X143341Y482712D01*
X143669Y482738D01*
X144012Y482746D01*
X144510Y482730D01*
X144972Y482682D01*
X145401Y482602D01*
X145795Y482490D01*
X146154Y482346D01*
X146479Y482170D01*
X146769Y481962D01*
X147025Y481722D01*
X147249Y481446D01*
X147443Y481127D01*
X147607Y480767D01*
X147741Y480365D01*
X147845Y479921D01*
X147920Y479435D01*
X147964Y478908D01*
X147979Y478339D01*
X147979Y470000D01*
X145886Y470000D01*
X145886Y477934D01*
X145871Y478518D01*
X145825Y479033D01*
X145749Y479478D01*
X145643Y479854D01*
X145503Y480172D01*
X145328Y480441D01*
X145116Y480663D01*
X144868Y480837D01*
X144571Y480969D01*
X144212Y481063D01*
X143790Y481119D01*
X143307Y481138D01*
X142941Y481122D01*
X142595Y481074D01*
X142268Y480993D01*
X141962Y480881D01*
X141676Y480736D01*
X141409Y480559D01*
X141162Y480350D01*
X140936Y480109D01*
X140732Y479839D01*
X140556Y479544D01*
X140407Y479225D01*
X140285Y478880D01*
X140190Y478510D01*
X140122Y478116D01*
X140082Y477696D01*
X140068Y477252D01*
X140068Y470000D01*
G37*
G36*
X187912Y469769D02*
X187414Y469785D01*
X186951Y469833D01*
X186523Y469913D01*
X186129Y470025D01*
X185770Y470169D01*
X185445Y470344D01*
X185155Y470552D01*
X184899Y470792D01*
X184675Y471069D01*
X184481Y471388D01*
X184317Y471748D01*
X184183Y472150D01*
X184079Y472594D01*
X184004Y473079D01*
X183959Y473606D01*
X183945Y474175D01*
X183945Y482515D01*
X186038Y482515D01*
X186038Y474580D01*
X186053Y473996D01*
X186099Y473481D01*
X186175Y473036D01*
X186281Y472660D01*
X186420Y472343D01*
X186596Y472073D01*
X186808Y471851D01*
X187056Y471677D01*
X187353Y471546D01*
X187712Y471452D01*
X188134Y471395D01*
X188617Y471376D01*
X188983Y471392D01*
X189329Y471441D01*
X189656Y471521D01*
X189962Y471634D01*
X190248Y471778D01*
X190515Y471955D01*
X190762Y472164D01*
X190988Y472406D01*
X191192Y472676D01*
X191368Y472970D01*
X191517Y473290D01*
X191639Y473635D01*
X191734Y474004D01*
X191802Y474399D01*
X191842Y474818D01*
X191856Y475263D01*
X191856Y482515D01*
X193938Y482515D01*
X193938Y472672D01*
X193955Y470911D01*
X193977Y470349D01*
X194007Y470000D01*
X192041Y470000D01*
X192018Y470312D01*
X191989Y470896D01*
X191948Y472140D01*
X191914Y472140D01*
X191731Y471828D01*
X191541Y471539D01*
X191344Y471275D01*
X191140Y471034D01*
X190929Y470816D01*
X190711Y470623D01*
X190486Y470453D01*
X190254Y470307D01*
X190011Y470180D01*
X189754Y470071D01*
X189483Y469979D01*
X189197Y469903D01*
X188897Y469844D01*
X188583Y469802D01*
X188254Y469777D01*
X187912Y469769D01*
G37*
G36*
X122387Y470000D02*
X111943Y470000D01*
X111943Y486297D01*
X114152Y486297D01*
X114152Y471804D01*
X122387Y471804D01*
X122387Y470000D01*
G37*
G36*
X204568Y470000D02*
X202486Y470000D01*
X202486Y479600D01*
X202469Y480988D01*
X202417Y482515D01*
X204383Y482515D01*
X204452Y480811D01*
X204476Y479958D01*
X204522Y479958D01*
X204780Y480699D01*
X204916Y481021D01*
X205057Y481312D01*
X205202Y481570D01*
X205352Y481797D01*
X205507Y481993D01*
X205667Y482156D01*
X205837Y482294D01*
X206024Y482414D01*
X206227Y482515D01*
X206448Y482598D01*
X206684Y482663D01*
X206938Y482709D01*
X207208Y482737D01*
X207494Y482746D01*
X207703Y482739D01*
X207914Y482717D01*
X208125Y482681D01*
X208339Y482630D01*
X208339Y480722D01*
X208113Y480772D01*
X207853Y480809D01*
X207558Y480830D01*
X207228Y480837D01*
X206914Y480820D01*
X206619Y480768D01*
X206343Y480681D01*
X206086Y480558D01*
X205848Y480402D01*
X205630Y480210D01*
X205431Y479983D01*
X205250Y479721D01*
X205091Y479427D01*
X204952Y479103D01*
X204835Y478748D01*
X204739Y478364D01*
X204664Y477949D01*
X204611Y477504D01*
X204579Y477029D01*
X204568Y476523D01*
X204568Y470000D01*
G37*
G36*
X234849Y470000D02*
X232767Y470000D01*
X232767Y479600D01*
X232750Y480988D01*
X232698Y482515D01*
X234664Y482515D01*
X234734Y480811D01*
X234757Y479958D01*
X234803Y479958D01*
X235061Y480699D01*
X235197Y481021D01*
X235338Y481312D01*
X235483Y481570D01*
X235634Y481797D01*
X235789Y481993D01*
X235948Y482156D01*
X236118Y482294D01*
X236305Y482414D01*
X236509Y482515D01*
X236729Y482598D01*
X236966Y482663D01*
X237219Y482709D01*
X237489Y482737D01*
X237776Y482746D01*
X237984Y482739D01*
X238195Y482717D01*
X238407Y482681D01*
X238620Y482630D01*
X238620Y480722D01*
X238394Y480772D01*
X238134Y480809D01*
X237839Y480830D01*
X237510Y480837D01*
X237195Y480820D01*
X236900Y480768D01*
X236624Y480681D01*
X236367Y480558D01*
X236130Y480402D01*
X235911Y480210D01*
X235712Y479983D01*
X235532Y479721D01*
X235372Y479427D01*
X235233Y479103D01*
X235116Y478748D01*
X235020Y478364D01*
X234945Y477949D01*
X234892Y477504D01*
X234860Y477029D01*
X234849Y476523D01*
X234849Y470000D01*
G37*
G36*
X199260Y470000D02*
X197178Y470000D01*
X197178Y482515D01*
X199260Y482515D01*
X199260Y470000D01*
G37*
G36*
X199260Y485175D02*
X197178Y485175D01*
X197178Y487164D01*
X199260Y487164D01*
X199260Y485175D01*
G37*
G36*
X131764Y258156D02*
X129187Y258156D01*
X129187Y265660D01*
X121753Y265660D01*
X121753Y268219D01*
X129187Y268219D01*
X129187Y275723D01*
X131764Y275723D01*
X131764Y268219D01*
X139198Y268219D01*
X139198Y265660D01*
X131764Y265660D01*
X131764Y258156D01*
G37*
G36*
X501764Y366156D02*
X499187Y366156D01*
X499187Y373660D01*
X491753Y373660D01*
X491753Y376219D01*
X499187Y376219D01*
X499187Y383723D01*
X501764Y383723D01*
X501764Y376219D01*
X509198Y376219D01*
X509198Y373660D01*
X501764Y373660D01*
X501764Y366156D01*
G37*
G36*
X500764Y229156D02*
X498187Y229156D01*
X498187Y236660D01*
X490753Y236660D01*
X490753Y239219D01*
X498187Y239219D01*
X498187Y246723D01*
X500764Y246723D01*
X500764Y239219D01*
X508198Y239219D01*
X508198Y236660D01*
X500764Y236660D01*
X500764Y229156D01*
G37*
G36*
X130764Y124156D02*
X128187Y124156D01*
X128187Y131660D01*
X120753Y131660D01*
X120753Y134219D01*
X128187Y134219D01*
X128187Y141723D01*
X130764Y141723D01*
X130764Y134219D01*
X138198Y134219D01*
X138198Y131660D01*
X130764Y131660D01*
X130764Y124156D01*
G37*
G36*
X230000Y348398D02*
X216176Y348398D01*
X216176Y350861D01*
X225762Y354540D01*
X226361Y354733D01*
X227003Y354918D01*
X227573Y355069D01*
X227959Y355158D01*
X227465Y355280D01*
X226767Y355487D01*
X226116Y355697D01*
X225762Y355826D01*
X216176Y359436D01*
X216176Y361840D01*
X230000Y361840D01*
X230000Y360152D01*
X220777Y360152D01*
X219276Y360174D01*
X217834Y360241D01*
X218664Y360006D01*
X219399Y359784D01*
X220038Y359575D01*
X220581Y359377D01*
X230000Y355806D01*
X230000Y354491D01*
X220581Y350871D01*
X218913Y350321D01*
X217834Y349998D01*
X218923Y350027D01*
X220777Y350066D01*
X230000Y350066D01*
X230000Y348398D01*
G37*
G36*
X230000Y364322D02*
X228469Y364322D01*
X228469Y366716D01*
X228528Y367962D01*
X228577Y368757D01*
X228291Y368262D01*
X227988Y367798D01*
X227667Y367364D01*
X227328Y366962D01*
X226971Y366589D01*
X226597Y366248D01*
X226205Y365937D01*
X225796Y365657D01*
X225373Y365408D01*
X224940Y365193D01*
X224498Y365011D01*
X224046Y364862D01*
X223584Y364746D01*
X223113Y364663D01*
X222632Y364614D01*
X222141Y364597D01*
X221785Y364604D01*
X221439Y364624D01*
X221103Y364657D01*
X220776Y364703D01*
X220459Y364763D01*
X220152Y364836D01*
X219855Y364923D01*
X219567Y365023D01*
X219289Y365136D01*
X219020Y365262D01*
X218761Y365402D01*
X218512Y365555D01*
X218273Y365721D01*
X218043Y365900D01*
X217613Y366299D01*
X217228Y366745D01*
X216894Y367230D01*
X216746Y367487D01*
X216612Y367755D01*
X216490Y368032D01*
X216381Y368319D01*
X216284Y368616D01*
X216201Y368924D01*
X216130Y369241D01*
X216072Y369567D01*
X216028Y369904D01*
X215995Y370251D01*
X215976Y370608D01*
X215970Y370974D01*
X215976Y371341D01*
X215995Y371698D01*
X216028Y372045D01*
X216072Y372381D01*
X216130Y372708D01*
X216201Y373025D01*
X216284Y373333D01*
X216381Y373630D01*
X216490Y373917D01*
X216612Y374194D01*
X216746Y374462D01*
X216894Y374719D01*
X217228Y375204D01*
X217613Y375650D01*
X218043Y376049D01*
X218273Y376228D01*
X218512Y376394D01*
X218761Y376547D01*
X219020Y376687D01*
X219289Y376813D01*
X219567Y376926D01*
X219855Y377026D01*
X220152Y377112D01*
X220459Y377186D01*
X220776Y377245D01*
X221103Y377292D01*
X221439Y377325D01*
X221785Y377345D01*
X222141Y377352D01*
X222629Y377335D01*
X223108Y377286D01*
X223577Y377204D01*
X224037Y377088D01*
X224487Y376940D01*
X224928Y376759D01*
X225359Y376544D01*
X225781Y376297D01*
X226190Y376018D01*
X226581Y375708D01*
X226956Y375366D01*
X227314Y374993D01*
X227655Y374590D01*
X227979Y374155D01*
X228287Y373689D01*
X228577Y373192D01*
X228528Y373987D01*
X228469Y375233D01*
X228469Y377627D01*
X230000Y377627D01*
X230000Y371848D01*
X227802Y371848D01*
X227562Y372274D01*
X227307Y372673D01*
X227038Y373047D01*
X226754Y373394D01*
X226455Y373715D01*
X226142Y374010D01*
X225814Y374279D01*
X225472Y374521D01*
X225116Y374736D01*
X224748Y374923D01*
X224366Y375080D01*
X223972Y375209D01*
X223565Y375310D01*
X223146Y375381D01*
X222714Y375424D01*
X222269Y375439D01*
X221716Y375420D01*
X221195Y375366D01*
X220706Y375274D01*
X220250Y375147D01*
X219826Y374983D01*
X219434Y374782D01*
X219074Y374545D01*
X218746Y374271D01*
X218454Y373964D01*
X218201Y373628D01*
X217987Y373262D01*
X217812Y372866D01*
X217676Y372440D01*
X217578Y371984D01*
X217520Y371499D01*
X217500Y370984D01*
X217520Y370465D01*
X217578Y369976D01*
X217676Y369517D01*
X217812Y369088D01*
X217987Y368690D01*
X218201Y368322D01*
X218454Y367985D01*
X218746Y367678D01*
X219074Y367404D01*
X219434Y367167D01*
X219826Y366966D01*
X220250Y366802D01*
X220706Y366674D01*
X221195Y366583D01*
X221716Y366529D01*
X222269Y366510D01*
X222711Y366525D01*
X223142Y366567D01*
X223559Y366639D01*
X223965Y366738D01*
X224358Y366867D01*
X224738Y367024D01*
X225107Y367209D01*
X225462Y367423D01*
X225805Y367664D01*
X226133Y367932D01*
X226447Y368227D01*
X226746Y368549D01*
X227032Y368897D01*
X227303Y369272D01*
X227560Y369673D01*
X227802Y370101D01*
X230000Y370101D01*
X230000Y364322D01*
G37*
G36*
X230000Y331531D02*
X228499Y331531D01*
X228499Y335053D01*
X217863Y335053D01*
X220091Y331933D01*
X218423Y331933D01*
X216176Y335200D01*
X216176Y336829D01*
X228499Y336829D01*
X228499Y340194D01*
X230000Y340194D01*
X230000Y331531D01*
G37*
G36*
X230000Y157635D02*
X228469Y157635D01*
X228469Y160029D01*
X228528Y161275D01*
X228577Y162070D01*
X228291Y161575D01*
X227988Y161111D01*
X227667Y160677D01*
X227328Y160274D01*
X226971Y159902D01*
X226597Y159560D01*
X226205Y159249D01*
X225796Y158969D01*
X225373Y158721D01*
X224940Y158506D01*
X224498Y158323D01*
X224046Y158174D01*
X223584Y158059D01*
X223113Y157976D01*
X222632Y157926D01*
X222141Y157910D01*
X221785Y157916D01*
X221439Y157936D01*
X221103Y157969D01*
X220776Y158016D01*
X220459Y158076D01*
X220152Y158149D01*
X219855Y158235D01*
X219567Y158335D01*
X219289Y158448D01*
X219020Y158575D01*
X218761Y158714D01*
X218512Y158867D01*
X218273Y159033D01*
X218043Y159213D01*
X217613Y159612D01*
X217228Y160057D01*
X216894Y160542D01*
X216746Y160800D01*
X216612Y161067D01*
X216490Y161345D01*
X216381Y161632D01*
X216284Y161929D01*
X216201Y162236D01*
X216130Y162553D01*
X216072Y162880D01*
X216028Y163217D01*
X215995Y163564D01*
X215976Y163920D01*
X215970Y164287D01*
X215976Y164654D01*
X215995Y165010D01*
X216028Y165357D01*
X216072Y165694D01*
X216130Y166021D01*
X216201Y166338D01*
X216284Y166645D01*
X216381Y166942D01*
X216490Y167229D01*
X216612Y167507D01*
X216746Y167774D01*
X216894Y168032D01*
X217228Y168517D01*
X217613Y168962D01*
X218043Y169361D01*
X218273Y169541D01*
X218512Y169707D01*
X218761Y169860D01*
X219020Y169999D01*
X219289Y170126D01*
X219567Y170239D01*
X219855Y170339D01*
X220152Y170425D01*
X220459Y170498D01*
X220776Y170558D01*
X221103Y170605D01*
X221439Y170638D01*
X221785Y170658D01*
X222141Y170664D01*
X222629Y170648D01*
X223108Y170598D01*
X223577Y170516D01*
X224037Y170401D01*
X224487Y170252D01*
X224928Y170071D01*
X225359Y169857D01*
X225781Y169610D01*
X226190Y169330D01*
X226581Y169020D01*
X226956Y168679D01*
X227314Y168306D01*
X227655Y167902D01*
X227979Y167467D01*
X228287Y167001D01*
X228577Y166504D01*
X228528Y167299D01*
X228469Y168545D01*
X228469Y170939D01*
X230000Y170939D01*
X230000Y165160D01*
X227802Y165160D01*
X227562Y165586D01*
X227307Y165986D01*
X227038Y166359D01*
X226754Y166707D01*
X226455Y167028D01*
X226142Y167323D01*
X225814Y167591D01*
X225472Y167834D01*
X225116Y168049D01*
X224748Y168235D01*
X224366Y168393D01*
X223972Y168522D01*
X223565Y168622D01*
X223146Y168694D01*
X222714Y168737D01*
X222269Y168751D01*
X221716Y168733D01*
X221195Y168678D01*
X220706Y168587D01*
X220250Y168459D01*
X219826Y168295D01*
X219434Y168094D01*
X219074Y167857D01*
X218746Y167584D01*
X218454Y167277D01*
X218201Y166940D01*
X217987Y166574D01*
X217812Y166178D01*
X217676Y165752D01*
X217578Y165297D01*
X217520Y164812D01*
X217500Y164297D01*
X217520Y163777D01*
X217578Y163288D01*
X217676Y162829D01*
X217812Y162401D01*
X217987Y162003D01*
X218201Y161635D01*
X218454Y161297D01*
X218746Y160990D01*
X219074Y160717D01*
X219434Y160480D01*
X219826Y160279D01*
X220250Y160115D01*
X220706Y159987D01*
X221195Y159896D01*
X221716Y159841D01*
X222269Y159823D01*
X222711Y159837D01*
X223142Y159880D01*
X223559Y159951D01*
X223965Y160051D01*
X224358Y160179D01*
X224738Y160336D01*
X225107Y160521D01*
X225462Y160735D01*
X225805Y160977D01*
X226133Y161245D01*
X226447Y161540D01*
X226746Y161861D01*
X227032Y162209D01*
X227303Y162584D01*
X227560Y162986D01*
X227802Y163414D01*
X230000Y163414D01*
X230000Y157635D01*
G37*
G36*
X230000Y148104D02*
X215440Y148104D01*
X215440Y149870D01*
X224535Y149870D01*
X219384Y154530D01*
X219384Y156601D01*
X223946Y152293D01*
X230000Y156826D01*
X230000Y154756D01*
X225153Y151165D01*
X226223Y149870D01*
X230000Y149870D01*
X230000Y148104D01*
G37*
G36*
X230000Y131531D02*
X228499Y131531D01*
X228499Y135053D01*
X217863Y135053D01*
X220091Y131933D01*
X218423Y131933D01*
X216176Y135200D01*
X216176Y136829D01*
X228499Y136829D01*
X228499Y140194D01*
X230000Y140194D01*
X230000Y131531D01*
G37*
G36*
X333083Y381941D02*
X332221Y381959D01*
X331414Y382014D01*
X330663Y382105D01*
X329968Y382232D01*
X329329Y382395D01*
X328745Y382595D01*
X328217Y382831D01*
X327746Y383104D01*
X327531Y383254D01*
X327329Y383416D01*
X327142Y383587D01*
X326969Y383769D01*
X326809Y383962D01*
X326663Y384166D01*
X326532Y384379D01*
X326414Y384604D01*
X326310Y384839D01*
X326219Y385084D01*
X326143Y385340D01*
X326081Y385607D01*
X326032Y385884D01*
X325997Y386171D01*
X325977Y386469D01*
X325970Y386778D01*
X325977Y387079D01*
X325998Y387369D01*
X326033Y387649D01*
X326082Y387920D01*
X326145Y388180D01*
X326222Y388430D01*
X326313Y388671D01*
X326419Y388901D01*
X326538Y389121D01*
X326671Y389332D01*
X326818Y389532D01*
X326980Y389723D01*
X327155Y389903D01*
X327344Y390073D01*
X327765Y390384D01*
X328241Y390656D01*
X328771Y390893D01*
X329355Y391092D01*
X329992Y391256D01*
X330684Y391383D01*
X331430Y391474D01*
X332229Y391528D01*
X333083Y391547D01*
X333923Y391527D01*
X334712Y391470D01*
X335450Y391375D01*
X336137Y391241D01*
X336772Y391069D01*
X337356Y390859D01*
X337890Y390611D01*
X338371Y390325D01*
X338799Y390001D01*
X339170Y389642D01*
X339334Y389448D01*
X339483Y389245D01*
X339619Y389034D01*
X339740Y388813D01*
X339847Y388583D01*
X339940Y388344D01*
X340018Y388096D01*
X340082Y387839D01*
X340132Y387573D01*
X340168Y387297D01*
X340189Y387013D01*
X340196Y386719D01*
X340189Y386426D01*
X340168Y386142D01*
X340132Y385867D01*
X340083Y385601D01*
X340019Y385345D01*
X339941Y385098D01*
X339849Y384860D01*
X339742Y384632D01*
X339622Y384413D01*
X339487Y384203D01*
X339338Y384002D01*
X339175Y383811D01*
X338807Y383456D01*
X338381Y383138D01*
X337901Y382858D01*
X337369Y382614D01*
X336785Y382409D01*
X336149Y382240D01*
X335461Y382109D01*
X334720Y382016D01*
X333928Y381960D01*
X333083Y381941D01*
G37*
%LPC*%
G36*
X333083Y383727D02*
X333794Y383738D01*
X334456Y383772D01*
X335068Y383828D01*
X335632Y383907D01*
X336145Y384009D01*
X336610Y384132D01*
X337025Y384279D01*
X337390Y384448D01*
X337710Y384642D01*
X337987Y384862D01*
X338221Y385108D01*
X338413Y385381D01*
X338562Y385681D01*
X338669Y386007D01*
X338733Y386360D01*
X338754Y386739D01*
X338732Y387116D01*
X338667Y387467D01*
X338558Y387792D01*
X338406Y388090D01*
X338210Y388363D01*
X337970Y388610D01*
X337687Y388830D01*
X337361Y389025D01*
X336989Y389195D01*
X336571Y389343D01*
X336106Y389467D01*
X335595Y389570D01*
X335037Y389649D01*
X334432Y389706D01*
X333781Y389740D01*
X333083Y389751D01*
X332361Y389740D01*
X331690Y389708D01*
X331070Y389654D01*
X330503Y389578D01*
X329986Y389481D01*
X329521Y389362D01*
X329108Y389221D01*
X328746Y389059D01*
X328431Y388872D01*
X328158Y388657D01*
X327927Y388414D01*
X327738Y388143D01*
X327591Y387844D01*
X327486Y387517D01*
X327423Y387162D01*
X327402Y386778D01*
X327423Y386385D01*
X327485Y386021D01*
X327588Y385686D01*
X327733Y385379D01*
X327920Y385101D01*
X328147Y384851D01*
X328416Y384630D01*
X328727Y384438D01*
X329085Y384271D01*
X329496Y384127D01*
X329960Y384005D01*
X330478Y383905D01*
X331049Y383827D01*
X331674Y383771D01*
X332352Y383738D01*
X333083Y383727D01*
G37*
%LPD*%
G36*
X333083Y393129D02*
X332221Y393147D01*
X331414Y393201D01*
X330663Y393292D01*
X329968Y393419D01*
X329329Y393583D01*
X328745Y393783D01*
X328217Y394019D01*
X327746Y394291D01*
X327531Y394442D01*
X327329Y394603D01*
X327142Y394775D01*
X326969Y394957D01*
X326809Y395150D01*
X326663Y395353D01*
X326532Y395567D01*
X326414Y395791D01*
X326310Y396026D01*
X326219Y396272D01*
X326143Y396528D01*
X326081Y396794D01*
X326032Y397071D01*
X325997Y397359D01*
X325977Y397657D01*
X325970Y397966D01*
X325977Y398266D01*
X325998Y398556D01*
X326033Y398837D01*
X326082Y399107D01*
X326145Y399368D01*
X326222Y399618D01*
X326313Y399858D01*
X326419Y400089D01*
X326538Y400309D01*
X326671Y400519D01*
X326818Y400720D01*
X326980Y400910D01*
X327155Y401090D01*
X327344Y401261D01*
X327765Y401571D01*
X328241Y401844D01*
X328771Y402080D01*
X329355Y402280D01*
X329992Y402443D01*
X330684Y402571D01*
X331430Y402661D01*
X332229Y402716D01*
X333083Y402734D01*
X333923Y402715D01*
X334712Y402658D01*
X335450Y402562D01*
X336137Y402429D01*
X336772Y402257D01*
X337356Y402047D01*
X337890Y401799D01*
X338371Y401513D01*
X338799Y401189D01*
X339170Y400829D01*
X339334Y400636D01*
X339483Y400433D01*
X339619Y400221D01*
X339740Y400000D01*
X339847Y399770D01*
X339940Y399531D01*
X340018Y399283D01*
X340082Y399026D01*
X340132Y398760D01*
X340168Y398485D01*
X340189Y398200D01*
X340196Y397907D01*
X340189Y397613D01*
X340168Y397329D01*
X340132Y397054D01*
X340083Y396789D01*
X340019Y396533D01*
X339941Y396286D01*
X339849Y396048D01*
X339742Y395819D01*
X339622Y395600D01*
X339487Y395390D01*
X339338Y395190D01*
X339175Y394998D01*
X338807Y394643D01*
X338381Y394326D01*
X337901Y394045D01*
X337369Y393802D01*
X336785Y393596D01*
X336149Y393428D01*
X335461Y393297D01*
X334720Y393203D01*
X333928Y393147D01*
X333083Y393129D01*
G37*
%LPC*%
G36*
X333083Y394914D02*
X333794Y394926D01*
X334456Y394959D01*
X335068Y395016D01*
X335632Y395095D01*
X336145Y395196D01*
X336610Y395320D01*
X337025Y395466D01*
X337390Y395635D01*
X337710Y395829D01*
X337987Y396049D01*
X338221Y396296D01*
X338413Y396569D01*
X338562Y396868D01*
X338669Y397195D01*
X338733Y397547D01*
X338754Y397926D01*
X338732Y398303D01*
X338667Y398654D01*
X338558Y398979D01*
X338406Y399278D01*
X338210Y399551D01*
X337970Y399797D01*
X337687Y400018D01*
X337361Y400212D01*
X336989Y400383D01*
X336571Y400530D01*
X336106Y400655D01*
X335595Y400757D01*
X335037Y400836D01*
X334432Y400893D01*
X333781Y400927D01*
X333083Y400939D01*
X332361Y400928D01*
X331690Y400895D01*
X331070Y400841D01*
X330503Y400766D01*
X329986Y400668D01*
X329521Y400549D01*
X329108Y400409D01*
X328746Y400247D01*
X328431Y400060D01*
X328158Y399845D01*
X327927Y399602D01*
X327738Y399331D01*
X327591Y399032D01*
X327486Y398704D01*
X327423Y398349D01*
X327402Y397966D01*
X327423Y397573D01*
X327485Y397209D01*
X327588Y396873D01*
X327733Y396566D01*
X327920Y396288D01*
X328147Y396039D01*
X328416Y395818D01*
X328727Y395626D01*
X329085Y395459D01*
X329496Y395314D01*
X329960Y395192D01*
X330478Y395092D01*
X331049Y395014D01*
X331674Y394959D01*
X332352Y394925D01*
X333083Y394914D01*
G37*
%LPD*%
G36*
X340000Y409947D02*
X338469Y409947D01*
X338469Y412341D01*
X338528Y413587D01*
X338577Y414382D01*
X338291Y413887D01*
X337988Y413423D01*
X337667Y412989D01*
X337328Y412587D01*
X336971Y412214D01*
X336597Y411873D01*
X336205Y411562D01*
X335796Y411282D01*
X335373Y411033D01*
X334940Y410818D01*
X334498Y410636D01*
X334046Y410487D01*
X333584Y410371D01*
X333113Y410288D01*
X332632Y410239D01*
X332141Y410222D01*
X331785Y410229D01*
X331439Y410249D01*
X331103Y410282D01*
X330776Y410328D01*
X330459Y410388D01*
X330152Y410461D01*
X329855Y410548D01*
X329567Y410648D01*
X329289Y410761D01*
X329020Y410887D01*
X328761Y411027D01*
X328512Y411180D01*
X328273Y411346D01*
X328043Y411525D01*
X327613Y411924D01*
X327228Y412370D01*
X326894Y412855D01*
X326746Y413112D01*
X326612Y413380D01*
X326490Y413657D01*
X326381Y413944D01*
X326284Y414241D01*
X326201Y414549D01*
X326130Y414866D01*
X326072Y415192D01*
X326028Y415529D01*
X325995Y415876D01*
X325976Y416233D01*
X325970Y416599D01*
X325976Y416966D01*
X325995Y417323D01*
X326028Y417670D01*
X326072Y418006D01*
X326130Y418333D01*
X326201Y418650D01*
X326284Y418958D01*
X326381Y419255D01*
X326490Y419542D01*
X326612Y419819D01*
X326746Y420087D01*
X326894Y420344D01*
X327228Y420829D01*
X327613Y421275D01*
X328043Y421674D01*
X328273Y421853D01*
X328512Y422019D01*
X328761Y422172D01*
X329020Y422312D01*
X329289Y422438D01*
X329567Y422551D01*
X329855Y422651D01*
X330152Y422737D01*
X330459Y422811D01*
X330776Y422870D01*
X331103Y422917D01*
X331439Y422950D01*
X331785Y422970D01*
X332141Y422977D01*
X332629Y422960D01*
X333108Y422911D01*
X333577Y422829D01*
X334037Y422713D01*
X334487Y422565D01*
X334928Y422384D01*
X335359Y422169D01*
X335781Y421922D01*
X336190Y421643D01*
X336581Y421333D01*
X336956Y420991D01*
X337314Y420618D01*
X337655Y420215D01*
X337979Y419780D01*
X338287Y419314D01*
X338577Y418817D01*
X338528Y419612D01*
X338469Y420858D01*
X338469Y423252D01*
X340000Y423252D01*
X340000Y417473D01*
X337802Y417473D01*
X337562Y417899D01*
X337307Y418298D01*
X337038Y418672D01*
X336754Y419019D01*
X336455Y419340D01*
X336142Y419635D01*
X335814Y419904D01*
X335472Y420146D01*
X335116Y420361D01*
X334748Y420548D01*
X334366Y420705D01*
X333972Y420834D01*
X333565Y420935D01*
X333146Y421006D01*
X332714Y421049D01*
X332269Y421064D01*
X331716Y421045D01*
X331195Y420991D01*
X330706Y420899D01*
X330250Y420772D01*
X329826Y420608D01*
X329434Y420407D01*
X329074Y420170D01*
X328746Y419896D01*
X328454Y419589D01*
X328201Y419253D01*
X327987Y418887D01*
X327812Y418491D01*
X327676Y418065D01*
X327578Y417609D01*
X327520Y417124D01*
X327500Y416609D01*
X327520Y416090D01*
X327578Y415601D01*
X327676Y415142D01*
X327812Y414713D01*
X327987Y414315D01*
X328201Y413947D01*
X328454Y413610D01*
X328746Y413303D01*
X329074Y413029D01*
X329434Y412792D01*
X329826Y412591D01*
X330250Y412427D01*
X330706Y412299D01*
X331195Y412208D01*
X331716Y412154D01*
X332269Y412135D01*
X332711Y412150D01*
X333142Y412192D01*
X333559Y412264D01*
X333965Y412363D01*
X334358Y412492D01*
X334738Y412649D01*
X335107Y412834D01*
X335462Y413048D01*
X335805Y413289D01*
X336133Y413557D01*
X336447Y413852D01*
X336746Y414174D01*
X337032Y414522D01*
X337303Y414897D01*
X337560Y415298D01*
X337802Y415726D01*
X340000Y415726D01*
X340000Y409947D01*
G37*
G36*
X340000Y371531D02*
X338499Y371531D01*
X338499Y375053D01*
X327863Y375053D01*
X330091Y371933D01*
X328423Y371933D01*
X326176Y375200D01*
X326176Y376829D01*
X338499Y376829D01*
X338499Y380194D01*
X340000Y380194D01*
X340000Y371531D01*
G37*
G36*
X391150Y390007D02*
X378809Y390007D01*
X378809Y395814D01*
X378824Y396320D01*
X378868Y396797D01*
X378940Y397244D01*
X379042Y397661D01*
X379174Y398048D01*
X379334Y398406D01*
X379523Y398734D01*
X379742Y399033D01*
X379987Y399298D01*
X380254Y399529D01*
X380544Y399724D01*
X380858Y399883D01*
X381194Y400007D01*
X381553Y400096D01*
X381934Y400149D01*
X382339Y400167D01*
X382676Y400154D01*
X382999Y400117D01*
X383309Y400054D01*
X383605Y399966D01*
X383887Y399854D01*
X384155Y399716D01*
X384410Y399553D01*
X384651Y399365D01*
X384875Y399155D01*
X385077Y398927D01*
X385257Y398679D01*
X385323Y398568D01*
X385415Y398412D01*
X385552Y398126D01*
X385668Y397821D01*
X385761Y397497D01*
X385834Y397154D01*
X388097Y398645D01*
X391150Y400657D01*
X391150Y398730D01*
X386026Y395525D01*
X386026Y391680D01*
X391150Y391680D01*
X391150Y390007D01*
G37*
%LPC*%
G36*
X384704Y391680D02*
X384704Y395717D01*
X384694Y396039D01*
X384665Y396341D01*
X384617Y396625D01*
X384549Y396890D01*
X384463Y397136D01*
X384356Y397364D01*
X384231Y397573D01*
X384086Y397763D01*
X383924Y397932D01*
X383747Y398079D01*
X383554Y398203D01*
X383345Y398304D01*
X383121Y398384D01*
X382882Y398440D01*
X382627Y398474D01*
X382356Y398485D01*
X382095Y398474D01*
X381850Y398439D01*
X381621Y398382D01*
X381407Y398302D01*
X381210Y398199D01*
X381029Y398074D01*
X380863Y397925D01*
X380714Y397754D01*
X380582Y397561D01*
X380467Y397348D01*
X380370Y397115D01*
X380291Y396861D01*
X380229Y396588D01*
X380185Y396295D01*
X380158Y395981D01*
X380149Y395647D01*
X380149Y391680D01*
X384704Y391680D01*
G37*
%LPD*%
G36*
X391150Y402839D02*
X389810Y402839D01*
X389810Y405984D01*
X380316Y405984D01*
X382304Y403198D01*
X380815Y403198D01*
X378809Y406115D01*
X378809Y407569D01*
X389810Y407569D01*
X389810Y410573D01*
X391150Y410573D01*
X391150Y402839D01*
G37*
G36*
X280750Y140007D02*
X268409Y140007D01*
X268409Y145814D01*
X268424Y146320D01*
X268468Y146797D01*
X268540Y147244D01*
X268642Y147661D01*
X268774Y148048D01*
X268934Y148406D01*
X269123Y148734D01*
X269342Y149033D01*
X269587Y149298D01*
X269854Y149529D01*
X270144Y149724D01*
X270458Y149883D01*
X270794Y150007D01*
X271153Y150096D01*
X271534Y150149D01*
X271939Y150167D01*
X272276Y150154D01*
X272599Y150117D01*
X272909Y150054D01*
X273205Y149966D01*
X273487Y149854D01*
X273755Y149716D01*
X274010Y149553D01*
X274251Y149365D01*
X274475Y149155D01*
X274677Y148927D01*
X274857Y148679D01*
X274923Y148568D01*
X275015Y148412D01*
X275152Y148126D01*
X275268Y147821D01*
X275361Y147497D01*
X275434Y147154D01*
X277697Y148645D01*
X280750Y150657D01*
X280750Y148730D01*
X275626Y145525D01*
X275626Y141680D01*
X280750Y141680D01*
X280750Y140007D01*
G37*
%LPC*%
G36*
X274304Y141680D02*
X274304Y145717D01*
X274294Y146039D01*
X274265Y146341D01*
X274217Y146625D01*
X274149Y146890D01*
X274063Y147136D01*
X273956Y147364D01*
X273831Y147573D01*
X273686Y147763D01*
X273524Y147932D01*
X273347Y148079D01*
X273154Y148203D01*
X272945Y148304D01*
X272721Y148384D01*
X272482Y148440D01*
X272227Y148474D01*
X271956Y148485D01*
X271695Y148474D01*
X271450Y148439D01*
X271221Y148382D01*
X271007Y148302D01*
X270810Y148199D01*
X270629Y148074D01*
X270463Y147925D01*
X270314Y147754D01*
X270182Y147561D01*
X270067Y147348D01*
X269970Y147115D01*
X269891Y146861D01*
X269829Y146588D01*
X269785Y146295D01*
X269758Y145981D01*
X269749Y145647D01*
X269749Y141680D01*
X274304Y141680D01*
G37*
%LPD*%
G36*
X280750Y152375D02*
X279638Y152375D01*
X279140Y152611D01*
X278673Y152871D01*
X278236Y153156D01*
X277829Y153465D01*
X277446Y153791D01*
X277082Y154126D01*
X276737Y154468D01*
X276410Y154819D01*
X275798Y155525D01*
X275232Y156224D01*
X274689Y156887D01*
X274146Y157481D01*
X273871Y157748D01*
X273590Y157988D01*
X273302Y158201D01*
X273007Y158388D01*
X272700Y158539D01*
X272372Y158647D01*
X272025Y158712D01*
X271659Y158734D01*
X271412Y158724D01*
X271179Y158697D01*
X270961Y158650D01*
X270757Y158585D01*
X270567Y158501D01*
X270391Y158399D01*
X270229Y158278D01*
X270082Y158138D01*
X269951Y157982D01*
X269837Y157811D01*
X269741Y157626D01*
X269662Y157427D01*
X269600Y157212D01*
X269557Y156984D01*
X269530Y156740D01*
X269522Y156483D01*
X269530Y156237D01*
X269556Y156001D01*
X269599Y155777D01*
X269658Y155564D01*
X269735Y155362D01*
X269829Y155171D01*
X269941Y154992D01*
X270069Y154823D01*
X270213Y154668D01*
X270370Y154530D01*
X270542Y154409D01*
X270727Y154305D01*
X270926Y154218D01*
X271139Y154147D01*
X271366Y154094D01*
X271606Y154057D01*
X271457Y152445D01*
X271097Y152503D01*
X270755Y152589D01*
X270432Y152704D01*
X270128Y152847D01*
X269843Y153018D01*
X269577Y153218D01*
X269330Y153446D01*
X269101Y153702D01*
X268896Y153982D01*
X268718Y154281D01*
X268567Y154600D01*
X268444Y154938D01*
X268348Y155295D01*
X268280Y155672D01*
X268239Y156068D01*
X268225Y156483D01*
X268239Y156936D01*
X268280Y157362D01*
X268349Y157761D01*
X268445Y158133D01*
X268569Y158478D01*
X268720Y158796D01*
X268899Y159087D01*
X269106Y159351D01*
X269337Y159586D01*
X269592Y159790D01*
X269870Y159962D01*
X270171Y160103D01*
X270495Y160213D01*
X270842Y160291D01*
X271213Y160338D01*
X271606Y160354D01*
X271965Y160334D01*
X272322Y160272D01*
X272678Y160169D01*
X273034Y160026D01*
X273388Y159841D01*
X273743Y159617D01*
X274098Y159353D01*
X274453Y159049D01*
X274856Y158651D01*
X275357Y158105D01*
X275955Y157412D01*
X276651Y156570D01*
X277053Y156092D01*
X277434Y155666D01*
X277795Y155291D01*
X278136Y154968D01*
X278463Y154691D01*
X278785Y154455D01*
X279100Y154261D01*
X279410Y154109D01*
X279410Y160547D01*
X280750Y160547D01*
X280750Y152375D01*
G37*
G36*
X280750Y340007D02*
X268409Y340007D01*
X268409Y345814D01*
X268424Y346320D01*
X268468Y346797D01*
X268540Y347244D01*
X268642Y347661D01*
X268774Y348048D01*
X268934Y348406D01*
X269123Y348734D01*
X269342Y349033D01*
X269587Y349298D01*
X269854Y349529D01*
X270144Y349724D01*
X270458Y349883D01*
X270794Y350007D01*
X271153Y350096D01*
X271534Y350149D01*
X271939Y350167D01*
X272276Y350154D01*
X272599Y350117D01*
X272909Y350054D01*
X273205Y349966D01*
X273487Y349854D01*
X273755Y349716D01*
X274010Y349553D01*
X274251Y349365D01*
X274475Y349155D01*
X274677Y348927D01*
X274857Y348679D01*
X274923Y348568D01*
X275015Y348412D01*
X275152Y348126D01*
X275268Y347821D01*
X275361Y347497D01*
X275434Y347154D01*
X277697Y348645D01*
X280750Y350657D01*
X280750Y348730D01*
X275626Y345525D01*
X275626Y341680D01*
X280750Y341680D01*
X280750Y340007D01*
G37*
%LPC*%
G36*
X274304Y341680D02*
X274304Y345717D01*
X274294Y346039D01*
X274265Y346341D01*
X274217Y346625D01*
X274149Y346890D01*
X274063Y347136D01*
X273956Y347364D01*
X273831Y347573D01*
X273686Y347763D01*
X273524Y347932D01*
X273347Y348079D01*
X273154Y348203D01*
X272945Y348304D01*
X272721Y348384D01*
X272482Y348440D01*
X272227Y348474D01*
X271956Y348485D01*
X271695Y348474D01*
X271450Y348439D01*
X271221Y348382D01*
X271007Y348302D01*
X270810Y348199D01*
X270629Y348074D01*
X270463Y347925D01*
X270314Y347754D01*
X270182Y347561D01*
X270067Y347348D01*
X269970Y347115D01*
X269891Y346861D01*
X269829Y346588D01*
X269785Y346295D01*
X269758Y345981D01*
X269749Y345647D01*
X269749Y341680D01*
X274304Y341680D01*
G37*
%LPD*%
G36*
X277579Y352156D02*
X277431Y353785D01*
X277696Y353833D01*
X277944Y353896D01*
X278175Y353976D01*
X278389Y354071D01*
X278585Y354183D01*
X278765Y354311D01*
X278927Y354455D01*
X279073Y354615D01*
X279201Y354791D01*
X279312Y354983D01*
X279406Y355192D01*
X279483Y355416D01*
X279543Y355656D01*
X279586Y355913D01*
X279612Y356185D01*
X279620Y356474D01*
X279611Y356764D01*
X279584Y357038D01*
X279538Y357295D01*
X279473Y357537D01*
X279391Y357763D01*
X279290Y357973D01*
X279171Y358166D01*
X279033Y358344D01*
X278878Y358503D01*
X278704Y358641D01*
X278513Y358758D01*
X278304Y358853D01*
X278077Y358927D01*
X277833Y358980D01*
X277571Y359012D01*
X277290Y359023D01*
X277046Y359011D01*
X276814Y358974D01*
X276597Y358914D01*
X276394Y358829D01*
X276204Y358720D01*
X276028Y358587D01*
X275866Y358429D01*
X275718Y358248D01*
X275586Y358043D01*
X275471Y357817D01*
X275374Y357570D01*
X275295Y357301D01*
X275233Y357010D01*
X275189Y356698D01*
X275162Y356365D01*
X275153Y356010D01*
X275153Y355116D01*
X273787Y355116D01*
X273787Y355975D01*
X273778Y356290D01*
X273752Y356587D01*
X273708Y356865D01*
X273646Y357125D01*
X273566Y357368D01*
X273469Y357592D01*
X273354Y357797D01*
X273222Y357985D01*
X273074Y358152D01*
X272913Y358297D01*
X272737Y358420D01*
X272549Y358520D01*
X272347Y358598D01*
X272131Y358654D01*
X271902Y358688D01*
X271659Y358699D01*
X271418Y358690D01*
X271190Y358662D01*
X270975Y358617D01*
X270773Y358553D01*
X270584Y358471D01*
X270408Y358371D01*
X270245Y358253D01*
X270095Y358116D01*
X269961Y357962D01*
X269844Y357790D01*
X269746Y357600D01*
X269665Y357393D01*
X269602Y357168D01*
X269557Y356925D01*
X269531Y356664D01*
X269522Y356386D01*
X269530Y356132D01*
X269555Y355890D01*
X269597Y355661D01*
X269655Y355444D01*
X269730Y355239D01*
X269822Y355047D01*
X269931Y354868D01*
X270056Y354700D01*
X270196Y354548D01*
X270350Y354412D01*
X270518Y354293D01*
X270700Y354191D01*
X270895Y354106D01*
X271104Y354038D01*
X271326Y353986D01*
X271562Y353952D01*
X271440Y352366D01*
X271071Y352424D01*
X270724Y352511D01*
X270397Y352625D01*
X270091Y352768D01*
X269806Y352939D01*
X269541Y353139D01*
X269298Y353367D01*
X269075Y353623D01*
X268876Y353903D01*
X268703Y354203D01*
X268557Y354521D01*
X268438Y354859D01*
X268345Y355216D01*
X268278Y355593D01*
X268239Y355989D01*
X268225Y356404D01*
X268239Y356855D01*
X268279Y357281D01*
X268347Y357680D01*
X268441Y358054D01*
X268562Y358402D01*
X268711Y358724D01*
X268886Y359020D01*
X269088Y359290D01*
X269314Y359531D01*
X269562Y359740D01*
X269831Y359917D01*
X270120Y360062D01*
X270432Y360174D01*
X270764Y360255D01*
X271117Y360303D01*
X271492Y360319D01*
X271781Y360309D01*
X272056Y360278D01*
X272317Y360226D01*
X272564Y360154D01*
X272797Y360061D01*
X273017Y359947D01*
X273223Y359813D01*
X273415Y359658D01*
X273592Y359483D01*
X273755Y359290D01*
X273903Y359077D01*
X274036Y358847D01*
X274153Y358597D01*
X274256Y358328D01*
X274344Y358041D01*
X274418Y357735D01*
X274453Y357735D01*
X274500Y358072D01*
X274566Y358389D01*
X274653Y358687D01*
X274759Y358966D01*
X274885Y359226D01*
X275031Y359466D01*
X275196Y359688D01*
X275381Y359890D01*
X275582Y360071D01*
X275796Y360227D01*
X276022Y360360D01*
X276261Y360468D01*
X276513Y360552D01*
X276777Y360612D01*
X277054Y360649D01*
X277343Y360661D01*
X277758Y360644D01*
X278149Y360593D01*
X278516Y360508D01*
X278858Y360389D01*
X279177Y360236D01*
X279471Y360050D01*
X279742Y359829D01*
X279988Y359575D01*
X280208Y359289D01*
X280398Y358974D01*
X280559Y358629D01*
X280691Y358256D01*
X280793Y357854D01*
X280867Y357423D01*
X280911Y356963D01*
X280925Y356474D01*
X280912Y356017D01*
X280872Y355584D01*
X280806Y355175D01*
X280714Y354789D01*
X280595Y354427D01*
X280450Y354089D01*
X280278Y353774D01*
X280080Y353483D01*
X279856Y353218D01*
X279607Y352981D01*
X279332Y352773D01*
X279032Y352593D01*
X278707Y352441D01*
X278356Y352318D01*
X277981Y352223D01*
X277579Y352156D01*
G37*
G36*
X300000Y42061D02*
X282714Y42061D01*
X282714Y54341D01*
X284628Y54341D01*
X284628Y44404D01*
X291057Y44404D01*
X291057Y54047D01*
X292995Y54047D01*
X292995Y44404D01*
X300000Y44404D01*
X300000Y42061D01*
G37*
G36*
X300000Y57258D02*
X298123Y57258D01*
X298123Y61662D01*
X284824Y61662D01*
X287609Y57761D01*
X285524Y57761D01*
X282714Y61846D01*
X282714Y63882D01*
X298123Y63882D01*
X298123Y68090D01*
X300000Y68090D01*
X300000Y57258D01*
G37*
G36*
X560900Y194211D02*
X551182Y194211D01*
X551182Y198301D01*
X551194Y198698D01*
X551230Y199072D01*
X551290Y199423D01*
X551374Y199751D01*
X551481Y200056D01*
X551613Y200338D01*
X551768Y200596D01*
X551948Y200832D01*
X552149Y201042D01*
X552370Y201224D01*
X552610Y201378D01*
X552870Y201505D01*
X553150Y201603D01*
X553449Y201673D01*
X553768Y201715D01*
X554107Y201729D01*
X554443Y201715D01*
X554761Y201672D01*
X555062Y201602D01*
X555345Y201504D01*
X555610Y201377D01*
X555857Y201222D01*
X556087Y201040D01*
X556300Y200829D01*
X556490Y200594D01*
X556656Y200338D01*
X556796Y200063D01*
X556910Y199767D01*
X556999Y199452D01*
X557063Y199116D01*
X557101Y198760D01*
X557114Y198384D01*
X557114Y195528D01*
X560900Y195528D01*
X560900Y194211D01*
G37*
%LPC*%
G36*
X556072Y195528D02*
X556072Y198197D01*
X556065Y198465D01*
X556042Y198715D01*
X556004Y198947D01*
X555950Y199163D01*
X555882Y199361D01*
X555798Y199542D01*
X555699Y199706D01*
X555584Y199853D01*
X555455Y199982D01*
X555310Y200094D01*
X555150Y200189D01*
X554974Y200267D01*
X554784Y200327D01*
X554578Y200370D01*
X554357Y200396D01*
X554120Y200404D01*
X553892Y200396D01*
X553679Y200369D01*
X553480Y200325D01*
X553297Y200263D01*
X553127Y200184D01*
X552973Y200086D01*
X552833Y199971D01*
X552708Y199839D01*
X552598Y199689D01*
X552502Y199521D01*
X552421Y199335D01*
X552355Y199132D01*
X552304Y198911D01*
X552267Y198672D01*
X552245Y198416D01*
X552237Y198142D01*
X552237Y195528D01*
X556072Y195528D01*
G37*
%LPD*%
G36*
X560900Y182461D02*
X551182Y182461D01*
X551182Y184192D01*
X557921Y186779D01*
X558793Y187044D01*
X559465Y187213D01*
X559118Y187298D01*
X558627Y187444D01*
X557921Y187682D01*
X551182Y190220D01*
X551182Y191910D01*
X560900Y191910D01*
X560900Y190724D01*
X554417Y190724D01*
X553362Y190739D01*
X552348Y190786D01*
X553448Y190465D01*
X554279Y190179D01*
X560900Y187668D01*
X560900Y186744D01*
X554279Y184199D01*
X553106Y183813D01*
X552348Y183585D01*
X553113Y183606D01*
X554417Y183633D01*
X560900Y183633D01*
X560900Y182461D01*
G37*
G36*
X560900Y171924D02*
X551182Y175889D01*
X551182Y177386D01*
X560900Y181290D01*
X560900Y179945D01*
X558058Y178834D01*
X558058Y174407D01*
X560900Y173289D01*
X560900Y171924D01*
G37*
%LPC*%
G36*
X557031Y174807D02*
X557031Y178441D01*
X553824Y177193D01*
X553317Y177000D01*
X552748Y176807D01*
X552175Y176620D01*
X552368Y176558D01*
X553022Y176345D01*
X553838Y176048D01*
X557031Y174807D01*
G37*
%LPD*%
G36*
X555996Y313738D02*
X555429Y313758D01*
X554894Y313818D01*
X554391Y313917D01*
X553919Y314057D01*
X553480Y314236D01*
X553072Y314456D01*
X552696Y314715D01*
X552351Y315014D01*
X552043Y315348D01*
X551776Y315714D01*
X551551Y316111D01*
X551366Y316540D01*
X551222Y316999D01*
X551119Y317490D01*
X551058Y318012D01*
X551037Y318566D01*
X551047Y318930D01*
X551074Y319283D01*
X551120Y319623D01*
X551185Y319950D01*
X551268Y320266D01*
X551369Y320569D01*
X551489Y320860D01*
X551627Y321138D01*
X551783Y321403D01*
X551955Y321651D01*
X552144Y321883D01*
X552350Y322100D01*
X552573Y322300D01*
X552812Y322484D01*
X553068Y322652D01*
X553341Y322804D01*
X553628Y322939D01*
X553928Y323056D01*
X554241Y323155D01*
X554567Y323236D01*
X554905Y323299D01*
X555256Y323344D01*
X555620Y323371D01*
X555996Y323380D01*
X556371Y323371D01*
X556735Y323343D01*
X557086Y323298D01*
X557426Y323234D01*
X557753Y323152D01*
X558069Y323052D01*
X558373Y322934D01*
X558665Y322797D01*
X558943Y322643D01*
X559205Y322474D01*
X559449Y322289D01*
X559678Y322088D01*
X559889Y321871D01*
X560084Y321638D01*
X560262Y321389D01*
X560424Y321125D01*
X560568Y320846D01*
X560693Y320555D01*
X560798Y320252D01*
X560885Y319937D01*
X560952Y319609D01*
X561000Y319269D01*
X561028Y318917D01*
X561038Y318552D01*
X561028Y318184D01*
X561000Y317829D01*
X560953Y317487D01*
X560886Y317158D01*
X560801Y316841D01*
X560697Y316538D01*
X560573Y316247D01*
X560431Y315969D01*
X560271Y315706D01*
X560094Y315458D01*
X559900Y315227D01*
X559689Y315011D01*
X559461Y314812D01*
X559216Y314629D01*
X558954Y314462D01*
X558676Y314310D01*
X558383Y314176D01*
X558078Y314060D01*
X557761Y313962D01*
X557432Y313881D01*
X557091Y313818D01*
X556738Y313774D01*
X556373Y313747D01*
X555996Y313738D01*
G37*
%LPC*%
G36*
X555996Y315076D02*
X556441Y315090D01*
X556863Y315133D01*
X557261Y315205D01*
X557635Y315306D01*
X557986Y315436D01*
X558313Y315594D01*
X558617Y315781D01*
X558896Y315997D01*
X559148Y316238D01*
X559366Y316502D01*
X559550Y316788D01*
X559701Y317096D01*
X559818Y317426D01*
X559902Y317779D01*
X559952Y318155D01*
X559969Y318552D01*
X559953Y318960D01*
X559904Y319345D01*
X559823Y319704D01*
X559709Y320039D01*
X559563Y320350D01*
X559385Y320636D01*
X559174Y320898D01*
X558931Y321135D01*
X558658Y321346D01*
X558358Y321529D01*
X558032Y321683D01*
X557678Y321810D01*
X557298Y321908D01*
X556891Y321979D01*
X556457Y322021D01*
X555996Y322035D01*
X555555Y322021D01*
X555138Y321978D01*
X554745Y321907D01*
X554377Y321808D01*
X554033Y321681D01*
X553714Y321525D01*
X553419Y321341D01*
X553148Y321128D01*
X552905Y320890D01*
X552695Y320628D01*
X552517Y320343D01*
X552372Y320034D01*
X552259Y319702D01*
X552178Y319347D01*
X552129Y318968D01*
X552113Y318566D01*
X552129Y318160D01*
X552177Y317779D01*
X552257Y317421D01*
X552368Y317086D01*
X552512Y316776D01*
X552687Y316489D01*
X552895Y316226D01*
X553134Y315986D01*
X553402Y315773D01*
X553696Y315588D01*
X554015Y315432D01*
X554360Y315304D01*
X554731Y315204D01*
X555127Y315133D01*
X555549Y315090D01*
X555996Y315076D01*
G37*
%LPD*%
G36*
X560900Y325228D02*
X551182Y325228D01*
X551182Y328759D01*
X551191Y329173D01*
X551219Y329561D01*
X551265Y329921D01*
X551330Y330255D01*
X551413Y330563D01*
X551514Y330843D01*
X551634Y331097D01*
X551772Y331325D01*
X551929Y331525D01*
X552104Y331699D01*
X552297Y331846D01*
X552509Y331966D01*
X552739Y332059D01*
X552988Y332126D01*
X553255Y332166D01*
X553541Y332180D01*
X553752Y332172D01*
X553955Y332150D01*
X554149Y332112D01*
X554334Y332059D01*
X554511Y331991D01*
X554679Y331908D01*
X554838Y331810D01*
X554989Y331697D01*
X555130Y331570D01*
X555202Y331492D01*
X555258Y331431D01*
X555375Y331279D01*
X555479Y331114D01*
X555571Y330937D01*
X555651Y330748D01*
X555720Y330546D01*
X555776Y330331D01*
X555818Y330613D01*
X555876Y330878D01*
X555949Y331126D01*
X556039Y331357D01*
X556143Y331572D01*
X556264Y331771D01*
X556400Y331952D01*
X556470Y332029D01*
X556551Y332118D01*
X556716Y332265D01*
X556891Y332392D01*
X557077Y332500D01*
X557273Y332588D01*
X557480Y332657D01*
X557697Y332706D01*
X557924Y332735D01*
X558162Y332745D01*
X558477Y332731D01*
X558774Y332686D01*
X559053Y332612D01*
X559315Y332509D01*
X559558Y332376D01*
X559783Y332214D01*
X559990Y332022D01*
X560179Y331800D01*
X560348Y331553D01*
X560495Y331282D01*
X560618Y330988D01*
X560720Y330671D01*
X560799Y330331D01*
X560855Y329968D01*
X560889Y329582D01*
X560900Y329173D01*
X560900Y325228D01*
G37*
%LPC*%
G36*
X559845Y326545D02*
X559845Y329104D01*
X559838Y329395D01*
X559817Y329666D01*
X559782Y329917D01*
X559733Y330147D01*
X559670Y330356D01*
X559593Y330546D01*
X559502Y330714D01*
X559396Y330862D01*
X559278Y330992D01*
X559145Y331104D01*
X558998Y331199D01*
X558838Y331276D01*
X558664Y331337D01*
X558476Y331380D01*
X558274Y331406D01*
X558058Y331414D01*
X557851Y331405D01*
X557656Y331376D01*
X557475Y331329D01*
X557307Y331263D01*
X557153Y331178D01*
X557012Y331075D01*
X556885Y330952D01*
X556770Y330811D01*
X556670Y330650D01*
X556583Y330471D01*
X556509Y330273D01*
X556448Y330056D01*
X556402Y329821D01*
X556368Y329566D01*
X556348Y329293D01*
X556341Y329000D01*
X556341Y326545D01*
X559845Y326545D01*
G37*
G36*
X555313Y326545D02*
X555313Y328759D01*
X555307Y329014D01*
X555289Y329253D01*
X555258Y329475D01*
X555214Y329680D01*
X555159Y329869D01*
X555090Y330041D01*
X555010Y330196D01*
X554917Y330335D01*
X554811Y330457D01*
X554692Y330563D01*
X554560Y330652D01*
X554414Y330725D01*
X554255Y330782D01*
X554083Y330823D01*
X553898Y330847D01*
X553700Y330856D01*
X553510Y330847D01*
X553334Y330822D01*
X553173Y330780D01*
X553025Y330721D01*
X552892Y330645D01*
X552772Y330553D01*
X552667Y330444D01*
X552575Y330318D01*
X552496Y330176D01*
X552428Y330018D01*
X552322Y329659D01*
X552259Y329239D01*
X552237Y328759D01*
X552237Y326545D01*
X555313Y326545D01*
G37*
%LPD*%
G36*
X560900Y304040D02*
X551182Y304040D01*
X551182Y308613D01*
X551194Y309011D01*
X551228Y309387D01*
X551285Y309739D01*
X551366Y310067D01*
X551469Y310372D01*
X551595Y310654D01*
X551745Y310912D01*
X551917Y311147D01*
X552109Y311357D01*
X552320Y311538D01*
X552549Y311692D01*
X552795Y311817D01*
X553060Y311915D01*
X553342Y311985D01*
X553643Y312027D01*
X553962Y312041D01*
X554227Y312031D01*
X554482Y312001D01*
X554725Y311952D01*
X554958Y311883D01*
X555181Y311794D01*
X555392Y311686D01*
X555593Y311557D01*
X555782Y311410D01*
X555958Y311244D01*
X556117Y311064D01*
X556259Y310869D01*
X556311Y310782D01*
X556384Y310659D01*
X556492Y310433D01*
X556583Y310193D01*
X556657Y309938D01*
X556714Y309668D01*
X558496Y310842D01*
X560900Y312427D01*
X560900Y310909D01*
X556865Y308385D01*
X556865Y305357D01*
X560900Y305357D01*
X560900Y304040D01*
G37*
%LPC*%
G36*
X555824Y305357D02*
X555824Y308537D01*
X555816Y308790D01*
X555793Y309028D01*
X555755Y309252D01*
X555702Y309460D01*
X555634Y309654D01*
X555550Y309833D01*
X555452Y309998D01*
X555338Y310147D01*
X555210Y310281D01*
X555070Y310396D01*
X554918Y310494D01*
X554754Y310574D01*
X554578Y310636D01*
X554389Y310681D01*
X554188Y310707D01*
X553975Y310716D01*
X553770Y310707D01*
X553577Y310680D01*
X553396Y310635D01*
X553228Y310572D01*
X553073Y310491D01*
X552930Y310392D01*
X552800Y310275D01*
X552682Y310140D01*
X552578Y309989D01*
X552488Y309821D01*
X552411Y309637D01*
X552349Y309438D01*
X552300Y309223D01*
X552265Y308991D01*
X552244Y308745D01*
X552237Y308482D01*
X552237Y305357D01*
X555824Y305357D01*
G37*
%LPD*%
G36*
X560900Y294634D02*
X551182Y294634D01*
X551182Y298724D01*
X551194Y299121D01*
X551230Y299495D01*
X551290Y299846D01*
X551374Y300174D01*
X551481Y300479D01*
X551613Y300761D01*
X551768Y301019D01*
X551948Y301255D01*
X552149Y301465D01*
X552370Y301647D01*
X552610Y301801D01*
X552870Y301927D01*
X553150Y302025D01*
X553449Y302096D01*
X553768Y302138D01*
X554107Y302152D01*
X554443Y302137D01*
X554761Y302095D01*
X555062Y302025D01*
X555345Y301927D01*
X555610Y301800D01*
X555857Y301645D01*
X556087Y301462D01*
X556300Y301251D01*
X556490Y301016D01*
X556656Y300761D01*
X556796Y300486D01*
X556910Y300190D01*
X556999Y299875D01*
X557063Y299539D01*
X557101Y299183D01*
X557114Y298807D01*
X557114Y295951D01*
X560900Y295951D01*
X560900Y294634D01*
G37*
%LPC*%
G36*
X556072Y295951D02*
X556072Y298620D01*
X556065Y298888D01*
X556042Y299138D01*
X556004Y299370D01*
X555950Y299586D01*
X555882Y299784D01*
X555798Y299965D01*
X555699Y300129D01*
X555584Y300276D01*
X555455Y300405D01*
X555310Y300517D01*
X555150Y300612D01*
X554974Y300689D01*
X554784Y300750D01*
X554578Y300793D01*
X554357Y300819D01*
X554120Y300827D01*
X553892Y300818D01*
X553679Y300792D01*
X553480Y300748D01*
X553297Y300686D01*
X553127Y300606D01*
X552973Y300509D01*
X552833Y300394D01*
X552708Y300262D01*
X552598Y300112D01*
X552502Y299944D01*
X552421Y299758D01*
X552355Y299555D01*
X552304Y299334D01*
X552267Y299095D01*
X552245Y298839D01*
X552237Y298565D01*
X552237Y295951D01*
X556072Y295951D01*
G37*
%LPD*%
G36*
X560900Y334634D02*
X551182Y334634D01*
X551182Y342007D01*
X552258Y342007D01*
X552258Y335951D01*
X555376Y335951D01*
X555376Y341593D01*
X556438Y341593D01*
X556438Y335951D01*
X559824Y335951D01*
X559824Y342289D01*
X560900Y342289D01*
X560900Y334634D01*
G37*
G36*
X75196Y298564D02*
X74629Y298584D01*
X74094Y298644D01*
X73591Y298743D01*
X73119Y298883D01*
X72680Y299062D01*
X72272Y299281D01*
X71896Y299541D01*
X71551Y299840D01*
X71243Y300174D01*
X70976Y300540D01*
X70751Y300937D01*
X70566Y301366D01*
X70422Y301825D01*
X70319Y302316D01*
X70258Y302838D01*
X70237Y303392D01*
X70247Y303756D01*
X70274Y304108D01*
X70320Y304448D01*
X70385Y304776D01*
X70468Y305092D01*
X70569Y305395D01*
X70689Y305686D01*
X70827Y305964D01*
X70983Y306229D01*
X71155Y306477D01*
X71344Y306709D01*
X71550Y306925D01*
X71773Y307126D01*
X72012Y307310D01*
X72268Y307478D01*
X72541Y307630D01*
X72828Y307765D01*
X73128Y307882D01*
X73441Y307981D01*
X73767Y308062D01*
X74105Y308125D01*
X74456Y308170D01*
X74820Y308197D01*
X75196Y308206D01*
X75571Y308197D01*
X75935Y308169D01*
X76286Y308124D01*
X76626Y308060D01*
X76953Y307978D01*
X77269Y307878D01*
X77573Y307760D01*
X77865Y307623D01*
X78143Y307469D01*
X78405Y307300D01*
X78649Y307115D01*
X78878Y306913D01*
X79089Y306696D01*
X79284Y306464D01*
X79462Y306215D01*
X79624Y305950D01*
X79768Y305672D01*
X79893Y305381D01*
X79998Y305078D01*
X80085Y304762D01*
X80152Y304435D01*
X80200Y304095D01*
X80228Y303742D01*
X80238Y303378D01*
X80228Y303010D01*
X80200Y302655D01*
X80153Y302313D01*
X80086Y301984D01*
X80001Y301667D01*
X79897Y301364D01*
X79773Y301073D01*
X79631Y300795D01*
X79471Y300531D01*
X79294Y300284D01*
X79100Y300052D01*
X78889Y299837D01*
X78661Y299638D01*
X78416Y299455D01*
X78154Y299287D01*
X77876Y299136D01*
X77583Y299002D01*
X77278Y298886D01*
X76961Y298787D01*
X76632Y298707D01*
X76291Y298644D01*
X75938Y298600D01*
X75573Y298573D01*
X75196Y298564D01*
G37*
%LPC*%
G36*
X75196Y299902D02*
X75641Y299916D01*
X76063Y299959D01*
X76461Y300031D01*
X76835Y300132D01*
X77186Y300261D01*
X77513Y300420D01*
X77817Y300607D01*
X78096Y300823D01*
X78348Y301064D01*
X78566Y301328D01*
X78750Y301613D01*
X78901Y301922D01*
X79018Y302252D01*
X79102Y302605D01*
X79152Y302980D01*
X79169Y303378D01*
X79153Y303786D01*
X79104Y304170D01*
X79023Y304530D01*
X78909Y304865D01*
X78763Y305176D01*
X78585Y305462D01*
X78374Y305724D01*
X78131Y305961D01*
X77858Y306172D01*
X77558Y306355D01*
X77232Y306509D01*
X76878Y306636D01*
X76498Y306734D01*
X76091Y306805D01*
X75657Y306847D01*
X75196Y306861D01*
X74755Y306847D01*
X74338Y306804D01*
X73945Y306733D01*
X73577Y306634D01*
X73233Y306507D01*
X72914Y306351D01*
X72619Y306166D01*
X72348Y305954D01*
X72105Y305715D01*
X71895Y305454D01*
X71717Y305168D01*
X71572Y304860D01*
X71459Y304528D01*
X71378Y304173D01*
X71329Y303794D01*
X71313Y303392D01*
X71329Y302986D01*
X71377Y302605D01*
X71457Y302247D01*
X71568Y301912D01*
X71712Y301602D01*
X71887Y301315D01*
X72095Y301052D01*
X72334Y300812D01*
X72602Y300599D01*
X72896Y300414D01*
X73215Y300257D01*
X73560Y300129D01*
X73931Y300030D01*
X74327Y299959D01*
X74749Y299916D01*
X75196Y299902D01*
G37*
%LPD*%
G36*
X80100Y323297D02*
X70382Y327263D01*
X70382Y328760D01*
X80100Y332663D01*
X80100Y331319D01*
X77258Y330208D01*
X77258Y325780D01*
X80100Y324663D01*
X80100Y323297D01*
G37*
%LPC*%
G36*
X76231Y326180D02*
X76231Y329815D01*
X73024Y328567D01*
X72517Y328374D01*
X71948Y328180D01*
X71375Y327994D01*
X71568Y327932D01*
X72222Y327718D01*
X73038Y327422D01*
X76231Y326180D01*
G37*
%LPD*%
G36*
X75196Y333386D02*
X74622Y333406D01*
X74080Y333466D01*
X73572Y333565D01*
X73098Y333704D01*
X72657Y333882D01*
X72249Y334100D01*
X71875Y334358D01*
X71534Y334655D01*
X71230Y334989D01*
X70967Y335354D01*
X70744Y335752D01*
X70562Y336181D01*
X70420Y336643D01*
X70318Y337137D01*
X70258Y337663D01*
X70237Y338221D01*
X70246Y338615D01*
X70271Y338990D01*
X70314Y339346D01*
X70374Y339683D01*
X70450Y340001D01*
X70544Y340301D01*
X70655Y340581D01*
X70782Y340842D01*
X70929Y341087D01*
X71096Y341317D01*
X71283Y341532D01*
X71491Y341733D01*
X71719Y341920D01*
X71968Y342093D01*
X72237Y342250D01*
X72527Y342394D01*
X72900Y341139D01*
X72514Y340912D01*
X72184Y340646D01*
X72040Y340499D01*
X71910Y340341D01*
X71794Y340174D01*
X71693Y339997D01*
X71527Y339611D01*
X71408Y339181D01*
X71367Y338949D01*
X71337Y338706D01*
X71319Y338452D01*
X71313Y338187D01*
X71329Y337778D01*
X71377Y337395D01*
X71456Y337036D01*
X71568Y336702D01*
X71711Y336393D01*
X71886Y336109D01*
X72092Y335849D01*
X72331Y335614D01*
X72598Y335406D01*
X72891Y335225D01*
X73210Y335072D01*
X73556Y334947D01*
X73927Y334850D01*
X74324Y334780D01*
X74747Y334738D01*
X75196Y334724D01*
X75645Y334739D01*
X76069Y334783D01*
X76468Y334857D01*
X76844Y334961D01*
X77195Y335093D01*
X77522Y335256D01*
X77825Y335448D01*
X78103Y335669D01*
X78353Y335917D01*
X78570Y336187D01*
X78753Y336480D01*
X78903Y336795D01*
X79019Y337133D01*
X79102Y337494D01*
X79152Y337877D01*
X79169Y338283D01*
X79151Y338751D01*
X79097Y339203D01*
X79006Y339639D01*
X78879Y340059D01*
X78721Y340452D01*
X78538Y340805D01*
X78328Y341119D01*
X78093Y341394D01*
X76341Y341394D01*
X76341Y338490D01*
X75238Y338490D01*
X75238Y342608D01*
X78590Y342608D01*
X78961Y342200D01*
X79287Y341748D01*
X79569Y341253D01*
X79807Y340714D01*
X79995Y340142D01*
X80070Y339847D01*
X80130Y339546D01*
X80177Y339239D01*
X80211Y338927D01*
X80231Y338608D01*
X80238Y338283D01*
X80228Y337909D01*
X80200Y337547D01*
X80153Y337199D01*
X80086Y336864D01*
X80001Y336542D01*
X79897Y336234D01*
X79773Y335938D01*
X79631Y335655D01*
X79471Y335388D01*
X79294Y335136D01*
X79101Y334901D01*
X78890Y334682D01*
X78664Y334480D01*
X78420Y334293D01*
X78160Y334123D01*
X77883Y333969D01*
X77591Y333833D01*
X77287Y333714D01*
X76970Y333614D01*
X76640Y333532D01*
X76298Y333468D01*
X75944Y333423D01*
X75576Y333395D01*
X75196Y333386D01*
G37*
G36*
X80100Y344835D02*
X70382Y344835D01*
X70382Y352208D01*
X71458Y352208D01*
X71458Y346152D01*
X74576Y346152D01*
X74576Y351794D01*
X75638Y351794D01*
X75638Y346152D01*
X79024Y346152D01*
X79024Y352490D01*
X80100Y352490D01*
X80100Y344835D01*
G37*
G36*
X70382Y288551D02*
X70382Y289937D01*
X77224Y292627D01*
X78941Y293206D01*
X77224Y293785D01*
X70382Y296461D01*
X70382Y297848D01*
X80100Y293882D01*
X80100Y292516D01*
X70382Y288551D01*
G37*
G36*
X71458Y315993D02*
X70382Y315993D01*
X70382Y323980D01*
X71458Y323980D01*
X71458Y320642D01*
X80100Y320642D01*
X80100Y319331D01*
X71458Y319331D01*
X71458Y315993D01*
G37*
G36*
X80100Y310053D02*
X70382Y310053D01*
X70382Y311371D01*
X79024Y311371D01*
X79024Y316281D01*
X80100Y316281D01*
X80100Y310053D01*
G37*
G36*
X80100Y173809D02*
X70382Y173809D01*
X70382Y178382D01*
X70394Y178780D01*
X70428Y179155D01*
X70485Y179507D01*
X70566Y179836D01*
X70669Y180141D01*
X70795Y180423D01*
X70945Y180681D01*
X71117Y180916D01*
X71309Y181125D01*
X71520Y181307D01*
X71749Y181460D01*
X71995Y181586D01*
X72260Y181684D01*
X72542Y181753D01*
X72843Y181795D01*
X73162Y181809D01*
X73427Y181799D01*
X73682Y181770D01*
X73925Y181721D01*
X74158Y181652D01*
X74381Y181563D01*
X74592Y181454D01*
X74793Y181326D01*
X74982Y181178D01*
X75158Y181013D01*
X75317Y180833D01*
X75459Y180638D01*
X75511Y180550D01*
X75584Y180427D01*
X75692Y180202D01*
X75783Y179962D01*
X75857Y179707D01*
X75914Y179437D01*
X77696Y180611D01*
X80100Y182196D01*
X80100Y180678D01*
X76065Y178154D01*
X76065Y175126D01*
X80100Y175126D01*
X80100Y173809D01*
G37*
%LPC*%
G36*
X75024Y175126D02*
X75024Y178306D01*
X75016Y178559D01*
X74993Y178797D01*
X74955Y179020D01*
X74902Y179229D01*
X74834Y179423D01*
X74750Y179602D01*
X74652Y179766D01*
X74538Y179916D01*
X74410Y180049D01*
X74270Y180165D01*
X74118Y180263D01*
X73954Y180343D01*
X73778Y180405D01*
X73589Y180450D01*
X73388Y180476D01*
X73175Y180485D01*
X72970Y180476D01*
X72777Y180449D01*
X72596Y180404D01*
X72428Y180341D01*
X72273Y180260D01*
X72130Y180161D01*
X72000Y180044D01*
X71882Y179909D01*
X71778Y179757D01*
X71688Y179590D01*
X71611Y179406D01*
X71549Y179207D01*
X71500Y178991D01*
X71465Y178760D01*
X71444Y178513D01*
X71437Y178250D01*
X71437Y175126D01*
X75024Y175126D01*
G37*
%LPD*%
G36*
X80100Y184028D02*
X70382Y184028D01*
X70382Y188600D01*
X70394Y188999D01*
X70428Y189374D01*
X70485Y189726D01*
X70566Y190055D01*
X70669Y190360D01*
X70795Y190642D01*
X70945Y190900D01*
X71117Y191135D01*
X71309Y191344D01*
X71520Y191526D01*
X71749Y191679D01*
X71995Y191805D01*
X72260Y191902D01*
X72542Y191972D01*
X72843Y192014D01*
X73162Y192028D01*
X73427Y192018D01*
X73682Y191989D01*
X73925Y191939D01*
X74158Y191870D01*
X74381Y191782D01*
X74592Y191673D01*
X74793Y191545D01*
X74982Y191397D01*
X75158Y191232D01*
X75317Y191051D01*
X75459Y190856D01*
X75511Y190769D01*
X75584Y190646D01*
X75692Y190421D01*
X75783Y190181D01*
X75857Y189926D01*
X75914Y189655D01*
X77696Y190830D01*
X80100Y192414D01*
X80100Y190897D01*
X76065Y188373D01*
X76065Y185345D01*
X80100Y185345D01*
X80100Y184028D01*
G37*
%LPC*%
G36*
X75024Y185345D02*
X75024Y188524D01*
X75016Y188777D01*
X74993Y189016D01*
X74955Y189239D01*
X74902Y189448D01*
X74834Y189642D01*
X74750Y189821D01*
X74652Y189985D01*
X74538Y190135D01*
X74410Y190268D01*
X74270Y190384D01*
X74118Y190482D01*
X73954Y190562D01*
X73778Y190624D01*
X73589Y190668D01*
X73388Y190695D01*
X73175Y190704D01*
X72970Y190695D01*
X72777Y190668D01*
X72596Y190623D01*
X72428Y190560D01*
X72273Y190479D01*
X72130Y190380D01*
X72000Y190263D01*
X71882Y190128D01*
X71778Y189976D01*
X71688Y189808D01*
X71611Y189625D01*
X71549Y189425D01*
X71500Y189210D01*
X71465Y188979D01*
X71444Y188732D01*
X71437Y188469D01*
X71437Y185345D01*
X75024Y185345D01*
G37*
%LPD*%
G36*
X80100Y203653D02*
X70382Y203653D01*
X70382Y205184D01*
X78714Y210439D01*
X77548Y210377D01*
X76755Y210356D01*
X70382Y210356D01*
X70382Y211543D01*
X80100Y211543D01*
X80100Y209956D01*
X71824Y204756D01*
X72493Y204791D01*
X73644Y204825D01*
X80100Y204825D01*
X80100Y203653D01*
G37*
G36*
X80100Y194215D02*
X70382Y194215D01*
X70382Y201588D01*
X71458Y201588D01*
X71458Y195532D01*
X74576Y195532D01*
X74576Y201174D01*
X75638Y201174D01*
X75638Y195532D01*
X79024Y195532D01*
X79024Y201871D01*
X80100Y201871D01*
X80100Y194215D01*
G37*
G36*
X76569Y163552D02*
X70382Y163552D01*
X70382Y164870D01*
X76458Y164870D01*
X76781Y164880D01*
X77084Y164912D01*
X77367Y164965D01*
X77629Y165039D01*
X77872Y165134D01*
X78094Y165250D01*
X78297Y165387D01*
X78479Y165546D01*
X78641Y165724D01*
X78781Y165921D01*
X78900Y166137D01*
X78997Y166371D01*
X79072Y166625D01*
X79126Y166897D01*
X79158Y167188D01*
X79169Y167497D01*
X79158Y167816D01*
X79124Y168116D01*
X79069Y168398D01*
X78990Y168662D01*
X78890Y168908D01*
X78767Y169135D01*
X78622Y169344D01*
X78455Y169535D01*
X78266Y169706D01*
X78057Y169854D01*
X77827Y169979D01*
X77577Y170081D01*
X77306Y170161D01*
X77014Y170218D01*
X76702Y170252D01*
X76369Y170263D01*
X70382Y170263D01*
X70382Y171574D01*
X76445Y171574D01*
X76734Y171566D01*
X77014Y171542D01*
X77284Y171503D01*
X77543Y171449D01*
X77792Y171378D01*
X78031Y171292D01*
X78260Y171191D01*
X78479Y171073D01*
X78687Y170942D01*
X78882Y170798D01*
X79064Y170640D01*
X79234Y170470D01*
X79391Y170287D01*
X79535Y170091D01*
X79667Y169882D01*
X79786Y169660D01*
X79892Y169426D01*
X79984Y169182D01*
X80062Y168928D01*
X80125Y168664D01*
X80174Y168389D01*
X80210Y168105D01*
X80231Y167810D01*
X80238Y167504D01*
X80231Y167211D01*
X80211Y166927D01*
X80177Y166652D01*
X80129Y166387D01*
X80068Y166131D01*
X79994Y165885D01*
X79905Y165649D01*
X79803Y165421D01*
X79689Y165205D01*
X79562Y165002D01*
X79422Y164810D01*
X79271Y164632D01*
X79107Y164466D01*
X78931Y164312D01*
X78742Y164171D01*
X78541Y164042D01*
X78329Y163927D01*
X78108Y163828D01*
X77876Y163744D01*
X77634Y163675D01*
X77383Y163621D01*
X77121Y163583D01*
X76850Y163560D01*
X76569Y163552D01*
G37*
G36*
X75196Y152992D02*
X74631Y153012D01*
X74097Y153071D01*
X73595Y153169D01*
X73124Y153306D01*
X72684Y153483D01*
X72276Y153698D01*
X71900Y153953D01*
X71555Y154248D01*
X71246Y154577D01*
X70978Y154936D01*
X70752Y155325D01*
X70567Y155744D01*
X70423Y156194D01*
X70320Y156674D01*
X70258Y157184D01*
X70237Y157724D01*
X70247Y158104D01*
X70275Y158468D01*
X70323Y158816D01*
X70389Y159148D01*
X70474Y159464D01*
X70579Y159764D01*
X70702Y160049D01*
X70844Y160317D01*
X71005Y160569D01*
X71184Y160803D01*
X71382Y161020D01*
X71598Y161220D01*
X71832Y161403D01*
X72084Y161569D01*
X72355Y161717D01*
X72644Y161848D01*
X73058Y160600D01*
X72852Y160509D01*
X72659Y160405D01*
X72478Y160289D01*
X72310Y160159D01*
X72154Y160017D01*
X72011Y159862D01*
X71880Y159694D01*
X71762Y159513D01*
X71657Y159322D01*
X71565Y159122D01*
X71488Y158913D01*
X71425Y158695D01*
X71376Y158469D01*
X71341Y158234D01*
X71320Y157990D01*
X71313Y157738D01*
X71330Y157345D01*
X71378Y156975D01*
X71459Y156628D01*
X71573Y156303D01*
X71719Y156000D01*
X71897Y155720D01*
X72108Y155462D01*
X72351Y155227D01*
X72623Y155017D01*
X72918Y154835D01*
X73238Y154681D01*
X73582Y154555D01*
X73949Y154457D01*
X74341Y154386D01*
X74757Y154344D01*
X75196Y154330D01*
X75632Y154345D01*
X76046Y154389D01*
X76438Y154462D01*
X76808Y154564D01*
X77156Y154695D01*
X77482Y154856D01*
X77786Y155046D01*
X78069Y155265D01*
X78323Y155509D01*
X78544Y155773D01*
X78731Y156058D01*
X78884Y156364D01*
X79002Y156690D01*
X79087Y157037D01*
X79138Y157405D01*
X79155Y157793D01*
X79147Y158044D01*
X79124Y158287D01*
X79084Y158523D01*
X79029Y158750D01*
X78958Y158970D01*
X78871Y159181D01*
X78768Y159385D01*
X78650Y159581D01*
X78516Y159769D01*
X78366Y159949D01*
X78200Y160121D01*
X78018Y160285D01*
X77608Y160589D01*
X77134Y160862D01*
X77672Y161938D01*
X77977Y161780D01*
X78262Y161607D01*
X78529Y161419D01*
X78778Y161216D01*
X79007Y160998D01*
X79218Y160764D01*
X79410Y160515D01*
X79583Y160251D01*
X79736Y159974D01*
X79869Y159687D01*
X79982Y159388D01*
X80074Y159078D01*
X80146Y158758D01*
X80197Y158426D01*
X80228Y158084D01*
X80238Y157731D01*
X80228Y157370D01*
X80200Y157021D01*
X80152Y156685D01*
X80085Y156361D01*
X80000Y156049D01*
X79895Y155750D01*
X79771Y155463D01*
X79628Y155189D01*
X79467Y154929D01*
X79290Y154685D01*
X79096Y154457D01*
X78886Y154244D01*
X78660Y154048D01*
X78417Y153867D01*
X78158Y153703D01*
X77883Y153555D01*
X77592Y153423D01*
X77289Y153309D01*
X76973Y153212D01*
X76644Y153133D01*
X76301Y153071D01*
X75946Y153028D01*
X75578Y153001D01*
X75196Y152992D01*
G37*
G36*
X71458Y212999D02*
X70382Y212999D01*
X70382Y220985D01*
X71458Y220985D01*
X71458Y217647D01*
X80100Y217647D01*
X80100Y216337D01*
X71458Y216337D01*
X71458Y212999D01*
G37*
D10*
X347500Y357500D02*
X372500Y357500D01*
X372500Y442500D01*
X347500Y442500D01*
X347500Y357500D01*
X360000Y357500D02*
X360000Y350890D01*
X360000Y442500D02*
X360000Y449110D01*
X262500Y192500D02*
X237500Y192500D01*
X237500Y107500D01*
X262500Y107500D01*
X262500Y192500D01*
X250000Y192500D02*
X250000Y199110D01*
X250000Y107500D02*
X250000Y100890D01*
X262500Y392500D02*
X237500Y392500D01*
X237500Y307500D01*
X262500Y307500D01*
X262500Y392500D01*
X250000Y392500D02*
X250000Y399110D01*
X250000Y307500D02*
X250000Y300890D01*
D11*
X15710Y450000D02*
X15720Y450842D01*
X15751Y451683D01*
X15803Y452523D01*
X15875Y453361D01*
X15968Y454197D01*
X16081Y455031D01*
X16215Y455862D01*
X16369Y456690D01*
X16543Y457513D01*
X16738Y458332D01*
X16952Y459146D01*
X17187Y459954D01*
X17441Y460756D01*
X17714Y461552D01*
X18008Y462341D01*
X18320Y463122D01*
X18652Y463896D01*
X19002Y464661D01*
X19371Y465417D01*
X19759Y466164D01*
X20165Y466901D01*
X20588Y467629D01*
X21030Y468345D01*
X21489Y469051D01*
X21965Y469744D01*
X22458Y470427D01*
X22968Y471096D01*
X23493Y471753D01*
X24035Y472397D01*
X24593Y473028D01*
X25166Y473644D01*
X25753Y474247D01*
X26356Y474834D01*
X26972Y475407D01*
X27603Y475965D01*
X28247Y476507D01*
X28904Y477032D01*
X29573Y477542D01*
X30256Y478035D01*
X30949Y478511D01*
X31655Y478970D01*
X32371Y479412D01*
X33099Y479835D01*
X33836Y480241D01*
X34583Y480629D01*
X35339Y480998D01*
X36104Y481348D01*
X36878Y481680D01*
X37659Y481992D01*
X38448Y482286D01*
X39244Y482559D01*
X40046Y482813D01*
X40854Y483048D01*
X41668Y483262D01*
X42487Y483457D01*
X43310Y483631D01*
X44138Y483785D01*
X44969Y483919D01*
X45803Y484032D01*
X46639Y484125D01*
X47477Y484197D01*
X48317Y484249D01*
X49158Y484280D01*
X50000Y484290D01*
X50842Y484280D01*
X51683Y484249D01*
X52523Y484197D01*
X53361Y484125D01*
X54197Y484032D01*
X55031Y483919D01*
X55862Y483785D01*
X56690Y483631D01*
X57513Y483457D01*
X58332Y483262D01*
X59146Y483048D01*
X59954Y482813D01*
X60756Y482559D01*
X61552Y482286D01*
X62341Y481992D01*
X63122Y481680D01*
X63896Y481348D01*
X64661Y480998D01*
X65417Y480629D01*
X66164Y480241D01*
X66901Y479835D01*
X67629Y479412D01*
X68345Y478970D01*
X69051Y478511D01*
X69744Y478035D01*
X70427Y477542D01*
X71096Y477032D01*
X71753Y476507D01*
X72397Y475965D01*
X73028Y475407D01*
X73644Y474834D01*
X74247Y474247D01*
X74834Y473644D01*
X75407Y473028D01*
X75965Y472397D01*
X76507Y471753D01*
X77032Y471096D01*
X77542Y470427D01*
X78035Y469744D01*
X78511Y469051D01*
X78970Y468345D01*
X79412Y467629D01*
X79835Y466901D01*
X80241Y466164D01*
X80629Y465417D01*
X80998Y464661D01*
X81348Y463896D01*
X81680Y463122D01*
X81992Y462341D01*
X82286Y461552D01*
X82559Y460756D01*
X82813Y459954D01*
X83048Y459146D01*
X83262Y458332D01*
X83457Y457513D01*
X83631Y456690D01*
X83785Y455862D01*
X83919Y455031D01*
X84032Y454197D01*
X84125Y453361D01*
X84197Y452523D01*
X84249Y451683D01*
X84280Y450842D01*
X84290Y450000D01*
X84280Y449158D01*
X84249Y448317D01*
X84197Y447477D01*
X84125Y446639D01*
X84032Y445803D01*
X83919Y444969D01*
X83785Y444138D01*
X83631Y443310D01*
X83457Y442487D01*
X83262Y441668D01*
X83048Y440854D01*
X82813Y440046D01*
X82559Y439244D01*
X82286Y438448D01*
X81992Y437659D01*
X81680Y436878D01*
X81348Y436104D01*
X80998Y435339D01*
X80629Y434583D01*
X80241Y433836D01*
X79835Y433099D01*
X79412Y432371D01*
X78970Y431655D01*
X78511Y430949D01*
X78035Y430256D01*
X77542Y429573D01*
X77032Y428904D01*
X76507Y428247D01*
X75965Y427603D01*
X75407Y426972D01*
X74834Y426356D01*
X74247Y425753D01*
X73644Y425166D01*
X73028Y424593D01*
X72397Y424035D01*
X71753Y423493D01*
X71096Y422968D01*
X70427Y422458D01*
X69744Y421965D01*
X69051Y421489D01*
X68345Y421030D01*
X67629Y420588D01*
X66901Y420165D01*
X66164Y419759D01*
X65417Y419371D01*
X64661Y419002D01*
X63896Y418652D01*
X63122Y418320D01*
X62341Y418008D01*
X61552Y417714D01*
X60756Y417441D01*
X59954Y417187D01*
X59146Y416952D01*
X58332Y416738D01*
X57513Y416543D01*
X56690Y416369D01*
X55862Y416215D01*
X55031Y416081D01*
X54197Y415968D01*
X53361Y415875D01*
X52523Y415803D01*
X51683Y415751D01*
X50842Y415720D01*
X50000Y415710D01*
X49158Y415720D01*
X48317Y415751D01*
X47477Y415803D01*
X46639Y415875D01*
X45803Y415968D01*
X44969Y416081D01*
X44138Y416215D01*
X43310Y416369D01*
X42487Y416543D01*
X41668Y416738D01*
X40854Y416952D01*
X40046Y417187D01*
X39244Y417441D01*
X38448Y417714D01*
X37659Y418008D01*
X36878Y418320D01*
X36104Y418652D01*
X35339Y419002D01*
X34583Y419371D01*
X33836Y419759D01*
X33099Y420165D01*
X32371Y420588D01*
X31655Y421030D01*
X30949Y421489D01*
X30256Y421965D01*
X29573Y422458D01*
X28904Y422968D01*
X28247Y423493D01*
X27603Y424035D01*
X26972Y424593D01*
X26356Y425166D01*
X25753Y425753D01*
X25166Y426356D01*
X24593Y426972D01*
X24035Y427603D01*
X23493Y428247D01*
X22968Y428904D01*
X22458Y429573D01*
X21965Y430256D01*
X21489Y430949D01*
X21030Y431655D01*
X20588Y432371D01*
X20165Y433099D01*
X19759Y433836D01*
X19371Y434583D01*
X19002Y435339D01*
X18652Y436104D01*
X18320Y436878D01*
X18008Y437659D01*
X17714Y438448D01*
X17441Y439244D01*
X17187Y440046D01*
X16952Y440854D01*
X16738Y441668D01*
X16543Y442487D01*
X16369Y443310D01*
X16215Y444138D01*
X16081Y444969D01*
X15968Y445803D01*
X15875Y446639D01*
X15803Y447477D01*
X15751Y448317D01*
X15720Y449158D01*
X15710Y450000D01*
D12*
X33000Y450000D02*
X33005Y450417D01*
X33020Y450834D01*
X33046Y451251D01*
X33082Y451666D01*
X33128Y452081D01*
X33184Y452494D01*
X33250Y452906D01*
X33327Y453317D01*
X33413Y453725D01*
X33509Y454131D01*
X33616Y454534D01*
X33732Y454935D01*
X33858Y455333D01*
X33994Y455727D01*
X34139Y456118D01*
X34294Y456506D01*
X34458Y456889D01*
X34632Y457268D01*
X34815Y457643D01*
X35007Y458014D01*
X35209Y458379D01*
X35419Y458740D01*
X35637Y459095D01*
X35865Y459445D01*
X36101Y459789D01*
X36345Y460127D01*
X36598Y460459D01*
X36859Y460785D01*
X37127Y461104D01*
X37404Y461417D01*
X37688Y461722D01*
X37979Y462021D01*
X38278Y462312D01*
X38583Y462596D01*
X38896Y462873D01*
X39215Y463141D01*
X39541Y463402D01*
X39873Y463655D01*
X40211Y463899D01*
X40555Y464135D01*
X40905Y464363D01*
X41260Y464581D01*
X41621Y464791D01*
X41986Y464993D01*
X42357Y465185D01*
X42732Y465368D01*
X43111Y465542D01*
X43494Y465706D01*
X43882Y465861D01*
X44273Y466006D01*
X44667Y466142D01*
X45065Y466268D01*
X45466Y466384D01*
X45869Y466491D01*
X46275Y466587D01*
X46683Y466673D01*
X47094Y466750D01*
X47506Y466816D01*
X47919Y466872D01*
X48334Y466918D01*
X48749Y466954D01*
X49166Y466980D01*
X49583Y466995D01*
X50000Y467000D01*
X50417Y466995D01*
X50834Y466980D01*
X51251Y466954D01*
X51666Y466918D01*
X52081Y466872D01*
X52494Y466816D01*
X52906Y466750D01*
X53317Y466673D01*
X53725Y466587D01*
X54131Y466491D01*
X54534Y466384D01*
X54935Y466268D01*
X55333Y466142D01*
X55727Y466006D01*
X56118Y465861D01*
X56506Y465706D01*
X56889Y465542D01*
X57268Y465368D01*
X57643Y465185D01*
X58014Y464993D01*
X58379Y464791D01*
X58740Y464581D01*
X59095Y464363D01*
X59445Y464135D01*
X59789Y463899D01*
X60127Y463655D01*
X60459Y463402D01*
X60785Y463141D01*
X61104Y462873D01*
X61417Y462596D01*
X61722Y462312D01*
X62021Y462021D01*
X62312Y461722D01*
X62596Y461417D01*
X62873Y461104D01*
X63141Y460785D01*
X63402Y460459D01*
X63655Y460127D01*
X63899Y459789D01*
X64135Y459445D01*
X64363Y459095D01*
X64581Y458740D01*
X64791Y458379D01*
X64993Y458014D01*
X65185Y457643D01*
X65368Y457268D01*
X65542Y456889D01*
X65706Y456506D01*
X65861Y456118D01*
X66006Y455727D01*
X66142Y455333D01*
X66268Y454935D01*
X66384Y454534D01*
X66491Y454131D01*
X66587Y453725D01*
X66673Y453317D01*
X66750Y452906D01*
X66816Y452494D01*
X66872Y452081D01*
X66918Y451666D01*
X66954Y451251D01*
X66980Y450834D01*
X66995Y450417D01*
X67000Y450000D01*
X66995Y449583D01*
X66980Y449166D01*
X66954Y448749D01*
X66918Y448334D01*
X66872Y447919D01*
X66816Y447506D01*
X66750Y447094D01*
X66673Y446683D01*
X66587Y446275D01*
X66491Y445869D01*
X66384Y445466D01*
X66268Y445065D01*
X66142Y444667D01*
X66006Y444273D01*
X65861Y443882D01*
X65706Y443494D01*
X65542Y443111D01*
X65368Y442732D01*
X65185Y442357D01*
X64993Y441986D01*
X64791Y441621D01*
X64581Y441260D01*
X64363Y440905D01*
X64135Y440555D01*
X63899Y440211D01*
X63655Y439873D01*
X63402Y439541D01*
X63141Y439215D01*
X62873Y438896D01*
X62596Y438583D01*
X62312Y438278D01*
X62021Y437979D01*
X61722Y437688D01*
X61417Y437404D01*
X61104Y437127D01*
X60785Y436859D01*
X60459Y436598D01*
X60127Y436345D01*
X59789Y436101D01*
X59445Y435865D01*
X59095Y435637D01*
X58740Y435419D01*
X58379Y435209D01*
X58014Y435007D01*
X57643Y434815D01*
X57268Y434632D01*
X56889Y434458D01*
X56506Y434294D01*
X56118Y434139D01*
X55727Y433994D01*
X55333Y433858D01*
X54935Y433732D01*
X54534Y433616D01*
X54131Y433509D01*
X53725Y433413D01*
X53317Y433327D01*
X52906Y433250D01*
X52494Y433184D01*
X52081Y433128D01*
X51666Y433082D01*
X51251Y433046D01*
X50834Y433020D01*
X50417Y433005D01*
X50000Y433000D01*
X49583Y433005D01*
X49166Y433020D01*
X48749Y433046D01*
X48334Y433082D01*
X47919Y433128D01*
X47506Y433184D01*
X47094Y433250D01*
X46683Y433327D01*
X46275Y433413D01*
X45869Y433509D01*
X45466Y433616D01*
X45065Y433732D01*
X44667Y433858D01*
X44273Y433994D01*
X43882Y434139D01*
X43494Y434294D01*
X43111Y434458D01*
X42732Y434632D01*
X42357Y434815D01*
X41986Y435007D01*
X41621Y435209D01*
X41260Y435419D01*
X40905Y435637D01*
X40555Y435865D01*
X40211Y436101D01*
X39873Y436345D01*
X39541Y436598D01*
X39215Y436859D01*
X38896Y437127D01*
X38583Y437404D01*
X38278Y437688D01*
X37979Y437979D01*
X37688Y438278D01*
X37404Y438583D01*
X37127Y438896D01*
X36859Y439215D01*
X36598Y439541D01*
X36345Y439873D01*
X36101Y440211D01*
X35865Y440555D01*
X35637Y440905D01*
X35419Y441260D01*
X35209Y441621D01*
X35007Y441986D01*
X34815Y442357D01*
X34632Y442732D01*
X34458Y443111D01*
X34294Y443494D01*
X34139Y443882D01*
X33994Y444273D01*
X33858Y444667D01*
X33732Y445065D01*
X33616Y445466D01*
X33509Y445869D01*
X33413Y446275D01*
X33327Y446683D01*
X33250Y447094D01*
X33184Y447506D01*
X33128Y447919D01*
X33082Y448334D01*
X33046Y448749D01*
X33020Y449166D01*
X33005Y449583D01*
X33000Y450000D01*
D11*
X15710Y50000D02*
X15720Y50842D01*
X15751Y51683D01*
X15803Y52523D01*
X15875Y53361D01*
X15968Y54197D01*
X16081Y55031D01*
X16215Y55862D01*
X16369Y56690D01*
X16543Y57513D01*
X16738Y58332D01*
X16952Y59146D01*
X17187Y59954D01*
X17441Y60756D01*
X17714Y61552D01*
X18008Y62341D01*
X18320Y63122D01*
X18652Y63896D01*
X19002Y64661D01*
X19371Y65417D01*
X19759Y66164D01*
X20165Y66901D01*
X20588Y67629D01*
X21030Y68345D01*
X21489Y69051D01*
X21965Y69744D01*
X22458Y70427D01*
X22968Y71096D01*
X23493Y71753D01*
X24035Y72397D01*
X24593Y73028D01*
X25166Y73644D01*
X25753Y74247D01*
X26356Y74834D01*
X26972Y75407D01*
X27603Y75965D01*
X28247Y76507D01*
X28904Y77032D01*
X29573Y77542D01*
X30256Y78035D01*
X30949Y78511D01*
X31655Y78970D01*
X32371Y79412D01*
X33099Y79835D01*
X33836Y80241D01*
X34583Y80629D01*
X35339Y80998D01*
X36104Y81348D01*
X36878Y81680D01*
X37659Y81992D01*
X38448Y82286D01*
X39244Y82559D01*
X40046Y82813D01*
X40854Y83048D01*
X41668Y83262D01*
X42487Y83457D01*
X43310Y83631D01*
X44138Y83785D01*
X44969Y83919D01*
X45803Y84032D01*
X46639Y84125D01*
X47477Y84197D01*
X48317Y84249D01*
X49158Y84280D01*
X50000Y84290D01*
X50842Y84280D01*
X51683Y84249D01*
X52523Y84197D01*
X53361Y84125D01*
X54197Y84032D01*
X55031Y83919D01*
X55862Y83785D01*
X56690Y83631D01*
X57513Y83457D01*
X58332Y83262D01*
X59146Y83048D01*
X59954Y82813D01*
X60756Y82559D01*
X61552Y82286D01*
X62341Y81992D01*
X63122Y81680D01*
X63896Y81348D01*
X64661Y80998D01*
X65417Y80629D01*
X66164Y80241D01*
X66901Y79835D01*
X67629Y79412D01*
X68345Y78970D01*
X69051Y78511D01*
X69744Y78035D01*
X70427Y77542D01*
X71096Y77032D01*
X71753Y76507D01*
X72397Y75965D01*
X73028Y75407D01*
X73644Y74834D01*
X74247Y74247D01*
X74834Y73644D01*
X75407Y73028D01*
X75965Y72397D01*
X76507Y71753D01*
X77032Y71096D01*
X77542Y70427D01*
X78035Y69744D01*
X78511Y69051D01*
X78970Y68345D01*
X79412Y67629D01*
X79835Y66901D01*
X80241Y66164D01*
X80629Y65417D01*
X80998Y64661D01*
X81348Y63896D01*
X81680Y63122D01*
X81992Y62341D01*
X82286Y61552D01*
X82559Y60756D01*
X82813Y59954D01*
X83048Y59146D01*
X83262Y58332D01*
X83457Y57513D01*
X83631Y56690D01*
X83785Y55862D01*
X83919Y55031D01*
X84032Y54197D01*
X84125Y53361D01*
X84197Y52523D01*
X84249Y51683D01*
X84280Y50842D01*
X84290Y50000D01*
X84280Y49158D01*
X84249Y48317D01*
X84197Y47477D01*
X84125Y46639D01*
X84032Y45803D01*
X83919Y44969D01*
X83785Y44138D01*
X83631Y43310D01*
X83457Y42487D01*
X83262Y41668D01*
X83048Y40854D01*
X82813Y40046D01*
X82559Y39244D01*
X82286Y38448D01*
X81992Y37659D01*
X81680Y36878D01*
X81348Y36104D01*
X80998Y35339D01*
X80629Y34583D01*
X80241Y33836D01*
X79835Y33099D01*
X79412Y32371D01*
X78970Y31655D01*
X78511Y30949D01*
X78035Y30256D01*
X77542Y29573D01*
X77032Y28904D01*
X76507Y28247D01*
X75965Y27603D01*
X75407Y26972D01*
X74834Y26356D01*
X74247Y25753D01*
X73644Y25166D01*
X73028Y24593D01*
X72397Y24035D01*
X71753Y23493D01*
X71096Y22968D01*
X70427Y22458D01*
X69744Y21965D01*
X69051Y21489D01*
X68345Y21030D01*
X67629Y20588D01*
X66901Y20165D01*
X66164Y19759D01*
X65417Y19371D01*
X64661Y19002D01*
X63896Y18652D01*
X63122Y18320D01*
X62341Y18008D01*
X61552Y17714D01*
X60756Y17441D01*
X59954Y17187D01*
X59146Y16952D01*
X58332Y16738D01*
X57513Y16543D01*
X56690Y16369D01*
X55862Y16215D01*
X55031Y16081D01*
X54197Y15968D01*
X53361Y15875D01*
X52523Y15803D01*
X51683Y15751D01*
X50842Y15720D01*
X50000Y15710D01*
X49158Y15720D01*
X48317Y15751D01*
X47477Y15803D01*
X46639Y15875D01*
X45803Y15968D01*
X44969Y16081D01*
X44138Y16215D01*
X43310Y16369D01*
X42487Y16543D01*
X41668Y16738D01*
X40854Y16952D01*
X40046Y17187D01*
X39244Y17441D01*
X38448Y17714D01*
X37659Y18008D01*
X36878Y18320D01*
X36104Y18652D01*
X35339Y19002D01*
X34583Y19371D01*
X33836Y19759D01*
X33099Y20165D01*
X32371Y20588D01*
X31655Y21030D01*
X30949Y21489D01*
X30256Y21965D01*
X29573Y22458D01*
X28904Y22968D01*
X28247Y23493D01*
X27603Y24035D01*
X26972Y24593D01*
X26356Y25166D01*
X25753Y25753D01*
X25166Y26356D01*
X24593Y26972D01*
X24035Y27603D01*
X23493Y28247D01*
X22968Y28904D01*
X22458Y29573D01*
X21965Y30256D01*
X21489Y30949D01*
X21030Y31655D01*
X20588Y32371D01*
X20165Y33099D01*
X19759Y33836D01*
X19371Y34583D01*
X19002Y35339D01*
X18652Y36104D01*
X18320Y36878D01*
X18008Y37659D01*
X17714Y38448D01*
X17441Y39244D01*
X17187Y40046D01*
X16952Y40854D01*
X16738Y41668D01*
X16543Y42487D01*
X16369Y43310D01*
X16215Y44138D01*
X16081Y44969D01*
X15968Y45803D01*
X15875Y46639D01*
X15803Y47477D01*
X15751Y48317D01*
X15720Y49158D01*
X15710Y50000D01*
D12*
X33000Y50000D02*
X33005Y50417D01*
X33020Y50834D01*
X33046Y51251D01*
X33082Y51666D01*
X33128Y52081D01*
X33184Y52494D01*
X33250Y52906D01*
X33327Y53317D01*
X33413Y53725D01*
X33509Y54131D01*
X33616Y54534D01*
X33732Y54935D01*
X33858Y55333D01*
X33994Y55727D01*
X34139Y56118D01*
X34294Y56506D01*
X34458Y56889D01*
X34632Y57268D01*
X34815Y57643D01*
X35007Y58014D01*
X35209Y58379D01*
X35419Y58740D01*
X35637Y59095D01*
X35865Y59445D01*
X36101Y59789D01*
X36345Y60127D01*
X36598Y60459D01*
X36859Y60785D01*
X37127Y61104D01*
X37404Y61417D01*
X37688Y61722D01*
X37979Y62021D01*
X38278Y62312D01*
X38583Y62596D01*
X38896Y62873D01*
X39215Y63141D01*
X39541Y63402D01*
X39873Y63655D01*
X40211Y63899D01*
X40555Y64135D01*
X40905Y64363D01*
X41260Y64581D01*
X41621Y64791D01*
X41986Y64993D01*
X42357Y65185D01*
X42732Y65368D01*
X43111Y65542D01*
X43494Y65706D01*
X43882Y65861D01*
X44273Y66006D01*
X44667Y66142D01*
X45065Y66268D01*
X45466Y66384D01*
X45869Y66491D01*
X46275Y66587D01*
X46683Y66673D01*
X47094Y66750D01*
X47506Y66816D01*
X47919Y66872D01*
X48334Y66918D01*
X48749Y66954D01*
X49166Y66980D01*
X49583Y66995D01*
X50000Y67000D01*
X50417Y66995D01*
X50834Y66980D01*
X51251Y66954D01*
X51666Y66918D01*
X52081Y66872D01*
X52494Y66816D01*
X52906Y66750D01*
X53317Y66673D01*
X53725Y66587D01*
X54131Y66491D01*
X54534Y66384D01*
X54935Y66268D01*
X55333Y66142D01*
X55727Y66006D01*
X56118Y65861D01*
X56506Y65706D01*
X56889Y65542D01*
X57268Y65368D01*
X57643Y65185D01*
X58014Y64993D01*
X58379Y64791D01*
X58740Y64581D01*
X59095Y64363D01*
X59445Y64135D01*
X59789Y63899D01*
X60127Y63655D01*
X60459Y63402D01*
X60785Y63141D01*
X61104Y62873D01*
X61417Y62596D01*
X61722Y62312D01*
X62021Y62021D01*
X62312Y61722D01*
X62596Y61417D01*
X62873Y61104D01*
X63141Y60785D01*
X63402Y60459D01*
X63655Y60127D01*
X63899Y59789D01*
X64135Y59445D01*
X64363Y59095D01*
X64581Y58740D01*
X64791Y58379D01*
X64993Y58014D01*
X65185Y57643D01*
X65368Y57268D01*
X65542Y56889D01*
X65706Y56506D01*
X65861Y56118D01*
X66006Y55727D01*
X66142Y55333D01*
X66268Y54935D01*
X66384Y54534D01*
X66491Y54131D01*
X66587Y53725D01*
X66673Y53317D01*
X66750Y52906D01*
X66816Y52494D01*
X66872Y52081D01*
X66918Y51666D01*
X66954Y51251D01*
X66980Y50834D01*
X66995Y50417D01*
X67000Y50000D01*
X66995Y49583D01*
X66980Y49166D01*
X66954Y48749D01*
X66918Y48334D01*
X66872Y47919D01*
X66816Y47506D01*
X66750Y47094D01*
X66673Y46683D01*
X66587Y46275D01*
X66491Y45869D01*
X66384Y45466D01*
X66268Y45065D01*
X66142Y44667D01*
X66006Y44273D01*
X65861Y43882D01*
X65706Y43494D01*
X65542Y43111D01*
X65368Y42732D01*
X65185Y42357D01*
X64993Y41986D01*
X64791Y41621D01*
X64581Y41260D01*
X64363Y40905D01*
X64135Y40555D01*
X63899Y40211D01*
X63655Y39873D01*
X63402Y39541D01*
X63141Y39215D01*
X62873Y38896D01*
X62596Y38583D01*
X62312Y38278D01*
X62021Y37979D01*
X61722Y37688D01*
X61417Y37404D01*
X61104Y37127D01*
X60785Y36859D01*
X60459Y36598D01*
X60127Y36345D01*
X59789Y36101D01*
X59445Y35865D01*
X59095Y35637D01*
X58740Y35419D01*
X58379Y35209D01*
X58014Y35007D01*
X57643Y34815D01*
X57268Y34632D01*
X56889Y34458D01*
X56506Y34294D01*
X56118Y34139D01*
X55727Y33994D01*
X55333Y33858D01*
X54935Y33732D01*
X54534Y33616D01*
X54131Y33509D01*
X53725Y33413D01*
X53317Y33327D01*
X52906Y33250D01*
X52494Y33184D01*
X52081Y33128D01*
X51666Y33082D01*
X51251Y33046D01*
X50834Y33020D01*
X50417Y33005D01*
X50000Y33000D01*
X49583Y33005D01*
X49166Y33020D01*
X48749Y33046D01*
X48334Y33082D01*
X47919Y33128D01*
X47506Y33184D01*
X47094Y33250D01*
X46683Y33327D01*
X46275Y33413D01*
X45869Y33509D01*
X45466Y33616D01*
X45065Y33732D01*
X44667Y33858D01*
X44273Y33994D01*
X43882Y34139D01*
X43494Y34294D01*
X43111Y34458D01*
X42732Y34632D01*
X42357Y34815D01*
X41986Y35007D01*
X41621Y35209D01*
X41260Y35419D01*
X40905Y35637D01*
X40555Y35865D01*
X40211Y36101D01*
X39873Y36345D01*
X39541Y36598D01*
X39215Y36859D01*
X38896Y37127D01*
X38583Y37404D01*
X38278Y37688D01*
X37979Y37979D01*
X37688Y38278D01*
X37404Y38583D01*
X37127Y38896D01*
X36859Y39215D01*
X36598Y39541D01*
X36345Y39873D01*
X36101Y40211D01*
X35865Y40555D01*
X35637Y40905D01*
X35419Y41260D01*
X35209Y41621D01*
X35007Y41986D01*
X34815Y42357D01*
X34632Y42732D01*
X34458Y43111D01*
X34294Y43494D01*
X34139Y43882D01*
X33994Y44273D01*
X33858Y44667D01*
X33732Y45065D01*
X33616Y45466D01*
X33509Y45869D01*
X33413Y46275D01*
X33327Y46683D01*
X33250Y47094D01*
X33184Y47506D01*
X33128Y47919D01*
X33082Y48334D01*
X33046Y48749D01*
X33020Y49166D01*
X33005Y49583D01*
X33000Y50000D01*
D11*
X515710Y50000D02*
X515720Y50842D01*
X515751Y51683D01*
X515803Y52523D01*
X515875Y53361D01*
X515968Y54197D01*
X516081Y55031D01*
X516215Y55862D01*
X516369Y56690D01*
X516543Y57513D01*
X516738Y58332D01*
X516952Y59146D01*
X517187Y59954D01*
X517441Y60756D01*
X517714Y61552D01*
X518008Y62341D01*
X518320Y63122D01*
X518652Y63896D01*
X519002Y64661D01*
X519371Y65417D01*
X519759Y66164D01*
X520165Y66901D01*
X520588Y67629D01*
X521030Y68345D01*
X521489Y69051D01*
X521965Y69744D01*
X522458Y70427D01*
X522968Y71096D01*
X523493Y71753D01*
X524035Y72397D01*
X524593Y73028D01*
X525166Y73644D01*
X525753Y74247D01*
X526356Y74834D01*
X526972Y75407D01*
X527603Y75965D01*
X528247Y76507D01*
X528904Y77032D01*
X529573Y77542D01*
X530256Y78035D01*
X530949Y78511D01*
X531655Y78970D01*
X532371Y79412D01*
X533099Y79835D01*
X533836Y80241D01*
X534583Y80629D01*
X535339Y80998D01*
X536104Y81348D01*
X536878Y81680D01*
X537659Y81992D01*
X538448Y82286D01*
X539244Y82559D01*
X540046Y82813D01*
X540854Y83048D01*
X541668Y83262D01*
X542487Y83457D01*
X543310Y83631D01*
X544138Y83785D01*
X544969Y83919D01*
X545803Y84032D01*
X546639Y84125D01*
X547477Y84197D01*
X548317Y84249D01*
X549158Y84280D01*
X550000Y84290D01*
X550842Y84280D01*
X551683Y84249D01*
X552523Y84197D01*
X553361Y84125D01*
X554197Y84032D01*
X555031Y83919D01*
X555862Y83785D01*
X556690Y83631D01*
X557513Y83457D01*
X558332Y83262D01*
X559146Y83048D01*
X559954Y82813D01*
X560756Y82559D01*
X561552Y82286D01*
X562341Y81992D01*
X563122Y81680D01*
X563896Y81348D01*
X564661Y80998D01*
X565417Y80629D01*
X566164Y80241D01*
X566901Y79835D01*
X567629Y79412D01*
X568345Y78970D01*
X569051Y78511D01*
X569744Y78035D01*
X570427Y77542D01*
X571096Y77032D01*
X571753Y76507D01*
X572397Y75965D01*
X573028Y75407D01*
X573644Y74834D01*
X574247Y74247D01*
X574834Y73644D01*
X575407Y73028D01*
X575965Y72397D01*
X576507Y71753D01*
X577032Y71096D01*
X577542Y70427D01*
X578035Y69744D01*
X578511Y69051D01*
X578970Y68345D01*
X579412Y67629D01*
X579835Y66901D01*
X580241Y66164D01*
X580629Y65417D01*
X580998Y64661D01*
X581348Y63896D01*
X581680Y63122D01*
X581992Y62341D01*
X582286Y61552D01*
X582559Y60756D01*
X582813Y59954D01*
X583048Y59146D01*
X583262Y58332D01*
X583457Y57513D01*
X583631Y56690D01*
X583785Y55862D01*
X583919Y55031D01*
X584032Y54197D01*
X584125Y53361D01*
X584197Y52523D01*
X584249Y51683D01*
X584280Y50842D01*
X584290Y50000D01*
X584280Y49158D01*
X584249Y48317D01*
X584197Y47477D01*
X584125Y46639D01*
X584032Y45803D01*
X583919Y44969D01*
X583785Y44138D01*
X583631Y43310D01*
X583457Y42487D01*
X583262Y41668D01*
X583048Y40854D01*
X582813Y40046D01*
X582559Y39244D01*
X582286Y38448D01*
X581992Y37659D01*
X581680Y36878D01*
X581348Y36104D01*
X580998Y35339D01*
X580629Y34583D01*
X580241Y33836D01*
X579835Y33099D01*
X579412Y32371D01*
X578970Y31655D01*
X578511Y30949D01*
X578035Y30256D01*
X577542Y29573D01*
X577032Y28904D01*
X576507Y28247D01*
X575965Y27603D01*
X575407Y26972D01*
X574834Y26356D01*
X574247Y25753D01*
X573644Y25166D01*
X573028Y24593D01*
X572397Y24035D01*
X571753Y23493D01*
X571096Y22968D01*
X570427Y22458D01*
X569744Y21965D01*
X569051Y21489D01*
X568345Y21030D01*
X567629Y20588D01*
X566901Y20165D01*
X566164Y19759D01*
X565417Y19371D01*
X564661Y19002D01*
X563896Y18652D01*
X563122Y18320D01*
X562341Y18008D01*
X561552Y17714D01*
X560756Y17441D01*
X559954Y17187D01*
X559146Y16952D01*
X558332Y16738D01*
X557513Y16543D01*
X556690Y16369D01*
X555862Y16215D01*
X555031Y16081D01*
X554197Y15968D01*
X553361Y15875D01*
X552523Y15803D01*
X551683Y15751D01*
X550842Y15720D01*
X550000Y15710D01*
X549158Y15720D01*
X548317Y15751D01*
X547477Y15803D01*
X546639Y15875D01*
X545803Y15968D01*
X544969Y16081D01*
X544138Y16215D01*
X543310Y16369D01*
X542487Y16543D01*
X541668Y16738D01*
X540854Y16952D01*
X540046Y17187D01*
X539244Y17441D01*
X538448Y17714D01*
X537659Y18008D01*
X536878Y18320D01*
X536104Y18652D01*
X535339Y19002D01*
X534583Y19371D01*
X533836Y19759D01*
X533099Y20165D01*
X532371Y20588D01*
X531655Y21030D01*
X530949Y21489D01*
X530256Y21965D01*
X529573Y22458D01*
X528904Y22968D01*
X528247Y23493D01*
X527603Y24035D01*
X526972Y24593D01*
X526356Y25166D01*
X525753Y25753D01*
X525166Y26356D01*
X524593Y26972D01*
X524035Y27603D01*
X523493Y28247D01*
X522968Y28904D01*
X522458Y29573D01*
X521965Y30256D01*
X521489Y30949D01*
X521030Y31655D01*
X520588Y32371D01*
X520165Y33099D01*
X519759Y33836D01*
X519371Y34583D01*
X519002Y35339D01*
X518652Y36104D01*
X518320Y36878D01*
X518008Y37659D01*
X517714Y38448D01*
X517441Y39244D01*
X517187Y40046D01*
X516952Y40854D01*
X516738Y41668D01*
X516543Y42487D01*
X516369Y43310D01*
X516215Y44138D01*
X516081Y44969D01*
X515968Y45803D01*
X515875Y46639D01*
X515803Y47477D01*
X515751Y48317D01*
X515720Y49158D01*
X515710Y50000D01*
D12*
X533000Y50000D02*
X533005Y50417D01*
X533020Y50834D01*
X533046Y51251D01*
X533082Y51666D01*
X533128Y52081D01*
X533184Y52494D01*
X533250Y52906D01*
X533327Y53317D01*
X533413Y53725D01*
X533509Y54131D01*
X533616Y54534D01*
X533732Y54935D01*
X533858Y55333D01*
X533994Y55727D01*
X534139Y56118D01*
X534294Y56506D01*
X534458Y56889D01*
X534632Y57268D01*
X534815Y57643D01*
X535007Y58014D01*
X535209Y58379D01*
X535419Y58740D01*
X535637Y59095D01*
X535865Y59445D01*
X536101Y59789D01*
X536345Y60127D01*
X536598Y60459D01*
X536859Y60785D01*
X537127Y61104D01*
X537404Y61417D01*
X537688Y61722D01*
X537979Y62021D01*
X538278Y62312D01*
X538583Y62596D01*
X538896Y62873D01*
X539215Y63141D01*
X539541Y63402D01*
X539873Y63655D01*
X540211Y63899D01*
X540555Y64135D01*
X540905Y64363D01*
X541260Y64581D01*
X541621Y64791D01*
X541986Y64993D01*
X542357Y65185D01*
X542732Y65368D01*
X543111Y65542D01*
X543494Y65706D01*
X543882Y65861D01*
X544273Y66006D01*
X544667Y66142D01*
X545065Y66268D01*
X545466Y66384D01*
X545869Y66491D01*
X546275Y66587D01*
X546683Y66673D01*
X547094Y66750D01*
X547506Y66816D01*
X547919Y66872D01*
X548334Y66918D01*
X548749Y66954D01*
X549166Y66980D01*
X549583Y66995D01*
X550000Y67000D01*
X550417Y66995D01*
X550834Y66980D01*
X551251Y66954D01*
X551666Y66918D01*
X552081Y66872D01*
X552494Y66816D01*
X552906Y66750D01*
X553317Y66673D01*
X553725Y66587D01*
X554131Y66491D01*
X554534Y66384D01*
X554935Y66268D01*
X555333Y66142D01*
X555727Y66006D01*
X556118Y65861D01*
X556506Y65706D01*
X556889Y65542D01*
X557268Y65368D01*
X557643Y65185D01*
X558014Y64993D01*
X558379Y64791D01*
X558740Y64581D01*
X559095Y64363D01*
X559445Y64135D01*
X559789Y63899D01*
X560127Y63655D01*
X560459Y63402D01*
X560785Y63141D01*
X561104Y62873D01*
X561417Y62596D01*
X561722Y62312D01*
X562021Y62021D01*
X562312Y61722D01*
X562596Y61417D01*
X562873Y61104D01*
X563141Y60785D01*
X563402Y60459D01*
X563655Y60127D01*
X563899Y59789D01*
X564135Y59445D01*
X564363Y59095D01*
X564581Y58740D01*
X564791Y58379D01*
X564993Y58014D01*
X565185Y57643D01*
X565368Y57268D01*
X565542Y56889D01*
X565706Y56506D01*
X565861Y56118D01*
X566006Y55727D01*
X566142Y55333D01*
X566268Y54935D01*
X566384Y54534D01*
X566491Y54131D01*
X566587Y53725D01*
X566673Y53317D01*
X566750Y52906D01*
X566816Y52494D01*
X566872Y52081D01*
X566918Y51666D01*
X566954Y51251D01*
X566980Y50834D01*
X566995Y50417D01*
X567000Y50000D01*
X566995Y49583D01*
X566980Y49166D01*
X566954Y48749D01*
X566918Y48334D01*
X566872Y47919D01*
X566816Y47506D01*
X566750Y47094D01*
X566673Y46683D01*
X566587Y46275D01*
X566491Y45869D01*
X566384Y45466D01*
X566268Y45065D01*
X566142Y44667D01*
X566006Y44273D01*
X565861Y43882D01*
X565706Y43494D01*
X565542Y43111D01*
X565368Y42732D01*
X565185Y42357D01*
X564993Y41986D01*
X564791Y41621D01*
X564581Y41260D01*
X564363Y40905D01*
X564135Y40555D01*
X563899Y40211D01*
X563655Y39873D01*
X563402Y39541D01*
X563141Y39215D01*
X562873Y38896D01*
X562596Y38583D01*
X562312Y38278D01*
X562021Y37979D01*
X561722Y37688D01*
X561417Y37404D01*
X561104Y37127D01*
X560785Y36859D01*
X560459Y36598D01*
X560127Y36345D01*
X559789Y36101D01*
X559445Y35865D01*
X559095Y35637D01*
X558740Y35419D01*
X558379Y35209D01*
X558014Y35007D01*
X557643Y34815D01*
X557268Y34632D01*
X556889Y34458D01*
X556506Y34294D01*
X556118Y34139D01*
X555727Y33994D01*
X555333Y33858D01*
X554935Y33732D01*
X554534Y33616D01*
X554131Y33509D01*
X553725Y33413D01*
X553317Y33327D01*
X552906Y33250D01*
X552494Y33184D01*
X552081Y33128D01*
X551666Y33082D01*
X551251Y33046D01*
X550834Y33020D01*
X550417Y33005D01*
X550000Y33000D01*
X549583Y33005D01*
X549166Y33020D01*
X548749Y33046D01*
X548334Y33082D01*
X547919Y33128D01*
X547506Y33184D01*
X547094Y33250D01*
X546683Y33327D01*
X546275Y33413D01*
X545869Y33509D01*
X545466Y33616D01*
X545065Y33732D01*
X544667Y33858D01*
X544273Y33994D01*
X543882Y34139D01*
X543494Y34294D01*
X543111Y34458D01*
X542732Y34632D01*
X542357Y34815D01*
X541986Y35007D01*
X541621Y35209D01*
X541260Y35419D01*
X540905Y35637D01*
X540555Y35865D01*
X540211Y36101D01*
X539873Y36345D01*
X539541Y36598D01*
X539215Y36859D01*
X538896Y37127D01*
X538583Y37404D01*
X538278Y37688D01*
X537979Y37979D01*
X537688Y38278D01*
X537404Y38583D01*
X537127Y38896D01*
X536859Y39215D01*
X536598Y39541D01*
X536345Y39873D01*
X536101Y40211D01*
X535865Y40555D01*
X535637Y40905D01*
X535419Y41260D01*
X535209Y41621D01*
X535007Y41986D01*
X534815Y42357D01*
X534632Y42732D01*
X534458Y43111D01*
X534294Y43494D01*
X534139Y43882D01*
X533994Y44273D01*
X533858Y44667D01*
X533732Y45065D01*
X533616Y45466D01*
X533509Y45869D01*
X533413Y46275D01*
X533327Y46683D01*
X533250Y47094D01*
X533184Y47506D01*
X533128Y47919D01*
X533082Y48334D01*
X533046Y48749D01*
X533020Y49166D01*
X533005Y49583D01*
X533000Y50000D01*
D11*
X515710Y450000D02*
X515720Y450842D01*
X515751Y451683D01*
X515803Y452523D01*
X515875Y453361D01*
X515968Y454197D01*
X516081Y455031D01*
X516215Y455862D01*
X516369Y456690D01*
X516543Y457513D01*
X516738Y458332D01*
X516952Y459146D01*
X517187Y459954D01*
X517441Y460756D01*
X517714Y461552D01*
X518008Y462341D01*
X518320Y463122D01*
X518652Y463896D01*
X519002Y464661D01*
X519371Y465417D01*
X519759Y466164D01*
X520165Y466901D01*
X520588Y467629D01*
X521030Y468345D01*
X521489Y469051D01*
X521965Y469744D01*
X522458Y470427D01*
X522968Y471096D01*
X523493Y471753D01*
X524035Y472397D01*
X524593Y473028D01*
X525166Y473644D01*
X525753Y474247D01*
X526356Y474834D01*
X526972Y475407D01*
X527603Y475965D01*
X528247Y476507D01*
X528904Y477032D01*
X529573Y477542D01*
X530256Y478035D01*
X530949Y478511D01*
X531655Y478970D01*
X532371Y479412D01*
X533099Y479835D01*
X533836Y480241D01*
X534583Y480629D01*
X535339Y480998D01*
X536104Y481348D01*
X536878Y481680D01*
X537659Y481992D01*
X538448Y482286D01*
X539244Y482559D01*
X540046Y482813D01*
X540854Y483048D01*
X541668Y483262D01*
X542487Y483457D01*
X543310Y483631D01*
X544138Y483785D01*
X544969Y483919D01*
X545803Y484032D01*
X546639Y484125D01*
X547477Y484197D01*
X548317Y484249D01*
X549158Y484280D01*
X550000Y484290D01*
X550842Y484280D01*
X551683Y484249D01*
X552523Y484197D01*
X553361Y484125D01*
X554197Y484032D01*
X555031Y483919D01*
X555862Y483785D01*
X556690Y483631D01*
X557513Y483457D01*
X558332Y483262D01*
X559146Y483048D01*
X559954Y482813D01*
X560756Y482559D01*
X561552Y482286D01*
X562341Y481992D01*
X563122Y481680D01*
X563896Y481348D01*
X564661Y480998D01*
X565417Y480629D01*
X566164Y480241D01*
X566901Y479835D01*
X567629Y479412D01*
X568345Y478970D01*
X569051Y478511D01*
X569744Y478035D01*
X570427Y477542D01*
X571096Y477032D01*
X571753Y476507D01*
X572397Y475965D01*
X573028Y475407D01*
X573644Y474834D01*
X574247Y474247D01*
X574834Y473644D01*
X575407Y473028D01*
X575965Y472397D01*
X576507Y471753D01*
X577032Y471096D01*
X577542Y470427D01*
X578035Y469744D01*
X578511Y469051D01*
X578970Y468345D01*
X579412Y467629D01*
X579835Y466901D01*
X580241Y466164D01*
X580629Y465417D01*
X580998Y464661D01*
X581348Y463896D01*
X581680Y463122D01*
X581992Y462341D01*
X582286Y461552D01*
X582559Y460756D01*
X582813Y459954D01*
X583048Y459146D01*
X583262Y458332D01*
X583457Y457513D01*
X583631Y456690D01*
X583785Y455862D01*
X583919Y455031D01*
X584032Y454197D01*
X584125Y453361D01*
X584197Y452523D01*
X584249Y451683D01*
X584280Y450842D01*
X584290Y450000D01*
X584280Y449158D01*
X584249Y448317D01*
X584197Y447477D01*
X584125Y446639D01*
X584032Y445803D01*
X583919Y444969D01*
X583785Y444138D01*
X583631Y443310D01*
X583457Y442487D01*
X583262Y441668D01*
X583048Y440854D01*
X582813Y440046D01*
X582559Y439244D01*
X582286Y438448D01*
X581992Y437659D01*
X581680Y436878D01*
X581348Y436104D01*
X580998Y435339D01*
X580629Y434583D01*
X580241Y433836D01*
X579835Y433099D01*
X579412Y432371D01*
X578970Y431655D01*
X578511Y430949D01*
X578035Y430256D01*
X577542Y429573D01*
X577032Y428904D01*
X576507Y428247D01*
X575965Y427603D01*
X575407Y426972D01*
X574834Y426356D01*
X574247Y425753D01*
X573644Y425166D01*
X573028Y424593D01*
X572397Y424035D01*
X571753Y423493D01*
X571096Y422968D01*
X570427Y422458D01*
X569744Y421965D01*
X569051Y421489D01*
X568345Y421030D01*
X567629Y420588D01*
X566901Y420165D01*
X566164Y419759D01*
X565417Y419371D01*
X564661Y419002D01*
X563896Y418652D01*
X563122Y418320D01*
X562341Y418008D01*
X561552Y417714D01*
X560756Y417441D01*
X559954Y417187D01*
X559146Y416952D01*
X558332Y416738D01*
X557513Y416543D01*
X556690Y416369D01*
X555862Y416215D01*
X555031Y416081D01*
X554197Y415968D01*
X553361Y415875D01*
X552523Y415803D01*
X551683Y415751D01*
X550842Y415720D01*
X550000Y415710D01*
X549158Y415720D01*
X548317Y415751D01*
X547477Y415803D01*
X546639Y415875D01*
X545803Y415968D01*
X544969Y416081D01*
X544138Y416215D01*
X543310Y416369D01*
X542487Y416543D01*
X541668Y416738D01*
X540854Y416952D01*
X540046Y417187D01*
X539244Y417441D01*
X538448Y417714D01*
X537659Y418008D01*
X536878Y418320D01*
X536104Y418652D01*
X535339Y419002D01*
X534583Y419371D01*
X533836Y419759D01*
X533099Y420165D01*
X532371Y420588D01*
X531655Y421030D01*
X530949Y421489D01*
X530256Y421965D01*
X529573Y422458D01*
X528904Y422968D01*
X528247Y423493D01*
X527603Y424035D01*
X526972Y424593D01*
X526356Y425166D01*
X525753Y425753D01*
X525166Y426356D01*
X524593Y426972D01*
X524035Y427603D01*
X523493Y428247D01*
X522968Y428904D01*
X522458Y429573D01*
X521965Y430256D01*
X521489Y430949D01*
X521030Y431655D01*
X520588Y432371D01*
X520165Y433099D01*
X519759Y433836D01*
X519371Y434583D01*
X519002Y435339D01*
X518652Y436104D01*
X518320Y436878D01*
X518008Y437659D01*
X517714Y438448D01*
X517441Y439244D01*
X517187Y440046D01*
X516952Y440854D01*
X516738Y441668D01*
X516543Y442487D01*
X516369Y443310D01*
X516215Y444138D01*
X516081Y444969D01*
X515968Y445803D01*
X515875Y446639D01*
X515803Y447477D01*
X515751Y448317D01*
X515720Y449158D01*
X515710Y450000D01*
D12*
X533000Y450000D02*
X533005Y450417D01*
X533020Y450834D01*
X533046Y451251D01*
X533082Y451666D01*
X533128Y452081D01*
X533184Y452494D01*
X533250Y452906D01*
X533327Y453317D01*
X533413Y453725D01*
X533509Y454131D01*
X533616Y454534D01*
X533732Y454935D01*
X533858Y455333D01*
X533994Y455727D01*
X534139Y456118D01*
X534294Y456506D01*
X534458Y456889D01*
X534632Y457268D01*
X534815Y457643D01*
X535007Y458014D01*
X535209Y458379D01*
X535419Y458740D01*
X535637Y459095D01*
X535865Y459445D01*
X536101Y459789D01*
X536345Y460127D01*
X536598Y460459D01*
X536859Y460785D01*
X537127Y461104D01*
X537404Y461417D01*
X537688Y461722D01*
X537979Y462021D01*
X538278Y462312D01*
X538583Y462596D01*
X538896Y462873D01*
X539215Y463141D01*
X539541Y463402D01*
X539873Y463655D01*
X540211Y463899D01*
X540555Y464135D01*
X540905Y464363D01*
X541260Y464581D01*
X541621Y464791D01*
X541986Y464993D01*
X542357Y465185D01*
X542732Y465368D01*
X543111Y465542D01*
X543494Y465706D01*
X543882Y465861D01*
X544273Y466006D01*
X544667Y466142D01*
X545065Y466268D01*
X545466Y466384D01*
X545869Y466491D01*
X546275Y466587D01*
X546683Y466673D01*
X547094Y466750D01*
X547506Y466816D01*
X547919Y466872D01*
X548334Y466918D01*
X548749Y466954D01*
X549166Y466980D01*
X549583Y466995D01*
X550000Y467000D01*
X550417Y466995D01*
X550834Y466980D01*
X551251Y466954D01*
X551666Y466918D01*
X552081Y466872D01*
X552494Y466816D01*
X552906Y466750D01*
X553317Y466673D01*
X553725Y466587D01*
X554131Y466491D01*
X554534Y466384D01*
X554935Y466268D01*
X555333Y466142D01*
X555727Y466006D01*
X556118Y465861D01*
X556506Y465706D01*
X556889Y465542D01*
X557268Y465368D01*
X557643Y465185D01*
X558014Y464993D01*
X558379Y464791D01*
X558740Y464581D01*
X559095Y464363D01*
X559445Y464135D01*
X559789Y463899D01*
X560127Y463655D01*
X560459Y463402D01*
X560785Y463141D01*
X561104Y462873D01*
X561417Y462596D01*
X561722Y462312D01*
X562021Y462021D01*
X562312Y461722D01*
X562596Y461417D01*
X562873Y461104D01*
X563141Y460785D01*
X563402Y460459D01*
X563655Y460127D01*
X563899Y459789D01*
X564135Y459445D01*
X564363Y459095D01*
X564581Y458740D01*
X564791Y458379D01*
X564993Y458014D01*
X565185Y457643D01*
X565368Y457268D01*
X565542Y456889D01*
X565706Y456506D01*
X565861Y456118D01*
X566006Y455727D01*
X566142Y455333D01*
X566268Y454935D01*
X566384Y454534D01*
X566491Y454131D01*
X566587Y453725D01*
X566673Y453317D01*
X566750Y452906D01*
X566816Y452494D01*
X566872Y452081D01*
X566918Y451666D01*
X566954Y451251D01*
X566980Y450834D01*
X566995Y450417D01*
X567000Y450000D01*
X566995Y449583D01*
X566980Y449166D01*
X566954Y448749D01*
X566918Y448334D01*
X566872Y447919D01*
X566816Y447506D01*
X566750Y447094D01*
X566673Y446683D01*
X566587Y446275D01*
X566491Y445869D01*
X566384Y445466D01*
X566268Y445065D01*
X566142Y444667D01*
X566006Y444273D01*
X565861Y443882D01*
X565706Y443494D01*
X565542Y443111D01*
X565368Y442732D01*
X565185Y442357D01*
X564993Y441986D01*
X564791Y441621D01*
X564581Y441260D01*
X564363Y440905D01*
X564135Y440555D01*
X563899Y440211D01*
X563655Y439873D01*
X563402Y439541D01*
X563141Y439215D01*
X562873Y438896D01*
X562596Y438583D01*
X562312Y438278D01*
X562021Y437979D01*
X561722Y437688D01*
X561417Y437404D01*
X561104Y437127D01*
X560785Y436859D01*
X560459Y436598D01*
X560127Y436345D01*
X559789Y436101D01*
X559445Y435865D01*
X559095Y435637D01*
X558740Y435419D01*
X558379Y435209D01*
X558014Y435007D01*
X557643Y434815D01*
X557268Y434632D01*
X556889Y434458D01*
X556506Y434294D01*
X556118Y434139D01*
X555727Y433994D01*
X555333Y433858D01*
X554935Y433732D01*
X554534Y433616D01*
X554131Y433509D01*
X553725Y433413D01*
X553317Y433327D01*
X552906Y433250D01*
X552494Y433184D01*
X552081Y433128D01*
X551666Y433082D01*
X551251Y433046D01*
X550834Y433020D01*
X550417Y433005D01*
X550000Y433000D01*
X549583Y433005D01*
X549166Y433020D01*
X548749Y433046D01*
X548334Y433082D01*
X547919Y433128D01*
X547506Y433184D01*
X547094Y433250D01*
X546683Y433327D01*
X546275Y433413D01*
X545869Y433509D01*
X545466Y433616D01*
X545065Y433732D01*
X544667Y433858D01*
X544273Y433994D01*
X543882Y434139D01*
X543494Y434294D01*
X543111Y434458D01*
X542732Y434632D01*
X542357Y434815D01*
X541986Y435007D01*
X541621Y435209D01*
X541260Y435419D01*
X540905Y435637D01*
X540555Y435865D01*
X540211Y436101D01*
X539873Y436345D01*
X539541Y436598D01*
X539215Y436859D01*
X538896Y437127D01*
X538583Y437404D01*
X538278Y437688D01*
X537979Y437979D01*
X537688Y438278D01*
X537404Y438583D01*
X537127Y438896D01*
X536859Y439215D01*
X536598Y439541D01*
X536345Y439873D01*
X536101Y440211D01*
X535865Y440555D01*
X535637Y440905D01*
X535419Y441260D01*
X535209Y441621D01*
X535007Y441986D01*
X534815Y442357D01*
X534632Y442732D01*
X534458Y443111D01*
X534294Y443494D01*
X534139Y443882D01*
X533994Y444273D01*
X533858Y444667D01*
X533732Y445065D01*
X533616Y445466D01*
X533509Y445869D01*
X533413Y446275D01*
X533327Y446683D01*
X533250Y447094D01*
X533184Y447506D01*
X533128Y447919D01*
X533082Y448334D01*
X533046Y448749D01*
X533020Y449166D01*
X533005Y449583D01*
X533000Y450000D01*
D10*
X311500Y291000D02*
X311500Y49000D01*
X408500Y49000D02*
X408500Y291000D01*
X408500Y49000D02*
X375000Y49000D01*
X375000Y291000D02*
X408500Y291000D01*
X345500Y291000D02*
X311500Y291000D01*
X311500Y49000D02*
X345500Y49000D01*
D11*
X476500Y148000D02*
X476500Y222000D01*
X476500Y148000D02*
X534000Y148000D01*
X534000Y222000D02*
X476500Y222000D01*
X534000Y222000D02*
X534000Y148000D01*
X476500Y283000D02*
X476500Y357000D01*
X476500Y283000D02*
X534000Y283000D01*
X534000Y357000D02*
X476500Y357000D01*
X534000Y357000D02*
X534000Y283000D01*
X153500Y283000D02*
X153500Y357000D01*
X96000Y357000D01*
X96000Y283000D02*
X153500Y283000D01*
X96000Y283000D02*
X96000Y357000D01*
X153500Y222000D02*
X153500Y148000D01*
X153500Y222000D02*
X96000Y222000D01*
X96000Y148000D02*
X153500Y148000D01*
X96000Y148000D02*
X96000Y222000D01*
M02*
