ISO-10303-21;
HEADER;
/* Generated by software containing ST-Developer
 * from STEP Tools, Inc. (www.steptools.com) 
 */

FILE_DESCRIPTION(
/* description */ (''),
/* implementation_level */ '2;1');

FILE_NAME(
/* name */ 
'Y:\\3DDATA\\2_OpticalHard\\01_\X2\56FD518588FD54C1\X0\\\2_Holders\\FC
\\FC-25.4PC\\FC-25.4PC.stp',
/* time_stamp */ '2015-02-25T14:18:28+09:00',
/* author */ ('ma.tanaka'),
/* organization */ (''),
/* preprocessor_version */ 'ST-DEVELOPER v15.2',
/* originating_system */ 'Autodesk Inventor 2014',
/* authorisation */ '');

FILE_SCHEMA (('AUTOMOTIVE_DESIGN { 1 0 10303 214 3 1 1 }'));
ENDSEC;

DATA;
#10=MECHANICAL_DESIGN_GEOMETRIC_PRESENTATION_REPRESENTATION('',(#13),#1111);
#11=SHAPE_REPRESENTATION_RELATIONSHIP('SRR','None',#1120,#12);
#12=ADVANCED_BREP_SHAPE_REPRESENTATION($,(#614),#1110);
#13=STYLED_ITEM('',(#1129),#614);
#14=B_SPLINE_CURVE_WITH_KNOTS('',3,(#1044,#1045,#1046,#1047,#1048,#1049,
#1050,#1051,#1052,#1053),.UNSPECIFIED.,.F.,.F.,(4,2,2,2,4),(0.,0.0380079625258447,
0.0760159250516893,0.114169996156404,0.152324067261118),.UNSPECIFIED.);
#15=B_SPLINE_CURVE_WITH_KNOTS('',3,(#1057,#1058,#1059,#1060,#1061,#1062,
#1063,#1064,#1065,#1066),.UNSPECIFIED.,.F.,.F.,(4,2,2,2,4),(0.151564384095597,
0.189718455200312,0.227872526305027,0.265880488830871,0.303888451356716),
 .UNSPECIFIED.);
#16=(
BOUNDED_CURVE()
B_SPLINE_CURVE(2,(#1016,#1017,#1018),.UNSPECIFIED.,.F.,.F.)
B_SPLINE_CURVE_WITH_KNOTS((3,3),(0.,0.25298221281347),.UNSPECIFIED.)
CURVE()
GEOMETRIC_REPRESENTATION_ITEM()
RATIONAL_B_SPLINE_CURVE((1.,1.05263157894737,1.))
REPRESENTATION_ITEM('')
);
#17=(
BOUNDED_CURVE()
B_SPLINE_CURVE(2,(#1021,#1022,#1023),.UNSPECIFIED.,.F.,.F.)
B_SPLINE_CURVE_WITH_KNOTS((3,3),(0.910816707607282,0.934354486817534),
 .UNSPECIFIED.)
CURVE()
GEOMETRIC_REPRESENTATION_ITEM()
RATIONAL_B_SPLINE_CURVE((1.44275249221476,1.43893054970083,1.43461538461538))
REPRESENTATION_ITEM('')
);
#18=(
BOUNDED_CURVE()
B_SPLINE_CURVE(2,(#1034,#1035,#1036),.UNSPECIFIED.,.F.,.F.)
B_SPLINE_CURVE_WITH_KNOTS((3,3),(0.522494166955396,0.546031946165647),
 .UNSPECIFIED.)
CURVE()
GEOMETRIC_REPRESENTATION_ITEM()
RATIONAL_B_SPLINE_CURVE((1.43461538461538,1.43893054970083,1.44275249221476))
REPRESENTATION_ITEM('')
);
#19=(
BOUNDED_CURVE()
B_SPLINE_CURVE(2,(#1079,#1080,#1081),.UNSPECIFIED.,.F.,.F.)
B_SPLINE_CURVE_WITH_KNOTS((3,3),(0.208929885738087,0.287565958103133),
 .UNSPECIFIED.)
CURVE()
GEOMETRIC_REPRESENTATION_ITEM()
RATIONAL_B_SPLINE_CURVE((1.01090475587887,1.00750451894689,1.))
REPRESENTATION_ITEM('')
);
#20=(
BOUNDED_CURVE()
B_SPLINE_CURVE(2,(#1088,#1089,#1090),.UNSPECIFIED.,.F.,.F.)
B_SPLINE_CURVE_WITH_KNOTS((3,3),(0.,0.0786360723650321),.UNSPECIFIED.)
CURVE()
GEOMETRIC_REPRESENTATION_ITEM()
RATIONAL_B_SPLINE_CURVE((1.,1.00750451894692,1.0109047558789))
REPRESENTATION_ITEM('')
);
#21=LINE('',#982,#34);
#22=LINE('',#985,#35);
#23=LINE('',#1025,#36);
#24=LINE('',#1029,#37);
#25=LINE('',#1033,#38);
#26=LINE('',#1042,#39);
#27=LINE('',#1068,#40);
#28=LINE('',#1071,#41);
#29=LINE('',#1072,#42);
#30=LINE('',#1074,#43);
#31=LINE('',#1076,#44);
#32=LINE('',#1082,#45);
#33=LINE('',#1086,#46);
#34=VECTOR('',#801,3.);
#35=VECTOR('',#804,3.);
#36=VECTOR('',#847,1.5439919110295);
#37=VECTOR('',#850,0.2);
#38=VECTOR('',#853,1.5439919110295);
#39=VECTOR('',#858,2.);
#40=VECTOR('',#861,2.);
#41=VECTOR('',#866,0.955268026685115);
#42=VECTOR('',#867,0.751639785064764);
#43=VECTOR('',#870,0.751639785064764);
#44=VECTOR('',#873,0.955268026685115);
#45=VECTOR('',#876,0.477917571852345);
#46=VECTOR('',#881,0.477917571852344);
#47=PLANE('',#641);
#48=PLANE('',#645);
#49=PLANE('',#649);
#50=PLANE('',#654);
#51=PLANE('',#665);
#52=PLANE('',#666);
#53=PLANE('',#669);
#54=PLANE('',#674);
#55=PLANE('',#679);
#56=PLANE('',#682);
#57=PLANE('',#690);
#58=PLANE('',#692);
#59=PLANE('',#693);
#60=PLANE('',#695);
#61=PLANE('',#699);
#62=PLANE('',#702);
#63=CONICAL_SURFACE('',#619,0.275,59.);
#64=CONICAL_SURFACE('',#623,0.275,59.);
#65=CONICAL_SURFACE('',#627,0.275,59.);
#66=CONICAL_SURFACE('',#631,0.275,59.);
#67=CONICAL_SURFACE('',#635,4.475,45.);
#68=CONICAL_SURFACE('',#639,4.475,45.);
#69=CONICAL_SURFACE('',#643,8.85,44.9999999999999);
#70=CONICAL_SURFACE('',#647,8.85,45.);
#71=CONICAL_SURFACE('',#676,2.1,45.);
#72=CONICAL_SURFACE('',#681,3.75,45.0000000000001);
#73=CONICAL_SURFACE('',#696,3.75,45.);
#74=CONICAL_SURFACE('',#701,1.5,45.0000000000002);
#75=CONICAL_SURFACE('',#706,9.75,44.9999999999998);
#76=FACE_BOUND('',#164,.T.);
#77=FACE_BOUND('',#167,.T.);
#78=FACE_BOUND('',#170,.T.);
#79=FACE_BOUND('',#173,.T.);
#80=FACE_BOUND('',#176,.T.);
#81=FACE_BOUND('',#178,.T.);
#82=FACE_BOUND('',#180,.T.);
#83=FACE_BOUND('',#182,.T.);
#84=FACE_BOUND('',#183,.T.);
#85=FACE_BOUND('',#184,.T.);
#86=FACE_BOUND('',#185,.T.);
#87=FACE_BOUND('',#186,.T.);
#88=FACE_BOUND('',#188,.T.);
#89=FACE_BOUND('',#189,.T.);
#90=FACE_BOUND('',#190,.T.);
#91=FACE_BOUND('',#191,.T.);
#92=FACE_BOUND('',#192,.T.);
#93=FACE_BOUND('',#194,.T.);
#94=FACE_BOUND('',#195,.T.);
#95=FACE_BOUND('',#196,.T.);
#96=FACE_BOUND('',#198,.T.);
#97=FACE_BOUND('',#199,.T.);
#98=FACE_BOUND('',#200,.T.);
#99=FACE_BOUND('',#202,.T.);
#100=FACE_BOUND('',#205,.T.);
#101=FACE_BOUND('',#206,.T.);
#102=FACE_BOUND('',#207,.T.);
#103=FACE_BOUND('',#208,.T.);
#104=FACE_BOUND('',#209,.T.);
#105=FACE_BOUND('',#210,.T.);
#106=FACE_BOUND('',#211,.T.);
#107=FACE_BOUND('',#213,.T.);
#108=FACE_BOUND('',#215,.T.);
#109=FACE_BOUND('',#217,.T.);
#110=FACE_BOUND('',#219,.T.);
#111=FACE_BOUND('',#220,.T.);
#112=FACE_BOUND('',#221,.T.);
#113=FACE_BOUND('',#223,.T.);
#114=FACE_BOUND('',#226,.T.);
#115=FACE_BOUND('',#235,.T.);
#116=FACE_BOUND('',#237,.T.);
#117=FACE_BOUND('',#239,.T.);
#118=FACE_BOUND('',#240,.T.);
#119=FACE_BOUND('',#241,.T.);
#120=FACE_BOUND('',#243,.T.);
#121=FACE_BOUND('',#245,.T.);
#122=FACE_BOUND('',#247,.T.);
#123=FACE_BOUND('',#249,.T.);
#124=FACE_OUTER_BOUND('',#163,.T.);
#125=FACE_OUTER_BOUND('',#165,.T.);
#126=FACE_OUTER_BOUND('',#166,.T.);
#127=FACE_OUTER_BOUND('',#168,.T.);
#128=FACE_OUTER_BOUND('',#169,.T.);
#129=FACE_OUTER_BOUND('',#171,.T.);
#130=FACE_OUTER_BOUND('',#172,.T.);
#131=FACE_OUTER_BOUND('',#174,.T.);
#132=FACE_OUTER_BOUND('',#175,.T.);
#133=FACE_OUTER_BOUND('',#177,.T.);
#134=FACE_OUTER_BOUND('',#179,.T.);
#135=FACE_OUTER_BOUND('',#181,.T.);
#136=FACE_OUTER_BOUND('',#187,.T.);
#137=FACE_OUTER_BOUND('',#193,.T.);
#138=FACE_OUTER_BOUND('',#197,.T.);
#139=FACE_OUTER_BOUND('',#201,.T.);
#140=FACE_OUTER_BOUND('',#203,.T.);
#141=FACE_OUTER_BOUND('',#204,.T.);
#142=FACE_OUTER_BOUND('',#212,.T.);
#143=FACE_OUTER_BOUND('',#214,.T.);
#144=FACE_OUTER_BOUND('',#216,.T.);
#145=FACE_OUTER_BOUND('',#218,.T.);
#146=FACE_OUTER_BOUND('',#222,.T.);
#147=FACE_OUTER_BOUND('',#224,.T.);
#148=FACE_OUTER_BOUND('',#225,.T.);
#149=FACE_OUTER_BOUND('',#227,.T.);
#150=FACE_OUTER_BOUND('',#228,.T.);
#151=FACE_OUTER_BOUND('',#229,.T.);
#152=FACE_OUTER_BOUND('',#230,.T.);
#153=FACE_OUTER_BOUND('',#231,.T.);
#154=FACE_OUTER_BOUND('',#232,.T.);
#155=FACE_OUTER_BOUND('',#233,.T.);
#156=FACE_OUTER_BOUND('',#234,.T.);
#157=FACE_OUTER_BOUND('',#236,.T.);
#158=FACE_OUTER_BOUND('',#238,.T.);
#159=FACE_OUTER_BOUND('',#242,.T.);
#160=FACE_OUTER_BOUND('',#244,.T.);
#161=FACE_OUTER_BOUND('',#246,.T.);
#162=FACE_OUTER_BOUND('',#248,.T.);
#163=EDGE_LOOP('',(#416));
#164=EDGE_LOOP('',(#417));
#165=EDGE_LOOP('',(#418));
#166=EDGE_LOOP('',(#419));
#167=EDGE_LOOP('',(#420));
#168=EDGE_LOOP('',(#421));
#169=EDGE_LOOP('',(#422));
#170=EDGE_LOOP('',(#423));
#171=EDGE_LOOP('',(#424));
#172=EDGE_LOOP('',(#425));
#173=EDGE_LOOP('',(#426));
#174=EDGE_LOOP('',(#427));
#175=EDGE_LOOP('',(#428));
#176=EDGE_LOOP('',(#429));
#177=EDGE_LOOP('',(#430));
#178=EDGE_LOOP('',(#431));
#179=EDGE_LOOP('',(#432));
#180=EDGE_LOOP('',(#433));
#181=EDGE_LOOP('',(#434));
#182=EDGE_LOOP('',(#435));
#183=EDGE_LOOP('',(#436));
#184=EDGE_LOOP('',(#437));
#185=EDGE_LOOP('',(#438));
#186=EDGE_LOOP('',(#439));
#187=EDGE_LOOP('',(#440));
#188=EDGE_LOOP('',(#441));
#189=EDGE_LOOP('',(#442));
#190=EDGE_LOOP('',(#443));
#191=EDGE_LOOP('',(#444));
#192=EDGE_LOOP('',(#445));
#193=EDGE_LOOP('',(#446));
#194=EDGE_LOOP('',(#447));
#195=EDGE_LOOP('',(#448));
#196=EDGE_LOOP('',(#449));
#197=EDGE_LOOP('',(#450));
#198=EDGE_LOOP('',(#451));
#199=EDGE_LOOP('',(#452));
#200=EDGE_LOOP('',(#453));
#201=EDGE_LOOP('',(#454));
#202=EDGE_LOOP('',(#455));
#203=EDGE_LOOP('',(#456,#457,#458,#459));
#204=EDGE_LOOP('',(#460));
#205=EDGE_LOOP('',(#461));
#206=EDGE_LOOP('',(#462));
#207=EDGE_LOOP('',(#463));
#208=EDGE_LOOP('',(#464));
#209=EDGE_LOOP('',(#465));
#210=EDGE_LOOP('',(#466));
#211=EDGE_LOOP('',(#467));
#212=EDGE_LOOP('',(#468));
#213=EDGE_LOOP('',(#469));
#214=EDGE_LOOP('',(#470));
#215=EDGE_LOOP('',(#471));
#216=EDGE_LOOP('',(#472));
#217=EDGE_LOOP('',(#473));
#218=EDGE_LOOP('',(#474));
#219=EDGE_LOOP('',(#475));
#220=EDGE_LOOP('',(#476));
#221=EDGE_LOOP('',(#477));
#222=EDGE_LOOP('',(#478));
#223=EDGE_LOOP('',(#479,#480));
#224=EDGE_LOOP('',(#481,#482,#483,#484,#485,#486,#487,#488,#489,#490));
#225=EDGE_LOOP('',(#491));
#226=EDGE_LOOP('',(#492,#493,#494,#495,#496,#497));
#227=EDGE_LOOP('',(#498,#499,#500,#501));
#228=EDGE_LOOP('',(#502,#503,#504,#505));
#229=EDGE_LOOP('',(#506,#507,#508,#509));
#230=EDGE_LOOP('',(#510,#511,#512,#513,#514));
#231=EDGE_LOOP('',(#515,#516,#517,#518));
#232=EDGE_LOOP('',(#519,#520,#521,#522,#523));
#233=EDGE_LOOP('',(#524,#525,#526,#527,#528,#529));
#234=EDGE_LOOP('',(#530));
#235=EDGE_LOOP('',(#531));
#236=EDGE_LOOP('',(#532));
#237=EDGE_LOOP('',(#533));
#238=EDGE_LOOP('',(#534));
#239=EDGE_LOOP('',(#535));
#240=EDGE_LOOP('',(#536));
#241=EDGE_LOOP('',(#537));
#242=EDGE_LOOP('',(#538));
#243=EDGE_LOOP('',(#539));
#244=EDGE_LOOP('',(#540));
#245=EDGE_LOOP('',(#541));
#246=EDGE_LOOP('',(#542));
#247=EDGE_LOOP('',(#543));
#248=EDGE_LOOP('',(#544));
#249=EDGE_LOOP('',(#545));
#250=CIRCLE('',#617,0.55);
#251=CIRCLE('',#618,0.55);
#252=CIRCLE('',#621,0.55);
#253=CIRCLE('',#622,0.55);
#254=CIRCLE('',#625,0.55);
#255=CIRCLE('',#626,0.55);
#256=CIRCLE('',#629,0.55);
#257=CIRCLE('',#630,0.55);
#258=CIRCLE('',#633,4.7);
#259=CIRCLE('',#634,4.7);
#260=CIRCLE('',#636,4.25);
#261=CIRCLE('',#638,4.25);
#262=CIRCLE('',#640,4.7);
#263=CIRCLE('',#642,8.7);
#264=CIRCLE('',#644,8.8);
#265=CIRCLE('',#646,8.7);
#266=CIRCLE('',#648,8.8);
#267=CIRCLE('',#650,8.8);
#268=CIRCLE('',#651,12.7);
#269=CIRCLE('',#653,12.7);
#270=CIRCLE('',#655,10.);
#271=CIRCLE('',#657,4.);
#272=CIRCLE('',#658,4.);
#273=CIRCLE('',#660,4.);
#274=CIRCLE('',#661,4.);
#275=CIRCLE('',#663,3.5);
#276=CIRCLE('',#664,3.5);
#277=CIRCLE('',#667,0.7);
#278=CIRCLE('',#668,2.);
#279=CIRCLE('',#670,8.8);
#280=CIRCLE('',#671,9.);
#281=CIRCLE('',#673,9.);
#282=CIRCLE('',#675,2.2);
#283=CIRCLE('',#678,0.7);
#284=CIRCLE('',#680,1.25);
#285=CIRCLE('',#683,1.);
#286=CIRCLE('',#684,1.);
#287=CIRCLE('',#686,3.05);
#288=CIRCLE('',#687,3.05);
#289=CIRCLE('',#688,3.05);
#290=CIRCLE('',#694,3.5);
#291=CIRCLE('',#698,1.25);
#292=CIRCLE('',#700,1.75);
#293=CIRCLE('',#703,9.5);
#294=CIRCLE('',#705,10.);
#295=VERTEX_POINT('',#912);
#296=VERTEX_POINT('',#914);
#297=VERTEX_POINT('',#918);
#298=VERTEX_POINT('',#920);
#299=VERTEX_POINT('',#924);
#300=VERTEX_POINT('',#926);
#301=VERTEX_POINT('',#930);
#302=VERTEX_POINT('',#932);
#303=VERTEX_POINT('',#936);
#304=VERTEX_POINT('',#938);
#305=VERTEX_POINT('',#941);
#306=VERTEX_POINT('',#944);
#307=VERTEX_POINT('',#947);
#308=VERTEX_POINT('',#950);
#309=VERTEX_POINT('',#953);
#310=VERTEX_POINT('',#956);
#311=VERTEX_POINT('',#959);
#312=VERTEX_POINT('',#962);
#313=VERTEX_POINT('',#964);
#314=VERTEX_POINT('',#967);
#315=VERTEX_POINT('',#970);
#316=VERTEX_POINT('',#973);
#317=VERTEX_POINT('',#975);
#318=VERTEX_POINT('',#978);
#319=VERTEX_POINT('',#979);
#320=VERTEX_POINT('',#981);
#321=VERTEX_POINT('',#983);
#322=VERTEX_POINT('',#987);
#323=VERTEX_POINT('',#989);
#324=VERTEX_POINT('',#993);
#325=VERTEX_POINT('',#995);
#326=VERTEX_POINT('',#998);
#327=VERTEX_POINT('',#1000);
#328=VERTEX_POINT('',#1003);
#329=VERTEX_POINT('',#1006);
#330=VERTEX_POINT('',#1010);
#331=VERTEX_POINT('',#1013);
#332=VERTEX_POINT('',#1020);
#333=VERTEX_POINT('',#1024);
#334=VERTEX_POINT('',#1026);
#335=VERTEX_POINT('',#1028);
#336=VERTEX_POINT('',#1030);
#337=VERTEX_POINT('',#1032);
#338=VERTEX_POINT('',#1038);
#339=VERTEX_POINT('',#1040);
#340=VERTEX_POINT('',#1041);
#341=VERTEX_POINT('',#1043);
#342=VERTEX_POINT('',#1054);
#343=VERTEX_POINT('',#1056);
#344=VERTEX_POINT('',#1067);
#345=VERTEX_POINT('',#1078);
#346=VERTEX_POINT('',#1084);
#347=VERTEX_POINT('',#1093);
#348=VERTEX_POINT('',#1096);
#349=VERTEX_POINT('',#1100);
#350=VERTEX_POINT('',#1103);
#351=EDGE_CURVE('',#295,#295,#250,.T.);
#352=EDGE_CURVE('',#296,#296,#251,.T.);
#353=EDGE_CURVE('',#297,#297,#252,.T.);
#354=EDGE_CURVE('',#298,#298,#253,.T.);
#355=EDGE_CURVE('',#299,#299,#254,.T.);
#356=EDGE_CURVE('',#300,#300,#255,.T.);
#357=EDGE_CURVE('',#301,#301,#256,.T.);
#358=EDGE_CURVE('',#302,#302,#257,.T.);
#359=EDGE_CURVE('',#303,#303,#258,.T.);
#360=EDGE_CURVE('',#304,#304,#259,.T.);
#361=EDGE_CURVE('',#305,#305,#260,.T.);
#362=EDGE_CURVE('',#306,#306,#261,.T.);
#363=EDGE_CURVE('',#307,#307,#262,.T.);
#364=EDGE_CURVE('',#308,#308,#263,.T.);
#365=EDGE_CURVE('',#309,#309,#264,.T.);
#366=EDGE_CURVE('',#310,#310,#265,.T.);
#367=EDGE_CURVE('',#311,#311,#266,.T.);
#368=EDGE_CURVE('',#312,#312,#267,.T.);
#369=EDGE_CURVE('',#313,#313,#268,.T.);
#370=EDGE_CURVE('',#314,#314,#269,.T.);
#371=EDGE_CURVE('',#315,#315,#270,.T.);
#372=EDGE_CURVE('',#316,#316,#271,.T.);
#373=EDGE_CURVE('',#317,#317,#272,.T.);
#374=EDGE_CURVE('',#318,#319,#273,.T.);
#375=EDGE_CURVE('',#318,#320,#21,.T.);
#376=EDGE_CURVE('',#320,#321,#274,.T.);
#377=EDGE_CURVE('',#321,#319,#22,.T.);
#378=EDGE_CURVE('',#322,#322,#275,.T.);
#379=EDGE_CURVE('',#323,#323,#276,.T.);
#380=EDGE_CURVE('',#324,#324,#277,.T.);
#381=EDGE_CURVE('',#325,#325,#278,.T.);
#382=EDGE_CURVE('',#326,#326,#279,.T.);
#383=EDGE_CURVE('',#327,#327,#280,.T.);
#384=EDGE_CURVE('',#328,#328,#281,.T.);
#385=EDGE_CURVE('',#329,#329,#282,.T.);
#386=EDGE_CURVE('',#330,#330,#283,.T.);
#387=EDGE_CURVE('',#331,#331,#284,.T.);
#388=EDGE_CURVE('',#320,#321,#16,.T.);
#389=EDGE_CURVE('',#332,#318,#17,.T.);
#390=EDGE_CURVE('',#332,#333,#23,.T.);
#391=EDGE_CURVE('',#333,#334,#285,.T.);
#392=EDGE_CURVE('',#334,#335,#24,.T.);
#393=EDGE_CURVE('',#335,#336,#286,.T.);
#394=EDGE_CURVE('',#336,#337,#25,.T.);
#395=EDGE_CURVE('',#319,#337,#18,.T.);
#396=EDGE_CURVE('',#338,#338,#287,.T.);
#397=EDGE_CURVE('',#339,#340,#26,.T.);
#398=EDGE_CURVE('',#340,#341,#14,.T.);
#399=EDGE_CURVE('',#341,#342,#288,.T.);
#400=EDGE_CURVE('',#342,#343,#15,.T.);
#401=EDGE_CURVE('',#343,#344,#27,.T.);
#402=EDGE_CURVE('',#339,#344,#289,.T.);
#403=EDGE_CURVE('',#336,#340,#28,.T.);
#404=EDGE_CURVE('',#335,#341,#29,.T.);
#405=EDGE_CURVE('',#334,#342,#30,.T.);
#406=EDGE_CURVE('',#333,#343,#31,.T.);
#407=EDGE_CURVE('',#337,#345,#19,.T.);
#408=EDGE_CURVE('',#345,#339,#32,.T.);
#409=EDGE_CURVE('',#345,#346,#290,.T.);
#410=EDGE_CURVE('',#344,#346,#33,.T.);
#411=EDGE_CURVE('',#346,#332,#20,.T.);
#412=EDGE_CURVE('',#347,#347,#291,.T.);
#413=EDGE_CURVE('',#348,#348,#292,.T.);
#414=EDGE_CURVE('',#349,#349,#293,.T.);
#415=EDGE_CURVE('',#350,#350,#294,.T.);
#416=ORIENTED_EDGE('',*,*,#351,.F.);
#417=ORIENTED_EDGE('',*,*,#352,.F.);
#418=ORIENTED_EDGE('',*,*,#352,.T.);
#419=ORIENTED_EDGE('',*,*,#353,.F.);
#420=ORIENTED_EDGE('',*,*,#354,.F.);
#421=ORIENTED_EDGE('',*,*,#354,.T.);
#422=ORIENTED_EDGE('',*,*,#355,.F.);
#423=ORIENTED_EDGE('',*,*,#356,.T.);
#424=ORIENTED_EDGE('',*,*,#356,.F.);
#425=ORIENTED_EDGE('',*,*,#357,.F.);
#426=ORIENTED_EDGE('',*,*,#358,.T.);
#427=ORIENTED_EDGE('',*,*,#358,.F.);
#428=ORIENTED_EDGE('',*,*,#359,.F.);
#429=ORIENTED_EDGE('',*,*,#360,.F.);
#430=ORIENTED_EDGE('',*,*,#360,.T.);
#431=ORIENTED_EDGE('',*,*,#361,.F.);
#432=ORIENTED_EDGE('',*,*,#361,.T.);
#433=ORIENTED_EDGE('',*,*,#362,.F.);
#434=ORIENTED_EDGE('',*,*,#362,.T.);
#435=ORIENTED_EDGE('',*,*,#363,.T.);
#436=ORIENTED_EDGE('',*,*,#351,.T.);
#437=ORIENTED_EDGE('',*,*,#353,.T.);
#438=ORIENTED_EDGE('',*,*,#359,.T.);
#439=ORIENTED_EDGE('',*,*,#364,.F.);
#440=ORIENTED_EDGE('',*,*,#365,.T.);
#441=ORIENTED_EDGE('',*,*,#364,.T.);
#442=ORIENTED_EDGE('',*,*,#363,.F.);
#443=ORIENTED_EDGE('',*,*,#357,.T.);
#444=ORIENTED_EDGE('',*,*,#355,.T.);
#445=ORIENTED_EDGE('',*,*,#366,.F.);
#446=ORIENTED_EDGE('',*,*,#367,.T.);
#447=ORIENTED_EDGE('',*,*,#366,.T.);
#448=ORIENTED_EDGE('',*,*,#368,.T.);
#449=ORIENTED_EDGE('',*,*,#369,.T.);
#450=ORIENTED_EDGE('',*,*,#370,.T.);
#451=ORIENTED_EDGE('',*,*,#369,.F.);
#452=ORIENTED_EDGE('',*,*,#371,.T.);
#453=ORIENTED_EDGE('',*,*,#370,.F.);
#454=ORIENTED_EDGE('',*,*,#372,.T.);
#455=ORIENTED_EDGE('',*,*,#373,.F.);
#456=ORIENTED_EDGE('',*,*,#374,.F.);
#457=ORIENTED_EDGE('',*,*,#375,.T.);
#458=ORIENTED_EDGE('',*,*,#376,.T.);
#459=ORIENTED_EDGE('',*,*,#377,.T.);
#460=ORIENTED_EDGE('',*,*,#378,.T.);
#461=ORIENTED_EDGE('',*,*,#379,.F.);
#462=ORIENTED_EDGE('',*,*,#379,.T.);
#463=ORIENTED_EDGE('',*,*,#372,.F.);
#464=ORIENTED_EDGE('',*,*,#380,.T.);
#465=ORIENTED_EDGE('',*,*,#381,.T.);
#466=ORIENTED_EDGE('',*,*,#382,.T.);
#467=ORIENTED_EDGE('',*,*,#383,.F.);
#468=ORIENTED_EDGE('',*,*,#383,.T.);
#469=ORIENTED_EDGE('',*,*,#384,.F.);
#470=ORIENTED_EDGE('',*,*,#384,.T.);
#471=ORIENTED_EDGE('',*,*,#385,.F.);
#472=ORIENTED_EDGE('',*,*,#385,.T.);
#473=ORIENTED_EDGE('',*,*,#381,.F.);
#474=ORIENTED_EDGE('',*,*,#386,.T.);
#475=ORIENTED_EDGE('',*,*,#380,.F.);
#476=ORIENTED_EDGE('',*,*,#386,.F.);
#477=ORIENTED_EDGE('',*,*,#387,.F.);
#478=ORIENTED_EDGE('',*,*,#378,.F.);
#479=ORIENTED_EDGE('',*,*,#388,.T.);
#480=ORIENTED_EDGE('',*,*,#376,.F.);
#481=ORIENTED_EDGE('',*,*,#389,.F.);
#482=ORIENTED_EDGE('',*,*,#390,.T.);
#483=ORIENTED_EDGE('',*,*,#391,.T.);
#484=ORIENTED_EDGE('',*,*,#392,.T.);
#485=ORIENTED_EDGE('',*,*,#393,.T.);
#486=ORIENTED_EDGE('',*,*,#394,.T.);
#487=ORIENTED_EDGE('',*,*,#395,.F.);
#488=ORIENTED_EDGE('',*,*,#377,.F.);
#489=ORIENTED_EDGE('',*,*,#388,.F.);
#490=ORIENTED_EDGE('',*,*,#375,.F.);
#491=ORIENTED_EDGE('',*,*,#396,.F.);
#492=ORIENTED_EDGE('',*,*,#397,.T.);
#493=ORIENTED_EDGE('',*,*,#398,.T.);
#494=ORIENTED_EDGE('',*,*,#399,.T.);
#495=ORIENTED_EDGE('',*,*,#400,.T.);
#496=ORIENTED_EDGE('',*,*,#401,.T.);
#497=ORIENTED_EDGE('',*,*,#402,.F.);
#498=ORIENTED_EDGE('',*,*,#398,.F.);
#499=ORIENTED_EDGE('',*,*,#403,.F.);
#500=ORIENTED_EDGE('',*,*,#393,.F.);
#501=ORIENTED_EDGE('',*,*,#404,.T.);
#502=ORIENTED_EDGE('',*,*,#399,.F.);
#503=ORIENTED_EDGE('',*,*,#404,.F.);
#504=ORIENTED_EDGE('',*,*,#392,.F.);
#505=ORIENTED_EDGE('',*,*,#405,.T.);
#506=ORIENTED_EDGE('',*,*,#400,.F.);
#507=ORIENTED_EDGE('',*,*,#405,.F.);
#508=ORIENTED_EDGE('',*,*,#391,.F.);
#509=ORIENTED_EDGE('',*,*,#406,.T.);
#510=ORIENTED_EDGE('',*,*,#407,.F.);
#511=ORIENTED_EDGE('',*,*,#394,.F.);
#512=ORIENTED_EDGE('',*,*,#403,.T.);
#513=ORIENTED_EDGE('',*,*,#397,.F.);
#514=ORIENTED_EDGE('',*,*,#408,.F.);
#515=ORIENTED_EDGE('',*,*,#409,.F.);
#516=ORIENTED_EDGE('',*,*,#408,.T.);
#517=ORIENTED_EDGE('',*,*,#402,.T.);
#518=ORIENTED_EDGE('',*,*,#410,.T.);
#519=ORIENTED_EDGE('',*,*,#411,.F.);
#520=ORIENTED_EDGE('',*,*,#410,.F.);
#521=ORIENTED_EDGE('',*,*,#401,.F.);
#522=ORIENTED_EDGE('',*,*,#406,.F.);
#523=ORIENTED_EDGE('',*,*,#390,.F.);
#524=ORIENTED_EDGE('',*,*,#407,.T.);
#525=ORIENTED_EDGE('',*,*,#409,.T.);
#526=ORIENTED_EDGE('',*,*,#411,.T.);
#527=ORIENTED_EDGE('',*,*,#389,.T.);
#528=ORIENTED_EDGE('',*,*,#374,.T.);
#529=ORIENTED_EDGE('',*,*,#395,.T.);
#530=ORIENTED_EDGE('',*,*,#387,.T.);
#531=ORIENTED_EDGE('',*,*,#412,.F.);
#532=ORIENTED_EDGE('',*,*,#396,.T.);
#533=ORIENTED_EDGE('',*,*,#413,.F.);
#534=ORIENTED_EDGE('',*,*,#413,.T.);
#535=ORIENTED_EDGE('',*,*,#412,.T.);
#536=ORIENTED_EDGE('',*,*,#373,.T.);
#537=ORIENTED_EDGE('',*,*,#414,.F.);
#538=ORIENTED_EDGE('',*,*,#371,.F.);
#539=ORIENTED_EDGE('',*,*,#415,.F.);
#540=ORIENTED_EDGE('',*,*,#414,.T.);
#541=ORIENTED_EDGE('',*,*,#415,.T.);
#542=ORIENTED_EDGE('',*,*,#382,.F.);
#543=ORIENTED_EDGE('',*,*,#367,.F.);
#544=ORIENTED_EDGE('',*,*,#368,.F.);
#545=ORIENTED_EDGE('',*,*,#365,.F.);
#546=CYLINDRICAL_SURFACE('',#616,0.55);
#547=CYLINDRICAL_SURFACE('',#620,0.55);
#548=CYLINDRICAL_SURFACE('',#624,0.55);
#549=CYLINDRICAL_SURFACE('',#628,0.55);
#550=CYLINDRICAL_SURFACE('',#632,4.7);
#551=CYLINDRICAL_SURFACE('',#637,4.25);
#552=CYLINDRICAL_SURFACE('',#652,12.7);
#553=CYLINDRICAL_SURFACE('',#656,4.);
#554=CYLINDRICAL_SURFACE('',#659,4.);
#555=CYLINDRICAL_SURFACE('',#662,3.5);
#556=CYLINDRICAL_SURFACE('',#672,9.);
#557=CYLINDRICAL_SURFACE('',#677,0.7);
#558=CYLINDRICAL_SURFACE('',#685,3.05);
#559=CYLINDRICAL_SURFACE('',#689,1.);
#560=CYLINDRICAL_SURFACE('',#691,1.);
#561=CYLINDRICAL_SURFACE('',#697,1.25);
#562=CYLINDRICAL_SURFACE('',#704,10.);
#563=CYLINDRICAL_SURFACE('',#707,8.8);
#564=CYLINDRICAL_SURFACE('',#708,8.8);
#565=ADVANCED_FACE('',(#124,#76),#546,.F.);
#566=ADVANCED_FACE('',(#125),#63,.F.);
#567=ADVANCED_FACE('',(#126,#77),#547,.F.);
#568=ADVANCED_FACE('',(#127),#64,.F.);
#569=ADVANCED_FACE('',(#128,#78),#548,.F.);
#570=ADVANCED_FACE('',(#129),#65,.F.);
#571=ADVANCED_FACE('',(#130,#79),#549,.F.);
#572=ADVANCED_FACE('',(#131),#66,.F.);
#573=ADVANCED_FACE('',(#132,#80),#550,.F.);
#574=ADVANCED_FACE('',(#133,#81),#67,.F.);
#575=ADVANCED_FACE('',(#134,#82),#551,.F.);
#576=ADVANCED_FACE('',(#135,#83),#68,.F.);
#577=ADVANCED_FACE('',(#84,#85,#86,#87),#47,.T.);
#578=ADVANCED_FACE('',(#136,#88),#69,.T.);
#579=ADVANCED_FACE('',(#89,#90,#91,#92),#48,.T.);
#580=ADVANCED_FACE('',(#137,#93),#70,.T.);
#581=ADVANCED_FACE('',(#94,#95),#49,.T.);
#582=ADVANCED_FACE('',(#138,#96),#552,.T.);
#583=ADVANCED_FACE('',(#97,#98),#50,.F.);
#584=ADVANCED_FACE('',(#139,#99),#553,.T.);
#585=ADVANCED_FACE('',(#140),#554,.T.);
#586=ADVANCED_FACE('',(#141,#100),#555,.T.);
#587=ADVANCED_FACE('',(#101,#102),#51,.F.);
#588=ADVANCED_FACE('',(#103,#104),#52,.F.);
#589=ADVANCED_FACE('',(#105,#106),#53,.F.);
#590=ADVANCED_FACE('',(#142,#107),#556,.F.);
#591=ADVANCED_FACE('',(#143,#108),#54,.F.);
#592=ADVANCED_FACE('',(#144,#109),#71,.T.);
#593=ADVANCED_FACE('',(#145,#110),#557,.F.);
#594=ADVANCED_FACE('',(#111,#112),#55,.T.);
#595=ADVANCED_FACE('',(#146,#113),#72,.T.);
#596=ADVANCED_FACE('',(#147),#56,.F.);
#597=ADVANCED_FACE('',(#148,#114),#558,.F.);
#598=ADVANCED_FACE('',(#149),#559,.F.);
#599=ADVANCED_FACE('',(#150),#57,.F.);
#600=ADVANCED_FACE('',(#151),#560,.F.);
#601=ADVANCED_FACE('',(#152),#58,.F.);
#602=ADVANCED_FACE('',(#153),#59,.T.);
#603=ADVANCED_FACE('',(#154),#60,.F.);
#604=ADVANCED_FACE('',(#155),#73,.T.);
#605=ADVANCED_FACE('',(#156,#115),#561,.F.);
#606=ADVANCED_FACE('',(#157,#116),#61,.T.);
#607=ADVANCED_FACE('',(#158,#117),#74,.F.);
#608=ADVANCED_FACE('',(#118,#119),#62,.F.);
#609=ADVANCED_FACE('',(#159,#120),#562,.T.);
#610=ADVANCED_FACE('',(#160,#121),#75,.T.);
#611=ADVANCED_FACE('',(#161,#122),#563,.F.);
#612=ADVANCED_FACE('',(#162,#123),#564,.F.);
#613=CLOSED_SHELL('',(#565,#566,#567,#568,#569,#570,#571,#572,#573,#574,
#575,#576,#577,#578,#579,#580,#581,#582,#583,#584,#585,#586,#587,#588,#589,
#590,#591,#592,#593,#594,#595,#596,#597,#598,#599,#600,#601,#602,#603,#604,
#605,#606,#607,#608,#609,#610,#611,#612));
#614=MANIFOLD_SOLID_BREP('\X2\30BD30EA30C330C9\X0\1',#613);
#615=AXIS2_PLACEMENT_3D('placement',#910,#709,#710);
#616=AXIS2_PLACEMENT_3D('',#911,#711,#712);
#617=AXIS2_PLACEMENT_3D('',#913,#713,#714);
#618=AXIS2_PLACEMENT_3D('',#915,#715,#716);
#619=AXIS2_PLACEMENT_3D('',#916,#717,#718);
#620=AXIS2_PLACEMENT_3D('',#917,#719,#720);
#621=AXIS2_PLACEMENT_3D('',#919,#721,#722);
#622=AXIS2_PLACEMENT_3D('',#921,#723,#724);
#623=AXIS2_PLACEMENT_3D('',#922,#725,#726);
#624=AXIS2_PLACEMENT_3D('',#923,#727,#728);
#625=AXIS2_PLACEMENT_3D('',#925,#729,#730);
#626=AXIS2_PLACEMENT_3D('',#927,#731,#732);
#627=AXIS2_PLACEMENT_3D('',#928,#733,#734);
#628=AXIS2_PLACEMENT_3D('',#929,#735,#736);
#629=AXIS2_PLACEMENT_3D('',#931,#737,#738);
#630=AXIS2_PLACEMENT_3D('',#933,#739,#740);
#631=AXIS2_PLACEMENT_3D('',#934,#741,#742);
#632=AXIS2_PLACEMENT_3D('',#935,#743,#744);
#633=AXIS2_PLACEMENT_3D('',#937,#745,#746);
#634=AXIS2_PLACEMENT_3D('',#939,#747,#748);
#635=AXIS2_PLACEMENT_3D('',#940,#749,#750);
#636=AXIS2_PLACEMENT_3D('',#942,#751,#752);
#637=AXIS2_PLACEMENT_3D('',#943,#753,#754);
#638=AXIS2_PLACEMENT_3D('',#945,#755,#756);
#639=AXIS2_PLACEMENT_3D('',#946,#757,#758);
#640=AXIS2_PLACEMENT_3D('',#948,#759,#760);
#641=AXIS2_PLACEMENT_3D('',#949,#761,#762);
#642=AXIS2_PLACEMENT_3D('',#951,#763,#764);
#643=AXIS2_PLACEMENT_3D('',#952,#765,#766);
#644=AXIS2_PLACEMENT_3D('',#954,#767,#768);
#645=AXIS2_PLACEMENT_3D('',#955,#769,#770);
#646=AXIS2_PLACEMENT_3D('',#957,#771,#772);
#647=AXIS2_PLACEMENT_3D('',#958,#773,#774);
#648=AXIS2_PLACEMENT_3D('',#960,#775,#776);
#649=AXIS2_PLACEMENT_3D('',#961,#777,#778);
#650=AXIS2_PLACEMENT_3D('',#963,#779,#780);
#651=AXIS2_PLACEMENT_3D('',#965,#781,#782);
#652=AXIS2_PLACEMENT_3D('',#966,#783,#784);
#653=AXIS2_PLACEMENT_3D('',#968,#785,#786);
#654=AXIS2_PLACEMENT_3D('',#969,#787,#788);
#655=AXIS2_PLACEMENT_3D('',#971,#789,#790);
#656=AXIS2_PLACEMENT_3D('',#972,#791,#792);
#657=AXIS2_PLACEMENT_3D('',#974,#793,#794);
#658=AXIS2_PLACEMENT_3D('',#976,#795,#796);
#659=AXIS2_PLACEMENT_3D('',#977,#797,#798);
#660=AXIS2_PLACEMENT_3D('',#980,#799,#800);
#661=AXIS2_PLACEMENT_3D('',#984,#802,#803);
#662=AXIS2_PLACEMENT_3D('',#986,#805,#806);
#663=AXIS2_PLACEMENT_3D('',#988,#807,#808);
#664=AXIS2_PLACEMENT_3D('',#990,#809,#810);
#665=AXIS2_PLACEMENT_3D('',#991,#811,#812);
#666=AXIS2_PLACEMENT_3D('',#992,#813,#814);
#667=AXIS2_PLACEMENT_3D('',#994,#815,#816);
#668=AXIS2_PLACEMENT_3D('',#996,#817,#818);
#669=AXIS2_PLACEMENT_3D('',#997,#819,#820);
#670=AXIS2_PLACEMENT_3D('',#999,#821,#822);
#671=AXIS2_PLACEMENT_3D('',#1001,#823,#824);
#672=AXIS2_PLACEMENT_3D('',#1002,#825,#826);
#673=AXIS2_PLACEMENT_3D('',#1004,#827,#828);
#674=AXIS2_PLACEMENT_3D('',#1005,#829,#830);
#675=AXIS2_PLACEMENT_3D('',#1007,#831,#832);
#676=AXIS2_PLACEMENT_3D('',#1008,#833,#834);
#677=AXIS2_PLACEMENT_3D('',#1009,#835,#836);
#678=AXIS2_PLACEMENT_3D('',#1011,#837,#838);
#679=AXIS2_PLACEMENT_3D('',#1012,#839,#840);
#680=AXIS2_PLACEMENT_3D('',#1014,#841,#842);
#681=AXIS2_PLACEMENT_3D('',#1015,#843,#844);
#682=AXIS2_PLACEMENT_3D('',#1019,#845,#846);
#683=AXIS2_PLACEMENT_3D('',#1027,#848,#849);
#684=AXIS2_PLACEMENT_3D('',#1031,#851,#852);
#685=AXIS2_PLACEMENT_3D('',#1037,#854,#855);
#686=AXIS2_PLACEMENT_3D('',#1039,#856,#857);
#687=AXIS2_PLACEMENT_3D('',#1055,#859,#860);
#688=AXIS2_PLACEMENT_3D('',#1069,#862,#863);
#689=AXIS2_PLACEMENT_3D('',#1070,#864,#865);
#690=AXIS2_PLACEMENT_3D('',#1073,#868,#869);
#691=AXIS2_PLACEMENT_3D('',#1075,#871,#872);
#692=AXIS2_PLACEMENT_3D('',#1077,#874,#875);
#693=AXIS2_PLACEMENT_3D('',#1083,#877,#878);
#694=AXIS2_PLACEMENT_3D('',#1085,#879,#880);
#695=AXIS2_PLACEMENT_3D('',#1087,#882,#883);
#696=AXIS2_PLACEMENT_3D('',#1091,#884,#885);
#697=AXIS2_PLACEMENT_3D('',#1092,#886,#887);
#698=AXIS2_PLACEMENT_3D('',#1094,#888,#889);
#699=AXIS2_PLACEMENT_3D('',#1095,#890,#891);
#700=AXIS2_PLACEMENT_3D('',#1097,#892,#893);
#701=AXIS2_PLACEMENT_3D('',#1098,#894,#895);
#702=AXIS2_PLACEMENT_3D('',#1099,#896,#897);
#703=AXIS2_PLACEMENT_3D('',#1101,#898,#899);
#704=AXIS2_PLACEMENT_3D('',#1102,#900,#901);
#705=AXIS2_PLACEMENT_3D('',#1104,#902,#903);
#706=AXIS2_PLACEMENT_3D('',#1105,#904,#905);
#707=AXIS2_PLACEMENT_3D('',#1106,#906,#907);
#708=AXIS2_PLACEMENT_3D('',#1107,#908,#909);
#709=DIRECTION('axis',(0.,0.,1.));
#710=DIRECTION('refdir',(1.,0.,0.));
#711=DIRECTION('center_axis',(0.,-1.,1.64518870866147E-016));
#712=DIRECTION('ref_axis',(-1.,3.1544617199433E-032,-1.82461433222533E-016));
#713=DIRECTION('center_axis',(0.,1.,-1.64518870866147E-016));
#714=DIRECTION('ref_axis',(-1.,3.1544617199433E-032,-1.82461433222533E-016));
#715=DIRECTION('center_axis',(0.,-1.,1.64518870866147E-016));
#716=DIRECTION('ref_axis',(-1.,3.1544617199433E-032,-1.82461433222533E-016));
#717=DIRECTION('center_axis',(0.,-1.,1.64518870866147E-016));
#718=DIRECTION('ref_axis',(-1.,3.1544617199433E-032,-1.82461433222533E-016));
#719=DIRECTION('center_axis',(0.,-1.,1.64518870866147E-016));
#720=DIRECTION('ref_axis',(1.,-1.13968663388766E-032,3.04926113137268E-016));
#721=DIRECTION('center_axis',(0.,1.,-1.64518870866147E-016));
#722=DIRECTION('ref_axis',(1.,-1.13968663388766E-032,3.04926113137268E-016));
#723=DIRECTION('center_axis',(0.,-1.,1.64518870866147E-016));
#724=DIRECTION('ref_axis',(1.,-1.13968663388766E-032,3.04926113137268E-016));
#725=DIRECTION('center_axis',(0.,-1.,1.64518870866147E-016));
#726=DIRECTION('ref_axis',(1.,-1.13968663388766E-032,3.04926113137268E-016));
#727=DIRECTION('center_axis',(0.,-1.,1.64518870866147E-016));
#728=DIRECTION('ref_axis',(-1.,3.1544617199433E-032,-1.82461433222533E-016));
#729=DIRECTION('center_axis',(0.,-1.,1.64518870866147E-016));
#730=DIRECTION('ref_axis',(-1.,3.1544617199433E-032,-1.82461433222533E-016));
#731=DIRECTION('center_axis',(0.,-1.,1.64518870866147E-016));
#732=DIRECTION('ref_axis',(-1.,3.1544617199433E-032,-1.82461433222533E-016));
#733=DIRECTION('center_axis',(0.,1.,-1.64518870866147E-016));
#734=DIRECTION('ref_axis',(-1.,3.1544617199433E-032,-1.82461433222533E-016));
#735=DIRECTION('center_axis',(0.,-1.,1.64518870866147E-016));
#736=DIRECTION('ref_axis',(1.,-1.13968663388766E-032,3.04926113137268E-016));
#737=DIRECTION('center_axis',(0.,-1.,1.64518870866147E-016));
#738=DIRECTION('ref_axis',(1.,-1.13968663388766E-032,3.04926113137268E-016));
#739=DIRECTION('center_axis',(0.,-1.,1.64518870866147E-016));
#740=DIRECTION('ref_axis',(1.,-1.13968663388766E-032,3.04926113137268E-016));
#741=DIRECTION('center_axis',(0.,1.,-1.64518870866147E-016));
#742=DIRECTION('ref_axis',(1.,-1.13968663388766E-032,3.04926113137268E-016));
#743=DIRECTION('center_axis',(0.,-1.,1.64518870866147E-016));
#744=DIRECTION('ref_axis',(1.82461433222533E-016,-1.64518870866147E-016,
-1.));
#745=DIRECTION('center_axis',(0.,1.,-1.64518870866147E-016));
#746=DIRECTION('ref_axis',(1.82461433222533E-016,-1.64518870866147E-016,
-1.));
#747=DIRECTION('center_axis',(0.,-1.,1.64518870866147E-016));
#748=DIRECTION('ref_axis',(1.82461433222533E-016,-1.64518870866147E-016,
-1.));
#749=DIRECTION('center_axis',(0.,-1.,1.64518870866147E-016));
#750=DIRECTION('ref_axis',(1.82461433222533E-016,-1.64518870866147E-016,
-1.));
#751=DIRECTION('center_axis',(0.,-1.,1.64518870866147E-016));
#752=DIRECTION('ref_axis',(1.,-3.1544617199433E-032,1.82461433222533E-016));
#753=DIRECTION('center_axis',(0.,1.,-1.64518870866147E-016));
#754=DIRECTION('ref_axis',(1.,-3.1544617199433E-032,1.82461433222533E-016));
#755=DIRECTION('center_axis',(0.,-1.,1.64518870866147E-016));
#756=DIRECTION('ref_axis',(1.,-3.1544617199433E-032,1.82461433222533E-016));
#757=DIRECTION('center_axis',(0.,1.,-1.64518870866147E-016));
#758=DIRECTION('ref_axis',(1.,-3.1544617199433E-032,1.82461433222533E-016));
#759=DIRECTION('center_axis',(0.,1.,-1.64518870866147E-016));
#760=DIRECTION('ref_axis',(1.,-3.1544617199433E-032,1.82461433222533E-016));
#761=DIRECTION('center_axis',(0.,-1.,1.64518870866147E-016));
#762=DIRECTION('ref_axis',(-1.77635683940025E-016,0.,1.));
#763=DIRECTION('center_axis',(0.,1.,-1.64518870866147E-016));
#764=DIRECTION('ref_axis',(1.,-3.1544617199433E-032,1.82461433222533E-016));
#765=DIRECTION('center_axis',(0.,1.,-1.64518870866147E-016));
#766=DIRECTION('ref_axis',(1.,-3.1544617199433E-032,1.82461433222533E-016));
#767=DIRECTION('center_axis',(0.,-1.,0.));
#768=DIRECTION('ref_axis',(0.,0.,1.));
#769=DIRECTION('center_axis',(0.,1.,-1.64518870866147E-016));
#770=DIRECTION('ref_axis',(1.77635683940025E-016,-1.77635683940025E-016,
-1.));
#771=DIRECTION('center_axis',(0.,-1.,1.64518870866147E-016));
#772=DIRECTION('ref_axis',(1.,-3.1544617199433E-032,1.82461433222533E-016));
#773=DIRECTION('center_axis',(0.,-1.,1.64518870866147E-016));
#774=DIRECTION('ref_axis',(1.,-3.1544617199433E-032,1.82461433222533E-016));
#775=DIRECTION('center_axis',(0.,1.,0.));
#776=DIRECTION('ref_axis',(0.,0.,1.));
#777=DIRECTION('center_axis',(0.,-1.,0.));
#778=DIRECTION('ref_axis',(0.,0.,-1.));
#779=DIRECTION('center_axis',(0.,1.,0.));
#780=DIRECTION('ref_axis',(0.,0.,1.));
#781=DIRECTION('center_axis',(0.,-1.,0.));
#782=DIRECTION('ref_axis',(1.,0.,0.));
#783=DIRECTION('center_axis',(0.,-1.,0.));
#784=DIRECTION('ref_axis',(1.,0.,0.));
#785=DIRECTION('center_axis',(0.,-1.,0.));
#786=DIRECTION('ref_axis',(1.,0.,0.));
#787=DIRECTION('center_axis',(0.,-1.,0.));
#788=DIRECTION('ref_axis',(0.,0.,-1.));
#789=DIRECTION('center_axis',(0.,-1.,0.));
#790=DIRECTION('ref_axis',(1.,0.,0.));
#791=DIRECTION('center_axis',(0.,-1.,0.));
#792=DIRECTION('ref_axis',(0.,0.,1.));
#793=DIRECTION('center_axis',(0.,-1.,0.));
#794=DIRECTION('ref_axis',(0.,0.,1.));
#795=DIRECTION('center_axis',(0.,-1.,0.));
#796=DIRECTION('ref_axis',(1.,0.,0.));
#797=DIRECTION('center_axis',(0.,-1.,0.));
#798=DIRECTION('ref_axis',(0.,0.,1.));
#799=DIRECTION('center_axis',(0.,1.,0.));
#800=DIRECTION('ref_axis',(0.,0.,1.));
#801=DIRECTION('',(0.,-1.,0.));
#802=DIRECTION('center_axis',(0.,1.,0.));
#803=DIRECTION('ref_axis',(0.,0.,1.));
#804=DIRECTION('',(0.,1.,0.));
#805=DIRECTION('center_axis',(0.,-1.,0.));
#806=DIRECTION('ref_axis',(0.,0.,1.));
#807=DIRECTION('center_axis',(0.,-1.,0.));
#808=DIRECTION('ref_axis',(1.,0.,0.));
#809=DIRECTION('center_axis',(0.,-1.,0.));
#810=DIRECTION('ref_axis',(1.,0.,0.));
#811=DIRECTION('center_axis',(0.,-1.,0.));
#812=DIRECTION('ref_axis',(0.,0.,-1.));
#813=DIRECTION('center_axis',(0.,1.,0.));
#814=DIRECTION('ref_axis',(0.,0.,1.));
#815=DIRECTION('center_axis',(0.,1.,0.));
#816=DIRECTION('ref_axis',(-1.,0.,0.));
#817=DIRECTION('center_axis',(0.,-1.,0.));
#818=DIRECTION('ref_axis',(1.,0.,0.));
#819=DIRECTION('center_axis',(0.,-1.,0.));
#820=DIRECTION('ref_axis',(0.,0.,-1.));
#821=DIRECTION('center_axis',(0.,-1.,0.));
#822=DIRECTION('ref_axis',(1.,0.,0.));
#823=DIRECTION('center_axis',(0.,-1.,0.));
#824=DIRECTION('ref_axis',(1.,0.,0.));
#825=DIRECTION('center_axis',(0.,-1.,0.));
#826=DIRECTION('ref_axis',(0.,0.,1.));
#827=DIRECTION('center_axis',(0.,-1.,0.));
#828=DIRECTION('ref_axis',(1.,0.,0.));
#829=DIRECTION('center_axis',(0.,1.,0.));
#830=DIRECTION('ref_axis',(0.,0.,1.));
#831=DIRECTION('center_axis',(0.,-1.,0.));
#832=DIRECTION('ref_axis',(1.,0.,0.));
#833=DIRECTION('center_axis',(0.,1.,0.));
#834=DIRECTION('ref_axis',(0.,0.,1.));
#835=DIRECTION('center_axis',(0.,-1.,0.));
#836=DIRECTION('ref_axis',(-1.,0.,0.));
#837=DIRECTION('center_axis',(0.,1.,0.));
#838=DIRECTION('ref_axis',(-1.,0.,0.));
#839=DIRECTION('center_axis',(0.,1.,0.));
#840=DIRECTION('ref_axis',(1.,0.,0.));
#841=DIRECTION('center_axis',(0.,-1.,0.));
#842=DIRECTION('ref_axis',(1.,0.,0.));
#843=DIRECTION('center_axis',(0.,1.,0.));
#844=DIRECTION('ref_axis',(0.,0.,1.));
#845=DIRECTION('center_axis',(1.,0.,0.));
#846=DIRECTION('ref_axis',(0.,0.,1.));
#847=DIRECTION('',(0.,-1.,2.77555756156289E-016));
#848=DIRECTION('center_axis',(1.,0.,0.));
#849=DIRECTION('ref_axis',(0.,-1.,1.11022302462516E-015));
#850=DIRECTION('',(0.,0.,-1.));
#851=DIRECTION('center_axis',(1.,0.,0.));
#852=DIRECTION('ref_axis',(0.,-8.32667268468867E-016,-1.));
#853=DIRECTION('',(0.,1.,-1.04083408558608E-016));
#854=DIRECTION('center_axis',(0.,1.,0.));
#855=DIRECTION('ref_axis',(1.,0.,0.));
#856=DIRECTION('center_axis',(0.,1.,0.));
#857=DIRECTION('ref_axis',(1.,0.,0.));
#858=DIRECTION('',(0.,-1.,0.));
#859=DIRECTION('center_axis',(0.,1.,0.));
#860=DIRECTION('ref_axis',(1.,0.,0.));
#861=DIRECTION('',(0.,1.,0.));
#862=DIRECTION('center_axis',(0.,-1.,0.));
#863=DIRECTION('ref_axis',(1.,0.,0.));
#864=DIRECTION('center_axis',(1.,0.,0.));
#865=DIRECTION('ref_axis',(0.,-8.32667268468867E-016,-1.));
#866=DIRECTION('',(1.,0.,0.));
#867=DIRECTION('',(1.,0.,0.));
#868=DIRECTION('center_axis',(0.,-1.,0.));
#869=DIRECTION('ref_axis',(0.,0.,-1.));
#870=DIRECTION('',(1.,0.,0.));
#871=DIRECTION('center_axis',(1.,0.,0.));
#872=DIRECTION('ref_axis',(0.,-1.,1.11022302462516E-015));
#873=DIRECTION('',(1.,0.,0.));
#874=DIRECTION('center_axis',(0.,-1.04083408558608E-016,-1.));
#875=DIRECTION('ref_axis',(0.,1.,-1.11022302462516E-016));
#876=DIRECTION('',(1.,0.,0.));
#877=DIRECTION('center_axis',(0.,1.,0.));
#878=DIRECTION('ref_axis',(0.,0.,1.));
#879=DIRECTION('center_axis',(0.,-1.,0.));
#880=DIRECTION('ref_axis',(0.,0.,1.));
#881=DIRECTION('',(-1.,0.,0.));
#882=DIRECTION('center_axis',(0.,2.77555756156289E-016,1.));
#883=DIRECTION('ref_axis',(0.,-1.,2.66453525910038E-016));
#884=DIRECTION('center_axis',(0.,-1.,0.));
#885=DIRECTION('ref_axis',(0.,0.,1.));
#886=DIRECTION('center_axis',(0.,1.,0.));
#887=DIRECTION('ref_axis',(1.,0.,0.));
#888=DIRECTION('center_axis',(0.,-1.,0.));
#889=DIRECTION('ref_axis',(1.,0.,0.));
#890=DIRECTION('center_axis',(0.,1.,0.));
#891=DIRECTION('ref_axis',(1.,0.,0.));
#892=DIRECTION('center_axis',(0.,1.,0.));
#893=DIRECTION('ref_axis',(1.,0.,0.));
#894=DIRECTION('center_axis',(0.,1.,0.));
#895=DIRECTION('ref_axis',(1.,0.,0.));
#896=DIRECTION('center_axis',(0.,-1.,0.));
#897=DIRECTION('ref_axis',(0.,0.,-1.));
#898=DIRECTION('center_axis',(0.,-1.,0.));
#899=DIRECTION('ref_axis',(0.,0.,-1.));
#900=DIRECTION('center_axis',(0.,-1.,0.));
#901=DIRECTION('ref_axis',(0.,0.,1.));
#902=DIRECTION('center_axis',(0.,1.,0.));
#903=DIRECTION('ref_axis',(0.,0.,-1.));
#904=DIRECTION('center_axis',(0.,-1.,0.));
#905=DIRECTION('ref_axis',(0.,0.,-1.));
#906=DIRECTION('center_axis',(0.,-1.,0.));
#907=DIRECTION('ref_axis',(0.,0.,1.));
#908=DIRECTION('center_axis',(0.,-1.,0.));
#909=DIRECTION('ref_axis',(0.,0.,1.));
#910=CARTESIAN_POINT('',(0.,0.,0.));
#911=CARTESIAN_POINT('Origin',(1.368460749169E-015,-19.25,-7.5));
#912=CARTESIAN_POINT('',(-0.549999999999999,-20.,-7.5));
#913=CARTESIAN_POINT('Origin',(1.368460749169E-015,-20.,-7.5));
#914=CARTESIAN_POINT('',(-0.549999999999999,-18.5,-7.5));
#915=CARTESIAN_POINT('Origin',(1.368460749169E-015,-18.5,-7.5));
#916=CARTESIAN_POINT('Origin',(1.368460749169E-015,-18.3347633297674,-7.5));
#917=CARTESIAN_POINT('Origin',(-2.28694584852951E-015,-19.25,7.5));
#918=CARTESIAN_POINT('',(0.549999999999998,-20.,7.5));
#919=CARTESIAN_POINT('Origin',(-2.28694584852951E-015,-20.,7.5));
#920=CARTESIAN_POINT('',(0.549999999999998,-18.5,7.5));
#921=CARTESIAN_POINT('Origin',(-2.28694584852951E-015,-18.5,7.5));
#922=CARTESIAN_POINT('Origin',(-2.28694584852951E-015,-18.3347633297674,
7.5));
#923=CARTESIAN_POINT('Origin',(1.368460749169E-015,-15.15,-7.5));
#924=CARTESIAN_POINT('',(-0.549999999999999,-14.4,-7.5));
#925=CARTESIAN_POINT('Origin',(1.368460749169E-015,-14.4,-7.5));
#926=CARTESIAN_POINT('',(-0.549999999999999,-15.9,-7.5));
#927=CARTESIAN_POINT('Origin',(1.368460749169E-015,-15.9,-7.5));
#928=CARTESIAN_POINT('Origin',(1.368460749169E-015,-16.0652366702326,-7.5));
#929=CARTESIAN_POINT('Origin',(-2.28694584852951E-015,-15.15,7.5));
#930=CARTESIAN_POINT('',(0.549999999999998,-14.4,7.5));
#931=CARTESIAN_POINT('Origin',(-2.28694584852951E-015,-14.4,7.5));
#932=CARTESIAN_POINT('',(0.549999999999998,-15.9,7.5));
#933=CARTESIAN_POINT('Origin',(-2.28694584852951E-015,-15.9,7.5));
#934=CARTESIAN_POINT('Origin',(-2.28694584852951E-015,-16.0652366702326,
7.5));
#935=CARTESIAN_POINT('Origin',(-1.90597539451087E-061,-19.2,-1.31615096692917E-016));
#936=CARTESIAN_POINT('',(8.57568736145906E-016,-20.,-4.7));
#937=CARTESIAN_POINT('Origin',(-1.90597539451087E-061,-20.,9.86076131526265E-031));
#938=CARTESIAN_POINT('',(8.57568736145906E-016,-18.4,-4.7));
#939=CARTESIAN_POINT('Origin',(-1.90597539451087E-061,-18.4,-2.63230193385835E-016));
#940=CARTESIAN_POINT('Origin',(-1.90597539451087E-061,-18.175,-3.00246939330718E-016));
#941=CARTESIAN_POINT('',(7.75461091195766E-016,-17.95,-4.25));
#942=CARTESIAN_POINT('Origin',(-1.90597539451087E-061,-17.95,-3.37263685275601E-016));
#943=CARTESIAN_POINT('Origin',(-1.90597539451087E-061,-20.,9.86076131526265E-031));
#944=CARTESIAN_POINT('',(-4.25,-14.85,-2.14320816579405E-015));
#945=CARTESIAN_POINT('Origin',(-1.90597539451087E-061,-14.85,-8.47272184960657E-016));
#946=CARTESIAN_POINT('Origin',(-1.90597539451087E-061,-14.625,-8.8428893090554E-016));
#947=CARTESIAN_POINT('',(-4.7,-14.4,-1.20329041739707E-015));
#948=CARTESIAN_POINT('Origin',(-1.90597539451087E-061,-14.4,-9.21305676850423E-016));
#949=CARTESIAN_POINT('Origin',(-4.5,-20.,-8.21076449501398E-016));
#950=CARTESIAN_POINT('',(-8.7,-20.,-5.21971753777841E-016));
#951=CARTESIAN_POINT('Origin',(-1.90597539451087E-061,-20.,9.86076131526265E-031));
#952=CARTESIAN_POINT('Origin',(-1.90597539451087E-061,-19.85,-2.46778306299211E-017));
#953=CARTESIAN_POINT('',(1.07768918324967E-015,-19.9,-8.8));
#954=CARTESIAN_POINT('Origin',(0.,-19.9,0.));
#955=CARTESIAN_POINT('Origin',(-4.5,-14.4,-1.74238212635182E-015));
#956=CARTESIAN_POINT('',(-8.7,-14.4,-3.57416286114466E-015));
#957=CARTESIAN_POINT('Origin',(-1.90597539451087E-061,-14.4,-9.21305676850423E-016));
#958=CARTESIAN_POINT('Origin',(-1.90597539451087E-061,-14.55,-8.96627846220501E-016));
#959=CARTESIAN_POINT('',(-1.07768918324967E-015,-14.5,-8.8));
#960=CARTESIAN_POINT('Origin',(0.,-14.5,0.));
#961=CARTESIAN_POINT('Origin',(4.44089209850063E-015,-21.,0.));
#962=CARTESIAN_POINT('',(0.,-21.,8.8));
#963=CARTESIAN_POINT('Origin',(0.,-21.,0.));
#964=CARTESIAN_POINT('',(12.7,-21.,0.));
#965=CARTESIAN_POINT('Origin',(0.,-21.,0.));
#966=CARTESIAN_POINT('Origin',(0.,-6.75,0.));
#967=CARTESIAN_POINT('',(0.,-15.,12.7));
#968=CARTESIAN_POINT('Origin',(0.,-15.,0.));
#969=CARTESIAN_POINT('Origin',(0.,-15.,10.));
#970=CARTESIAN_POINT('',(0.,-15.,10.));
#971=CARTESIAN_POINT('Origin',(0.,-15.,0.));
#972=CARTESIAN_POINT('Origin',(0.,4.5,0.));
#973=CARTESIAN_POINT('',(0.,2.2,4.));
#974=CARTESIAN_POINT('Origin',(0.,2.2,0.));
#975=CARTESIAN_POINT('',(0.,1.5,4.));
#976=CARTESIAN_POINT('Origin',(0.,1.5,0.));
#977=CARTESIAN_POINT('Origin',(0.,4.5,0.));
#978=CARTESIAN_POINT('',(-3.8,7.,1.24899959967968));
#979=CARTESIAN_POINT('',(-3.8,7.,-1.24899959967968));
#980=CARTESIAN_POINT('Origin',(0.,7.,0.));
#981=CARTESIAN_POINT('',(-3.8,4.,1.24899959967968));
#982=CARTESIAN_POINT('',(-3.8,4.5,1.24899959967968));
#983=CARTESIAN_POINT('',(-3.8,4.,-1.24899959967968));
#984=CARTESIAN_POINT('Origin',(0.,4.,0.));
#985=CARTESIAN_POINT('',(-3.8,4.5,-1.24899959967968));
#986=CARTESIAN_POINT('Origin',(0.,2.85,0.));
#987=CARTESIAN_POINT('',(0.,3.5,3.5));
#988=CARTESIAN_POINT('Origin',(0.,3.5,0.));
#989=CARTESIAN_POINT('',(0.,2.2,3.5));
#990=CARTESIAN_POINT('Origin',(0.,2.2,0.));
#991=CARTESIAN_POINT('Origin',(0.,2.2,3.5));
#992=CARTESIAN_POINT('Origin',(0.,-0.500000000000003,2.));
#993=CARTESIAN_POINT('',(0.7,-0.500000000000003,8.57252759403147E-017));
#994=CARTESIAN_POINT('Origin',(0.,-0.500000000000003,0.));
#995=CARTESIAN_POINT('',(0.,-0.500000000000003,2.));
#996=CARTESIAN_POINT('Origin',(0.,-0.500000000000003,0.));
#997=CARTESIAN_POINT('Origin',(0.,-0.800000000000006,8.8));
#998=CARTESIAN_POINT('',(0.,-0.800000000000006,8.8));
#999=CARTESIAN_POINT('Origin',(0.,-0.800000000000006,0.));
#1000=CARTESIAN_POINT('',(0.,-0.800000000000006,9.));
#1001=CARTESIAN_POINT('Origin',(0.,-0.800000000000006,0.));
#1002=CARTESIAN_POINT('Origin',(0.,-0.550000000000006,0.));
#1003=CARTESIAN_POINT('',(0.,-0.300000000000006,9.));
#1004=CARTESIAN_POINT('Origin',(0.,-0.300000000000006,0.));
#1005=CARTESIAN_POINT('Origin',(0.,-0.300000000000006,9.));
#1006=CARTESIAN_POINT('',(0.,-0.300000000000003,2.2));
#1007=CARTESIAN_POINT('Origin',(0.,-0.300000000000003,0.));
#1008=CARTESIAN_POINT('Origin',(0.,-0.400000000000003,0.));
#1009=CARTESIAN_POINT('Origin',(0.,7.5,0.));
#1010=CARTESIAN_POINT('',(0.7,0.,-8.57252759403147E-017));
#1011=CARTESIAN_POINT('Origin',(0.,0.,0.));
#1012=CARTESIAN_POINT('Origin',(0.,0.,0.));
#1013=CARTESIAN_POINT('',(-1.25,0.,-1.53080849893419E-016));
#1014=CARTESIAN_POINT('Origin',(0.,0.,0.));
#1015=CARTESIAN_POINT('Origin',(0.,3.75,0.));
#1016=CARTESIAN_POINT('Ctrl Pts',(-3.8,4.,1.24899959967968));
#1017=CARTESIAN_POINT('Ctrl Pts',(-3.8,3.61,0.));
#1018=CARTESIAN_POINT('Ctrl Pts',(-3.8,4.,-1.24899959967968));
#1019=CARTESIAN_POINT('Origin',(-3.8,7.5,-1.24899959967968));
#1020=CARTESIAN_POINT('',(-3.8,7.0439919110295,1.1));
#1021=CARTESIAN_POINT('Ctrl Pts',(-3.8,7.0439919110295,1.1));
#1022=CARTESIAN_POINT('Ctrl Pts',(-3.8,7.02339118289868,1.17408786102204));
#1023=CARTESIAN_POINT('Ctrl Pts',(-3.8,7.,1.24899959967968));
#1024=CARTESIAN_POINT('',(-3.8,5.5,1.1));
#1025=CARTESIAN_POINT('',(-3.8,7.5,1.1));
#1026=CARTESIAN_POINT('',(-3.8,4.5,0.1));
#1027=CARTESIAN_POINT('Origin',(-3.8,5.5,0.0999999999999993));
#1028=CARTESIAN_POINT('',(-3.8,4.5,-0.0999999999999994));
#1029=CARTESIAN_POINT('',(-3.8,4.5,-0.574499799839839));
#1030=CARTESIAN_POINT('',(-3.8,5.5,-1.1));
#1031=CARTESIAN_POINT('Origin',(-3.8,5.5,-0.0999999999999995));
#1032=CARTESIAN_POINT('',(-3.8,7.0439919110295,-1.1));
#1033=CARTESIAN_POINT('',(-3.8,6.5,-1.1));
#1034=CARTESIAN_POINT('Ctrl Pts',(-3.8,7.,-1.24899959967968));
#1035=CARTESIAN_POINT('Ctrl Pts',(-3.8,7.02339118289865,-1.17408786102212));
#1036=CARTESIAN_POINT('Ctrl Pts',(-3.8,7.0439919110295,-1.1));
#1037=CARTESIAN_POINT('Origin',(0.,5.6,0.));
#1038=CARTESIAN_POINT('',(3.05,3.7,0.));
#1039=CARTESIAN_POINT('Origin',(0.,3.7,0.));
#1040=CARTESIAN_POINT('',(-2.84473197331488,7.5,-1.1));
#1041=CARTESIAN_POINT('',(-2.84473197331489,5.5,-1.1));
#1042=CARTESIAN_POINT('',(-2.84473197331489,5.6,-1.1));
#1043=CARTESIAN_POINT('',(-3.04836021493524,4.5,-0.0999999999999994));
#1044=CARTESIAN_POINT('Ctrl Pts',(-2.84473197331488,5.5,-1.1));
#1045=CARTESIAN_POINT('Ctrl Pts',(-2.84473197331488,5.37330679158052,-1.1));
#1046=CARTESIAN_POINT('Ctrl Pts',(-2.85498698975176,5.23902730517829,-1.0744709797351));
#1047=CARTESIAN_POINT('Ctrl Pts',(-2.89136525714285,4.99332134001241,-0.972340163143333));
#1048=CARTESIAN_POINT('Ctrl Pts',(-2.9169089330774,4.88178775109044,-0.895790468557783));
#1049=CARTESIAN_POINT('Ctrl Pts',(-2.96526408461874,4.70534837259476,-0.71977157374075));
#1050=CARTESIAN_POINT('Ctrl Pts',(-2.99138051799447,4.62838819422279,-0.608029599777612));
#1051=CARTESIAN_POINT('Ctrl Pts',(-3.0310392509104,4.52568408052599,-0.361743635109695));
#1052=CARTESIAN_POINT('Ctrl Pts',(-3.04419037109866,4.5,-0.227111860539259));
#1053=CARTESIAN_POINT('Ctrl Pts',(-3.04836021493524,4.5,-0.0999999999999997));
#1054=CARTESIAN_POINT('',(-3.04836021493524,4.5,0.1));
#1055=CARTESIAN_POINT('Origin',(0.,4.5,0.));
#1056=CARTESIAN_POINT('',(-2.84473197331489,5.5,1.1));
#1057=CARTESIAN_POINT('Ctrl Pts',(-3.04836021493524,4.5,0.0999999999999993));
#1058=CARTESIAN_POINT('Ctrl Pts',(-3.04419037109866,4.5,0.227111860539258));
#1059=CARTESIAN_POINT('Ctrl Pts',(-3.0310392509104,4.52568408052599,0.361743635109694));
#1060=CARTESIAN_POINT('Ctrl Pts',(-2.99138051799447,4.62838819422279,0.608029599777612));
#1061=CARTESIAN_POINT('Ctrl Pts',(-2.96526408461874,4.70534837259476,0.71977157374075));
#1062=CARTESIAN_POINT('Ctrl Pts',(-2.9169089330774,4.88178775109044,0.895790468557783));
#1063=CARTESIAN_POINT('Ctrl Pts',(-2.89136525714285,4.99332134001241,0.972340163143334));
#1064=CARTESIAN_POINT('Ctrl Pts',(-2.85498698975176,5.23902730517829,1.0744709797351));
#1065=CARTESIAN_POINT('Ctrl Pts',(-2.84473197331488,5.37330679158052,1.1));
#1066=CARTESIAN_POINT('Ctrl Pts',(-2.84473197331488,5.5,1.1));
#1067=CARTESIAN_POINT('',(-2.84473197331489,7.5,1.1));
#1068=CARTESIAN_POINT('',(-2.84473197331489,5.6,1.1));
#1069=CARTESIAN_POINT('Origin',(0.,7.5,0.));
#1070=CARTESIAN_POINT('Origin',(-3.8,5.5,-0.0999999999999995));
#1071=CARTESIAN_POINT('',(-3.8,5.5,-1.1));
#1072=CARTESIAN_POINT('',(-3.8,4.5,-0.0999999999999994));
#1073=CARTESIAN_POINT('Origin',(-3.8,4.5,0.1));
#1074=CARTESIAN_POINT('',(-3.8,4.5,0.1));
#1075=CARTESIAN_POINT('Origin',(-3.8,5.5,0.0999999999999993));
#1076=CARTESIAN_POINT('',(-3.8,5.5,1.1));
#1077=CARTESIAN_POINT('Origin',(-3.8,5.5,-1.1));
#1078=CARTESIAN_POINT('',(-3.32264954516723,7.5,-1.1));
#1079=CARTESIAN_POINT('Ctrl Pts',(-3.8,7.0439919110295,-1.1));
#1080=CARTESIAN_POINT('Ctrl Pts',(-3.5467274393941,7.2872764819043,-1.1));
#1081=CARTESIAN_POINT('Ctrl Pts',(-3.32264954516723,7.5,-1.1));
#1082=CARTESIAN_POINT('',(4.45,7.5,-1.1));
#1083=CARTESIAN_POINT('Origin',(12.7,7.5,0.));
#1084=CARTESIAN_POINT('',(-3.32264954516723,7.5,1.1));
#1085=CARTESIAN_POINT('Origin',(0.,7.5,0.));
#1086=CARTESIAN_POINT('',(4.45,7.5,1.1));
#1087=CARTESIAN_POINT('Origin',(-3.8,7.5,1.1));
#1088=CARTESIAN_POINT('Ctrl Pts',(-3.32264954516723,7.5,1.1));
#1089=CARTESIAN_POINT('Ctrl Pts',(-3.54672743939413,7.28727648190427,1.1));
#1090=CARTESIAN_POINT('Ctrl Pts',(-3.8,7.0439919110295,1.1));
#1091=CARTESIAN_POINT('Origin',(0.,7.25,0.));
#1092=CARTESIAN_POINT('Origin',(0.,-38.353789374489,0.));
#1093=CARTESIAN_POINT('',(-1.25,3.2,-1.53080849893419E-016));
#1094=CARTESIAN_POINT('Origin',(0.,3.2,0.));
#1095=CARTESIAN_POINT('Origin',(0.,3.7,0.));
#1096=CARTESIAN_POINT('',(-1.75,3.7,2.14313189850787E-016));
#1097=CARTESIAN_POINT('Origin',(0.,3.7,0.));
#1098=CARTESIAN_POINT('Origin',(0.,3.45,0.));
#1099=CARTESIAN_POINT('Origin',(0.,1.5,4.));
#1100=CARTESIAN_POINT('',(-1.16341445918999E-015,1.5,9.5));
#1101=CARTESIAN_POINT('Origin',(0.,1.5,0.));
#1102=CARTESIAN_POINT('Origin',(0.,-6.75,0.));
#1103=CARTESIAN_POINT('',(1.22464679914735E-015,0.999999999999999,10.));
#1104=CARTESIAN_POINT('Origin',(0.,0.999999999999999,0.));
#1105=CARTESIAN_POINT('Origin',(0.,1.25,0.));
#1106=CARTESIAN_POINT('Origin',(0.,-10.9,0.));
#1107=CARTESIAN_POINT('Origin',(0.,-10.9,0.));
#1108=UNCERTAINTY_MEASURE_WITH_UNIT(LENGTH_MEASURE(0.01),#1112,
'DISTANCE_ACCURACY_VALUE',
'Maximum model space distance between geometric entities at asserted c
onnectivities');
#1109=UNCERTAINTY_MEASURE_WITH_UNIT(LENGTH_MEASURE(1.E-006),#1112,
'DISTANCE_ACCURACY_VALUE',
'Maximum model space distance between geometric entities at asserted c
onnectivities');
#1110=(
GEOMETRIC_REPRESENTATION_CONTEXT(3)
GLOBAL_UNCERTAINTY_ASSIGNED_CONTEXT((#1108))
GLOBAL_UNIT_ASSIGNED_CONTEXT((#1112,#1115,#1113))
REPRESENTATION_CONTEXT('','3D')
);
#1111=(
GEOMETRIC_REPRESENTATION_CONTEXT(3)
GLOBAL_UNCERTAINTY_ASSIGNED_CONTEXT((#1109))
GLOBAL_UNIT_ASSIGNED_CONTEXT((#1112,#1115,#1113))
REPRESENTATION_CONTEXT('','3D')
);
#1112=(
LENGTH_UNIT()
NAMED_UNIT(*)
SI_UNIT(.MILLI.,.METRE.)
);
#1113=(
NAMED_UNIT(*)
SI_UNIT($,.STERADIAN.)
SOLID_ANGLE_UNIT()
);
#1114=DIMENSIONAL_EXPONENTS(0.,0.,0.,0.,0.,0.,0.);
#1115=(
CONVERSION_BASED_UNIT('degree',#1117)
NAMED_UNIT(#1114)
PLANE_ANGLE_UNIT()
);
#1116=(
NAMED_UNIT(*)
PLANE_ANGLE_UNIT()
SI_UNIT($,.RADIAN.)
);
#1117=PLANE_ANGLE_MEASURE_WITH_UNIT(PLANE_ANGLE_MEASURE(0.01745329252),
#1116);
#1118=SHAPE_DEFINITION_REPRESENTATION(#1119,#1120);
#1119=PRODUCT_DEFINITION_SHAPE('',$,#1122);
#1120=SHAPE_REPRESENTATION('',(#615),#1110);
#1121=PRODUCT_DEFINITION_CONTEXT('part definition',#1126,'design');
#1122=PRODUCT_DEFINITION('FC25.4PC-M02-14001_TS01',
'FC25.4PC-M02-14001_TS01',#1123,#1121);
#1123=PRODUCT_DEFINITION_FORMATION('',$,#1128);
#1124=PRODUCT_RELATED_PRODUCT_CATEGORY('FC25.4PC-M02-14001_TS01',
'FC25.4PC-M02-14001_TS01',(#1128));
#1125=APPLICATION_PROTOCOL_DEFINITION('international standard',
'automotive_design',2009,#1126);
#1126=APPLICATION_CONTEXT(
'Core Data for Automotive Mechanical Design Process');
#1127=PRODUCT_CONTEXT('part definition',#1126,'mechanical');
#1128=PRODUCT('FC25.4PC-M02-14001_TS01','FC25.4PC-M02-14001_TS01',$,(#1127));
#1129=PRESENTATION_STYLE_ASSIGNMENT((#1130));
#1130=SURFACE_STYLE_USAGE(.BOTH.,#1131);
#1131=SURFACE_SIDE_STYLE($,(#1132));
#1132=SURFACE_STYLE_FILL_AREA(#1133);
#1133=FILL_AREA_STYLE($,(#1134));
#1134=FILL_AREA_STYLE_COLOUR($,#1135);
#1135=COLOUR_RGB('',0.749019607843137,0.749019607843137,0.749019607843137);
ENDSEC;
END-ISO-10303-21;
