ISO-10303-21;
HEADER;
/****************************************************************
 * Generated by software with PDE/Lib inside                    *
 * PDElib Version v51a, created Tue 12/06/2005                  *
 * International Technegroup Inc. (www.iti-oh.com)              *
 ****************************************************************/
FILE_DESCRIPTION((''),'2;1');
FILE_NAME('S:\\1\X2\898F683C54C156F39762FF83FF9EFF70FF80\X0\\\OpticalHard\\01_\X2\56FD518588FD54C1\X0\\\2_Holders\\LHF\\LHF-25.4\\LHF-25.4.stp','2007-01-19T15:05:26',('shimizu'),(''),'Autodesk Inventor 11','Autodesk Inventor 11','');
FILE_SCHEMA(('AUTOMOTIVE_DESIGN { 1 0 10303 214 1 1 1 1 }'));
ENDSEC;
DATA;
#5=APPLICATION_CONTEXT('automotive design');
#6=APPLICATION_PROTOCOL_DEFINITION('Draft International Standard','automotive_design',1998,#5);
#7=PRODUCT_CONTEXT('None',#5,'mechanical');
#8=PRODUCT('LHF-25.4-C1-S01','LHF-25.4-C1-S01','None',(#7));
#9=PRODUCT_RELATED_PRODUCT_CATEGORY('part','description',(#8));
#10=PRODUCT_DEFINITION_FORMATION('None','None',#8);
#11=PRODUCT_DEFINITION_CONTEXT('part definition',#5,'design');
#12=PRODUCT_DEFINITION('None','None',#10,#11);
#18=(NAMED_UNIT(*)PLANE_ANGLE_UNIT()SI_UNIT($,.RADIAN.));
#19=DIMENSIONAL_EXPONENTS(0.0,0.0,0.0,0.0,0.0,0.0,0.0);
#20=PLANE_ANGLE_MEASURE_WITH_UNIT(PLANE_ANGLE_MEASURE(0.017453292500000),#18);
#24=(CONVERSION_BASED_UNIT('DEGREE',#20)NAMED_UNIT(#19)PLANE_ANGLE_UNIT());
#28=(NAMED_UNIT(*)SI_UNIT($,.STERADIAN.)SOLID_ANGLE_UNIT());
#32=(LENGTH_UNIT()NAMED_UNIT(*)SI_UNIT(.MILLI.,.METRE.));
#34=UNCERTAINTY_MEASURE_WITH_UNIT(LENGTH_MEASURE(0.010000000000000),#32,'DISTANCE_ACCURACY_VALUE','');
#36=(GEOMETRIC_REPRESENTATION_CONTEXT(3)GLOBAL_UNCERTAINTY_ASSIGNED_CONTEXT((#34))GLOBAL_UNIT_ASSIGNED_CONTEXT((#24,#28,#32))REPRESENTATION_CONTEXT('None','None'));
#37=AXIS2_PLACEMENT_3D('',#38,#39,#40);
#38=CARTESIAN_POINT('',(0.0,0.0,0.0));
#39=DIRECTION('',(0.0,0.0,1.0));
#40=DIRECTION('',(1.0,0.0,0.0));
#41=SHAPE_REPRESENTATION('',(#37),#36);
#42=PRODUCT_DEFINITION_SHAPE('','',#12);
#43=SHAPE_DEFINITION_REPRESENTATION(#42,#41);
#44=CARTESIAN_POINT('',(-1.200000000000000,0.0,-0.400000000000000));
#45=DIRECTION('',(0.0,0.0,-1.0));
#46=DIRECTION('',(-1.0,0.0,0.0));
#47=AXIS2_PLACEMENT_3D('',#44,#45,#46);
#48=PLANE('',#47);
#49=CARTESIAN_POINT('',(-1.199999999999999,12.693699224418388,-0.400000000000000));
#50=VERTEX_POINT('',#49);
#51=CARTESIAN_POINT('',(-5.551115E-016,12.693699224418388,-0.400000000000000));
#52=VERTEX_POINT('',#51);
#53=CARTESIAN_POINT('',(-1.199999999999999,12.693699224418388,-0.400000000000000));
#54=DIRECTION('',(1.0,0.0,0.0));
#55=VECTOR('',#54,1.199999999999999);
#56=LINE('',#53,#55);
#57=EDGE_CURVE('',#50,#52,#56,.T.);
#58=ORIENTED_EDGE('',*,*,#57,.F.);
#59=CARTESIAN_POINT('',(-1.200000000000000,10.992724866929038,-0.400000000000000));
#60=VERTEX_POINT('',#59);
#61=CARTESIAN_POINT('',(-1.200000000000000,10.992724866929038,-0.400000000000000));
#62=DIRECTION('',(0.0,1.0,0.0));
#63=VECTOR('',#62,1.700974357489351);
#64=LINE('',#61,#63);
#65=EDGE_CURVE('',#60,#50,#64,.T.);
#66=ORIENTED_EDGE('',*,*,#65,.F.);
#67=CARTESIAN_POINT('',(-1.387779E-016,10.992724866929038,-0.400000000000000));
#68=VERTEX_POINT('',#67);
#69=CARTESIAN_POINT('',(-1.387779E-016,10.992724866929038,-0.400000000000000));
#70=DIRECTION('',(-1.0,0.0,0.0));
#71=VECTOR('',#70,1.200000000000000);
#72=LINE('',#69,#71);
#73=EDGE_CURVE('',#68,#60,#72,.T.);
#74=ORIENTED_EDGE('',*,*,#73,.F.);
#75=CARTESIAN_POINT('',(-5.551115E-016,12.693699224418388,-0.400000000000000));
#76=DIRECTION('',(0.0,-1.0,0.0));
#77=VECTOR('',#76,1.700974357489351);
#78=LINE('',#75,#77);
#79=EDGE_CURVE('',#52,#68,#78,.T.);
#80=ORIENTED_EDGE('',*,*,#79,.F.);
#81=EDGE_LOOP('',(#58,#66,#74,#80));
#82=FACE_OUTER_BOUND('',#81,.T.);
#83=ADVANCED_FACE('',(#82),#48,.F.);
#84=CARTESIAN_POINT('',(-1.200000000000000,0.0,0.400000000000000));
#85=DIRECTION('',(-1.0,0.0,0.0));
#86=DIRECTION('',(0.0,-1.0,0.0));
#87=AXIS2_PLACEMENT_3D('',#84,#85,#86);
#88=PLANE('',#87);
#89=CARTESIAN_POINT('',(-1.199999999999999,12.693699224418388,0.400000000000000));
#90=VERTEX_POINT('',#89);
#91=CARTESIAN_POINT('',(-1.200000000000000,0.0,0.0));
#92=DIRECTION('',(-1.0,0.0,0.0));
#93=DIRECTION('',(0.0,0.0,-1.0));
#94=AXIS2_PLACEMENT_3D('',#91,#92,#93);
#95=CIRCLE('',#94,12.699999999999999);
#96=EDGE_CURVE('',#90,#50,#95,.T.);
#97=ORIENTED_EDGE('',*,*,#96,.F.);
#98=CARTESIAN_POINT('',(-1.200000000000000,10.992724866929038,0.400000000000000));
#99=VERTEX_POINT('',#98);
#100=CARTESIAN_POINT('',(-1.200000000000000,10.992724866929038,0.400000000000000));
#101=DIRECTION('',(0.0,1.0,0.0));
#102=VECTOR('',#101,1.700974357489351);
#103=LINE('',#100,#102);
#104=EDGE_CURVE('',#99,#90,#103,.T.);
#105=ORIENTED_EDGE('',*,*,#104,.F.);
#106=CARTESIAN_POINT('',(-1.200000000000000,0.0,0.0));
#107=DIRECTION('',(1.0,0.0,0.0));
#108=DIRECTION('',(0.0,-1.0,0.0));
#109=AXIS2_PLACEMENT_3D('',#106,#107,#108);
#110=CIRCLE('',#109,11.0);
#111=EDGE_CURVE('',#60,#99,#110,.T.);
#112=ORIENTED_EDGE('',*,*,#111,.F.);
#113=ORIENTED_EDGE('',*,*,#65,.T.);
#114=EDGE_LOOP('',(#97,#105,#112,#113));
#115=FACE_OUTER_BOUND('',#114,.T.);
#116=ADVANCED_FACE('',(#115),#88,.F.);
#117=CARTESIAN_POINT('',(2.775558E-016,0.0,0.400000000000000));
#118=DIRECTION('',(0.0,0.0,1.0));
#119=DIRECTION('',(1.0,0.0,0.0));
#120=AXIS2_PLACEMENT_3D('',#117,#118,#119);
#121=PLANE('',#120);
#122=CARTESIAN_POINT('',(-5.551115E-016,12.693699224418388,0.400000000000000));
#123=VERTEX_POINT('',#122);
#124=CARTESIAN_POINT('',(-5.551115E-016,12.693699224418388,0.400000000000000));
#125=DIRECTION('',(-1.0,0.0,0.0));
#126=VECTOR('',#125,1.199999999999999);
#127=LINE('',#124,#126);
#128=EDGE_CURVE('',#123,#90,#127,.T.);
#129=ORIENTED_EDGE('',*,*,#128,.F.);
#130=CARTESIAN_POINT('',(2.775558E-016,10.992724866929038,0.400000000000000));
#131=VERTEX_POINT('',#130);
#132=CARTESIAN_POINT('',(2.775558E-016,10.992724866929038,0.400000000000000));
#133=DIRECTION('',(0.0,1.0,0.0));
#134=VECTOR('',#133,1.700974357489351);
#135=LINE('',#132,#134);
#136=EDGE_CURVE('',#131,#123,#135,.T.);
#137=ORIENTED_EDGE('',*,*,#136,.F.);
#138=CARTESIAN_POINT('',(-1.200000000000000,10.992724866929038,0.400000000000000));
#139=DIRECTION('',(1.0,0.0,0.0));
#140=VECTOR('',#139,1.200000000000000);
#141=LINE('',#138,#140);
#142=EDGE_CURVE('',#99,#131,#141,.T.);
#143=ORIENTED_EDGE('',*,*,#142,.F.);
#144=ORIENTED_EDGE('',*,*,#104,.T.);
#145=EDGE_LOOP('',(#129,#137,#143,#144));
#146=FACE_OUTER_BOUND('',#145,.T.);
#147=ADVANCED_FACE('',(#146),#121,.F.);
#148=CARTESIAN_POINT('',(2.775558E-016,0.0,0.400000000000000));
#149=DIRECTION('',(0.0,0.0,1.0));
#150=DIRECTION('',(1.0,0.0,0.0));
#151=AXIS2_PLACEMENT_3D('',#148,#149,#150);
#152=PLANE('',#151);
#153=CARTESIAN_POINT('',(-1.199999999999999,-12.693699224418388,0.400000000000000));
#154=VERTEX_POINT('',#153);
#155=CARTESIAN_POINT('',(-5.551115E-016,-12.693699224418388,0.400000000000000));
#156=VERTEX_POINT('',#155);
#157=CARTESIAN_POINT('',(-1.199999999999999,-12.693699224418388,0.400000000000000));
#158=DIRECTION('',(1.0,0.0,0.0));
#159=VECTOR('',#158,1.199999999999999);
#160=LINE('',#157,#159);
#161=EDGE_CURVE('',#154,#156,#160,.T.);
#162=ORIENTED_EDGE('',*,*,#161,.F.);
#163=CARTESIAN_POINT('',(-1.200000000000000,-10.992724866929038,0.400000000000000));
#164=VERTEX_POINT('',#163);
#165=CARTESIAN_POINT('',(-1.199999999999999,-12.693699224418388,0.400000000000000));
#166=DIRECTION('',(0.0,1.0,0.0));
#167=VECTOR('',#166,1.700974357489351);
#168=LINE('',#165,#167);
#169=EDGE_CURVE('',#154,#164,#168,.T.);
#170=ORIENTED_EDGE('',*,*,#169,.T.);
#171=CARTESIAN_POINT('',(2.775558E-016,-10.992724866929038,0.400000000000000));
#172=VERTEX_POINT('',#171);
#173=CARTESIAN_POINT('',(2.775558E-016,-10.992724866929038,0.400000000000000));
#174=DIRECTION('',(-1.0,0.0,0.0));
#175=VECTOR('',#174,1.200000000000000);
#176=LINE('',#173,#175);
#177=EDGE_CURVE('',#172,#164,#176,.T.);
#178=ORIENTED_EDGE('',*,*,#177,.F.);
#179=CARTESIAN_POINT('',(-5.551115E-016,-12.693699224418388,0.400000000000000));
#180=DIRECTION('',(0.0,1.0,0.0));
#181=VECTOR('',#180,1.700974357489351);
#182=LINE('',#179,#181);
#183=EDGE_CURVE('',#156,#172,#182,.T.);
#184=ORIENTED_EDGE('',*,*,#183,.F.);
#185=EDGE_LOOP('',(#162,#170,#178,#184));
#186=FACE_OUTER_BOUND('',#185,.T.);
#187=ADVANCED_FACE('',(#186),#152,.F.);
#188=CARTESIAN_POINT('',(-1.200000000000000,0.0,-0.400000000000000));
#189=DIRECTION('',(0.0,0.0,-1.0));
#190=DIRECTION('',(-1.0,0.0,0.0));
#191=AXIS2_PLACEMENT_3D('',#188,#189,#190);
#192=PLANE('',#191);
#193=CARTESIAN_POINT('',(-5.551115E-016,-12.693699224418388,-0.400000000000000));
#194=VERTEX_POINT('',#193);
#195=CARTESIAN_POINT('',(-1.199999999999999,-12.693699224418388,-0.400000000000000));
#196=VERTEX_POINT('',#195);
#197=CARTESIAN_POINT('',(-5.551115E-016,-12.693699224418388,-0.400000000000000));
#198=DIRECTION('',(-1.0,0.0,0.0));
#199=VECTOR('',#198,1.199999999999999);
#200=LINE('',#197,#199);
#201=EDGE_CURVE('',#194,#196,#200,.T.);
#202=ORIENTED_EDGE('',*,*,#201,.F.);
#203=CARTESIAN_POINT('',(-1.387779E-016,-10.992724866929038,-0.400000000000000));
#204=VERTEX_POINT('',#203);
#205=CARTESIAN_POINT('',(-1.387779E-016,-10.992724866929038,-0.400000000000000));
#206=DIRECTION('',(0.0,-1.0,0.0));
#207=VECTOR('',#206,1.700974357489351);
#208=LINE('',#205,#207);
#209=EDGE_CURVE('',#204,#194,#208,.T.);
#210=ORIENTED_EDGE('',*,*,#209,.F.);
#211=CARTESIAN_POINT('',(-1.200000000000000,-10.992724866929038,-0.400000000000000));
#212=VERTEX_POINT('',#211);
#213=CARTESIAN_POINT('',(-1.200000000000000,-10.992724866929038,-0.400000000000000));
#214=DIRECTION('',(1.0,0.0,0.0));
#215=VECTOR('',#214,1.200000000000000);
#216=LINE('',#213,#215);
#217=EDGE_CURVE('',#212,#204,#216,.T.);
#218=ORIENTED_EDGE('',*,*,#217,.F.);
#219=CARTESIAN_POINT('',(-1.199999999999999,-12.693699224418388,-0.400000000000000));
#220=DIRECTION('',(0.0,1.0,0.0));
#221=VECTOR('',#220,1.700974357489351);
#222=LINE('',#219,#221);
#223=EDGE_CURVE('',#196,#212,#222,.T.);
#224=ORIENTED_EDGE('',*,*,#223,.F.);
#225=EDGE_LOOP('',(#202,#210,#218,#224));
#226=FACE_OUTER_BOUND('',#225,.T.);
#227=ADVANCED_FACE('',(#226),#192,.F.);
#228=CARTESIAN_POINT('',(-1.200000000000000,0.0,0.400000000000000));
#229=DIRECTION('',(-1.0,0.0,0.0));
#230=DIRECTION('',(0.0,-1.0,0.0));
#231=AXIS2_PLACEMENT_3D('',#228,#229,#230);
#232=PLANE('',#231);
#233=CARTESIAN_POINT('',(-1.200000000000000,0.0,0.0));
#234=DIRECTION('',(-1.0,0.0,0.0));
#235=DIRECTION('',(0.0,0.0,-1.0));
#236=AXIS2_PLACEMENT_3D('',#233,#234,#235);
#237=CIRCLE('',#236,12.699999999999999);
#238=EDGE_CURVE('',#196,#154,#237,.T.);
#239=ORIENTED_EDGE('',*,*,#238,.F.);
#240=ORIENTED_EDGE('',*,*,#223,.T.);
#241=CARTESIAN_POINT('',(-1.200000000000000,0.0,0.0));
#242=DIRECTION('',(1.0,0.0,0.0));
#243=DIRECTION('',(0.0,-1.0,0.0));
#244=AXIS2_PLACEMENT_3D('',#241,#242,#243);
#245=CIRCLE('',#244,11.0);
#246=EDGE_CURVE('',#164,#212,#245,.T.);
#247=ORIENTED_EDGE('',*,*,#246,.F.);
#248=ORIENTED_EDGE('',*,*,#169,.F.);
#249=EDGE_LOOP('',(#239,#240,#247,#248));
#250=FACE_OUTER_BOUND('',#249,.T.);
#251=ADVANCED_FACE('',(#250),#232,.F.);
#252=CARTESIAN_POINT('',(0.0,-1.555250E-015,12.699999999999999));
#253=CARTESIAN_POINT('',(-1.200000000000000,-1.555250E-015,12.699999999999999));
#254=CARTESIAN_POINT('',(0.0,-12.699999999999998,12.699999999999994));
#255=CARTESIAN_POINT('',(-1.200000000000000,-12.699999999999998,12.699999999999994));
#256=CARTESIAN_POINT('',(0.0,-12.699999999999999,-1.555250E-015));
#257=CARTESIAN_POINT('',(-1.200000000000000,-12.699999999999999,-1.555250E-015));
#258=CARTESIAN_POINT('',(0.0,-12.699999999999994,-12.699999999999998));
#259=CARTESIAN_POINT('',(-1.200000000000000,-12.699999999999994,-12.699999999999998));
#260=CARTESIAN_POINT('',(0.0,1.555250E-015,-12.699999999999999));
#261=CARTESIAN_POINT('',(-1.200000000000000,1.555250E-015,-12.699999999999999));
#262=CARTESIAN_POINT('',(0.0,12.699999999999998,-12.699999999999994));
#263=CARTESIAN_POINT('',(-1.200000000000000,12.699999999999998,-12.699999999999994));
#264=CARTESIAN_POINT('',(0.0,12.699999999999999,1.555250E-015));
#265=CARTESIAN_POINT('',(-1.200000000000000,12.699999999999999,1.555250E-015));
#266=CARTESIAN_POINT('',(0.0,12.699999999999994,12.699999999999998));
#267=CARTESIAN_POINT('',(-1.200000000000000,12.699999999999994,12.699999999999998));
#268=CARTESIAN_POINT('',(0.0,-1.555250E-015,12.699999999999999));
#269=CARTESIAN_POINT('',(-1.200000000000000,-1.555250E-015,12.699999999999999));
#277=(BOUNDED_SURFACE()B_SPLINE_SURFACE(1,2,((#252,#254,#256,#258,#260,#262,#264,#266,#268),(#253,#255,#257,#259,#261,#263,#265,#267,#269)),.UNSPECIFIED.,.F.,.T.,.U.)B_SPLINE_SURFACE_WITH_KNOTS((2,2),(3,2,2,2,3),(-0.393700787401575,-0.299212598425197),(0.0,19.949113350295185,39.898226700590371,59.847340050885556,79.796453401180742),.UNSPECIFIED.)GEOMETRIC_REPRESENTATION_ITEM()RATIONAL_B_SPLINE_SURFACE(((1.0,0.707106781186548,1.0,0.707106781186548,1.0,0.707106781186548,1.0,0.707106781186548,1.0),(1.0,0.707106781186548,1.0,0.707106781186548,1.0,0.707106781186548,1.0,0.707106781186548,1.0)))REPRESENTATION_ITEM('')SURFACE());
#278=ORIENTED_EDGE('',*,*,#201,.T.);
#279=ORIENTED_EDGE('',*,*,#238,.T.);
#280=ORIENTED_EDGE('',*,*,#161,.T.);
#281=CARTESIAN_POINT('',(0.0,0.0,0.0));
#282=DIRECTION('',(-1.0,0.0,0.0));
#283=DIRECTION('',(0.0,0.0,-1.0));
#284=AXIS2_PLACEMENT_3D('',#281,#282,#283);
#285=CIRCLE('',#284,12.699999999999999);
#286=EDGE_CURVE('',#194,#156,#285,.T.);
#287=ORIENTED_EDGE('',*,*,#286,.F.);
#288=EDGE_LOOP('',(#278,#279,#280,#287));
#289=FACE_OUTER_BOUND('',#288,.T.);
#290=ADVANCED_FACE('',(#289),#277,.F.);
#291=CARTESIAN_POINT('',(0.0,0.0,0.0));
#292=DIRECTION('',(-1.0,0.0,0.0));
#293=DIRECTION('',(0.0,0.0,1.0));
#294=AXIS2_PLACEMENT_3D('',#291,#292,#293);
#295=PLANE('',#294);
#296=CARTESIAN_POINT('',(0.0,0.0,-25.0));
#297=VERTEX_POINT('',#296);
#298=CARTESIAN_POINT('',(0.0,0.0,0.0));
#299=DIRECTION('',(-1.0,0.0,0.0));
#300=DIRECTION('',(0.0,-1.0,0.0));
#301=AXIS2_PLACEMENT_3D('',#298,#299,#300);
#302=CIRCLE('',#301,25.0);
#303=EDGE_CURVE('',#297,#297,#302,.T.);
#304=ORIENTED_EDGE('',*,*,#303,.F.);
#305=EDGE_LOOP('',(#304));
#306=FACE_OUTER_BOUND('',#305,.T.);
#307=CARTESIAN_POINT('',(0.0,0.0,0.0));
#308=DIRECTION('',(-1.0,0.0,0.0));
#309=DIRECTION('',(0.0,0.0,-1.0));
#310=AXIS2_PLACEMENT_3D('',#307,#308,#309);
#311=CIRCLE('',#310,12.699999999999999);
#312=EDGE_CURVE('',#123,#52,#311,.T.);
#313=ORIENTED_EDGE('',*,*,#312,.T.);
#314=ORIENTED_EDGE('',*,*,#79,.T.);
#315=CARTESIAN_POINT('',(0.0,0.0,0.0));
#316=DIRECTION('',(-1.0,0.0,0.0));
#317=DIRECTION('',(0.0,-1.0,0.0));
#318=AXIS2_PLACEMENT_3D('',#315,#316,#317);
#319=CIRCLE('',#318,11.0);
#320=EDGE_CURVE('',#68,#204,#319,.T.);
#321=ORIENTED_EDGE('',*,*,#320,.T.);
#322=ORIENTED_EDGE('',*,*,#209,.T.);
#323=ORIENTED_EDGE('',*,*,#286,.T.);
#324=ORIENTED_EDGE('',*,*,#183,.T.);
#325=CARTESIAN_POINT('',(0.0,0.0,0.0));
#326=DIRECTION('',(-1.0,0.0,0.0));
#327=DIRECTION('',(0.0,-1.0,0.0));
#328=AXIS2_PLACEMENT_3D('',#325,#326,#327);
#329=CIRCLE('',#328,11.0);
#330=EDGE_CURVE('',#172,#131,#329,.T.);
#331=ORIENTED_EDGE('',*,*,#330,.T.);
#332=ORIENTED_EDGE('',*,*,#136,.T.);
#333=EDGE_LOOP('',(#313,#314,#321,#322,#323,#324,#331,#332));
#334=FACE_BOUND('',#333,.T.);
#335=ADVANCED_FACE('',(#306,#334),#295,.F.);
#336=CARTESIAN_POINT('',(-3.000000000000000,0.0,0.0));
#337=DIRECTION('',(-1.0,0.0,0.0));
#338=DIRECTION('',(0.0,0.0,1.0));
#339=AXIS2_PLACEMENT_3D('',#336,#337,#338);
#340=CYLINDRICAL_SURFACE('',#339,11.0);
#341=ORIENTED_EDGE('',*,*,#217,.T.);
#342=ORIENTED_EDGE('',*,*,#320,.F.);
#343=ORIENTED_EDGE('',*,*,#73,.T.);
#344=ORIENTED_EDGE('',*,*,#111,.T.);
#345=ORIENTED_EDGE('',*,*,#142,.T.);
#346=ORIENTED_EDGE('',*,*,#330,.F.);
#347=ORIENTED_EDGE('',*,*,#177,.T.);
#348=ORIENTED_EDGE('',*,*,#246,.T.);
#349=EDGE_LOOP('',(#341,#342,#343,#344,#345,#346,#347,#348));
#350=FACE_OUTER_BOUND('',#349,.T.);
#351=CARTESIAN_POINT('',(-4.0,1.347067E-015,-11.0));
#352=VERTEX_POINT('',#351);
#353=CARTESIAN_POINT('',(-4.0,0.0,0.0));
#354=DIRECTION('',(1.0,0.0,0.0));
#355=DIRECTION('',(0.0,0.0,1.0));
#356=AXIS2_PLACEMENT_3D('',#353,#354,#355);
#357=CIRCLE('',#356,11.0);
#358=EDGE_CURVE('',#352,#352,#357,.T.);
#359=ORIENTED_EDGE('',*,*,#358,.F.);
#360=EDGE_LOOP('',(#359));
#361=FACE_BOUND('',#360,.T.);
#362=ADVANCED_FACE('',(#350,#361),#340,.F.);
#363=CARTESIAN_POINT('',(-4.0,0.0,0.0));
#364=DIRECTION('',(-1.0,0.0,0.0));
#365=DIRECTION('',(0.0,0.0,1.0));
#366=AXIS2_PLACEMENT_3D('',#363,#364,#365);
#367=PLANE('',#366);
#368=CARTESIAN_POINT('',(-4.0,1.555250E-015,-12.699999999999999));
#369=VERTEX_POINT('',#368);
#370=CARTESIAN_POINT('',(-4.0,0.0,0.0));
#371=DIRECTION('',(1.0,0.0,0.0));
#372=DIRECTION('',(0.0,0.0,-1.0));
#373=AXIS2_PLACEMENT_3D('',#370,#371,#372);
#374=CIRCLE('',#373,12.699999999999999);
#375=EDGE_CURVE('',#369,#369,#374,.T.);
#376=ORIENTED_EDGE('',*,*,#375,.F.);
#377=EDGE_LOOP('',(#376));
#378=FACE_OUTER_BOUND('',#377,.T.);
#379=ORIENTED_EDGE('',*,*,#358,.T.);
#380=EDGE_LOOP('',(#379));
#381=FACE_BOUND('',#380,.T.);
#382=ADVANCED_FACE('',(#378,#381),#367,.T.);
#383=CARTESIAN_POINT('',(-4.0,-1.555250E-015,12.699999999999999));
#384=CARTESIAN_POINT('',(-10.0,-1.555250E-015,12.699999999999999));
#385=CARTESIAN_POINT('',(-4.0,-12.699999999999998,12.699999999999994));
#386=CARTESIAN_POINT('',(-10.0,-12.699999999999998,12.699999999999994));
#387=CARTESIAN_POINT('',(-4.0,-12.699999999999999,-1.555250E-015));
#388=CARTESIAN_POINT('',(-10.0,-12.699999999999999,-1.555250E-015));
#389=CARTESIAN_POINT('',(-4.0,-12.699999999999994,-12.699999999999998));
#390=CARTESIAN_POINT('',(-10.0,-12.699999999999994,-12.699999999999998));
#391=CARTESIAN_POINT('',(-4.0,1.555250E-015,-12.699999999999999));
#392=CARTESIAN_POINT('',(-10.0,1.555250E-015,-12.699999999999999));
#393=CARTESIAN_POINT('',(-4.0,12.699999999999998,-12.699999999999994));
#394=CARTESIAN_POINT('',(-10.0,12.699999999999998,-12.699999999999994));
#395=CARTESIAN_POINT('',(-4.0,12.699999999999999,1.555250E-015));
#396=CARTESIAN_POINT('',(-10.0,12.699999999999999,1.555250E-015));
#397=CARTESIAN_POINT('',(-4.0,12.699999999999994,12.699999999999998));
#398=CARTESIAN_POINT('',(-10.0,12.699999999999994,12.699999999999998));
#399=CARTESIAN_POINT('',(-4.0,-1.555250E-015,12.699999999999999));
#400=CARTESIAN_POINT('',(-10.0,-1.555250E-015,12.699999999999999));
#408=(BOUNDED_SURFACE()B_SPLINE_SURFACE(1,2,((#383,#385,#387,#389,#391,#393,#395,#397,#399),(#384,#386,#388,#390,#392,#394,#396,#398,#400)),.UNSPECIFIED.,.F.,.T.,.U.)B_SPLINE_SURFACE_WITH_KNOTS((2,2),(3,2,2,2,3),(-0.078740157480315,0.393700787401575),(0.0,19.949113350295185,39.898226700590371,59.847340050885556,79.796453401180742),.UNSPECIFIED.)GEOMETRIC_REPRESENTATION_ITEM()RATIONAL_B_SPLINE_SURFACE(((1.0,0.707106781186548,1.0,0.707106781186548,1.0,0.707106781186548,1.0,0.707106781186548,1.0),(1.0,0.707106781186548,1.0,0.707106781186548,1.0,0.707106781186548,1.0,0.707106781186548,1.0)))REPRESENTATION_ITEM('')SURFACE());
#409=CARTESIAN_POINT('',(-10.0,0.0,-12.699999999999999));
#410=VERTEX_POINT('',#409);
#411=CARTESIAN_POINT('',(-10.0,0.0,0.0));
#412=DIRECTION('',(1.0,0.0,0.0));
#413=DIRECTION('',(0.0,0.0,-1.0));
#414=AXIS2_PLACEMENT_3D('',#411,#412,#413);
#415=CIRCLE('',#414,12.699999999999999);
#416=EDGE_CURVE('',#410,#410,#415,.T.);
#417=ORIENTED_EDGE('',*,*,#416,.F.);
#418=EDGE_LOOP('',(#417));
#419=FACE_OUTER_BOUND('',#418,.T.);
#420=ORIENTED_EDGE('',*,*,#375,.T.);
#421=EDGE_LOOP('',(#420));
#422=FACE_BOUND('',#421,.T.);
#423=ADVANCED_FACE('',(#419,#422),#408,.F.);
#424=CARTESIAN_POINT('',(0.0,-1.555250E-015,12.699999999999999));
#425=CARTESIAN_POINT('',(-1.200000000000000,-1.555250E-015,12.699999999999999));
#426=CARTESIAN_POINT('',(0.0,-12.699999999999998,12.699999999999994));
#427=CARTESIAN_POINT('',(-1.200000000000000,-12.699999999999998,12.699999999999994));
#428=CARTESIAN_POINT('',(0.0,-12.699999999999999,-1.555250E-015));
#429=CARTESIAN_POINT('',(-1.200000000000000,-12.699999999999999,-1.555250E-015));
#430=CARTESIAN_POINT('',(0.0,-12.699999999999994,-12.699999999999998));
#431=CARTESIAN_POINT('',(-1.200000000000000,-12.699999999999994,-12.699999999999998));
#432=CARTESIAN_POINT('',(0.0,1.555250E-015,-12.699999999999999));
#433=CARTESIAN_POINT('',(-1.200000000000000,1.555250E-015,-12.699999999999999));
#434=CARTESIAN_POINT('',(0.0,12.699999999999998,-12.699999999999994));
#435=CARTESIAN_POINT('',(-1.200000000000000,12.699999999999998,-12.699999999999994));
#436=CARTESIAN_POINT('',(0.0,12.699999999999999,1.555250E-015));
#437=CARTESIAN_POINT('',(-1.200000000000000,12.699999999999999,1.555250E-015));
#438=CARTESIAN_POINT('',(0.0,12.699999999999994,12.699999999999998));
#439=CARTESIAN_POINT('',(-1.200000000000000,12.699999999999994,12.699999999999998));
#440=CARTESIAN_POINT('',(0.0,-1.555250E-015,12.699999999999999));
#441=CARTESIAN_POINT('',(-1.200000000000000,-1.555250E-015,12.699999999999999));
#449=(BOUNDED_SURFACE()B_SPLINE_SURFACE(1,2,((#424,#426,#428,#430,#432,#434,#436,#438,#440),(#425,#427,#429,#431,#433,#435,#437,#439,#441)),.UNSPECIFIED.,.F.,.T.,.U.)B_SPLINE_SURFACE_WITH_KNOTS((2,2),(3,2,2,2,3),(-0.393700787401575,-0.299212598425197),(0.0,19.949113350295185,39.898226700590371,59.847340050885556,79.796453401180742),.UNSPECIFIED.)GEOMETRIC_REPRESENTATION_ITEM()RATIONAL_B_SPLINE_SURFACE(((1.0,0.707106781186548,1.0,0.707106781186548,1.0,0.707106781186548,1.0,0.707106781186548,1.0),(1.0,0.707106781186548,1.0,0.707106781186548,1.0,0.707106781186548,1.0,0.707106781186548,1.0)))REPRESENTATION_ITEM('')SURFACE());
#450=ORIENTED_EDGE('',*,*,#57,.T.);
#451=ORIENTED_EDGE('',*,*,#312,.F.);
#452=ORIENTED_EDGE('',*,*,#128,.T.);
#453=ORIENTED_EDGE('',*,*,#96,.T.);
#454=EDGE_LOOP('',(#450,#451,#452,#453));
#455=FACE_OUTER_BOUND('',#454,.T.);
#456=ADVANCED_FACE('',(#455),#449,.F.);
#457=CARTESIAN_POINT('',(-10.0,12.699999999999999,12.699999999999999));
#458=CARTESIAN_POINT('',(-10.0,12.699999999999999,-12.699999999999999));
#459=CARTESIAN_POINT('',(-10.0,-12.699999999999999,12.699999999999999));
#460=CARTESIAN_POINT('',(-10.0,-12.699999999999999,-12.699999999999999));
#461=B_SPLINE_SURFACE_WITH_KNOTS('',1,1,((#457,#459),(#458,#460)),.UNSPECIFIED.,.F.,.F.,.U.,(2,2),(2,2),(0.0,25.399999999999999),(0.0,25.399999999999999),.UNSPECIFIED.);
#462=ORIENTED_EDGE('',*,*,#416,.T.);
#463=EDGE_LOOP('',(#462));
#464=FACE_OUTER_BOUND('',#463,.T.);
#465=CARTESIAN_POINT('',(-10.0,-1.347067E-015,11.0));
#466=VERTEX_POINT('',#465);
#467=CARTESIAN_POINT('',(-10.0,0.0,0.0));
#468=DIRECTION('',(1.0,0.0,0.0));
#469=DIRECTION('',(0.0,0.0,-1.0));
#470=AXIS2_PLACEMENT_3D('',#467,#468,#469);
#471=CIRCLE('',#470,11.0);
#472=EDGE_CURVE('',#466,#466,#471,.T.);
#473=ORIENTED_EDGE('',*,*,#472,.F.);
#474=EDGE_LOOP('',(#473));
#475=FACE_BOUND('',#474,.T.);
#476=ADVANCED_FACE('',(#464,#475),#461,.F.);
#477=CARTESIAN_POINT('',(0.0,0.0,0.0));
#478=DIRECTION('',(-1.0,0.0,0.0));
#479=DIRECTION('',(0.0,-1.0,0.0));
#480=AXIS2_PLACEMENT_3D('',#477,#478,#479);
#481=CYLINDRICAL_SURFACE('',#480,26.0);
#482=CARTESIAN_POINT('',(-11.0,-7.141428428542854,-25.0));
#483=VERTEX_POINT('',#482);
#484=CARTESIAN_POINT('',(-11.0,7.141428428542854,-25.0));
#485=VERTEX_POINT('',#484);
#486=CARTESIAN_POINT('',(-11.0,0.0,0.0));
#487=DIRECTION('',(-1.0,0.0,0.0));
#488=DIRECTION('',(0.0,-1.0,0.0));
#489=AXIS2_PLACEMENT_3D('',#486,#487,#488);
#490=CIRCLE('',#489,26.0);
#491=EDGE_CURVE('',#483,#485,#490,.T.);
#492=ORIENTED_EDGE('',*,*,#491,.F.);
#493=CARTESIAN_POINT('',(-1.0,-7.141428428542854,-25.0));
#494=VERTEX_POINT('',#493);
#495=CARTESIAN_POINT('',(-11.0,-7.141428428542854,-25.0));
#496=DIRECTION('',(1.0,0.0,0.0));
#497=VECTOR('',#496,10.0);
#498=LINE('',#495,#497);
#499=EDGE_CURVE('',#483,#494,#498,.T.);
#500=ORIENTED_EDGE('',*,*,#499,.T.);
#501=CARTESIAN_POINT('',(-1.0,7.141428428542854,-25.0));
#502=VERTEX_POINT('',#501);
#503=CARTESIAN_POINT('',(-1.0,0.0,0.0));
#504=DIRECTION('',(1.0,0.0,0.0));
#505=DIRECTION('',(0.0,-1.0,0.0));
#506=AXIS2_PLACEMENT_3D('',#503,#504,#505);
#507=CIRCLE('',#506,26.0);
#508=EDGE_CURVE('',#502,#494,#507,.T.);
#509=ORIENTED_EDGE('',*,*,#508,.F.);
#510=CARTESIAN_POINT('',(-1.0,7.141428428542854,-25.0));
#511=DIRECTION('',(-1.0,0.0,0.0));
#512=VECTOR('',#511,10.0);
#513=LINE('',#510,#512);
#514=EDGE_CURVE('',#502,#485,#513,.T.);
#515=ORIENTED_EDGE('',*,*,#514,.T.);
#516=EDGE_LOOP('',(#492,#500,#509,#515));
#517=FACE_OUTER_BOUND('',#516,.T.);
#518=ADVANCED_FACE('',(#517),#481,.T.);
#519=CARTESIAN_POINT('',(-0.500000000000000,0.0,0.0));
#520=DIRECTION('',(-1.0,0.0,0.0));
#521=DIRECTION('',(0.0,-1.0,0.0));
#522=AXIS2_PLACEMENT_3D('',#519,#520,#521);
#523=CONICAL_SURFACE('',#522,25.500000000000000,45.000000000000028);
#524=CARTESIAN_POINT('',(0.0,0.0,-25.0));
#525=CARTESIAN_POINT('',(-8.392551E-016,3.500700210069799,-25.0));
#526=CARTESIAN_POINT('',(-1.0,7.141428428542854,-25.0));
#534=(BOUNDED_CURVE()B_SPLINE_CURVE(2,(#524,#525,#526),.UNSPECIFIED.,.F.,.U.)B_SPLINE_CURVE_WITH_KNOTS((3,3),(3.017315557784385,3.908689051856635),.UNSPECIFIED.)CURVE()GEOMETRIC_REPRESENTATION_ITEM()RATIONAL_B_SPLINE_CURVE((1.0,1.033545719313305,1.047271327363587))REPRESENTATION_ITEM(''));
#535=EDGE_CURVE('',#297,#502,#534,.T.);
#536=ORIENTED_EDGE('',*,*,#535,.T.);
#537=ORIENTED_EDGE('',*,*,#508,.T.);
#538=CARTESIAN_POINT('',(-1.0,-7.141428428542854,-25.0));
#539=CARTESIAN_POINT('',(-2.447567E-015,-3.500700210069798,-25.0));
#540=CARTESIAN_POINT('',(0.0,0.0,-25.0));
#548=(BOUNDED_CURVE()B_SPLINE_CURVE(2,(#538,#539,#540),.UNSPECIFIED.,.F.,.U.)B_SPLINE_CURVE_WITH_KNOTS((3,3),(2.125942063712135,3.017315557784385),.UNSPECIFIED.)CURVE()GEOMETRIC_REPRESENTATION_ITEM()RATIONAL_B_SPLINE_CURVE((1.047271327363587,1.033545719313305,1.0))REPRESENTATION_ITEM(''));
#549=EDGE_CURVE('',#494,#297,#548,.T.);
#550=ORIENTED_EDGE('',*,*,#549,.T.);
#551=ORIENTED_EDGE('',*,*,#303,.T.);
#552=EDGE_LOOP('',(#536,#537,#550,#551));
#553=FACE_OUTER_BOUND('',#552,.T.);
#554=ADVANCED_FACE('',(#553),#523,.T.);
#555=CARTESIAN_POINT('',(-11.500000000000002,0.0,0.0));
#556=DIRECTION('',(1.0,0.0,0.0));
#557=DIRECTION('',(0.0,-1.0,0.0));
#558=AXIS2_PLACEMENT_3D('',#555,#556,#557);
#559=CONICAL_SURFACE('',#558,25.500000000000000,45.0);
#560=CARTESIAN_POINT('',(-12.000000000000002,0.0,-25.0));
#561=VERTEX_POINT('',#560);
#562=CARTESIAN_POINT('',(-12.000000000000002,0.0,-25.0));
#563=CARTESIAN_POINT('',(-12.000000000000002,-3.500700210069795,-25.0));
#564=CARTESIAN_POINT('',(-11.0,-7.141428428542854,-25.0));
#572=(BOUNDED_CURVE()B_SPLINE_CURVE(2,(#562,#563,#564),.UNSPECIFIED.,.F.,.U.)B_SPLINE_CURVE_WITH_KNOTS((3,3),(3.017315557784384,3.908689051856634),.UNSPECIFIED.)CURVE()GEOMETRIC_REPRESENTATION_ITEM()RATIONAL_B_SPLINE_CURVE((1.0,1.033545719313304,1.047271327363587))REPRESENTATION_ITEM(''));
#573=EDGE_CURVE('',#561,#483,#572,.T.);
#574=ORIENTED_EDGE('',*,*,#573,.T.);
#575=ORIENTED_EDGE('',*,*,#491,.T.);
#576=CARTESIAN_POINT('',(-11.0,7.141428428542854,-25.0));
#577=CARTESIAN_POINT('',(-12.000000000000002,3.500700210069797,-25.0));
#578=CARTESIAN_POINT('',(-12.000000000000002,0.0,-25.0));
#586=(BOUNDED_CURVE()B_SPLINE_CURVE(2,(#576,#577,#578),.UNSPECIFIED.,.F.,.U.)B_SPLINE_CURVE_WITH_KNOTS((3,3),(2.125942063712133,3.017315557784384),.UNSPECIFIED.)CURVE()GEOMETRIC_REPRESENTATION_ITEM()RATIONAL_B_SPLINE_CURVE((1.047271327363587,1.033545719313305,1.0))REPRESENTATION_ITEM(''));
#587=EDGE_CURVE('',#485,#561,#586,.T.);
#588=ORIENTED_EDGE('',*,*,#587,.T.);
#589=CARTESIAN_POINT('',(-12.000000000000002,0.0,0.0));
#590=DIRECTION('',(1.0,0.0,0.0));
#591=DIRECTION('',(0.0,-1.0,0.0));
#592=AXIS2_PLACEMENT_3D('',#589,#590,#591);
#593=CIRCLE('',#592,25.0);
#594=EDGE_CURVE('',#561,#561,#593,.T.);
#595=ORIENTED_EDGE('',*,*,#594,.T.);
#596=EDGE_LOOP('',(#574,#575,#588,#595));
#597=FACE_OUTER_BOUND('',#596,.T.);
#598=ADVANCED_FACE('',(#597),#559,.T.);
#599=CARTESIAN_POINT('',(-12.000000000000002,0.0,0.0));
#600=DIRECTION('',(-1.0,0.0,0.0));
#601=DIRECTION('',(0.0,0.0,1.0));
#602=AXIS2_PLACEMENT_3D('',#599,#600,#601);
#603=PLANE('',#602);
#604=ORIENTED_EDGE('',*,*,#594,.F.);
#605=EDGE_LOOP('',(#604));
#606=FACE_OUTER_BOUND('',#605,.T.);
#607=CARTESIAN_POINT('',(-12.000000000000002,1.469528E-015,12.000000000000002));
#608=VERTEX_POINT('',#607);
#609=CARTESIAN_POINT('',(-12.000000000000002,0.0,0.0));
#610=DIRECTION('',(-1.0,0.0,0.0));
#611=DIRECTION('',(0.0,0.0,-1.0));
#612=AXIS2_PLACEMENT_3D('',#609,#610,#611);
#613=CIRCLE('',#612,12.000000000000002);
#614=EDGE_CURVE('',#608,#608,#613,.T.);
#615=ORIENTED_EDGE('',*,*,#614,.F.);
#616=EDGE_LOOP('',(#615));
#617=FACE_BOUND('',#616,.T.);
#618=ADVANCED_FACE('',(#606,#617),#603,.T.);
#619=CARTESIAN_POINT('',(-10.0,-1.347067E-015,11.0));
#620=CARTESIAN_POINT('',(-11.000000000000007,-1.347067E-015,11.0));
#621=CARTESIAN_POINT('',(-10.0,-11.0,10.999999999999996));
#622=CARTESIAN_POINT('',(-11.000000000000007,-11.0,10.999999999999996));
#623=CARTESIAN_POINT('',(-10.0,-11.0,-1.347067E-015));
#624=CARTESIAN_POINT('',(-11.000000000000007,-11.0,-1.347067E-015));
#625=CARTESIAN_POINT('',(-10.0,-10.999999999999996,-11.0));
#626=CARTESIAN_POINT('',(-11.000000000000007,-10.999999999999996,-11.0));
#627=CARTESIAN_POINT('',(-10.0,1.347067E-015,-11.0));
#628=CARTESIAN_POINT('',(-11.000000000000007,1.347067E-015,-11.0));
#629=CARTESIAN_POINT('',(-10.0,11.0,-10.999999999999996));
#630=CARTESIAN_POINT('',(-11.000000000000007,11.0,-10.999999999999996));
#631=CARTESIAN_POINT('',(-10.0,11.0,1.347067E-015));
#632=CARTESIAN_POINT('',(-11.000000000000007,11.0,1.347067E-015));
#633=CARTESIAN_POINT('',(-10.0,10.999999999999996,11.0));
#634=CARTESIAN_POINT('',(-11.000000000000007,10.999999999999996,11.0));
#635=CARTESIAN_POINT('',(-10.0,-1.347067E-015,11.0));
#636=CARTESIAN_POINT('',(-11.000000000000007,-1.347067E-015,11.0));
#644=(BOUNDED_SURFACE()B_SPLINE_SURFACE(1,2,((#619,#621,#623,#625,#627,#629,#631,#633,#635),(#620,#622,#624,#626,#628,#630,#632,#634,#636)),.UNSPECIFIED.,.F.,.T.,.U.)B_SPLINE_SURFACE_WITH_KNOTS((2,2),(3,2,2,2,3),(-5.864704003708058,-5.773794912798967),(0.0,17.278759594743860,34.557519189487721,51.836278784231588,69.115038378975441),.UNSPECIFIED.)GEOMETRIC_REPRESENTATION_ITEM()RATIONAL_B_SPLINE_SURFACE(((1.0,0.707106781186548,1.0,0.707106781186548,1.0,0.707106781186548,1.0,0.707106781186548,1.0),(1.0,0.707106781186548,1.0,0.707106781186548,1.0,0.707106781186548,1.0,0.707106781186548,1.0)))REPRESENTATION_ITEM('')SURFACE());
#645=ORIENTED_EDGE('',*,*,#472,.T.);
#646=EDGE_LOOP('',(#645));
#647=FACE_OUTER_BOUND('',#646,.T.);
#648=CARTESIAN_POINT('',(-11.000000000000005,-1.347067E-015,11.0));
#649=VERTEX_POINT('',#648);
#650=CARTESIAN_POINT('',(-11.000000000000005,0.0,0.0));
#651=DIRECTION('',(1.0,0.0,0.0));
#652=DIRECTION('',(0.0,0.0,-1.0));
#653=AXIS2_PLACEMENT_3D('',#650,#651,#652);
#654=CIRCLE('',#653,11.0);
#655=EDGE_CURVE('',#649,#649,#654,.T.);
#656=ORIENTED_EDGE('',*,*,#655,.F.);
#657=EDGE_LOOP('',(#656));
#658=FACE_BOUND('',#657,.T.);
#659=ADVANCED_FACE('',(#647,#658),#644,.F.);
#660=CARTESIAN_POINT('',(-11.500000000000004,0.0,0.0));
#661=DIRECTION('',(-1.0,0.0,0.0));
#662=DIRECTION('',(0.0,0.0,-1.0));
#663=AXIS2_PLACEMENT_3D('',#660,#661,#662);
#664=CONICAL_SURFACE('',#663,11.500000000000002,45.000000000000135);
#665=ORIENTED_EDGE('',*,*,#655,.T.);
#666=EDGE_LOOP('',(#665));
#667=FACE_OUTER_BOUND('',#666,.T.);
#668=ORIENTED_EDGE('',*,*,#614,.T.);
#669=EDGE_LOOP('',(#668));
#670=FACE_BOUND('',#669,.T.);
#671=ADVANCED_FACE('',(#667,#670),#664,.F.);
#672=CARTESIAN_POINT('',(0.0,14.154853820800783,-25.0));
#673=DIRECTION('',(0.0,0.0,1.0));
#674=DIRECTION('',(1.0,0.0,0.0));
#675=AXIS2_PLACEMENT_3D('',#672,#673,#674);
#676=PLANE('',#675);
#677=CARTESIAN_POINT('',(-6.000000000000001,9.860761E-031,-24.999999999999996));
#678=DIRECTION('',(0.0,0.0,1.0));
#679=DIRECTION('',(0.0,1.0,0.0));
#680=AXIS2_PLACEMENT_3D('',#677,#678,#679);
#681=CIRCLE('',#680,6.0);
#682=EDGE_CURVE('',#561,#297,#681,.T.);
#683=ORIENTED_EDGE('',*,*,#682,.T.);
#684=ORIENTED_EDGE('',*,*,#549,.F.);
#685=ORIENTED_EDGE('',*,*,#499,.F.);
#686=ORIENTED_EDGE('',*,*,#573,.F.);
#687=EDGE_LOOP('',(#683,#684,#685,#686));
#688=FACE_OUTER_BOUND('',#687,.T.);
#689=ADVANCED_FACE('',(#688),#676,.F.);
#690=CARTESIAN_POINT('',(0.0,14.154853820800783,-25.0));
#691=DIRECTION('',(0.0,0.0,1.0));
#692=DIRECTION('',(1.0,0.0,0.0));
#693=AXIS2_PLACEMENT_3D('',#690,#691,#692);
#694=PLANE('',#693);
#695=CARTESIAN_POINT('',(-6.000000000000001,9.860761E-031,-24.999999999999996));
#696=DIRECTION('',(0.0,0.0,1.0));
#697=DIRECTION('',(0.0,1.0,0.0));
#698=AXIS2_PLACEMENT_3D('',#695,#696,#697);
#699=CIRCLE('',#698,6.0);
#700=EDGE_CURVE('',#297,#561,#699,.T.);
#701=ORIENTED_EDGE('',*,*,#700,.T.);
#702=ORIENTED_EDGE('',*,*,#587,.F.);
#703=ORIENTED_EDGE('',*,*,#514,.F.);
#704=ORIENTED_EDGE('',*,*,#535,.F.);
#705=EDGE_LOOP('',(#701,#702,#703,#704));
#706=FACE_OUTER_BOUND('',#705,.T.);
#707=ADVANCED_FACE('',(#706),#694,.F.);
#708=CARTESIAN_POINT('',(-6.000000000000001,2.999999999999992,-85.0));
#709=DIRECTION('',(0.0,0.0,-1.0));
#710=DIRECTION('',(-1.0,0.0,0.0));
#711=AXIS2_PLACEMENT_3D('',#708,#709,#710);
#712=PLANE('',#711);
#713=CARTESIAN_POINT('',(-6.000000000000002,4.999999999999993,-85.0));
#714=VERTEX_POINT('',#713);
#715=CARTESIAN_POINT('',(-6.000000000000001,-1.024821E-014,-85.0));
#716=DIRECTION('',(0.0,0.0,1.0));
#717=DIRECTION('',(0.0,-1.0,0.0));
#718=AXIS2_PLACEMENT_3D('',#715,#716,#717);
#719=CIRCLE('',#718,5.000000000000004);
#720=EDGE_CURVE('',#714,#714,#719,.T.);
#721=ORIENTED_EDGE('',*,*,#720,.F.);
#722=EDGE_LOOP('',(#721));
#723=FACE_OUTER_BOUND('',#722,.T.);
#724=ADVANCED_FACE('',(#723),#712,.T.);
#725=CARTESIAN_POINT('',(-6.000000000000001,-5.124106E-015,-55.0));
#726=DIRECTION('',(0.0,1.708035E-016,1.0));
#727=DIRECTION('',(0.0,1.0,0.0));
#728=AXIS2_PLACEMENT_3D('',#725,#726,#727);
#729=CYLINDRICAL_SURFACE('',#728,6.0);
#730=ORIENTED_EDGE('',*,*,#700,.F.);
#731=ORIENTED_EDGE('',*,*,#682,.F.);
#732=EDGE_LOOP('',(#730,#731));
#733=FACE_OUTER_BOUND('',#732,.T.);
#734=CARTESIAN_POINT('',(-11.656854249492381,-1.999999999999999,-30.0));
#735=VERTEX_POINT('',#734);
#736=CARTESIAN_POINT('',(-11.656854249492383,-1.999999999999999,-30.0));
#737=CARTESIAN_POINT('',(-11.656854249492383,-1.999999999999999,-30.282599652775655));
#738=CARTESIAN_POINT('',(-11.680713954722865,-1.935745142288342,-30.583987182637671));
#739=CARTESIAN_POINT('',(-11.720739525547858,-1.809181936908086,-30.852561270036063));
#740=CARTESIAN_POINT('',(-11.745753002559347,-1.730087853725071,-31.020403267602951));
#741=CARTESIAN_POINT('',(-11.776308932999159,-1.627511549668449,-31.175976573259859));
#742=CARTESIAN_POINT('',(-11.806670541820296,-1.510820048436079,-31.310504781083839));
#743=CARTESIAN_POINT('',(-11.830787545294452,-1.418129000435142,-31.417363981944252));
#744=CARTESIAN_POINT('',(-11.854756916217790,-1.317423119238731,-31.511659020688359));
#745=CARTESIAN_POINT('',(-11.878283553857585,-1.202406944610449,-31.598191959544462));
#746=CARTESIAN_POINT('',(-11.919747611255458,-0.999698961451643,-31.750700226916550));
#747=CARTESIAN_POINT('',(-11.957112793912529,-0.759144525004410,-31.868444887799907));
#748=CARTESIAN_POINT('',(-11.978449964599521,-0.508070881649393,-31.934389820904777));
#749=CARTESIAN_POINT('',(-11.991677218738630,-0.352426305477302,-31.975270142019532));
#750=CARTESIAN_POINT('',(-11.998873545887838,-0.193100517838574,-31.996620100520893));
#751=CARTESIAN_POINT('',(-11.999873747039434,-0.038923252523341,-31.999621209232640));
#752=CARTESIAN_POINT('',(-12.000867439164693,0.114250670735238,-32.002602787577310));
#753=CARTESIAN_POINT('',(-11.995940095651699,0.270279162347207,-31.988045734913314));
#754=CARTESIAN_POINT('',(-11.984863200902877,0.425925423611426,-31.954120654801393));
#755=CARTESIAN_POINT('',(-11.968826113672300,0.651269504746884,-31.905004049345063));
#756=CARTESIAN_POINT('',(-11.939678307415230,0.871287187894925,-31.814796458914429));
#757=CARTESIAN_POINT('',(-11.904646712126114,1.065432872112682,-31.692587603352251));
#758=CARTESIAN_POINT('',(-11.882661556785710,1.187274968967541,-31.615891676394497));
#759=CARTESIAN_POINT('',(-11.858583933356851,1.298904257750399,-31.526959891379605));
#760=CARTESIAN_POINT('',(-11.835118731833596,1.396921395571242,-31.431296829660184));
#761=CARTESIAN_POINT('',(-11.811238161838851,1.496673580443616,-31.333940391487761));
#762=CARTESIAN_POINT('',(-11.786509141314903,1.588498097785395,-31.223922325079506));
#763=CARTESIAN_POINT('',(-11.763213154367254,1.668944018632218,-31.102100659046961));
#764=CARTESIAN_POINT('',(-11.717105082010905,1.828164846988343,-30.860987792499536));
#765=CARTESIAN_POINT('',(-11.678959846929432,1.936850160679723,-30.576171176176750));
#766=CARTESIAN_POINT('',(-11.664308909824200,1.978788663320616,-30.290508908493031));
#767=CARTESIAN_POINT('',(-11.653989416356239,2.008328350847103,-30.089300625075285));
#768=CARTESIAN_POINT('',(-11.654292923366599,2.007504650367227,-29.893222081834505));
#769=CARTESIAN_POINT('',(-11.665233244250881,1.976140756179738,-29.691993974465799));
#770=CARTESIAN_POINT('',(-11.680695721056839,1.931812670052453,-29.407588701914250));
#771=CARTESIAN_POINT('',(-11.719319268720804,1.821293075606956,-29.125096972794186));
#772=CARTESIAN_POINT('',(-11.765419752879255,1.661305231771004,-28.886417974781249));
#773=CARTESIAN_POINT('',(-11.789415638524137,1.578029533579560,-28.762182534596544));
#774=CARTESIAN_POINT('',(-11.814659386034984,1.483623413149567,-28.651123876881954));
#775=CARTESIAN_POINT('',(-11.839213771949510,1.379703781786207,-28.552098941735025));
#776=CARTESIAN_POINT('',(-11.887451042665388,1.175552905921566,-28.357563732386581));
#777=CARTESIAN_POINT('',(-11.936947524824935,0.913189955964157,-28.195756585547919));
#778=CARTESIAN_POINT('',(-11.966865034890828,0.629699654912787,-28.101717000918271));
#779=CARTESIAN_POINT('',(-11.985241483624414,0.455569355557491,-28.043954386246522));
#780=CARTESIAN_POINT('',(-11.996351360126525,0.273787933980006,-28.010956189580011));
#781=CARTESIAN_POINT('',(-11.999212535762146,0.097205713588922,-28.002363634380451));
#782=CARTESIAN_POINT('',(-12.001350044325541,-0.034714187982365,-27.995944363891830));
#783=CARTESIAN_POINT('',(-11.999209525962776,-0.165383804620724,-28.002281871606421));
#784=CARTESIAN_POINT('',(-11.992551053317042,-0.298884381306239,-28.022459070812644));
#785=CARTESIAN_POINT('',(-11.979267009570950,-0.565225867586143,-28.062713767526137));
#786=CARTESIAN_POINT('',(-11.946786184809204,-0.830659943486258,-28.160678412569499));
#787=CARTESIAN_POINT('',(-11.905635539680949,-1.059938145580822,-28.303966059436696));
#788=CARTESIAN_POINT('',(-11.882938240127093,-1.186400222126418,-28.382998663498569));
#789=CARTESIAN_POINT('',(-11.857955583736455,-1.301971595378031,-28.475231319537123));
#790=CARTESIAN_POINT('',(-11.833686457415501,-1.402890700149867,-28.574553514356634));
#791=CARTESIAN_POINT('',(-11.809644431253382,-1.502865446875183,-28.672946294333556));
#792=CARTESIAN_POINT('',(-11.784654436903486,-1.595237813569805,-28.784721159760764));
#793=CARTESIAN_POINT('',(-11.761271065618656,-1.675635911666160,-28.908100603748352));
#794=CARTESIAN_POINT('',(-11.715460056381669,-1.833146048663287,-29.149816683920097));
#795=CARTESIAN_POINT('',(-11.677916589135039,-1.939868939759878,-29.434553470994697));
#796=CARTESIAN_POINT('',(-11.663804605123101,-1.980231651849443,-29.719495802146170));
#797=CARTESIAN_POINT('',(-11.659132293618969,-1.993595269883200,-29.813836848077546));
#798=CARTESIAN_POINT('',(-11.656854249492383,-1.999999999999999,-29.907952423837838));
#799=CARTESIAN_POINT('',(-11.656854249492383,-1.999999999999999,-30.0));
#800=B_SPLINE_CURVE_WITH_KNOTS('',3,(#736,#737,#738,#739,#740,#741,#742,#743,#744,#745,#746,#747,#748,#749,#750,#751,#752,#753,#754,#755,#756,#757,#758,#759,#760,#761,#762,#763,#764,#765,#766,#767,#768,#769,#770,#771,#772,#773,#774,#775,#776,#777,#778,#779,#780,#781,#782,#783,#784,#785,#786,#787,#788,#789,#790,#791,#792,#793,#794,#795,#796,#797,#798,#799),.UNSPECIFIED.,.T.,.U.,(4,3,3,3,3,3,3,3,3,3,3,3,3,3,3,3,3,3,3,3,3,4),(0.0,0.084779895832696,0.137762025299880,0.179847087654638,0.254019073800211,0.299999476972782,0.345680652680197,0.411817689839734,0.453324022157931,0.495565077414478,0.579169761627002,0.638057325366114,0.721285925158250,0.764607465039075,0.849712946981668,0.901987903100026,0.941041138757071,1.018954636115507,1.061929077544587,1.104501382434208,1.187905962072538,1.215520234921186),.UNSPECIFIED.);
#801=EDGE_CURVE('',#735,#735,#800,.T.);
#802=ORIENTED_EDGE('',*,*,#801,.T.);
#803=EDGE_LOOP('',(#802));
#804=FACE_BOUND('',#803,.T.);
#805=CARTESIAN_POINT('',(-0.343145750507621,-1.999999999999999,-30.0));
#806=VERTEX_POINT('',#805);
#807=CARTESIAN_POINT('',(-0.343145750507620,-1.999999999999999,-30.0));
#808=CARTESIAN_POINT('',(-0.343145750507620,-1.999999999999999,-29.717400347224348));
#809=CARTESIAN_POINT('',(-0.319286045277139,-1.935745142288346,-29.416012817362340));
#810=CARTESIAN_POINT('',(-0.279260474452147,-1.809181936908092,-29.147438729963948));
#811=CARTESIAN_POINT('',(-0.254246997440663,-1.730087853725096,-28.979596732397098));
#812=CARTESIAN_POINT('',(-0.223691067000858,-1.627511549668500,-28.824023426740219));
#813=CARTESIAN_POINT('',(-0.193329458179728,-1.510820048436166,-28.689495218916260));
#814=CARTESIAN_POINT('',(-0.169212454705618,-1.418129000435415,-28.582636018056050));
#815=CARTESIAN_POINT('',(-0.145243083782329,-1.317423119239230,-28.488340979312106));
#816=CARTESIAN_POINT('',(-0.121716446142575,-1.202406944611226,-28.401808040456125));
#817=CARTESIAN_POINT('',(-0.080252388744707,-0.999698961452585,-28.249299773084008));
#818=CARTESIAN_POINT('',(-0.042887206087620,-0.759144525005523,-28.131555112200559));
#819=CARTESIAN_POINT('',(-0.021550035400585,-0.508070881650622,-28.065610179095547));
#820=CARTESIAN_POINT('',(-0.008322781261523,-0.352426305479449,-28.024729857980926));
#821=CARTESIAN_POINT('',(-0.001126454112284,-0.193100517841661,-28.003379899479466));
#822=CARTESIAN_POINT('',(-0.000126252960593,-0.038923252527236,-28.000378790767435));
#823=CARTESIAN_POINT('',(0.000867439164774,0.114250670732544,-27.997397212422445));
#824=CARTESIAN_POINT('',(-0.004059904348197,0.270279162345514,-28.011954265086363));
#825=CARTESIAN_POINT('',(-0.015136799097085,0.425925423610873,-28.045879345198486));
#826=CARTESIAN_POINT('',(-0.031173886327640,0.651269504746312,-28.094995950654745));
#827=CARTESIAN_POINT('',(-0.060321692584687,0.871287187894348,-28.185203541085297));
#828=CARTESIAN_POINT('',(-0.095353287873789,1.065432872112134,-28.307412396647404));
#829=CARTESIAN_POINT('',(-0.117338443214148,1.187274968966805,-28.384108323604984));
#830=CARTESIAN_POINT('',(-0.141416066642959,1.298904257749517,-28.473040108619664));
#831=CARTESIAN_POINT('',(-0.164881268166174,1.396921395570268,-28.568703170338864));
#832=CARTESIAN_POINT('',(-0.188761838160973,1.496673580442943,-28.666059608511450));
#833=CARTESIAN_POINT('',(-0.213490858684966,1.588498097784927,-28.776077674919851));
#834=CARTESIAN_POINT('',(-0.236786845632670,1.668944018631948,-28.897899340952630));
#835=CARTESIAN_POINT('',(-0.282894917989027,1.828164846988132,-29.139012207500020));
#836=CARTESIAN_POINT('',(-0.321040153070526,1.936850160679594,-29.423828823822806));
#837=CARTESIAN_POINT('',(-0.335691090175780,1.978788663320553,-29.709491091506539));
#838=CARTESIAN_POINT('',(-0.346010583643756,2.008328350847082,-29.910699374924267));
#839=CARTESIAN_POINT('',(-0.345707076633410,2.007504650367250,-30.106777918165015));
#840=CARTESIAN_POINT('',(-0.334766755749146,1.976140756179815,-30.308006025533711));
#841=CARTESIAN_POINT('',(-0.319304278943216,1.931812670052612,-30.592411298085196));
#842=CARTESIAN_POINT('',(-0.280680731279288,1.821293075607230,-30.874903027205221));
#843=CARTESIAN_POINT('',(-0.234580247120859,1.661305231771397,-31.113582025218165));
#844=CARTESIAN_POINT('',(-0.210584361475997,1.578029533580041,-31.237817465402834));
#845=CARTESIAN_POINT('',(-0.185340613965157,1.483623413150113,-31.348876123117439));
#846=CARTESIAN_POINT('',(-0.160786228050648,1.379703781786876,-31.447901058264339));
#847=CARTESIAN_POINT('',(-0.112548957334774,1.175552905922357,-31.642436267612847));
#848=CARTESIAN_POINT('',(-0.063052475175204,0.913189955965039,-31.804243414451633));
#849=CARTESIAN_POINT('',(-0.033134965109271,0.629699654913707,-31.898282999081424));
#850=CARTESIAN_POINT('',(-0.014758516375798,0.455569355559725,-31.956045613752831));
#851=CARTESIAN_POINT('',(-0.003648639873679,0.273787933983649,-31.989043810419382));
#852=CARTESIAN_POINT('',(-0.000787464237935,0.097205713593777,-31.997636365619311));
#853=CARTESIAN_POINT('',(0.001350044325561,-0.034714187977167,-32.004055636108234));
#854=CARTESIAN_POINT('',(-0.000790474037077,-0.165383804614978,-31.997718128394020));
#855=CARTESIAN_POINT('',(-0.007448946682652,-0.298884381300068,-31.977540929188287));
#856=CARTESIAN_POINT('',(-0.020732990428458,-0.565225867579757,-31.937286232475678));
#857=CARTESIAN_POINT('',(-0.053213815189909,-0.830659943479999,-31.839321587433318));
#858=CARTESIAN_POINT('',(-0.094364460318004,-1.059938145574981,-31.696033940566956));
#859=CARTESIAN_POINT('',(-0.117061759871224,-1.186400222117751,-31.617001336507453));
#860=CARTESIAN_POINT('',(-0.142044416261157,-1.301971595367171,-31.524768680471862));
#861=CARTESIAN_POINT('',(-0.166313542581562,-1.402890700137650,-31.425446485655389));
#862=CARTESIAN_POINT('',(-0.190355568744496,-1.502865446867276,-31.327053705675912));
#863=CARTESIAN_POINT('',(-0.215345563095104,-1.595237813564836,-31.215278840246317));
#864=CARTESIAN_POINT('',(-0.238728934380705,-1.675635911663957,-31.091899396255027));
#865=CARTESIAN_POINT('',(-0.284539943617759,-1.833146048661537,-30.850183316083655));
#866=CARTESIAN_POINT('',(-0.322083410864571,-1.939868939758743,-30.565446529009257));
#867=CARTESIAN_POINT('',(-0.336195394876708,-1.980231651848889,-30.280504197857745));
#868=CARTESIAN_POINT('',(-0.340867706380970,-1.993595269883022,-30.186163151925058));
#869=CARTESIAN_POINT('',(-0.343145750507620,-1.999999999999999,-30.092047576163434));
#870=CARTESIAN_POINT('',(-0.343145750507620,-1.999999999999999,-30.0));
#871=B_SPLINE_CURVE_WITH_KNOTS('',3,(#807,#808,#809,#810,#811,#812,#813,#814,#815,#816,#817,#818,#819,#820,#821,#822,#823,#824,#825,#826,#827,#828,#829,#830,#831,#832,#833,#834,#835,#836,#837,#838,#839,#840,#841,#842,#843,#844,#845,#846,#847,#848,#849,#850,#851,#852,#853,#854,#855,#856,#857,#858,#859,#860,#861,#862,#863,#864,#865,#866,#867,#868,#869,#870),.UNSPECIFIED.,.T.,.U.,(4,3,3,3,3,3,3,3,3,3,3,3,3,3,3,3,3,3,3,3,3,4),(0.0,0.084779895832695,0.137762025299867,0.179847087654543,0.254019073800090,0.299999476972395,0.345680652680143,0.411817689839673,0.453324022157794,0.495565077414432,0.579169761626960,0.638057325366068,0.721285925158183,0.764607465038983,0.849712946981577,0.901987903099548,0.941041138756469,1.018954636114845,1.061929077542853,1.104501382433820,1.187905962072156,1.215520234921186),.UNSPECIFIED.);
#872=EDGE_CURVE('',#806,#806,#871,.T.);
#873=ORIENTED_EDGE('',*,*,#872,.T.);
#874=EDGE_LOOP('',(#873));
#875=FACE_BOUND('',#874,.T.);
#876=CARTESIAN_POINT('',(-6.0,5.999999999999989,-84.0));
#877=VERTEX_POINT('',#876);
#878=CARTESIAN_POINT('',(-6.000000000000001,-1.007741E-014,-84.0));
#879=DIRECTION('',(0.0,0.0,-1.0));
#880=DIRECTION('',(0.0,-1.0,0.0));
#881=AXIS2_PLACEMENT_3D('',#878,#879,#880);
#882=CIRCLE('',#881,6.0);
#883=EDGE_CURVE('',#877,#877,#882,.T.);
#884=ORIENTED_EDGE('',*,*,#883,.F.);
#885=EDGE_LOOP('',(#884));
#886=FACE_BOUND('',#885,.T.);
#887=ADVANCED_FACE('',(#733,#804,#875,#886),#729,.T.);
#888=CARTESIAN_POINT('',(-6.000000000000001,-1.016281E-014,-84.500000000000000));
#889=DIRECTION('',(0.0,1.708035E-016,1.0));
#890=DIRECTION('',(0.0,-1.0,0.0));
#891=AXIS2_PLACEMENT_3D('',#888,#889,#890);
#892=CONICAL_SURFACE('',#891,5.500000000000002,44.999999999999979);
#893=ORIENTED_EDGE('',*,*,#720,.T.);
#894=EDGE_LOOP('',(#893));
#895=FACE_OUTER_BOUND('',#894,.T.);
#896=ORIENTED_EDGE('',*,*,#883,.T.);
#897=EDGE_LOOP('',(#896));
#898=FACE_BOUND('',#897,.T.);
#899=ADVANCED_FACE('',(#895,#898),#892,.T.);
#900=CARTESIAN_POINT('',(-6.000000000000001,8.540177E-016,-30.0));
#901=DIRECTION('',(-1.0,0.0,0.0));
#902=DIRECTION('',(0.0,0.0,-1.0));
#903=AXIS2_PLACEMENT_3D('',#900,#901,#902);
#904=CYLINDRICAL_SURFACE('',#903,2.0);
#905=ORIENTED_EDGE('',*,*,#801,.F.);
#906=EDGE_LOOP('',(#905));
#907=FACE_OUTER_BOUND('',#906,.T.);
#908=ORIENTED_EDGE('',*,*,#872,.F.);
#909=EDGE_LOOP('',(#908));
#910=FACE_BOUND('',#909,.T.);
#911=ADVANCED_FACE('',(#907,#910),#904,.F.);
#912=CLOSED_SHELL('',(#83,#116,#147,#187,#227,#251,#290,#335,#362,#382,#423,#456,#476,#518,#554,#598,#618,#659,#671,#689,#707,#724,#887,#899,#911));
#913=MANIFOLD_SOLID_BREP('',#912);
#914=CARTESIAN_POINT('',(-6.000000000000001,1.500000000000001,-20.0));
#915=DIRECTION('',(0.0,0.0,1.0));
#916=DIRECTION('',(1.0,0.0,0.0));
#917=AXIS2_PLACEMENT_3D('',#914,#915,#916);
#918=PLANE('',#917);
#919=CARTESIAN_POINT('',(-3.541500000000001,-3.010695E-016,-20.0));
#920=VERTEX_POINT('',#919);
#921=CARTESIAN_POINT('',(-6.000000000000001,0.0,-20.0));
#922=DIRECTION('',(0.0,0.0,-1.0));
#923=DIRECTION('',(-1.0,0.0,0.0));
#924=AXIS2_PLACEMENT_3D('',#921,#922,#923);
#925=CIRCLE('',#924,2.458500000000000);
#926=EDGE_CURVE('',#920,#920,#925,.T.);
#927=ORIENTED_EDGE('',*,*,#926,.F.);
#928=EDGE_LOOP('',(#927));
#929=FACE_OUTER_BOUND('',#928,.T.);
#930=ADVANCED_FACE('',(#929),#918,.T.);
#931=CARTESIAN_POINT('',(-3.541500000000002,-3.010695E-016,-19.0));
#932=CARTESIAN_POINT('',(-6.000000000000002,2.465190E-032,-17.522784168120744));
#933=CARTESIAN_POINT('',(-3.541500000000002,-2.458499999999999,-19.0));
#934=CARTESIAN_POINT('',(-6.000000000000002,8.881784E-016,-17.522784168120744));
#935=CARTESIAN_POINT('',(-6.000000000000001,-2.458499999999999,-19.0));
#936=CARTESIAN_POINT('',(-6.000000000000001,8.881784E-016,-17.522784168120744));
#937=CARTESIAN_POINT('',(-8.458499999999999,-2.458499999999998,-19.0));
#938=CARTESIAN_POINT('',(-6.0,8.881784E-016,-17.522784168120744));
#939=CARTESIAN_POINT('',(-8.458500000000001,3.010695E-016,-19.0));
#940=CARTESIAN_POINT('',(-6.0,-2.465190E-032,-17.522784168120744));
#941=CARTESIAN_POINT('',(-8.458499999999999,2.458499999999999,-19.0));
#942=CARTESIAN_POINT('',(-6.0,-8.881784E-016,-17.522784168120744));
#943=CARTESIAN_POINT('',(-6.000000000000001,2.458499999999999,-19.0));
#944=CARTESIAN_POINT('',(-6.000000000000001,-8.881784E-016,-17.522784168120744));
#945=CARTESIAN_POINT('',(-3.541500000000002,2.458499999999998,-19.0));
#946=CARTESIAN_POINT('',(-6.000000000000002,-8.881784E-016,-17.522784168120744));
#947=CARTESIAN_POINT('',(-3.541500000000002,-3.010695E-016,-19.0));
#948=CARTESIAN_POINT('',(-6.000000000000002,2.465190E-032,-17.522784168120744));
#956=(BOUNDED_SURFACE()B_SPLINE_SURFACE(1,2,((#931,#933,#935,#937,#939,#941,#943,#945,#947),(#932,#934,#936,#938,#940,#942,#944,#946,#948)),.UNSPECIFIED.,.F.,.T.,.U.)B_SPLINE_SURFACE_WITH_KNOTS((2,2),(3,2,2,2,3),(-1.166633397215330,1.166633397215330),(0.0,1.930901384712627,3.861802769425253,5.792704154137880,7.723605538850507),.UNSPECIFIED.)GEOMETRIC_REPRESENTATION_ITEM()RATIONAL_B_SPLINE_SURFACE(((1.0,0.707106781186548,1.0,0.707106781186548,1.0,0.707106781186548,1.0,0.707106781186548,1.0),(1.0,0.707106781186548,1.0,0.707106781186548,1.0,0.707106781186548,1.0,0.707106781186548,1.0)))REPRESENTATION_ITEM('')SURFACE());
#957=CARTESIAN_POINT('',(-8.458500000000001,0.0,-19.0));
#958=VERTEX_POINT('',#957);
#959=CARTESIAN_POINT('',(-6.000000000000001,0.0,-19.0));
#960=DIRECTION('',(0.0,0.0,-1.0));
#961=DIRECTION('',(-1.0,0.0,0.0));
#962=AXIS2_PLACEMENT_3D('',#959,#960,#961);
#963=CIRCLE('',#962,2.458500000000000);
#964=EDGE_CURVE('',#958,#958,#963,.T.);
#965=ORIENTED_EDGE('',*,*,#964,.T.);
#966=EDGE_LOOP('',(#965));
#967=FACE_OUTER_BOUND('',#966,.T.);
#968=ADVANCED_FACE('',(#967),#956,.F.);
#969=CARTESIAN_POINT('',(-3.541500000000001,-3.010695E-016,-20.0));
#970=CARTESIAN_POINT('',(-3.541500000000001,-3.010695E-016,-19.0));
#971=CARTESIAN_POINT('',(-3.541500000000002,-2.458500000000000,-20.0));
#972=CARTESIAN_POINT('',(-3.541500000000002,-2.458500000000000,-19.0));
#973=CARTESIAN_POINT('',(-6.000000000000001,-2.458500000000000,-20.0));
#974=CARTESIAN_POINT('',(-6.000000000000001,-2.458500000000000,-19.0));
#975=CARTESIAN_POINT('',(-8.458500000000001,-2.458499999999999,-20.0));
#976=CARTESIAN_POINT('',(-8.458500000000001,-2.458499999999999,-19.0));
#977=CARTESIAN_POINT('',(-8.458500000000001,3.010695E-016,-20.0));
#978=CARTESIAN_POINT('',(-8.458500000000001,3.010695E-016,-19.0));
#979=CARTESIAN_POINT('',(-8.458500000000001,2.458500000000000,-20.0));
#980=CARTESIAN_POINT('',(-8.458500000000001,2.458500000000000,-19.0));
#981=CARTESIAN_POINT('',(-6.000000000000001,2.458500000000000,-20.0));
#982=CARTESIAN_POINT('',(-6.000000000000001,2.458500000000000,-19.0));
#983=CARTESIAN_POINT('',(-3.541500000000002,2.458499999999999,-20.0));
#984=CARTESIAN_POINT('',(-3.541500000000002,2.458499999999999,-19.0));
#985=CARTESIAN_POINT('',(-3.541500000000001,-3.010695E-016,-20.0));
#986=CARTESIAN_POINT('',(-3.541500000000001,-3.010695E-016,-19.0));
#994=(BOUNDED_SURFACE()B_SPLINE_SURFACE(1,2,((#969,#971,#973,#975,#977,#979,#981,#983,#985),(#970,#972,#974,#976,#978,#980,#982,#984,#986)),.UNSPECIFIED.,.F.,.T.,.U.)B_SPLINE_SURFACE_WITH_KNOTS((2,2),(3,2,2,2,3),(0.813504169208867,1.220256253813301),(0.0,3.861802769425253,7.723605538850507,11.585408308275760,15.447211077701013),.UNSPECIFIED.)GEOMETRIC_REPRESENTATION_ITEM()RATIONAL_B_SPLINE_SURFACE(((1.0,0.707106781186548,1.0,0.707106781186548,1.0,0.707106781186548,1.0,0.707106781186548,1.0),(1.0,0.707106781186548,1.0,0.707106781186548,1.0,0.707106781186548,1.0,0.707106781186548,1.0)))REPRESENTATION_ITEM('')SURFACE());
#995=ORIENTED_EDGE('',*,*,#926,.T.);
#996=EDGE_LOOP('',(#995));
#997=FACE_OUTER_BOUND('',#996,.T.);
#998=ORIENTED_EDGE('',*,*,#964,.F.);
#999=EDGE_LOOP('',(#998));
#1000=FACE_BOUND('',#999,.T.);
#1001=ADVANCED_FACE('',(#997,#1000),#994,.F.);
#1002=CLOSED_SHELL('',(#930,#968,#1001));
#1003=MANIFOLD_SOLID_BREP('',#1002);
#1004=CARTESIAN_POINT('',(-6.000000000000001,4.249999999999999,-25.0));
#1005=DIRECTION('',(0.0,0.0,1.0));
#1006=DIRECTION('',(1.0,0.0,0.0));
#1007=AXIS2_PLACEMENT_3D('',#1004,#1005,#1006);
#1008=PLANE('',#1007);
#1009=CARTESIAN_POINT('',(-10.0,0.0,-25.0));
#1010=VERTEX_POINT('',#1009);
#1011=CARTESIAN_POINT('',(-6.000000000000001,0.0,-25.0));
#1012=DIRECTION('',(0.0,0.0,1.0));
#1013=DIRECTION('',(-1.0,0.0,0.0));
#1014=AXIS2_PLACEMENT_3D('',#1011,#1012,#1013);
#1015=CIRCLE('',#1014,4.0);
#1016=EDGE_CURVE('',#1010,#1010,#1015,.T.);
#1017=ORIENTED_EDGE('',*,*,#1016,.T.);
#1018=EDGE_LOOP('',(#1017));
#1019=FACE_OUTER_BOUND('',#1018,.T.);
#1020=CARTESIAN_POINT('',(-6.000000000000001,2.500000000000001,-25.0));
#1021=VERTEX_POINT('',#1020);
#1022=CARTESIAN_POINT('',(-6.000000000000001,0.0,-25.0));
#1023=DIRECTION('',(0.0,0.0,1.0));
#1024=DIRECTION('',(0.0,1.0,0.0));
#1025=AXIS2_PLACEMENT_3D('',#1022,#1023,#1024);
#1026=CIRCLE('',#1025,2.500000000000001);
#1027=EDGE_CURVE('',#1021,#1021,#1026,.T.);
#1028=ORIENTED_EDGE('',*,*,#1027,.F.);
#1029=EDGE_LOOP('',(#1028));
#1030=FACE_BOUND('',#1029,.T.);
#1031=ADVANCED_FACE('',(#1019,#1030),#1008,.T.);
#1032=CARTESIAN_POINT('',(-6.000000000000001,8.540177E-017,-24.500000000000000));
#1033=DIRECTION('',(0.0,1.708035E-016,1.0));
#1034=DIRECTION('',(0.0,1.0,0.0));
#1035=AXIS2_PLACEMENT_3D('',#1032,#1033,#1034);
#1036=CYLINDRICAL_SURFACE('',#1035,2.500000000000000);
#1037=CARTESIAN_POINT('',(-6.000000000000001,2.500000000000001,-24.0));
#1038=VERTEX_POINT('',#1037);
#1039=CARTESIAN_POINT('',(-6.000000000000001,1.708035E-016,-24.0));
#1040=DIRECTION('',(0.0,0.0,1.0));
#1041=DIRECTION('',(0.0,1.0,0.0));
#1042=AXIS2_PLACEMENT_3D('',#1039,#1040,#1041);
#1043=CIRCLE('',#1042,2.500000000000000);
#1044=EDGE_CURVE('',#1038,#1038,#1043,.T.);
#1045=ORIENTED_EDGE('',*,*,#1044,.F.);
#1046=EDGE_LOOP('',(#1045));
#1047=FACE_OUTER_BOUND('',#1046,.T.);
#1048=ORIENTED_EDGE('',*,*,#1027,.T.);
#1049=EDGE_LOOP('',(#1048));
#1050=FACE_BOUND('',#1049,.T.);
#1051=ADVANCED_FACE('',(#1047,#1050),#1036,.T.);
#1052=CARTESIAN_POINT('',(-2.000000000000001,4.0,-24.0));
#1053=CARTESIAN_POINT('',(-10.0,4.0,-24.0));
#1054=CARTESIAN_POINT('',(-2.000000000000001,-4.0,-24.0));
#1055=CARTESIAN_POINT('',(-10.0,-4.0,-24.0));
#1056=B_SPLINE_SURFACE_WITH_KNOTS('',1,1,((#1052,#1054),(#1053,#1055)),.UNSPECIFIED.,.F.,.F.,.U.,(2,2),(2,2),(0.0,7.999999999999999),(0.0,8.0),.UNSPECIFIED.);
#1057=CARTESIAN_POINT('',(-10.0,0.0,-24.0));
#1058=VERTEX_POINT('',#1057);
#1059=CARTESIAN_POINT('',(-6.000000000000001,0.0,-24.0));
#1060=DIRECTION('',(0.0,0.0,-1.0));
#1061=DIRECTION('',(-1.0,0.0,0.0));
#1062=AXIS2_PLACEMENT_3D('',#1059,#1060,#1061);
#1063=CIRCLE('',#1062,4.0);
#1064=EDGE_CURVE('',#1058,#1058,#1063,.T.);
#1065=ORIENTED_EDGE('',*,*,#1064,.T.);
#1066=EDGE_LOOP('',(#1065));
#1067=FACE_OUTER_BOUND('',#1066,.T.);
#1068=ORIENTED_EDGE('',*,*,#1044,.T.);
#1069=EDGE_LOOP('',(#1068));
#1070=FACE_BOUND('',#1069,.T.);
#1071=ADVANCED_FACE('',(#1067,#1070),#1056,.F.);
#1072=CARTESIAN_POINT('',(-2.000000000000001,-4.898425E-016,-25.0));
#1073=CARTESIAN_POINT('',(-2.000000000000001,-4.898425E-016,-24.0));
#1074=CARTESIAN_POINT('',(-2.000000000000003,-4.000000000000000,-25.0));
#1075=CARTESIAN_POINT('',(-2.000000000000003,-4.000000000000000,-24.0));
#1076=CARTESIAN_POINT('',(-6.000000000000002,-4.0,-25.0));
#1077=CARTESIAN_POINT('',(-6.000000000000002,-4.0,-24.0));
#1078=CARTESIAN_POINT('',(-10.0,-3.999999999999999,-25.0));
#1079=CARTESIAN_POINT('',(-10.0,-3.999999999999999,-24.0));
#1080=CARTESIAN_POINT('',(-10.0,4.898425E-016,-25.0));
#1081=CARTESIAN_POINT('',(-10.0,4.898425E-016,-24.0));
#1082=CARTESIAN_POINT('',(-10.0,4.000000000000000,-25.0));
#1083=CARTESIAN_POINT('',(-10.0,4.000000000000000,-24.0));
#1084=CARTESIAN_POINT('',(-6.0,4.0,-25.0));
#1085=CARTESIAN_POINT('',(-6.0,4.0,-24.0));
#1086=CARTESIAN_POINT('',(-2.000000000000001,3.999999999999999,-25.0));
#1087=CARTESIAN_POINT('',(-2.000000000000001,3.999999999999999,-24.0));
#1088=CARTESIAN_POINT('',(-2.000000000000001,-4.898425E-016,-25.0));
#1089=CARTESIAN_POINT('',(-2.000000000000001,-4.898425E-016,-24.0));
#1097=(BOUNDED_SURFACE()B_SPLINE_SURFACE(1,2,((#1072,#1074,#1076,#1078,#1080,#1082,#1084,#1086,#1088),(#1073,#1075,#1077,#1079,#1081,#1083,#1085,#1087,#1089)),.UNSPECIFIED.,.F.,.T.,.U.)B_SPLINE_SURFACE_WITH_KNOTS((2,2),(3,2,2,2,3),(-0.125000000000000,0.125000000000000),(0.0,6.283185307179586,12.566370614359172,18.849555921538759,25.132741228718345),.UNSPECIFIED.)GEOMETRIC_REPRESENTATION_ITEM()RATIONAL_B_SPLINE_SURFACE(((1.0,0.707106781186548,1.0,0.707106781186548,1.0,0.707106781186548,1.0,0.707106781186548,1.0),(1.0,0.707106781186548,1.0,0.707106781186548,1.0,0.707106781186548,1.0,0.707106781186548,1.0)))REPRESENTATION_ITEM('')SURFACE());
#1098=ORIENTED_EDGE('',*,*,#1016,.F.);
#1099=EDGE_LOOP('',(#1098));
#1100=FACE_OUTER_BOUND('',#1099,.T.);
#1101=ORIENTED_EDGE('',*,*,#1064,.F.);
#1102=EDGE_LOOP('',(#1101));
#1103=FACE_BOUND('',#1102,.T.);
#1104=ADVANCED_FACE('',(#1100,#1103),#1097,.F.);
#1105=CLOSED_SHELL('',(#1031,#1051,#1071,#1104));
#1106=MANIFOLD_SOLID_BREP('',#1105);
#1107=COLOUR_RGB('Default',0.752941012382507,0.752941012382507,0.752941012382507);
#1108=FILL_AREA_STYLE_COLOUR('Default',#1107);
#1109=FILL_AREA_STYLE('Default',(#1108));
#1110=SURFACE_STYLE_FILL_AREA(#1109);
#1111=SURFACE_SIDE_STYLE('Default',(#1110));
#1112=SURFACE_STYLE_USAGE(.BOTH.,#1111);
#1113=PRESENTATION_STYLE_ASSIGNMENT((#1112));
#1114=STYLED_ITEM('',(#1113),#913);
#1115=MECHANICAL_DESIGN_GEOMETRIC_PRESENTATION_REPRESENTATION('',(#1114,#1116,#1117),#36);
#1116=STYLED_ITEM('',(#1113),#1003);
#1117=STYLED_ITEM('',(#1113),#1106);
#1118=ADVANCED_BREP_SHAPE_REPRESENTATION('ABSR',(#913,#1003,#1106),#36);
#1119=SHAPE_REPRESENTATION_RELATIONSHIP('SRR','None',#1118,#41);
ENDSEC;
END-ISO-10303-21;
