ISO-10303-21;
HEADER;
/****************************************************************
 * Generated by software with PDE/Lib inside                    *
 * PDElib Version v51a, created Tue 12/06/2005                  *
 * International Technegroup Inc. (www.iti-oh.com)              *
 ****************************************************************/
FILE_DESCRIPTION((''),'2;1');
FILE_NAME('S:\\1\X2\898F683C54C156F39762FF83FF9EFF70FF80\X0\\\OpticalHard\\01_\X2\56FD518588FD54C1\X0\\\3_Bases\\RS\\RS-12\\RS-12-50\\RS-12-50.stp','2007-10-26T16:32:24',('okegawa'),(''),'Autodesk Inventor 11','Autodesk Inventor 11','');
FILE_SCHEMA(('AUTOMOTIVE_DESIGN { 1 0 10303 214 1 1 1 1 }'));
ENDSEC;
DATA;
#5=APPLICATION_CONTEXT('automotive design');
#6=APPLICATION_PROTOCOL_DEFINITION('Draft International Standard','automotive_design',1998,#5);
#7=PRODUCT_CONTEXT('None',#5,'mechanical');
#8=PRODUCT('RS-12-50-C1-S03','RS-12-50-C1-S03','None',(#7));
#9=PRODUCT_RELATED_PRODUCT_CATEGORY('part','description',(#8));
#10=PRODUCT_DEFINITION_FORMATION('None','None',#8);
#11=PRODUCT_DEFINITION_CONTEXT('part definition',#5,'design');
#12=PRODUCT_DEFINITION('None','None',#10,#11);
#18=(NAMED_UNIT(*)PLANE_ANGLE_UNIT()SI_UNIT($,.RADIAN.));
#19=DIMENSIONAL_EXPONENTS(0.0,0.0,0.0,0.0,0.0,0.0,0.0);
#20=PLANE_ANGLE_MEASURE_WITH_UNIT(PLANE_ANGLE_MEASURE(0.017453292500000),#18);
#24=(CONVERSION_BASED_UNIT('DEGREE',#20)NAMED_UNIT(#19)PLANE_ANGLE_UNIT());
#28=(NAMED_UNIT(*)SI_UNIT($,.STERADIAN.)SOLID_ANGLE_UNIT());
#32=(LENGTH_UNIT()NAMED_UNIT(*)SI_UNIT(.MILLI.,.METRE.));
#34=UNCERTAINTY_MEASURE_WITH_UNIT(LENGTH_MEASURE(0.010000000000000),#32,'DISTANCE_ACCURACY_VALUE','');
#36=(GEOMETRIC_REPRESENTATION_CONTEXT(3)GLOBAL_UNCERTAINTY_ASSIGNED_CONTEXT((#34))GLOBAL_UNIT_ASSIGNED_CONTEXT((#24,#28,#32))REPRESENTATION_CONTEXT('None','None'));
#37=AXIS2_PLACEMENT_3D('',#38,#39,#40);
#38=CARTESIAN_POINT('',(0.0,0.0,0.0));
#39=DIRECTION('',(0.0,0.0,1.0));
#40=DIRECTION('',(1.0,0.0,0.0));
#41=SHAPE_REPRESENTATION('',(#37),#36);
#42=PRODUCT_DEFINITION_SHAPE('','',#12);
#43=SHAPE_DEFINITION_REPRESENTATION(#42,#41);
#44=CARTESIAN_POINT('',(-5.000000000000002,-8.660254037844398,59.000000000000014));
#45=DIRECTION('',(0.500000000000000,0.866025403784439,5.397605E-079));
#46=DIRECTION('',(0.866025403784439,-0.500000000000000,4.402523E-094));
#47=AXIS2_PLACEMENT_3D('',#44,#45,#46);
#48=CYLINDRICAL_SURFACE('',#47,2.0);
#49=CARTESIAN_POINT('',(-5.267949192431124,-13.124355652982151,59.000000000000014));
#50=VERTEX_POINT('',#49);
#51=CARTESIAN_POINT('',(-7.000000000000002,-12.124355652982153,59.000000000000014));
#52=DIRECTION('',(0.500000000000000,0.866025403784439,5.397605E-079));
#53=DIRECTION('',(0.866025403784439,-0.500000000000000,4.402523E-094));
#54=AXIS2_PLACEMENT_3D('',#51,#52,#53);
#55=CIRCLE('',#54,2.000000000000001);
#56=EDGE_CURVE('',#50,#50,#55,.T.);
#57=ORIENTED_EDGE('',*,*,#56,.T.);
#58=EDGE_LOOP('',(#57));
#59=FACE_OUTER_BOUND('',#58,.T.);
#60=CARTESIAN_POINT('',(-7.140377720764858,-8.367496997597602,59.000000000000014));
#61=VERTEX_POINT('',#60);
#62=CARTESIAN_POINT('',(-7.140377720764858,-8.367496997597602,59.000000000000014));
#63=CARTESIAN_POINT('',(-7.140377720764858,-8.367496997597602,59.282759481721470));
#64=CARTESIAN_POINT('',(-7.090816879822581,-8.410539921247128,59.585794913625151));
#65=CARTESIAN_POINT('',(-6.990545854521240,-8.493071803289780,59.856217619016341));
#66=CARTESIAN_POINT('',(-6.925743094171982,-8.546410180523983,60.030985332000213));
#67=CARTESIAN_POINT('',(-6.840325854517798,-8.615419137502251,60.192604814439889));
#68=CARTESIAN_POINT('',(-6.741937044893201,-8.691736586131494,60.330972230590405));
#69=CARTESIAN_POINT('',(-6.667770618721113,-8.749265409185655,60.435274912914799));
#70=CARTESIAN_POINT('',(-6.586194227113364,-8.811100035144710,60.528053773938446));
#71=CARTESIAN_POINT('',(-6.492617489100870,-8.879522404961968,60.612602308038035));
#72=CARTESIAN_POINT('',(-6.325953117692842,-9.001385717341142,60.763187042967530));
#73=CARTESIAN_POINT('',(-6.126255258565734,-9.139582130522975,60.877634805776218));
#74=CARTESIAN_POINT('',(-5.914688343733444,-9.274506013610846,60.940298473429664));
#75=CARTESIAN_POINT('',(-5.778593307280938,-9.361298746783296,60.980608245589941));
#76=CARTESIAN_POINT('',(-5.637985401789355,-9.446588853254237,60.999882448027506));
#77=CARTESIAN_POINT('',(-5.501283695957545,-9.525538184091843,60.999999450665428));
#78=CARTESIAN_POINT('',(-5.381497759985973,-9.594718151021791,61.000101975139494));
#79=CARTESIAN_POINT('',(-5.256100675951113,-9.664034696952230,60.985601384925268));
#80=CARTESIAN_POINT('',(-5.130501400318769,-9.730259779745204,60.954975286354106));
#81=CARTESIAN_POINT('',(-4.872864160716750,-9.866104890613048,60.892153080923954));
#82=CARTESIAN_POINT('',(-4.616077153233150,-9.987288495294507,60.758880279801822));
#83=CARTESIAN_POINT('',(-4.402928654582250,-10.080387852789126,60.579276111741372));
#84=CARTESIAN_POINT('',(-4.268360330916859,-10.139164830115600,60.465885532064824));
#85=CARTESIAN_POINT('',(-4.152467047199584,-10.186730763182361,60.338954927517101));
#86=CARTESIAN_POINT('',(-4.048652549282608,-10.227825405978900,60.189695543453560));
#87=CARTESIAN_POINT('',(-3.885295670420823,-10.292489713179528,59.954829049749073));
#88=CARTESIAN_POINT('',(-3.765145637487162,-10.335711963867311,59.670681991500253));
#89=CARTESIAN_POINT('',(-3.711368614039371,-10.354986383898508,59.381106665366168));
#90=CARTESIAN_POINT('',(-3.684140507840362,-10.364745309214321,59.234490374112227));
#91=CARTESIAN_POINT('',(-3.673218855157264,-10.368581353351125,59.089215421610064));
#92=CARTESIAN_POINT('',(-3.676993346696372,-10.367242638635918,58.945293932015154));
#93=CARTESIAN_POINT('',(-3.683831316030863,-10.364817387426486,58.684561930836331));
#94=CARTESIAN_POINT('',(-3.743168903357617,-10.344187736596577,58.409769806251070));
#95=CARTESIAN_POINT('',(-3.852135374295336,-10.303448600255283,58.161360459220425));
#96=CARTESIAN_POINT('',(-3.943783154344768,-10.269184377740958,57.952432290739132));
#97=CARTESIAN_POINT('',(-4.069875639799320,-10.220543585965130,57.761843824070461));
#98=CARTESIAN_POINT('',(-4.211189129865709,-10.161982390877329,57.605847935814460));
#99=CARTESIAN_POINT('',(-4.304422556464976,-10.123345875133369,57.502927604636803));
#100=CARTESIAN_POINT('',(-4.409287490619044,-10.078398926849223,57.408595975582088));
#101=CARTESIAN_POINT('',(-4.524371368231704,-10.026468157947004,57.326397492906324));
#102=CARTESIAN_POINT('',(-4.750099215464527,-9.924610096569399,57.165171725013330));
#103=CARTESIAN_POINT('',(-5.011819731181234,-9.796186705657082,57.057312753521146));
#104=CARTESIAN_POINT('',(-5.265692295950015,-9.657768098498364,57.018126795151638));
#105=CARTESIAN_POINT('',(-5.433589613877009,-9.566225662968533,56.992211362672229));
#106=CARTESIAN_POINT('',(-5.594062124193004,-9.473283144904451,56.993565188840428));
#107=CARTESIAN_POINT('',(-5.757133591686100,-9.373121828264026,57.022516336521406));
#108=CARTESIAN_POINT('',(-5.985021965859943,-9.233148846140315,57.062974854966782));
#109=CARTESIAN_POINT('',(-6.207621081641354,-9.084011314327007,57.161812091469990));
#110=CARTESIAN_POINT('',(-6.396360777088352,-8.949109945090951,57.307049380194591));
#111=CARTESIAN_POINT('',(-6.497857568144133,-8.876565290114883,57.385152286487184));
#112=CARTESIAN_POINT('',(-6.589729703342969,-8.808265534085408,57.476067187444706));
#113=CARTESIAN_POINT('',(-6.669566070200243,-8.747393236572465,57.573989149642969));
#114=CARTESIAN_POINT('',(-6.751156841358297,-8.685183270215624,57.674062947131141));
#115=CARTESIAN_POINT('',(-6.825638474489820,-8.626553585574703,57.787928552084523));
#116=CARTESIAN_POINT('',(-6.889767134714671,-8.575028211580742,57.913588545500602));
#117=CARTESIAN_POINT('',(-7.016045992701426,-8.473567096340158,58.161031738724468));
#118=CARTESIAN_POINT('',(-7.098226859120514,-8.403370871178414,58.452506731090239));
#119=CARTESIAN_POINT('',(-7.127396013500257,-8.378557517063465,58.741524339717422));
#120=CARTESIAN_POINT('',(-7.136182861726113,-8.371082799978973,58.828587331964137));
#121=CARTESIAN_POINT('',(-7.140377720764858,-8.367496997597602,58.915233150427618));
#122=CARTESIAN_POINT('',(-7.140377720764858,-8.367496997597602,59.000000000000014));
#123=B_SPLINE_CURVE_WITH_KNOTS('',3,(#62,#63,#64,#65,#66,#67,#68,#69,#70,#71,#72,#73,#74,#75,#76,#77,#78,#79,#80,#81,#82,#83,#84,#85,#86,#87,#88,#89,#90,#91,#92,#93,#94,#95,#96,#97,#98,#99,#100,#101,#102,#103,#104,#105,#106,#107,#108,#109,#110,#111,#112,#113,#114,#115,#116,#117,#118,#119,#120,#121,#122),.UNSPECIFIED.,.T.,.U.,(4,3,3,3,3,3,3,3,3,3,3,3,3,3,3,3,3,3,3,3,4),(0.0,0.084827844516434,0.139650047267651,0.180975548292140,0.254578120872182,0.301924582421804,0.343412288644295,0.428514515984127,0.482242617030096,0.566786250820622,0.609591949085670,0.687139891383358,0.752362676867955,0.795394264158179,0.879797290572758,0.935616798966017,1.013623192178008,1.055571964926113,1.098442562028442,1.182861135943923,1.208291190815641),.UNSPECIFIED.);
#124=EDGE_CURVE('',#61,#61,#123,.T.);
#125=ORIENTED_EDGE('',*,*,#124,.F.);
#126=EDGE_LOOP('',(#125));
#127=FACE_BOUND('',#126,.T.);
#128=ADVANCED_FACE('',(#59,#127),#48,.T.);
#129=CARTESIAN_POINT('',(-2.133974596215563,-5.696152422706645,59.000000000000014));
#130=DIRECTION('',(0.500000000000000,0.866025403784439,5.397605E-079));
#131=DIRECTION('',(0.0,0.0,1.0));
#132=AXIS2_PLACEMENT_3D('',#129,#130,#131);
#133=PLANE('',#132);
#134=CARTESIAN_POINT('',(-3.000000000000002,-5.196152422706638,60.621000000000009));
#135=VERTEX_POINT('',#134);
#136=CARTESIAN_POINT('',(-3.000000000000002,-5.196152422706638,57.379000000000019));
#137=VERTEX_POINT('',#136);
#138=CARTESIAN_POINT('',(-3.000000000000007,-5.196152422706646,59.000000000000014));
#139=DIRECTION('',(-0.500000000000000,-0.866025403784439,-5.397605E-079));
#140=DIRECTION('',(-0.866025403784439,0.500000000000000,0.0));
#141=AXIS2_PLACEMENT_3D('',#138,#139,#140);
#142=CIRCLE('',#141,1.621000000000000);
#143=EDGE_CURVE('',#135,#137,#142,.T.);
#144=ORIENTED_EDGE('',*,*,#143,.F.);
#145=CARTESIAN_POINT('',(-3.000000000000007,-5.196152422706646,59.000000000000014));
#146=DIRECTION('',(-0.500000000000000,-0.866025403784439,-5.397605E-079));
#147=DIRECTION('',(-0.866025403784439,0.500000000000000,0.0));
#148=AXIS2_PLACEMENT_3D('',#145,#146,#147);
#149=CIRCLE('',#148,1.621000000000000);
#150=EDGE_CURVE('',#137,#135,#149,.T.);
#151=ORIENTED_EDGE('',*,*,#150,.F.);
#152=EDGE_LOOP('',(#144,#151));
#153=FACE_OUTER_BOUND('',#152,.T.);
#154=ADVANCED_FACE('',(#153),#133,.T.);
#155=CARTESIAN_POINT('',(-7.125000000000003,-12.340862003928263,59.000000000000014));
#156=DIRECTION('',(-0.500000000000000,-0.866025403784439,-5.397605E-079));
#157=DIRECTION('',(-0.866025403784439,0.500000000000000,-3.932869E-094));
#158=AXIS2_PLACEMENT_3D('',#155,#156,#157);
#159=CONICAL_SURFACE('',#158,4.750000000000003,45.000000000000114);
#160=CARTESIAN_POINT('',(-2.919872981077807,-15.057368354874372,59.000000000000014));
#161=VERTEX_POINT('',#160);
#162=CARTESIAN_POINT('',(-7.250000000000002,-12.557368354874372,59.000000000000014));
#163=DIRECTION('',(0.500000000000000,0.866025403784439,5.397605E-079));
#164=DIRECTION('',(-0.866025403784439,0.500000000000000,-4.402523E-094));
#165=AXIS2_PLACEMENT_3D('',#162,#163,#164);
#166=CIRCLE('',#165,5.000000000000002);
#167=EDGE_CURVE('',#161,#161,#166,.T.);
#168=ORIENTED_EDGE('',*,*,#167,.T.);
#169=EDGE_LOOP('',(#168));
#170=FACE_OUTER_BOUND('',#169,.T.);
#171=CARTESIAN_POINT('',(-3.102885682970028,-14.374355652982153,59.000000000000014));
#172=VERTEX_POINT('',#171);
#173=CARTESIAN_POINT('',(-7.000000000000002,-12.124355652982153,59.000000000000014));
#174=DIRECTION('',(-0.500000000000000,-0.866025403784439,-5.397605E-079));
#175=DIRECTION('',(-0.866025403784439,0.500000000000000,-3.411031E-094));
#176=AXIS2_PLACEMENT_3D('',#173,#174,#175);
#177=CIRCLE('',#176,4.500000000000001);
#178=EDGE_CURVE('',#172,#172,#177,.T.);
#179=ORIENTED_EDGE('',*,*,#178,.T.);
#180=EDGE_LOOP('',(#179));
#181=FACE_BOUND('',#180,.T.);
#182=ADVANCED_FACE('',(#170,#181),#159,.T.);
#183=CARTESIAN_POINT('',(-8.250000000000002,-14.289419162443249,59.000000000000014));
#184=DIRECTION('',(0.500000000000000,0.866025403784439,5.397605E-079));
#185=DIRECTION('',(0.866025403784439,-0.500000000000000,4.402523E-094));
#186=AXIS2_PLACEMENT_3D('',#183,#184,#185);
#187=CYLINDRICAL_SURFACE('',#186,5.000000000000002);
#188=CARTESIAN_POINT('',(-4.919872981077807,-18.521469970012127,59.000000000000014));
#189=VERTEX_POINT('',#188);
#190=CARTESIAN_POINT('',(-9.250000000000004,-16.021469970012127,59.000000000000014));
#191=DIRECTION('',(-0.500000000000000,-0.866025403784439,-5.397605E-079));
#192=DIRECTION('',(-0.866025403784439,0.500000000000000,-4.402523E-094));
#193=AXIS2_PLACEMENT_3D('',#190,#191,#192);
#194=CIRCLE('',#193,5.000000000000002);
#195=EDGE_CURVE('',#189,#189,#194,.T.);
#196=ORIENTED_EDGE('',*,*,#195,.F.);
#197=EDGE_LOOP('',(#196));
#198=FACE_OUTER_BOUND('',#197,.T.);
#199=ORIENTED_EDGE('',*,*,#167,.F.);
#200=EDGE_LOOP('',(#199));
#201=FACE_BOUND('',#200,.T.);
#202=ADVANCED_FACE('',(#198,#201),#187,.T.);
#203=CARTESIAN_POINT('',(-3.968911086754466,-13.874355652982153,59.000000000000014));
#204=DIRECTION('',(0.500000000000000,0.866025403784439,5.397605E-079));
#205=DIRECTION('',(0.0,0.0,1.0));
#206=AXIS2_PLACEMENT_3D('',#203,#204,#205);
#207=PLANE('',#206);
#208=ORIENTED_EDGE('',*,*,#178,.F.);
#209=EDGE_LOOP('',(#208));
#210=FACE_OUTER_BOUND('',#209,.T.);
#211=ORIENTED_EDGE('',*,*,#56,.F.);
#212=EDGE_LOOP('',(#211));
#213=FACE_BOUND('',#212,.T.);
#214=ADVANCED_FACE('',(#210,#213),#207,.T.);
#215=CARTESIAN_POINT('',(-9.375000000000002,-16.237976320958236,59.000000000000014));
#216=DIRECTION('',(0.500000000000000,0.866025403784439,5.397605E-079));
#217=DIRECTION('',(-0.866025403784439,0.500000000000000,-3.932869E-094));
#218=AXIS2_PLACEMENT_3D('',#215,#216,#217);
#219=CONICAL_SURFACE('',#218,4.750000000000003,44.999999999999964);
#220=CARTESIAN_POINT('',(-5.602885682970027,-18.704482671904348,59.000000000000014));
#221=VERTEX_POINT('',#220);
#222=CARTESIAN_POINT('',(-9.500000000000004,-16.454482671904348,59.000000000000014));
#223=DIRECTION('',(0.500000000000000,0.866025403784439,5.397605E-079));
#224=DIRECTION('',(-0.866025403784439,0.500000000000000,-3.411031E-094));
#225=AXIS2_PLACEMENT_3D('',#222,#223,#224);
#226=CIRCLE('',#225,4.500000000000002);
#227=EDGE_CURVE('',#221,#221,#226,.T.);
#228=ORIENTED_EDGE('',*,*,#227,.T.);
#229=EDGE_LOOP('',(#228));
#230=FACE_OUTER_BOUND('',#229,.T.);
#231=ORIENTED_EDGE('',*,*,#195,.T.);
#232=EDGE_LOOP('',(#231));
#233=FACE_BOUND('',#232,.T.);
#234=ADVANCED_FACE('',(#230,#233),#219,.T.);
#235=CARTESIAN_POINT('',(-7.334936490538906,-17.704482671904348,59.000000000000014));
#236=DIRECTION('',(-0.500000000000000,-0.866025403784439,-5.397605E-079));
#237=DIRECTION('',(0.0,0.0,-1.0));
#238=AXIS2_PLACEMENT_3D('',#235,#236,#237);
#239=PLANE('',#238);
#240=ORIENTED_EDGE('',*,*,#227,.F.);
#241=EDGE_LOOP('',(#240));
#242=FACE_OUTER_BOUND('',#241,.T.);
#243=ADVANCED_FACE('',(#242),#239,.T.);
#244=CARTESIAN_POINT('',(10.562378404209010,18.294576044858292,59.000000000000014));
#245=DIRECTION('',(0.500000000000000,0.866025403784439,0.0));
#246=DIRECTION('',(-0.866025403784439,0.500000000000000,0.0));
#247=AXIS2_PLACEMENT_3D('',#244,#245,#246);
#248=CYLINDRICAL_SURFACE('',#247,1.621000000000000);
#249=ORIENTED_EDGE('',*,*,#150,.T.);
#250=CARTESIAN_POINT('',(-2.999999999999999,-5.196152422706634,57.379000000000012));
#251=CARTESIAN_POINT('',(-2.810736218224208,-5.305423918062734,57.379000000000012));
#252=CARTESIAN_POINT('',(-2.602175304742097,-5.410504052412399,57.426211675146362));
#253=CARTESIAN_POINT('',(-2.408159187351769,-5.495522661983415,57.520443737454279));
#254=CARTESIAN_POINT('',(-2.270425183943016,-5.555878232530698,57.587340031255586));
#255=CARTESIAN_POINT('',(-2.139884054693304,-5.606719010658702,57.677321805972227));
#256=CARTESIAN_POINT('',(-2.026931665851106,-5.647260222618582,57.780791013694191));
#257=CARTESIAN_POINT('',(-1.937121003500013,-5.679495336332908,57.863061412520686));
#258=CARTESIAN_POINT('',(-1.857080825157570,-5.705877924164800,57.953686720108351));
#259=CARTESIAN_POINT('',(-1.784418761782868,-5.728511995500866,58.057591814278155));
#260=CARTESIAN_POINT('',(-1.643393814684813,-5.772440953261424,58.259254273723492));
#261=CARTESIAN_POINT('',(-1.542826919027074,-5.798385756354901,58.503640773326410));
#262=CARTESIAN_POINT('',(-1.504197834324156,-5.808389525093383,58.749459058000184));
#263=CARTESIAN_POINT('',(-1.476478702103659,-5.815567944941997,58.925851265775513));
#264=CARTESIAN_POINT('',(-1.477690976696056,-5.815274265030403,59.097699243349794));
#265=CARTESIAN_POINT('',(-1.508074324178615,-5.807384250482590,59.274078259112848));
#266=CARTESIAN_POINT('',(-1.547538285608586,-5.797136162118544,59.503171339759248));
#267=CARTESIAN_POINT('',(-1.640388733808988,-5.772982654071210,59.729743239982071));
#268=CARTESIAN_POINT('',(-1.769311031852429,-5.733196182982518,59.920437401250716));
#269=CARTESIAN_POINT('',(-1.875071607175163,-5.700557608148991,60.076872125984387));
#270=CARTESIAN_POINT('',(-1.998204477357442,-5.659634998072923,60.206246233867816));
#271=CARTESIAN_POINT('',(-2.143767754309391,-5.603950375902993,60.316748299185278));
#272=CARTESIAN_POINT('',(-2.334012245412573,-5.531173142325816,60.461169403342687));
#273=CARTESIAN_POINT('',(-2.558858846456462,-5.432560418389694,60.561821418819285));
#274=CARTESIAN_POINT('',(-2.776847107152470,-5.318751746744623,60.600887996454368));
#275=CARTESIAN_POINT('',(-2.852813856333511,-5.279090552211101,60.614502311716528));
#276=CARTESIAN_POINT('',(-2.927794827236145,-5.237840098638729,60.621000000000016));
#277=CARTESIAN_POINT('',(-2.999999999999999,-5.196152422706634,60.621000000000016));
#278=B_SPLINE_CURVE_WITH_KNOTS('',3,(#250,#251,#252,#253,#254,#255,#256,#257,#258,#259,#260,#261,#262,#263,#264,#265,#266,#267,#268,#269,#270,#271,#272,#273,#274,#275,#276,#277),.UNSPECIFIED.,.F.,.U.,(4,3,3,3,3,3,3,3,3,4),(0.245564547660981,0.311127444874641,0.357671208505095,0.394679068921432,0.466505154158135,0.518045509537211,0.584989634042730,0.639906814620714,0.711681037423687,0.736693642982944),.UNSPECIFIED.);
#279=EDGE_CURVE('',#137,#135,#278,.T.);
#280=ORIENTED_EDGE('',*,*,#279,.F.);
#281=EDGE_LOOP('',(#249,#280));
#282=FACE_OUTER_BOUND('',#281,.T.);
#283=ADVANCED_FACE('',(#282),#248,.F.);
#284=CARTESIAN_POINT('',(10.562378404209010,18.294576044858292,59.000000000000014));
#285=DIRECTION('',(0.500000000000000,0.866025403784439,0.0));
#286=DIRECTION('',(-0.866025403784439,0.500000000000000,0.0));
#287=AXIS2_PLACEMENT_3D('',#284,#285,#286);
#288=CYLINDRICAL_SURFACE('',#287,1.621000000000000);
#289=ORIENTED_EDGE('',*,*,#143,.T.);
#290=CARTESIAN_POINT('',(-4.292267892099054,-4.192426068812133,59.000000000000014));
#291=VERTEX_POINT('',#290);
#292=CARTESIAN_POINT('',(-4.292267892099056,-4.192426068812131,59.000000000000014));
#293=CARTESIAN_POINT('',(-4.292267892099056,-4.192426068812131,58.758635630540887));
#294=CARTESIAN_POINT('',(-4.250426390466640,-4.236471809359317,58.499884315336331));
#295=CARTESIAN_POINT('',(-4.165828206725696,-4.318087001445037,58.272677840972136));
#296=CARTESIAN_POINT('',(-4.114281424958275,-4.367816207313469,58.134237959259544));
#297=CARTESIAN_POINT('',(-4.047317122252791,-4.430540607577885,58.007115126172273));
#298=CARTESIAN_POINT('',(-3.970619630946514,-4.498241850583646,57.898798923542785));
#299=CARTESIAN_POINT('',(-3.909196507878874,-4.552460335571236,57.812053981419936));
#300=CARTESIAN_POINT('',(-3.840118644582086,-4.611277786244881,57.734219728980683));
#301=CARTESIAN_POINT('',(-3.760678711400008,-4.675178673550647,57.664854632658106));
#302=CARTESIAN_POINT('',(-3.599387595630845,-4.804920039125106,57.524018993286901));
#303=CARTESIAN_POINT('',(-3.399248486123874,-4.950296718579309,57.428573141482111));
#304=CARTESIAN_POINT('',(-3.191254221418992,-5.080934608344757,57.394445598105186));
#305=CARTESIAN_POINT('',(-3.127578036152870,-5.120928607618164,57.383997657255328));
#306=CARTESIAN_POINT('',(-3.063400443728389,-5.159548159453307,57.379000000000012));
#307=CARTESIAN_POINT('',(-2.999999999999999,-5.196152422706634,57.379000000000012));
#308=B_SPLINE_CURVE_WITH_KNOTS('',3,(#292,#293,#294,#295,#296,#297,#298,#299,#300,#301,#302,#303,#304,#305,#306,#307),.UNSPECIFIED.,.F.,.U.,(4,3,3,3,3,4),(0.0,0.072409310837737,0.116529252645373,0.151862671890675,0.223601989708985,0.245564547660981),.UNSPECIFIED.);
#309=EDGE_CURVE('',#291,#137,#308,.T.);
#310=ORIENTED_EDGE('',*,*,#309,.F.);
#311=CARTESIAN_POINT('',(-2.999999999999999,-5.196152422706634,60.621000000000016));
#312=CARTESIAN_POINT('',(-3.189263781775754,-5.086880927350555,60.621000000000016));
#313=CARTESIAN_POINT('',(-3.384546304296668,-4.958801945213418,60.573788324853687));
#314=CARTESIAN_POINT('',(-3.555182638674741,-4.833288363595299,60.479556262545806));
#315=CARTESIAN_POINT('',(-3.685310501279392,-4.737571269323735,60.407694563795388));
#316=CARTESIAN_POINT('',(-3.801699972182435,-4.643586026377459,60.309087120411625));
#317=CARTESIAN_POINT('',(-3.897312271042876,-4.561902789623935,60.195961331975859));
#318=CARTESIAN_POINT('',(-3.968627959263653,-4.500976566589793,60.111582611309487));
#319=CARTESIAN_POINT('',(-4.030977036916153,-4.444858718416334,60.017470042582794));
#320=CARTESIAN_POINT('',(-4.085511483436164,-4.394154744511309,59.910575175686226));
#321=CARTESIAN_POINT('',(-4.190345403816740,-4.296684306970742,59.705086559216731));
#322=CARTESIAN_POINT('',(-4.258317129654540,-4.227041380073198,59.458715204443038));
#323=CARTESIAN_POINT('',(-4.282005581080624,-4.202907113367414,59.213549049818539));
#324=CARTESIAN_POINT('',(-4.288951182907451,-4.195830795717698,59.141664802899754));
#325=CARTESIAN_POINT('',(-4.292267892099056,-4.192426068812132,59.070066611014717));
#326=CARTESIAN_POINT('',(-4.292267892099056,-4.192426068812132,59.000000000000014));
#327=B_SPLINE_CURVE_WITH_KNOTS('',3,(#311,#312,#313,#314,#315,#316,#317,#318,#319,#320,#321,#322,#323,#324,#325,#326),.UNSPECIFIED.,.F.,.U.,(4,3,3,3,3,4),(0.736693642982944,0.802256540196592,0.852255033844945,0.889548112528672,0.961238207339514,0.982258190643926),.UNSPECIFIED.);
#328=EDGE_CURVE('',#135,#291,#327,.T.);
#329=ORIENTED_EDGE('',*,*,#328,.F.);
#330=EDGE_LOOP('',(#289,#310,#329));
#331=FACE_OUTER_BOUND('',#330,.T.);
#332=ADVANCED_FACE('',(#331),#288,.F.);
#333=CARTESIAN_POINT('',(0.0,0.0,62.850000000000009));
#334=DIRECTION('',(0.0,0.0,1.000000000000000));
#335=DIRECTION('',(-0.866025403784439,0.500000000000000,0.0));
#336=AXIS2_PLACEMENT_3D('',#333,#334,#335);
#337=CONICAL_SURFACE('',#336,6.150000000000001,44.999999999999588);
#338=CARTESIAN_POINT('',(5.196152422706634,-3.000000000000000,62.700000000000003));
#339=VERTEX_POINT('',#338);
#340=CARTESIAN_POINT('',(0.0,0.0,62.700000000000003));
#341=DIRECTION('',(0.0,0.0,-1.0));
#342=DIRECTION('',(-0.866025403784439,0.500000000000000,0.0));
#343=AXIS2_PLACEMENT_3D('',#340,#341,#342);
#344=CIRCLE('',#343,6.000000000000002);
#345=EDGE_CURVE('',#339,#339,#344,.T.);
#346=ORIENTED_EDGE('',*,*,#345,.T.);
#347=EDGE_LOOP('',(#346));
#348=FACE_OUTER_BOUND('',#347,.T.);
#349=CARTESIAN_POINT('',(5.455960043841966,-3.150000000000000,63.000000000000007));
#350=VERTEX_POINT('',#349);
#351=CARTESIAN_POINT('',(0.0,0.0,63.000000000000007));
#352=DIRECTION('',(0.0,0.0,1.000000000000000));
#353=DIRECTION('',(-0.866025403784439,0.500000000000000,0.0));
#354=AXIS2_PLACEMENT_3D('',#351,#352,#353);
#355=CIRCLE('',#354,6.300000000000002);
#356=EDGE_CURVE('',#350,#350,#355,.T.);
#357=ORIENTED_EDGE('',*,*,#356,.T.);
#358=EDGE_LOOP('',(#357));
#359=FACE_BOUND('',#358,.T.);
#360=ADVANCED_FACE('',(#348,#359),#337,.F.);
#361=CARTESIAN_POINT('',(-5.196152422706634,3.000000000000000,62.700000000000010));
#362=CARTESIAN_POINT('',(-5.196152422706634,3.000000000000000,55.300000000000018));
#363=CARTESIAN_POINT('',(-8.196152422706632,-2.196152422706635,62.700000000000010));
#364=CARTESIAN_POINT('',(-8.196152422706632,-2.196152422706635,55.300000000000026));
#365=CARTESIAN_POINT('',(-3.0,-5.196152422706635,62.700000000000024));
#366=CARTESIAN_POINT('',(-3.0,-5.196152422706635,55.300000000000033));
#367=CARTESIAN_POINT('',(2.196152422706634,-8.196152422706632,62.700000000000038));
#368=CARTESIAN_POINT('',(2.196152422706634,-8.196152422706632,55.300000000000040));
#369=CARTESIAN_POINT('',(5.196152422706634,-3.000000000000000,62.700000000000038));
#370=CARTESIAN_POINT('',(5.196152422706634,-3.000000000000000,55.300000000000047));
#371=CARTESIAN_POINT('',(8.196152422706632,2.196152422706635,62.700000000000038));
#372=CARTESIAN_POINT('',(8.196152422706632,2.196152422706635,55.300000000000040));
#373=CARTESIAN_POINT('',(3.0,5.196152422706635,62.700000000000024));
#374=CARTESIAN_POINT('',(3.0,5.196152422706635,55.300000000000033));
#375=CARTESIAN_POINT('',(-2.196152422706634,8.196152422706632,62.700000000000010));
#376=CARTESIAN_POINT('',(-2.196152422706634,8.196152422706632,55.300000000000026));
#377=CARTESIAN_POINT('',(-5.196152422706634,3.000000000000000,62.700000000000010));
#378=CARTESIAN_POINT('',(-5.196152422706634,3.000000000000000,55.300000000000018));
#386=(BOUNDED_SURFACE()B_SPLINE_SURFACE(1,2,((#361,#363,#365,#367,#369,#371,#373,#375,#377),(#362,#364,#366,#368,#370,#372,#374,#376,#378)),.UNSPECIFIED.,.F.,.T.,.U.)B_SPLINE_SURFACE_WITH_KNOTS((2,2),(3,2,2,2,3),(-5.304126134736337,-4.070792801403005),(0.0,9.424777960769383,18.849555921538766,28.274333882308145,37.699111843077532),.UNSPECIFIED.)GEOMETRIC_REPRESENTATION_ITEM()RATIONAL_B_SPLINE_SURFACE(((1.0,0.707106781186548,1.0,0.707106781186548,1.0,0.707106781186548,1.0,0.707106781186548,1.0),(1.0,0.707106781186548,1.0,0.707106781186548,1.0,0.707106781186548,1.0,0.707106781186548,1.0)))REPRESENTATION_ITEM('')SURFACE());
#387=CARTESIAN_POINT('',(-5.196152422706634,2.999999999999999,55.300000000000011));
#388=VERTEX_POINT('',#387);
#389=CARTESIAN_POINT('',(0.0,0.0,55.300000000000011));
#390=DIRECTION('',(0.0,0.0,1.0));
#391=DIRECTION('',(0.866025403784439,-0.500000000000000,0.0));
#392=AXIS2_PLACEMENT_3D('',#389,#390,#391);
#393=CIRCLE('',#392,6.000000000000002);
#394=EDGE_CURVE('',#388,#388,#393,.T.);
#395=ORIENTED_EDGE('',*,*,#394,.F.);
#396=EDGE_LOOP('',(#395));
#397=FACE_OUTER_BOUND('',#396,.T.);
#398=ORIENTED_EDGE('',*,*,#309,.T.);
#399=ORIENTED_EDGE('',*,*,#279,.T.);
#400=ORIENTED_EDGE('',*,*,#328,.T.);
#401=EDGE_LOOP('',(#398,#399,#400));
#402=FACE_BOUND('',#401,.T.);
#403=ORIENTED_EDGE('',*,*,#345,.F.);
#404=EDGE_LOOP('',(#403));
#405=FACE_BOUND('',#404,.T.);
#406=ADVANCED_FACE('',(#397,#402,#405),#386,.F.);
#407=CARTESIAN_POINT('',(0.0,0.0,63.000000000000007));
#408=DIRECTION('',(0.0,0.0,-1.0));
#409=DIRECTION('',(-0.866025403784439,0.500000000000000,0.0));
#410=AXIS2_PLACEMENT_3D('',#407,#408,#409);
#411=PLANE('',#410);
#412=CARTESIAN_POINT('',(9.093266739736608,-5.250000000000000,63.000000000000007));
#413=VERTEX_POINT('',#412);
#414=CARTESIAN_POINT('',(0.0,0.0,63.000000000000007));
#415=DIRECTION('',(0.0,0.0,-1.0));
#416=DIRECTION('',(-0.866025403784439,0.500000000000000,0.0));
#417=AXIS2_PLACEMENT_3D('',#414,#415,#416);
#418=CIRCLE('',#417,10.500000000000002);
#419=EDGE_CURVE('',#413,#413,#418,.T.);
#420=ORIENTED_EDGE('',*,*,#419,.F.);
#421=EDGE_LOOP('',(#420));
#422=FACE_OUTER_BOUND('',#421,.T.);
#423=ORIENTED_EDGE('',*,*,#356,.F.);
#424=EDGE_LOOP('',(#423));
#425=FACE_BOUND('',#424,.T.);
#426=ADVANCED_FACE('',(#422,#425),#411,.F.);
#427=CARTESIAN_POINT('',(0.0,0.0,55.150000000000006));
#428=DIRECTION('',(0.0,0.0,-1.000000000000000));
#429=DIRECTION('',(0.866025403784439,-0.500000000000000,0.0));
#430=AXIS2_PLACEMENT_3D('',#427,#428,#429);
#431=CONICAL_SURFACE('',#430,6.150000000000001,45.000000000000213);
#432=ORIENTED_EDGE('',*,*,#394,.T.);
#433=EDGE_LOOP('',(#432));
#434=FACE_OUTER_BOUND('',#433,.T.);
#435=CARTESIAN_POINT('',(6.300000000000001,7.715020E-016,55.0));
#436=VERTEX_POINT('',#435);
#437=CARTESIAN_POINT('',(0.0,0.0,55.0));
#438=DIRECTION('',(0.0,0.0,1.0));
#439=DIRECTION('',(-1.0,0.0,0.0));
#440=AXIS2_PLACEMENT_3D('',#437,#438,#439);
#441=CIRCLE('',#440,6.300000000000001);
#442=EDGE_CURVE('',#436,#436,#441,.T.);
#443=ORIENTED_EDGE('',*,*,#442,.F.);
#444=EDGE_LOOP('',(#443));
#445=FACE_BOUND('',#444,.T.);
#446=ADVANCED_FACE('',(#434,#445),#431,.F.);
#447=CARTESIAN_POINT('',(0.0,0.0,62.750000000000014));
#448=DIRECTION('',(0.0,0.0,-1.000000000000000));
#449=DIRECTION('',(-0.866025403784439,0.500000000000000,0.0));
#450=AXIS2_PLACEMENT_3D('',#447,#448,#449);
#451=CONICAL_SURFACE('',#450,10.750000000000004,45.0);
#452=ORIENTED_EDGE('',*,*,#419,.T.);
#453=EDGE_LOOP('',(#452));
#454=FACE_OUTER_BOUND('',#453,.T.);
#455=CARTESIAN_POINT('',(9.526279441628828,-5.499999999999998,62.500000000000007));
#456=VERTEX_POINT('',#455);
#457=CARTESIAN_POINT('',(0.0,0.0,62.500000000000007));
#458=DIRECTION('',(0.0,0.0,1.000000000000000));
#459=DIRECTION('',(-0.866025403784439,0.500000000000000,0.0));
#460=AXIS2_PLACEMENT_3D('',#457,#458,#459);
#461=CIRCLE('',#460,11.000000000000002);
#462=EDGE_CURVE('',#456,#456,#461,.T.);
#463=ORIENTED_EDGE('',*,*,#462,.T.);
#464=EDGE_LOOP('',(#463));
#465=FACE_BOUND('',#464,.T.);
#466=ADVANCED_FACE('',(#454,#465),#451,.T.);
#467=CARTESIAN_POINT('',(0.0,0.0,55.000000000000007));
#468=DIRECTION('',(0.0,0.0,1.000000000000000));
#469=DIRECTION('',(-0.866025403784439,0.500000000000000,0.0));
#470=AXIS2_PLACEMENT_3D('',#467,#468,#469);
#471=CYLINDRICAL_SURFACE('',#470,11.000000000000002);
#472=CARTESIAN_POINT('',(9.526279441628827,-5.500000000000000,55.500000000000007));
#473=VERTEX_POINT('',#472);
#474=CARTESIAN_POINT('',(0.0,0.0,55.500000000000007));
#475=DIRECTION('',(0.0,0.0,-1.000000000000000));
#476=DIRECTION('',(-0.866025403784439,0.500000000000000,0.0));
#477=AXIS2_PLACEMENT_3D('',#474,#475,#476);
#478=CIRCLE('',#477,11.000000000000002);
#479=EDGE_CURVE('',#473,#473,#478,.T.);
#480=ORIENTED_EDGE('',*,*,#479,.F.);
#481=EDGE_LOOP('',(#480));
#482=FACE_OUTER_BOUND('',#481,.T.);
#483=ORIENTED_EDGE('',*,*,#124,.T.);
#484=EDGE_LOOP('',(#483));
#485=FACE_BOUND('',#484,.T.);
#486=ORIENTED_EDGE('',*,*,#462,.F.);
#487=EDGE_LOOP('',(#486));
#488=FACE_BOUND('',#487,.T.);
#489=ADVANCED_FACE('',(#482,#485,#488),#471,.T.);
#490=CARTESIAN_POINT('',(0.0,0.0,55.250000000000014));
#491=DIRECTION('',(0.0,0.0,1.000000000000000));
#492=DIRECTION('',(-0.866025403784439,0.500000000000000,0.0));
#493=AXIS2_PLACEMENT_3D('',#490,#491,#492);
#494=CONICAL_SURFACE('',#493,10.750000000000004,45.000000000000028);
#495=ORIENTED_EDGE('',*,*,#479,.T.);
#496=EDGE_LOOP('',(#495));
#497=FACE_OUTER_BOUND('',#496,.T.);
#498=CARTESIAN_POINT('',(9.093266739736610,-5.249999999999998,55.000000000000007));
#499=VERTEX_POINT('',#498);
#500=CARTESIAN_POINT('',(0.0,0.0,55.0));
#501=DIRECTION('',(0.0,0.0,-1.0));
#502=DIRECTION('',(-1.0,0.0,0.0));
#503=AXIS2_PLACEMENT_3D('',#500,#501,#502);
#504=CIRCLE('',#503,10.500000000000000);
#505=EDGE_CURVE('',#499,#499,#504,.T.);
#506=ORIENTED_EDGE('',*,*,#505,.F.);
#507=EDGE_LOOP('',(#506));
#508=FACE_BOUND('',#507,.T.);
#509=ADVANCED_FACE('',(#497,#508),#494,.T.);
#510=CARTESIAN_POINT('',(6.927068E-016,-9.999999999999975,45.0));
#511=DIRECTION('',(1.278217E-018,1.0,0.0));
#512=DIRECTION('',(1.0,0.0,0.0));
#513=AXIS2_PLACEMENT_3D('',#510,#511,#512);
#514=CYLINDRICAL_SURFACE('',#513,2.500000000000001);
#515=CARTESIAN_POINT('',(2.500000000000002,-13.999999999999977,45.0));
#516=VERTEX_POINT('',#515);
#517=CARTESIAN_POINT('',(6.875939E-016,-13.999999999999977,45.0));
#518=DIRECTION('',(0.0,1.0,0.0));
#519=DIRECTION('',(1.0,0.0,0.0));
#520=AXIS2_PLACEMENT_3D('',#517,#518,#519);
#521=CIRCLE('',#520,2.500000000000001);
#522=EDGE_CURVE('',#516,#516,#521,.T.);
#523=ORIENTED_EDGE('',*,*,#522,.T.);
#524=EDGE_LOOP('',(#523));
#525=FACE_OUTER_BOUND('',#524,.T.);
#526=CARTESIAN_POINT('',(-2.500000000000000,-10.712142642814275,45.0));
#527=VERTEX_POINT('',#526);
#528=CARTESIAN_POINT('',(-2.500000000000000,-10.712142642814275,45.0));
#529=CARTESIAN_POINT('',(-2.500000000000000,-10.712142642814275,45.334126379659118));
#530=CARTESIAN_POINT('',(-2.428500377662322,-10.729577149036274,45.690771976435897));
#531=CARTESIAN_POINT('',(-2.285271479005831,-10.759996945503399,46.013673649278950));
#532=CARTESIAN_POINT('',(-2.195242370987861,-10.779117857328545,46.216639320705994));
#533=CARTESIAN_POINT('',(-2.077748891808205,-10.802866052552467,46.406870053031447));
#534=CARTESIAN_POINT('',(-1.942233368565832,-10.827175510816724,46.574080538609579));
#535=CARTESIAN_POINT('',(-1.816056068460872,-10.849809831501243,46.729768736645411));
#536=CARTESIAN_POINT('',(-1.677638911696355,-10.872521639913254,46.864461496871890));
#537=CARTESIAN_POINT('',(-1.517324732619436,-10.894848583426084,46.986888435665520));
#538=CARTESIAN_POINT('',(-1.281972356460589,-10.927626090932689,47.166619705331378));
#539=CARTESIAN_POINT('',(-1.005239030028072,-10.957836179078123,47.308966093611659));
#540=CARTESIAN_POINT('',(-0.714857198412482,-10.976747204243971,47.395616660878332));
#541=CARTESIAN_POINT('',(-0.508787531604371,-10.990167426277988,47.457108295620188));
#542=CARTESIAN_POINT('',(-0.296084962939685,-10.997943134986800,47.490944711837280));
#543=CARTESIAN_POINT('',(-0.090131915623157,-10.999630731883054,47.498374719249718));
#544=CARTESIAN_POINT('',(0.056114155391278,-11.000829084705451,47.503650724658890));
#545=CARTESIAN_POINT('',(0.201618139037223,-10.999156973381050,47.496372113544865));
#546=CARTESIAN_POINT('',(0.350216905199823,-10.994423500998687,47.475348080434806));
#547=CARTESIAN_POINT('',(0.693005360635709,-10.983504300734110,47.426849724607656));
#548=CARTESIAN_POINT('',(1.036828853160704,-10.955075876331474,47.301535464258627));
#549=CARTESIAN_POINT('',(1.332463746055272,-10.918999055107951,47.115310938242494));
#550=CARTESIAN_POINT('',(1.481682720681232,-10.900789613664726,47.021315833164550));
#551=CARTESIAN_POINT('',(1.618774098766851,-10.880925896530670,46.912559185095297));
#552=CARTESIAN_POINT('',(1.739618388839275,-10.861571150676694,46.795474271943839));
#553=CARTESIAN_POINT('',(1.855997641723973,-10.842931537163231,46.682715491959534));
#554=CARTESIAN_POINT('',(1.963266043125760,-10.823820437982540,46.556949753587297));
#555=CARTESIAN_POINT('',(2.059023472299820,-10.805573670125913,46.417893628068903));
#556=CARTESIAN_POINT('',(2.255231676249541,-10.768185808109184,46.132965838428937));
#557=CARTESIAN_POINT('',(2.395006150115316,-10.736300640577214,45.796555371283922));
#558=CARTESIAN_POINT('',(2.458218946416558,-10.721807665290338,45.455147900663817));
#559=CARTESIAN_POINT('',(2.490167592532084,-10.714482709495078,45.282595710312066));
#560=CARTESIAN_POINT('',(2.503239255250606,-10.711386899287115,45.111543192420093));
#561=CARTESIAN_POINT('',(2.499334725051374,-10.712297882907867,44.942329104806838));
#562=CARTESIAN_POINT('',(2.492066753379354,-10.713993606288520,44.627350571532318));
#563=CARTESIAN_POINT('',(2.421365912564274,-10.731054283255251,44.295521972355353));
#564=CARTESIAN_POINT('',(2.288186656264491,-10.759377390262557,43.992924120985350));
#565=CARTESIAN_POINT('',(2.179280628743145,-10.782538332566398,43.745477702940924));
#566=CARTESIAN_POINT('',(2.029155026651329,-10.812648221116707,43.517005379814357));
#567=CARTESIAN_POINT('',(1.856083210833522,-10.842276288421260,43.325199977769906));
#568=CARTESIAN_POINT('',(1.751993889434502,-10.860095281106597,43.209843852076453));
#569=CARTESIAN_POINT('',(1.639587751742839,-10.877868299354786,43.106078317624380));
#570=CARTESIAN_POINT('',(1.513259283123891,-10.895414005077519,43.010013481945329));
#571=CARTESIAN_POINT('',(1.240102648899991,-10.933352610466315,42.802295083485888));
#572=CARTESIAN_POINT('',(0.911208636407176,-10.967485319227070,42.645899044722832));
#573=CARTESIAN_POINT('',(0.571028225483199,-10.985168490546766,42.566088176268188));
#574=CARTESIAN_POINT('',(0.397301436144144,-10.994199112181795,42.525329550886653));
#575=CARTESIAN_POINT('',(0.221100572040498,-10.999105672482010,42.503935745186446));
#576=CARTESIAN_POINT('',(0.050189925050467,-10.999885498105124,42.500503856489587));
#577=CARTESIAN_POINT('',(-0.123358779861954,-11.000677360574389,42.497018995544799));
#578=CARTESIAN_POINT('',(-0.299455475350792,-10.997351384662498,42.511454130363212));
#579=CARTESIAN_POINT('',(-0.476520753064010,-10.989673697244122,42.545834567128914));
#580=CARTESIAN_POINT('',(-0.795771893903530,-10.975830720806382,42.607822969382390));
#581=CARTESIAN_POINT('',(-1.109770545823910,-10.947273459347509,42.736433297403799));
#582=CARTESIAN_POINT('',(-1.380354163263911,-10.913048262697274,42.915624221988750));
#583=CARTESIAN_POINT('',(-1.518453330379066,-10.895580571207054,43.007078825463637));
#584=CARTESIAN_POINT('',(-1.645293683859354,-10.876854247476020,43.111095209995547));
#585=CARTESIAN_POINT('',(-1.757628048524685,-10.858671357170698,43.222151962894664));
#586=CARTESIAN_POINT('',(-1.870980259004013,-10.840323714264168,43.334214985347991));
#587=CARTESIAN_POINT('',(-1.976626819465905,-10.821368632906331,43.460262906363958));
#588=CARTESIAN_POINT('',(-2.070175379866835,-10.803442687245266,43.598438764593851));
#589=CARTESIAN_POINT('',(-2.263989014709209,-10.766303765260066,43.884711105036338));
#590=CARTESIAN_POINT('',(-2.400802573377589,-10.734990107102769,44.221549329091687));
#591=CARTESIAN_POINT('',(-2.461399973561272,-10.721077845541117,44.562381250227361));
#592=CARTESIAN_POINT('',(-2.487548594782301,-10.715074511127415,44.709454965911490));
#593=CARTESIAN_POINT('',(-2.500000000000000,-10.712142642814275,44.856850020889162));
#594=CARTESIAN_POINT('',(-2.500000000000000,-10.712142642814275,45.0));
#595=B_SPLINE_CURVE_WITH_KNOTS('',3,(#528,#529,#530,#531,#532,#533,#534,#535,#536,#537,#538,#539,#540,#541,#542,#543,#544,#545,#546,#547,#548,#549,#550,#551,#552,#553,#554,#555,#556,#557,#558,#559,#560,#561,#562,#563,#564,#565,#566,#567,#568,#569,#570,#571,#572,#573,#574,#575,#576,#577,#578,#579,#580,#581,#582,#583,#584,#585,#586,#587,#588,#589,#590,#591,#592,#593,#594),.UNSPECIFIED.,.T.,.U.,(4,3,3,3,3,3,3,3,3,3,3,3,3,3,3,3,3,3,3,3,3,3,4),(0.0,0.100237913897733,0.163244262912804,0.221908914887572,0.308032708293076,0.369150517601535,0.412549921479422,0.512663906314670,0.563195513110361,0.611860043659727,0.711574292648087,0.761971291990165,0.855781288297829,0.932493490509431,0.978629951454845,1.078389574322317,1.129335832336903,1.181068461370138,1.274343105901165,1.321948170999214,1.369984578869170,1.469506268718225,1.512451262451478),.UNSPECIFIED.);
#596=EDGE_CURVE('',#527,#527,#595,.T.);
#597=ORIENTED_EDGE('',*,*,#596,.F.);
#598=EDGE_LOOP('',(#597));
#599=FACE_BOUND('',#598,.T.);
#600=ADVANCED_FACE('',(#525,#599),#514,.T.);
#601=CARTESIAN_POINT('',(6.834397E-016,-17.249999999999975,45.0));
#602=DIRECTION('',(-1.278217E-018,-1.0,0.0));
#603=DIRECTION('',(-1.0,0.0,0.0));
#604=AXIS2_PLACEMENT_3D('',#601,#602,#603);
#605=CONICAL_SURFACE('',#604,7.749999999999999,45.000000000000163);
#606=CARTESIAN_POINT('',(8.000000000000002,-17.499999999999972,45.0));
#607=VERTEX_POINT('',#606);
#608=CARTESIAN_POINT('',(6.831201E-016,-17.499999999999975,45.0));
#609=DIRECTION('',(0.0,1.0,0.0));
#610=DIRECTION('',(-1.0,0.0,0.0));
#611=AXIS2_PLACEMENT_3D('',#608,#609,#610);
#612=CIRCLE('',#611,8.0);
#613=EDGE_CURVE('',#607,#607,#612,.T.);
#614=ORIENTED_EDGE('',*,*,#613,.T.);
#615=EDGE_LOOP('',(#614));
#616=FACE_OUTER_BOUND('',#615,.T.);
#617=CARTESIAN_POINT('',(7.500000000000000,-16.999999999999975,45.0));
#618=VERTEX_POINT('',#617);
#619=CARTESIAN_POINT('',(6.837592E-016,-16.999999999999975,45.0));
#620=DIRECTION('',(0.0,-1.0,0.0));
#621=DIRECTION('',(-1.0,0.0,0.0));
#622=AXIS2_PLACEMENT_3D('',#619,#620,#621);
#623=CIRCLE('',#622,7.499999999999999);
#624=EDGE_CURVE('',#618,#618,#623,.T.);
#625=ORIENTED_EDGE('',*,*,#624,.T.);
#626=EDGE_LOOP('',(#625));
#627=FACE_BOUND('',#626,.T.);
#628=ADVANCED_FACE('',(#616,#627),#605,.T.);
#629=CARTESIAN_POINT('',(6.786464E-016,-20.999999999999975,45.0));
#630=DIRECTION('',(1.278217E-018,1.0,0.0));
#631=DIRECTION('',(1.0,0.0,0.0));
#632=AXIS2_PLACEMENT_3D('',#629,#630,#631);
#633=CYLINDRICAL_SURFACE('',#632,8.0);
#634=CARTESIAN_POINT('',(8.000000000000002,-24.499999999999975,45.0));
#635=VERTEX_POINT('',#634);
#636=CARTESIAN_POINT('',(6.741726E-016,-24.499999999999975,45.0));
#637=DIRECTION('',(0.0,-1.0,0.0));
#638=DIRECTION('',(-1.0,0.0,0.0));
#639=AXIS2_PLACEMENT_3D('',#636,#637,#638);
#640=CIRCLE('',#639,8.0);
#641=EDGE_CURVE('',#635,#635,#640,.T.);
#642=ORIENTED_EDGE('',*,*,#641,.F.);
#643=EDGE_LOOP('',(#642));
#644=FACE_OUTER_BOUND('',#643,.T.);
#645=ORIENTED_EDGE('',*,*,#613,.F.);
#646=EDGE_LOOP('',(#645));
#647=FACE_BOUND('',#646,.T.);
#648=ADVANCED_FACE('',(#644,#647),#633,.T.);
#649=CARTESIAN_POINT('',(7.000000000000001,-16.999999999999975,45.0));
#650=DIRECTION('',(0.0,1.0,0.0));
#651=DIRECTION('',(0.0,0.0,1.0));
#652=AXIS2_PLACEMENT_3D('',#649,#650,#651);
#653=PLANE('',#652);
#654=ORIENTED_EDGE('',*,*,#624,.F.);
#655=EDGE_LOOP('',(#654));
#656=FACE_OUTER_BOUND('',#655,.T.);
#657=CARTESIAN_POINT('',(6.000000000000002,-16.999999999999975,45.0));
#658=VERTEX_POINT('',#657);
#659=CARTESIAN_POINT('',(6.837592E-016,-16.999999999999975,45.0));
#660=DIRECTION('',(0.0,1.0,0.0));
#661=DIRECTION('',(1.0,0.0,0.0));
#662=AXIS2_PLACEMENT_3D('',#659,#660,#661);
#663=CIRCLE('',#662,6.000000000000001);
#664=EDGE_CURVE('',#658,#658,#663,.T.);
#665=ORIENTED_EDGE('',*,*,#664,.F.);
#666=EDGE_LOOP('',(#665));
#667=FACE_BOUND('',#666,.T.);
#668=ADVANCED_FACE('',(#656,#667),#653,.T.);
#669=CARTESIAN_POINT('',(6.738530E-016,-24.749999999999979,45.0));
#670=DIRECTION('',(1.278217E-018,1.0,0.0));
#671=DIRECTION('',(-1.0,0.0,0.0));
#672=AXIS2_PLACEMENT_3D('',#669,#670,#671);
#673=CONICAL_SURFACE('',#672,7.750000000000002,44.999999999999893);
#674=CARTESIAN_POINT('',(7.500000000000002,-24.999999999999979,45.0));
#675=VERTEX_POINT('',#674);
#676=CARTESIAN_POINT('',(6.735335E-016,-24.999999999999979,45.0));
#677=DIRECTION('',(0.0,1.0,0.0));
#678=DIRECTION('',(-1.0,0.0,0.0));
#679=AXIS2_PLACEMENT_3D('',#676,#677,#678);
#680=CIRCLE('',#679,7.500000000000001);
#681=EDGE_CURVE('',#675,#675,#680,.T.);
#682=ORIENTED_EDGE('',*,*,#681,.T.);
#683=EDGE_LOOP('',(#682));
#684=FACE_OUTER_BOUND('',#683,.T.);
#685=ORIENTED_EDGE('',*,*,#641,.T.);
#686=EDGE_LOOP('',(#685));
#687=FACE_BOUND('',#686,.T.);
#688=ADVANCED_FACE('',(#684,#687),#673,.T.);
#689=CARTESIAN_POINT('',(4.000000000000002,-24.999999999999979,45.0));
#690=DIRECTION('',(0.0,-1.0,0.0));
#691=DIRECTION('',(0.0,0.0,-1.0));
#692=AXIS2_PLACEMENT_3D('',#689,#690,#691);
#693=PLANE('',#692);
#694=ORIENTED_EDGE('',*,*,#681,.F.);
#695=EDGE_LOOP('',(#694));
#696=FACE_OUTER_BOUND('',#695,.T.);
#697=ADVANCED_FACE('',(#696),#693,.T.);
#698=CARTESIAN_POINT('',(1.250000000000000,-5.999999999999974,45.0));
#699=DIRECTION('',(0.0,1.0,0.0));
#700=DIRECTION('',(0.0,0.0,1.0));
#701=AXIS2_PLACEMENT_3D('',#698,#699,#700);
#702=PLANE('',#701);
#703=CARTESIAN_POINT('',(5.551115E-016,-5.999999999999988,42.933000000000007));
#704=VERTEX_POINT('',#703);
#705=CARTESIAN_POINT('',(5.551115E-016,-5.999999999999988,47.066999999999993));
#706=VERTEX_POINT('',#705);
#707=CARTESIAN_POINT('',(6.735335E-016,-5.999999999999979,45.0));
#708=DIRECTION('',(0.0,-1.0,0.0));
#709=DIRECTION('',(-1.0,0.0,0.0));
#710=AXIS2_PLACEMENT_3D('',#707,#708,#709);
#711=CIRCLE('',#710,2.067000000000000);
#712=EDGE_CURVE('',#704,#706,#711,.T.);
#713=ORIENTED_EDGE('',*,*,#712,.F.);
#714=CARTESIAN_POINT('',(6.735335E-016,-5.999999999999979,45.0));
#715=DIRECTION('',(0.0,-1.0,0.0));
#716=DIRECTION('',(-1.0,0.0,0.0));
#717=AXIS2_PLACEMENT_3D('',#714,#715,#716);
#718=CIRCLE('',#717,2.067000000000000);
#719=EDGE_CURVE('',#706,#704,#718,.T.);
#720=ORIENTED_EDGE('',*,*,#719,.F.);
#721=EDGE_LOOP('',(#713,#720));
#722=FACE_OUTER_BOUND('',#721,.T.);
#723=ADVANCED_FACE('',(#722),#702,.T.);
#724=CARTESIAN_POINT('',(6.856766E-016,-15.499999999999975,45.0));
#725=DIRECTION('',(1.278217E-018,1.0,0.0));
#726=DIRECTION('',(1.0,0.0,0.0));
#727=AXIS2_PLACEMENT_3D('',#724,#725,#726);
#728=CYLINDRICAL_SURFACE('',#727,6.000000000000001);
#729=CARTESIAN_POINT('',(6.000000000000002,-13.999999999999975,45.0));
#730=VERTEX_POINT('',#729);
#731=CARTESIAN_POINT('',(6.875939E-016,-13.999999999999975,45.0));
#732=DIRECTION('',(0.0,1.0,0.0));
#733=DIRECTION('',(1.0,0.0,0.0));
#734=AXIS2_PLACEMENT_3D('',#731,#732,#733);
#735=CIRCLE('',#734,6.000000000000001);
#736=EDGE_CURVE('',#730,#730,#735,.T.);
#737=ORIENTED_EDGE('',*,*,#736,.F.);
#738=EDGE_LOOP('',(#737));
#739=FACE_OUTER_BOUND('',#738,.T.);
#740=ORIENTED_EDGE('',*,*,#664,.T.);
#741=EDGE_LOOP('',(#740));
#742=FACE_BOUND('',#741,.T.);
#743=ADVANCED_FACE('',(#739,#742),#728,.T.);
#744=CARTESIAN_POINT('',(4.250000000000002,-13.999999999999977,45.0));
#745=DIRECTION('',(0.0,1.0,0.0));
#746=DIRECTION('',(0.0,0.0,1.0));
#747=AXIS2_PLACEMENT_3D('',#744,#745,#746);
#748=PLANE('',#747);
#749=ORIENTED_EDGE('',*,*,#736,.T.);
#750=EDGE_LOOP('',(#749));
#751=FACE_OUTER_BOUND('',#750,.T.);
#752=ORIENTED_EDGE('',*,*,#522,.F.);
#753=EDGE_LOOP('',(#752));
#754=FACE_BOUND('',#753,.T.);
#755=ADVANCED_FACE('',(#751,#754),#748,.T.);
#756=CARTESIAN_POINT('',(6.735335E-016,52.190189111918315,45.0));
#757=DIRECTION('',(0.0,1.0,0.0));
#758=DIRECTION('',(-1.0,0.0,0.0));
#759=AXIS2_PLACEMENT_3D('',#756,#757,#758);
#760=CYLINDRICAL_SURFACE('',#759,2.067000000000000);
#761=ORIENTED_EDGE('',*,*,#719,.T.);
#762=CARTESIAN_POINT('',(5.551115E-016,-6.000000000000001,47.067000000000000));
#763=CARTESIAN_POINT('',(-0.262172247475098,-6.000000000000001,47.067000000000000));
#764=CARTESIAN_POINT('',(-0.540407728445153,-5.981133340262803,47.014086434217496));
#765=CARTESIAN_POINT('',(-0.795040360761562,-5.947092636302224,46.907983182515011));
#766=CARTESIAN_POINT('',(-1.041630139604946,-5.914127145646329,46.805231319433425));
#767=CARTESIAN_POINT('',(-1.266349768012686,-5.867751892030910,46.652824423105280));
#768=CARTESIAN_POINT('',(-1.445712782001613,-5.823222007785480,46.477296027191962));
#769=CARTESIAN_POINT('',(-1.547012149365250,-5.798072736469620,46.378162348152252));
#770=CARTESIAN_POINT('',(-1.640497112353366,-5.772010941797444,46.266217768114394));
#771=CARTESIAN_POINT('',(-1.722570306584338,-5.747412595148703,46.142471242033665));
#772=CARTESIAN_POINT('',(-1.885812969341566,-5.698486759569974,45.896340789653252));
#773=CARTESIAN_POINT('',(-1.998221622331415,-5.657683838332456,45.605837435916122));
#774=CARTESIAN_POINT('',(-2.043078711292462,-5.641438591304841,45.313557617454165));
#775=CARTESIAN_POINT('',(-2.075447532051028,-5.629716040836349,45.102648856447473));
#776=CARTESIAN_POINT('',(-2.075429904584862,-5.629722792236682,44.896982711217035));
#777=CARTESIAN_POINT('',(-2.043022103835787,-5.641459091692362,44.686073761468727));
#778=CARTESIAN_POINT('',(-2.001062338083300,-5.656654580574013,44.413000923386846));
#779=CARTESIAN_POINT('',(-1.900509049756492,-5.693114995002563,44.141342229205179));
#780=CARTESIAN_POINT('',(-1.753929813152600,-5.737920373317714,43.906281932793242));
#781=CARTESIAN_POINT('',(-1.670779774823217,-5.763337130906207,43.772939222671297));
#782=CARTESIAN_POINT('',(-1.573413024195882,-5.791034474538814,43.651265074654972));
#783=CARTESIAN_POINT('',(-1.468496656172735,-5.817518162482135,43.545350017767333));
#784=CARTESIAN_POINT('',(-1.369502362352943,-5.842506961037517,43.445413406740521));
#785=CARTESIAN_POINT('',(-1.257040612683218,-5.868195192034375,43.352512591313385));
#786=CARTESIAN_POINT('',(-1.133348176415051,-5.891987942198854,43.271413609038682));
#787=CARTESIAN_POINT('',(-0.886033302563728,-5.939559977992110,43.109261539147724));
#788=CARTESIAN_POINT('',(-0.594589386198655,-5.977637808019933,42.998427458849974));
#789=CARTESIAN_POINT('',(-0.302231939150592,-5.992383153216863,42.955215205710566));
#790=CARTESIAN_POINT('',(-0.200599235515366,-5.997509101994739,42.940193258566509));
#791=CARTESIAN_POINT('',(-0.099132603460030,-6.000000000000001,42.933000000000000));
#792=CARTESIAN_POINT('',(5.551115E-016,-6.000000000000001,42.933000000000000));
#793=B_SPLINE_CURVE_WITH_KNOTS('',3,(#762,#763,#764,#765,#766,#767,#768,#769,#770,#771,#772,#773,#774,#775,#776,#777,#778,#779,#780,#781,#782,#783,#784,#785,#786,#787,#788,#789,#790,#791,#792),.UNSPECIFIED.,.F.,.U.,(4,3,3,3,3,3,3,3,3,3,4),(0.314249501840374,0.392901176082903,0.469068550157044,0.512085817964199,0.597646681132489,0.659387295781996,0.739325510292952,0.784672080206742,0.827459032808600,0.913008724483113,0.942748505521122),.UNSPECIFIED.);
#794=EDGE_CURVE('',#706,#704,#793,.T.);
#795=ORIENTED_EDGE('',*,*,#794,.F.);
#796=EDGE_LOOP('',(#761,#795));
#797=FACE_OUTER_BOUND('',#796,.T.);
#798=ADVANCED_FACE('',(#797),#760,.F.);
#799=CARTESIAN_POINT('',(6.735335E-016,52.190189111918315,45.0));
#800=DIRECTION('',(0.0,1.0,0.0));
#801=DIRECTION('',(-1.0,0.0,0.0));
#802=AXIS2_PLACEMENT_3D('',#799,#800,#801);
#803=CYLINDRICAL_SURFACE('',#802,2.067000000000000);
#804=ORIENTED_EDGE('',*,*,#712,.T.);
#805=CARTESIAN_POINT('',(2.067000000000001,-5.632717905238998,45.0));
#806=VERTEX_POINT('',#805);
#807=CARTESIAN_POINT('',(2.067000000000001,-5.632717905238998,45.0));
#808=CARTESIAN_POINT('',(2.067000000000001,-5.632717905238998,45.289709190893085));
#809=CARTESIAN_POINT('',(2.001733854636397,-5.657861231578452,45.598398891996034));
#810=CARTESIAN_POINT('',(1.873104502232111,-5.700129781304791,45.874052929585957));
#811=CARTESIAN_POINT('',(1.790764650776205,-5.727187261115343,46.050508086081159));
#812=CARTESIAN_POINT('',(1.683323190011337,-5.760426006171602,46.214003915615585));
#813=CARTESIAN_POINT('',(1.560864211183614,-5.793418931360494,46.355061590572973));
#814=CARTESIAN_POINT('',(1.466319645269924,-5.818891149241674,46.463965296738955));
#815=CARTESIAN_POINT('',(1.363766850472910,-5.844180719699545,46.560175884383973));
#816=CARTESIAN_POINT('',(1.246760434170505,-5.869036413227216,46.648659279471346));
#817=CARTESIAN_POINT('',(1.013003226240744,-5.918693497888025,46.825432759400108));
#818=CARTESIAN_POINT('',(0.729719543688862,-5.962669175371307,46.956901128987887));
#819=CARTESIAN_POINT('',(0.437387970600945,-5.984036410582208,47.020193248967431));
#820=CARTESIAN_POINT('',(0.291128665631293,-5.994726863679895,47.051859556443155));
#821=CARTESIAN_POINT('',(0.143113737247228,-6.000000000000001,47.067000000000000));
#822=CARTESIAN_POINT('',(5.551115E-016,-6.000000000000001,47.067000000000000));
#823=B_SPLINE_CURVE_WITH_KNOTS('',3,(#807,#808,#809,#810,#811,#812,#813,#814,#815,#816,#817,#818,#819,#820,#821,#822),.UNSPECIFIED.,.F.,.U.,(4,3,3,3,3,4),(0.0,0.086912757267927,0.142548453081520,0.185502042604768,0.271315380666206,0.314249501840374),.UNSPECIFIED.);
#824=EDGE_CURVE('',#806,#706,#823,.T.);
#825=ORIENTED_EDGE('',*,*,#824,.F.);
#826=CARTESIAN_POINT('',(5.551115E-016,-6.000000000000001,42.933000000000000));
#827=CARTESIAN_POINT('',(0.262172247475100,-6.000000000000001,42.933000000000000));
#828=CARTESIAN_POINT('',(0.540407728445157,-5.981133340262803,42.985913565782504));
#829=CARTESIAN_POINT('',(0.795040360761565,-5.947092636302224,43.092016817484989));
#830=CARTESIAN_POINT('',(1.005807646329460,-5.918916095427147,43.179841752364005));
#831=CARTESIAN_POINT('',(1.200916900602073,-5.880997290834479,43.303557077602221));
#832=CARTESIAN_POINT('',(1.364821258639170,-5.842710238576495,43.447662429763874));
#833=CARTESIAN_POINT('',(1.471410450120137,-5.817811657518361,43.541376063488691));
#834=CARTESIAN_POINT('',(1.565913456545595,-5.792760762640466,43.643047959241109));
#835=CARTESIAN_POINT('',(1.652763157599932,-5.767874300371005,43.758684993694068));
#836=CARTESIAN_POINT('',(1.828794470511757,-5.717433175371819,43.993063912088374));
#837=CARTESIAN_POINT('',(1.959167022393934,-5.671512074807286,44.276502724601713));
#838=CARTESIAN_POINT('',(2.021512173000550,-5.649202468880948,44.568748873148607));
#839=CARTESIAN_POINT('',(2.052279633929164,-5.638192632157601,44.712972952639404));
#840=CARTESIAN_POINT('',(2.067000000000001,-5.632717905238999,44.858840826727445));
#841=CARTESIAN_POINT('',(2.067000000000001,-5.632717905238999,45.0));
#842=B_SPLINE_CURVE_WITH_KNOTS('',3,(#826,#827,#828,#829,#830,#831,#832,#833,#834,#835,#836,#837,#838,#839,#840,#841),.UNSPECIFIED.,.F.,.U.,(4,3,3,3,3,4),(0.942748505521122,1.021400179763651,1.086502597056614,1.128839567871891,1.214650255379729,1.256998007361496),.UNSPECIFIED.);
#843=EDGE_CURVE('',#704,#806,#842,.T.);
#844=ORIENTED_EDGE('',*,*,#843,.F.);
#845=EDGE_LOOP('',(#804,#825,#844));
#846=FACE_OUTER_BOUND('',#845,.T.);
#847=ADVANCED_FACE('',(#846),#803,.F.);
#848=CARTESIAN_POINT('',(0.0,0.0,54.750000000000000));
#849=DIRECTION('',(0.0,0.0,-1.0));
#850=DIRECTION('',(-1.0,0.0,0.0));
#851=AXIS2_PLACEMENT_3D('',#848,#849,#850);
#852=CONICAL_SURFACE('',#851,10.750000000000002,45.000000000000135);
#853=ORIENTED_EDGE('',*,*,#505,.T.);
#854=EDGE_LOOP('',(#853));
#855=FACE_OUTER_BOUND('',#854,.T.);
#856=CARTESIAN_POINT('',(11.0,1.347067E-015,54.500000000000000));
#857=VERTEX_POINT('',#856);
#858=CARTESIAN_POINT('',(0.0,0.0,54.500000000000000));
#859=DIRECTION('',(0.0,0.0,1.0));
#860=DIRECTION('',(-1.0,0.0,0.0));
#861=AXIS2_PLACEMENT_3D('',#858,#859,#860);
#862=CIRCLE('',#861,11.0);
#863=EDGE_CURVE('',#857,#857,#862,.T.);
#864=ORIENTED_EDGE('',*,*,#863,.T.);
#865=EDGE_LOOP('',(#864));
#866=FACE_BOUND('',#865,.T.);
#867=ADVANCED_FACE('',(#855,#866),#852,.T.);
#868=CARTESIAN_POINT('',(0.0,0.0,0.0));
#869=DIRECTION('',(0.0,0.0,1.0));
#870=DIRECTION('',(-1.0,0.0,0.0));
#871=AXIS2_PLACEMENT_3D('',#868,#869,#870);
#872=CYLINDRICAL_SURFACE('',#871,11.0);
#873=CARTESIAN_POINT('',(-11.0,1.347067E-015,5.300000000000001));
#874=VERTEX_POINT('',#873);
#875=CARTESIAN_POINT('',(0.0,0.0,5.300000000000001));
#876=DIRECTION('',(0.0,0.0,-1.0));
#877=DIRECTION('',(1.0,0.0,0.0));
#878=AXIS2_PLACEMENT_3D('',#875,#876,#877);
#879=CIRCLE('',#878,11.0);
#880=EDGE_CURVE('',#874,#874,#879,.T.);
#881=ORIENTED_EDGE('',*,*,#880,.F.);
#882=EDGE_LOOP('',(#881));
#883=FACE_OUTER_BOUND('',#882,.T.);
#884=ORIENTED_EDGE('',*,*,#596,.T.);
#885=EDGE_LOOP('',(#884));
#886=FACE_BOUND('',#885,.T.);
#887=CARTESIAN_POINT('',(-9.526279441628825,5.500000000000006,47.066999999999993));
#888=VERTEX_POINT('',#887);
#889=CARTESIAN_POINT('',(-9.526279441628825,5.500000000000006,42.933000000000007));
#890=VERTEX_POINT('',#889);
#891=CARTESIAN_POINT('',(-9.526279441628821,5.500000000000004,47.067000000000000));
#892=CARTESIAN_POINT('',(-9.657457950903341,5.272792157075393,47.067000000000000));
#893=CARTESIAN_POINT('',(-9.788265472020278,5.025524276712025,47.013959245838016));
#894=CARTESIAN_POINT('',(-9.900264707905913,4.794242246006416,46.906664864406729));
#895=CARTESIAN_POINT('',(-9.986835195319467,4.615471400206842,46.823731022726534));
#896=CARTESIAN_POINT('',(-10.062712095964216,4.446018170534531,46.708977074710297));
#897=CARTESIAN_POINT('',(-10.124827759863953,4.299751485038208,46.574902576644611));
#898=CARTESIAN_POINT('',(-10.170342268433258,4.192576323533503,46.476661094415810));
#899=CARTESIAN_POINT('',(-10.208714825371894,4.097674765828500,46.369676078051882));
#900=CARTESIAN_POINT('',(-10.242909028420780,4.010338468944495,46.247103850840290));
#901=CARTESIAN_POINT('',(-10.309353680269597,3.840630468090479,46.008926960103430));
#902=CARTESIAN_POINT('',(-10.354373607600218,3.713614284695855,45.719892126319294));
#903=CARTESIAN_POINT('',(-10.375340668489681,3.654080734300229,45.423531593574594));
#904=CARTESIAN_POINT('',(-10.386325141593552,3.622891590216262,45.268270714706290));
#905=CARTESIAN_POINT('',(-10.390918040666165,3.609547171831625,45.113277131559308));
#906=CARTESIAN_POINT('',(-10.389959862951075,3.612303149829161,44.961084602858335));
#907=CARTESIAN_POINT('',(-10.388298209048093,3.617082515414498,44.697155161233916));
#908=CARTESIAN_POINT('',(-10.368962722715628,3.673909014327596,44.418207037582611));
#909=CARTESIAN_POINT('',(-10.329779140849730,3.780960579173737,44.164196135335864));
#910=CARTESIAN_POINT('',(-10.294660872804309,3.876905497170644,43.936538975709929));
#911=CARTESIAN_POINT('',(-10.243344333949286,4.012637521549343,43.728601277323150));
#912=CARTESIAN_POINT('',(-10.180700121294453,4.165734633924137,43.559848547130073));
#913=CARTESIAN_POINT('',(-10.141054016725843,4.262626331802237,43.453048763016938));
#914=CARTESIAN_POINT('',(-10.094870606074187,4.371584662873081,43.355229125946870));
#915=CARTESIAN_POINT('',(-10.041378445991233,4.491182350381985,43.270014396560825));
#916=CARTESIAN_POINT('',(-9.937700900128244,4.722984444606313,43.104852735479597));
#917=CARTESIAN_POINT('',(-9.806902425558789,4.991246881822824,42.993870093695229));
#918=CARTESIAN_POINT('',(-9.665370015497613,5.251725665295139,42.952680723922441));
#919=CARTESIAN_POINT('',(-9.619600792000929,5.335960164317203,42.939360767949083));
#920=CARTESIAN_POINT('',(-9.572910007124772,5.419233491375350,42.933000000000000));
#921=CARTESIAN_POINT('',(-9.526279441628821,5.500000000000004,42.933000000000000));
#922=B_SPLINE_CURVE_WITH_KNOTS('',3,(#891,#892,#893,#894,#895,#896,#897,#898,#899,#900,#901,#902,#903,#904,#905,#906,#907,#908,#909,#910,#911,#912,#913,#914,#915,#916,#917,#918,#919,#920,#921),.UNSPECIFIED.,.F.,.U.,(4,3,3,3,3,3,3,3,3,3,4),(0.312244059655706,0.390951165220417,0.451788298954121,0.496365979861212,0.582987343250346,0.628367572810647,0.707065119601340,0.777597761363680,0.822236274201536,0.908753839669549,0.936732178967119),.UNSPECIFIED.);
#923=EDGE_CURVE('',#888,#890,#922,.T.);
#924=ORIENTED_EDGE('',*,*,#923,.T.);
#925=CARTESIAN_POINT('',(-9.526279441628821,5.500000000000004,42.933000000000000));
#926=CARTESIAN_POINT('',(-9.395100932354325,5.727207842924579,42.933000000000000));
#927=CARTESIAN_POINT('',(-9.246364426978198,5.964124419399578,42.986040754161976));
#928=CARTESIAN_POINT('',(-9.102067930891137,6.176759618233749,43.093335135593229));
#929=CARTESIAN_POINT('',(-8.990533080679233,6.341117282451999,43.176268977273580));
#930=CARTESIAN_POINT('',(-8.881720729351850,6.491555220807221,43.291022925290086));
#931=CARTESIAN_POINT('',(-8.786107895934409,6.618482306465662,43.425097423356114));
#932=CARTESIAN_POINT('',(-8.716048737701559,6.711486607879420,43.523338905584630));
#933=CARTESIAN_POINT('',(-8.653047856339844,6.792168995848669,43.630323921948225));
#934=CARTESIAN_POINT('',(-8.594509506090471,6.865450192792932,43.752896149159369));
#935=CARTESIAN_POINT('',(-8.480760392049870,7.007846949666586,43.991073039896058));
#936=CARTESIAN_POINT('',(-8.393271114203673,7.110343442108777,44.280107873680009));
#937=CARTESIAN_POINT('',(-8.352197077628246,7.158268224679638,44.576468406424574));
#938=CARTESIAN_POINT('',(-8.330678723081070,7.183375629476883,44.731729285293312));
#939=CARTESIAN_POINT('',(-8.321418567297517,7.194025405943142,44.886722868440728));
#940=CARTESIAN_POINT('',(-8.323326225398137,7.191817610701733,45.038915397142134));
#941=CARTESIAN_POINT('',(-8.326634450457561,7.187988893416738,45.302844838766582));
#942=CARTESIAN_POINT('',(-8.366179898958245,7.142830621601699,45.581792962417857));
#943=CARTESIAN_POINT('',(-8.439297482696976,7.055370861871438,45.835803864664598));
#944=CARTESIAN_POINT('',(-8.504829085023701,6.976985090608617,46.063461024290739));
#945=CARTESIAN_POINT('',(-8.596718196815372,6.864677652136346,46.271398722677638));
#946=CARTESIAN_POINT('',(-8.697982079050693,6.733877616389608,46.440151452870758));
#947=CARTESIAN_POINT('',(-8.762069698544540,6.651097233733148,46.546951236983638));
#948=CARTESIAN_POINT('',(-8.833338675879940,6.556622061340076,46.644770874053535));
#949=CARTESIAN_POINT('',(-8.910167231454926,6.450497648050641,46.729985603439410));
#950=CARTESIAN_POINT('',(-9.059074960772149,6.244809212419067,46.895147264520595));
#951=CARTESIAN_POINT('',(-9.225997808998050,5.997403192057385,47.006129906304892));
#952=CARTESIAN_POINT('',(-9.380812847601346,5.744593137749403,47.047319276077616));
#953=CARTESIAN_POINT('',(-9.430877451881091,5.662838577978874,47.060639232050939));
#954=CARTESIAN_POINT('',(-9.479648876132940,5.580766508624539,47.067000000000000));
#955=CARTESIAN_POINT('',(-9.526279441628821,5.500000000000004,47.067000000000000));
#956=B_SPLINE_CURVE_WITH_KNOTS('',3,(#925,#926,#927,#928,#929,#930,#931,#932,#933,#934,#935,#936,#937,#938,#939,#940,#941,#942,#943,#944,#945,#946,#947,#948,#949,#950,#951,#952,#953,#954,#955),.UNSPECIFIED.,.F.,.U.,(4,3,3,3,3,3,3,3,3,3,4),(0.936732178967119,1.015439284531817,1.076276418265643,1.120854099172582,1.207475462561678,1.252855692122106,1.331553238912802,1.402085880675209,1.446724393512990,1.533241958981003,1.561220298278532),.UNSPECIFIED.);
#957=EDGE_CURVE('',#890,#888,#956,.T.);
#958=ORIENTED_EDGE('',*,*,#957,.T.);
#959=EDGE_LOOP('',(#924,#958));
#960=FACE_BOUND('',#959,.T.);
#961=CARTESIAN_POINT('',(9.526279441628828,5.499999999999999,47.066999999999993));
#962=VERTEX_POINT('',#961);
#963=CARTESIAN_POINT('',(9.526279441628828,5.499999999999999,42.933000000000007));
#964=VERTEX_POINT('',#963);
#965=CARTESIAN_POINT('',(9.526279441628825,5.499999999999997,47.067000000000000));
#966=CARTESIAN_POINT('',(9.395100932354316,5.727207842924593,47.067000000000000));
#967=CARTESIAN_POINT('',(9.246364426978182,5.964124419399608,47.013959245838016));
#968=CARTESIAN_POINT('',(9.102067930891101,6.176759618233803,46.906664864406743));
#969=CARTESIAN_POINT('',(8.990533080678720,6.341117282452755,46.823731022726029));
#970=CARTESIAN_POINT('',(8.881720729350898,6.491555220808536,46.708977074708891));
#971=CARTESIAN_POINT('',(8.786107895933165,6.618482306467314,46.574902576642138));
#972=CARTESIAN_POINT('',(8.716048737700572,6.711486607880698,46.476661094413750));
#973=CARTESIAN_POINT('',(8.653047856339050,6.792168995849677,46.369676078050276));
#974=CARTESIAN_POINT('',(8.594509506089862,6.865450192793696,46.247103850839338));
#975=CARTESIAN_POINT('',(8.480760392049310,7.007846949667262,46.008926960102393));
#976=CARTESIAN_POINT('',(8.393271114203252,7.110343442109270,45.719892126318257));
#977=CARTESIAN_POINT('',(8.352197077627995,7.158268224679929,45.423531593573585));
#978=CARTESIAN_POINT('',(8.330678723080997,7.183375629476966,45.268270714705430));
#979=CARTESIAN_POINT('',(8.321418567297529,7.194025405943130,45.113277131558640));
#980=CARTESIAN_POINT('',(8.323326225398144,7.191817610701726,44.961084602857817));
#981=CARTESIAN_POINT('',(8.326634450457574,7.187988893416726,44.697155161233354));
#982=CARTESIAN_POINT('',(8.366179898958263,7.142830621601673,44.418207037582064));
#983=CARTESIAN_POINT('',(8.439297482697002,7.055370861871404,44.164196135335324));
#984=CARTESIAN_POINT('',(8.504829085023788,6.976985090608508,43.936538975708991));
#985=CARTESIAN_POINT('',(8.596718196815566,6.864677652136109,43.728601277321950));
#986=CARTESIAN_POINT('',(8.697982079050989,6.733877616389226,43.559848547128759));
#987=CARTESIAN_POINT('',(8.762069698544755,6.651097233732864,43.453048763016078));
#988=CARTESIAN_POINT('',(8.833338675880068,6.556622061339898,43.355229125946323));
#989=CARTESIAN_POINT('',(8.910167231454944,6.450497648050615,43.270014396560569));
#990=CARTESIAN_POINT('',(9.059074960772158,6.244809212419052,43.104852735479405));
#991=CARTESIAN_POINT('',(9.225997808998056,5.997403192057378,42.993870093695115));
#992=CARTESIAN_POINT('',(9.380812847601339,5.744593137749415,42.952680723922391));
#993=CARTESIAN_POINT('',(9.430877451881086,5.662838577978881,42.939360767949069));
#994=CARTESIAN_POINT('',(9.479648876132940,5.580766508624538,42.933000000000000));
#995=CARTESIAN_POINT('',(9.526279441628825,5.499999999999997,42.933000000000000));
#996=B_SPLINE_CURVE_WITH_KNOTS('',3,(#965,#966,#967,#968,#969,#970,#971,#972,#973,#974,#975,#976,#977,#978,#979,#980,#981,#982,#983,#984,#985,#986,#987,#988,#989,#990,#991,#992,#993,#994,#995),.UNSPECIFIED.,.F.,.U.,(4,3,3,3,3,3,3,3,3,3,4),(0.312244059655707,0.390951165220412,0.451788298954495,0.496365979861326,0.582987343250445,0.628367572810699,0.707065119601396,0.777597761363863,0.822236274201580,0.908753839669588,0.936732178967119),.UNSPECIFIED.);
#997=EDGE_CURVE('',#962,#964,#996,.T.);
#998=ORIENTED_EDGE('',*,*,#997,.T.);
#999=CARTESIAN_POINT('',(9.526279441628825,5.499999999999997,42.933000000000000));
#1000=CARTESIAN_POINT('',(9.657457950903329,5.272792157075412,42.933000000000000));
#1001=CARTESIAN_POINT('',(9.788265472020255,5.025524276712067,42.986040754161969));
#1002=CARTESIAN_POINT('',(9.900264707905881,4.794242246006482,43.093335135593236));
#1003=CARTESIAN_POINT('',(9.986835195319372,4.615471400207039,43.176268977273359));
#1004=CARTESIAN_POINT('',(10.062712095964077,4.446018170534841,43.291022925289468));
#1005=CARTESIAN_POINT('',(10.124827759863791,4.299751485038587,43.425097423355027));
#1006=CARTESIAN_POINT('',(10.170342268433318,4.192576323533371,43.523338905584247));
#1007=CARTESIAN_POINT('',(10.208714825372120,4.097674765827945,43.630323921948701));
#1008=CARTESIAN_POINT('',(10.242909028421122,4.010338468943619,43.752896149160925));
#1009=CARTESIAN_POINT('',(10.309353680269854,3.840630468089777,43.991073039897898));
#1010=CARTESIAN_POINT('',(10.354373607600388,3.713614284695380,44.280107873682070));
#1011=CARTESIAN_POINT('',(10.375340668489779,3.654080734299955,44.576468406426734));
#1012=CARTESIAN_POINT('',(10.386325141593586,3.622891590216171,44.731729285294634));
#1013=CARTESIAN_POINT('',(10.390918040666167,3.609547171831619,44.886722868441183));
#1014=CARTESIAN_POINT('',(10.389959862951077,3.612303149829154,45.038915397141750));
#1015=CARTESIAN_POINT('',(10.388298209048092,3.617082515414501,45.302844838766170));
#1016=CARTESIAN_POINT('',(10.368962722715626,3.673909014327605,45.581792962417445));
#1017=CARTESIAN_POINT('',(10.329779140849727,3.780960579173749,45.835803864664186));
#1018=CARTESIAN_POINT('',(10.294660872804256,3.876905497170791,46.063461024290433));
#1019=CARTESIAN_POINT('',(10.243344333949139,4.012637521549732,46.271398722677439));
#1020=CARTESIAN_POINT('',(10.180700121294191,4.165734633924781,46.440151452870644));
#1021=CARTESIAN_POINT('',(10.141054016725612,4.262626331802783,46.546951236983574));
#1022=CARTESIAN_POINT('',(10.094870606073989,4.371584662873539,46.644770874053506));
#1023=CARTESIAN_POINT('',(10.041378445991095,4.491182350382299,46.729985603439410));
#1024=CARTESIAN_POINT('',(9.937700900128075,4.722984444606676,46.895147264520602));
#1025=CARTESIAN_POINT('',(9.806902425558592,4.991246881823211,47.006129906304899));
#1026=CARTESIAN_POINT('',(9.665370015497397,5.251725665295536,47.047319276077623));
#1027=CARTESIAN_POINT('',(9.619600792000783,5.335960164317465,47.060639232050939));
#1028=CARTESIAN_POINT('',(9.572910007124701,5.419233491375472,47.067000000000000));
#1029=CARTESIAN_POINT('',(9.526279441628825,5.499999999999997,47.067000000000000));
#1030=B_SPLINE_CURVE_WITH_KNOTS('',3,(#999,#1000,#1001,#1002,#1003,#1004,#1005,#1006,#1007,#1008,#1009,#1010,#1011,#1012,#1013,#1014,#1015,#1016,#1017,#1018,#1019,#1020,#1021,#1022,#1023,#1024,#1025,#1026,#1027,#1028,#1029),.UNSPECIFIED.,.F.,.U.,(4,3,3,3,3,3,3,3,3,3,4),(0.936732178967119,1.015439284531821,1.076276418265479,1.120854099172771,1.207475462561888,1.252855692122068,1.331553238912758,1.402085880675192,1.446724393512988,1.533241958981006,1.561220298278532),.UNSPECIFIED.);
#1031=EDGE_CURVE('',#964,#962,#1030,.T.);
#1032=ORIENTED_EDGE('',*,*,#1031,.T.);
#1033=EDGE_LOOP('',(#998,#1032));
#1034=FACE_BOUND('',#1033,.T.);
#1035=ORIENTED_EDGE('',*,*,#863,.F.);
#1036=EDGE_LOOP('',(#1035));
#1037=FACE_BOUND('',#1036,.T.);
#1038=ADVANCED_FACE('',(#883,#886,#960,#1034,#1037),#872,.T.);
#1039=CARTESIAN_POINT('',(0.0,0.0,54.849999999999994));
#1040=DIRECTION('',(0.0,0.0,1.0));
#1041=DIRECTION('',(-1.0,0.0,0.0));
#1042=AXIS2_PLACEMENT_3D('',#1039,#1040,#1041);
#1043=CONICAL_SURFACE('',#1042,6.150000000000001,44.999999999999787);
#1044=CARTESIAN_POINT('',(6.000000000000001,-7.347638E-016,54.699999999999996));
#1045=VERTEX_POINT('',#1044);
#1046=CARTESIAN_POINT('',(0.0,0.0,54.699999999999996));
#1047=DIRECTION('',(0.0,0.0,-1.0));
#1048=DIRECTION('',(-1.0,0.0,0.0));
#1049=AXIS2_PLACEMENT_3D('',#1046,#1047,#1048);
#1050=CIRCLE('',#1049,6.000000000000001);
#1051=EDGE_CURVE('',#1045,#1045,#1050,.T.);
#1052=ORIENTED_EDGE('',*,*,#1051,.T.);
#1053=EDGE_LOOP('',(#1052));
#1054=FACE_OUTER_BOUND('',#1053,.T.);
#1055=ORIENTED_EDGE('',*,*,#442,.T.);
#1056=EDGE_LOOP('',(#1055));
#1057=FACE_BOUND('',#1056,.T.);
#1058=ADVANCED_FACE('',(#1054,#1057),#1043,.F.);
#1059=CARTESIAN_POINT('',(6.000000000000001,-7.347638E-016,4.999999999999993));
#1060=CARTESIAN_POINT('',(6.000000000000001,-7.347638E-016,54.699999999999996));
#1061=CARTESIAN_POINT('',(5.999999999999998,-6.0,4.999999999999993));
#1062=CARTESIAN_POINT('',(5.999999999999998,-6.0,54.699999999999996));
#1063=CARTESIAN_POINT('',(-7.347638E-016,-6.000000000000001,4.999999999999993));
#1064=CARTESIAN_POINT('',(-7.347638E-016,-6.000000000000001,54.699999999999996));
#1065=CARTESIAN_POINT('',(-6.0,-5.999999999999998,4.999999999999993));
#1066=CARTESIAN_POINT('',(-6.0,-5.999999999999998,54.699999999999996));
#1067=CARTESIAN_POINT('',(-6.000000000000001,7.347638E-016,4.999999999999993));
#1068=CARTESIAN_POINT('',(-6.000000000000001,7.347638E-016,54.699999999999996));
#1069=CARTESIAN_POINT('',(-5.999999999999998,6.0,4.999999999999993));
#1070=CARTESIAN_POINT('',(-5.999999999999998,6.0,54.699999999999996));
#1071=CARTESIAN_POINT('',(7.347638E-016,6.000000000000001,4.999999999999993));
#1072=CARTESIAN_POINT('',(7.347638E-016,6.000000000000001,54.699999999999996));
#1073=CARTESIAN_POINT('',(6.0,5.999999999999998,4.999999999999993));
#1074=CARTESIAN_POINT('',(6.0,5.999999999999998,54.699999999999996));
#1075=CARTESIAN_POINT('',(6.000000000000001,-7.347638E-016,4.999999999999993));
#1076=CARTESIAN_POINT('',(6.000000000000001,-7.347638E-016,54.699999999999996));
#1084=(BOUNDED_SURFACE()B_SPLINE_SURFACE(1,2,((#1059,#1061,#1063,#1065,#1067,#1069,#1071,#1073,#1075),(#1060,#1062,#1064,#1066,#1068,#1070,#1072,#1074,#1076)),.UNSPECIFIED.,.F.,.T.,.U.)B_SPLINE_SURFACE_WITH_KNOTS((2,2),(3,2,2,2,3),(-9.698364851986385,-1.415031518653054),(0.0,9.424777960769381,18.849555921538762,28.274333882308142,37.699111843077524),.UNSPECIFIED.)GEOMETRIC_REPRESENTATION_ITEM()RATIONAL_B_SPLINE_SURFACE(((1.0,0.707106781186548,1.0,0.707106781186548,1.0,0.707106781186548,1.0,0.707106781186548,1.0),(1.0,0.707106781186548,1.0,0.707106781186548,1.0,0.707106781186548,1.0,0.707106781186548,1.0)))REPRESENTATION_ITEM('')SURFACE());
#1085=CARTESIAN_POINT('',(6.000000000000001,-7.347638E-016,5.0));
#1086=VERTEX_POINT('',#1085);
#1087=CARTESIAN_POINT('',(0.0,0.0,5.0));
#1088=DIRECTION('',(0.0,0.0,-1.0));
#1089=DIRECTION('',(-1.0,0.0,0.0));
#1090=AXIS2_PLACEMENT_3D('',#1087,#1088,#1089);
#1091=CIRCLE('',#1090,6.000000000000001);
#1092=EDGE_CURVE('',#1086,#1086,#1091,.T.);
#1093=ORIENTED_EDGE('',*,*,#1092,.T.);
#1094=EDGE_LOOP('',(#1093));
#1095=FACE_OUTER_BOUND('',#1094,.T.);
#1096=ORIENTED_EDGE('',*,*,#824,.T.);
#1097=ORIENTED_EDGE('',*,*,#794,.T.);
#1098=ORIENTED_EDGE('',*,*,#843,.T.);
#1099=EDGE_LOOP('',(#1096,#1097,#1098));
#1100=FACE_BOUND('',#1099,.T.);
#1101=CARTESIAN_POINT('',(3.844576798288441,4.606433462241934,45.0));
#1102=VERTEX_POINT('',#1101);
#1103=CARTESIAN_POINT('',(3.844576798288447,4.606433462241930,45.0));
#1104=CARTESIAN_POINT('',(3.844576798288447,4.606433462241930,45.289709190893085));
#1105=CARTESIAN_POINT('',(3.898984630315856,4.562482985519689,45.598398891996027));
#1106=CARTESIAN_POINT('',(3.999904944362130,4.472220973528409,45.874052929585943));
#1107=CARTESIAN_POINT('',(4.062920407668867,4.415860640543113,46.046173548266701));
#1108=CARTESIAN_POINT('',(4.142956337626228,4.341779693667621,46.205984077577874));
#1109=CARTESIAN_POINT('',(4.230210837593118,4.255034226596743,46.344626829518241));
#1110=CARTESIAN_POINT('',(4.300746591661222,4.184909970149729,46.456704384921132));
#1111=CARTESIAN_POINT('',(4.375214741236018,4.107597978264503,46.555281784914875));
#1112=CARTESIAN_POINT('',(4.456842760501401,4.017032811437599,46.645877002829600));
#1113=CARTESIAN_POINT('',(4.598064863677466,3.860348826589148,46.802612978132601));
#1114=CARTESIAN_POINT('',(4.755044973518061,3.668215361993803,46.924650484514842));
#1115=CARTESIAN_POINT('',(4.903389144968052,3.457856979837295,46.994430093310598));
#1116=CARTESIAN_POINT('',(4.999005177505141,3.322269354680705,47.039406914980262));
#1117=CARTESIAN_POINT('',(5.090960977651640,3.179473394951493,47.063046382808238));
#1118=CARTESIAN_POINT('',(5.174057992599163,3.037947315083119,47.066533537897300));
#1119=CARTESIAN_POINT('',(5.253833942032474,2.902077483920061,47.069881324917404));
#1120=CARTESIAN_POINT('',(5.329516249109469,2.760796859050759,47.055307807772920));
#1121=CARTESIAN_POINT('',(5.399481429485851,2.616409809765559,47.020953139268379));
#1122=CARTESIAN_POINT('',(5.499416803775185,2.410173311335550,46.971882349525281));
#1123=CARTESIAN_POINT('',(5.585110531100973,2.201625131618758,46.881988136660965));
#1124=CARTESIAN_POINT('',(5.652681117899634,2.011764444297829,46.759890070329014));
#1125=CARTESIAN_POINT('',(5.699824303546466,1.879300926464611,46.674703718087358));
#1126=CARTESIAN_POINT('',(5.738348345439923,1.756130683509804,46.574219503271166));
#1127=CARTESIAN_POINT('',(5.769225257068960,1.648041241352170,46.465800221791724));
#1128=CARTESIAN_POINT('',(5.796507172938935,1.552536642226269,46.370004186503543));
#1129=CARTESIAN_POINT('',(5.819712715092824,1.462097412181602,46.261469253028814));
#1130=CARTESIAN_POINT('',(5.838684623096015,1.381941341744345,46.142507885027854));
#1131=CARTESIAN_POINT('',(5.878003555642308,1.215819350947820,45.895962624358347));
#1132=CARTESIAN_POINT('',(5.898877236048699,1.097957042115728,45.604884415898120));
#1133=CARTESIAN_POINT('',(5.907209844657870,1.051128846135029,45.312108152676572));
#1134=CARTESIAN_POINT('',(5.913198467864203,1.017473548698874,45.101690646415420));
#1135=CARTESIAN_POINT('',(5.913184039011183,1.017564171092698,44.896513994392336));
#1136=CARTESIAN_POINT('',(5.907158560443516,1.051417016116301,44.686095436750882));
#1137=CARTESIAN_POINT('',(5.898827332137675,1.098224216162996,44.395156713160780));
#1138=CARTESIAN_POINT('',(5.878103494610321,1.215130051880777,44.105986726121358));
#1139=CARTESIAN_POINT('',(5.839183313944829,1.379832680490032,43.860627509355098));
#1140=CARTESIAN_POINT('',(5.818755862229350,1.466277679865665,43.731849495796588));
#1141=CARTESIAN_POINT('',(5.793639142168634,1.563873008838673,43.616136676823686));
#1142=CARTESIAN_POINT('',(5.763228873534967,1.668889736097893,43.513563844000963));
#1143=CARTESIAN_POINT('',(5.703811345608520,1.874078134787690,43.313150482575033));
#1144=CARTESIAN_POINT('',(5.616095463520395,2.131784943047803,43.144954238192412));
#1145=CARTESIAN_POINT('',(5.499497511310104,2.399067969669468,43.045319110396882));
#1146=CARTESIAN_POINT('',(5.422808198837243,2.574866524950371,42.979786660607331));
#1147=CARTESIAN_POINT('',(5.333842012048645,2.754574163087549,42.943080507550349));
#1148=CARTESIAN_POINT('',(5.239415021932014,2.923786966923748,42.934858520414160));
#1149=CARTESIAN_POINT('',(5.166801191629722,3.053910672101264,42.928535858027935));
#1150=CARTESIAN_POINT('',(5.089609871315537,3.180995263420277,42.937992563455559));
#1151=CARTESIAN_POINT('',(5.006273262637722,3.307148019033722,42.964757244809590));
#1152=CARTESIAN_POINT('',(4.854613691548614,3.536726269355988,43.013464771536313));
#1153=CARTESIAN_POINT('',(4.687387477184785,3.752888124756316,43.121679722991431));
#1154=CARTESIAN_POINT('',(4.532653086810199,3.931291898934750,43.274652034557654));
#1155=CARTESIAN_POINT('',(4.446575016782020,4.030537144480015,43.359749867789773));
#1156=CARTESIAN_POINT('',(4.365453533322703,4.117528343932492,43.456897686477987));
#1157=CARTESIAN_POINT('',(4.291410700159256,4.193303495164482,43.563030477242258));
#1158=CARTESIAN_POINT('',(4.147782516982009,4.340292026484011,43.768906714843183));
#1159=CARTESIAN_POINT('',(4.017121694518597,4.458016271761708,44.033375966428082));
#1160=CARTESIAN_POINT('',(3.937352411811995,4.527389533185573,44.320612344795428));
#1161=CARTESIAN_POINT('',(3.875819120820042,4.580903428978724,44.542183845175614));
#1162=CARTESIAN_POINT('',(3.844576798288447,4.606433462241930,44.776936869836966));
#1163=CARTESIAN_POINT('',(3.844576798288447,4.606433462241930,45.0));
#1164=B_SPLINE_CURVE_WITH_KNOTS('',3,(#1103,#1104,#1105,#1106,#1107,#1108,#1109,#1110,#1111,#1112,#1113,#1114,#1115,#1116,#1117,#1118,#1119,#1120,#1121,#1122,#1123,#1124,#1125,#1126,#1127,#1128,#1129,#1130,#1131,#1132,#1133,#1134,#1135,#1136,#1137,#1138,#1139,#1140,#1141,#1142,#1143,#1144,#1145,#1146,#1147,#1148,#1149,#1150,#1151,#1152,#1153,#1154,#1155,#1156,#1157,#1158,#1159,#1160,#1161,#1162,#1163),.UNSPECIFIED.,.T.,.U.,(4,3,3,3,3,3,3,3,3,3,3,3,3,3,3,3,3,3,3,3,4),(0.0,0.086912757267925,0.141181788416530,0.185052385761822,0.260951544904101,0.309872755620711,0.356838775216111,0.423923098044940,0.470727023168972,0.512081571932120,0.597788118317818,0.659385180737757,0.744553385093068,0.789254343629591,0.876593935534488,0.934039311957279,0.978214486979417,1.058606384405251,1.103328048151539,1.190079068312584,1.256998007361495),.UNSPECIFIED.);
#1165=EDGE_CURVE('',#1102,#1102,#1164,.T.);
#1166=ORIENTED_EDGE('',*,*,#1165,.T.);
#1167=EDGE_LOOP('',(#1166));
#1168=FACE_BOUND('',#1167,.T.);
#1169=CARTESIAN_POINT('',(-5.911576798288440,1.026284442997066,45.0));
#1170=VERTEX_POINT('',#1169);
#1171=CARTESIAN_POINT('',(-5.911576798288442,1.026284442997064,45.0));
#1172=CARTESIAN_POINT('',(-5.911576798288442,1.026284442997064,45.289709190893078));
#1173=CARTESIAN_POINT('',(-5.900718484952250,1.095378246058747,45.598398891996005));
#1174=CARTESIAN_POINT('',(-5.873009446594245,1.227908807776361,45.874052929585922));
#1175=CARTESIAN_POINT('',(-5.855707698116646,1.310661966323657,46.046173548266196));
#1176=CARTESIAN_POINT('',(-5.831569681164835,1.417015588319618,46.205984077576950));
#1177=CARTESIAN_POINT('',(-5.800073153001883,1.535952935420488,46.344626829517047));
#1178=CARTESIAN_POINT('',(-5.774611642531288,1.632100818542273,46.456704384920343));
#1179=CARTESIAN_POINT('',(-5.744891568328852,1.735248123789714,46.555281784914385));
#1180=CARTESIAN_POINT('',(-5.707273842791378,1.851222645547894,46.645877002829380));
#1181=CARTESIAN_POINT('',(-5.642192583134497,2.051866566898423,46.802612978132402));
#1182=CARTESIAN_POINT('',(-5.554290176798136,2.283882062206893,46.924650484514686));
#1183=CARTESIAN_POINT('',(-5.446286559676626,2.517531074264179,46.994430093310491));
#1184=CARTESIAN_POINT('',(-5.376672248120967,2.668130800028255,47.039406914980063));
#1185=CARTESIAN_POINT('',(-5.298985219511186,2.819164838844646,47.063046382808075));
#1186=CARTESIAN_POINT('',(-5.217968546521156,2.961892004701708,47.066533537897264));
#1187=CARTESIAN_POINT('',(-5.140189795842475,3.098914919103999,47.069881324917517));
#1188=CARTESIAN_POINT('',(-5.055678339181402,3.235098032084738,47.055307807773069));
#1189=CARTESIAN_POINT('',(-4.965618076710849,3.367883180314076,47.020953139268435));
#1190=CARTESIAN_POINT('',(-4.836979717027610,3.557548002400320,46.971882349525380));
#1191=CARTESIAN_POINT('',(-4.699218559142803,3.736035037067791,46.881988136661121));
#1192=CARTESIAN_POINT('',(-4.568579674142251,3.889483225444518,46.759890070329227));
#1193=CARTESIAN_POINT('',(-4.477434495447032,3.996542180747109,46.674703718087208));
#1194=CARTESIAN_POINT('',(-4.390027957004213,4.091490101161093,46.574219503270520));
#1195=CARTESIAN_POINT('',(-4.311858210029051,4.172275012101322,46.465800221790538));
#1196=CARTESIAN_POINT('',(-4.242789758943037,4.243654143871265,46.370004186502612));
#1197=CARTESIAN_POINT('',(-4.176069859302802,4.308970347907243,46.261469253028118));
#1198=CARTESIAN_POINT('',(-4.116138620038401,4.365478537414700,46.142507885027520));
#1199=CARTESIAN_POINT('',(-3.991932222154556,4.482590727247688,45.895962624358006));
#1200=CARTESIAN_POINT('',(-3.900297308760521,4.559599019166102,45.604884415897786));
#1201=CARTESIAN_POINT('',(-3.863909205732464,4.590229367891753,45.312108152676281));
#1202=CARTESIAN_POINT('',(-3.837757174784092,4.612243316440130,45.101690646415676));
#1203=CARTESIAN_POINT('',(-3.837828441652742,4.612185509489991,44.896513994393153));
#1204=CARTESIAN_POINT('',(-3.864133126149544,4.590040869468786,44.686095436752240));
#1205=CARTESIAN_POINT('',(-3.900503736316920,4.559422214087991,44.395156713162159));
#1206=CARTESIAN_POINT('',(-3.991385241135316,4.483021926466672,44.105986726122701));
#1207=CARTESIAN_POINT('',(-4.114561811248151,4.366964746985983,43.860627509356320));
#1208=CARTESIAN_POINT('',(-4.179211650879787,4.306051555178048,43.731849495797739));
#1209=CARTESIAN_POINT('',(-4.251173325030754,4.235502173059242,43.616136676824702));
#1210=CARTESIAN_POINT('',(-4.326915344342649,4.156657744257054,43.513563844001943));
#1211=CARTESIAN_POINT('',(-4.474904946206534,4.002606456297945,43.313150482575928));
#1212=CARTESIAN_POINT('',(-4.654227647843895,3.797788869964355,43.144954238193108));
#1213=CARTESIAN_POINT('',(-4.827402562793525,3.563170568010254,43.045319110397365));
#1214=CARTESIAN_POINT('',(-4.941303921378369,3.408856397570419,42.979786660608028));
#1215=CARTESIAN_POINT('',(-5.052452207864436,3.241955600666061,42.943080507550924));
#1216=CARTESIAN_POINT('',(-5.151781299573512,3.075573026504927,42.934858520414352));
#1217=CARTESIAN_POINT('',(-5.228164818740350,2.947625752209015,42.928535858027836));
#1218=CARTESIAN_POINT('',(-5.299627643094715,2.817233812206735,42.937992563454976));
#1219=CARTESIAN_POINT('',(-5.367210829874239,2.681985814220629,42.964757244808311));
#1220=CARTESIAN_POINT('',(-5.490201641265347,2.435855647769617,43.013464771533997));
#1221=CARTESIAN_POINT('',(-5.593790192189686,2.182952570251681,43.121679722987977));
#1222=CARTESIAN_POINT('',(-5.670925197572352,1.959746770258594,43.274652034553270));
#1223=CARTESIAN_POINT('',(-5.713835066405984,1.835578352131255,43.359749867785801));
#1224=CARTESIAN_POINT('',(-5.748610913308402,1.721829486935019,43.456897686474882));
#1225=CARTESIAN_POINT('',(-5.777212702669544,1.619818936830190,43.563030477240012));
#1226=CARTESIAN_POINT('',(-5.832694413268733,1.421939015839319,43.768906714840568));
#1227=CARTESIAN_POINT('',(-5.869316189089012,1.249921301667373,44.033375966425204));
#1228=CARTESIAN_POINT('',(-5.889510554472266,1.146152445689398,44.320612344792451));
#1229=CARTESIAN_POINT('',(-5.905088302188783,1.066106104614629,44.542183845173511));
#1230=CARTESIAN_POINT('',(-5.911576798288442,1.026284442997064,44.776936869835964));
#1231=CARTESIAN_POINT('',(-5.911576798288442,1.026284442997064,45.0));
#1232=B_SPLINE_CURVE_WITH_KNOTS('',3,(#1171,#1172,#1173,#1174,#1175,#1176,#1177,#1178,#1179,#1180,#1181,#1182,#1183,#1184,#1185,#1186,#1187,#1188,#1189,#1190,#1191,#1192,#1193,#1194,#1195,#1196,#1197,#1198,#1199,#1200,#1201,#1202,#1203,#1204,#1205,#1206,#1207,#1208,#1209,#1210,#1211,#1212,#1213,#1214,#1215,#1216,#1217,#1218,#1219,#1220,#1221,#1222,#1223,#1224,#1225,#1226,#1227,#1228,#1229,#1230,#1231),.UNSPECIFIED.,.T.,.U.,(4,3,3,3,3,3,3,3,3,3,3,3,3,3,3,3,3,3,3,3,4),(0.0,0.086912757267922,0.141181788416374,0.185052385761785,0.260951544904062,0.309872755620537,0.356838775216086,0.423923098044901,0.470727023169141,0.512081571932159,0.597788118317846,0.659385180737626,0.744553385092928,0.789254343629449,0.876593935534347,0.934039311956834,0.978214486978719,1.058606384404485,1.103328048151224,1.190079068312285,1.256998007361495),.UNSPECIFIED.);
#1233=EDGE_CURVE('',#1170,#1170,#1232,.T.);
#1234=ORIENTED_EDGE('',*,*,#1233,.T.);
#1235=EDGE_LOOP('',(#1234));
#1236=FACE_BOUND('',#1235,.T.);
#1237=ORIENTED_EDGE('',*,*,#1051,.F.);
#1238=EDGE_LOOP('',(#1237));
#1239=FACE_BOUND('',#1238,.T.);
#1240=ADVANCED_FACE('',(#1095,#1100,#1168,#1236,#1239),#1084,.F.);
#1241=CARTESIAN_POINT('',(0.0,0.0,5.150000000000000));
#1242=DIRECTION('',(0.0,0.0,1.0));
#1243=DIRECTION('',(1.0,0.0,0.0));
#1244=AXIS2_PLACEMENT_3D('',#1241,#1242,#1243);
#1245=CONICAL_SURFACE('',#1244,10.850000000000000,45.000000000000007);
#1246=CARTESIAN_POINT('',(-10.700000000000001,-1.310329E-015,5.0));
#1247=VERTEX_POINT('',#1246);
#1248=CARTESIAN_POINT('',(0.0,0.0,5.0));
#1249=DIRECTION('',(0.0,0.0,1.0));
#1250=DIRECTION('',(1.0,0.0,0.0));
#1251=AXIS2_PLACEMENT_3D('',#1248,#1249,#1250);
#1252=CIRCLE('',#1251,10.700000000000001);
#1253=EDGE_CURVE('',#1247,#1247,#1252,.T.);
#1254=ORIENTED_EDGE('',*,*,#1253,.T.);
#1255=EDGE_LOOP('',(#1254));
#1256=FACE_OUTER_BOUND('',#1255,.T.);
#1257=ORIENTED_EDGE('',*,*,#880,.T.);
#1258=EDGE_LOOP('',(#1257));
#1259=FACE_BOUND('',#1258,.T.);
#1260=ADVANCED_FACE('',(#1256,#1259),#1245,.T.);
#1261=CARTESIAN_POINT('',(0.0,0.0,5.0));
#1262=DIRECTION('',(0.0,0.0,1.0));
#1263=DIRECTION('',(1.0,0.0,0.0));
#1264=AXIS2_PLACEMENT_3D('',#1261,#1262,#1263);
#1265=PLANE('',#1264);
#1266=ORIENTED_EDGE('',*,*,#1253,.F.);
#1267=EDGE_LOOP('',(#1266));
#1268=FACE_OUTER_BOUND('',#1267,.T.);
#1269=CARTESIAN_POINT('',(7.500000000000000,9.184548E-016,5.0));
#1270=VERTEX_POINT('',#1269);
#1271=CARTESIAN_POINT('',(0.0,0.0,5.0));
#1272=DIRECTION('',(0.0,0.0,1.0));
#1273=DIRECTION('',(-1.0,0.0,0.0));
#1274=AXIS2_PLACEMENT_3D('',#1271,#1272,#1273);
#1275=CIRCLE('',#1274,7.500000000000000);
#1276=EDGE_CURVE('',#1270,#1270,#1275,.T.);
#1277=ORIENTED_EDGE('',*,*,#1276,.T.);
#1278=EDGE_LOOP('',(#1277));
#1279=FACE_BOUND('',#1278,.T.);
#1280=ADVANCED_FACE('',(#1268,#1279),#1265,.F.);
#1281=CARTESIAN_POINT('',(45.198029599235255,-26.095094555959186,45.0));
#1282=DIRECTION('',(0.866025403784438,-0.500000000000001,0.0));
#1283=DIRECTION('',(0.500000000000000,0.866025403784438,0.0));
#1284=AXIS2_PLACEMENT_3D('',#1281,#1282,#1283);
#1285=CYLINDRICAL_SURFACE('',#1284,2.067000000000001);
#1286=ORIENTED_EDGE('',*,*,#923,.F.);
#1287=ORIENTED_EDGE('',*,*,#957,.F.);
#1288=EDGE_LOOP('',(#1286,#1287));
#1289=FACE_OUTER_BOUND('',#1288,.T.);
#1290=ORIENTED_EDGE('',*,*,#1233,.F.);
#1291=EDGE_LOOP('',(#1290));
#1292=FACE_BOUND('',#1291,.T.);
#1293=ADVANCED_FACE('',(#1289,#1292),#1285,.F.);
#1294=CARTESIAN_POINT('',(-45.198029599235277,-26.095094555959150,45.0));
#1295=DIRECTION('',(-0.866025403784439,-0.500000000000000,0.0));
#1296=DIRECTION('',(0.500000000000000,-0.866025403784439,0.0));
#1297=AXIS2_PLACEMENT_3D('',#1294,#1295,#1296);
#1298=CYLINDRICAL_SURFACE('',#1297,2.067000000000000);
#1299=ORIENTED_EDGE('',*,*,#997,.F.);
#1300=ORIENTED_EDGE('',*,*,#1031,.F.);
#1301=EDGE_LOOP('',(#1299,#1300));
#1302=FACE_OUTER_BOUND('',#1301,.T.);
#1303=ORIENTED_EDGE('',*,*,#1165,.F.);
#1304=EDGE_LOOP('',(#1303));
#1305=FACE_BOUND('',#1304,.T.);
#1306=ADVANCED_FACE('',(#1302,#1305),#1298,.F.);
#1307=CARTESIAN_POINT('',(6.250000000000000,6.250000000000000,5.0));
#1308=CARTESIAN_POINT('',(-6.250000000000000,6.250000000000000,5.0));
#1309=CARTESIAN_POINT('',(6.250000000000000,-6.250000000000000,5.0));
#1310=CARTESIAN_POINT('',(-6.250000000000000,-6.250000000000000,5.0));
#1311=B_SPLINE_SURFACE_WITH_KNOTS('',1,1,((#1307,#1309),(#1308,#1310)),.UNSPECIFIED.,.F.,.F.,.U.,(2,2),(2,2),(0.0,12.500000000000000),(0.0,12.500000000000000),.UNSPECIFIED.);
#1312=CARTESIAN_POINT('',(6.250000000000000,7.653790E-016,5.0));
#1313=VERTEX_POINT('',#1312);
#1314=CARTESIAN_POINT('',(0.0,0.0,5.0));
#1315=DIRECTION('',(0.0,0.0,1.0));
#1316=DIRECTION('',(-1.0,0.0,0.0));
#1317=AXIS2_PLACEMENT_3D('',#1314,#1315,#1316);
#1318=CIRCLE('',#1317,6.250000000000000);
#1319=EDGE_CURVE('',#1313,#1313,#1318,.T.);
#1320=ORIENTED_EDGE('',*,*,#1319,.F.);
#1321=EDGE_LOOP('',(#1320));
#1322=FACE_OUTER_BOUND('',#1321,.T.);
#1323=ORIENTED_EDGE('',*,*,#1092,.F.);
#1324=EDGE_LOOP('',(#1323));
#1325=FACE_BOUND('',#1324,.T.);
#1326=ADVANCED_FACE('',(#1322,#1325),#1311,.F.);
#1327=CARTESIAN_POINT('',(6.250000000000000,-7.653790E-016,0.0));
#1328=CARTESIAN_POINT('',(6.250000000000000,-7.653790E-016,5.0));
#1329=CARTESIAN_POINT('',(6.249999999999997,-6.249999999999998,0.0));
#1330=CARTESIAN_POINT('',(6.249999999999997,-6.249999999999998,5.0));
#1331=CARTESIAN_POINT('',(-7.653790E-016,-6.250000000000000,0.0));
#1332=CARTESIAN_POINT('',(-7.653790E-016,-6.250000000000000,5.0));
#1333=CARTESIAN_POINT('',(-6.249999999999998,-6.249999999999997,0.0));
#1334=CARTESIAN_POINT('',(-6.249999999999998,-6.249999999999997,5.0));
#1335=CARTESIAN_POINT('',(-6.250000000000000,7.653790E-016,0.0));
#1336=CARTESIAN_POINT('',(-6.250000000000000,7.653790E-016,5.0));
#1337=CARTESIAN_POINT('',(-6.249999999999997,6.249999999999998,0.0));
#1338=CARTESIAN_POINT('',(-6.249999999999997,6.249999999999998,5.0));
#1339=CARTESIAN_POINT('',(7.653790E-016,6.250000000000000,0.0));
#1340=CARTESIAN_POINT('',(7.653790E-016,6.250000000000000,5.0));
#1341=CARTESIAN_POINT('',(6.249999999999998,6.249999999999997,0.0));
#1342=CARTESIAN_POINT('',(6.249999999999998,6.249999999999997,5.0));
#1343=CARTESIAN_POINT('',(6.250000000000000,-7.653790E-016,0.0));
#1344=CARTESIAN_POINT('',(6.250000000000000,-7.653790E-016,5.0));
#1352=(BOUNDED_SURFACE()B_SPLINE_SURFACE(1,2,((#1327,#1329,#1331,#1333,#1335,#1337,#1339,#1341,#1343),(#1328,#1330,#1332,#1334,#1336,#1338,#1340,#1342,#1344)),.UNSPECIFIED.,.F.,.T.,.U.)B_SPLINE_SURFACE_WITH_KNOTS((2,2),(3,2,2,2,3),(-10.110430257906931,-9.310430257906930),(0.0,9.817477042468104,19.634954084936208,29.452431127404310,39.269908169872416),.UNSPECIFIED.)GEOMETRIC_REPRESENTATION_ITEM()RATIONAL_B_SPLINE_SURFACE(((1.0,0.707106781186548,1.0,0.707106781186548,1.0,0.707106781186548,1.0,0.707106781186548,1.0),(1.0,0.707106781186548,1.0,0.707106781186548,1.0,0.707106781186548,1.0,0.707106781186548,1.0)))REPRESENTATION_ITEM('')SURFACE());
#1353=ORIENTED_EDGE('',*,*,#1319,.T.);
#1354=EDGE_LOOP('',(#1353));
#1355=FACE_OUTER_BOUND('',#1354,.T.);
#1356=CARTESIAN_POINT('',(-6.250000000000000,0.0,0.0));
#1357=VERTEX_POINT('',#1356);
#1358=CARTESIAN_POINT('',(0.0,0.0,0.0));
#1359=DIRECTION('',(0.0,0.0,1.0));
#1360=DIRECTION('',(-1.0,0.0,0.0));
#1361=AXIS2_PLACEMENT_3D('',#1358,#1359,#1360);
#1362=CIRCLE('',#1361,6.250000000000000);
#1363=EDGE_CURVE('',#1357,#1357,#1362,.T.);
#1364=ORIENTED_EDGE('',*,*,#1363,.F.);
#1365=EDGE_LOOP('',(#1364));
#1366=FACE_BOUND('',#1365,.T.);
#1367=ADVANCED_FACE('',(#1355,#1366),#1352,.F.);
#1368=CARTESIAN_POINT('',(0.0,0.0,3.500000000000000));
#1369=DIRECTION('',(0.0,0.0,1.0));
#1370=DIRECTION('',(-1.0,0.0,0.0));
#1371=AXIS2_PLACEMENT_3D('',#1368,#1369,#1370);
#1372=CYLINDRICAL_SURFACE('',#1371,7.500000000000000);
#1373=ORIENTED_EDGE('',*,*,#1276,.F.);
#1374=EDGE_LOOP('',(#1373));
#1375=FACE_OUTER_BOUND('',#1374,.T.);
#1376=CARTESIAN_POINT('',(7.500000000000000,9.184548E-016,3.500000000000000));
#1377=VERTEX_POINT('',#1376);
#1378=CARTESIAN_POINT('',(0.0,0.0,3.500000000000000));
#1379=DIRECTION('',(0.0,0.0,1.0));
#1380=DIRECTION('',(-1.0,0.0,0.0));
#1381=AXIS2_PLACEMENT_3D('',#1378,#1379,#1380);
#1382=CIRCLE('',#1381,7.500000000000000);
#1383=EDGE_CURVE('',#1377,#1377,#1382,.T.);
#1384=ORIENTED_EDGE('',*,*,#1383,.T.);
#1385=EDGE_LOOP('',(#1384));
#1386=FACE_BOUND('',#1385,.T.);
#1387=ADVANCED_FACE('',(#1375,#1386),#1372,.T.);
#1388=CARTESIAN_POINT('',(0.0,0.0,3.500000000000000));
#1389=DIRECTION('',(0.0,0.0,-1.0));
#1390=DIRECTION('',(-1.0,0.0,0.0));
#1391=AXIS2_PLACEMENT_3D('',#1388,#1389,#1390);
#1392=PLANE('',#1391);
#1393=CARTESIAN_POINT('',(8.0,9.796851E-016,3.500000000000000));
#1394=VERTEX_POINT('',#1393);
#1395=CARTESIAN_POINT('',(0.0,0.0,3.500000000000000));
#1396=DIRECTION('',(0.0,0.0,-1.0));
#1397=DIRECTION('',(1.0,0.0,0.0));
#1398=AXIS2_PLACEMENT_3D('',#1395,#1396,#1397);
#1399=CIRCLE('',#1398,8.0);
#1400=EDGE_CURVE('',#1394,#1394,#1399,.T.);
#1401=ORIENTED_EDGE('',*,*,#1400,.F.);
#1402=EDGE_LOOP('',(#1401));
#1403=FACE_OUTER_BOUND('',#1402,.T.);
#1404=ORIENTED_EDGE('',*,*,#1383,.F.);
#1405=EDGE_LOOP('',(#1404));
#1406=FACE_BOUND('',#1405,.T.);
#1407=ADVANCED_FACE('',(#1403,#1406),#1392,.F.);
#1408=CARTESIAN_POINT('',(0.0,0.0,0.0));
#1409=DIRECTION('',(0.0,0.0,1.0));
#1410=DIRECTION('',(1.0,0.0,0.0));
#1411=AXIS2_PLACEMENT_3D('',#1408,#1409,#1410);
#1412=CYLINDRICAL_SURFACE('',#1411,8.0);
#1413=ORIENTED_EDGE('',*,*,#1400,.T.);
#1414=EDGE_LOOP('',(#1413));
#1415=FACE_OUTER_BOUND('',#1414,.T.);
#1416=CARTESIAN_POINT('',(-8.0,9.796851E-016,0.0));
#1417=VERTEX_POINT('',#1416);
#1418=CARTESIAN_POINT('',(0.0,0.0,0.0));
#1419=DIRECTION('',(0.0,0.0,-1.0));
#1420=DIRECTION('',(1.0,0.0,0.0));
#1421=AXIS2_PLACEMENT_3D('',#1418,#1419,#1420);
#1422=CIRCLE('',#1421,8.0);
#1423=EDGE_CURVE('',#1417,#1417,#1422,.T.);
#1424=ORIENTED_EDGE('',*,*,#1423,.F.);
#1425=EDGE_LOOP('',(#1424));
#1426=FACE_BOUND('',#1425,.T.);
#1427=ADVANCED_FACE('',(#1415,#1426),#1412,.T.);
#1428=CARTESIAN_POINT('',(0.0,0.0,0.0));
#1429=DIRECTION('',(0.0,0.0,-1.0));
#1430=DIRECTION('',(-1.0,0.0,0.0));
#1431=AXIS2_PLACEMENT_3D('',#1428,#1429,#1430);
#1432=PLANE('',#1431);
#1433=ORIENTED_EDGE('',*,*,#1423,.T.);
#1434=EDGE_LOOP('',(#1433));
#1435=FACE_OUTER_BOUND('',#1434,.T.);
#1436=ORIENTED_EDGE('',*,*,#1363,.T.);
#1437=EDGE_LOOP('',(#1436));
#1438=FACE_BOUND('',#1437,.T.);
#1439=ADVANCED_FACE('',(#1435,#1438),#1432,.T.);
#1440=CLOSED_SHELL('',(#128,#154,#182,#202,#214,#234,#243,#283,#332,#360,#406,#426,#446,#466,#489,#509,#600,#628,#648,#668,#688,#697,#723,#743,#755,#798,#847,#867,#1038,#1058,#1240,#1260,#1280,#1293,#1306,#1326,#1367,#1387,#1407,#1427,#1439));
#1441=MANIFOLD_SOLID_BREP('',#1440);
#1442=COLOUR_RGB('Default',0.752941012382507,0.752941012382507,0.752941012382507);
#1443=FILL_AREA_STYLE_COLOUR('Default',#1442);
#1444=FILL_AREA_STYLE('Default',(#1443));
#1445=SURFACE_STYLE_FILL_AREA(#1444);
#1446=SURFACE_SIDE_STYLE('Default',(#1445));
#1447=SURFACE_STYLE_USAGE(.BOTH.,#1446);
#1448=PRESENTATION_STYLE_ASSIGNMENT((#1447));
#1449=STYLED_ITEM('',(#1448),#1441);
#1450=MECHANICAL_DESIGN_GEOMETRIC_PRESENTATION_REPRESENTATION('',(#1449),#36);
#1451=ADVANCED_BREP_SHAPE_REPRESENTATION('ABSR',(#1441),#36);
#1452=SHAPE_REPRESENTATION_RELATIONSHIP('SRR','None',#1451,#41);
ENDSEC;
END-ISO-10303-21;
