ISO-10303-21;
HEADER;
/****************************************************************
 * Generated by software with PDE/Lib inside                    *
 * PDElib Version v51a, created Tue 12/06/2005                  *
 * International Technegroup Inc. (www.iti-oh.com)              *
 ****************************************************************/
FILE_DESCRIPTION((''),'2;1');
FILE_NAME('S:\\1\X2\898F683C54C156F39762FF83FF9EFF70FF80\X0\\\OpticalHard\\01_\X2\56FD518588FD54C1\X0\\\3_Bases\\RO\\RO-12\\RO-12-200\\RO-12-200.stp','2007-10-23T16:04:10',('okegawa'),(''),'Autodesk Inventor 11','Autodesk Inventor 11','');
FILE_SCHEMA(('AUTOMOTIVE_DESIGN { 1 0 10303 214 1 1 1 1 }'));
ENDSEC;
DATA;
#5=APPLICATION_CONTEXT('automotive design');
#6=APPLICATION_PROTOCOL_DEFINITION('Draft International Standard','automotive_design',1998,#5);
#7=PRODUCT_CONTEXT('None',#5,'mechanical');
#8=PRODUCT('RO-12-200-01-S01','RO-12-200-01-S01','None',(#7));
#9=PRODUCT_RELATED_PRODUCT_CATEGORY('part','description',(#8));
#10=PRODUCT_DEFINITION_FORMATION('None','None',#8);
#11=PRODUCT_DEFINITION_CONTEXT('part definition',#5,'design');
#12=PRODUCT_DEFINITION('None','None',#10,#11);
#18=(NAMED_UNIT(*)PLANE_ANGLE_UNIT()SI_UNIT($,.RADIAN.));
#19=DIMENSIONAL_EXPONENTS(0.0,0.0,0.0,0.0,0.0,0.0,0.0);
#20=PLANE_ANGLE_MEASURE_WITH_UNIT(PLANE_ANGLE_MEASURE(0.017453292500000),#18);
#24=(CONVERSION_BASED_UNIT('DEGREE',#20)NAMED_UNIT(#19)PLANE_ANGLE_UNIT());
#28=(NAMED_UNIT(*)SI_UNIT($,.STERADIAN.)SOLID_ANGLE_UNIT());
#32=(LENGTH_UNIT()NAMED_UNIT(*)SI_UNIT(.MILLI.,.METRE.));
#34=UNCERTAINTY_MEASURE_WITH_UNIT(LENGTH_MEASURE(0.010000000000000),#32,'DISTANCE_ACCURACY_VALUE','');
#36=(GEOMETRIC_REPRESENTATION_CONTEXT(3)GLOBAL_UNCERTAINTY_ASSIGNED_CONTEXT((#34))GLOBAL_UNIT_ASSIGNED_CONTEXT((#24,#28,#32))REPRESENTATION_CONTEXT('None','None'));
#37=AXIS2_PLACEMENT_3D('',#38,#39,#40);
#38=CARTESIAN_POINT('',(0.0,0.0,0.0));
#39=DIRECTION('',(0.0,0.0,1.0));
#40=DIRECTION('',(1.0,0.0,0.0));
#41=SHAPE_REPRESENTATION('',(#37),#36);
#42=PRODUCT_DEFINITION_SHAPE('','',#12);
#43=SHAPE_DEFINITION_REPRESENTATION(#42,#41);
#44=CARTESIAN_POINT('',(0.0,0.0,0.500000000000000));
#45=DIRECTION('',(0.0,0.0,1.0));
#46=DIRECTION('',(-1.0,0.0,0.0));
#47=AXIS2_PLACEMENT_3D('',#44,#45,#46);
#48=CONICAL_SURFACE('',#47,5.500000000000000,44.999999999999979);
#49=CARTESIAN_POINT('',(6.000000000000001,-7.347638E-016,1.0));
#50=VERTEX_POINT('',#49);
#51=CARTESIAN_POINT('',(0.0,0.0,1.0));
#52=DIRECTION('',(0.0,0.0,-1.0));
#53=DIRECTION('',(-1.0,0.0,0.0));
#54=AXIS2_PLACEMENT_3D('',#51,#52,#53);
#55=CIRCLE('',#54,6.000000000000001);
#56=EDGE_CURVE('',#50,#50,#55,.T.);
#57=ORIENTED_EDGE('',*,*,#56,.T.);
#58=EDGE_LOOP('',(#57));
#59=FACE_OUTER_BOUND('',#58,.T.);
#60=CARTESIAN_POINT('',(5.000000000000001,6.123032E-016,0.0));
#61=VERTEX_POINT('',#60);
#62=CARTESIAN_POINT('',(0.0,0.0,0.0));
#63=DIRECTION('',(0.0,0.0,1.0));
#64=DIRECTION('',(-1.0,0.0,0.0));
#65=AXIS2_PLACEMENT_3D('',#62,#63,#64);
#66=CIRCLE('',#65,5.000000000000001);
#67=EDGE_CURVE('',#61,#61,#66,.T.);
#68=ORIENTED_EDGE('',*,*,#67,.T.);
#69=EDGE_LOOP('',(#68));
#70=FACE_BOUND('',#69,.T.);
#71=ADVANCED_FACE('',(#59,#70),#48,.T.);
#72=CARTESIAN_POINT('',(0.0,0.0,0.0));
#73=DIRECTION('',(0.0,0.0,1.0));
#74=DIRECTION('',(-1.0,0.0,0.0));
#75=AXIS2_PLACEMENT_3D('',#72,#73,#74);
#76=CYLINDRICAL_SURFACE('',#75,6.000000000000001);
#77=CARTESIAN_POINT('',(6.000000000000001,-7.347638E-016,200.0));
#78=VERTEX_POINT('',#77);
#79=CARTESIAN_POINT('',(0.0,0.0,200.0));
#80=DIRECTION('',(0.0,0.0,-1.0));
#81=DIRECTION('',(-1.0,0.0,0.0));
#82=AXIS2_PLACEMENT_3D('',#79,#80,#81);
#83=CIRCLE('',#82,6.000000000000001);
#84=EDGE_CURVE('',#78,#78,#83,.T.);
#85=ORIENTED_EDGE('',*,*,#84,.T.);
#86=EDGE_LOOP('',(#85));
#87=FACE_OUTER_BOUND('',#86,.T.);
#88=CARTESIAN_POINT('',(0.0,-6.000000000000001,197.0));
#89=VERTEX_POINT('',#88);
#90=CARTESIAN_POINT('',(0.0,-6.000000000000001,193.0));
#91=VERTEX_POINT('',#90);
#92=CARTESIAN_POINT('',(0.0,-6.000000000000001,197.0));
#93=CARTESIAN_POINT('',(0.255778884212455,-6.000000000000001,197.0));
#94=CARTESIAN_POINT('',(0.527436396690620,-5.982011265099781,196.947900623664820));
#95=CARTESIAN_POINT('',(0.775631891084257,-5.949655046263865,196.843473669335420));
#96=CARTESIAN_POINT('',(0.967904370346511,-5.924589279335530,196.762576030722870));
#97=CARTESIAN_POINT('',(1.146613522084080,-5.891486354406581,196.650875595987170));
#98=CARTESIAN_POINT('',(1.298907986454456,-5.857716111482771,196.520801776276190));
#99=CARTESIAN_POINT('',(1.409478486662980,-5.833197868697742,196.426364152630870));
#100=CARTESIAN_POINT('',(1.506504971083174,-5.808524152253604,196.323703154746450));
#101=CARTESIAN_POINT('',(1.595433846400894,-5.783994367369185,196.206064194708740));
#102=CARTESIAN_POINT('',(1.768838607579655,-5.736163092381707,195.976676881557920));
#103=CARTESIAN_POINT('',(1.896954178114294,-5.692594454059791,195.698186128816100));
#104=CARTESIAN_POINT('',(1.957237053909814,-5.671791878657260,195.411367372068360));
#105=CARTESIAN_POINT('',(1.990500569688687,-5.660313216002040,195.253103518281450));
#106=CARTESIAN_POINT('',(2.003822648244760,-5.655503525534997,195.095399551711130));
#107=CARTESIAN_POINT('',(1.999077041677485,-5.657180479836047,194.939246552048500));
#108=CARTESIAN_POINT('',(1.991234077885854,-5.659951946808056,194.681175785973240));
#109=CARTESIAN_POINT('',(1.930056205477779,-5.682315714274473,194.410784535574580));
#110=CARTESIAN_POINT('',(1.817988198675850,-5.717947088726455,194.166382036256810));
#111=CARTESIAN_POINT('',(1.739965110971232,-5.742754078100475,193.996226090919070));
#112=CARTESIAN_POINT('',(1.637831466151192,-5.773396311265767,193.838147825205450));
#113=CARTESIAN_POINT('',(1.520960172310157,-5.804022756179224,193.701277491437740));
#114=CARTESIAN_POINT('',(1.426390456617570,-5.828805011025138,193.590524986474720));
#115=CARTESIAN_POINT('',(1.323534600369582,-5.853439048659683,193.493314385815950));
#116=CARTESIAN_POINT('',(1.205604937451988,-5.877628495812865,193.404219083084600));
#117=CARTESIAN_POINT('',(0.977103004653408,-5.924498259459129,193.231586953273340));
#118=CARTESIAN_POINT('',(0.699792838831442,-5.965924649952082,193.103813942919540));
#119=CARTESIAN_POINT('',(0.414177069545326,-5.985687709450173,193.043355587986700));
#120=CARTESIAN_POINT('',(0.275577372691723,-5.995278055467066,193.014017188055530));
#121=CARTESIAN_POINT('',(0.135505399063207,-6.000000000000001,193.0));
#122=CARTESIAN_POINT('',(0.0,-6.000000000000001,193.0));
#123=B_SPLINE_CURVE_WITH_KNOTS('',3,(#92,#93,#94,#95,#96,#97,#98,#99,#100,#101,#102,#103,#104,#105,#106,#107,#108,#109,#110,#111,#112,#113,#114,#115,#116,#117,#118,#119,#120,#121,#122),.UNSPECIFIED.,.F.,.U.,(4,3,3,3,3,3,3,3,3,3,4),(0.303880058730296,0.380613723994032,0.440057881508588,0.483216181831796,0.567371690756081,0.613807897755848,0.690552036773038,0.743982224925991,0.787216774120757,0.870988556471926,0.911640176190888),.UNSPECIFIED.);
#124=EDGE_CURVE('',#89,#91,#123,.T.);
#125=ORIENTED_EDGE('',*,*,#124,.T.);
#126=CARTESIAN_POINT('',(0.0,-6.000000000000001,193.0));
#127=CARTESIAN_POINT('',(-0.255778884212308,-6.000000000000001,193.0));
#128=CARTESIAN_POINT('',(-0.527436396690359,-5.982011265099799,193.052099376335120));
#129=CARTESIAN_POINT('',(-0.775631891083859,-5.949655046263917,193.156526330664410));
#130=CARTESIAN_POINT('',(-0.967904370351144,-5.924589279334939,193.237423969279010));
#131=CARTESIAN_POINT('',(-1.146613522093017,-5.891486354404917,193.349124404018450));
#132=CARTESIAN_POINT('',(-1.298907986466062,-5.857716111480198,193.479198223733730));
#133=CARTESIAN_POINT('',(-1.409478486670799,-5.833197868695779,193.573635847377290));
#134=CARTESIAN_POINT('',(-1.506504971088132,-5.808524152252277,193.676296845259600));
#135=CARTESIAN_POINT('',(-1.595433846403389,-5.783994367368496,193.793935805294550));
#136=CARTESIAN_POINT('',(-1.768838607581894,-5.736163092381008,194.023323118446030));
#137=CARTESIAN_POINT('',(-1.896954178115932,-5.692594454059237,194.301813871188300));
#138=CARTESIAN_POINT('',(-1.957237053910793,-5.671791878656921,194.588632627936310));
#139=CARTESIAN_POINT('',(-1.990500569689488,-5.660313216001756,194.746896481724240));
#140=CARTESIAN_POINT('',(-2.003822648245150,-5.655503525534860,194.904600448295180));
#141=CARTESIAN_POINT('',(-1.999077041677258,-5.657180479836127,195.060753447958940));
#142=CARTESIAN_POINT('',(-1.991234077884657,-5.659951946808477,195.318824214034460));
#143=CARTESIAN_POINT('',(-1.930056205475488,-5.682315714275271,195.589215464432870));
#144=CARTESIAN_POINT('',(-1.817988198672664,-5.717947088727469,195.833617963750130));
#145=CARTESIAN_POINT('',(-1.739965110965387,-5.742754078102286,196.003773909091960));
#146=CARTESIAN_POINT('',(-1.637831466141512,-5.773396311268600,196.161852174808810));
#147=CARTESIAN_POINT('',(-1.520960172296351,-5.804022756182842,196.298722508578440));
#148=CARTESIAN_POINT('',(-1.426390456606509,-5.828805011027797,196.409475013535850));
#149=CARTESIAN_POINT('',(-1.323534600361688,-5.853439048661379,196.506685614190450));
#150=CARTESIAN_POINT('',(-1.205604937448349,-5.877628495813611,196.595780916918160));
#151=CARTESIAN_POINT('',(-0.977103004649142,-5.924498259459855,196.768413046729080));
#152=CARTESIAN_POINT('',(-0.699792838826688,-5.965924649952647,196.896186057082190));
#153=CARTESIAN_POINT('',(-0.414177069540408,-5.985687709450513,196.956644412014330));
#154=CARTESIAN_POINT('',(-0.275577372688414,-5.995278055467181,196.985982811944780));
#155=CARTESIAN_POINT('',(-0.135505399061610,-6.000000000000001,197.0));
#156=CARTESIAN_POINT('',(0.0,-6.000000000000001,197.0));
#157=B_SPLINE_CURVE_WITH_KNOTS('',3,(#126,#127,#128,#129,#130,#131,#132,#133,#134,#135,#136,#137,#138,#139,#140,#141,#142,#143,#144,#145,#146,#147,#148,#149,#150,#151,#152,#153,#154,#155,#156),.UNSPECIFIED.,.F.,.U.,(4,3,3,3,3,3,3,3,3,3,4),(0.911640176190888,0.988373841454580,1.047817998970690,1.090976299292791,1.175131808217127,1.221568015217181,1.298312154234354,1.351742342388691,1.394976891581795,1.478748673932997,1.519400293651480),.UNSPECIFIED.);
#158=EDGE_CURVE('',#91,#89,#157,.T.);
#159=ORIENTED_EDGE('',*,*,#158,.T.);
#160=EDGE_LOOP('',(#125,#159));
#161=FACE_BOUND('',#160,.T.);
#162=CARTESIAN_POINT('',(-2.000000000000000,5.656854249492382,195.0));
#163=VERTEX_POINT('',#162);
#164=CARTESIAN_POINT('',(-2.000000000000000,5.656854249492382,195.0));
#165=CARTESIAN_POINT('',(-2.000000000000000,5.656854249492382,194.717400347224380));
#166=CARTESIAN_POINT('',(-1.935745142288336,5.680713954722865,194.416012817362340));
#167=CARTESIAN_POINT('',(-1.809181936908131,5.720739525547843,194.147438729964020));
#168=CARTESIAN_POINT('',(-1.730087853724985,5.745753002559376,193.979596732396830));
#169=CARTESIAN_POINT('',(-1.627511549668100,5.776308932999264,193.824023426739610));
#170=CARTESIAN_POINT('',(-1.510820048435457,5.806670541820458,193.689495218915450));
#171=CARTESIAN_POINT('',(-1.418129000434814,5.830787545294529,193.582636018055500));
#172=CARTESIAN_POINT('',(-1.317423119238748,5.854756916217778,193.488340979311690));
#173=CARTESIAN_POINT('',(-1.202406944610914,5.878283553857491,193.401808040455880));
#174=CARTESIAN_POINT('',(-0.999698961452272,5.919747611255348,193.249299773083830));
#175=CARTESIAN_POINT('',(-0.759144525005221,5.957112793912419,193.131555112200430));
#176=CARTESIAN_POINT('',(-0.508070881650346,5.978449964599441,193.065610179095470));
#177=CARTESIAN_POINT('',(-0.352426305481395,5.991677218738307,193.024729857981470));
#178=CARTESIAN_POINT('',(-0.193100517845935,5.998873545887526,193.003379899480050));
#179=CARTESIAN_POINT('',(-0.038923252533578,5.999873747039367,193.000378790767570));
#180=CARTESIAN_POINT('',(0.114250670728137,6.000867439164908,192.997397212422040));
#181=CARTESIAN_POINT('',(0.270279162342715,5.995940095651980,193.011954265085820));
#182=CARTESIAN_POINT('',(0.425925423609921,5.984863200902985,193.045879345198270));
#183=CARTESIAN_POINT('',(0.651269504744999,5.968826113672492,193.094995950654350));
#184=CARTESIAN_POINT('',(0.871287187892667,5.939678307415555,193.185203541084550));
#185=CARTESIAN_POINT('',(1.065432872110288,5.904646712126546,193.307412396646240));
#186=CARTESIAN_POINT('',(1.187274968964313,5.882661556786342,193.384108323603240));
#187=CARTESIAN_POINT('',(1.298904257746534,5.858583933357700,193.473040108617200));
#188=CARTESIAN_POINT('',(1.396921395566978,5.835118731834617,193.568703170335650));
#189=CARTESIAN_POINT('',(1.496673580440716,5.811238161839622,193.666059608508820));
#190=CARTESIAN_POINT('',(1.588498097783439,5.786509141315455,193.776077674917790));
#191=CARTESIAN_POINT('',(1.668944018631170,5.763213154367557,193.897899340951450));
#192=CARTESIAN_POINT('',(1.828164846987782,5.717105082011099,194.139012207499120));
#193=CARTESIAN_POINT('',(1.936850160679500,5.678959846929510,194.423828823822280));
#194=CARTESIAN_POINT('',(1.978788663320535,5.664308909824229,194.709491091506410));
#195=CARTESIAN_POINT('',(2.008328350847024,5.653989416356267,194.910699374923780));
#196=CARTESIAN_POINT('',(2.007504650367262,5.654292923366587,195.106777918164170));
#197=CARTESIAN_POINT('',(1.976140756179999,5.665233244250792,195.308006025532530));
#198=CARTESIAN_POINT('',(1.931812670052924,5.680695721056679,195.592411298084300));
#199=CARTESIAN_POINT('',(1.821293075607544,5.719319268720618,195.874903027204650));
#200=CARTESIAN_POINT('',(1.661305231771621,5.765419752879079,196.113582025217820));
#201=CARTESIAN_POINT('',(1.578029533580356,5.789415638523918,196.237817465402400));
#202=CARTESIAN_POINT('',(1.483623413150546,5.814659386034734,196.348876123116950));
#203=CARTESIAN_POINT('',(1.379703781787416,5.839213771949227,196.447901058263820));
#204=CARTESIAN_POINT('',(1.175552905922905,5.887451042665119,196.642436267612480));
#205=CARTESIAN_POINT('',(0.913189955965557,5.936947524824721,196.804243414451380));
#206=CARTESIAN_POINT('',(0.629699654914183,5.966865034890681,196.898282999081260));
#207=CARTESIAN_POINT('',(0.455569355561081,5.985241483624075,196.956045613752420));
#208=CARTESIAN_POINT('',(0.273787933985930,5.996351360126195,196.989043810418990));
#209=CARTESIAN_POINT('',(0.097205713596864,5.999212535762017,196.997636365619140));
#210=CARTESIAN_POINT('',(-0.034714187973809,6.001350044325577,197.004055636108260));
#211=CARTESIAN_POINT('',(-0.165383804611209,5.999209525963022,196.997718128394300));
#212=CARTESIAN_POINT('',(-0.298884381295977,5.992551053317555,196.977540929188900));
#213=CARTESIAN_POINT('',(-0.565225867575407,5.979267009571943,196.937286232476910));
#214=CARTESIAN_POINT('',(-0.830659943475580,5.946786184810717,196.839321587435280));
#215=CARTESIAN_POINT('',(-1.059938145570785,5.905635539682750,196.696033940569580));
#216=CARTESIAN_POINT('',(-1.186400222109412,5.882938240130367,196.617001336513110));
#217=CARTESIAN_POINT('',(-1.301971595355512,5.857955583741394,196.524768680481400));
#218=CARTESIAN_POINT('',(-1.402890700123803,5.833686457421769,196.425446485669000));
#219=CARTESIAN_POINT('',(-1.502865446858135,5.809644431257954,196.327053705686810));
#220=CARTESIAN_POINT('',(-1.595237813558884,5.784654436906586,196.215278840254710));
#221=CARTESIAN_POINT('',(-1.675635911661056,5.761271065620141,196.091899396259460));
#222=CARTESIAN_POINT('',(-1.833146048659352,5.715460056382965,195.850183316088390));
#223=CARTESIAN_POINT('',(-1.939868939757361,5.677916589135909,195.565446529014140));
#224=CARTESIAN_POINT('',(-1.980231651848221,5.663804605123527,195.280504197862460));
#225=CARTESIAN_POINT('',(-1.993595269882804,5.659132293619110,195.186163151928210));
#226=CARTESIAN_POINT('',(-2.000000000000000,5.656854249492382,195.092047576164960));
#227=CARTESIAN_POINT('',(-2.000000000000000,5.656854249492382,195.0));
#228=B_SPLINE_CURVE_WITH_KNOTS('',3,(#164,#165,#166,#167,#168,#169,#170,#171,#172,#173,#174,#175,#176,#177,#178,#179,#180,#181,#182,#183,#184,#185,#186,#187,#188,#189,#190,#191,#192,#193,#194,#195,#196,#197,#198,#199,#200,#201,#202,#203,#204,#205,#206,#207,#208,#209,#210,#211,#212,#213,#214,#215,#216,#217,#218,#219,#220,#221,#222,#223,#224,#225,#226,#227),.UNSPECIFIED.,.T.,.U.,(4,3,3,3,3,3,3,3,3,3,3,3,3,3,3,3,3,3,3,3,3,4),(0.0,0.084779895832687,0.137762025299974,0.179847087654582,0.254019073800118,0.299999476971764,0.345680652680048,0.411817689839463,0.453324022157328,0.495565077414288,0.579169761626941,0.638057325365950,0.721285925158142,0.764607465038911,0.849712946981528,0.901987903099241,0.941041138756069,1.018954636114369,1.061929077540885,1.104501382433302,1.187905962071695,1.215520234921184),.UNSPECIFIED.);
#229=EDGE_CURVE('',#163,#163,#228,.T.);
#230=ORIENTED_EDGE('',*,*,#229,.T.);
#231=EDGE_LOOP('',(#230));
#232=FACE_BOUND('',#231,.T.);
#233=ORIENTED_EDGE('',*,*,#56,.F.);
#234=EDGE_LOOP('',(#233));
#235=FACE_BOUND('',#234,.T.);
#236=ADVANCED_FACE('',(#87,#161,#232,#235),#76,.T.);
#237=CARTESIAN_POINT('',(0.0,0.0,0.0));
#238=DIRECTION('',(0.0,0.0,-1.0));
#239=DIRECTION('',(-1.0,0.0,0.0));
#240=AXIS2_PLACEMENT_3D('',#237,#238,#239);
#241=PLANE('',#240);
#242=ORIENTED_EDGE('',*,*,#67,.F.);
#243=EDGE_LOOP('',(#242));
#244=FACE_OUTER_BOUND('',#243,.T.);
#245=ADVANCED_FACE('',(#244),#241,.T.);
#246=CARTESIAN_POINT('',(0.0,0.0,204.750000000000000));
#247=DIRECTION('',(0.0,0.0,-1.0));
#248=DIRECTION('',(-1.0,0.0,0.0));
#249=AXIS2_PLACEMENT_3D('',#246,#247,#248);
#250=CONICAL_SURFACE('',#249,2.750000000000000,44.999999999999588);
#251=CARTESIAN_POINT('',(3.000000000000000,3.673819E-016,204.500000000000000));
#252=VERTEX_POINT('',#251);
#253=CARTESIAN_POINT('',(0.0,0.0,204.500000000000000));
#254=DIRECTION('',(0.0,0.0,1.0));
#255=DIRECTION('',(-1.0,0.0,0.0));
#256=AXIS2_PLACEMENT_3D('',#253,#254,#255);
#257=CIRCLE('',#256,3.000000000000000);
#258=EDGE_CURVE('',#252,#252,#257,.T.);
#259=ORIENTED_EDGE('',*,*,#258,.T.);
#260=EDGE_LOOP('',(#259));
#261=FACE_OUTER_BOUND('',#260,.T.);
#262=CARTESIAN_POINT('',(2.500000000000000,-3.061516E-016,205.0));
#263=VERTEX_POINT('',#262);
#264=CARTESIAN_POINT('',(0.0,0.0,205.0));
#265=DIRECTION('',(0.0,0.0,-1.0));
#266=DIRECTION('',(-1.0,0.0,0.0));
#267=AXIS2_PLACEMENT_3D('',#264,#265,#266);
#268=CIRCLE('',#267,2.500000000000000);
#269=EDGE_CURVE('',#263,#263,#268,.T.);
#270=ORIENTED_EDGE('',*,*,#269,.T.);
#271=EDGE_LOOP('',(#270));
#272=FACE_BOUND('',#271,.T.);
#273=ADVANCED_FACE('',(#261,#272),#250,.T.);
#274=CARTESIAN_POINT('',(0.0,0.0,205.0));
#275=DIRECTION('',(0.0,0.0,-1.0));
#276=DIRECTION('',(-1.0,0.0,0.0));
#277=AXIS2_PLACEMENT_3D('',#274,#275,#276);
#278=CYLINDRICAL_SURFACE('',#277,3.000000000000000);
#279=CARTESIAN_POINT('',(3.000000000000000,3.673819E-016,201.200000000000020));
#280=VERTEX_POINT('',#279);
#281=CARTESIAN_POINT('',(0.0,0.0,201.200000000000020));
#282=DIRECTION('',(0.0,0.0,1.0));
#283=DIRECTION('',(-1.0,0.0,0.0));
#284=AXIS2_PLACEMENT_3D('',#281,#282,#283);
#285=CIRCLE('',#284,3.000000000000000);
#286=EDGE_CURVE('',#280,#280,#285,.T.);
#287=ORIENTED_EDGE('',*,*,#286,.T.);
#288=EDGE_LOOP('',(#287));
#289=FACE_OUTER_BOUND('',#288,.T.);
#290=ORIENTED_EDGE('',*,*,#258,.F.);
#291=EDGE_LOOP('',(#290));
#292=FACE_BOUND('',#291,.T.);
#293=ADVANCED_FACE('',(#289,#292),#278,.T.);
#294=CARTESIAN_POINT('',(0.0,0.0,205.0));
#295=DIRECTION('',(0.0,0.0,-1.0));
#296=DIRECTION('',(-1.0,0.0,0.0));
#297=AXIS2_PLACEMENT_3D('',#294,#295,#296);
#298=PLANE('',#297);
#299=ORIENTED_EDGE('',*,*,#269,.F.);
#300=EDGE_LOOP('',(#299));
#301=FACE_OUTER_BOUND('',#300,.T.);
#302=ADVANCED_FACE('',(#301),#298,.F.);
#303=CARTESIAN_POINT('',(3.673819E-016,199.701239665685990,195.0));
#304=DIRECTION('',(0.0,1.0,0.0));
#305=DIRECTION('',(-1.0,0.0,0.0));
#306=AXIS2_PLACEMENT_3D('',#303,#304,#305);
#307=CYLINDRICAL_SURFACE('',#306,2.0);
#308=ORIENTED_EDGE('',*,*,#124,.F.);
#309=ORIENTED_EDGE('',*,*,#158,.F.);
#310=EDGE_LOOP('',(#308,#309));
#311=FACE_OUTER_BOUND('',#310,.T.);
#312=ORIENTED_EDGE('',*,*,#229,.F.);
#313=EDGE_LOOP('',(#312));
#314=FACE_BOUND('',#313,.T.);
#315=ADVANCED_FACE('',(#311,#314),#307,.F.);
#316=CARTESIAN_POINT('',(0.0,0.0,201.200000000000020));
#317=DIRECTION('',(0.0,0.0,-1.0));
#318=DIRECTION('',(-1.0,0.0,0.0));
#319=AXIS2_PLACEMENT_3D('',#316,#317,#318);
#320=CYLINDRICAL_SURFACE('',#319,2.500000000000000);
#321=CARTESIAN_POINT('',(2.500000000000000,3.061516E-016,201.200000000000020));
#322=VERTEX_POINT('',#321);
#323=CARTESIAN_POINT('',(0.0,0.0,201.200000000000020));
#324=DIRECTION('',(0.0,0.0,-1.0));
#325=DIRECTION('',(-1.0,0.0,0.0));
#326=AXIS2_PLACEMENT_3D('',#323,#324,#325);
#327=CIRCLE('',#326,2.500000000000000);
#328=EDGE_CURVE('',#322,#322,#327,.T.);
#329=ORIENTED_EDGE('',*,*,#328,.T.);
#330=EDGE_LOOP('',(#329));
#331=FACE_OUTER_BOUND('',#330,.T.);
#332=CARTESIAN_POINT('',(2.500000000000000,3.061516E-016,200.0));
#333=VERTEX_POINT('',#332);
#334=CARTESIAN_POINT('',(0.0,0.0,200.0));
#335=DIRECTION('',(0.0,0.0,1.0));
#336=DIRECTION('',(-1.0,0.0,0.0));
#337=AXIS2_PLACEMENT_3D('',#334,#335,#336);
#338=CIRCLE('',#337,2.500000000000000);
#339=EDGE_CURVE('',#333,#333,#338,.T.);
#340=ORIENTED_EDGE('',*,*,#339,.T.);
#341=EDGE_LOOP('',(#340));
#342=FACE_BOUND('',#341,.T.);
#343=ADVANCED_FACE('',(#331,#342),#320,.T.);
#344=CARTESIAN_POINT('',(0.0,0.0,201.200000000000020));
#345=DIRECTION('',(0.0,0.0,-1.0));
#346=DIRECTION('',(-1.0,0.0,0.0));
#347=AXIS2_PLACEMENT_3D('',#344,#345,#346);
#348=PLANE('',#347);
#349=ORIENTED_EDGE('',*,*,#286,.F.);
#350=EDGE_LOOP('',(#349));
#351=FACE_OUTER_BOUND('',#350,.T.);
#352=ORIENTED_EDGE('',*,*,#328,.F.);
#353=EDGE_LOOP('',(#352));
#354=FACE_BOUND('',#353,.T.);
#355=ADVANCED_FACE('',(#351,#354),#348,.T.);
#356=CARTESIAN_POINT('',(0.0,0.0,200.0));
#357=DIRECTION('',(0.0,0.0,1.0));
#358=DIRECTION('',(1.0,0.0,0.0));
#359=AXIS2_PLACEMENT_3D('',#356,#357,#358);
#360=PLANE('',#359);
#361=ORIENTED_EDGE('',*,*,#84,.F.);
#362=EDGE_LOOP('',(#361));
#363=FACE_OUTER_BOUND('',#362,.T.);
#364=ORIENTED_EDGE('',*,*,#339,.F.);
#365=EDGE_LOOP('',(#364));
#366=FACE_BOUND('',#365,.T.);
#367=ADVANCED_FACE('',(#363,#366),#360,.T.);
#368=CLOSED_SHELL('',(#71,#236,#245,#273,#293,#302,#315,#343,#355,#367));
#369=MANIFOLD_SOLID_BREP('',#368);
#370=COLOUR_RGB('Default',0.752941012382507,0.752941012382507,0.752941012382507);
#371=FILL_AREA_STYLE_COLOUR('Default',#370);
#372=FILL_AREA_STYLE('Default',(#371));
#373=SURFACE_STYLE_FILL_AREA(#372);
#374=SURFACE_SIDE_STYLE('Default',(#373));
#375=SURFACE_STYLE_USAGE(.BOTH.,#374);
#376=PRESENTATION_STYLE_ASSIGNMENT((#375));
#377=STYLED_ITEM('',(#376),#369);
#378=MECHANICAL_DESIGN_GEOMETRIC_PRESENTATION_REPRESENTATION('',(#377),#36);
#379=ADVANCED_BREP_SHAPE_REPRESENTATION('ABSR',(#369),#36);
#380=SHAPE_REPRESENTATION_RELATIONSHIP('SRR','None',#379,#41);
ENDSEC;
END-ISO-10303-21;
