  0
SECTION
  2
HEADER
  9
$ACADVER
  1
AC1006
  9
$INSBASE
 10
-120.213047
 20
-91.295197
 30
0.0
  9
$EXTMIN
 10
-120.213047
 20
-91.295197
  9
$EXTMAX
 10
193.775504
 20
130.716910
  9
$LIMMIN
 10
-120.213047
 20
-91.295197
  9
$LIMMAX
 10
193.775504
 20
130.716910
  9
$VIEWCTR
 10
36.781228
 20
19.710856
  9
$VIEWSIZE
 40
222.012107
  9
$SNAPMODE
 70
     0
  9
$SNAPUNIT
 10
1.0
 20
1.0
  9
$SNAPBASE
 10
0.0
 20
0.0
  9
$SNAPANG
 50
0.0
  9
$SNAPSTYLE
 70
     0
  9
$SNAPISOPAIR
 70
     0
  9
$GRIDMODE
 70
     0
  9
$GRIDUNIT
 10
0.0
 20
0.0
  9
$ORTHOMODE
 70
     0
  9
$REGENMODE
 70
     1
  9
$FILLMODE
 70
     1
  9
$QTEXTMODE
 70
     0
  9
$DRAGMODE
 70
     2
  9
$LTSCALE
 40
15.000000
  9
$OSMODE
 70
     0
  9
$ATTMODE
 70
     1
  9
$TEXTSIZE
 40
0.2
  9
$TRACEWID
 40
0.05
  9
$TEXTSTYLE
  7
STANDARD
  9
$CLAYER
  8
CSLAYER1
  9
$CELTYPE
  6
BYLAYER
  9
$CECOLOR
 62
   256
  9
$DIMSCALE
 40
1.0
  9
$DIMASZ
 40
0.18
  9
$DIMEXO
 40
0.0625
  9
$DIMDLI
 40
0.38
  9
$DIMRND
 40
0.0
  9
$DIMDLE
 40
0.0
  9
$DIMEXE
 40
0.18
  9
$DIMTP
 40
0.0
  9
$DIMTM
 40
0.0
  9
$DIMTXT
 40
0.18
  9
$DIMCEN
 40
0.09
  9
$DIMTSZ
 40
0.0
  9
$DIMTOL
 70
     0
  9
$DIMLIM
 70
     0
  9
$DIMTIH
 70
     1
  9
$DIMTOH
 70
     1
  9
$DIMSE1
 70
     0
  9
$DIMSE2
 70
     0
  9
$DIMTAD
 70
     0
  9
$DIMZIN
 70
     0
  9
$DIMBLK
  1

  9
$LUNITS
 70
     2
  9
$LUPREC
 70
     4
  9
$AXISMODE
 70
     0
  9
$AXISUNIT
 10
0.0
 20
0.0
  9
$SKETCHINC
 40
0.1
  9
$FILLETRAD
 40
0.0
  9
$AUNITS
 70
     0
  9
$AUPREC
 70
     0
  9
$MENU
  1
ACAD
  9
$ELEVATION
 40
0.0
  9
$THICKNESS
 40
0.0
  9
$VIEWDIR
 10
0.0
 20
0.0
 30
1.0
  9
$LIMCHECK
 70
     0
  9
$BLIPMODE
 70
     1
  9
$CHAMFERA
 40
0.0
  9
$CHAMFERB
 40
0.0
  9
$FASTZOOM
 70
     1
  9
$SKPOLY
 70
     0
  9
$TDCREATE
 40
2451766.000000
  9
$TDUPDATE
 40
2451788.000000
  9
$TDINDWG
 40
0.0
  9
$TDUSRTIMER
 40
0.0
  9
$USRTIMER
 70
     1
  9
$ANGBASE
 50
0.0
  9
$ANGDIR
 70
     0
  9
$PDMODE
 70
     0
  9
$PDSIZE
 40
0.0
  9
$PLINEWID
 40
0.0
  9
$COORDS
 70
     0
  9
$USERI1
 70
     0
  9
$USERI2
 70
     0
  9
$USERI3
 70
     0
  9
$USERI4
 70
     0
  9
$USERI5
 70
     0
  9
$USERR1
 40
0.0
  9
$USERR2
 40
0.0
  9
$USERR3
 40
0.0
  9
$USERR4
 40
0.0
  9
$USERR5
 40
0.0
  0
ENDSEC
  0
SECTION
  2
TABLES
  0
TABLE
  2
LTYPE
 70
     9
  0
LTYPE
  2
CONTINUOUS
 70
    64
  3
Solid line
 72
    65
 73
     0
 40
0.0
  0
LTYPE
  2
DASHED
 70
    64
  3
__ __ __ __ __ __ __ __ __ __ __ __ __ __ __
 72
    65
 73
     2
 40
0.75
 49
0.5
 49
-0.25
  0
LTYPE
  2
HIDDEN
 70
    64
  3
_ _ _ _ _ _ _ _ _ _ _ _ _ _ _ _ _ _ _ _ _ _ _
 72
    65
 73
     2
 40
0.375
 49
0.25
 49
-0.125
  0
LTYPE
  2
DOT
 70
    64
  3
...............................................
 72
    65
 73
     2
 40
0.25
 49
0.0
 49
-0.25
  0
LTYPE
  2
DASHDOT
 70
    64
  3
__ . __ . __ . __ . __ . __ . __ . __ . __ . __
 72
    65
 73
     4
 40
1.0
 49
0.5
 49
-0.25
 49
0.0
 49
-0.25
  0
LTYPE
  2
DIVIDE
 70
    64
  3
__ . . __ . . __ . . __ . . __ . . __ . . __
 72
    65
 73
     6
 40
1.25
 49
0.5
 49
-0.25
 49
0.0
 49
-0.25
 49
0.0
 49
-0.25
  0
LTYPE
  2
CENTER
 70
    64
  3
____ _ ____ _ ____ _ ____ _ ____ _ ____ _ ____ 
 72
    65
 73
     4
 40
2.0
 49
1.25
 49
-0.25
 49
0.25
 49
-0.25
  0
LTYPE
  2
PHANTOM
 70
    64
  3
______  __  __  ______  __  __  ______  __  __ 
 72
    65
 73
     6
 40
2.5
 49
1.25
 49
-0.25
 49
0.25
 49
-0.25
 49
0.25
 49
-0.25
  0
LTYPE
  2
BORDER
 70
    64
  3
__ __ . __ __ . __ __ . __ __ . __ __ . __ __ .
 72
    65
 73
     6
 40
1.75
 49
0.5
 49
-0.25
 49
0.5
 49
-0.25
 49
0.0
 49
-0.25
  0
ENDTAB
  0
TABLE
  2
LAYER
 70
    16
  0
LAYER
  2
CSLAYER1
 70
    64
 62
     7
  6
CONTINUOUS
  0
LAYER
  2
CSLAYER2
 70
    64
 62
     7
  6
CONTINUOUS
  0
LAYER
  2
CSLAYER3
 70
    64
 62
     7
  6
CONTINUOUS
  0
LAYER
  2
CSLAYER4
 70
    64
 62
     7
  6
CONTINUOUS
  0
LAYER
  2
CSLAYER5
 70
    64
 62
     7
  6
CONTINUOUS
  0
LAYER
  2
CSLAYER6
 70
    64
 62
     7
  6
CONTINUOUS
  0
LAYER
  2
CSLAYER7
 70
    64
 62
     7
  6
CONTINUOUS
  0
LAYER
  2
CSLAYER8
 70
    64
 62
     7
  6
CONTINUOUS
  0
LAYER
  2
CSLAYER9
 70
    64
 62
     7
  6
CONTINUOUS
  0
LAYER
  2
CSLAYER10
 70
    64
 62
     7
  6
CONTINUOUS
  0
LAYER
  2
CSLAYER11
 70
    64
 62
     7
  6
CONTINUOUS
  0
LAYER
  2
CSLAYER12
 70
    64
 62
     7
  6
CONTINUOUS
  0
LAYER
  2
CSLAYER13
 70
    64
 62
     7
  6
CONTINUOUS
  0
LAYER
  2
CSLAYER14
 70
    64
 62
     7
  6
CONTINUOUS
  0
LAYER
  2
CSLAYER15
 70
    64
 62
     7
  6
CONTINUOUS
  0
LAYER
  2
CSLAYER16
 70
    64
 62
     7
  6
CONTINUOUS
  0
ENDTAB
  0
TABLE
  2
STYLE
 70
     1
  0
STYLE
  2
FX_FONT
 70
     0
 40
1.0
 41
1.0
 50
0.0
 71
     0
 42
1.0
  3
monotxt
  4
bigfont
  0
ENDTAB
  0
TABLE
  2
VIEW
 70
     0
  0
ENDTAB
  0
ENDSEC
  0
SECTION
  2
BLOCKS
  0
BLOCK
  8
CSLAYER1
  2
BLKF0000
 70
   64
 10
0.0
 20
0.0
 30
0.0
  0
LINE
  8
CSLAYER1
  6
CONTINUOUS
 62
     7
 10
32.295375
 20
71.429595
 11
38.420375
 21
71.429595
  0
LINE
  8
CSLAYER1
  6
CONTINUOUS
 62
     7
 10
33.170375
 20
70.429595
 11
38.420375
 21
70.429595
  0
LINE
  8
CSLAYER1
  6
CONTINUOUS
 62
     7
 10
34.045375
 20
69.429595
 11
38.420375
 21
69.429595
  0
LINE
  8
CSLAYER1
  6
CONTINUOUS
 62
     7
 10
34.920375
 20
68.429595
 11
38.420375
 21
68.429595
  0
LINE
  8
CSLAYER1
  6
CONTINUOUS
 62
     7
 10
35.795375
 20
67.429595
 11
38.420375
 21
67.429595
  0
LINE
  8
CSLAYER1
  6
CONTINUOUS
 62
     7
 10
36.670375
 20
66.429595
 11
38.420375
 21
66.429595
  0
LINE
  8
CSLAYER1
  6
CONTINUOUS
 62
     7
 10
37.545375
 20
65.429595
 11
38.420375
 21
65.429595
  0
ENDBLK
  8
0
  0
BLOCK
  8
CSLAYER1
  2
BLKF0001
 70
   64
 10
0.0
 20
0.0
 30
0.0
  0
LINE
  8
CSLAYER1
  6
CONTINUOUS
 62
     7
 10
29.220375
 20
105.179660
 11
32.420375
 21
105.179660
  0
LINE
  8
CSLAYER1
  6
CONTINUOUS
 62
     7
 10
30.020375
 20
104.179660
 11
32.420375
 21
104.179660
  0
LINE
  8
CSLAYER1
  6
CONTINUOUS
 62
     7
 10
30.820375
 20
103.179660
 11
32.420375
 21
103.179660
  0
LINE
  8
CSLAYER1
  6
CONTINUOUS
 62
     7
 10
31.620375
 20
102.179660
 11
32.420375
 21
102.179660
  0
ENDBLK
  8
0
  0
ENDSEC
  0
SECTION
  2
ENTITIES
  0
LINE
  8
CSLAYER1
  6
CONTINUOUS
 62
     3
 10
-5.079625
 20
-45.570405
 11
-5.079625
 21
73.929595
  0
LINE
  8
CSLAYER1
  6
CONTINUOUS
 62
     3
 10
-5.079625
 20
73.929595
 11
-4.579625
 21
74.429595
  0
LINE
  8
CSLAYER1
  6
CONTINUOUS
 62
     3
 10
-4.579625
 20
74.429595
 11
24.420375
 21
74.429595
  0
LINE
  8
CSLAYER1
  6
CONTINUOUS
 62
     3
 10
24.420375
 20
74.429595
 11
24.920375
 21
73.929595
  0
LINE
  8
CSLAYER1
  6
CONTINUOUS
 62
     3
 10
24.920375
 20
73.929595
 11
24.920375
 21
-45.570405
  0
LINE
  8
CSLAYER1
  6
CONTINUOUS
 62
     3
 10
24.920375
 20
-45.570405
 11
-5.079625
 21
-45.570405
  0
LINE
  8
CSLAYER1
  6
CONTINUOUS
 62
     3
 10
1.920375
 20
-47.070405
 11
1.920375
 21
-50.570405
  0
LINE
  8
CSLAYER1
  6
CONTINUOUS
 62
     3
 10
1.920375
 20
-50.570405
 11
17.920375
 21
-50.570405
  0
LINE
  8
CSLAYER1
  6
CONTINUOUS
 62
     3
 10
17.920375
 20
-50.570405
 11
17.920375
 21
-47.070405
  0
LINE
  8
CSLAYER1
  6
CONTINUOUS
 62
     3
 10
17.920375
 20
-47.070405
 11
1.920375
 21
-47.070405
  0
LINE
  8
CSLAYER1
  6
CONTINUOUS
 62
     3
 10
2.920375
 20
-47.070405
 11
2.920375
 21
-45.570405
  0
LINE
  8
CSLAYER1
  6
CONTINUOUS
 62
     3
 10
16.920375
 20
-45.570405
 11
16.920375
 21
-47.070405
  0
LINE
  8
CSLAYER1
  6
CONTINUOUS
 62
     3
 10
31.420375
 20
56.429595
 11
30.920375
 21
56.929595
  0
LINE
  8
CSLAYER1
  6
CONTINUOUS
 62
     3
 10
30.920375
 20
56.929595
 11
30.920375
 21
71.929595
  0
LINE
  8
CSLAYER1
  6
CONTINUOUS
 62
     3
 10
30.920375
 20
71.929595
 11
31.420375
 21
72.429595
  0
LINE
  8
CSLAYER1
  6
CONTINUOUS
 62
     3
 10
31.420375
 20
72.429595
 11
38.420375
 21
72.429595
  0
LINE
  8
CSLAYER1
  6
CONTINUOUS
 62
     3
 10
38.420375
 20
72.429595
 11
38.920375
 21
71.929595
  0
LINE
  8
CSLAYER1
  6
CONTINUOUS
 62
     3
 10
38.920375
 20
71.929595
 11
38.920375
 21
56.929595
  0
LINE
  8
CSLAYER1
  6
CONTINUOUS
 62
     3
 10
38.920375
 20
56.929595
 11
38.420375
 21
56.429595
  0
LINE
  8
CSLAYER1
  6
CONTINUOUS
 62
     3
 10
38.420375
 20
56.429595
 11
31.420375
 21
56.429595
  0
LINE
  8
CSLAYER1
  6
CONTINUOUS
 62
     3
 10
31.420375
 20
56.429595
 11
31.420375
 21
72.429595
  0
LINE
  8
CSLAYER1
  6
CONTINUOUS
 62
     3
 10
30.920375
 20
70.429595
 11
27.920375
 21
70.429595
  0
LINE
  8
CSLAYER1
  6
CONTINUOUS
 62
     3
 10
27.920375
 20
70.429595
 11
27.920375
 21
58.429595
  0
LINE
  8
CSLAYER1
  6
CONTINUOUS
 62
     3
 10
27.920375
 20
58.429595
 11
30.920375
 21
58.429595
  0
LINE
  8
CSLAYER1
  6
CONTINUOUS
 62
     3
 10
38.420375
 20
56.429595
 11
38.420375
 21
72.429595
  0
LINE
  8
CSLAYER1
  6
CONTINUOUS
 62
     3
 10
27.920375
 20
66.929595
 11
24.920375
 21
66.929595
  0
LINE
  8
CSLAYER1
  6
CONTINUOUS
 62
     3
 10
27.420375
 20
66.929595
 11
27.420375
 21
61.929595
  0
LINE
  8
CSLAYER1
  6
CONTINUOUS
 62
     3
 10
27.920375
 20
61.929595
 11
24.920375
 21
61.929595
  0
LINE
  8
CSLAYER1
  6
CONTINUOUS
 62
     3
 10
24.920375
 20
73.929595
 11
-5.079625
 21
73.929595
  0
LINE
  8
CSLAYER1
  6
CONTINUOUS
 62
     3
 10
-5.079625
 20
97.179660
 11
24.920375
 21
97.179660
  0
LINE
  8
CSLAYER1
  6
CONTINUOUS
 62
     3
 10
24.920375
 20
97.179660
 11
24.920375
 21
105.179660
  0
LINE
  8
CSLAYER1
  6
CONTINUOUS
 62
     3
 10
24.920375
 20
105.179660
 11
-5.079625
 21
105.179660
  0
LINE
  8
CSLAYER1
  6
CONTINUOUS
 62
     3
 10
-5.079625
 20
105.179660
 11
-5.079625
 21
97.179660
  0
LINE
  8
CSLAYER1
  6
CONTINUOUS
 62
     3
 10
24.920375
 20
99.179660
 11
27.920375
 21
99.179660
  0
LINE
  8
CSLAYER1
  6
CONTINUOUS
 62
     3
 10
27.272250
 20
99.179660
 11
27.272250
 21
103.179660
  0
LINE
  8
CSLAYER1
  6
CONTINUOUS
 62
     3
 10
27.920375
 20
103.179660
 11
24.920375
 21
103.179660
  0
LINE
  8
CSLAYER1
  6
CONTINUOUS
 62
     3
 10
27.920375
 20
105.679660
 11
27.920375
 21
96.679660
  0
LINE
  8
CSLAYER1
  6
CONTINUOUS
 62
     3
 10
27.920375
 20
96.679660
 11
28.420375
 21
96.179660
  0
LINE
  8
CSLAYER1
  6
CONTINUOUS
 62
     3
 10
28.420375
 20
96.179660
 11
32.420375
 21
96.179660
  0
LINE
  8
CSLAYER1
  6
CONTINUOUS
 62
     3
 10
32.420375
 20
96.179660
 11
32.920375
 21
96.679660
  0
LINE
  8
CSLAYER1
  6
CONTINUOUS
 62
     3
 10
32.920375
 20
96.679660
 11
32.920375
 21
105.679660
  0
LINE
  8
CSLAYER1
  6
CONTINUOUS
 62
     3
 10
32.920375
 20
105.679660
 11
32.420375
 21
106.179660
  0
LINE
  8
CSLAYER1
  6
CONTINUOUS
 62
     3
 10
32.420375
 20
106.179660
 11
28.420375
 21
106.179660
  0
LINE
  8
CSLAYER1
  6
CONTINUOUS
 62
     3
 10
28.420375
 20
106.179660
 11
27.920375
 21
105.679660
  0
LINE
  8
CSLAYER1
  6
CONTINUOUS
 62
     3
 10
28.420375
 20
106.179660
 11
28.420375
 21
96.179660
  0
LINE
  8
CSLAYER1
  6
CONTINUOUS
 62
     3
 10
32.420375
 20
96.179660
 11
32.420375
 21
106.179660
  0
LINE
  8
CSLAYER1
  6
CONTINUOUS
 62
     7
 10
2.420375
 20
-50.570405
 11
2.420375
 21
-47.070405
  0
LINE
  8
CSLAYER1
  6
DOT
 62
     7
 10
-0.079625
 20
-40.570405
 11
-0.079625
 21
74.429595
  0
LINE
  8
CSLAYER1
  6
DOT
 62
     7
 10
19.920375
 20
74.429595
 11
19.920375
 21
-40.570405
  0
LINE
  8
CSLAYER1
  6
DOT
 62
     7
 10
19.920375
 20
-40.570405
 11
9.920375
 21
-46.343908
  0
LINE
  8
CSLAYER1
  6
DOT
 62
     7
 10
9.920375
 20
-46.343908
 11
-0.079625
 21
-40.570405
  0
LINE
  8
CSLAYER1
  6
DOT
 62
     7
 10
-0.079625
 20
-40.570405
 11
19.920375
 21
-40.570405
  0
LINE
  8
CSLAYER1
  6
CONTINUOUS
 62
     7
 10
17.420375
 20
-47.070405
 11
17.420375
 21
-50.570405
  0
LINE
  8
CSLAYER1
  6
CENTER
 62
     7
 10
9.920375
 20
-56.515620
 11
9.920375
 21
78.759952
  0
LINE
  8
CSLAYER1
  6
CENTER
 62
     7
 10
9.920375
 20
93.586369
 11
9.920375
 21
108.515699
  0
LINE
  8
CSLAYER1
  6
DOT
 62
     7
 10
19.920375
 20
105.179660
 11
19.920375
 21
97.179660
  0
LINE
  8
CSLAYER1
  6
CENTER
 62
     7
 10
22.509616
 20
101.179660
 11
35.215626
 21
101.179660
  0
LINE
  8
CSLAYER1
  6
CONTINUOUS
 62
     7
 10
27.920375
 20
103.179660
 11
27.272250
 21
102.479660
  0
LINE
  8
CSLAYER1
  6
CONTINUOUS
 62
     7
 10
27.272250
 20
102.479660
 11
24.920375
 21
102.479660
  0
LINE
  8
CSLAYER1
  6
CONTINUOUS
 62
     7
 10
24.920375
 20
99.879660
 11
27.272250
 21
99.879660
  0
LINE
  8
CSLAYER1
  6
CONTINUOUS
 62
     7
 10
27.272250
 20
99.879660
 11
27.920375
 21
99.179660
  0
LINE
  8
CSLAYER1
  6
DOT
 62
     7
 10
-0.079625
 20
97.179660
 11
-0.079625
 21
105.179660
  0
LINE
  8
CSLAYER1
  6
CONTINUOUS
 62
     7
 10
24.920375
 20
66.229595
 11
27.420375
 21
66.229595
  0
LINE
  8
CSLAYER1
  6
CONTINUOUS
 62
     7
 10
27.420375
 20
66.229595
 11
27.920375
 21
66.929595
  0
LINE
  8
CSLAYER1
  6
CONTINUOUS
 62
     7
 10
27.420375
 20
62.629595
 11
27.920375
 21
61.929595
  0
LINE
  8
CSLAYER1
  6
CONTINUOUS
 62
     7
 10
27.420375
 20
62.629595
 11
24.920375
 21
62.629595
  0
LINE
  8
CSLAYER1
  6
CENTER
 62
     7
 10
22.642752
 20
64.429595
 11
42.504868
 21
64.429595
  0
TEXT
  8
CSLAYER1
 62
     7
 10
52.357813
 20
-69.093987
 40
7.000000
 41
0.434795
  1
ƒ°-33-120
 50
0.000000
 51
0.000000
  7
FX_FONT
 72
     5
 11
75.691808
 21
-69.093987
  0
TEXT
  8
CSLAYER1
 62
     7
 10
52.357812
 20
-59.227943
 40
7.000000
 41
0.433257
  1
RS-20-120
 50
0.000000
 51
0.000000
  7
FX_FONT
 72
     5
 11
78.642082
 21
-59.227943
  0
INSERT
  8
CSLAYER1
  2
BLKF0000
 10
0.0
 20
0.0
 30
0.0
  0
INSERT
  8
CSLAYER1
  2
BLKF0001
 10
0.0
 20
0.0
 30
0.0
  0
ENDSEC
  0
EOF
