ISO-10303-21;
HEADER;
/****************************************************************
 * Generated by software with PDE/Lib inside                    *
 * PDElib Version v51a, created Tue 12/06/2005                  *
 * International Technegroup Inc. (www.iti-oh.com)              *
 ****************************************************************/
FILE_DESCRIPTION((''),'2;1');
FILE_NAME('T:\\Public\\7_3\X2\6B21514330C730FC30BF\X0\\\1\X2\56F39762FF83FF9EFF70FF80\X0\\\OpticalHard\\01_\X2\56FD518588FD54C1\X0\\\3_Bases\\RO\\RO-12\\RO-12-60\\RO-12-60.stp','2007-12-07T17:35:28',('okegawa'),(''),'Autodesk Inventor 11','Autodesk Inventor 11','');
FILE_SCHEMA(('AUTOMOTIVE_DESIGN { 1 0 10303 214 1 1 1 1 }'));
ENDSEC;
DATA;
#5=APPLICATION_CONTEXT('automotive design');
#6=APPLICATION_PROTOCOL_DEFINITION('Draft International Standard','automotive_design',1998,#5);
#7=PRODUCT_CONTEXT('None',#5,'mechanical');
#8=PRODUCT('RO-12-60-01-S01','RO-12-60-01-S01','None',(#7));
#9=PRODUCT_RELATED_PRODUCT_CATEGORY('part','description',(#8));
#10=PRODUCT_DEFINITION_FORMATION('None','None',#8);
#11=PRODUCT_DEFINITION_CONTEXT('part definition',#5,'design');
#12=PRODUCT_DEFINITION('None','None',#10,#11);
#18=(NAMED_UNIT(*)PLANE_ANGLE_UNIT()SI_UNIT($,.RADIAN.));
#19=DIMENSIONAL_EXPONENTS(0.0,0.0,0.0,0.0,0.0,0.0,0.0);
#20=PLANE_ANGLE_MEASURE_WITH_UNIT(PLANE_ANGLE_MEASURE(0.017453292500000),#18);
#24=(CONVERSION_BASED_UNIT('DEGREE',#20)NAMED_UNIT(#19)PLANE_ANGLE_UNIT());
#28=(NAMED_UNIT(*)SI_UNIT($,.STERADIAN.)SOLID_ANGLE_UNIT());
#32=(LENGTH_UNIT()NAMED_UNIT(*)SI_UNIT(.MILLI.,.METRE.));
#34=UNCERTAINTY_MEASURE_WITH_UNIT(LENGTH_MEASURE(0.010000000000000),#32,'DISTANCE_ACCURACY_VALUE','');
#36=(GEOMETRIC_REPRESENTATION_CONTEXT(3)GLOBAL_UNCERTAINTY_ASSIGNED_CONTEXT((#34))GLOBAL_UNIT_ASSIGNED_CONTEXT((#24,#28,#32))REPRESENTATION_CONTEXT('None','None'));
#37=AXIS2_PLACEMENT_3D('',#38,#39,#40);
#38=CARTESIAN_POINT('',(0.0,0.0,0.0));
#39=DIRECTION('',(0.0,0.0,1.0));
#40=DIRECTION('',(1.0,0.0,0.0));
#41=SHAPE_REPRESENTATION('',(#37),#36);
#42=PRODUCT_DEFINITION_SHAPE('','',#12);
#43=SHAPE_DEFINITION_REPRESENTATION(#42,#41);
#44=CARTESIAN_POINT('',(0.0,0.0,0.500000000000000));
#45=DIRECTION('',(0.0,0.0,1.0));
#46=DIRECTION('',(-1.0,0.0,0.0));
#47=AXIS2_PLACEMENT_3D('',#44,#45,#46);
#48=CONICAL_SURFACE('',#47,5.500000000000000,44.999999999999979);
#49=CARTESIAN_POINT('',(6.000000000000001,-7.347638E-016,1.0));
#50=VERTEX_POINT('',#49);
#51=CARTESIAN_POINT('',(0.0,0.0,1.0));
#52=DIRECTION('',(0.0,0.0,-1.0));
#53=DIRECTION('',(-1.0,0.0,0.0));
#54=AXIS2_PLACEMENT_3D('',#51,#52,#53);
#55=CIRCLE('',#54,6.000000000000001);
#56=EDGE_CURVE('',#50,#50,#55,.T.);
#57=ORIENTED_EDGE('',*,*,#56,.T.);
#58=EDGE_LOOP('',(#57));
#59=FACE_OUTER_BOUND('',#58,.T.);
#60=CARTESIAN_POINT('',(5.000000000000001,6.123032E-016,0.0));
#61=VERTEX_POINT('',#60);
#62=CARTESIAN_POINT('',(0.0,0.0,0.0));
#63=DIRECTION('',(0.0,0.0,1.0));
#64=DIRECTION('',(-1.0,0.0,0.0));
#65=AXIS2_PLACEMENT_3D('',#62,#63,#64);
#66=CIRCLE('',#65,5.000000000000001);
#67=EDGE_CURVE('',#61,#61,#66,.T.);
#68=ORIENTED_EDGE('',*,*,#67,.T.);
#69=EDGE_LOOP('',(#68));
#70=FACE_BOUND('',#69,.T.);
#71=ADVANCED_FACE('',(#59,#70),#48,.T.);
#72=CARTESIAN_POINT('',(0.0,0.0,0.0));
#73=DIRECTION('',(0.0,0.0,1.0));
#74=DIRECTION('',(-1.0,0.0,0.0));
#75=AXIS2_PLACEMENT_3D('',#72,#73,#74);
#76=CYLINDRICAL_SURFACE('',#75,6.000000000000001);
#77=CARTESIAN_POINT('',(6.000000000000001,-7.347638E-016,60.0));
#78=VERTEX_POINT('',#77);
#79=CARTESIAN_POINT('',(0.0,0.0,60.0));
#80=DIRECTION('',(0.0,0.0,-1.0));
#81=DIRECTION('',(-1.0,0.0,0.0));
#82=AXIS2_PLACEMENT_3D('',#79,#80,#81);
#83=CIRCLE('',#82,6.000000000000001);
#84=EDGE_CURVE('',#78,#78,#83,.T.);
#85=ORIENTED_EDGE('',*,*,#84,.T.);
#86=EDGE_LOOP('',(#85));
#87=FACE_OUTER_BOUND('',#86,.T.);
#88=CARTESIAN_POINT('',(0.0,-6.000000000000001,57.0));
#89=VERTEX_POINT('',#88);
#90=CARTESIAN_POINT('',(0.0,-6.000000000000001,53.0));
#91=VERTEX_POINT('',#90);
#92=CARTESIAN_POINT('',(0.0,-6.000000000000001,57.0));
#93=CARTESIAN_POINT('',(0.255778884212424,-6.000000000000001,57.0));
#94=CARTESIAN_POINT('',(0.527436396690541,-5.982011265099788,56.947900623664843));
#95=CARTESIAN_POINT('',(0.775631891084164,-5.949655046263878,56.843473669335474));
#96=CARTESIAN_POINT('',(0.967904370343555,-5.924589279335920,56.762576030724141));
#97=CARTESIAN_POINT('',(1.146613522078666,-5.891486354407594,56.650875595990598));
#98=CARTESIAN_POINT('',(1.298907986447559,-5.857716111484301,56.520801776282084));
#99=CARTESIAN_POINT('',(1.409478486659422,-5.833197868698667,56.426364152634775));
#100=CARTESIAN_POINT('',(1.506504971082158,-5.808524152253903,56.323703154748031));
#101=CARTESIAN_POINT('',(1.595433846402013,-5.783994367368877,56.206064194707267));
#102=CARTESIAN_POINT('',(1.768838607580738,-5.736163092381373,55.976676881556038));
#103=CARTESIAN_POINT('',(1.896954178115153,-5.692594454059502,55.698186128813866));
#104=CARTESIAN_POINT('',(1.957237053910347,-5.671791878657076,55.411367372065833));
#105=CARTESIAN_POINT('',(1.990500569688448,-5.660313216002119,55.253103518281598));
#106=CARTESIAN_POINT('',(2.003822648244416,-5.655503525535120,55.095399551713868));
#107=CARTESIAN_POINT('',(1.999077041677652,-5.657180479835988,54.939246552053980));
#108=CARTESIAN_POINT('',(1.991234077886736,-5.659951946807744,54.681175785978965));
#109=CARTESIAN_POINT('',(1.930056205479496,-5.682315714273875,54.410784535580255));
#110=CARTESIAN_POINT('',(1.817988198678330,-5.717947088725667,54.166382036262220));
#111=CARTESIAN_POINT('',(1.739965110974819,-5.742754078099373,53.996226090925553));
#112=CARTESIAN_POINT('',(1.637831466156255,-5.773396311264300,53.838147825212786));
#113=CARTESIAN_POINT('',(1.520960172316677,-5.804022756177515,53.701277491445374));
#114=CARTESIAN_POINT('',(1.426390456623129,-5.828805011023795,53.590524986480112));
#115=CARTESIAN_POINT('',(1.323534600374018,-5.853439048658713,53.493314385819623));
#116=CARTESIAN_POINT('',(1.205604937454866,-5.877628495812274,53.404219083086758));
#117=CARTESIAN_POINT('',(0.977103004656581,-5.924498259458594,53.231586953275063));
#118=CARTESIAN_POINT('',(0.699792838834745,-5.965924649951695,53.103813942920745));
#119=CARTESIAN_POINT('',(0.414177069548609,-5.985687709449945,53.043355587987399));
#120=CARTESIAN_POINT('',(0.275577372693942,-5.995278055466989,53.014017188055782));
#121=CARTESIAN_POINT('',(0.135505399064283,-6.000000000000001,53.0));
#122=CARTESIAN_POINT('',(0.0,-6.000000000000001,53.0));
#123=B_SPLINE_CURVE_WITH_KNOTS('',3,(#92,#93,#94,#95,#96,#97,#98,#99,#100,#101,#102,#103,#104,#105,#106,#107,#108,#109,#110,#111,#112,#113,#114,#115,#116,#117,#118,#119,#120,#121,#122),.UNSPECIFIED.,.F.,.U.,(4,3,3,3,3,3,3,3,3,3,4),(0.303880058730296,0.380613723994023,0.440057881507690,0.483216181831977,0.567371690756328,0.613807897755305,0.690552036772462,0.743982224924999,0.787216774120407,0.870988556471604,0.911640176190889),.UNSPECIFIED.);
#124=EDGE_CURVE('',#89,#91,#123,.T.);
#125=ORIENTED_EDGE('',*,*,#124,.T.);
#126=CARTESIAN_POINT('',(0.0,-6.000000000000001,53.0));
#127=CARTESIAN_POINT('',(-0.255778884212422,-6.000000000000001,53.0));
#128=CARTESIAN_POINT('',(-0.527436396690540,-5.982011265099787,53.052099376335150));
#129=CARTESIAN_POINT('',(-0.775631891084157,-5.949655046263878,53.156526330664519));
#130=CARTESIAN_POINT('',(-0.967904370344133,-5.924589279335844,53.237423969276094));
#131=CARTESIAN_POINT('',(-1.146613522079738,-5.891486354407393,53.349124404010077));
#132=CARTESIAN_POINT('',(-1.298907986448944,-5.857716111483994,53.479198223719102));
#133=CARTESIAN_POINT('',(-1.409478486660292,-5.833197868698447,53.573635847366148));
#134=CARTESIAN_POINT('',(-1.506504971082635,-5.808524152253773,53.676296845252580));
#135=CARTESIAN_POINT('',(-1.595433846402152,-5.783994367368838,53.793935805292925));
#136=CARTESIAN_POINT('',(-1.768838607580779,-5.736163092381356,54.023323118444075));
#137=CARTESIAN_POINT('',(-1.896954178115135,-5.692594454059507,54.301813871186141));
#138=CARTESIAN_POINT('',(-1.957237053910321,-5.671791878657085,54.588632627934054));
#139=CARTESIAN_POINT('',(-1.990500569688659,-5.660313216002046,54.746896481719368));
#140=CARTESIAN_POINT('',(-2.003822648244597,-5.655503525535055,54.904600448288093));
#141=CARTESIAN_POINT('',(-1.999077041677557,-5.657180479836021,55.060753447949111));
#142=CARTESIAN_POINT('',(-1.991234077886240,-5.659951946807919,55.318824214024190));
#143=CARTESIAN_POINT('',(-1.930056205478556,-5.682315714274202,55.589215464422793));
#144=CARTESIAN_POINT('',(-1.817988198677035,-5.717947088726080,55.833617963740600));
#145=CARTESIAN_POINT('',(-1.739965110972664,-5.742754078100039,56.003773909078447));
#146=CARTESIAN_POINT('',(-1.637831466152887,-5.773396311265282,56.161852174792152));
#147=CARTESIAN_POINT('',(-1.520960172312031,-5.804022756178732,56.298722508560068));
#148=CARTESIAN_POINT('',(-1.426390456619372,-5.828805011024698,56.409475013523490));
#149=CARTESIAN_POINT('',(-1.323534600371303,-5.853439048659297,56.506685614182572));
#150=CARTESIAN_POINT('',(-1.205604937453544,-5.877628495812545,56.595780916914237));
#151=CARTESIAN_POINT('',(-0.977103004655078,-5.924498259458848,56.768413046725769));
#152=CARTESIAN_POINT('',(-0.699792838833132,-5.965924649951886,56.896186057079845));
#153=CARTESIAN_POINT('',(-0.414177069546973,-5.985687709450059,56.956644412012942));
#154=CARTESIAN_POINT('',(-0.275577372692837,-5.995278055467028,56.985982811944325));
#155=CARTESIAN_POINT('',(-0.135505399063750,-6.000000000000001,57.0));
#156=CARTESIAN_POINT('',(0.0,-6.000000000000001,57.0));
#157=B_SPLINE_CURVE_WITH_KNOTS('',3,(#126,#127,#128,#129,#130,#131,#132,#133,#134,#135,#136,#137,#138,#139,#140,#141,#142,#143,#144,#145,#146,#147,#148,#149,#150,#151,#152,#153,#154,#155,#156),.UNSPECIFIED.,.F.,.U.,(4,3,3,3,3,3,3,3,3,3,4),(0.911640176190889,0.988373841454615,1.047817998968464,1.090976299292593,1.175131808216910,1.221568015216205,1.298312154233351,1.351742342386300,1.394976891581162,1.478748673932357,1.519400293651482),.UNSPECIFIED.);
#158=EDGE_CURVE('',#91,#89,#157,.T.);
#159=ORIENTED_EDGE('',*,*,#158,.T.);
#160=EDGE_LOOP('',(#125,#159));
#161=FACE_BOUND('',#160,.T.);
#162=CARTESIAN_POINT('',(-2.000000000000000,5.656854249492382,55.000000000000007));
#163=VERTEX_POINT('',#162);
#164=CARTESIAN_POINT('',(-2.000000000000000,5.656854249492382,55.000000000000007));
#165=CARTESIAN_POINT('',(-2.000000000000000,5.656854249492382,54.717400347224356));
#166=CARTESIAN_POINT('',(-1.935745142288354,5.680713954722860,54.416012817362365));
#167=CARTESIAN_POINT('',(-1.809181936908100,5.720739525547852,54.147438729963966));
#168=CARTESIAN_POINT('',(-1.730087853725345,5.745753002559260,53.979596732397624));
#169=CARTESIAN_POINT('',(-1.627511549669135,5.776308932998957,53.824023426741171));
#170=CARTESIAN_POINT('',(-1.510820048437237,5.806670541819996,53.689495218917493));
#171=CARTESIAN_POINT('',(-1.418129000436375,5.830787545294153,53.582636018056974));
#172=CARTESIAN_POINT('',(-1.317423119240083,5.854756916217486,53.488340979312817));
#173=CARTESIAN_POINT('',(-1.202406944611903,5.878283553857290,53.401808040456629));
#174=CARTESIAN_POINT('',(-0.999698961453390,5.919747611255155,53.249299773084473));
#175=CARTESIAN_POINT('',(-0.759144525006452,5.957112793912260,53.131555112200942));
#176=CARTESIAN_POINT('',(-0.508070881651644,5.978449964599331,53.065610179095813));
#177=CARTESIAN_POINT('',(-0.352426305480548,5.991677218738413,53.024729857981129));
#178=CARTESIAN_POINT('',(-0.193100517842817,5.998873545887680,53.003379899479583));
#179=CARTESIAN_POINT('',(-0.038923252528424,5.999873747039401,53.000378790767456));
#180=CARTESIAN_POINT('',(0.114250670731716,6.000867439164800,52.997397212422371));
#181=CARTESIAN_POINT('',(0.270279162344983,5.995940095651838,53.011954265086260));
#182=CARTESIAN_POINT('',(0.425925423610680,5.984863200902931,53.045879345198443));
#183=CARTESIAN_POINT('',(0.651269504746078,5.968826113672386,53.094995950654670));
#184=CARTESIAN_POINT('',(0.871287187894092,5.939678307415352,53.185203541085180));
#185=CARTESIAN_POINT('',(1.065432872111865,5.904646712126262,53.307412396647237));
#186=CARTESIAN_POINT('',(1.187274968966328,5.882661556785945,53.384108323604657));
#187=CARTESIAN_POINT('',(1.298904257748876,5.858583933357184,53.473040108619145));
#188=CARTESIAN_POINT('',(1.396921395569522,5.835118731834007,53.568703170338139));
#189=CARTESIAN_POINT('',(1.496673580442504,5.811238161839149,53.666059608510920));
#190=CARTESIAN_POINT('',(1.588498097784703,5.786509141315101,53.776077674919520));
#191=CARTESIAN_POINT('',(1.668944018631917,5.763213154367342,53.897899340952584));
#192=CARTESIAN_POINT('',(1.828164846988100,5.717105082010986,54.139012207499960));
#193=CARTESIAN_POINT('',(1.936850160679564,5.678959846929487,54.423828823822710));
#194=CARTESIAN_POINT('',(1.978788663320537,5.664308909824228,54.709491091506436));
#195=CARTESIAN_POINT('',(2.008328350847058,5.653989416356255,54.910699374924036));
#196=CARTESIAN_POINT('',(2.007504650367256,5.654292923366591,55.106777918164632));
#197=CARTESIAN_POINT('',(1.976140756179895,5.665233244250829,55.308006025533196));
#198=CARTESIAN_POINT('',(1.931812670052770,5.680695721056733,55.592411298084663));
#199=CARTESIAN_POINT('',(1.821293075607470,5.719319268720637,55.874903027204724));
#200=CARTESIAN_POINT('',(1.661305231771713,5.765419752879052,56.113582025217696));
#201=CARTESIAN_POINT('',(1.578029533580494,5.789415638523880,56.237817465402237));
#202=CARTESIAN_POINT('',(1.483623413150697,5.814659386034693,56.348876123116781));
#203=CARTESIAN_POINT('',(1.379703781787660,5.839213771949169,56.447901058263596));
#204=CARTESIAN_POINT('',(1.175552905923298,5.887451042665035,56.642436267612169));
#205=CARTESIAN_POINT('',(0.913189955966103,5.936947524824632,56.804243414451093));
#206=CARTESIAN_POINT('',(0.629699654914840,5.966865034890612,56.898282999081047));
#207=CARTESIAN_POINT('',(0.455569355561930,5.985241483624005,56.956045613752217));
#208=CARTESIAN_POINT('',(0.273787933986989,5.996351360126143,56.989043810418835));
#209=CARTESIAN_POINT('',(0.097205713598086,5.999212535761997,56.997636365619101));
#210=CARTESIAN_POINT('',(-0.034714187972525,6.001350044325583,57.004055636108298));
#211=CARTESIAN_POINT('',(-0.165383804609820,5.999209525963059,56.997718128394411));
#212=CARTESIAN_POINT('',(-0.298884381294504,5.992551053317628,56.977540929189125));
#213=CARTESIAN_POINT('',(-0.565225867573931,5.979267009572083,56.937286232477319));
#214=CARTESIAN_POINT('',(-0.830659943474218,5.946786184810913,56.839321587435911));
#215=CARTESIAN_POINT('',(-1.059938145569540,5.905635539682975,56.696033940570359));
#216=CARTESIAN_POINT('',(-1.186400222109805,5.882938240130325,56.617001336512985));
#217=CARTESIAN_POINT('',(-1.301971595357289,5.857955583741017,56.524768680480044));
#218=CARTESIAN_POINT('',(-1.402890700126579,5.833686457421101,56.425446485666285));
#219=CARTESIAN_POINT('',(-1.502865446860110,5.809644431257429,56.327053705684492));
#220=CARTESIAN_POINT('',(-1.595237813560330,5.784654436906179,56.215278840252736));
#221=CARTESIAN_POINT('',(-1.675635911661954,5.761271065619880,56.091899396258100));
#222=CARTESIAN_POINT('',(-1.833146048659967,5.715460056382760,55.850183316087033));
#223=CARTESIAN_POINT('',(-1.939868939757745,5.677916589135776,55.565446529012767));
#224=CARTESIAN_POINT('',(-1.980231651848406,5.663804605123463,55.280504197861163));
#225=CARTESIAN_POINT('',(-1.993595269882867,5.659132293619088,55.186163151927332));
#226=CARTESIAN_POINT('',(-1.999999999999999,5.656854249492382,55.092047576164553));
#227=CARTESIAN_POINT('',(-2.000000000000000,5.656854249492382,55.000000000000007));
#228=B_SPLINE_CURVE_WITH_KNOTS('',3,(#164,#165,#166,#167,#168,#169,#170,#171,#172,#173,#174,#175,#176,#177,#178,#179,#180,#181,#182,#183,#184,#185,#186,#187,#188,#189,#190,#191,#192,#193,#194,#195,#196,#197,#198,#199,#200,#201,#202,#203,#204,#205,#206,#207,#208,#209,#210,#211,#212,#213,#214,#215,#216,#217,#218,#219,#220,#221,#222,#223,#224,#225,#226,#227),.UNSPECIFIED.,.T.,.U.,(4,3,3,3,3,3,3,3,3,3,3,3,3,3,3,3,3,3,3,3,3,4),(0.0,0.084779895832695,0.137762025299705,0.179847087654462,0.254019073799990,0.299999476972278,0.345680652680125,0.411817689839643,0.453324022157689,0.495565077414426,0.579169761626950,0.638057325366019,0.721285925158128,0.764607465038875,0.849712946981464,0.901987903099123,0.941041138755927,1.018954636114229,1.061929077541282,1.104501382433466,1.187905962071822,1.215520234921186),.UNSPECIFIED.);
#229=EDGE_CURVE('',#163,#163,#228,.T.);
#230=ORIENTED_EDGE('',*,*,#229,.T.);
#231=EDGE_LOOP('',(#230));
#232=FACE_BOUND('',#231,.T.);
#233=ORIENTED_EDGE('',*,*,#56,.F.);
#234=EDGE_LOOP('',(#233));
#235=FACE_BOUND('',#234,.T.);
#236=ADVANCED_FACE('',(#87,#161,#232,#235),#76,.T.);
#237=CARTESIAN_POINT('',(0.0,0.0,0.0));
#238=DIRECTION('',(0.0,0.0,-1.0));
#239=DIRECTION('',(-1.0,0.0,0.0));
#240=AXIS2_PLACEMENT_3D('',#237,#238,#239);
#241=PLANE('',#240);
#242=ORIENTED_EDGE('',*,*,#67,.F.);
#243=EDGE_LOOP('',(#242));
#244=FACE_OUTER_BOUND('',#243,.T.);
#245=ADVANCED_FACE('',(#244),#241,.T.);
#246=CARTESIAN_POINT('',(0.0,0.0,64.750000000000000));
#247=DIRECTION('',(0.0,0.0,-1.0));
#248=DIRECTION('',(-1.0,0.0,0.0));
#249=AXIS2_PLACEMENT_3D('',#246,#247,#248);
#250=CONICAL_SURFACE('',#249,2.750000000000000,45.000000000000107);
#251=CARTESIAN_POINT('',(3.000000000000000,3.673819E-016,64.500000000000000));
#252=VERTEX_POINT('',#251);
#253=CARTESIAN_POINT('',(0.0,0.0,64.500000000000000));
#254=DIRECTION('',(0.0,0.0,1.0));
#255=DIRECTION('',(-1.0,0.0,0.0));
#256=AXIS2_PLACEMENT_3D('',#253,#254,#255);
#257=CIRCLE('',#256,3.000000000000000);
#258=EDGE_CURVE('',#252,#252,#257,.T.);
#259=ORIENTED_EDGE('',*,*,#258,.T.);
#260=EDGE_LOOP('',(#259));
#261=FACE_OUTER_BOUND('',#260,.T.);
#262=CARTESIAN_POINT('',(2.500000000000000,-3.061516E-016,65.0));
#263=VERTEX_POINT('',#262);
#264=CARTESIAN_POINT('',(0.0,0.0,65.0));
#265=DIRECTION('',(0.0,0.0,-1.0));
#266=DIRECTION('',(-1.0,0.0,0.0));
#267=AXIS2_PLACEMENT_3D('',#264,#265,#266);
#268=CIRCLE('',#267,2.500000000000000);
#269=EDGE_CURVE('',#263,#263,#268,.T.);
#270=ORIENTED_EDGE('',*,*,#269,.T.);
#271=EDGE_LOOP('',(#270));
#272=FACE_BOUND('',#271,.T.);
#273=ADVANCED_FACE('',(#261,#272),#250,.T.);
#274=CARTESIAN_POINT('',(0.0,0.0,65.0));
#275=DIRECTION('',(0.0,0.0,-1.0));
#276=DIRECTION('',(-1.0,0.0,0.0));
#277=AXIS2_PLACEMENT_3D('',#274,#275,#276);
#278=CYLINDRICAL_SURFACE('',#277,3.000000000000000);
#279=CARTESIAN_POINT('',(3.000000000000000,3.673819E-016,61.200000000000003));
#280=VERTEX_POINT('',#279);
#281=CARTESIAN_POINT('',(0.0,0.0,61.200000000000003));
#282=DIRECTION('',(0.0,0.0,1.0));
#283=DIRECTION('',(-1.0,0.0,0.0));
#284=AXIS2_PLACEMENT_3D('',#281,#282,#283);
#285=CIRCLE('',#284,3.000000000000000);
#286=EDGE_CURVE('',#280,#280,#285,.T.);
#287=ORIENTED_EDGE('',*,*,#286,.T.);
#288=EDGE_LOOP('',(#287));
#289=FACE_OUTER_BOUND('',#288,.T.);
#290=ORIENTED_EDGE('',*,*,#258,.F.);
#291=EDGE_LOOP('',(#290));
#292=FACE_BOUND('',#291,.T.);
#293=ADVANCED_FACE('',(#289,#292),#278,.T.);
#294=CARTESIAN_POINT('',(0.0,0.0,65.0));
#295=DIRECTION('',(0.0,0.0,-1.0));
#296=DIRECTION('',(-1.0,0.0,0.0));
#297=AXIS2_PLACEMENT_3D('',#294,#295,#296);
#298=PLANE('',#297);
#299=ORIENTED_EDGE('',*,*,#269,.F.);
#300=EDGE_LOOP('',(#299));
#301=FACE_OUTER_BOUND('',#300,.T.);
#302=ADVANCED_FACE('',(#301),#298,.F.);
#303=CARTESIAN_POINT('',(3.673819E-016,61.178865724273734,55.0));
#304=DIRECTION('',(0.0,1.0,0.0));
#305=DIRECTION('',(-1.0,0.0,0.0));
#306=AXIS2_PLACEMENT_3D('',#303,#304,#305);
#307=CYLINDRICAL_SURFACE('',#306,2.0);
#308=ORIENTED_EDGE('',*,*,#124,.F.);
#309=ORIENTED_EDGE('',*,*,#158,.F.);
#310=EDGE_LOOP('',(#308,#309));
#311=FACE_OUTER_BOUND('',#310,.T.);
#312=ORIENTED_EDGE('',*,*,#229,.F.);
#313=EDGE_LOOP('',(#312));
#314=FACE_BOUND('',#313,.T.);
#315=ADVANCED_FACE('',(#311,#314),#307,.F.);
#316=CARTESIAN_POINT('',(0.0,0.0,61.200000000000003));
#317=DIRECTION('',(0.0,0.0,-1.0));
#318=DIRECTION('',(-1.0,0.0,0.0));
#319=AXIS2_PLACEMENT_3D('',#316,#317,#318);
#320=CYLINDRICAL_SURFACE('',#319,2.500000000000000);
#321=CARTESIAN_POINT('',(2.500000000000000,3.061516E-016,61.200000000000003));
#322=VERTEX_POINT('',#321);
#323=CARTESIAN_POINT('',(0.0,0.0,61.200000000000003));
#324=DIRECTION('',(0.0,0.0,-1.0));
#325=DIRECTION('',(-1.0,0.0,0.0));
#326=AXIS2_PLACEMENT_3D('',#323,#324,#325);
#327=CIRCLE('',#326,2.500000000000000);
#328=EDGE_CURVE('',#322,#322,#327,.T.);
#329=ORIENTED_EDGE('',*,*,#328,.T.);
#330=EDGE_LOOP('',(#329));
#331=FACE_OUTER_BOUND('',#330,.T.);
#332=CARTESIAN_POINT('',(2.500000000000000,3.061516E-016,60.0));
#333=VERTEX_POINT('',#332);
#334=CARTESIAN_POINT('',(0.0,0.0,60.0));
#335=DIRECTION('',(0.0,0.0,1.0));
#336=DIRECTION('',(-1.0,0.0,0.0));
#337=AXIS2_PLACEMENT_3D('',#334,#335,#336);
#338=CIRCLE('',#337,2.500000000000000);
#339=EDGE_CURVE('',#333,#333,#338,.T.);
#340=ORIENTED_EDGE('',*,*,#339,.T.);
#341=EDGE_LOOP('',(#340));
#342=FACE_BOUND('',#341,.T.);
#343=ADVANCED_FACE('',(#331,#342),#320,.T.);
#344=CARTESIAN_POINT('',(0.0,0.0,61.200000000000003));
#345=DIRECTION('',(0.0,0.0,-1.0));
#346=DIRECTION('',(-1.0,0.0,0.0));
#347=AXIS2_PLACEMENT_3D('',#344,#345,#346);
#348=PLANE('',#347);
#349=ORIENTED_EDGE('',*,*,#286,.F.);
#350=EDGE_LOOP('',(#349));
#351=FACE_OUTER_BOUND('',#350,.T.);
#352=ORIENTED_EDGE('',*,*,#328,.F.);
#353=EDGE_LOOP('',(#352));
#354=FACE_BOUND('',#353,.T.);
#355=ADVANCED_FACE('',(#351,#354),#348,.T.);
#356=CARTESIAN_POINT('',(0.0,0.0,60.0));
#357=DIRECTION('',(0.0,0.0,1.0));
#358=DIRECTION('',(1.0,0.0,0.0));
#359=AXIS2_PLACEMENT_3D('',#356,#357,#358);
#360=PLANE('',#359);
#361=ORIENTED_EDGE('',*,*,#84,.F.);
#362=EDGE_LOOP('',(#361));
#363=FACE_OUTER_BOUND('',#362,.T.);
#364=ORIENTED_EDGE('',*,*,#339,.F.);
#365=EDGE_LOOP('',(#364));
#366=FACE_BOUND('',#365,.T.);
#367=ADVANCED_FACE('',(#363,#366),#360,.T.);
#368=CLOSED_SHELL('',(#71,#236,#245,#273,#293,#302,#315,#343,#355,#367));
#369=MANIFOLD_SOLID_BREP('',#368);
#370=COLOUR_RGB('Default',0.752941012382507,0.752941012382507,0.752941012382507);
#371=FILL_AREA_STYLE_COLOUR('Default',#370);
#372=FILL_AREA_STYLE('Default',(#371));
#373=SURFACE_STYLE_FILL_AREA(#372);
#374=SURFACE_SIDE_STYLE('Default',(#373));
#375=SURFACE_STYLE_USAGE(.BOTH.,#374);
#376=PRESENTATION_STYLE_ASSIGNMENT((#375));
#377=STYLED_ITEM('',(#376),#369);
#378=MECHANICAL_DESIGN_GEOMETRIC_PRESENTATION_REPRESENTATION('',(#377),#36);
#379=ADVANCED_BREP_SHAPE_REPRESENTATION('ABSR',(#369),#36);
#380=SHAPE_REPRESENTATION_RELATIONSHIP('SRR','None',#379,#41);
ENDSEC;
END-ISO-10303-21;
