  0
SECTION
  2
HEADER
  9
$ACADVER
  1
AC1006
  9
$INSBASE
 10
-102.053398
 20
-69.685524
 30
0.0
  9
$EXTMIN
 10
-102.053398
 20
-69.685524
  9
$EXTMAX
 10
296.291692
 20
211.972621
  9
$LIMMIN
 10
-102.053398
 20
-69.685524
  9
$LIMMAX
 10
296.291692
 20
211.972621
  9
$VIEWCTR
 10
97.119147
 20
71.143548
  9
$VIEWSIZE
 40
281.658145
  9
$SNAPMODE
 70
     0
  9
$SNAPUNIT
 10
1.0
 20
1.0
  9
$SNAPBASE
 10
0.0
 20
0.0
  9
$SNAPANG
 50
0.0
  9
$SNAPSTYLE
 70
     0
  9
$SNAPISOPAIR
 70
     0
  9
$GRIDMODE
 70
     0
  9
$GRIDUNIT
 10
0.0
 20
0.0
  9
$ORTHOMODE
 70
     0
  9
$REGENMODE
 70
     1
  9
$FILLMODE
 70
     1
  9
$QTEXTMODE
 70
     0
  9
$DRAGMODE
 70
     2
  9
$LTSCALE
 40
15.000000
  9
$OSMODE
 70
     0
  9
$ATTMODE
 70
     1
  9
$TEXTSIZE
 40
0.2
  9
$TRACEWID
 40
0.05
  9
$TEXTSTYLE
  7
STANDARD
  9
$CLAYER
  8
CSLAYER1
  9
$CELTYPE
  6
BYLAYER
  9
$CECOLOR
 62
   256
  9
$DIMSCALE
 40
1.0
  9
$DIMASZ
 40
0.18
  9
$DIMEXO
 40
0.0625
  9
$DIMDLI
 40
0.38
  9
$DIMRND
 40
0.0
  9
$DIMDLE
 40
0.0
  9
$DIMEXE
 40
0.18
  9
$DIMTP
 40
0.0
  9
$DIMTM
 40
0.0
  9
$DIMTXT
 40
0.18
  9
$DIMCEN
 40
0.09
  9
$DIMTSZ
 40
0.0
  9
$DIMTOL
 70
     0
  9
$DIMLIM
 70
     0
  9
$DIMTIH
 70
     1
  9
$DIMTOH
 70
     1
  9
$DIMSE1
 70
     0
  9
$DIMSE2
 70
     0
  9
$DIMTAD
 70
     0
  9
$DIMZIN
 70
     0
  9
$DIMBLK
  1

  9
$LUNITS
 70
     2
  9
$LUPREC
 70
     4
  9
$AXISMODE
 70
     0
  9
$AXISUNIT
 10
0.0
 20
0.0
  9
$SKETCHINC
 40
0.1
  9
$FILLETRAD
 40
0.0
  9
$AUNITS
 70
     0
  9
$AUPREC
 70
     0
  9
$MENU
  1
ACAD
  9
$ELEVATION
 40
0.0
  9
$THICKNESS
 40
0.0
  9
$VIEWDIR
 10
0.0
 20
0.0
 30
1.0
  9
$LIMCHECK
 70
     0
  9
$BLIPMODE
 70
     1
  9
$CHAMFERA
 40
0.0
  9
$CHAMFERB
 40
0.0
  9
$FASTZOOM
 70
     1
  9
$SKPOLY
 70
     0
  9
$TDCREATE
 40
2451766.000000
  9
$TDUPDATE
 40
2451788.000000
  9
$TDINDWG
 40
0.0
  9
$TDUSRTIMER
 40
0.0
  9
$USRTIMER
 70
     1
  9
$ANGBASE
 50
0.0
  9
$ANGDIR
 70
     0
  9
$PDMODE
 70
     0
  9
$PDSIZE
 40
0.0
  9
$PLINEWID
 40
0.0
  9
$COORDS
 70
     0
  9
$USERI1
 70
     0
  9
$USERI2
 70
     0
  9
$USERI3
 70
     0
  9
$USERI4
 70
     0
  9
$USERI5
 70
     0
  9
$USERR1
 40
0.0
  9
$USERR2
 40
0.0
  9
$USERR3
 40
0.0
  9
$USERR4
 40
0.0
  9
$USERR5
 40
0.0
  0
ENDSEC
  0
SECTION
  2
TABLES
  0
TABLE
  2
LTYPE
 70
     9
  0
LTYPE
  2
CONTINUOUS
 70
    64
  3
Solid line
 72
    65
 73
     0
 40
0.0
  0
LTYPE
  2
DASHED
 70
    64
  3
__ __ __ __ __ __ __ __ __ __ __ __ __ __ __
 72
    65
 73
     2
 40
0.75
 49
0.5
 49
-0.25
  0
LTYPE
  2
HIDDEN
 70
    64
  3
_ _ _ _ _ _ _ _ _ _ _ _ _ _ _ _ _ _ _ _ _ _ _
 72
    65
 73
     2
 40
0.375
 49
0.25
 49
-0.125
  0
LTYPE
  2
DOT
 70
    64
  3
...............................................
 72
    65
 73
     2
 40
0.25
 49
0.0
 49
-0.25
  0
LTYPE
  2
DASHDOT
 70
    64
  3
__ . __ . __ . __ . __ . __ . __ . __ . __ . __
 72
    65
 73
     4
 40
1.0
 49
0.5
 49
-0.25
 49
0.0
 49
-0.25
  0
LTYPE
  2
DIVIDE
 70
    64
  3
__ . . __ . . __ . . __ . . __ . . __ . . __
 72
    65
 73
     6
 40
1.25
 49
0.5
 49
-0.25
 49
0.0
 49
-0.25
 49
0.0
 49
-0.25
  0
LTYPE
  2
CENTER
 70
    64
  3
____ _ ____ _ ____ _ ____ _ ____ _ ____ _ ____ 
 72
    65
 73
     4
 40
2.0
 49
1.25
 49
-0.25
 49
0.25
 49
-0.25
  0
LTYPE
  2
PHANTOM
 70
    64
  3
______  __  __  ______  __  __  ______  __  __ 
 72
    65
 73
     6
 40
2.5
 49
1.25
 49
-0.25
 49
0.25
 49
-0.25
 49
0.25
 49
-0.25
  0
LTYPE
  2
BORDER
 70
    64
  3
__ __ . __ __ . __ __ . __ __ . __ __ . __ __ .
 72
    65
 73
     6
 40
1.75
 49
0.5
 49
-0.25
 49
0.5
 49
-0.25
 49
0.0
 49
-0.25
  0
ENDTAB
  0
TABLE
  2
LAYER
 70
    16
  0
LAYER
  2
CSLAYER1
 70
    64
 62
     7
  6
CONTINUOUS
  0
LAYER
  2
CSLAYER2
 70
    64
 62
     7
  6
CONTINUOUS
  0
LAYER
  2
CSLAYER3
 70
    64
 62
     7
  6
CONTINUOUS
  0
LAYER
  2
CSLAYER4
 70
    64
 62
     7
  6
CONTINUOUS
  0
LAYER
  2
CSLAYER5
 70
    64
 62
     7
  6
CONTINUOUS
  0
LAYER
  2
CSLAYER6
 70
    64
 62
     7
  6
CONTINUOUS
  0
LAYER
  2
CSLAYER7
 70
    64
 62
     7
  6
CONTINUOUS
  0
LAYER
  2
CSLAYER8
 70
    64
 62
     7
  6
CONTINUOUS
  0
LAYER
  2
CSLAYER9
 70
    64
 62
     7
  6
CONTINUOUS
  0
LAYER
  2
CSLAYER10
 70
    64
 62
     7
  6
CONTINUOUS
  0
LAYER
  2
CSLAYER11
 70
    64
 62
     7
  6
CONTINUOUS
  0
LAYER
  2
CSLAYER12
 70
    64
 62
     7
  6
CONTINUOUS
  0
LAYER
  2
CSLAYER13
 70
    64
 62
     7
  6
CONTINUOUS
  0
LAYER
  2
CSLAYER14
 70
    64
 62
     7
  6
CONTINUOUS
  0
LAYER
  2
CSLAYER15
 70
    64
 62
     7
  6
CONTINUOUS
  0
LAYER
  2
CSLAYER16
 70
    64
 62
     7
  6
CONTINUOUS
  0
ENDTAB
  0
TABLE
  2
STYLE
 70
     1
  0
STYLE
  2
FX_FONT
 70
     0
 40
1.0
 41
1.0
 50
0.0
 71
     0
 42
1.0
  3
monotxt
  4
bigfont
  0
ENDTAB
  0
TABLE
  2
VIEW
 70
     0
  0
ENDTAB
  0
ENDSEC
  0
SECTION
  2
BLOCKS
  0
BLOCK
  8
CSLAYER1
  2
BLKF0000
 70
   64
 10
0.0
 20
0.0
 30
0.0
  0
LINE
  8
CSLAYER1
  6
CONTINUOUS
 62
     7
 10
34.300089
 20
154.705988
 11
49.175089
 21
154.705988
  0
LINE
  8
CSLAYER1
  6
CONTINUOUS
 62
     7
 10
34.300089
 20
153.705988
 11
47.050089
 21
153.705988
  0
LINE
  8
CSLAYER1
  6
CONTINUOUS
 62
     7
 10
34.300089
 20
152.705988
 11
44.925089
 21
152.705988
  0
LINE
  8
CSLAYER1
  6
CONTINUOUS
 62
     7
 10
34.300089
 20
151.705988
 11
42.800089
 21
151.705988
  0
LINE
  8
CSLAYER1
  6
CONTINUOUS
 62
     7
 10
34.300089
 20
150.705988
 11
40.675089
 21
150.705988
  0
LINE
  8
CSLAYER1
  6
CONTINUOUS
 62
     7
 10
34.300089
 20
149.705988
 11
38.550089
 21
149.705988
  0
LINE
  8
CSLAYER1
  6
CONTINUOUS
 62
     7
 10
34.300089
 20
148.705988
 11
36.425089
 21
148.705988
  0
ENDBLK
  8
0
  0
BLOCK
  8
CSLAYER1
  2
BLKF0001
 70
   64
 10
0.0
 20
0.0
 30
0.0
  0
LINE
  8
CSLAYER1
  6
CONTINUOUS
 62
     7
 10
34.300089
 20
2.040308
 11
49.175089
 21
2.040308
  0
LINE
  8
CSLAYER1
  6
CONTINUOUS
 62
     7
 10
34.300089
 20
1.040308
 11
47.050089
 21
1.040308
  0
LINE
  8
CSLAYER1
  6
CONTINUOUS
 62
     7
 10
34.300089
 20
0.040308
 11
44.925089
 21
0.040308
  0
LINE
  8
CSLAYER1
  6
CONTINUOUS
 62
     7
 10
34.300089
 20
-0.959692
 11
42.800089
 21
-0.959692
  0
LINE
  8
CSLAYER1
  6
CONTINUOUS
 62
     7
 10
34.300089
 20
-1.959692
 11
40.675089
 21
-1.959692
  0
LINE
  8
CSLAYER1
  6
CONTINUOUS
 62
     7
 10
34.300089
 20
-2.959692
 11
38.550089
 21
-2.959692
  0
LINE
  8
CSLAYER1
  6
CONTINUOUS
 62
     7
 10
34.300089
 20
-3.959692
 11
36.425089
 21
-3.959692
  0
ENDBLK
  8
0
  0
BLOCK
  8
CSLAYER1
  2
BLKF0002
 70
   64
 10
0.0
 20
0.0
 30
0.0
  0
LINE
  8
CSLAYER1
  6
CENTER
 62
     7
 10
108.998365
 20
51.857867
 11
108.998365
 21
88.727936
  0
ENDBLK
  8
0
  0
BLOCK
  8
CSLAYER1
  2
BLKF0003
 70
   64
 10
0.0
 20
0.0
 30
0.0
  0
LINE
  8
CSLAYER1
  6
CONTINUOUS
 62
     7
 10
34.300089
 20
74.341070
 11
49.175089
 21
74.341070
  0
LINE
  8
CSLAYER1
  6
CONTINUOUS
 62
     7
 10
34.300089
 20
73.341070
 11
47.050089
 21
73.341070
  0
LINE
  8
CSLAYER1
  6
CONTINUOUS
 62
     7
 10
34.300089
 20
72.341070
 11
44.925089
 21
72.341070
  0
LINE
  8
CSLAYER1
  6
CONTINUOUS
 62
     7
 10
34.300089
 20
71.341070
 11
42.800089
 21
71.341070
  0
LINE
  8
CSLAYER1
  6
CONTINUOUS
 62
     7
 10
34.300089
 20
70.341070
 11
40.675089
 21
70.341070
  0
LINE
  8
CSLAYER1
  6
CONTINUOUS
 62
     7
 10
34.300089
 20
69.341070
 11
38.550089
 21
69.341070
  0
LINE
  8
CSLAYER1
  6
CONTINUOUS
 62
     7
 10
34.300089
 20
68.341070
 11
36.425089
 21
68.341070
  0
ENDBLK
  8
0
  0
ENDSEC
  0
SECTION
  2
ENTITIES
  0
LINE
  8
CSLAYER1
  6
CONTINUOUS
 62
     3
 10
-49.848864
 20
61.541070
 11
-49.848864
 21
83.441070
  0
LINE
  8
CSLAYER1
  6
CONTINUOUS
 62
     3
 10
-49.848864
 20
83.441070
 11
10.151136
 21
83.441070
  0
LINE
  8
CSLAYER1
  6
CONTINUOUS
 62
     3
 10
10.151136
 20
83.441070
 11
10.151136
 21
61.541070
  0
LINE
  8
CSLAYER1
  6
CONTINUOUS
 62
     3
 10
10.151136
 20
61.541070
 11
-8.848864
 21
61.541070
  0
LINE
  8
CSLAYER1
  6
CONTINUOUS
 62
     3
 10
-8.848864
 20
56.341170
 11
-8.848864
 21
74.341070
  0
LINE
  8
CSLAYER1
  6
CONTINUOUS
 62
     3
 10
-8.848864
 20
74.341070
 11
-15.975764
 21
74.341070
  0
LINE
  8
CSLAYER1
  6
CONTINUOUS
 62
     3
 10
-23.721764
 20
74.341070
 11
-30.848864
 21
74.341070
  0
LINE
  8
CSLAYER1
  6
CONTINUOUS
 62
     3
 10
-30.848864
 20
74.341070
 11
-30.848864
 21
56.341170
  0
LINE
  8
CSLAYER1
  6
CONTINUOUS
 62
     3
 10
-30.848864
 20
56.341070
 11
-8.848864
 21
56.341070
  0
CIRCLE
  8
CSLAYER1
  6
CONTINUOUS
 62
     3
 10
-19.848864
 20
67.341070
 40
8.000000
  0
CIRCLE
  8
CSLAYER1
  6
CONTINUOUS
 62
     3
 10
-19.848864
 20
67.341070
 40
7.500000
  0
LINE
  8
CSLAYER1
  6
CONTINUOUS
 62
     3
 10
-30.848864
 20
61.541070
 11
-49.848864
 21
61.541070
  0
LINE
  8
CSLAYER1
  6
CONTINUOUS
 62
     3
 10
-49.848864
 20
75.541070
 11
10.151136
 21
75.541070
  0
LINE
  8
CSLAYER1
  6
CONTINUOUS
 62
     3
 10
53.298365
 20
117.705988
 11
53.298365
 21
177.705988
  0
LINE
  8
CSLAYER1
  6
CONTINUOUS
 62
     3
 10
53.298365
 20
177.705988
 11
143.298365
 21
177.705988
  0
LINE
  8
CSLAYER1
  6
CONTINUOUS
 62
     3
 10
143.298365
 20
177.705988
 11
143.298365
 21
117.705988
  0
LINE
  8
CSLAYER1
  6
CONTINUOUS
 62
     3
 10
143.298365
 20
117.705988
 11
53.298365
 21
117.705988
  0
CIRCLE
  8
CSLAYER1
  6
CONTINUOUS
 62
     3
 10
83.998365
 20
122.705988
 40
1.500000
  0
CIRCLE
  8
CSLAYER1
  6
CONTINUOUS
 62
     3
 10
83.998365
 20
147.705988
 40
1.500000
  0
CIRCLE
  8
CSLAYER1
  6
CONTINUOUS
 62
     3
 10
93.998365
 20
147.705988
 40
2.250000
  0
CIRCLE
  8
CSLAYER1
  6
CONTINUOUS
 62
     3
 10
83.998365
 20
172.705988
 40
1.500000
  0
CIRCLE
  8
CSLAYER1
  6
CONTINUOUS
 62
     3
 10
108.998365
 20
172.705988
 40
1.500000
  0
CIRCLE
  8
CSLAYER1
  6
CONTINUOUS
 62
     3
 10
133.998365
 20
172.705988
 40
1.500000
  0
CIRCLE
  8
CSLAYER1
  6
CONTINUOUS
 62
     3
 10
133.998365
 20
147.705988
 40
1.500000
  0
CIRCLE
  8
CSLAYER1
  6
CONTINUOUS
 62
     3
 10
123.998365
 20
147.705988
 40
2.250000
  0
CIRCLE
  8
CSLAYER1
  6
CONTINUOUS
 62
     3
 10
108.998365
 20
147.705988
 40
7.500000
  0
CIRCLE
  8
CSLAYER1
  6
CONTINUOUS
 62
     3
 10
108.998365
 20
122.705988
 40
1.500000
  0
CIRCLE
  8
CSLAYER1
  6
CONTINUOUS
 62
     3
 10
133.998365
 20
122.705988
 40
1.500000
  0
LINE
  8
CSLAYER1
  6
CONTINUOUS
 62
     3
 10
174.326176
 20
83.441070
 11
174.326176
 21
61.541070
  0
LINE
  8
CSLAYER1
  6
CONTINUOUS
 62
     3
 10
174.326176
 20
61.541070
 11
193.326176
 21
61.541070
  0
LINE
  8
CSLAYER1
  6
CONTINUOUS
 62
     3
 10
193.326176
 20
65.441070
 11
193.326176
 21
56.341170
  0
LINE
  8
CSLAYER1
  6
CONTINUOUS
 62
     3
 10
193.326176
 20
56.341070
 11
215.326176
 21
56.341070
  0
LINE
  8
CSLAYER1
  6
CONTINUOUS
 62
     3
 10
215.326176
 20
56.341170
 11
215.326176
 21
65.441070
  0
LINE
  8
CSLAYER1
  6
CONTINUOUS
 62
     3
 10
215.326176
 20
61.541070
 11
234.326276
 21
61.541070
  0
LINE
  8
CSLAYER1
  6
CONTINUOUS
 62
     3
 10
234.326276
 20
61.541070
 11
234.326276
 21
83.441070
  0
LINE
  8
CSLAYER1
  6
CONTINUOUS
 62
     3
 10
234.326276
 20
83.441070
 11
174.326176
 21
83.441070
  0
LINE
  8
CSLAYER1
  6
CONTINUOUS
 62
     3
 10
234.326276
 20
65.441070
 11
174.326176
 21
65.441070
  0
LINE
  8
CSLAYER1
  6
CONTINUOUS
 62
     3
 10
143.298365
 20
25.040308
 11
53.298365
 21
25.040308
  0
LINE
  8
CSLAYER1
  6
CONTINUOUS
 62
     3
 10
53.298365
 20
25.040308
 11
53.298365
 21
-34.959692
  0
LINE
  8
CSLAYER1
  6
CONTINUOUS
 62
     3
 10
53.298365
 20
-34.959692
 11
143.298365
 21
-34.959692
  0
LINE
  8
CSLAYER1
  6
CONTINUOUS
 62
     3
 10
143.298365
 20
-34.959692
 11
143.298365
 21
25.040308
  0
LINE
  8
CSLAYER1
  6
CONTINUOUS
 62
     3
 10
131.564408
 20
25.040308
 11
131.564408
 21
-34.959692
  0
CIRCLE
  8
CSLAYER1
  6
CONTINUOUS
 62
     3
 10
108.998365
 20
-29.959692
 40
1.500000
  0
CIRCLE
  8
CSLAYER1
  6
CONTINUOUS
 62
     3
 10
108.998365
 20
-4.959692
 40
7.500000
  0
CIRCLE
  8
CSLAYER1
  6
CONTINUOUS
 62
     3
 10
123.998365
 20
-4.959692
 40
2.250000
  0
CIRCLE
  8
CSLAYER1
  6
CONTINUOUS
 62
     3
 10
123.998365
 20
-4.959692
 40
4.000000
  0
CIRCLE
  8
CSLAYER1
  6
CONTINUOUS
 62
     3
 10
108.998365
 20
20.040308
 40
1.500000
  0
CIRCLE
  8
CSLAYER1
  6
CONTINUOUS
 62
     3
 10
83.998365
 20
20.040308
 40
1.500000
  0
LINE
  8
CSLAYER1
  6
CONTINUOUS
 62
     3
 10
73.298365
 20
25.040308
 11
73.298365
 21
6.040308
  0
LINE
  8
CSLAYER1
  6
CONTINUOUS
 62
     3
 10
86.300089
 20
-15.959692
 11
86.300089
 21
6.040308
  0
LINE
  8
CSLAYER1
  6
CONTINUOUS
 62
     3
 10
86.300089
 20
6.040308
 11
53.300089
 21
6.040308
  0
LINE
  8
CSLAYER1
  6
CONTINUOUS
 62
     3
 10
53.300089
 20
6.040308
 11
53.300089
 21
-15.959692
  0
LINE
  8
CSLAYER1
  6
CONTINUOUS
 62
     3
 10
53.300089
 20
-15.959692
 11
86.300089
 21
-15.959692
  0
LINE
  8
CSLAYER1
  6
CONTINUOUS
 62
     3
 10
73.298365
 20
-15.959692
 11
73.298365
 21
-34.959692
  0
LINE
  8
CSLAYER1
  6
CONTINUOUS
 62
     3
 10
63.298365
 20
-34.959692
 11
63.298365
 21
-15.959692
  0
LINE
  8
CSLAYER1
  6
CONTINUOUS
 62
     3
 10
63.298365
 20
6.040308
 11
63.298365
 21
25.040308
  0
CIRCLE
  8
CSLAYER1
  6
CONTINUOUS
 62
     3
 10
83.998365
 20
-29.959692
 40
1.500000
  0
CIRCLE
  8
CSLAYER1
  6
CONTINUOUS
 62
     3
 10
93.998365
 20
-4.959692
 40
2.250000
  0
CIRCLE
  8
CSLAYER1
  6
CONTINUOUS
 62
     3
 10
93.998365
 20
-4.959692
 40
4.000000
  0
LINE
  8
CSLAYER1
  6
CENTER
 62
     7
 10
-19.848864
 20
49.271070
 11
-19.848864
 21
87.269570
  0
LINE
  8
CSLAYER1
  6
CENTER
 62
     7
 10
-6.161564
 20
67.341070
 11
-35.958464
 21
67.341070
  0
LINE
  8
CSLAYER1
  6
CENTER
 62
     7
 10
83.998365
 20
23.578414
 11
83.998365
 21
16.583572
  0
CIRCLE
  8
CSLAYER1
  6
CONTINUOUS
 62
     7
 10
83.998365
 20
20.040308
 40
2.000000
  0
LINE
  8
CSLAYER1
  6
CENTER
 62
     7
 10
80.657616
 20
20.040308
 11
87.589342
 21
20.040308
  0
LINE
  8
CSLAYER1
  6
CENTER
 62
     7
 10
93.998365
 20
1.039443
 11
93.998365
 21
-10.652551
  0
LINE
  8
CSLAYER1
  6
CENTER
 62
     7
 10
83.998365
 20
-26.502956
 11
83.998365
 21
-33.497799
  0
CIRCLE
  8
CSLAYER1
  6
CONTINUOUS
 62
     7
 10
83.998365
 20
-29.959692
 40
2.000000
  0
LINE
  8
CSLAYER1
  6
CENTER
 62
     7
 10
80.657616
 20
-29.959692
 11
87.589342
 21
-29.959692
  0
LINE
  8
CSLAYER1
  6
CENTER
 62
     7
 10
29.827339
 20
-4.959692
 11
148.648803
 21
-4.959692
  0
LINE
  8
CSLAYER1
  6
CENTER
 62
     7
 10
123.998365
 20
-10.652551
 11
123.998365
 21
1.039443
  0
LINE
  8
CSLAYER1
  6
CENTER
 62
     7
 10
112.436786
 20
20.040308
 11
105.674146
 21
20.040308
  0
CIRCLE
  8
CSLAYER1
  6
CONTINUOUS
 62
     7
 10
108.998365
 20
20.040308
 40
2.000000
  0
LINE
  8
CSLAYER1
  6
CENTER
 62
     7
 10
108.998365
 20
32.414242
 11
108.998365
 21
-41.519709
  0
CIRCLE
  8
CSLAYER1
  6
CONTINUOUS
 62
     7
 10
108.998365
 20
-29.959692
 40
2.000000
  0
LINE
  8
CSLAYER1
  6
CENTER
 62
     7
 10
105.407388
 20
-29.959692
 11
112.809168
 21
-29.959692
  0
CIRCLE
  8
CSLAYER1
  6
CONTINUOUS
 62
     7
 10
108.998365
 20
-4.959692
 40
8.000000
  0
LINE
  8
CSLAYER1
  6
CENTER
 62
     7
 10
108.998365
 20
111.882271
 11
108.998365
 21
183.806806
  0
CIRCLE
  8
CSLAYER1
  6
CONTINUOUS
 62
     7
 10
108.998365
 20
172.705988
 40
2.000000
  0
LINE
  8
CSLAYER1
  6
CENTER
 62
     7
 10
105.674146
 20
172.705988
 11
112.436786
 21
172.705988
  0
LINE
  8
CSLAYER1
  6
CENTER
 62
     7
 10
130.474919
 20
172.705988
 11
137.339114
 21
172.705988
  0
CIRCLE
  8
CSLAYER1
  6
CONTINUOUS
 62
     7
 10
133.998365
 20
172.705988
 40
2.000000
  0
LINE
  8
CSLAYER1
  6
CENTER
 62
     7
 10
133.998365
 20
169.249252
 11
133.998365
 21
176.244095
  0
LINE
  8
CSLAYER1
  6
CENTER
 62
     7
 10
123.998365
 20
153.398846
 11
123.998365
 21
141.706853
  0
CIRCLE
  8
CSLAYER1
  6
DOT
 62
     7
 10
123.998365
 20
147.705988
 40
4.000000
  0
CIRCLE
  8
CSLAYER1
  6
CONTINUOUS
 62
     7
 10
133.998365
 20
147.705988
 40
2.000000
  0
LINE
  8
CSLAYER1
  6
CENTER
 62
     7
 10
133.998365
 20
151.057235
 11
133.998365
 21
144.249252
  0
LINE
  8
CSLAYER1
  6
CENTER
 62
     7
 10
148.648803
 20
147.705988
 11
29.827339
 21
147.705988
  0
CIRCLE
  8
CSLAYER1
  6
CONTINUOUS
 62
     7
 10
83.998365
 20
147.705988
 40
2.000000
  0
LINE
  8
CSLAYER1
  6
CENTER
 62
     7
 10
83.998365
 20
151.057235
 11
83.998365
 21
144.249252
  0
LINE
  8
CSLAYER1
  6
CENTER
 62
     7
 10
93.998365
 20
141.706853
 11
93.998365
 21
153.398846
  0
CIRCLE
  8
CSLAYER1
  6
DOT
 62
     7
 10
93.998365
 20
147.705988
 40
4.000000
  0
LINE
  8
CSLAYER1
  6
CENTER
 62
     7
 10
83.998365
 20
169.249252
 11
83.998365
 21
176.244095
  0
CIRCLE
  8
CSLAYER1
  6
CONTINUOUS
 62
     7
 10
83.998365
 20
172.705988
 40
2.000000
  0
LINE
  8
CSLAYER1
  6
CENTER
 62
     7
 10
80.657616
 20
172.705988
 11
87.589342
 21
172.705988
  0
CIRCLE
  8
CSLAYER1
  6
CONTINUOUS
 62
     7
 10
108.998365
 20
147.705988
 40
8.000000
  0
CIRCLE
  8
CSLAYER1
  6
CONTINUOUS
 62
     7
 10
108.998365
 20
122.705988
 40
2.000000
  0
LINE
  8
CSLAYER1
  6
CENTER
 62
     7
 10
105.407388
 20
122.705988
 11
112.809168
 21
122.705988
  0
LINE
  8
CSLAYER1
  6
CENTER
 62
     7
 10
130.844560
 20
122.705988
 11
137.339114
 21
122.705988
  0
CIRCLE
  8
CSLAYER1
  6
CONTINUOUS
 62
     7
 10
133.998365
 20
122.705988
 40
2.000000
  0
LINE
  8
CSLAYER1
  6
CENTER
 62
     7
 10
133.998365
 20
126.162724
 11
133.998365
 21
119.167881
  0
LINE
  8
CSLAYER1
  6
CENTER
 62
     7
 10
87.589342
 20
122.705988
 11
80.657616
 21
122.705988
  0
CIRCLE
  8
CSLAYER1
  6
CONTINUOUS
 62
     7
 10
83.998365
 20
122.705988
 40
2.000000
  0
LINE
  8
CSLAYER1
  6
CENTER
 62
     7
 10
83.998365
 20
126.162724
 11
83.998365
 21
119.167881
  0
LINE
  8
CSLAYER1
  6
CENTER
 62
     7
 10
204.326176
 20
87.269570
 11
204.326176
 21
49.271070
  0
TEXT
  8
CSLAYER1
 62
     7
 10
209.821594
 20
-24.512579
 40
9.085054
 41
0.491953
  1
ƒ°-07-(2)
 50
0.000000
 51
0.000000
  7
FX_FONT
 72
     5
 11
244.087158
 21
-24.512579
  0
TEXT
  8
CSLAYER1
 62
     7
 10
209.821594
 20
-11.703413
 40
9.085054
 41
0.491953
  1
CAA-60LS
 50
0.000000
 51
0.000000
  7
FX_FONT
 72
     5
 11
244.087158
 21
-11.703413
  0
LINE
  8
CSLAYER1
  6
CONTINUOUS
 62
     3
 10
176.326176
 20
70.068559
 11
232.326276
 21
70.068559
  0
LINE
  8
CSLAYER1
  6
CONTINUOUS
 62
     3
 10
82.136542
 20
4.040308
 11
82.136542
 21
-13.959692
  0
LINE
  8
CSLAYER1
  6
CONTINUOUS
 62
     3
 10
51.800089
 20
144.705988
 11
51.800089
 21
150.705988
  0
LINE
  8
CSLAYER1
  6
CONTINUOUS
 62
     3
 10
53.298365
 20
150.705988
 11
51.800089
 21
150.705988
  0
LINE
  8
CSLAYER1
  6
CONTINUOUS
 62
     3
 10
53.298365
 20
144.705988
 11
51.800089
 21
144.705988
  0
LINE
  8
CSLAYER1
  6
CONTINUOUS
 62
     3
 10
33.800089
 20
155.205988
 11
33.800089
 21
140.205988
  0
LINE
  8
CSLAYER1
  6
CONTINUOUS
 62
     3
 10
33.800089
 20
140.205988
 11
34.300089
 21
139.705988
  0
LINE
  8
CSLAYER1
  6
CONTINUOUS
 62
     3
 10
34.300089
 20
139.705988
 11
51.300089
 21
139.705988
  0
LINE
  8
CSLAYER1
  6
CONTINUOUS
 62
     3
 10
51.300089
 20
139.705988
 11
51.800089
 21
140.205988
  0
LINE
  8
CSLAYER1
  6
CONTINUOUS
 62
     3
 10
51.800089
 20
140.205988
 11
51.800089
 21
155.205988
  0
LINE
  8
CSLAYER1
  6
CONTINUOUS
 62
     3
 10
51.800089
 20
155.205988
 11
51.300089
 21
155.705988
  0
LINE
  8
CSLAYER1
  6
CONTINUOUS
 62
     3
 10
51.300089
 20
155.705988
 11
34.300089
 21
155.705988
  0
LINE
  8
CSLAYER1
  6
CONTINUOUS
 62
     3
 10
34.300089
 20
155.705988
 11
33.800089
 21
155.205988
  0
LINE
  8
CSLAYER1
  6
CONTINUOUS
 62
     3
 10
34.300089
 20
155.705988
 11
34.300089
 21
139.705988
  0
LINE
  8
CSLAYER1
  6
CONTINUOUS
 62
     3
 10
51.300089
 20
139.705988
 11
51.300089
 21
155.705988
  0
INSERT
  8
CSLAYER1
  2
BLKF0000
 10
0.0
 20
0.0
 30
0.0
  0
LINE
  8
CSLAYER1
  6
CONTINUOUS
 62
     3
 10
51.800089
 20
-7.959692
 11
51.800089
 21
-1.959692
  0
LINE
  8
CSLAYER1
  6
CONTINUOUS
 62
     3
 10
53.300089
 20
-1.959692
 11
51.800089
 21
-1.959692
  0
LINE
  8
CSLAYER1
  6
CONTINUOUS
 62
     3
 10
53.300089
 20
-7.959692
 11
51.800089
 21
-7.959692
  0
LINE
  8
CSLAYER1
  6
CONTINUOUS
 62
     3
 10
33.800089
 20
2.540308
 11
33.800089
 21
-12.459692
  0
LINE
  8
CSLAYER1
  6
CONTINUOUS
 62
     3
 10
33.800089
 20
-12.459692
 11
34.300089
 21
-12.959692
  0
LINE
  8
CSLAYER1
  6
CONTINUOUS
 62
     3
 10
34.300089
 20
-12.959692
 11
51.300089
 21
-12.959692
  0
LINE
  8
CSLAYER1
  6
CONTINUOUS
 62
     3
 10
51.300089
 20
-12.959692
 11
51.800089
 21
-12.459692
  0
LINE
  8
CSLAYER1
  6
CONTINUOUS
 62
     3
 10
51.800089
 20
-12.459692
 11
51.800089
 21
2.540308
  0
LINE
  8
CSLAYER1
  6
CONTINUOUS
 62
     3
 10
51.800089
 20
2.540308
 11
51.300089
 21
3.040308
  0
LINE
  8
CSLAYER1
  6
CONTINUOUS
 62
     3
 10
51.300089
 20
3.040308
 11
34.300089
 21
3.040308
  0
LINE
  8
CSLAYER1
  6
CONTINUOUS
 62
     3
 10
34.300089
 20
3.040308
 11
33.800089
 21
2.540308
  0
LINE
  8
CSLAYER1
  6
CONTINUOUS
 62
     3
 10
34.300089
 20
3.040308
 11
34.300089
 21
-12.959692
  0
LINE
  8
CSLAYER1
  6
CONTINUOUS
 62
     3
 10
51.300089
 20
-12.959692
 11
51.300089
 21
3.040308
  0
INSERT
  8
CSLAYER1
  2
BLKF0001
 10
0.0
 20
0.0
 30
0.0
  0
INSERT
  8
CSLAYER1
  2
BLKF0002
 10
0.0
 20
0.0
 30
0.0
  0
LINE
  8
CSLAYER1
  6
CENTER
 62
     7
 10
28.097208
 20
67.341070
 11
83.340708
 21
67.341070
  0
LINE
  8
CSLAYER1
  6
CONTINUOUS
 62
     3
 10
82.898365
 20
75.441070
 11
90.698365
 21
75.441070
  0
LINE
  8
CSLAYER1
  6
CONTINUOUS
 62
     3
 10
127.398365
 20
75.441070
 11
133.198365
 21
75.441070
  0
LINE
  8
CSLAYER1
  6
CONTINUOUS
 62
     3
 10
134.755219
 20
70.541070
 11
131.572413
 21
67.358263
  0
LINE
  8
CSLAYER1
  6
CONTINUOUS
 62
     3
 10
82.441511
 20
71.341070
 11
86.300089
 21
67.482491
  0
LINE
  8
CSLAYER1
  6
CONTINUOUS
 62
     3
 10
78.300089
 20
69.491070
 11
75.800089
 21
69.491070
  0
LINE
  8
CSLAYER1
  6
CONTINUOUS
 62
     3
 10
78.300089
 20
65.191070
 11
75.800089
 21
65.191070
  0
LINE
  8
CSLAYER1
  6
CONTINUOUS
 62
     3
 10
75.800089
 20
64.841070
 11
75.800089
 21
69.841070
  0
LINE
  8
CSLAYER1
  6
CONTINUOUS
 62
     3
 10
75.300089
 20
70.341070
 11
73.156944
 21
70.341070
  0
LINE
  8
CSLAYER1
  6
CONTINUOUS
 62
     3
 10
75.300089
 20
64.341070
 11
73.156944
 21
64.341070
  0
LINE
  8
CSLAYER1
  6
CONTINUOUS
 62
     7
 10
75.800089
 20
69.841070
 11
73.156944
 21
69.841070
  0
LINE
  8
CSLAYER1
  6
CONTINUOUS
 62
     7
 10
75.800089
 20
64.841070
 11
73.156944
 21
64.841070
  0
LINE
  8
CSLAYER1
  6
CONTINUOUS
 62
     3
 10
51.800089
 20
64.341070
 11
51.800089
 21
70.341070
  0
LINE
  8
CSLAYER1
  6
CONTINUOUS
 62
     3
 10
53.300089
 20
70.341070
 11
51.800089
 21
70.341070
  0
LINE
  8
CSLAYER1
  6
CONTINUOUS
 62
     3
 10
53.300089
 20
64.341070
 11
51.800089
 21
64.341070
  0
LINE
  8
CSLAYER1
  6
CONTINUOUS
 62
     3
 10
33.800089
 20
74.841070
 11
33.800089
 21
59.841070
  0
LINE
  8
CSLAYER1
  6
CONTINUOUS
 62
     3
 10
33.800089
 20
59.841070
 11
34.300089
 21
59.341070
  0
LINE
  8
CSLAYER1
  6
CONTINUOUS
 62
     3
 10
34.300089
 20
59.341070
 11
51.300089
 21
59.341070
  0
LINE
  8
CSLAYER1
  6
CONTINUOUS
 62
     3
 10
51.300089
 20
59.341070
 11
51.800089
 21
59.841070
  0
LINE
  8
CSLAYER1
  6
CONTINUOUS
 62
     3
 10
51.800089
 20
59.841070
 11
51.800089
 21
74.841070
  0
LINE
  8
CSLAYER1
  6
CONTINUOUS
 62
     3
 10
51.800089
 20
74.841070
 11
51.300089
 21
75.341070
  0
LINE
  8
CSLAYER1
  6
CONTINUOUS
 62
     3
 10
51.300089
 20
75.341070
 11
34.300089
 21
75.341070
  0
LINE
  8
CSLAYER1
  6
CONTINUOUS
 62
     3
 10
34.300089
 20
75.341070
 11
33.800089
 21
74.841070
  0
LINE
  8
CSLAYER1
  6
CONTINUOUS
 62
     3
 10
34.300089
 20
75.341070
 11
34.300089
 21
59.341070
  0
LINE
  8
CSLAYER1
  6
CONTINUOUS
 62
     3
 10
51.300089
 20
59.341070
 11
51.300089
 21
75.341070
  0
INSERT
  8
CSLAYER1
  2
BLKF0003
 10
0.0
 20
0.0
 30
0.0
  0
LINE
  8
CSLAYER1
  6
CONTINUOUS
 62
     3
 10
54.300089
 20
74.341070
 11
60.300089
 21
74.341070
  0
LINE
  8
CSLAYER1
  6
CONTINUOUS
 62
     3
 10
54.300089
 20
56.341070
 11
80.208179
 21
56.341070
  0
LINE
  8
CSLAYER1
  6
CONTINUOUS
 62
     3
 10
53.300089
 20
57.341070
 11
53.300089
 21
73.341070
  0
LINE
  8
CSLAYER1
  6
CONTINUOUS
 62
     3
 10
86.300089
 20
60.536568
 11
86.300089
 21
67.482491
  0
LINE
  8
CSLAYER1
  6
CONTINUOUS
 62
     3
 10
61.300089
 20
62.341070
 11
61.300089
 21
73.341070
  0
LINE
  8
CSLAYER1
  6
CONTINUOUS
 62
     3
 10
62.300089
 20
61.341070
 11
77.300089
 21
61.341070
  0
LINE
  8
CSLAYER1
  6
CONTINUOUS
 62
     3
 10
78.300089
 20
62.341070
 11
78.300089
 21
70.341070
  0
LINE
  8
CSLAYER1
  6
CONTINUOUS
 62
     3
 10
79.300089
 20
71.341070
 11
82.441511
 21
71.341070
  0
LINE
  8
CSLAYER1
  6
CONTINUOUS
 62
     3
 10
82.136542
 20
57.042937
 11
86.300089
 21
60.536568
  0
ARC
  8
CSLAYER1
  6
CONTINUOUS
 62
     3
 10
80.208179
 20
59.341070
 40
3.000000
 50
270.000000
 51
310.000000
  0
ARC
  8
CSLAYER1
  6
CONTINUOUS
 62
     3
 10
54.300089
 20
73.341070
 40
1.000000
 50
90.000000
 51
180.000000
  0
ARC
  8
CSLAYER1
  6
CONTINUOUS
 62
     3
 10
60.300089
 20
73.341070
 40
1.000000
 50
0.000000
 51
90.000000
  0
ARC
  8
CSLAYER1
  6
CONTINUOUS
 62
     3
 10
54.300089
 20
57.341070
 40
1.000000
 50
180.000000
 51
270.000000
  0
ARC
  8
CSLAYER1
  6
CONTINUOUS
 62
     3
 10
62.300089
 20
62.341070
 40
1.000000
 50
180.000000
 51
270.000000
  0
ARC
  8
CSLAYER1
  6
CONTINUOUS
 62
     3
 10
77.300089
 20
62.341070
 40
1.000000
 50
270.000000
 51
360.000000
  0
ARC
  8
CSLAYER1
  6
CONTINUOUS
 62
     3
 10
79.300089
 20
70.341070
 40
1.000000
 50
90.000000
 51
180.000000
  0
LINE
  8
CSLAYER1
  6
CONTINUOUS
 62
     3
 10
63.156944
 20
70.341070
 11
61.300089
 21
70.341070
  0
LINE
  8
CSLAYER1
  6
CONTINUOUS
 62
     7
 10
63.156944
 20
69.841070
 11
61.300089
 21
69.841070
  0
LINE
  8
CSLAYER1
  6
CONTINUOUS
 62
     7
 10
63.156944
 20
64.841070
 11
61.300089
 21
64.841070
  0
LINE
  8
CSLAYER1
  6
CONTINUOUS
 62
     3
 10
63.156944
 20
64.341070
 11
61.300089
 21
64.341070
  0
LINE
  8
CSLAYER1
  6
CONTINUOUS
 62
     3
 10
75.300089
 20
70.341070
 11
75.800089
 21
69.841070
  0
LINE
  8
CSLAYER1
  6
CONTINUOUS
 62
     3
 10
75.300089
 20
64.341070
 11
75.800089
 21
64.841070
  0
ARC
  8
CSLAYER1
  6
CONTINUOUS
 62
     3
 10
65.298365
 20
63.541070
 40
2.000000
 50
180.000000
 51
270.000000
  0
LINE
  8
CSLAYER1
  6
CONTINUOUS
 62
     3
 10
65.298365
 20
61.541070
 11
71.298365
 21
61.541070
  0
ARC
  8
CSLAYER1
  6
CONTINUOUS
 62
     3
 10
71.298365
 20
63.541070
 40
2.000000
 50
270.000000
 51
360.000000
  0
LINE
  8
CSLAYER1
  6
CONTINUOUS
 62
     3
 10
73.298365
 20
63.541070
 11
73.298365
 21
75.041070
  0
LINE
  8
CSLAYER1
  6
CONTINUOUS
 62
     3
 10
135.298365
 20
75.841070
 11
135.298365
 21
70.741070
  0
LINE
  8
CSLAYER1
  6
CONTINUOUS
 62
     3
 10
143.298365
 20
72.666635
 11
143.298365
 21
83.441070
  0
LINE
  8
CSLAYER1
  6
CONTINUOUS
 62
     3
 10
143.298365
 20
83.441070
 11
53.298365
 21
83.441070
  0
LINE
  8
CSLAYER1
  6
CONTINUOUS
 62
     3
 10
53.298365
 20
83.441070
 11
53.298365
 21
76.541070
  0
ARC
  8
CSLAYER1
  6
CONTINUOUS
 62
     3
 10
54.298365
 20
76.541070
 40
1.000000
 50
180.000000
 51
270.000000
  0
LINE
  8
CSLAYER1
  6
CONTINUOUS
 62
     3
 10
54.298365
 20
75.541070
 11
62.298365
 21
75.541070
  0
ARC
  8
CSLAYER1
  6
CONTINUOUS
 62
     3
 10
62.298365
 20
74.541070
 40
1.000000
 50
0.000000
 51
90.000000
  0
LINE
  8
CSLAYER1
  6
CONTINUOUS
 62
     3
 10
63.298365
 20
74.541070
 11
63.298365
 21
63.541070
  0
LINE
  8
CSLAYER1
  6
CONTINUOUS
 62
     3
 10
74.298365
 20
76.041070
 11
82.298365
 21
76.041070
  0
LINE
  8
CSLAYER1
  6
CONTINUOUS
 62
     3
 10
133.798365
 20
76.041070
 11
133.198365
 21
75.441070
  0
LINE
  8
CSLAYER1
  6
CONTINUOUS
 62
     3
 10
127.398365
 20
75.441070
 11
126.798365
 21
76.041070
  0
LINE
  8
CSLAYER1
  6
CONTINUOUS
 62
     3
 10
90.698365
 20
75.441070
 11
91.298365
 21
76.041070
  0
LINE
  8
CSLAYER1
  6
CONTINUOUS
 62
     3
 10
82.898365
 20
75.441070
 11
82.298365
 21
76.041070
  0
LINE
  8
CSLAYER1
  6
CONTINUOUS
 62
     3
 10
91.298365
 20
76.041070
 11
126.798365
 21
76.041070
  0
ARC
  8
CSLAYER1
  6
CONTINUOUS
 62
     3
 10
74.298365
 20
75.041070
 40
1.000000
 50
90.000000
 51
180.000000
  0
LINE
  8
CSLAYER1
  6
CONTINUOUS
 62
     3
 10
133.798365
 20
76.041070
 11
135.098365
 21
76.041070
  0
ARC
  8
CSLAYER1
  6
CONTINUOUS
 62
     3
 10
135.098365
 20
75.841070
 40
0.200000
 50
0.000000
 51
90.000000
  0
LINE
  8
CSLAYER1
  6
CONTINUOUS
 62
     3
 10
135.098365
 20
70.541070
 11
134.755219
 21
70.541070
  0
ARC
  8
CSLAYER1
  6
CONTINUOUS
 62
     3
 10
135.098365
 20
70.741070
 40
0.200000
 50
270.000000
 51
360.000000
  0
ARC
  8
CSLAYER1
  6
CONTINUOUS
 62
     3
 10
133.314408
 20
67.191070
 40
1.750000
 50
174.517653
 51
300.000000
  0
LINE
  8
CSLAYER1
  6
CONTINUOUS
 62
     3
 10
134.189408
 20
65.675526
 11
141.798365
 21
70.068559
  0
ARC
  8
CSLAYER1
  6
CONTINUOUS
 62
     3
 10
140.298365
 20
72.666635
 40
3.000000
 50
300.000000
 51
360.000000
  0
LINE
  8
CSLAYER1
  6
CENTER
 62
     7
 10
124.998365
 20
127.891093
 11
124.998365
 21
123.520883
  0
LINE
  8
CSLAYER1
  6
CENTER
 62
     7
 10
127.183470
 20
125.705988
 11
122.813260
 21
125.705988
  0
CIRCLE
  8
CSLAYER1
  6
CONTINUOUS
 62
     3
 10
124.998365
 20
125.705988
 40
1.000000
  0
CIRCLE
  8
CSLAYER1
  6
CONTINUOUS
 62
     7
 10
124.998365
 20
125.705988
 40
1.500000
  0
LINE
  8
CSLAYER1
  6
CENTER
 62
     7
 10
124.998365
 20
167.520883
 11
124.998365
 21
171.891093
  0
LINE
  8
CSLAYER1
  6
CENTER
 62
     7
 10
127.183470
 20
169.705988
 11
122.813260
 21
169.705988
  0
CIRCLE
  8
CSLAYER1
  6
CONTINUOUS
 62
     3
 10
124.998365
 20
169.705988
 40
1.000000
  0
CIRCLE
  8
CSLAYER1
  6
CONTINUOUS
 62
     7
 10
124.998365
 20
169.705988
 40
1.500000
  0
LINE
  8
CSLAYER1
  6
CENTER
 62
     7
 10
58.998365
 20
127.891093
 11
58.998365
 21
123.520883
  0
LINE
  8
CSLAYER1
  6
CENTER
 62
     7
 10
61.183470
 20
125.705988
 11
56.813260
 21
125.705988
  0
CIRCLE
  8
CSLAYER1
  6
CONTINUOUS
 62
     3
 10
58.998365
 20
125.705988
 40
1.000000
  0
CIRCLE
  8
CSLAYER1
  6
CONTINUOUS
 62
     7
 10
58.998365
 20
125.705988
 40
1.500000
  0
LINE
  8
CSLAYER1
  6
CENTER
 62
     7
 10
58.998365
 20
167.520883
 11
58.998365
 21
171.891093
  0
LINE
  8
CSLAYER1
  6
CENTER
 62
     7
 10
61.183470
 20
169.705988
 11
56.813260
 21
169.705988
  0
CIRCLE
  8
CSLAYER1
  6
CONTINUOUS
 62
     3
 10
58.998365
 20
169.705988
 40
1.000000
  0
CIRCLE
  8
CSLAYER1
  6
CONTINUOUS
 62
     7
 10
58.998365
 20
169.705988
 40
1.500000
  0
ENDSEC
  0
EOF
