ISO-10303-21;
HEADER;
/* Generated by software containing ST-Developer
 * from STEP Tools, Inc. (www.steptools.com) 
 */

FILE_DESCRIPTION(
/* description */ (
'\X2\30B330B930E230FB30C630C330AF682A5F0F4F1A793E\X0\(COSMOTEC Corprat
ion)'),
/* implementation_level */ '2;1');

FILE_NAME(
/* name */ 'ICF114FDS63B.stp',
/* time_stamp */ '2024-04-08T16:34:00+09:00',
/* author */ ('Hirata'),
/* organization */ (''),
/* preprocessor_version */ 'ST-DEVELOPER v19.2',
/* originating_system */ 'Autodesk Inventor 2024',
/* authorisation */ '');

FILE_SCHEMA (('AUTOMOTIVE_DESIGN { 1 0 10303 214 3 1 1 }'));
ENDSEC;

DATA;
#10=MECHANICAL_DESIGN_GEOMETRIC_PRESENTATION_REPRESENTATION('',(#33,#34,
#35,#36,#37,#38,#39,#40,#41,#42,#43,#44,#45,#46,#47,#48,#49,#50),#1315);
#11=GEOMETRICALLY_BOUNDED_WIREFRAME_SHAPE_REPRESENTATION('',(#12),#1314);
#12=GEOMETRIC_CURVE_SET('\X2\30B930B130C330C1\X0\2',(#16,#17,#18,#19,#20,
#21,#22,#23,#24,#25,#26,#27,#28,#29,#30,#31,#32));
#13=SHAPE_REPRESENTATION_RELATIONSHIP('SRR','None',#1322,#15);
#14=SHAPE_REPRESENTATION_RELATIONSHIP('SRR','None',#1322,#11);
#15=ADVANCED_BREP_SHAPE_REPRESENTATION('',(#51),#1314);
#16=POLYLINE('',(#1278,#1279));
#17=POLYLINE('',(#1280,#1281));
#18=POLYLINE('',(#1282,#1283));
#19=POLYLINE('',(#1284,#1285));
#20=POLYLINE('',(#1286,#1287));
#21=POLYLINE('',(#1288,#1289));
#22=POLYLINE('',(#1290,#1291));
#23=POLYLINE('',(#1292,#1293));
#24=POLYLINE('',(#1294,#1295));
#25=POLYLINE('',(#1296,#1297));
#26=POLYLINE('',(#1298,#1299));
#27=POLYLINE('',(#1300,#1301));
#28=POLYLINE('',(#1302,#1303));
#29=POLYLINE('',(#1304,#1305));
#30=POLYLINE('',(#1306,#1307));
#31=POLYLINE('',(#1308,#1309));
#32=POLYLINE('',(#1310,#1311));
#33=STYLED_ITEM('',(#1331),#51);
#34=STYLED_ITEM('',(#1332),#16);
#35=STYLED_ITEM('',(#1332),#17);
#36=STYLED_ITEM('',(#1332),#18);
#37=STYLED_ITEM('',(#1332),#19);
#38=STYLED_ITEM('',(#1332),#20);
#39=STYLED_ITEM('',(#1332),#21);
#40=STYLED_ITEM('',(#1332),#22);
#41=STYLED_ITEM('',(#1332),#23);
#42=STYLED_ITEM('',(#1332),#24);
#43=STYLED_ITEM('',(#1332),#25);
#44=STYLED_ITEM('',(#1332),#26);
#45=STYLED_ITEM('',(#1332),#27);
#46=STYLED_ITEM('',(#1332),#28);
#47=STYLED_ITEM('',(#1332),#29);
#48=STYLED_ITEM('',(#1332),#30);
#49=STYLED_ITEM('',(#1332),#31);
#50=STYLED_ITEM('',(#1332),#32);
#51=MANIFOLD_SOLID_BREP('\X2\30BD30EA30C330C9\X0\1',#750);
#52=CONICAL_SURFACE('',#827,39.925,1.22173047639603);
#53=CONICAL_SURFACE('',#839,39.925,1.22173047639603);
#54=FACE_BOUND('',#136,.T.);
#55=FACE_BOUND('',#137,.T.);
#56=FACE_BOUND('',#138,.T.);
#57=FACE_BOUND('',#139,.T.);
#58=FACE_BOUND('',#148,.T.);
#59=FACE_BOUND('',#149,.T.);
#60=FACE_BOUND('',#150,.T.);
#61=FACE_BOUND('',#151,.T.);
#62=FACE_BOUND('',#163,.T.);
#63=FACE_BOUND('',#166,.T.);
#64=FACE_BOUND('',#171,.T.);
#65=FACE_BOUND('',#172,.T.);
#66=FACE_BOUND('',#173,.T.);
#67=FACE_BOUND('',#174,.T.);
#68=FACE_BOUND('',#176,.T.);
#69=FACE_BOUND('',#179,.T.);
#70=FACE_BOUND('',#182,.T.);
#71=FACE_BOUND('',#183,.T.);
#72=FACE_BOUND('',#184,.T.);
#73=FACE_BOUND('',#185,.T.);
#74=CYLINDRICAL_SURFACE('',#777,57.);
#75=CYLINDRICAL_SURFACE('',#799,41.25);
#76=CYLINDRICAL_SURFACE('',#811,4.2);
#77=CYLINDRICAL_SURFACE('',#812,4.2);
#78=CYLINDRICAL_SURFACE('',#813,4.2);
#79=CYLINDRICAL_SURFACE('',#814,4.2);
#80=CYLINDRICAL_SURFACE('',#815,4.2);
#81=CYLINDRICAL_SURFACE('',#818,4.2);
#82=CYLINDRICAL_SURFACE('',#821,4.2);
#83=CYLINDRICAL_SURFACE('',#824,4.2);
#84=CYLINDRICAL_SURFACE('',#829,38.6);
#85=CYLINDRICAL_SURFACE('',#833,31.5);
#86=CYLINDRICAL_SURFACE('',#837,38.6);
#87=CYLINDRICAL_SURFACE('',#841,41.25);
#88=CYLINDRICAL_SURFACE('',#846,56.5);
#89=CYLINDRICAL_SURFACE('',#850,57.);
#90=FACE_OUTER_BOUND('',#128,.T.);
#91=FACE_OUTER_BOUND('',#129,.T.);
#92=FACE_OUTER_BOUND('',#130,.T.);
#93=FACE_OUTER_BOUND('',#131,.T.);
#94=FACE_OUTER_BOUND('',#132,.T.);
#95=FACE_OUTER_BOUND('',#133,.T.);
#96=FACE_OUTER_BOUND('',#134,.T.);
#97=FACE_OUTER_BOUND('',#135,.T.);
#98=FACE_OUTER_BOUND('',#140,.T.);
#99=FACE_OUTER_BOUND('',#141,.T.);
#100=FACE_OUTER_BOUND('',#142,.T.);
#101=FACE_OUTER_BOUND('',#143,.T.);
#102=FACE_OUTER_BOUND('',#144,.T.);
#103=FACE_OUTER_BOUND('',#145,.T.);
#104=FACE_OUTER_BOUND('',#146,.T.);
#105=FACE_OUTER_BOUND('',#147,.T.);
#106=FACE_OUTER_BOUND('',#152,.T.);
#107=FACE_OUTER_BOUND('',#153,.T.);
#108=FACE_OUTER_BOUND('',#154,.T.);
#109=FACE_OUTER_BOUND('',#155,.T.);
#110=FACE_OUTER_BOUND('',#156,.T.);
#111=FACE_OUTER_BOUND('',#157,.T.);
#112=FACE_OUTER_BOUND('',#158,.T.);
#113=FACE_OUTER_BOUND('',#159,.T.);
#114=FACE_OUTER_BOUND('',#160,.T.);
#115=FACE_OUTER_BOUND('',#161,.T.);
#116=FACE_OUTER_BOUND('',#162,.T.);
#117=FACE_OUTER_BOUND('',#164,.T.);
#118=FACE_OUTER_BOUND('',#165,.T.);
#119=FACE_OUTER_BOUND('',#167,.T.);
#120=FACE_OUTER_BOUND('',#168,.T.);
#121=FACE_OUTER_BOUND('',#169,.T.);
#122=FACE_OUTER_BOUND('',#170,.T.);
#123=FACE_OUTER_BOUND('',#175,.T.);
#124=FACE_OUTER_BOUND('',#177,.T.);
#125=FACE_OUTER_BOUND('',#178,.T.);
#126=FACE_OUTER_BOUND('',#180,.T.);
#127=FACE_OUTER_BOUND('',#181,.T.);
#128=EDGE_LOOP('',(#496,#497,#498,#499));
#129=EDGE_LOOP('',(#500,#501,#502,#503));
#130=EDGE_LOOP('',(#504,#505,#506,#507));
#131=EDGE_LOOP('',(#508,#509,#510,#511));
#132=EDGE_LOOP('',(#512,#513,#514,#515));
#133=EDGE_LOOP('',(#516,#517,#518,#519));
#134=EDGE_LOOP('',(#520,#521,#522,#523,#524,#525,#526,#527,#528,#529,#530,
#531));
#135=EDGE_LOOP('',(#532,#533,#534,#535,#536,#537));
#136=EDGE_LOOP('',(#538));
#137=EDGE_LOOP('',(#539));
#138=EDGE_LOOP('',(#540));
#139=EDGE_LOOP('',(#541));
#140=EDGE_LOOP('',(#542,#543,#544,#545));
#141=EDGE_LOOP('',(#546,#547,#548,#549));
#142=EDGE_LOOP('',(#550,#551,#552,#553));
#143=EDGE_LOOP('',(#554,#555,#556,#557));
#144=EDGE_LOOP('',(#558,#559,#560,#561));
#145=EDGE_LOOP('',(#562,#563,#564,#565));
#146=EDGE_LOOP('',(#566,#567,#568,#569,#570,#571,#572,#573,#574,#575,#576,
#577));
#147=EDGE_LOOP('',(#578,#579,#580,#581,#582,#583));
#148=EDGE_LOOP('',(#584));
#149=EDGE_LOOP('',(#585));
#150=EDGE_LOOP('',(#586));
#151=EDGE_LOOP('',(#587));
#152=EDGE_LOOP('',(#588,#589,#590,#591));
#153=EDGE_LOOP('',(#592,#593,#594,#595));
#154=EDGE_LOOP('',(#596,#597,#598,#599));
#155=EDGE_LOOP('',(#600,#601,#602,#603));
#156=EDGE_LOOP('',(#604,#605,#606,#607));
#157=EDGE_LOOP('',(#608,#609,#610,#611));
#158=EDGE_LOOP('',(#612,#613,#614,#615));
#159=EDGE_LOOP('',(#616,#617,#618,#619));
#160=EDGE_LOOP('',(#620,#621,#622,#623));
#161=EDGE_LOOP('',(#624,#625,#626,#627));
#162=EDGE_LOOP('',(#628));
#163=EDGE_LOOP('',(#629));
#164=EDGE_LOOP('',(#630,#631,#632,#633));
#165=EDGE_LOOP('',(#634));
#166=EDGE_LOOP('',(#635));
#167=EDGE_LOOP('',(#636,#637,#638,#639));
#168=EDGE_LOOP('',(#640,#641,#642,#643));
#169=EDGE_LOOP('',(#644,#645,#646,#647,#648,#649,#650,#651,#652,#653,#654,
#655));
#170=EDGE_LOOP('',(#656,#657,#658,#659));
#171=EDGE_LOOP('',(#660));
#172=EDGE_LOOP('',(#661));
#173=EDGE_LOOP('',(#662));
#174=EDGE_LOOP('',(#663));
#175=EDGE_LOOP('',(#664));
#176=EDGE_LOOP('',(#665));
#177=EDGE_LOOP('',(#666,#667,#668,#669));
#178=EDGE_LOOP('',(#670));
#179=EDGE_LOOP('',(#671));
#180=EDGE_LOOP('',(#672,#673,#674,#675,#676,#677,#678,#679,#680,#681,#682,
#683));
#181=EDGE_LOOP('',(#684,#685,#686,#687));
#182=EDGE_LOOP('',(#688));
#183=EDGE_LOOP('',(#689));
#184=EDGE_LOOP('',(#690));
#185=EDGE_LOOP('',(#691));
#186=LINE('',#1083,#236);
#187=LINE('',#1086,#237);
#188=LINE('',#1089,#238);
#189=LINE('',#1091,#239);
#190=LINE('',#1092,#240);
#191=LINE('',#1095,#241);
#192=LINE('',#1097,#242);
#193=LINE('',#1098,#243);
#194=LINE('',#1104,#244);
#195=LINE('',#1107,#245);
#196=LINE('',#1110,#246);
#197=LINE('',#1112,#247);
#198=LINE('',#1113,#248);
#199=LINE('',#1116,#249);
#200=LINE('',#1118,#250);
#201=LINE('',#1119,#251);
#202=LINE('',#1124,#252);
#203=LINE('',#1145,#253);
#204=LINE('',#1148,#254);
#205=LINE('',#1151,#255);
#206=LINE('',#1153,#256);
#207=LINE('',#1154,#257);
#208=LINE('',#1157,#258);
#209=LINE('',#1159,#259);
#210=LINE('',#1160,#260);
#211=LINE('',#1166,#261);
#212=LINE('',#1169,#262);
#213=LINE('',#1172,#263);
#214=LINE('',#1174,#264);
#215=LINE('',#1175,#265);
#216=LINE('',#1178,#266);
#217=LINE('',#1180,#267);
#218=LINE('',#1181,#268);
#219=LINE('',#1186,#269);
#220=LINE('',#1203,#270);
#221=LINE('',#1205,#271);
#222=LINE('',#1207,#272);
#223=LINE('',#1209,#273);
#224=LINE('',#1214,#274);
#225=LINE('',#1220,#275);
#226=LINE('',#1226,#276);
#227=LINE('',#1232,#277);
#228=LINE('',#1237,#278);
#229=LINE('',#1240,#279);
#230=LINE('',#1247,#280);
#231=LINE('',#1254,#281);
#232=LINE('',#1259,#282);
#233=LINE('',#1261,#283);
#234=LINE('',#1270,#284);
#235=LINE('',#1276,#285);
#236=VECTOR('',#859,10.);
#237=VECTOR('',#862,10.);
#238=VECTOR('',#865,10.);
#239=VECTOR('',#866,10.);
#240=VECTOR('',#867,10.);
#241=VECTOR('',#870,10.);
#242=VECTOR('',#871,10.);
#243=VECTOR('',#872,10.);
#244=VECTOR('',#877,10.);
#245=VECTOR('',#880,10.);
#246=VECTOR('',#883,10.);
#247=VECTOR('',#884,10.);
#248=VECTOR('',#885,10.);
#249=VECTOR('',#888,10.);
#250=VECTOR('',#889,10.);
#251=VECTOR('',#890,10.);
#252=VECTOR('',#895,57.);
#253=VECTOR('',#920,10.);
#254=VECTOR('',#923,10.);
#255=VECTOR('',#926,10.);
#256=VECTOR('',#927,10.);
#257=VECTOR('',#928,10.);
#258=VECTOR('',#931,10.);
#259=VECTOR('',#932,10.);
#260=VECTOR('',#933,10.);
#261=VECTOR('',#938,10.);
#262=VECTOR('',#941,10.);
#263=VECTOR('',#944,10.);
#264=VECTOR('',#945,10.);
#265=VECTOR('',#946,10.);
#266=VECTOR('',#949,10.);
#267=VECTOR('',#950,10.);
#268=VECTOR('',#951,10.);
#269=VECTOR('',#956,41.25);
#270=VECTOR('',#979,4.2);
#271=VECTOR('',#982,4.2);
#272=VECTOR('',#985,4.2);
#273=VECTOR('',#988,4.2);
#274=VECTOR('',#993,4.2);
#275=VECTOR('',#1000,4.2);
#276=VECTOR('',#1007,4.2);
#277=VECTOR('',#1014,4.2);
#278=VECTOR('',#1021,39.925);
#279=VECTOR('',#1024,38.6);
#280=VECTOR('',#1033,31.5);
#281=VECTOR('',#1042,38.6);
#282=VECTOR('',#1049,39.925);
#283=VECTOR('',#1052,41.25);
#284=VECTOR('',#1065,56.5);
#285=VECTOR('',#1074,57.);
#286=CIRCLE('',#768,57.);
#287=CIRCLE('',#769,41.25);
#288=CIRCLE('',#773,57.);
#289=CIRCLE('',#774,41.25);
#290=CIRCLE('',#778,57.);
#291=CIRCLE('',#779,57.);
#292=CIRCLE('',#780,57.);
#293=CIRCLE('',#781,57.);
#294=CIRCLE('',#783,41.25);
#295=CIRCLE('',#784,41.25);
#296=CIRCLE('',#785,4.2);
#297=CIRCLE('',#786,4.2);
#298=CIRCLE('',#787,4.2);
#299=CIRCLE('',#788,4.2);
#300=CIRCLE('',#790,41.25);
#301=CIRCLE('',#791,57.);
#302=CIRCLE('',#795,41.25);
#303=CIRCLE('',#796,57.);
#304=CIRCLE('',#800,41.25);
#305=CIRCLE('',#801,41.25);
#306=CIRCLE('',#802,41.25);
#307=CIRCLE('',#803,41.25);
#308=CIRCLE('',#805,57.);
#309=CIRCLE('',#806,57.);
#310=CIRCLE('',#807,4.2);
#311=CIRCLE('',#808,4.2);
#312=CIRCLE('',#809,4.2);
#313=CIRCLE('',#810,4.2);
#314=CIRCLE('',#816,4.2);
#315=CIRCLE('',#817,4.2);
#316=CIRCLE('',#819,4.2);
#317=CIRCLE('',#820,4.2);
#318=CIRCLE('',#822,4.2);
#319=CIRCLE('',#823,4.2);
#320=CIRCLE('',#825,4.2);
#321=CIRCLE('',#826,4.2);
#322=CIRCLE('',#828,38.6);
#323=CIRCLE('',#830,38.6);
#324=CIRCLE('',#832,31.5);
#325=CIRCLE('',#834,31.5);
#326=CIRCLE('',#836,38.6);
#327=CIRCLE('',#838,38.6);
#328=CIRCLE('',#840,41.25);
#329=CIRCLE('',#842,41.25);
#330=CIRCLE('',#845,56.5);
#331=CIRCLE('',#847,56.5);
#332=CIRCLE('',#849,57.);
#333=CIRCLE('',#851,57.);
#334=VERTEX_POINT('',#1079);
#335=VERTEX_POINT('',#1080);
#336=VERTEX_POINT('',#1082);
#337=VERTEX_POINT('',#1084);
#338=VERTEX_POINT('',#1088);
#339=VERTEX_POINT('',#1090);
#340=VERTEX_POINT('',#1094);
#341=VERTEX_POINT('',#1096);
#342=VERTEX_POINT('',#1100);
#343=VERTEX_POINT('',#1101);
#344=VERTEX_POINT('',#1103);
#345=VERTEX_POINT('',#1105);
#346=VERTEX_POINT('',#1109);
#347=VERTEX_POINT('',#1111);
#348=VERTEX_POINT('',#1115);
#349=VERTEX_POINT('',#1117);
#350=VERTEX_POINT('',#1121);
#351=VERTEX_POINT('',#1123);
#352=VERTEX_POINT('',#1129);
#353=VERTEX_POINT('',#1132);
#354=VERTEX_POINT('',#1134);
#355=VERTEX_POINT('',#1136);
#356=VERTEX_POINT('',#1138);
#357=VERTEX_POINT('',#1141);
#358=VERTEX_POINT('',#1142);
#359=VERTEX_POINT('',#1144);
#360=VERTEX_POINT('',#1146);
#361=VERTEX_POINT('',#1150);
#362=VERTEX_POINT('',#1152);
#363=VERTEX_POINT('',#1156);
#364=VERTEX_POINT('',#1158);
#365=VERTEX_POINT('',#1162);
#366=VERTEX_POINT('',#1163);
#367=VERTEX_POINT('',#1165);
#368=VERTEX_POINT('',#1167);
#369=VERTEX_POINT('',#1171);
#370=VERTEX_POINT('',#1173);
#371=VERTEX_POINT('',#1177);
#372=VERTEX_POINT('',#1179);
#373=VERTEX_POINT('',#1183);
#374=VERTEX_POINT('',#1185);
#375=VERTEX_POINT('',#1191);
#376=VERTEX_POINT('',#1194);
#377=VERTEX_POINT('',#1196);
#378=VERTEX_POINT('',#1198);
#379=VERTEX_POINT('',#1200);
#380=VERTEX_POINT('',#1211);
#381=VERTEX_POINT('',#1213);
#382=VERTEX_POINT('',#1217);
#383=VERTEX_POINT('',#1219);
#384=VERTEX_POINT('',#1223);
#385=VERTEX_POINT('',#1225);
#386=VERTEX_POINT('',#1229);
#387=VERTEX_POINT('',#1231);
#388=VERTEX_POINT('',#1235);
#389=VERTEX_POINT('',#1239);
#390=VERTEX_POINT('',#1243);
#391=VERTEX_POINT('',#1246);
#392=VERTEX_POINT('',#1250);
#393=VERTEX_POINT('',#1253);
#394=VERTEX_POINT('',#1257);
#395=VERTEX_POINT('',#1265);
#396=VERTEX_POINT('',#1268);
#397=VERTEX_POINT('',#1272);
#398=EDGE_CURVE('',#334,#335,#286,.T.);
#399=EDGE_CURVE('',#334,#336,#186,.T.);
#400=EDGE_CURVE('',#337,#336,#287,.T.);
#401=EDGE_CURVE('',#337,#335,#187,.T.);
#402=EDGE_CURVE('',#335,#338,#188,.T.);
#403=EDGE_CURVE('',#339,#337,#189,.T.);
#404=EDGE_CURVE('',#338,#339,#190,.T.);
#405=EDGE_CURVE('',#340,#334,#191,.T.);
#406=EDGE_CURVE('',#341,#340,#192,.T.);
#407=EDGE_CURVE('',#336,#341,#193,.T.);
#408=EDGE_CURVE('',#342,#343,#288,.T.);
#409=EDGE_CURVE('',#342,#344,#194,.T.);
#410=EDGE_CURVE('',#345,#344,#289,.T.);
#411=EDGE_CURVE('',#345,#343,#195,.T.);
#412=EDGE_CURVE('',#343,#346,#196,.T.);
#413=EDGE_CURVE('',#347,#345,#197,.T.);
#414=EDGE_CURVE('',#346,#347,#198,.T.);
#415=EDGE_CURVE('',#348,#342,#199,.T.);
#416=EDGE_CURVE('',#349,#348,#200,.T.);
#417=EDGE_CURVE('',#344,#349,#201,.T.);
#418=EDGE_CURVE('',#350,#350,#290,.T.);
#419=EDGE_CURVE('',#350,#351,#202,.T.);
#420=EDGE_CURVE('',#351,#348,#291,.T.);
#421=EDGE_CURVE('',#346,#340,#292,.T.);
#422=EDGE_CURVE('',#338,#351,#293,.T.);
#423=EDGE_CURVE('',#339,#352,#294,.T.);
#424=EDGE_CURVE('',#352,#349,#295,.T.);
#425=EDGE_CURVE('',#353,#353,#296,.T.);
#426=EDGE_CURVE('',#354,#354,#297,.T.);
#427=EDGE_CURVE('',#355,#355,#298,.T.);
#428=EDGE_CURVE('',#356,#356,#299,.T.);
#429=EDGE_CURVE('',#357,#358,#300,.T.);
#430=EDGE_CURVE('',#359,#357,#203,.T.);
#431=EDGE_CURVE('',#360,#359,#301,.T.);
#432=EDGE_CURVE('',#358,#360,#204,.T.);
#433=EDGE_CURVE('',#358,#361,#205,.T.);
#434=EDGE_CURVE('',#362,#360,#206,.T.);
#435=EDGE_CURVE('',#361,#362,#207,.T.);
#436=EDGE_CURVE('',#363,#357,#208,.T.);
#437=EDGE_CURVE('',#364,#363,#209,.T.);
#438=EDGE_CURVE('',#359,#364,#210,.T.);
#439=EDGE_CURVE('',#365,#366,#302,.T.);
#440=EDGE_CURVE('',#367,#365,#211,.T.);
#441=EDGE_CURVE('',#368,#367,#303,.T.);
#442=EDGE_CURVE('',#366,#368,#212,.T.);
#443=EDGE_CURVE('',#366,#369,#213,.T.);
#444=EDGE_CURVE('',#370,#368,#214,.T.);
#445=EDGE_CURVE('',#369,#370,#215,.T.);
#446=EDGE_CURVE('',#371,#365,#216,.T.);
#447=EDGE_CURVE('',#372,#371,#217,.T.);
#448=EDGE_CURVE('',#367,#372,#218,.T.);
#449=EDGE_CURVE('',#361,#373,#304,.T.);
#450=EDGE_CURVE('',#373,#374,#219,.T.);
#451=EDGE_CURVE('',#374,#374,#305,.T.);
#452=EDGE_CURVE('',#373,#371,#306,.T.);
#453=EDGE_CURVE('',#369,#363,#307,.T.);
#454=EDGE_CURVE('',#362,#375,#308,.T.);
#455=EDGE_CURVE('',#375,#372,#309,.T.);
#456=EDGE_CURVE('',#376,#376,#310,.T.);
#457=EDGE_CURVE('',#377,#377,#311,.T.);
#458=EDGE_CURVE('',#378,#378,#312,.T.);
#459=EDGE_CURVE('',#379,#379,#313,.T.);
#460=EDGE_CURVE('',#356,#379,#220,.T.);
#461=EDGE_CURVE('',#355,#378,#221,.T.);
#462=EDGE_CURVE('',#354,#377,#222,.T.);
#463=EDGE_CURVE('',#353,#376,#223,.T.);
#464=EDGE_CURVE('',#380,#380,#314,.T.);
#465=EDGE_CURVE('',#380,#381,#224,.T.);
#466=EDGE_CURVE('',#381,#381,#315,.T.);
#467=EDGE_CURVE('',#382,#382,#316,.T.);
#468=EDGE_CURVE('',#382,#383,#225,.T.);
#469=EDGE_CURVE('',#383,#383,#317,.T.);
#470=EDGE_CURVE('',#384,#384,#318,.T.);
#471=EDGE_CURVE('',#384,#385,#226,.T.);
#472=EDGE_CURVE('',#385,#385,#319,.T.);
#473=EDGE_CURVE('',#386,#386,#320,.T.);
#474=EDGE_CURVE('',#386,#387,#227,.T.);
#475=EDGE_CURVE('',#387,#387,#321,.T.);
#476=EDGE_CURVE('',#388,#388,#322,.T.);
#477=EDGE_CURVE('',#388,#374,#228,.T.);
#478=EDGE_CURVE('',#388,#389,#229,.T.);
#479=EDGE_CURVE('',#389,#389,#323,.T.);
#480=EDGE_CURVE('',#390,#390,#324,.T.);
#481=EDGE_CURVE('',#390,#391,#230,.T.);
#482=EDGE_CURVE('',#391,#391,#325,.T.);
#483=EDGE_CURVE('',#392,#392,#326,.T.);
#484=EDGE_CURVE('',#392,#393,#231,.T.);
#485=EDGE_CURVE('',#393,#393,#327,.T.);
#486=EDGE_CURVE('',#394,#394,#328,.T.);
#487=EDGE_CURVE('',#394,#393,#232,.T.);
#488=EDGE_CURVE('',#394,#352,#233,.T.);
#489=EDGE_CURVE('',#347,#341,#329,.T.);
#490=EDGE_CURVE('',#395,#395,#330,.T.);
#491=EDGE_CURVE('',#396,#396,#331,.T.);
#492=EDGE_CURVE('',#396,#395,#234,.T.);
#493=EDGE_CURVE('',#397,#397,#332,.T.);
#494=EDGE_CURVE('',#370,#364,#333,.T.);
#495=EDGE_CURVE('',#375,#397,#235,.T.);
#496=ORIENTED_EDGE('',*,*,#398,.F.);
#497=ORIENTED_EDGE('',*,*,#399,.T.);
#498=ORIENTED_EDGE('',*,*,#400,.F.);
#499=ORIENTED_EDGE('',*,*,#401,.T.);
#500=ORIENTED_EDGE('',*,*,#402,.F.);
#501=ORIENTED_EDGE('',*,*,#401,.F.);
#502=ORIENTED_EDGE('',*,*,#403,.F.);
#503=ORIENTED_EDGE('',*,*,#404,.F.);
#504=ORIENTED_EDGE('',*,*,#405,.F.);
#505=ORIENTED_EDGE('',*,*,#406,.F.);
#506=ORIENTED_EDGE('',*,*,#407,.F.);
#507=ORIENTED_EDGE('',*,*,#399,.F.);
#508=ORIENTED_EDGE('',*,*,#408,.F.);
#509=ORIENTED_EDGE('',*,*,#409,.T.);
#510=ORIENTED_EDGE('',*,*,#410,.F.);
#511=ORIENTED_EDGE('',*,*,#411,.T.);
#512=ORIENTED_EDGE('',*,*,#412,.F.);
#513=ORIENTED_EDGE('',*,*,#411,.F.);
#514=ORIENTED_EDGE('',*,*,#413,.F.);
#515=ORIENTED_EDGE('',*,*,#414,.F.);
#516=ORIENTED_EDGE('',*,*,#415,.F.);
#517=ORIENTED_EDGE('',*,*,#416,.F.);
#518=ORIENTED_EDGE('',*,*,#417,.F.);
#519=ORIENTED_EDGE('',*,*,#409,.F.);
#520=ORIENTED_EDGE('',*,*,#418,.F.);
#521=ORIENTED_EDGE('',*,*,#419,.T.);
#522=ORIENTED_EDGE('',*,*,#420,.T.);
#523=ORIENTED_EDGE('',*,*,#415,.T.);
#524=ORIENTED_EDGE('',*,*,#408,.T.);
#525=ORIENTED_EDGE('',*,*,#412,.T.);
#526=ORIENTED_EDGE('',*,*,#421,.T.);
#527=ORIENTED_EDGE('',*,*,#405,.T.);
#528=ORIENTED_EDGE('',*,*,#398,.T.);
#529=ORIENTED_EDGE('',*,*,#402,.T.);
#530=ORIENTED_EDGE('',*,*,#422,.T.);
#531=ORIENTED_EDGE('',*,*,#419,.F.);
#532=ORIENTED_EDGE('',*,*,#404,.T.);
#533=ORIENTED_EDGE('',*,*,#423,.T.);
#534=ORIENTED_EDGE('',*,*,#424,.T.);
#535=ORIENTED_EDGE('',*,*,#416,.T.);
#536=ORIENTED_EDGE('',*,*,#420,.F.);
#537=ORIENTED_EDGE('',*,*,#422,.F.);
#538=ORIENTED_EDGE('',*,*,#425,.T.);
#539=ORIENTED_EDGE('',*,*,#426,.T.);
#540=ORIENTED_EDGE('',*,*,#427,.T.);
#541=ORIENTED_EDGE('',*,*,#428,.T.);
#542=ORIENTED_EDGE('',*,*,#429,.F.);
#543=ORIENTED_EDGE('',*,*,#430,.F.);
#544=ORIENTED_EDGE('',*,*,#431,.F.);
#545=ORIENTED_EDGE('',*,*,#432,.F.);
#546=ORIENTED_EDGE('',*,*,#433,.F.);
#547=ORIENTED_EDGE('',*,*,#432,.T.);
#548=ORIENTED_EDGE('',*,*,#434,.F.);
#549=ORIENTED_EDGE('',*,*,#435,.F.);
#550=ORIENTED_EDGE('',*,*,#436,.F.);
#551=ORIENTED_EDGE('',*,*,#437,.F.);
#552=ORIENTED_EDGE('',*,*,#438,.F.);
#553=ORIENTED_EDGE('',*,*,#430,.T.);
#554=ORIENTED_EDGE('',*,*,#439,.F.);
#555=ORIENTED_EDGE('',*,*,#440,.F.);
#556=ORIENTED_EDGE('',*,*,#441,.F.);
#557=ORIENTED_EDGE('',*,*,#442,.F.);
#558=ORIENTED_EDGE('',*,*,#443,.F.);
#559=ORIENTED_EDGE('',*,*,#442,.T.);
#560=ORIENTED_EDGE('',*,*,#444,.F.);
#561=ORIENTED_EDGE('',*,*,#445,.F.);
#562=ORIENTED_EDGE('',*,*,#446,.F.);
#563=ORIENTED_EDGE('',*,*,#447,.F.);
#564=ORIENTED_EDGE('',*,*,#448,.F.);
#565=ORIENTED_EDGE('',*,*,#440,.T.);
#566=ORIENTED_EDGE('',*,*,#436,.T.);
#567=ORIENTED_EDGE('',*,*,#429,.T.);
#568=ORIENTED_EDGE('',*,*,#433,.T.);
#569=ORIENTED_EDGE('',*,*,#449,.T.);
#570=ORIENTED_EDGE('',*,*,#450,.T.);
#571=ORIENTED_EDGE('',*,*,#451,.F.);
#572=ORIENTED_EDGE('',*,*,#450,.F.);
#573=ORIENTED_EDGE('',*,*,#452,.T.);
#574=ORIENTED_EDGE('',*,*,#446,.T.);
#575=ORIENTED_EDGE('',*,*,#439,.T.);
#576=ORIENTED_EDGE('',*,*,#443,.T.);
#577=ORIENTED_EDGE('',*,*,#453,.T.);
#578=ORIENTED_EDGE('',*,*,#435,.T.);
#579=ORIENTED_EDGE('',*,*,#454,.T.);
#580=ORIENTED_EDGE('',*,*,#455,.T.);
#581=ORIENTED_EDGE('',*,*,#447,.T.);
#582=ORIENTED_EDGE('',*,*,#452,.F.);
#583=ORIENTED_EDGE('',*,*,#449,.F.);
#584=ORIENTED_EDGE('',*,*,#456,.T.);
#585=ORIENTED_EDGE('',*,*,#457,.T.);
#586=ORIENTED_EDGE('',*,*,#458,.T.);
#587=ORIENTED_EDGE('',*,*,#459,.T.);
#588=ORIENTED_EDGE('',*,*,#428,.F.);
#589=ORIENTED_EDGE('',*,*,#460,.T.);
#590=ORIENTED_EDGE('',*,*,#459,.F.);
#591=ORIENTED_EDGE('',*,*,#460,.F.);
#592=ORIENTED_EDGE('',*,*,#427,.F.);
#593=ORIENTED_EDGE('',*,*,#461,.T.);
#594=ORIENTED_EDGE('',*,*,#458,.F.);
#595=ORIENTED_EDGE('',*,*,#461,.F.);
#596=ORIENTED_EDGE('',*,*,#426,.F.);
#597=ORIENTED_EDGE('',*,*,#462,.T.);
#598=ORIENTED_EDGE('',*,*,#457,.F.);
#599=ORIENTED_EDGE('',*,*,#462,.F.);
#600=ORIENTED_EDGE('',*,*,#425,.F.);
#601=ORIENTED_EDGE('',*,*,#463,.T.);
#602=ORIENTED_EDGE('',*,*,#456,.F.);
#603=ORIENTED_EDGE('',*,*,#463,.F.);
#604=ORIENTED_EDGE('',*,*,#464,.F.);
#605=ORIENTED_EDGE('',*,*,#465,.T.);
#606=ORIENTED_EDGE('',*,*,#466,.F.);
#607=ORIENTED_EDGE('',*,*,#465,.F.);
#608=ORIENTED_EDGE('',*,*,#467,.F.);
#609=ORIENTED_EDGE('',*,*,#468,.T.);
#610=ORIENTED_EDGE('',*,*,#469,.F.);
#611=ORIENTED_EDGE('',*,*,#468,.F.);
#612=ORIENTED_EDGE('',*,*,#470,.F.);
#613=ORIENTED_EDGE('',*,*,#471,.T.);
#614=ORIENTED_EDGE('',*,*,#472,.F.);
#615=ORIENTED_EDGE('',*,*,#471,.F.);
#616=ORIENTED_EDGE('',*,*,#473,.F.);
#617=ORIENTED_EDGE('',*,*,#474,.T.);
#618=ORIENTED_EDGE('',*,*,#475,.F.);
#619=ORIENTED_EDGE('',*,*,#474,.F.);
#620=ORIENTED_EDGE('',*,*,#476,.F.);
#621=ORIENTED_EDGE('',*,*,#477,.T.);
#622=ORIENTED_EDGE('',*,*,#451,.T.);
#623=ORIENTED_EDGE('',*,*,#477,.F.);
#624=ORIENTED_EDGE('',*,*,#476,.T.);
#625=ORIENTED_EDGE('',*,*,#478,.T.);
#626=ORIENTED_EDGE('',*,*,#479,.F.);
#627=ORIENTED_EDGE('',*,*,#478,.F.);
#628=ORIENTED_EDGE('',*,*,#479,.T.);
#629=ORIENTED_EDGE('',*,*,#480,.F.);
#630=ORIENTED_EDGE('',*,*,#480,.T.);
#631=ORIENTED_EDGE('',*,*,#481,.T.);
#632=ORIENTED_EDGE('',*,*,#482,.F.);
#633=ORIENTED_EDGE('',*,*,#481,.F.);
#634=ORIENTED_EDGE('',*,*,#483,.F.);
#635=ORIENTED_EDGE('',*,*,#482,.T.);
#636=ORIENTED_EDGE('',*,*,#483,.T.);
#637=ORIENTED_EDGE('',*,*,#484,.T.);
#638=ORIENTED_EDGE('',*,*,#485,.F.);
#639=ORIENTED_EDGE('',*,*,#484,.F.);
#640=ORIENTED_EDGE('',*,*,#486,.F.);
#641=ORIENTED_EDGE('',*,*,#487,.T.);
#642=ORIENTED_EDGE('',*,*,#485,.T.);
#643=ORIENTED_EDGE('',*,*,#487,.F.);
#644=ORIENTED_EDGE('',*,*,#486,.T.);
#645=ORIENTED_EDGE('',*,*,#488,.T.);
#646=ORIENTED_EDGE('',*,*,#423,.F.);
#647=ORIENTED_EDGE('',*,*,#403,.T.);
#648=ORIENTED_EDGE('',*,*,#400,.T.);
#649=ORIENTED_EDGE('',*,*,#407,.T.);
#650=ORIENTED_EDGE('',*,*,#489,.F.);
#651=ORIENTED_EDGE('',*,*,#413,.T.);
#652=ORIENTED_EDGE('',*,*,#410,.T.);
#653=ORIENTED_EDGE('',*,*,#417,.T.);
#654=ORIENTED_EDGE('',*,*,#424,.F.);
#655=ORIENTED_EDGE('',*,*,#488,.F.);
#656=ORIENTED_EDGE('',*,*,#406,.T.);
#657=ORIENTED_EDGE('',*,*,#421,.F.);
#658=ORIENTED_EDGE('',*,*,#414,.T.);
#659=ORIENTED_EDGE('',*,*,#489,.T.);
#660=ORIENTED_EDGE('',*,*,#464,.T.);
#661=ORIENTED_EDGE('',*,*,#467,.T.);
#662=ORIENTED_EDGE('',*,*,#470,.T.);
#663=ORIENTED_EDGE('',*,*,#473,.T.);
#664=ORIENTED_EDGE('',*,*,#418,.T.);
#665=ORIENTED_EDGE('',*,*,#490,.F.);
#666=ORIENTED_EDGE('',*,*,#491,.F.);
#667=ORIENTED_EDGE('',*,*,#492,.T.);
#668=ORIENTED_EDGE('',*,*,#490,.T.);
#669=ORIENTED_EDGE('',*,*,#492,.F.);
#670=ORIENTED_EDGE('',*,*,#493,.F.);
#671=ORIENTED_EDGE('',*,*,#491,.T.);
#672=ORIENTED_EDGE('',*,*,#438,.T.);
#673=ORIENTED_EDGE('',*,*,#494,.F.);
#674=ORIENTED_EDGE('',*,*,#444,.T.);
#675=ORIENTED_EDGE('',*,*,#441,.T.);
#676=ORIENTED_EDGE('',*,*,#448,.T.);
#677=ORIENTED_EDGE('',*,*,#455,.F.);
#678=ORIENTED_EDGE('',*,*,#495,.T.);
#679=ORIENTED_EDGE('',*,*,#493,.T.);
#680=ORIENTED_EDGE('',*,*,#495,.F.);
#681=ORIENTED_EDGE('',*,*,#454,.F.);
#682=ORIENTED_EDGE('',*,*,#434,.T.);
#683=ORIENTED_EDGE('',*,*,#431,.T.);
#684=ORIENTED_EDGE('',*,*,#437,.T.);
#685=ORIENTED_EDGE('',*,*,#453,.F.);
#686=ORIENTED_EDGE('',*,*,#445,.T.);
#687=ORIENTED_EDGE('',*,*,#494,.T.);
#688=ORIENTED_EDGE('',*,*,#466,.T.);
#689=ORIENTED_EDGE('',*,*,#469,.T.);
#690=ORIENTED_EDGE('',*,*,#472,.T.);
#691=ORIENTED_EDGE('',*,*,#475,.T.);
#692=PLANE('',#767);
#693=PLANE('',#770);
#694=PLANE('',#771);
#695=PLANE('',#772);
#696=PLANE('',#775);
#697=PLANE('',#776);
#698=PLANE('',#782);
#699=PLANE('',#789);
#700=PLANE('',#792);
#701=PLANE('',#793);
#702=PLANE('',#794);
#703=PLANE('',#797);
#704=PLANE('',#798);
#705=PLANE('',#804);
#706=PLANE('',#831);
#707=PLANE('',#835);
#708=PLANE('',#843);
#709=PLANE('',#844);
#710=PLANE('',#848);
#711=PLANE('',#852);
#712=ADVANCED_FACE('',(#90),#692,.T.);
#713=ADVANCED_FACE('',(#91),#693,.T.);
#714=ADVANCED_FACE('',(#92),#694,.T.);
#715=ADVANCED_FACE('',(#93),#695,.T.);
#716=ADVANCED_FACE('',(#94),#696,.T.);
#717=ADVANCED_FACE('',(#95),#697,.T.);
#718=ADVANCED_FACE('',(#96),#74,.T.);
#719=ADVANCED_FACE('',(#97,#54,#55,#56,#57),#698,.T.);
#720=ADVANCED_FACE('',(#98),#699,.F.);
#721=ADVANCED_FACE('',(#99),#700,.F.);
#722=ADVANCED_FACE('',(#100),#701,.F.);
#723=ADVANCED_FACE('',(#101),#702,.F.);
#724=ADVANCED_FACE('',(#102),#703,.F.);
#725=ADVANCED_FACE('',(#103),#704,.F.);
#726=ADVANCED_FACE('',(#104),#75,.F.);
#727=ADVANCED_FACE('',(#105,#58,#59,#60,#61),#705,.T.);
#728=ADVANCED_FACE('',(#106),#76,.F.);
#729=ADVANCED_FACE('',(#107),#77,.F.);
#730=ADVANCED_FACE('',(#108),#78,.F.);
#731=ADVANCED_FACE('',(#109),#79,.F.);
#732=ADVANCED_FACE('',(#110),#80,.F.);
#733=ADVANCED_FACE('',(#111),#81,.F.);
#734=ADVANCED_FACE('',(#112),#82,.F.);
#735=ADVANCED_FACE('',(#113),#83,.F.);
#736=ADVANCED_FACE('',(#114),#52,.T.);
#737=ADVANCED_FACE('',(#115),#84,.F.);
#738=ADVANCED_FACE('',(#116,#62),#706,.T.);
#739=ADVANCED_FACE('',(#117),#85,.F.);
#740=ADVANCED_FACE('',(#118,#63),#707,.T.);
#741=ADVANCED_FACE('',(#119),#86,.F.);
#742=ADVANCED_FACE('',(#120),#53,.T.);
#743=ADVANCED_FACE('',(#121),#87,.F.);
#744=ADVANCED_FACE('',(#122,#64,#65,#66,#67),#708,.T.);
#745=ADVANCED_FACE('',(#123,#68),#709,.T.);
#746=ADVANCED_FACE('',(#124),#88,.T.);
#747=ADVANCED_FACE('',(#125,#69),#710,.T.);
#748=ADVANCED_FACE('',(#126),#89,.T.);
#749=ADVANCED_FACE('',(#127,#70,#71,#72,#73),#711,.T.);
#750=CLOSED_SHELL('',(#712,#713,#714,#715,#716,#717,#718,#719,#720,#721,
#722,#723,#724,#725,#726,#727,#728,#729,#730,#731,#732,#733,#734,#735,#736,
#737,#738,#739,#740,#741,#742,#743,#744,#745,#746,#747,#748,#749));
#751=DERIVED_UNIT_ELEMENT(#754,1.);
#752=DERIVED_UNIT_ELEMENT(#1317,-3.);
#753=DIMENSIONAL_EXPONENTS(0.,1.,0.,0.,0.,0.,0.);
#754=(
CONVERSION_BASED_UNIT('gram',#756)
MASS_UNIT()
NAMED_UNIT(#753)
);
#755=(
MASS_UNIT()
NAMED_UNIT(*)
SI_UNIT(.KILO.,.GRAM.)
);
#756=MASS_MEASURE_WITH_UNIT(MASS_MEASURE(0.001),#755);
#757=DERIVED_UNIT((#751,#752));
#758=MEASURE_REPRESENTATION_ITEM('density measure',
POSITIVE_RATIO_MEASURE(1.),#757);
#759=PROPERTY_DEFINITION_REPRESENTATION(#764,#761);
#760=PROPERTY_DEFINITION_REPRESENTATION(#765,#762);
#761=REPRESENTATION('material name',(#763),#1314);
#762=REPRESENTATION('density',(#758),#1314);
#763=DESCRIPTIVE_REPRESENTATION_ITEM('\X2\4E00822C\X0\','\X2\4E00822C\X0\');
#764=PROPERTY_DEFINITION('material property','material name',#1324);
#765=PROPERTY_DEFINITION('material property','density of part',#1324);
#766=AXIS2_PLACEMENT_3D('',#1077,#853,#854);
#767=AXIS2_PLACEMENT_3D('',#1078,#855,#856);
#768=AXIS2_PLACEMENT_3D('',#1081,#857,#858);
#769=AXIS2_PLACEMENT_3D('',#1085,#860,#861);
#770=AXIS2_PLACEMENT_3D('',#1087,#863,#864);
#771=AXIS2_PLACEMENT_3D('',#1093,#868,#869);
#772=AXIS2_PLACEMENT_3D('',#1099,#873,#874);
#773=AXIS2_PLACEMENT_3D('',#1102,#875,#876);
#774=AXIS2_PLACEMENT_3D('',#1106,#878,#879);
#775=AXIS2_PLACEMENT_3D('',#1108,#881,#882);
#776=AXIS2_PLACEMENT_3D('',#1114,#886,#887);
#777=AXIS2_PLACEMENT_3D('',#1120,#891,#892);
#778=AXIS2_PLACEMENT_3D('',#1122,#893,#894);
#779=AXIS2_PLACEMENT_3D('',#1125,#896,#897);
#780=AXIS2_PLACEMENT_3D('',#1126,#898,#899);
#781=AXIS2_PLACEMENT_3D('',#1127,#900,#901);
#782=AXIS2_PLACEMENT_3D('',#1128,#902,#903);
#783=AXIS2_PLACEMENT_3D('',#1130,#904,#905);
#784=AXIS2_PLACEMENT_3D('',#1131,#906,#907);
#785=AXIS2_PLACEMENT_3D('',#1133,#908,#909);
#786=AXIS2_PLACEMENT_3D('',#1135,#910,#911);
#787=AXIS2_PLACEMENT_3D('',#1137,#912,#913);
#788=AXIS2_PLACEMENT_3D('',#1139,#914,#915);
#789=AXIS2_PLACEMENT_3D('',#1140,#916,#917);
#790=AXIS2_PLACEMENT_3D('',#1143,#918,#919);
#791=AXIS2_PLACEMENT_3D('',#1147,#921,#922);
#792=AXIS2_PLACEMENT_3D('',#1149,#924,#925);
#793=AXIS2_PLACEMENT_3D('',#1155,#929,#930);
#794=AXIS2_PLACEMENT_3D('',#1161,#934,#935);
#795=AXIS2_PLACEMENT_3D('',#1164,#936,#937);
#796=AXIS2_PLACEMENT_3D('',#1168,#939,#940);
#797=AXIS2_PLACEMENT_3D('',#1170,#942,#943);
#798=AXIS2_PLACEMENT_3D('',#1176,#947,#948);
#799=AXIS2_PLACEMENT_3D('',#1182,#952,#953);
#800=AXIS2_PLACEMENT_3D('',#1184,#954,#955);
#801=AXIS2_PLACEMENT_3D('',#1187,#957,#958);
#802=AXIS2_PLACEMENT_3D('',#1188,#959,#960);
#803=AXIS2_PLACEMENT_3D('',#1189,#961,#962);
#804=AXIS2_PLACEMENT_3D('',#1190,#963,#964);
#805=AXIS2_PLACEMENT_3D('',#1192,#965,#966);
#806=AXIS2_PLACEMENT_3D('',#1193,#967,#968);
#807=AXIS2_PLACEMENT_3D('',#1195,#969,#970);
#808=AXIS2_PLACEMENT_3D('',#1197,#971,#972);
#809=AXIS2_PLACEMENT_3D('',#1199,#973,#974);
#810=AXIS2_PLACEMENT_3D('',#1201,#975,#976);
#811=AXIS2_PLACEMENT_3D('',#1202,#977,#978);
#812=AXIS2_PLACEMENT_3D('',#1204,#980,#981);
#813=AXIS2_PLACEMENT_3D('',#1206,#983,#984);
#814=AXIS2_PLACEMENT_3D('',#1208,#986,#987);
#815=AXIS2_PLACEMENT_3D('',#1210,#989,#990);
#816=AXIS2_PLACEMENT_3D('',#1212,#991,#992);
#817=AXIS2_PLACEMENT_3D('',#1215,#994,#995);
#818=AXIS2_PLACEMENT_3D('',#1216,#996,#997);
#819=AXIS2_PLACEMENT_3D('',#1218,#998,#999);
#820=AXIS2_PLACEMENT_3D('',#1221,#1001,#1002);
#821=AXIS2_PLACEMENT_3D('',#1222,#1003,#1004);
#822=AXIS2_PLACEMENT_3D('',#1224,#1005,#1006);
#823=AXIS2_PLACEMENT_3D('',#1227,#1008,#1009);
#824=AXIS2_PLACEMENT_3D('',#1228,#1010,#1011);
#825=AXIS2_PLACEMENT_3D('',#1230,#1012,#1013);
#826=AXIS2_PLACEMENT_3D('',#1233,#1015,#1016);
#827=AXIS2_PLACEMENT_3D('',#1234,#1017,#1018);
#828=AXIS2_PLACEMENT_3D('',#1236,#1019,#1020);
#829=AXIS2_PLACEMENT_3D('',#1238,#1022,#1023);
#830=AXIS2_PLACEMENT_3D('',#1241,#1025,#1026);
#831=AXIS2_PLACEMENT_3D('',#1242,#1027,#1028);
#832=AXIS2_PLACEMENT_3D('',#1244,#1029,#1030);
#833=AXIS2_PLACEMENT_3D('',#1245,#1031,#1032);
#834=AXIS2_PLACEMENT_3D('',#1248,#1034,#1035);
#835=AXIS2_PLACEMENT_3D('',#1249,#1036,#1037);
#836=AXIS2_PLACEMENT_3D('',#1251,#1038,#1039);
#837=AXIS2_PLACEMENT_3D('',#1252,#1040,#1041);
#838=AXIS2_PLACEMENT_3D('',#1255,#1043,#1044);
#839=AXIS2_PLACEMENT_3D('',#1256,#1045,#1046);
#840=AXIS2_PLACEMENT_3D('',#1258,#1047,#1048);
#841=AXIS2_PLACEMENT_3D('',#1260,#1050,#1051);
#842=AXIS2_PLACEMENT_3D('',#1262,#1053,#1054);
#843=AXIS2_PLACEMENT_3D('',#1263,#1055,#1056);
#844=AXIS2_PLACEMENT_3D('',#1264,#1057,#1058);
#845=AXIS2_PLACEMENT_3D('',#1266,#1059,#1060);
#846=AXIS2_PLACEMENT_3D('',#1267,#1061,#1062);
#847=AXIS2_PLACEMENT_3D('',#1269,#1063,#1064);
#848=AXIS2_PLACEMENT_3D('',#1271,#1066,#1067);
#849=AXIS2_PLACEMENT_3D('',#1273,#1068,#1069);
#850=AXIS2_PLACEMENT_3D('',#1274,#1070,#1071);
#851=AXIS2_PLACEMENT_3D('',#1275,#1072,#1073);
#852=AXIS2_PLACEMENT_3D('',#1277,#1075,#1076);
#853=DIRECTION('axis',(0.,0.,1.));
#854=DIRECTION('refdir',(1.,0.,0.));
#855=DIRECTION('center_axis',(0.,-1.,0.));
#856=DIRECTION('ref_axis',(0.,0.,-1.));
#857=DIRECTION('center_axis',(0.,1.,0.));
#858=DIRECTION('ref_axis',(0.,0.,-1.));
#859=DIRECTION('',(0.923879532511287,0.,0.38268343236509));
#860=DIRECTION('center_axis',(0.,-1.,0.));
#861=DIRECTION('ref_axis',(0.,0.,-1.));
#862=DIRECTION('',(-0.923879532511287,0.,-0.38268343236509));
#863=DIRECTION('center_axis',(0.38268343236509,0.,-0.923879532511287));
#864=DIRECTION('ref_axis',(-0.923879532511287,0.,-0.38268343236509));
#865=DIRECTION('',(0.,-1.,0.));
#866=DIRECTION('',(0.,1.,0.));
#867=DIRECTION('',(0.923879532511287,0.,0.38268343236509));
#868=DIRECTION('center_axis',(-0.38268343236509,0.,0.923879532511287));
#869=DIRECTION('ref_axis',(0.923879532511287,0.,0.38268343236509));
#870=DIRECTION('',(0.,1.,0.));
#871=DIRECTION('',(-0.923879532511287,0.,-0.38268343236509));
#872=DIRECTION('',(0.,-1.,0.));
#873=DIRECTION('center_axis',(0.,-1.,0.));
#874=DIRECTION('ref_axis',(0.,0.,-1.));
#875=DIRECTION('center_axis',(0.,1.,0.));
#876=DIRECTION('ref_axis',(0.,0.,-1.));
#877=DIRECTION('',(-0.923879532511287,0.,-0.38268343236509));
#878=DIRECTION('center_axis',(0.,-1.,0.));
#879=DIRECTION('ref_axis',(0.,0.,-1.));
#880=DIRECTION('',(0.923879532511287,0.,0.38268343236509));
#881=DIRECTION('center_axis',(-0.38268343236509,0.,0.923879532511287));
#882=DIRECTION('ref_axis',(0.923879532511287,0.,0.38268343236509));
#883=DIRECTION('',(0.,-1.,0.));
#884=DIRECTION('',(0.,1.,0.));
#885=DIRECTION('',(-0.923879532511287,0.,-0.38268343236509));
#886=DIRECTION('center_axis',(0.38268343236509,0.,-0.923879532511287));
#887=DIRECTION('ref_axis',(-0.923879532511287,0.,-0.38268343236509));
#888=DIRECTION('',(0.,1.,0.));
#889=DIRECTION('',(0.923879532511287,0.,0.38268343236509));
#890=DIRECTION('',(0.,-1.,0.));
#891=DIRECTION('center_axis',(0.,1.,0.));
#892=DIRECTION('ref_axis',(0.,0.,-1.));
#893=DIRECTION('center_axis',(0.,1.,0.));
#894=DIRECTION('ref_axis',(1.,0.,0.));
#895=DIRECTION('',(0.,-1.,0.));
#896=DIRECTION('center_axis',(0.,1.,0.));
#897=DIRECTION('ref_axis',(1.,0.,0.));
#898=DIRECTION('center_axis',(0.,1.,0.));
#899=DIRECTION('ref_axis',(1.,0.,0.));
#900=DIRECTION('center_axis',(0.,1.,0.));
#901=DIRECTION('ref_axis',(1.,0.,0.));
#902=DIRECTION('center_axis',(0.,-1.,0.));
#903=DIRECTION('ref_axis',(0.,0.,-1.));
#904=DIRECTION('center_axis',(0.,1.,0.));
#905=DIRECTION('ref_axis',(1.,0.,0.));
#906=DIRECTION('center_axis',(0.,1.,0.));
#907=DIRECTION('ref_axis',(1.,0.,0.));
#908=DIRECTION('center_axis',(0.,1.,0.));
#909=DIRECTION('ref_axis',(-1.,0.,-1.98254111540206E-16));
#910=DIRECTION('center_axis',(0.,1.,0.));
#911=DIRECTION('ref_axis',(-0.707106781186548,0.,0.707106781186547));
#912=DIRECTION('center_axis',(0.,1.,0.));
#913=DIRECTION('ref_axis',(-1.98254111540206E-16,0.,1.));
#914=DIRECTION('center_axis',(0.,1.,0.));
#915=DIRECTION('ref_axis',(0.707106781186547,0.,0.707106781186548));
#916=DIRECTION('center_axis',(0.,-1.,0.));
#917=DIRECTION('ref_axis',(0.,0.,-1.));
#918=DIRECTION('center_axis',(0.,1.,0.));
#919=DIRECTION('ref_axis',(0.,0.,-1.));
#920=DIRECTION('',(0.923879532511287,0.,0.38268343236509));
#921=DIRECTION('center_axis',(0.,-1.,0.));
#922=DIRECTION('ref_axis',(0.,0.,-1.));
#923=DIRECTION('',(-0.923879532511287,0.,-0.38268343236509));
#924=DIRECTION('center_axis',(-0.38268343236509,0.,0.923879532511287));
#925=DIRECTION('ref_axis',(-0.923879532511287,0.,-0.38268343236509));
#926=DIRECTION('',(0.,1.,0.));
#927=DIRECTION('',(0.,-1.,0.));
#928=DIRECTION('',(-0.923879532511287,0.,-0.38268343236509));
#929=DIRECTION('center_axis',(0.38268343236509,0.,-0.923879532511287));
#930=DIRECTION('ref_axis',(0.923879532511287,0.,0.38268343236509));
#931=DIRECTION('',(0.,-1.,0.));
#932=DIRECTION('',(0.923879532511287,0.,0.38268343236509));
#933=DIRECTION('',(0.,1.,0.));
#934=DIRECTION('center_axis',(0.,-1.,0.));
#935=DIRECTION('ref_axis',(0.,0.,-1.));
#936=DIRECTION('center_axis',(0.,1.,0.));
#937=DIRECTION('ref_axis',(0.,0.,-1.));
#938=DIRECTION('',(-0.923879532511287,0.,-0.38268343236509));
#939=DIRECTION('center_axis',(0.,-1.,0.));
#940=DIRECTION('ref_axis',(0.,0.,-1.));
#941=DIRECTION('',(0.923879532511287,0.,0.38268343236509));
#942=DIRECTION('center_axis',(0.38268343236509,0.,-0.923879532511287));
#943=DIRECTION('ref_axis',(0.923879532511287,0.,0.38268343236509));
#944=DIRECTION('',(0.,1.,0.));
#945=DIRECTION('',(0.,-1.,0.));
#946=DIRECTION('',(0.923879532511287,0.,0.38268343236509));
#947=DIRECTION('center_axis',(-0.38268343236509,0.,0.923879532511287));
#948=DIRECTION('ref_axis',(-0.923879532511287,0.,-0.38268343236509));
#949=DIRECTION('',(0.,-1.,0.));
#950=DIRECTION('',(-0.923879532511287,0.,-0.38268343236509));
#951=DIRECTION('',(0.,1.,0.));
#952=DIRECTION('center_axis',(0.,1.,0.));
#953=DIRECTION('ref_axis',(0.,0.,-1.));
#954=DIRECTION('center_axis',(0.,1.,0.));
#955=DIRECTION('ref_axis',(1.,0.,0.));
#956=DIRECTION('',(0.,-1.,0.));
#957=DIRECTION('center_axis',(0.,1.,0.));
#958=DIRECTION('ref_axis',(1.,0.,0.));
#959=DIRECTION('center_axis',(0.,1.,0.));
#960=DIRECTION('ref_axis',(1.,0.,0.));
#961=DIRECTION('center_axis',(0.,1.,0.));
#962=DIRECTION('ref_axis',(1.,0.,0.));
#963=DIRECTION('center_axis',(0.,1.,0.));
#964=DIRECTION('ref_axis',(0.,0.,1.));
#965=DIRECTION('center_axis',(0.,1.,0.));
#966=DIRECTION('ref_axis',(1.,0.,0.));
#967=DIRECTION('center_axis',(0.,1.,0.));
#968=DIRECTION('ref_axis',(1.,0.,0.));
#969=DIRECTION('center_axis',(0.,-1.,0.));
#970=DIRECTION('ref_axis',(-1.,0.,-1.98254111540206E-16));
#971=DIRECTION('center_axis',(0.,-1.,0.));
#972=DIRECTION('ref_axis',(-0.707106781186548,0.,0.707106781186547));
#973=DIRECTION('center_axis',(0.,-1.,0.));
#974=DIRECTION('ref_axis',(-1.98254111540206E-16,0.,1.));
#975=DIRECTION('center_axis',(0.,-1.,0.));
#976=DIRECTION('ref_axis',(0.707106781186547,0.,0.707106781186548));
#977=DIRECTION('center_axis',(0.,-1.,0.));
#978=DIRECTION('ref_axis',(0.707106781186547,0.,0.707106781186548));
#979=DIRECTION('',(0.,1.,0.));
#980=DIRECTION('center_axis',(0.,-1.,0.));
#981=DIRECTION('ref_axis',(-1.98254111540206E-16,0.,1.));
#982=DIRECTION('',(0.,1.,0.));
#983=DIRECTION('center_axis',(0.,-1.,0.));
#984=DIRECTION('ref_axis',(-0.707106781186548,0.,0.707106781186547));
#985=DIRECTION('',(0.,1.,0.));
#986=DIRECTION('center_axis',(0.,-1.,0.));
#987=DIRECTION('ref_axis',(-1.,0.,-1.98254111540206E-16));
#988=DIRECTION('',(0.,1.,0.));
#989=DIRECTION('center_axis',(0.,-1.,0.));
#990=DIRECTION('ref_axis',(-0.707106781186547,0.,-0.707106781186548));
#991=DIRECTION('center_axis',(0.,1.,0.));
#992=DIRECTION('ref_axis',(-0.707106781186547,0.,-0.707106781186548));
#993=DIRECTION('',(0.,1.,0.));
#994=DIRECTION('center_axis',(0.,-1.,0.));
#995=DIRECTION('ref_axis',(-0.707106781186547,0.,-0.707106781186548));
#996=DIRECTION('center_axis',(0.,-1.,0.));
#997=DIRECTION('ref_axis',(0.,0.,-1.));
#998=DIRECTION('center_axis',(0.,1.,0.));
#999=DIRECTION('ref_axis',(0.,0.,-1.));
#1000=DIRECTION('',(0.,1.,0.));
#1001=DIRECTION('center_axis',(0.,-1.,0.));
#1002=DIRECTION('ref_axis',(0.,0.,-1.));
#1003=DIRECTION('center_axis',(0.,-1.,0.));
#1004=DIRECTION('ref_axis',(0.707106781186548,0.,-0.707106781186548));
#1005=DIRECTION('center_axis',(0.,1.,0.));
#1006=DIRECTION('ref_axis',(0.707106781186548,0.,-0.707106781186548));
#1007=DIRECTION('',(0.,1.,0.));
#1008=DIRECTION('center_axis',(0.,-1.,0.));
#1009=DIRECTION('ref_axis',(0.707106781186548,0.,-0.707106781186548));
#1010=DIRECTION('center_axis',(0.,-1.,0.));
#1011=DIRECTION('ref_axis',(1.,0.,0.));
#1012=DIRECTION('center_axis',(0.,1.,0.));
#1013=DIRECTION('ref_axis',(1.,0.,0.));
#1014=DIRECTION('',(0.,1.,0.));
#1015=DIRECTION('center_axis',(0.,-1.,0.));
#1016=DIRECTION('ref_axis',(1.,0.,0.));
#1017=DIRECTION('center_axis',(0.,-1.,0.));
#1018=DIRECTION('ref_axis',(0.,0.,-1.));
#1019=DIRECTION('center_axis',(0.,1.,0.));
#1020=DIRECTION('ref_axis',(1.,0.,0.));
#1021=DIRECTION('',(1.15079156022785E-16,-0.342020143325668,0.939692620785908));
#1022=DIRECTION('center_axis',(0.,1.,0.));
#1023=DIRECTION('ref_axis',(0.,0.,-1.));
#1024=DIRECTION('',(0.,-1.,0.));
#1025=DIRECTION('center_axis',(0.,1.,0.));
#1026=DIRECTION('ref_axis',(1.,0.,0.));
#1027=DIRECTION('center_axis',(0.,1.,0.));
#1028=DIRECTION('ref_axis',(0.,0.,1.));
#1029=DIRECTION('center_axis',(0.,1.,0.));
#1030=DIRECTION('ref_axis',(1.,0.,0.));
#1031=DIRECTION('center_axis',(0.,1.,0.));
#1032=DIRECTION('ref_axis',(0.,0.,-1.));
#1033=DIRECTION('',(0.,-1.,0.));
#1034=DIRECTION('center_axis',(0.,1.,0.));
#1035=DIRECTION('ref_axis',(1.,0.,0.));
#1036=DIRECTION('center_axis',(0.,-1.,0.));
#1037=DIRECTION('ref_axis',(0.,0.,-1.));
#1038=DIRECTION('center_axis',(0.,1.,0.));
#1039=DIRECTION('ref_axis',(1.,0.,0.));
#1040=DIRECTION('center_axis',(0.,1.,0.));
#1041=DIRECTION('ref_axis',(0.,0.,-1.));
#1042=DIRECTION('',(0.,-1.,0.));
#1043=DIRECTION('center_axis',(0.,1.,0.));
#1044=DIRECTION('ref_axis',(1.,0.,0.));
#1045=DIRECTION('center_axis',(0.,1.,0.));
#1046=DIRECTION('ref_axis',(0.,0.,-1.));
#1047=DIRECTION('center_axis',(0.,1.,0.));
#1048=DIRECTION('ref_axis',(1.,0.,0.));
#1049=DIRECTION('',(-1.15079156022785E-16,-0.342020143325669,-0.939692620785908));
#1050=DIRECTION('center_axis',(0.,1.,0.));
#1051=DIRECTION('ref_axis',(0.,0.,-1.));
#1052=DIRECTION('',(0.,-1.,0.));
#1053=DIRECTION('center_axis',(0.,1.,0.));
#1054=DIRECTION('ref_axis',(1.,0.,0.));
#1055=DIRECTION('center_axis',(0.,-1.,0.));
#1056=DIRECTION('ref_axis',(0.,0.,-1.));
#1057=DIRECTION('center_axis',(0.,1.,0.));
#1058=DIRECTION('ref_axis',(0.,0.,1.));
#1059=DIRECTION('center_axis',(0.,1.,0.));
#1060=DIRECTION('ref_axis',(1.,0.,0.));
#1061=DIRECTION('center_axis',(0.,1.,0.));
#1062=DIRECTION('ref_axis',(0.,0.,-1.));
#1063=DIRECTION('center_axis',(0.,1.,0.));
#1064=DIRECTION('ref_axis',(1.,0.,0.));
#1065=DIRECTION('',(0.,-1.,0.));
#1066=DIRECTION('center_axis',(0.,-1.,0.));
#1067=DIRECTION('ref_axis',(0.,0.,-1.));
#1068=DIRECTION('center_axis',(0.,1.,0.));
#1069=DIRECTION('ref_axis',(1.,0.,0.));
#1070=DIRECTION('center_axis',(0.,1.,0.));
#1071=DIRECTION('ref_axis',(0.,0.,-1.));
#1072=DIRECTION('center_axis',(0.,1.,0.));
#1073=DIRECTION('ref_axis',(1.,0.,0.));
#1074=DIRECTION('',(0.,-1.,0.));
#1075=DIRECTION('center_axis',(0.,1.,0.));
#1076=DIRECTION('ref_axis',(0.,0.,1.));
#1077=CARTESIAN_POINT('',(0.,0.,0.));
#1078=CARTESIAN_POINT('Origin',(-42.5908464487703,0.499999999999996,-17.6417062320306));
#1079=CARTESIAN_POINT('',(-52.4677655463784,0.499999999999996,-22.2740561768679));
#1080=CARTESIAN_POINT('',(-52.8504489787435,0.499999999999996,-21.3501766443566));
#1081=CARTESIAN_POINT('Origin',(0.,0.499999999999996,0.));
#1082=CARTESIAN_POINT('',(-37.9158892621202,0.499999999999996,-16.2464716619528));
#1083=CARTESIAN_POINT('',(-30.5045557515049,0.499999999999996,-13.1765968065858));
#1084=CARTESIAN_POINT('',(-38.2985726944853,0.499999999999996,-15.3225921294415));
#1085=CARTESIAN_POINT('Origin',(0.,0.499999999999996,0.));
#1086=CARTESIAN_POINT('',(-54.6771371460357,0.499999999999996,-22.1068156574755));
#1087=CARTESIAN_POINT('Origin',(-30.88723918387,-4.44089209850063E-15,-12.2527172740745));
#1088=CARTESIAN_POINT('',(-52.8504489787435,4.44089209850063E-15,-21.3501766443566));
#1089=CARTESIAN_POINT('',(-52.8504489787435,4.12500000000001,-21.3501766443566));
#1090=CARTESIAN_POINT('',(-38.2985726944853,-4.44089209850063E-15,-15.3225921294415));
#1091=CARTESIAN_POINT('',(-38.2985726944853,0.757260560402719,-15.3225921294415));
#1092=CARTESIAN_POINT('',(-25.6155620819346,4.44089209850063E-15,-10.0691171220011));
#1093=CARTESIAN_POINT('Origin',(-54.2944537136706,-4.44089209850063E-15,
-23.0306951899868));
#1094=CARTESIAN_POINT('',(-52.4677655463784,4.44089209850063E-15,-22.2740561768679));
#1095=CARTESIAN_POINT('',(-52.4677655463784,4.12500000000001,-22.2740561768679));
#1096=CARTESIAN_POINT('',(-37.9158892621202,-4.44089209850063E-15,-16.2464716619528));
#1097=CARTESIAN_POINT('',(-37.1278276306523,4.44089209850063E-15,-15.9200458462129));
#1098=CARTESIAN_POINT('',(-37.9158892621202,0.757260560402719,-16.2464716619528));
#1099=CARTESIAN_POINT('Origin',(42.5908464487703,0.499999999999996,17.6417062320306));
#1100=CARTESIAN_POINT('',(52.4677655463784,0.499999999999996,22.2740561768679));
#1101=CARTESIAN_POINT('',(52.8504489787435,0.499999999999996,21.3501766443566));
#1102=CARTESIAN_POINT('Origin',(0.,0.499999999999996,0.));
#1103=CARTESIAN_POINT('',(37.9158892621202,0.499999999999996,16.2464716619528));
#1104=CARTESIAN_POINT('',(30.504555751505,0.499999999999996,13.1765968065858));
#1105=CARTESIAN_POINT('',(38.2985726944853,0.499999999999996,15.3225921294415));
#1106=CARTESIAN_POINT('Origin',(0.,0.499999999999996,0.));
#1107=CARTESIAN_POINT('',(54.6771371460357,0.499999999999996,22.1068156574755));
#1108=CARTESIAN_POINT('Origin',(30.8872391838701,-4.44089209850063E-15,
12.2527172740745));
#1109=CARTESIAN_POINT('',(52.8504489787435,4.44089209850063E-15,21.3501766443566));
#1110=CARTESIAN_POINT('',(52.8504489787435,4.12500000000001,21.3501766443566));
#1111=CARTESIAN_POINT('',(38.2985726944853,-4.44089209850063E-15,15.3225921294415));
#1112=CARTESIAN_POINT('',(38.2985726944853,0.757260560402719,15.3225921294415));
#1113=CARTESIAN_POINT('',(5.46301881811799,4.44089209850063E-15,1.72166038581769));
#1114=CARTESIAN_POINT('Origin',(54.2944537136706,-4.44089209850063E-15,
23.0306951899868));
#1115=CARTESIAN_POINT('',(52.4677655463784,4.44089209850063E-15,22.2740561768679));
#1116=CARTESIAN_POINT('',(52.4677655463784,4.12500000000001,22.2740561768679));
#1117=CARTESIAN_POINT('',(37.9158892621202,-4.44089209850063E-15,16.2464716619528));
#1118=CARTESIAN_POINT('',(16.9752843668357,4.44089209850063E-15,7.57258911002954));
#1119=CARTESIAN_POINT('',(37.9158892621202,0.757260560402719,16.2464716619528));
#1120=CARTESIAN_POINT('Origin',(0.,4.12500000000001,0.));
#1121=CARTESIAN_POINT('',(6.98048675513991E-15,8.25000000000001,57.));
#1122=CARTESIAN_POINT('Origin',(0.,8.25000000000001,0.));
#1123=CARTESIAN_POINT('',(6.98048675513991E-15,3.88578058618805E-15,57.));
#1124=CARTESIAN_POINT('',(6.98048675513991E-15,4.12500000000001,57.));
#1125=CARTESIAN_POINT('Origin',(0.,4.44089209850063E-15,0.));
#1126=CARTESIAN_POINT('Origin',(0.,4.44089209850063E-15,0.));
#1127=CARTESIAN_POINT('Origin',(0.,4.44089209850063E-15,0.));
#1128=CARTESIAN_POINT('Origin',(0.,4.44089209850063E-15,-57.));
#1129=CARTESIAN_POINT('',(5.05166804648283E-15,-4.44089209850063E-15,41.25));
#1130=CARTESIAN_POINT('Origin',(0.,-2.22044604925031E-15,0.));
#1131=CARTESIAN_POINT('Origin',(0.,-2.22044604925031E-15,0.));
#1132=CARTESIAN_POINT('',(-41.9,0.,-7.5347652728905E-15));
#1133=CARTESIAN_POINT('Origin',(-46.1,0.,-8.88178419700125E-15));
#1134=CARTESIAN_POINT('',(-29.6277741317163,0.,29.6277741317163));
#1135=CARTESIAN_POINT('Origin',(-32.5976226126998,0.,32.5976226126998));
#1136=CARTESIAN_POINT('',(-7.5347652728905E-15,0.,41.9));
#1137=CARTESIAN_POINT('Origin',(-8.88178419700125E-15,0.,46.1));
#1138=CARTESIAN_POINT('',(29.6277741317163,0.,29.6277741317163));
#1139=CARTESIAN_POINT('Origin',(32.5976226126998,0.,32.5976226126998));
#1140=CARTESIAN_POINT('Origin',(-42.5908464487703,17.,-17.6417062320306));
#1141=CARTESIAN_POINT('',(-37.9158892621202,17.,-16.2464716619528));
#1142=CARTESIAN_POINT('',(-38.2985726944853,17.,-15.3225921294415));
#1143=CARTESIAN_POINT('Origin',(0.,17.,0.));
#1144=CARTESIAN_POINT('',(-52.4677655463784,17.,-22.2740561768679));
#1145=CARTESIAN_POINT('',(-30.5045557515049,17.,-13.1765968065858));
#1146=CARTESIAN_POINT('',(-52.8504489787435,17.,-21.3501766443566));
#1147=CARTESIAN_POINT('Origin',(0.,17.,0.));
#1148=CARTESIAN_POINT('',(-54.6771371460357,17.,-22.1068156574755));
#1149=CARTESIAN_POINT('Origin',(-30.88723918387,17.5,-12.2527172740745));
#1150=CARTESIAN_POINT('',(-38.2985726944853,17.5,-15.3225921294415));
#1151=CARTESIAN_POINT('',(-38.2985726944853,16.7427394395973,-15.3225921294415));
#1152=CARTESIAN_POINT('',(-52.8504489787435,17.5,-21.3501766443566));
#1153=CARTESIAN_POINT('',(-52.8504489787435,13.375,-21.3501766443566));
#1154=CARTESIAN_POINT('',(-22.8313291310126,17.5,-8.91585007292314));
#1155=CARTESIAN_POINT('Origin',(-54.2944537136706,17.5,-23.0306951899868));
#1156=CARTESIAN_POINT('',(-37.9158892621202,17.5,-16.2464716619528));
#1157=CARTESIAN_POINT('',(-37.9158892621202,16.7427394395973,-16.2464716619528));
#1158=CARTESIAN_POINT('',(-52.4677655463784,17.5,-22.2740561768679));
#1159=CARTESIAN_POINT('',(-34.3435946797303,17.5,-14.766778797135));
#1160=CARTESIAN_POINT('',(-52.4677655463784,13.375,-22.2740561768679));
#1161=CARTESIAN_POINT('Origin',(42.5908464487703,17.,17.6417062320306));
#1162=CARTESIAN_POINT('',(37.9158892621202,17.,16.2464716619528));
#1163=CARTESIAN_POINT('',(38.2985726944853,17.,15.3225921294415));
#1164=CARTESIAN_POINT('Origin',(0.,17.,0.));
#1165=CARTESIAN_POINT('',(52.4677655463784,17.,22.2740561768679));
#1166=CARTESIAN_POINT('',(30.504555751505,17.,13.1765968065858));
#1167=CARTESIAN_POINT('',(52.8504489787435,17.,21.3501766443566));
#1168=CARTESIAN_POINT('Origin',(0.,17.,0.));
#1169=CARTESIAN_POINT('',(54.6771371460357,17.,22.1068156574755));
#1170=CARTESIAN_POINT('Origin',(30.8872391838701,17.5,12.2527172740745));
#1171=CARTESIAN_POINT('',(38.2985726944853,17.5,15.3225921294415));
#1172=CARTESIAN_POINT('',(38.2985726944853,16.7427394395973,15.3225921294415));
#1173=CARTESIAN_POINT('',(52.8504489787435,17.5,21.3501766443566));
#1174=CARTESIAN_POINT('',(52.8504489787435,13.375,21.3501766443566));
#1175=CARTESIAN_POINT('',(8.24725176904002,17.5,2.87492743489566));
#1176=CARTESIAN_POINT('Origin',(54.2944537136706,17.5,23.0306951899868));
#1177=CARTESIAN_POINT('',(37.9158892621202,17.5,16.2464716619528));
#1178=CARTESIAN_POINT('',(37.9158892621202,16.7427394395973,16.2464716619528));
#1179=CARTESIAN_POINT('',(52.4677655463784,17.5,22.2740561768679));
#1180=CARTESIAN_POINT('',(19.7595173177578,17.5,8.7258561591075));
#1181=CARTESIAN_POINT('',(52.4677655463784,13.375,22.2740561768679));
#1182=CARTESIAN_POINT('Origin',(0.,16.7427394395973,0.));
#1183=CARTESIAN_POINT('',(5.05166804648283E-15,17.5,41.25));
#1184=CARTESIAN_POINT('Origin',(0.,17.5,0.));
#1185=CARTESIAN_POINT('',(5.05166804648283E-15,15.9854788791946,41.25));
#1186=CARTESIAN_POINT('',(5.05166804648283E-15,16.7427394395973,41.25));
#1187=CARTESIAN_POINT('Origin',(0.,15.9854788791946,0.));
#1188=CARTESIAN_POINT('Origin',(0.,17.5,0.));
#1189=CARTESIAN_POINT('Origin',(0.,17.5,0.));
#1190=CARTESIAN_POINT('Origin',(0.,17.5,-41.25));
#1191=CARTESIAN_POINT('',(6.98048675513991E-15,17.5,57.));
#1192=CARTESIAN_POINT('Origin',(0.,17.5,0.));
#1193=CARTESIAN_POINT('Origin',(0.,17.5,0.));
#1194=CARTESIAN_POINT('',(-41.9,17.5,-4.44089209850063E-15));
#1195=CARTESIAN_POINT('Origin',(-46.1,17.5,-8.88178419700125E-15));
#1196=CARTESIAN_POINT('',(-29.6277741317163,17.5,29.6277741317163));
#1197=CARTESIAN_POINT('Origin',(-32.5976226126998,17.5,32.5976226126998));
#1198=CARTESIAN_POINT('',(-4.44089209850063E-15,17.5,41.9));
#1199=CARTESIAN_POINT('Origin',(-8.88178419700125E-15,17.5,46.1));
#1200=CARTESIAN_POINT('',(29.6277741317163,17.5,29.6277741317163));
#1201=CARTESIAN_POINT('Origin',(32.5976226126998,17.5,32.5976226126998));
#1202=CARTESIAN_POINT('Origin',(32.5976226126998,162.167351831372,32.5976226126998));
#1203=CARTESIAN_POINT('',(29.6277741317163,162.167351831372,29.6277741317163));
#1204=CARTESIAN_POINT('Origin',(-8.88178419700125E-15,162.167351831372,
46.1));
#1205=CARTESIAN_POINT('',(-7.5347652728905E-15,162.167351831372,41.9));
#1206=CARTESIAN_POINT('Origin',(-32.5976226126998,162.167351831372,32.5976226126998));
#1207=CARTESIAN_POINT('',(-29.6277741317163,162.167351831372,29.6277741317163));
#1208=CARTESIAN_POINT('Origin',(-46.1,162.167351831372,-8.88178419700125E-15));
#1209=CARTESIAN_POINT('',(-41.9,162.167351831372,-7.5347652728905E-15));
#1210=CARTESIAN_POINT('Origin',(-32.5976226126998,162.167351831372,-32.5976226126998));
#1211=CARTESIAN_POINT('',(-29.6277741317163,0.,-29.6277741317163));
#1212=CARTESIAN_POINT('Origin',(-32.5976226126998,0.,-32.5976226126998));
#1213=CARTESIAN_POINT('',(-29.6277741317163,17.5,-29.6277741317163));
#1214=CARTESIAN_POINT('',(-29.6277741317163,162.167351831372,-29.6277741317163));
#1215=CARTESIAN_POINT('Origin',(-32.5976226126998,17.5,-32.5976226126998));
#1216=CARTESIAN_POINT('Origin',(0.,162.167351831372,-46.1));
#1217=CARTESIAN_POINT('',(-5.14351655641888E-16,0.,-41.9));
#1218=CARTESIAN_POINT('Origin',(0.,0.,-46.1));
#1219=CARTESIAN_POINT('',(0.,17.5,-41.9));
#1220=CARTESIAN_POINT('',(-5.14351655641888E-16,162.167351831372,-41.9));
#1221=CARTESIAN_POINT('Origin',(0.,17.5,-46.1));
#1222=CARTESIAN_POINT('Origin',(32.5976226126998,162.167351831372,-32.5976226126998));
#1223=CARTESIAN_POINT('',(29.6277741317163,0.,-29.6277741317163));
#1224=CARTESIAN_POINT('Origin',(32.5976226126998,0.,-32.5976226126998));
#1225=CARTESIAN_POINT('',(29.6277741317163,17.5,-29.6277741317163));
#1226=CARTESIAN_POINT('',(29.6277741317163,162.167351831372,-29.6277741317163));
#1227=CARTESIAN_POINT('Origin',(32.5976226126998,17.5,-32.5976226126998));
#1228=CARTESIAN_POINT('Origin',(46.1,162.167351831372,0.));
#1229=CARTESIAN_POINT('',(41.9,0.,-5.14351655641888E-16));
#1230=CARTESIAN_POINT('Origin',(46.1,0.,0.));
#1231=CARTESIAN_POINT('',(41.9,17.5,-5.14351655641888E-16));
#1232=CARTESIAN_POINT('',(41.9,162.167351831372,-5.14351655641888E-16));
#1233=CARTESIAN_POINT('Origin',(46.1,17.5,0.));
#1234=CARTESIAN_POINT('Origin',(0.,16.4677394395973,0.));
#1235=CARTESIAN_POINT('',(4.72713664470878E-15,16.95,38.6));
#1236=CARTESIAN_POINT('Origin',(0.,16.95,0.));
#1237=CARTESIAN_POINT('',(4.88940234559581E-15,16.4677394395973,39.925));
#1238=CARTESIAN_POINT('Origin',(0.,16.625,0.));
#1239=CARTESIAN_POINT('',(4.72713664470878E-15,16.3,38.6));
#1240=CARTESIAN_POINT('',(4.72713664470878E-15,16.625,38.6));
#1241=CARTESIAN_POINT('Origin',(0.,16.3,0.));
#1242=CARTESIAN_POINT('Origin',(0.,16.3,-31.5));
#1243=CARTESIAN_POINT('',(3.85763741731416E-15,16.3,31.5));
#1244=CARTESIAN_POINT('Origin',(0.,16.3,0.));
#1245=CARTESIAN_POINT('Origin',(0.,8.75,0.));
#1246=CARTESIAN_POINT('',(3.85763741731416E-15,1.2,31.5));
#1247=CARTESIAN_POINT('',(3.85763741731416E-15,8.75,31.5));
#1248=CARTESIAN_POINT('Origin',(0.,1.2,0.));
#1249=CARTESIAN_POINT('Origin',(0.,1.2,-38.6));
#1250=CARTESIAN_POINT('',(4.72713664470878E-15,1.2,38.6));
#1251=CARTESIAN_POINT('Origin',(0.,1.2,0.));
#1252=CARTESIAN_POINT('Origin',(0.,0.875000000000004,0.));
#1253=CARTESIAN_POINT('',(4.72713664470878E-15,0.550000000000004,38.6));
#1254=CARTESIAN_POINT('',(4.72713664470878E-15,0.875000000000004,38.6));
#1255=CARTESIAN_POINT('Origin',(0.,0.550000000000004,0.));
#1256=CARTESIAN_POINT('Origin',(0.,1.03226056040272,0.));
#1257=CARTESIAN_POINT('',(5.05166804648283E-15,1.51452112080544,41.25));
#1258=CARTESIAN_POINT('Origin',(0.,1.51452112080544,0.));
#1259=CARTESIAN_POINT('',(4.88940234559581E-15,1.03226056040272,39.925));
#1260=CARTESIAN_POINT('Origin',(0.,0.757260560402719,0.));
#1261=CARTESIAN_POINT('',(5.05166804648283E-15,0.757260560402719,41.25));
#1262=CARTESIAN_POINT('Origin',(0.,-2.22044604925031E-15,0.));
#1263=CARTESIAN_POINT('Origin',(0.,4.44089209850063E-15,-57.));
#1264=CARTESIAN_POINT('Origin',(0.,8.25000000000001,-56.5));
#1265=CARTESIAN_POINT('',(6.91925441518255E-15,8.25000000000001,56.5));
#1266=CARTESIAN_POINT('Origin',(0.,8.25000000000001,0.));
#1267=CARTESIAN_POINT('Origin',(0.,8.75000000000001,0.));
#1268=CARTESIAN_POINT('',(6.91925441518255E-15,9.25000000000001,56.5));
#1269=CARTESIAN_POINT('Origin',(0.,9.25000000000001,0.));
#1270=CARTESIAN_POINT('',(6.91925441518255E-15,8.75000000000001,56.5));
#1271=CARTESIAN_POINT('Origin',(0.,9.25000000000001,-57.));
#1272=CARTESIAN_POINT('',(6.98048675513991E-15,9.25000000000001,57.));
#1273=CARTESIAN_POINT('Origin',(0.,9.25000000000001,0.));
#1274=CARTESIAN_POINT('Origin',(0.,13.375,0.));
#1275=CARTESIAN_POINT('Origin',(0.,17.5,0.));
#1276=CARTESIAN_POINT('',(6.98048675513991E-15,13.375,57.));
#1277=CARTESIAN_POINT('Origin',(0.,17.5,-41.25));
#1278=CARTESIAN_POINT('polyline point',(0.,16.3,-31.5));
#1279=CARTESIAN_POINT('polyline point',(0.,1.2,-31.5));
#1280=CARTESIAN_POINT('polyline point',(0.,-2.14238349283136E-15,-41.25));
#1281=CARTESIAN_POINT('polyline point',(0.,4.44089209850063E-15,-57.));
#1282=CARTESIAN_POINT('polyline point',(0.,17.5,-57.));
#1283=CARTESIAN_POINT('polyline point',(0.,17.5,-41.25));
#1284=CARTESIAN_POINT('polyline point',(0.,17.5,-41.25));
#1285=CARTESIAN_POINT('polyline point',(0.,15.9854788791946,-41.25));
#1286=CARTESIAN_POINT('polyline point',(0.,15.9854788791946,-41.25));
#1287=CARTESIAN_POINT('polyline point',(0.,16.95,-38.6));
#1288=CARTESIAN_POINT('polyline point',(0.,16.95,-38.6));
#1289=CARTESIAN_POINT('polyline point',(0.,16.3,-38.6));
#1290=CARTESIAN_POINT('polyline point',(0.,16.3,-38.6));
#1291=CARTESIAN_POINT('polyline point',(0.,16.3,-31.5));
#1292=CARTESIAN_POINT('polyline point',(0.,-2.14238349283136E-15,-41.25));
#1293=CARTESIAN_POINT('polyline point',(0.,1.51452112080544,-41.25));
#1294=CARTESIAN_POINT('polyline point',(0.,1.51452112080544,-41.25));
#1295=CARTESIAN_POINT('polyline point',(0.,0.550000000000004,-38.6));
#1296=CARTESIAN_POINT('polyline point',(0.,0.550000000000004,-38.6));
#1297=CARTESIAN_POINT('polyline point',(0.,1.2,-38.6));
#1298=CARTESIAN_POINT('polyline point',(0.,1.2,-38.6));
#1299=CARTESIAN_POINT('polyline point',(0.,1.2,-31.5));
#1300=CARTESIAN_POINT('polyline point',(0.,9.25000000000001,-57.));
#1301=CARTESIAN_POINT('polyline point',(0.,9.25000000000001,-56.5));
#1302=CARTESIAN_POINT('polyline point',(0.,9.25000000000001,-56.5));
#1303=CARTESIAN_POINT('polyline point',(0.,8.25000000000001,-56.5));
#1304=CARTESIAN_POINT('polyline point',(0.,8.25000000000001,-56.5));
#1305=CARTESIAN_POINT('polyline point',(0.,8.25000000000001,-57.));
#1306=CARTESIAN_POINT('polyline point',(0.,4.44089209850063E-15,-57.));
#1307=CARTESIAN_POINT('polyline point',(0.,8.25000000000001,-57.));
#1308=CARTESIAN_POINT('polyline point',(0.,9.25000000000001,-57.));
#1309=CARTESIAN_POINT('polyline point',(0.,17.5,-57.));
#1310=CARTESIAN_POINT('polyline point',(0.,9.25000000000001,-57.));
#1311=CARTESIAN_POINT('polyline point',(0.,8.25000000000001,-57.));
#1312=UNCERTAINTY_MEASURE_WITH_UNIT(LENGTH_MEASURE(0.01),#1316,
'DISTANCE_ACCURACY_VALUE',
'Maximum model space distance between geometric entities at asserted c
onnectivities');
#1313=UNCERTAINTY_MEASURE_WITH_UNIT(LENGTH_MEASURE(0.01),#1316,
'DISTANCE_ACCURACY_VALUE',
'Maximum model space distance between geometric entities at asserted c
onnectivities');
#1314=(
GEOMETRIC_REPRESENTATION_CONTEXT(3)
GLOBAL_UNCERTAINTY_ASSIGNED_CONTEXT((#1312))
GLOBAL_UNIT_ASSIGNED_CONTEXT((#1316,#1318,#1319))
REPRESENTATION_CONTEXT('','3D')
);
#1315=(
GEOMETRIC_REPRESENTATION_CONTEXT(3)
GLOBAL_UNCERTAINTY_ASSIGNED_CONTEXT((#1313))
GLOBAL_UNIT_ASSIGNED_CONTEXT((#1316,#1318,#1319))
REPRESENTATION_CONTEXT('','3D')
);
#1316=(
LENGTH_UNIT()
NAMED_UNIT(*)
SI_UNIT(.MILLI.,.METRE.)
);
#1317=(
LENGTH_UNIT()
NAMED_UNIT(*)
SI_UNIT(.CENTI.,.METRE.)
);
#1318=(
NAMED_UNIT(*)
PLANE_ANGLE_UNIT()
SI_UNIT($,.RADIAN.)
);
#1319=(
NAMED_UNIT(*)
SI_UNIT($,.STERADIAN.)
SOLID_ANGLE_UNIT()
);
#1320=SHAPE_DEFINITION_REPRESENTATION(#1321,#1322);
#1321=PRODUCT_DEFINITION_SHAPE('',$,#1324);
#1322=SHAPE_REPRESENTATION('',(#766),#1314);
#1323=PRODUCT_DEFINITION_CONTEXT('part definition',#1328,'design');
#1324=PRODUCT_DEFINITION('ICF114FDS63B',
'335.ICF \X2\4E21976230A830C330B87A743042304D30D530E930F330B8\X0\',#1325,
#1323);
#1325=PRODUCT_DEFINITION_FORMATION('',$,#1330);
#1326=PRODUCT_RELATED_PRODUCT_CATEGORY(
'335.ICF \X2\4E21976230A830C330B87A743042304D30D530E930F330B8\X0\',
'335.ICF \X2\4E21976230A830C330B87A743042304D30D530E930F330B8\X0\',(#1330));
#1327=APPLICATION_PROTOCOL_DEFINITION('international standard',
'automotive_design',2009,#1328);
#1328=APPLICATION_CONTEXT(
'Core Data for Automotive Mechanical Design Process');
#1329=PRODUCT_CONTEXT('part definition',#1328,'mechanical');
#1330=PRODUCT('ICF114FDS63B',
'335.ICF \X2\4E21976230A830C330B87A743042304D30D530E930F330B8\X0\',
'\X2\30B330B930E230FB30C630C330AF682A5F0F4F1A793E\X0\(COSMOTEC Corprat
ion)',(#1329));
#1331=PRESENTATION_STYLE_ASSIGNMENT((#1333));
#1332=PRESENTATION_STYLE_ASSIGNMENT((#1334));
#1333=SURFACE_STYLE_USAGE(.BOTH.,#1337);
#1334=SURFACE_STYLE_USAGE(.BOTH.,#1338);
#1335=SURFACE_STYLE_RENDERING_WITH_PROPERTIES($,#1345,(#1336));
#1336=SURFACE_STYLE_TRANSPARENT(0.);
#1337=SURFACE_SIDE_STYLE('',(#1339,#1335));
#1338=SURFACE_SIDE_STYLE('',(#1340));
#1339=SURFACE_STYLE_FILL_AREA(#1341);
#1340=SURFACE_STYLE_FILL_AREA(#1342);
#1341=FILL_AREA_STYLE('',(#1343));
#1342=FILL_AREA_STYLE('',(#1344));
#1343=FILL_AREA_STYLE_COLOUR('',#1345);
#1344=FILL_AREA_STYLE_COLOUR('',#1346);
#1345=COLOUR_RGB('',0.749019607843137,0.749019607843137,0.749019607843137);
#1346=COLOUR_RGB('',0.,0.,0.);
ENDSEC;
END-ISO-10303-21;
